<svg id="그룹_2021" data-name="그룹 2021" xmlns="http://www.w3.org/2000/svg" width="26.4" height="24.888" viewBox="0 0 26.4 24.888">
  <g id="그룹_2016" data-name="그룹 2016" transform="translate(4.441 4.835)">
    <path id="패스_2069" data-name="패스 2069" d="M-724.648,701.955H-739.5a.809.809,0,0,1-.788-.621l-2.746-11.494a.81.81,0,0,1,.152-.688.81.81,0,0,1,.636-.309H-721.9a.813.813,0,0,1,.636.309.81.81,0,0,1,.151.688l-2.746,11.494A.808.808,0,0,1-724.648,701.955Zm-14.211-1.619h13.572l2.359-9.875h-18.29Z" transform="translate(743.052 -688.842)" fill="#231f20"/>
  </g>
  <g id="그룹_2017" data-name="그룹 2017">
    <path id="패스_2070" data-name="패스 2070" d="M-740.32,697.472a.81.81,0,0,1-.787-.622l-2.6-10.871h-2.654a.81.81,0,0,1-.809-.809.81.81,0,0,1,.809-.809h3.293a.808.808,0,0,1,.787.621l2.746,11.494a.809.809,0,0,1-.6.974A.81.81,0,0,1-740.32,697.472Z" transform="translate(747.168 -684.361)" fill="#231f20"/>
  </g>
  <g id="그룹_2018" data-name="그룹 2018" transform="translate(7.188 19.151)">
    <path id="패스_2071" data-name="패스 2071" d="M-737.639,707.846a2.872,2.872,0,0,1-2.868-2.869,2.871,2.871,0,0,1,2.868-2.868,2.872,2.872,0,0,1,2.869,2.868A2.873,2.873,0,0,1-737.639,707.846Zm0-4.119a1.252,1.252,0,0,0-1.25,1.25,1.251,1.251,0,0,0,1.25,1.251,1.252,1.252,0,0,0,1.251-1.251A1.252,1.252,0,0,0-737.639,703.728Z" transform="translate(740.507 -702.109)" fill="#231f20"/>
  </g>
  <g id="그룹_2019" data-name="그룹 2019" transform="translate(17.916 19.151)">
    <path id="패스_2072" data-name="패스 2072" d="M-727.695,707.846a2.873,2.873,0,0,1-2.869-2.869,2.872,2.872,0,0,1,2.869-2.868,2.872,2.872,0,0,1,2.869,2.868A2.873,2.873,0,0,1-727.695,707.846Zm0-4.119a1.252,1.252,0,0,0-1.251,1.25,1.252,1.252,0,0,0,1.251,1.251,1.252,1.252,0,0,0,1.251-1.251A1.252,1.252,0,0,0-727.695,703.728Z" transform="translate(730.564 -702.109)" fill="#231f20"/>
  </g>
  <g id="그룹_2020" data-name="그룹 2020" transform="translate(11.306 21.21)">
    <path id="패스_2073" data-name="패스 2073" d="M-732.2,705.636h-3.679a.81.81,0,0,1-.809-.809.81.81,0,0,1,.809-.809h3.679a.81.81,0,0,1,.809.809A.81.81,0,0,1-732.2,705.636Z" transform="translate(736.69 -704.017)" fill="#231f20"/>
  </g>
</svg>
