<svg xmlns="http://www.w3.org/2000/svg" width="68.906" height="60" viewBox="0 0 68.906 60">
  <g id="그룹_1828" data-name="그룹 1828" transform="translate(1311.428 -552.002)">
    <g id="그룹_1827" data-name="그룹 1827" transform="translate(-1311.428 552.002)">
      <path id="패스_2053" data-name="패스 2053" d="M-1252.015,561.613h-8.554v-1.291a8.344,8.344,0,0,0-8.32-8.32h-16.172a8.344,8.344,0,0,0-8.32,8.32v1.291h-8.557a9.517,9.517,0,0,0-9.49,9.49v31.405a9.518,9.518,0,0,0,9.49,9.493h49.923a9.52,9.52,0,0,0,9.493-9.493V571.1A9.52,9.52,0,0,0-1252.015,561.613Zm-24.96,41.014a15.822,15.822,0,0,1-15.823-15.82,15.82,15.82,0,0,1,15.823-15.82,15.819,15.819,0,0,1,15.82,15.82A15.821,15.821,0,0,1-1276.975,602.627Z" transform="translate(1311.428 -552.002)" fill="#676767"/>
      <circle id="타원_414" data-name="타원 414" cx="10.195" cy="10.195" r="10.195" transform="translate(24.257 24.61)" fill="#676767"/>
    </g>
  </g>
</svg>
