<svg xmlns="http://www.w3.org/2000/svg" width="15" height="15" viewBox="0 0 15 15">
    <path id="패스_40" data-name="패스 40" d="M-847.388,273.711a.483.483,0,0,1-.274-.085l-.075-.051c-7.054-4.722-6.693-8.292-6.6-8.795a3.682,3.682,0,0,1,3.465-3.415,3.678,3.678,0,0,1,3.484,1.325,3.677,3.677,0,0,1,3.484-1.325,3.682,3.682,0,0,1,3.465,3.415c.092.5.453,4.07-6.6,8.792l-.078.054A.483.483,0,0,1-847.388,273.711Zm-2.959-11.4c-.137,0-.281.006-.434.021a2.741,2.741,0,0,0-2.593,2.541.508.508,0,0,1-.014.091c0,.025-.605,3.193,6,7.683,6.6-4.491,6-7.658,6-7.69a.629.629,0,0,1-.012-.085,2.741,2.741,0,0,0-2.593-2.54c-2.422-.231-2.905,1.473-2.925,1.546a.486.486,0,0,1-.468.361h0a.483.483,0,0,1-.466-.364A2.369,2.369,0,0,0-850.348,262.307Z" transform="translate(855 -260)" fill="#1a1818"/>
</svg>