<svg xmlns="http://www.w3.org/2000/svg" width="120" height="120" viewBox="0 0 120 120">
  <g id="그룹_442" data-name="그룹 442" transform="translate(-896 -1330)">
    <circle id="타원_21" data-name="타원 21" cx="60" cy="60" r="60" transform="translate(896 1330)" fill="#fff"/>
    <g id="그룹_205" data-name="그룹 205" transform="translate(933 1368)">
      <path id="패스_65" data-name="패스 65" d="M-1537.293,273.139h-4.209l3.486-3.487a1.5,1.5,0,0,0,0-2.126,1.5,1.5,0,0,0-2.126,0l-5.612,5.613h-5.424l1.447-2.505a1.508,1.508,0,0,0,0-1.5,1.5,1.5,0,0,0-1.3-.752h-2.893l2.713-4.7,7.666-2.053a1.5,1.5,0,0,0,1.063-1.842,1.5,1.5,0,0,0-1.842-1.063l-4.761,1.275,2.105-3.645a1.5,1.5,0,0,0-.552-2.054,1.5,1.5,0,0,0-2.054.55l-2.1,3.645-1.277-4.761a1.5,1.5,0,0,0-1.841-1.063,1.5,1.5,0,0,0-1.063,1.841l2.054,7.666-2.713,4.7-1.445-2.505a1.565,1.565,0,0,0-2.606,0l-1.445,2.505-2.711-4.7,2.054-7.667a1.5,1.5,0,0,0-1.063-1.841,1.5,1.5,0,0,0-1.842,1.063l-1.275,4.761-2.105-3.645a1.5,1.5,0,0,0-2.054-.55,1.5,1.5,0,0,0-.55,2.054l2.1,3.645-4.761-1.275a1.5,1.5,0,0,0-1.842,1.063,1.5,1.5,0,0,0,1.063,1.842l7.666,2.053,2.711,4.7h-2.892a1.5,1.5,0,0,0-1.3.752,1.509,1.509,0,0,0,0,1.5l1.447,2.505h-5.422l-5.614-5.613a1.5,1.5,0,0,0-2.126,0,1.5,1.5,0,0,0,0,2.126l3.487,3.487h-4.211a1.5,1.5,0,0,0-1.5,1.5,1.5,1.5,0,0,0,1.5,1.5h4.211l-3.487,3.486a1.5,1.5,0,0,0,0,2.126,1.5,1.5,0,0,0,1.063.441,1.5,1.5,0,0,0,1.063-.441l5.614-5.612h5.422l-1.447,2.5a1.509,1.509,0,0,0,0,1.5,1.5,1.5,0,0,0,1.3.752h2.893l-2.713,4.7-7.666,2.054a1.5,1.5,0,0,0-1.063,1.841,1.5,1.5,0,0,0,1.842,1.063l4.761-1.275-2.1,3.645a1.5,1.5,0,0,0,.55,2.056,1.51,1.51,0,0,0,.751.2,1.5,1.5,0,0,0,1.3-.752l2.105-3.645,1.275,4.762a1.506,1.506,0,0,0,1.451,1.114,1.529,1.529,0,0,0,.391-.051,1.5,1.5,0,0,0,1.063-1.842l-2.054-7.666,2.711-4.7,1.445,2.5a1.506,1.506,0,0,0,1.3.752,1.507,1.507,0,0,0,1.3-.752l1.445-2.5,2.711,4.7-2.053,7.666a1.5,1.5,0,0,0,1.063,1.842,1.509,1.509,0,0,0,.389.051,1.5,1.5,0,0,0,1.451-1.114l1.277-4.762,2.1,3.645a1.505,1.505,0,0,0,1.3.752,1.5,1.5,0,0,0,.75-.2,1.505,1.505,0,0,0,.552-2.056l-2.105-3.645,4.761,1.275a1.5,1.5,0,0,0,1.842-1.063,1.5,1.5,0,0,0-1.063-1.841l-7.666-2.054-2.713-4.7h2.893a1.5,1.5,0,0,0,1.3-.752,1.508,1.508,0,0,0,0-1.5l-1.447-2.5h5.424l5.612,5.612a1.5,1.5,0,0,0,1.063.441,1.5,1.5,0,0,0,1.063-.441,1.5,1.5,0,0,0,0-2.126l-3.486-3.486h4.209a1.5,1.5,0,0,0,1.5-1.5A1.5,1.5,0,0,0-1537.293,273.139Zm-17.357,0h-2.024l1.012-1.753h2.024Zm-3.618-3.259-1.012,1.753-1.01-1.752,1.01-1.753Zm-4.629,1.505,1.012,1.753h-2.024l-1.012-1.753Zm-1.012,4.761h2.024l-1.012,1.752h-2.024Zm4.629,5.009-1.01-1.753,1.01-1.752,1.012,1.753Zm3.618-3.257-1.012-1.752h2.024l1.012,1.752Z" transform="translate(1582.77 -252.618)" fill="#183e15"/>
    </g>
  </g>
</svg>
