<svg xmlns="http://www.w3.org/2000/svg" width="11.777" height="13.017" viewBox="0 0 11.777 13.017">
  <path id="패스_1442" data-name="패스 1442" d="M-1106.855,524.229l-1.206.116a4.664,4.664,0,0,1-1.348,3.756,4.682,4.682,0,0,1-6.614,0,4.647,4.647,0,0,1-1.371-3.308,4.647,4.647,0,0,1,1.371-3.307,4.644,4.644,0,0,1,3.307-1.37,4.641,4.641,0,0,1,2.349.637l-1.5.532.405,1.141,3.518-1.248-1.248-3.517-1.142.4.584,1.646a5.846,5.846,0,0,0-2.967-.807,5.85,5.85,0,0,0-4.164,1.725,5.85,5.85,0,0,0-1.725,4.163,5.852,5.852,0,0,0,1.725,4.164,5.87,5.87,0,0,0,4.163,1.722,5.869,5.869,0,0,0,4.164-1.722A5.872,5.872,0,0,0-1106.855,524.229Z" transform="translate(1118.605 -517.662)" fill="#15700e"/>
</svg>