<svg xmlns="http://www.w3.org/2000/svg" width="12.412" height="12.412" viewBox="0 0 12.412 12.412">
  <g id="그룹_1952" data-name="그룹 1952" transform="translate(756.814 -753.245)">
    <g id="그룹_1951" data-name="그룹 1951" transform="translate(-756.814 753.245)">
      <g id="그룹_1950" data-name="그룹 1950" transform="translate(0 0)">
        <g id="그룹_1946" data-name="그룹 1946" transform="translate(6.628)">
          <path id="패스_2065" data-name="패스 2065" d="M-730.779,767.926a.566.566,0,0,1-.4-.167.571.571,0,0,1-.1-.668,3.975,3.975,0,0,0-1-1.413,3.974,3.974,0,0,0-1.413-1,.569.569,0,0,1-.668-.1.568.568,0,0,1-.167-.4.568.568,0,0,1,.167-.4l1.383-1.383c.228-.228.671-.41,1.482.021a6.232,6.232,0,0,1,1.405,1.084c.965.965,1.763,2.231,1.106,2.888l-1.383,1.383A.57.57,0,0,1-730.779,767.926Zm-2.036-4.1a6.413,6.413,0,0,1,1.333,1.046,6.34,6.34,0,0,1,1.046,1.333l.525-.525a4.145,4.145,0,0,0-1-1.384,4.14,4.14,0,0,0-1.383-.995Zm2.922,1.935h0Z" transform="translate(734.536 -762.142)" fill="#15700e"/>
        </g>
        <g id="그룹_1947" data-name="그룹 1947" transform="translate(0.514 1.383)">
          <path id="패스_2066" data-name="패스 2066" d="M-738.816,774.477h-.01a.571.571,0,0,1-.407-.18.584.584,0,0,1-.124-.593,3.818,3.818,0,0,0-1.008-1.434,3.808,3.808,0,0,0-1.434-1.009.572.572,0,0,1-.572-.106.581.581,0,0,1-.2-.413.575.575,0,0,1,.164-.426l6.117-6.117c.228-.228.671-.411,1.482.021a6.253,6.253,0,0,1,1.4,1.085c.965.966,1.763,2.231,1.107,2.887h0l-6.117,6.117A.571.571,0,0,1-738.816,774.477Zm-.5-.864h0Zm-1.575-3.2a6.681,6.681,0,0,1,1.332,1.046,6.679,6.679,0,0,1,1.047,1.333l5.3-5.3a4.152,4.152,0,0,0-.995-1.384,4.143,4.143,0,0,0-1.384-1Zm8.19-2.626h0Z" transform="translate(742.569 -763.959)" fill="#15700e"/>
        </g>
        <g id="그룹_1948" data-name="그룹 1948" transform="translate(0 7.541)">
          <path id="패스_2067" data-name="패스 2067" d="M-742.674,776.922a.57.57,0,0,1-.4-.167.571.571,0,0,1-.162-.482l.51-3.7a.572.572,0,0,1,.366-.457l.06-.019c.883-.309,2.188.9,2.584,1.3s1.6,1.7,1.3,2.579c0,.018-.01.037-.016.055a.572.572,0,0,1-.46.375l-3.7.512A.553.553,0,0,1-742.674,776.922Zm1-3.612-.328,2.372,2.372-.328a5.052,5.052,0,0,0-.893-1.151A5.064,5.064,0,0,0-741.677,773.31Z" transform="translate(743.245 -772.05)" fill="#15700e"/>
        </g>
        <g id="그룹_1949" data-name="그룹 1949" transform="translate(2.552 2.562)">
          <path id="패스_2068" data-name="패스 2068" d="M-739.321,772.807a.572.572,0,0,1-.4-.167.573.573,0,0,1,0-.808l6.157-6.157a.57.57,0,0,1,.807,0,.571.571,0,0,1,0,.808l-6.156,6.157A.569.569,0,0,1-739.321,772.807Z" transform="translate(739.892 -765.508)" fill="#15700e"/>
        </g>
      </g>
    </g>
  </g>
</svg>
