<svg xmlns="http://www.w3.org/2000/svg" width="60" height="60" viewBox="0 0 60 60">
  <g id="그룹_2351" data-name="그룹 2351" transform="translate(-729 -652)">
    <circle id="타원_429" data-name="타원 429" cx="30" cy="30" r="30" transform="translate(729 652)" fill="#15700e"/>
    <circle id="타원_95" data-name="타원 95" cx="5.428" cy="5.428" r="5.428" transform="translate(760.113 673)" fill="#fff"/>
    <circle id="타원_96" data-name="타원 96" cx="2.262" cy="2.262" r="2.262" transform="translate(763.281 675.457)" fill="#1d1d1b"/>
    <circle id="타원_97" data-name="타원 97" cx="5.428" cy="5.428" r="5.428" transform="translate(747.008 673)" fill="#fff"/>
    <circle id="타원_98" data-name="타원 98" cx="2.262" cy="2.262" r="2.262" transform="translate(750.172 675.457)" fill="#1d1d1b"/>
    <ellipse id="타원_99" data-name="타원 99" cx="2.984" cy="1.823" rx="2.984" ry="1.823" transform="translate(756.004 680.209)" fill="#183e15"/>
    <g id="그룹_494" data-name="그룹 494" transform="translate(751.395 686.515)">
      <path id="패스_892" data-name="패스 892" d="M1174.407,304.172a2.787,2.787,0,0,0-2.171,1.048l1.317,2.4a1.119,1.119,0,0,0,2.047-.058l1.07-2.245A2.856,2.856,0,0,0,1174.407,304.172Z" transform="translate(-1172.236 -304.172)" fill="#f8f6f7"/>
      <path id="패스_893" data-name="패스 893" d="M1269.992,304.172a2.855,2.855,0,0,0-2.261,1.148l1.071,2.246a1.119,1.119,0,0,0,2.046.058l1.317-2.4A2.788,2.788,0,0,0,1269.992,304.172Z" transform="translate(-1256.983 -304.172)" fill="#f8f6f7"/>
    </g>
    <g id="그룹_495" data-name="그룹 495" transform="translate(742 685.784)">
      <path id="패스_894" data-name="패스 894" d="M1116.566,302.512a4.063,4.063,0,0,1-3.281-1.962c-.7-.877-1.184-1.415-2.139-1.415s-1.435.538-2.139,1.415a3.723,3.723,0,0,1-6.56,0c-.7-.877-1.184-1.415-2.139-1.415s-1.435.538-2.139,1.415a3.723,3.723,0,0,1-6.56,0c-.7-.877-1.184-1.415-2.139-1.415a.732.732,0,0,1,0-1.463,4.063,4.063,0,0,1,3.28,1.962c.7.877,1.184,1.415,2.139,1.415s1.435-.538,2.139-1.415a3.723,3.723,0,0,1,6.56,0c.7.877,1.184,1.415,2.139,1.415s1.435-.538,2.139-1.415a3.723,3.723,0,0,1,6.561,0c.7.877,1.184,1.415,2.139,1.415s1.435-.538,2.139-1.415a4.063,4.063,0,0,1,3.28-1.962.732.732,0,0,1,0,1.463c-.956,0-1.435.538-2.139,1.415A4.063,4.063,0,0,1,1116.566,302.512Z" transform="translate(-1088.739 -297.672)" fill="#444"/>
    </g>
  </g>
</svg>
