<svg class="header__item header__search" xmlns="http://www.w3.org/2000/svg" width="40" height="40" viewBox="0 0 40 40">
    <g id="그룹_74" transform="translate(978.671 -520.248)">
        <path id="패스_39" d="M-945.406,553.179l-7.648-7.648a11.334,11.334,0,0,0,3.275-7.973,11.388,11.388,0,0,0-11.375-11.376,11.388,11.388,0,0,0-11.375,11.376,11.388,11.388,0,0,0,11.375,11.375,11.307,11.307,0,0,0,6.586-2.118l7.762,7.762Zm-25.144-15.621a9.407,9.407,0,0,1,9.4-9.4,9.408,9.408,0,0,1,9.4,9.4,9.407,9.407,0,0,1-9.4,9.4A9.406,9.406,0,0,1-970.55,537.559Z" transform="translate(-0.067 -0.06)" fill="#1a1818"/>
    </g>
</svg>