<svg xmlns="http://www.w3.org/2000/svg" width="120" height="120" viewBox="0 0 120 120">
      <style>
      g > * {
        transition: .5s;
      }
      g:hover > circle {
        fill: #183e15;
      }
      g:hover path {
        fill: #fff;
      }
    </style>
    <g id="그룹_441" data-name="그룹 441" transform="translate(-1334 -1325)">
    <circle id="타원_20" data-name="타원 20" cx="60" cy="60" r="60" transform="translate(1334 1325)" fill="#fff"/>
    <g id="그룹_201" data-name="그룹 201" transform="translate(320 165)">
      <g id="그룹_200" data-name="그룹 200" transform="translate(0.175 -1.37)">
        <g id="그룹_197" data-name="그룹 197" transform="translate(1085.671 1204.975)">
          <g id="그룹_196" data-name="그룹 196" transform="translate(0)">
            <path id="패스_50" data-name="패스 50" d="M-1373.969,251.459h0c-.813,5.284-2.462,13.794-5.156,18.318h0C-1358.118,254.837-1373.969,251.459-1373.969,251.459Z" transform="translate(1379.125 -251.459)" fill="#183e15"/>
          </g>
        </g>
        <path id="패스_51" data-name="패스 51" d="M-1382.172,248.392h-14.833s2.719,25.991,9.665,25.991H-1377c6.947,0,9.665-25.991,9.665-25.991Z" transform="translate(2455.865 951.978)" fill="#183e15"/>
        <path id="패스_52" data-name="패스 52" d="M-1379.818,266.667h-10.336s-2.869,1.756,0,3.51h10.336C-1376.949,268.423-1379.818,266.667-1379.818,266.667Z" transform="translate(2458.679 961.133)" fill="#183e15"/>
        <path id="패스_53" data-name="패스 53" d="M-1385.751,270h-4.161v3.344h8.323V270Z" transform="translate(2459.444 962.799)" fill="#183e15"/>
        <path id="패스_54" data-name="패스 54" d="M-1379.5,273.222v0h-8.323v0a14.565,14.565,0,0,0-6.234,5.305h20.79A14.566,14.566,0,0,0-1379.5,273.222Z" transform="translate(2457.354 964.381)" fill="#183e15"/>
        <g id="그룹_199" data-name="그룹 199" transform="translate(1050.825 1204.975)">
          <g id="그룹_198" data-name="그룹 198" transform="translate(0)">
            <path id="패스_55" data-name="패스 55" d="M-1396.673,251.459h0c.813,5.284,2.462,13.794,5.156,18.318h0C-1412.524,254.837-1396.673,251.459-1396.673,251.459Z" transform="translate(1402.407 -251.459)" fill="#183e15"/>
          </g>
        </g>
      </g>
    </g>
  </g>
</svg>
