<svg id="Layer_1" data-name="Layer 1" xmlns="http://www.w3.org/2000/svg" viewBox="0 0 700 250"><defs><style>.cls-1{fill:#183e15;}</style></defs><path class="cls-1" d="M151.91,206.77a6.48,6.48,0,0,1-.7,4.09q-.9,1.3-4.5,1.71-23,3-42-.4t-32.4-13a63.35,63.35,0,0,1-21.1-24.7q-7.5-15.3-7.5-36.3a77.63,77.63,0,0,1,3.9-25.6A62.17,62.17,0,0,1,58.51,93a61,61,0,0,1,16.1-13.7,88.65,88.65,0,0,1,20.1-8.7,112.44,112.44,0,0,1,22.6-3.8,153.69,153.69,0,0,1,23.6.2,8.93,8.93,0,0,1,4.1,1.39c.86.67,1.3,1.94,1.3,3.81l-.2,30.6c0,1.73-.4,2.9-1.2,3.5a6.16,6.16,0,0,1-4,.7,104.19,104.19,0,0,0-21.5.89,40.22,40.22,0,0,0-15.5,5.5,24.87,24.87,0,0,0-9.6,11q-3.21,7-3.2,17.21a38.06,38.06,0,0,0,2.7,14.7,23.76,23.76,0,0,0,8.9,10.7q6,4.2,16,5.7t24.8-.5q3.39-.4,4.5.8a5.69,5.69,0,0,1,1.3,3.39Z"/><path class="cls-1" d="M171.87,159.1q-4.2,0-6.2-1.6t-2-5.8V128.1q0-4.2,2-5.8t6.2-1.6h86q4.2,0,6.2,1.6t2,5.8v23.6q0,4.2-2,5.8t-6.2,1.6Z"/><path class="cls-1" d="M376.67,173.1q4.2,0,6.2,1.6t2,5.8v25.4c0,2.8-.67,4.76-2,5.9s-3.4,1.7-6.2,1.7h-80.6c-3.47,0-5.83-.77-7.1-2.3s-2-4.3-2.1-8.3l-2.2-126q-.19-5.81,1.9-8.1t7.3-2.3h26q5.2,0,7,2.3t2,8.1l2.4,96.2Z"/><path class="cls-1" d="M399.47,82.7q0-9.6,5.9-15.9t16.9-6.3q11,0,16.9,6.3t5.9,15.9q0,9.6-5.9,15.9t-16.9,6.3q-11,0-16.9-6.3T399.47,82.7Zm1.4,41.6q0-6,1.9-8.2t7.1-2.2h25.6q5.19,0,7.2,2.3t2,8.1l.4,78.6c0,4-.67,6.76-2,8.3s-3.74,2.3-7.2,2.3h-26q-5.21,0-7.1-2.3c-1.27-1.54-1.9-4.3-1.9-8.3Z"/><path class="cls-1" d="M507.47,55.67a137,137,0,0,1,22,1.62,11.38,11.38,0,0,0-.51-7.33h0a11.53,11.53,0,0,0-12.56-7A11.75,11.75,0,0,0,515,39.87h0a11.57,11.57,0,0,0-20,.85h0a11.26,11.26,0,0,0-1.12,3.19A11.55,11.55,0,0,0,481.91,52h0a11.45,11.45,0,0,0,1.54,10.1A40.05,40.05,0,0,1,489.3,59,46.3,46.3,0,0,1,507.47,55.67Z"/><path class="cls-1" d="M514.67,144.5v58.4c0,4-.64,6.76-1.9,8.3s-3.64,2.3-7.1,2.3h-25q-5.21,0-7.2-2.3c-1.34-1.54-2-4.3-2-8.3l-.2-58.4h-7.4q-5,0-6.6-1.4t-1.6-6V118.3q0-4.6,1.6-6t6.6-1.4h7.4v-10a43.91,43.91,0,0,1,2.2-14,33,33,0,0,1,6.6-11.6,30.59,30.59,0,0,1,11.2-7.9,41.18,41.18,0,0,1,16.2-2.9,130.47,130.47,0,0,1,21.4,1.6,62.2,62.2,0,0,1,16,4.6,6.67,6.67,0,0,1,3,2.3c.53.87.66,2.43.4,4.7l-3.2,19q-.81,5.4-7,3.6a71.79,71.79,0,0,0-8.7-2.2,42,42,0,0,0-7.1-.6q-4.41,0-6,1.9t-1.6,8.1v3.4h18.2q5,0,6.6,1.4c1.06.93,1.6,2.93,1.6,6v18.8c0,3.07-.54,5.07-1.6,6s-3.27,1.4-6.6,1.4Z"/><path class="cls-1" d="M602.07,101.9a56.46,56.46,0,0,1,22.7,4.3,46.37,46.37,0,0,1,16.7,12.1A56.56,56.56,0,0,1,652,137.7a96.83,96.83,0,0,1,4.3,25.8q.19,4-1.1,5.4t-4.9,1.8l-61.6,6a14.06,14.06,0,0,0,7.9,6.9,40.46,40.46,0,0,0,12.9,2.7,61.14,61.14,0,0,0,15-1.1,60.11,60.11,0,0,0,14.2-4.5q5.19-2.4,5.4,3.4l1.2,19.2a6,6,0,0,1-.7,3.8,7.18,7.18,0,0,1-3.7,2.4,94.8,94.8,0,0,1-17.5,4.5,112.48,112.48,0,0,1-17.9,1.5,66,66,0,0,1-24.1-4.1,48.11,48.11,0,0,1-17.7-11.7,49.48,49.48,0,0,1-11-17.8,65.79,65.79,0,0,1-3.8-22.8,65,65,0,0,1,3.5-21.1,55.32,55.32,0,0,1,10.3-18.3,49.65,49.65,0,0,1,16.5-12.9A50.94,50.94,0,0,1,602.07,101.9Zm16.8,44.8q-.81-7.39-5.4-10.8a17.06,17.06,0,0,0-10.4-3.4,16,16,0,0,0-16.2,17.4Z"/></svg>