<svg xmlns="http://www.w3.org/2000/svg" viewBox="0 0 637.37 181.06"><defs><style>.cls-1{fill:#183e15;}</style></defs><title>logo</title><g id="Layer_2" data-name="Layer 2"><g id="Layer_1-2" data-name="Layer 1"><path class="cls-1" d="M5.15,173.53c-2.26-.66-3.8-1.63-4.6-2.9s-.73-3.3.2-6.1l41.4-123.6q1.6-5,3.8-7t7-2H82c3.2,0,5.54.67,7,2s2.73,3.67,3.8,7l41.4,123.6c.94,2.8,1,4.84.2,6.1s-2.33,2.24-4.6,2.9l-24.8,7.2q-5.79,1.61-7.8-4.6l-6.2-20H43.75l-6,20q-2,6.21-7.8,4.6Zm62.2-95.6-12,39.8h24Z"/><path class="cls-1" d="M153,124.6q-4.2,0-6.2-1.6t-2-5.8V93.6q0-4.2,2-5.8t6.2-1.6h86q4.2,0,6.2,1.6t2,5.8v23.6q0,4.2-2,5.8t-6.2,1.6Z"/><path class="cls-1" d="M357.75,138.6c2.8,0,4.86.53,6.2,1.6s2,3,2,5.8v25.4c0,2.8-.67,4.76-2,5.9s-3.4,1.7-6.2,1.7h-80.6q-5.2,0-7.1-2.3c-1.27-1.54-2-4.3-2.1-8.3l-2.2-126c-.14-3.87.5-6.57,1.9-8.1S271.48,32,275,32h26c3.46,0,5.8.77,7,2.3s1.86,4.23,2,8.1l2.4,96.2Z"/><path class="cls-1" d="M380.55,48.2q0-9.6,5.9-15.9t16.9-6.3q11,0,16.9,6.3t5.9,15.9q0,9.6-5.9,15.9t-16.9,6.3q-11,0-16.9-6.3T380.55,48.2ZM382,89.8q0-6,1.9-8.2t7.1-2.2h25.6q5.19,0,7.2,2.3t2,8.1l.4,78.6c0,4-.67,6.76-2,8.3s-3.74,2.3-7.2,2.3H391q-5.2,0-7.1-2.3c-1.27-1.54-1.9-4.3-1.9-8.3Z"/><path class="cls-1" d="M488.54,21.16a137,137,0,0,1,22,1.63,11.41,11.41,0,0,0-.51-7.34h0a11.54,11.54,0,0,0-12.56-7,12,12,0,0,0-1.39-3.09h0a11.57,11.57,0,0,0-20,.86h0a11.61,11.61,0,0,0-1.13,3.19A11.55,11.55,0,0,0,463,17.46h0a11.42,11.42,0,0,0,1.54,10.1,39.55,39.55,0,0,1,5.85-3.09A46.1,46.1,0,0,1,488.54,21.16Z"/><path class="cls-1" d="M495.74,110v58.4c0,4-.63,6.76-1.9,8.3s-3.63,2.3-7.1,2.3h-25q-5.19,0-7.2-2.3c-1.33-1.54-2-4.3-2-8.3l-.2-58.4h-7.4q-5,0-6.6-1.4c-1.06-.93-1.6-2.93-1.6-6V83.8c0-3.07.54-5.07,1.6-6s3.27-1.4,6.6-1.4h7.4v-10a44.19,44.19,0,0,1,2.2-14,33.35,33.35,0,0,1,6.6-11.6,30.75,30.75,0,0,1,11.2-7.9,41.24,41.24,0,0,1,16.2-2.9,130.38,130.38,0,0,1,21.4,1.6,62.08,62.08,0,0,1,16,4.6,6.56,6.56,0,0,1,3,2.3c.54.87.67,2.43.4,4.7l-3.2,19q-.79,5.4-7,3.6a70.88,70.88,0,0,0-8.7-2.2,41.92,41.92,0,0,0-7.1-.6q-4.39,0-6,1.9c-1.06,1.27-1.6,4-1.6,8.1v3.4h18.2q5,0,6.6,1.4t1.6,6v18.8q0,4.61-1.6,6t-6.6,1.4Z"/><path class="cls-1" d="M583.14,67.4a56.47,56.47,0,0,1,22.71,4.3,46.37,46.37,0,0,1,16.7,12.1,56.56,56.56,0,0,1,10.5,19.4,96.83,96.83,0,0,1,4.3,25.8q.2,4-1.1,5.4t-4.9,1.8l-61.6,6a14.07,14.07,0,0,0,7.89,6.9,40.58,40.58,0,0,0,12.91,2.7,61.14,61.14,0,0,0,15-1.1,60.11,60.11,0,0,0,14.2-4.5q5.19-2.4,5.39,3.4l1.21,19.2a6,6,0,0,1-.71,3.8A7.1,7.1,0,0,1,622,175a95,95,0,0,1-17.5,4.5,112.48,112.48,0,0,1-17.9,1.5,66,66,0,0,1-24.1-4.1,48.11,48.11,0,0,1-17.7-11.7,49.48,49.48,0,0,1-11-17.8,65.79,65.79,0,0,1-3.8-22.8,65,65,0,0,1,3.5-21.1,55.32,55.32,0,0,1,10.3-18.3,49.45,49.45,0,0,1,16.5-12.9A50.93,50.93,0,0,1,583.14,67.4ZM600,112.2q-.81-7.4-5.4-10.8A17.06,17.06,0,0,0,584.14,98,16,16,0,0,0,568,115.4Z"/></g></g></svg>