<svg xmlns="http://www.w3.org/2000/svg" viewBox="0 0 51.36 42.93"><defs><style>.cls-1{fill:#444;}.cls-2{fill:#fff4c2;}.cls-3{fill:#ddb09b;}.cls-4{fill:#d3c0bc;}.cls-5{fill:#fff08b;}</style></defs><title>Abalone</title><g id="레이어_2" data-name="레이어 2"><g id="레이어_1-2" data-name="레이어 1"><path class="cls-1" d="M50,9.94c-1.15-4.44-3.31-5.15-5.61-5.52a2.9,2.9,0,0,1-2.2-1,6.52,6.52,0,0,0-5.36-2.32c-.62,0-1.23,0-1.82.1s-.89.07-1.28.07a4,4,0,0,1-.6,0h0A4.4,4.4,0,0,0,30,0a7.55,7.55,0,0,0-3.41.94,6.36,6.36,0,0,1-2.46.77.88.88,0,0,1-.3,0,4.75,4.75,0,0,0-1.24-.17A5.46,5.46,0,0,0,19,3l-.1.11a3.2,3.2,0,0,1-1.76,1H17a5.51,5.51,0,0,0-4,2,4.55,4.55,0,0,0-.46.4A9.79,9.79,0,0,1,9.33,8.74C7,9.67,5.67,12.46,5.07,14.28a5.47,5.47,0,0,0-2.63,2.51,6.8,6.8,0,0,0-.94,3.15,8.56,8.56,0,0,1-1,3.42,7.51,7.51,0,0,0,.26,5.9c1.85,4.7,6.68,9.67,9.76,11,.4.16.79.34,1.19.53a20,20,0,0,0,9.16,2.17h0a39.43,39.43,0,0,0,9.4-1.34c1.11-.18,9.11-1.78,15.79-11.24.59-.67,3.78-4.43,4.2-8.79C51,21,52.49,19.61,50,9.94"/><path class="cls-2" d="M8,15.73a3.53,3.53,0,0,0-4,1.92c-1.41,2.62.06,2.09-1.9,6.45S7.52,37,11.21,38.57s7.12,4.15,18.69,1.25c0,0,8.06-1.08,14.74-10.6,0,0,4.8-5.16,3.69-10.15S8,15.73,8,15.73"/><path class="cls-3" d="M4.71,27.37s-1.53-3.8,0-5.34,1.74-6,1.74-6,1-4.6,3.54-5.61A13.39,13.39,0,0,0,14.1,7.59c.14,0,1.21-1.65,2.94-1.6a4.86,4.86,0,0,0,3.21-1.7,3.4,3.4,0,0,1,3.07-.89c1.69.49,4.14-.89,4.14-.89s2.76-1.6,4.4,0,6.37-1.2,8.91,2,5.87-.31,7.47,5.87,1.56,9.22.85,9.79-2.18,2.27-3.16,5.7-2.18,1.78-5.74,7.35c0,0-2.32,2.18-4,2s-.54,1.38-3.52,2.58-7.88.58-10,1.52-7.83.35-8.36-1.12-8.1-4.31-8.9-7.16a12.52,12.52,0,0,1-.72-3.72"/><path class="cls-4" d="M14.73,32.91c5.42,5.43,11-1,13.13-.62s6.32-2.23,6.32-2.23-.45,0,2.44-2.22,3.3-.18,6.64-8.19,0-8.46,0-8.46c-1-4.31-4.72-1.82-6-3.74S32,6.25,31.42,6.74,29,7.1,29,7.1A5.77,5.77,0,0,0,24.74,8c-2,1.43-2.36,1-2.36,1C14.86,11,18,13.51,14,15a5.63,5.63,0,0,0-3.78,5.34,9.33,9.33,0,0,1-1,4.05,8.82,8.82,0,0,0-1.19,2.89c-.53,4,2.45,3.61,2.45,3.61a6.54,6.54,0,0,1,4.23,2"/><path class="cls-5" d="M11.28,28.23s-1.74-.44-.45-2.27,2.36-2.27,2.72-4.36,3.78-3.34,3.78-3.34A6.76,6.76,0,0,1,21.78,15a10.61,10.61,0,0,0,4.68-1.87s1-1,3.91-.62A26.92,26.92,0,0,0,37.5,12a10.32,10.32,0,0,1,3.69-.23c1.16.36-2.18,3.52-2.18,3.52s-1.34,1.51-1.2,2.8-2.32,2.05-2.32,2.05-1.82.71-1.82,2-1.29,3.25-4.36,3.3c0,0-1.87-.06-2.41,1.35s-3.07,1.9-5.87,1.45-5.21,1.6-9.75,0"/></g></g></svg>