<svg xmlns="http://www.w3.org/2000/svg" xmlns:xlink="http://www.w3.org/1999/xlink" viewBox="0 0 51.85 37.72"><defs><style>.cls-1{fill:none;}.cls-2{fill:#444;}.cls-3{clip-path:url(#clip-path);}.cls-4{fill:url(#무제_그라디언트_2);}.cls-5{clip-path:url(#clip-path-2);}.cls-6{fill:url(#무제_그라디언트_2-2);}</style><clipPath id="clip-path"><path class="cls-1" d="M20.34,1.62c-.74,1.17-.82,3.28-.59,5.58-.69-.06-1.83-.31-1.88-1A.26.26,0,0,0,17.6,6a.25.25,0,0,0-.23.27c.1,1.18,1.82,1.41,2.43,1.45.19,1.54.49,3.13.81,4.56a1.28,1.28,0,0,1-1.23-1,.25.25,0,0,0-.31-.18.25.25,0,0,0-.18.3,1.83,1.83,0,0,0,1.84,1.43c.39,1.67.79,3.07,1,3.81a16.22,16.22,0,0,0-2.36-1c-.05-.83-.25-3.39-1.15-3.77a.25.25,0,0,0-.33.14.24.24,0,0,0,.14.32c.45.19.74,1.88.82,3.14a20.26,20.26,0,0,0-4.52-.78.24.24,0,0,0-.27.23.26.26,0,0,0,.24.27,21.2,21.2,0,0,1,2.49.3,1.2,1.2,0,0,1-.28.77.93.93,0,0,1-.79.23.24.24,0,0,0-.27.23.26.26,0,0,0,.24.27h.15a1.38,1.38,0,0,0,1-.4,1.61,1.61,0,0,0,.41-1,15.65,15.65,0,0,1,7,3.34c-1.23.27-2.74.41-3.05,0a.25.25,0,1,0-.41.29,1.83,1.83,0,0,0,1.51.49,10.91,10.91,0,0,0,2.41-.35,17.2,17.2,0,0,1,2.64,3.08c-1.29.09-2.61,0-2.77-.41a.26.26,0,0,0-.33-.13.25.25,0,0,0-.14.32c.26.62,1.41.76,2.39.76a11,11,0,0,0,1.16-.06,21.38,21.38,0,0,1,2,4.11h0c-.6-.13-2-.44-2.29-.85a.25.25,0,0,0-.42.28c.36.53,1.53.83,2.6,1.06l.31.06A25.42,25.42,0,0,1,31,32.58a6.07,6.07,0,0,0-2.56-1.5c-3.89-1.24-9.63-.7-10.24-.63-.17-.07-.88-.36-1.88-.83-.16-.61-1-3.48-2.12-4.22a.25.25,0,0,0-.35.06.26.26,0,0,0,.07.35c.75.5,1.45,2.39,1.8,3.52a26.45,26.45,0,0,1-5.18-3.19l0-.09c.22-.62.78-2.26-.11-3.43a.25.25,0,1,0-.39.3c.69.91.28,2.23.06,2.87a7,7,0,0,1-1.38-1.64,14.53,14.53,0,0,1-.82-2.27,6.8,6.8,0,0,0,1.17-2.8.25.25,0,1,0-.5,0,5.57,5.57,0,0,1-.84,2.17,11.12,11.12,0,0,1-.27-3.77.25.25,0,0,0-.5-.06,10.78,10.78,0,0,0,0,1.88,1.57,1.57,0,0,1-.93-1,.25.25,0,1,0-.49.1A2.24,2.24,0,0,0,7,19.83a15.56,15.56,0,0,0,1.3,4.56h0A2.66,2.66,0,0,1,6.66,23a.25.25,0,0,0-.33-.11.24.24,0,0,0-.12.33A3.21,3.21,0,0,0,8.68,25a9.3,9.3,0,0,0,1.39,1.43h0a18.27,18.27,0,0,0,1.61,1.21,2.22,2.22,0,0,1-2-.13.25.25,0,0,0-.35,0,.24.24,0,0,0,0,.35,2,2,0,0,0,1.3.42A4.49,4.49,0,0,0,12.21,28a38.33,38.33,0,0,0,5.48,2.8A7.72,7.72,0,0,1,14.79,32a2.15,2.15,0,0,0-1.3-1.44.25.25,0,0,0-.3.19.25.25,0,0,0,.18.3c.5.12.8.71.93,1-.56.12-1.2.23-1.94.32a2.68,2.68,0,0,0-1.92-1.6.23.23,0,0,0-.28.2.25.25,0,0,0,.21.29,2.14,2.14,0,0,1,1.46,1.17c-.83.09-1.78.16-2.85.2-.21-.43-.84-1.62-1.7-1.86A.25.25,0,0,0,7,31a.24.24,0,0,0,.17.3c.53.15,1,.89,1.29,1.4-.78,0-1.61,0-2.51,0a1.76,1.76,0,0,0,0-1A1.49,1.49,0,0,0,5,30.78a.25.25,0,0,0-.32.13.25.25,0,0,0,.12.33,1,1,0,0,1,.59.57,1.29,1.29,0,0,1,0,.86c-1,0-2-.05-3.17-.1A.24.24,0,0,0,2,32.8a.26.26,0,0,0,.24.27l1.4,0a4.81,4.81,0,0,1-1.88,1.51.25.25,0,0,0-.22.27.26.26,0,0,0,.25.23h0c.87-.1,2.12-1.57,2.46-2,1,0,2,0,2.89,0a3.31,3.31,0,0,1-1.84,1.71.25.25,0,0,0,.07.49h.06a3.9,3.9,0,0,0,2.27-2.2l1.12,0h0c.68,0,1.31-.06,1.89-.1-.54.73-1.49,1.81-2.23,1.84a.25.25,0,0,0-.24.26.25.25,0,0,0,.25.24h0c1.23-.05,2.56-1.93,2.87-2.4l.83-.09h0l.82-.11c-.28.77-.82,1.85-1.33,1.85a.25.25,0,0,0-.25.25.26.26,0,0,0,.25.25c1,0,1.7-1.88,1.89-2.44l1-.19h.06a0,0,0,0,0,0,0A14.55,14.55,0,0,0,16.3,32c-.51,1-1.23,2.07-1.67,2.07a.25.25,0,0,0,0,.5c1,0,2.07-2.22,2.36-2.84a3.77,3.77,0,0,0,1.27-.83c.82-.08,6.36-.55,10,.62s3.38,3.89,3.36,4a.25.25,0,0,0,.21.28h0a.24.24,0,0,0,.24-.21,3.79,3.79,0,0,0-.57-2.35,24.1,24.1,0,0,0-.67-4c.42-.39,2.3-2.22,2.3-4.17a.25.25,0,0,0-.5,0c0,1.51-1.35,3-1.94,3.61q-.18-.66-.42-1.38s0-.05,0-.08a.41.41,0,0,0-.07-.11,24.87,24.87,0,0,0-1-2.5c.61-.31,2.42-1.41,2.08-3.09a.26.26,0,0,0-.29-.2.25.25,0,0,0-.2.29c.26,1.32-1.27,2.27-1.8,2.55-.28-.54-.58-1.09-.92-1.62,0,0,0,0,0,0a.23.23,0,0,0-.13-.17,17.62,17.62,0,0,0-1.09-1.52,2.74,2.74,0,0,0,.46-3.58.24.24,0,0,0-.35-.06.25.25,0,0,0-.06.35,2.2,2.2,0,0,1-.37,2.9,17,17,0,0,0-1.51-1.56.24.24,0,0,0-.13-.13,16,16,0,0,0-2.57-1.84c-.07-.24-.36-1.21-.71-2.55a4,4,0,0,0,1.53-2.72.25.25,0,0,0-.23-.27.25.25,0,0,0-.27.23,3.52,3.52,0,0,1-1.17,2.22c-.36-1.42-.75-3.15-1-4.89a2.59,2.59,0,0,0,1.91-2.39.24.24,0,0,0-.22-.27.24.24,0,0,0-.27.23,2.08,2.08,0,0,1-1.49,1.93A24.7,24.7,0,0,1,20.13,5h.18A1.77,1.77,0,0,0,22,3.75a.26.26,0,0,0-.14-.33.26.26,0,0,0-.32.14c-.41,1-1.06,1-1.37,1a5.46,5.46,0,0,1,.63-2.66.26.26,0,0,0-.08-.34.22.22,0,0,0-.13,0,.25.25,0,0,0-.22.12"/></clipPath><linearGradient id="무제_그라디언트_2" x1="-289.43" y1="339.43" x2="-288.43" y2="339.43" gradientTransform="matrix(31.67, 0, 0, -31.67, 9167.29, 10767.8)" gradientUnits="userSpaceOnUse"><stop offset="0" stop-color="#aa001c"/><stop offset="1" stop-color="#ff7c7a"/></linearGradient><clipPath id="clip-path-2"><path class="cls-1" d="M39,16a.26.26,0,0,0-.08.35,2.94,2.94,0,0,1,.34,1.4c-.17,0-.42-.09-.59-.51a.25.25,0,0,0-.46.18,1.14,1.14,0,0,0,1.06.83A15.83,15.83,0,0,1,39.11,20a1.12,1.12,0,0,1-.68-1,.24.24,0,0,0-.27-.23.25.25,0,0,0-.23.27A1.64,1.64,0,0,0,39,20.47c-.14.88-.33,1.78-.53,2.58A1.87,1.87,0,0,1,38,22a.25.25,0,1,0-.49,0,2.39,2.39,0,0,0,.88,1.62c-.14.54-.28,1-.39,1.38a8.9,8.9,0,0,0-1.47,1.06s0,0-.06.05a9.85,9.85,0,0,0-.85.86,1.14,1.14,0,0,1-.13-1.47.25.25,0,0,0-.41-.3,1.68,1.68,0,0,0,.22,2.17c-.21.26-.39.53-.57.8,0,0,0,.06-.06.09-.19.3-.36.6-.52.91-.34-.21-1-.69-.91-1.33a.25.25,0,0,0-.19-.3.27.27,0,0,0-.3.2c-.19,1,.75,1.64,1.18,1.88q-.32.69-.54,1.35a.41.41,0,0,0,0,.09s0,0,0,.05c-.07.22-.14.43-.2.63a3.16,3.16,0,0,1-1-1.9.25.25,0,0,0-.25-.25.25.25,0,0,0-.25.25A4,4,0,0,0,33,32.3a14.79,14.79,0,0,0-.38,2.29A2.42,2.42,0,0,0,32.25,36a.26.26,0,0,0,.25.21h0a.26.26,0,0,0,.21-.29c0-.06-.21-1.55,1.89-2.22a17.15,17.15,0,0,1,5.76-.36,2.54,2.54,0,0,0,.72.47c.23.48.84,1.68,1.46,1.68a.26.26,0,0,0,.25-.25.25.25,0,0,0-.25-.25c-.15,0-.47-.4-.76-.93a9.25,9.25,0,0,0,1.27.3c.14.43.54,1.43,1.17,1.43a.25.25,0,1,0,0-.5c-.18,0-.43-.4-.61-.85l.33,0h0l.43,0c.24.35,1,1.38,1.73,1.41h0a.26.26,0,0,0,.25-.24.24.24,0,0,0-.24-.26c-.32,0-.76-.44-1.09-.86l.87,0h.62a2.33,2.33,0,0,0,1.36,1.29H48a.25.25,0,0,0,.24-.18.25.25,0,0,0-.18-.31,1.71,1.71,0,0,1-.92-.8H48.6c.26.32,1,1.1,1.48,1.16h0a.25.25,0,0,0,0-.5c-.2,0-.56-.35-.88-.68l.6,0a.24.24,0,0,0,.23-.26.25.25,0,0,0-.26-.24c-.64,0-1.22,0-1.77.06a.55.55,0,0,1,0-.36.46.46,0,0,1,.29-.27.25.25,0,0,0,.13-.33.26.26,0,0,0-.33-.13,1,1,0,0,0-.56.56,1,1,0,0,0,0,.54H46.38a1.33,1.33,0,0,1,.6-.62.25.25,0,0,0,.17-.31.25.25,0,0,0-.3-.17c-.52.14-.88.77-1,1.08-.53,0-1-.05-1.44-.1a1.09,1.09,0,0,1,.7-.49.25.25,0,0,0,.21-.29A.25.25,0,0,0,45,33a1.68,1.68,0,0,0-1.17.93c-.34,0-.65-.09-.92-.14a.78.78,0,0,1,.42-.45.25.25,0,0,0,.18-.3.24.24,0,0,0-.3-.18,1.25,1.25,0,0,0-.8.82A5.06,5.06,0,0,1,41,33.18a21.9,21.9,0,0,0,3-1.55,2.55,2.55,0,0,0,.89.18,1.28,1.28,0,0,0,.83-.26.25.25,0,0,0,0-.35.24.24,0,0,0-.35,0,1,1,0,0,1-.85.11c.26-.18.51-.38.74-.57h0s0,0,0,0a6.59,6.59,0,0,0,.79-.8,2,2,0,0,0,1.48-1.08.25.25,0,0,0-.11-.33.26.26,0,0,0-.34.11,1.4,1.4,0,0,1-.65.65,9.1,9.1,0,0,0,.65-2.39,1.38,1.38,0,0,0,.88-.9.25.25,0,0,0-.2-.29.23.23,0,0,0-.29.19.72.72,0,0,1-.34.41,5.78,5.78,0,0,0,0-.93.26.26,0,0,0-.28-.22.26.26,0,0,0-.22.28,6,6,0,0,1-.1,1.9,2.8,2.8,0,0,1-.34-1,.25.25,0,0,0-.27-.24.26.26,0,0,0-.23.27A3.93,3.93,0,0,0,46.4,28a8.24,8.24,0,0,1-.46,1.25,3.82,3.82,0,0,1-.67.83,1.64,1.64,0,0,1,.07-1.43.24.24,0,0,0-.05-.35.24.24,0,0,0-.34.05,2.29,2.29,0,0,0-.09,2.09,15.39,15.39,0,0,1-2.73,1.69,4.2,4.2,0,0,1,.94-1.76.25.25,0,0,0,.06-.35.24.24,0,0,0-.34-.07,5.35,5.35,0,0,0-1.27,2.48c-.51.24-.89.4-1,.45a18.07,18.07,0,0,0-6,.38,4,4,0,0,0-1.34.71,16.62,16.62,0,0,1,.32-1.72s0,0,0,0q.1-.41.24-.84l.16,0a2.81,2.81,0,0,0,1.59-.66.27.27,0,0,0-.07-.35.26.26,0,0,0-.35.07c-.12.18-.78.34-1.13.42.13-.37.29-.75.47-1.14,0,0,0,0,0-.05s0,0,0-.05a9.27,9.27,0,0,1,.51-.92q.3,0,.69,0c.62,0,1.31-.09,1.48-.5a.25.25,0,0,0-.14-.33.26.26,0,0,0-.33.14,2.33,2.33,0,0,1-1.38.18c.15-.22.3-.43.47-.64h0a.06.06,0,0,0,0,0,9.41,9.41,0,0,1,.88-.91,6.16,6.16,0,0,0,1.4.2,1.18,1.18,0,0,0,1-.33.25.25,0,0,0-.41-.29c-.12.17-.8.14-1.49,0a9.14,9.14,0,0,1,3.78-1.75,1,1,0,0,0,.25.53.93.93,0,0,0,.69.26H42a.25.25,0,0,0,.23-.27.23.23,0,0,0-.26-.23.43.43,0,0,1-.51-.39,13.44,13.44,0,0,1,1.35-.17.25.25,0,0,0,.24-.26.25.25,0,0,0-.27-.24,12,12,0,0,0-2.53.42,3,3,0,0,1,.41-1.59.25.25,0,0,0,.14-.33.25.25,0,0,0-.33-.13c-.55.22-.69,1.52-.73,2.22a7.83,7.83,0,0,0-1.11.46c.13-.46.32-1.13.51-1.94a1.15,1.15,0,0,0,1.09-.91.25.25,0,0,0-.19-.3.25.25,0,0,0-.3.19.64.64,0,0,1-.49.5c.13-.6.26-1.23.35-1.87h0c0-.19.06-.37.08-.56.44,0,1.38-.21,1.44-.93a.25.25,0,0,0-.5,0c0,.28-.5.42-.89.47a5.53,5.53,0,0,0-.37-3.2.24.24,0,0,0-.21-.11A.31.31,0,0,0,39,16"/></clipPath><linearGradient id="무제_그라디언트_2-2" x1="-289.43" y1="339.43" x2="-288.43" y2="339.43" gradientTransform="matrix(18.72, 0, 0, -18.72, 5449.42, 6379.75)" xlink:href="#무제_그라디언트_2"/></defs><title>Agar</title><g id="레이어_2" data-name="레이어 2"><g id="레이어_1-2" data-name="레이어 1"><path class="cls-2" d="M31.71,37.35l-.2,0a1.74,1.74,0,0,1-1.37-2c0-.24,0-1.58-2.34-2.34a20.61,20.61,0,0,0-6-.71c-1.26,0-2.33.06-2.95.11a5.66,5.66,0,0,1-.77.49c-1.6,3.23-3,3.23-3.49,3.23a1.73,1.73,0,0,1-1-.33,2.62,2.62,0,0,1-1.87.85,1.76,1.76,0,0,1-1.22-.51,3.58,3.58,0,0,1-1.95.76h0a1.84,1.84,0,0,1-1.45-.67,4.22,4.22,0,0,1-1.3.61l-.19,0H5.36a1.74,1.74,0,0,1-1.63-1.1A3.61,3.61,0,0,1,2,36.61h-.2A1.75,1.75,0,0,1,.62,33.54a1.61,1.61,0,0,1-.15-.81,1.73,1.73,0,0,1,1.7-1.66H2.3l.9,0a1.76,1.76,0,0,1,.14-.81,1.78,1.78,0,0,1,1.61-1,1.65,1.65,0,0,1,.69.15,3.45,3.45,0,0,1,.47.24,1.78,1.78,0,0,1,1.1-.39h.2l.25.06a3.13,3.13,0,0,1,1.28.73,2.1,2.1,0,0,1,.43-.46,3.25,3.25,0,0,1-1-.54,1.72,1.72,0,0,1-.62-1.18,1.77,1.77,0,0,1,.34-1.22l-.28-.3a4.67,4.67,0,0,1-3-2.44,1.76,1.76,0,0,1,.78-2.35l.1,0c0-.22-.1-.46-.14-.7A3.32,3.32,0,0,1,4,18.67a1.76,1.76,0,0,1,1.39-2.05l.14,0h.12a1.74,1.74,0,0,1,1.55-.93h.15a1.75,1.75,0,0,1,1.22.66,1.79,1.79,0,0,1,.37,1H9a1.76,1.76,0,0,1,1.54,1.86A6.17,6.17,0,0,1,10.08,21h.16a1.77,1.77,0,0,1,1.39.69,4.57,4.57,0,0,1,.61,3.88.05.05,0,0,1,0,0,1.69,1.69,0,0,1,.3-1A1.73,1.73,0,0,1,14,23.85a1.79,1.79,0,0,1,1,.3c1.22.82,2.06,2.89,2.53,4.39l.86.38c.64-.06,1.92-.15,3.46-.15a23.67,23.67,0,0,1,7,.88l.05,0c-.08-.29-.16-.59-.25-.89a4.66,4.66,0,0,1-3-1.57,1.7,1.7,0,0,1-.27-1.3,1.73,1.73,0,0,1,.74-1.12,1.81,1.81,0,0,1,.75-.29l-.06-.11h-.34c-.76,0-3.08,0-3.77-1.69a1.74,1.74,0,0,1,.14-1.6l-.57,0A3.15,3.15,0,0,1,19.59,20a1.73,1.73,0,0,1-.3-1.31,1.71,1.71,0,0,1,.4-.86,14.59,14.59,0,0,0-1.49-.53,2.17,2.17,0,0,1-.24.29,2.88,2.88,0,0,1-2.11.84h-.26a1.75,1.75,0,0,1-1.2-.59A1.69,1.69,0,0,1,14,16.6a1.75,1.75,0,0,1,.35-3.46h.11a22.41,22.41,0,0,1,2.61.31v0a1.6,1.6,0,0,1-.51-.69,1.73,1.73,0,0,1,1.12-2.34,1.67,1.67,0,0,1,.92-.75c0-.22-.06-.42-.09-.63a3.08,3.08,0,0,1-2.6-2.62,1.76,1.76,0,0,1,1.5-1.88l.1,0h.16a1.7,1.7,0,0,1,.51.08A7.45,7.45,0,0,1,19.08.81,1.75,1.75,0,0,1,22.29,2l.07,0a1.74,1.74,0,0,1,1,2.29A4.16,4.16,0,0,1,23,5a2,2,0,0,1,.47.4,1.75,1.75,0,0,1,.41,1.28A4.08,4.08,0,0,1,22.15,9.8c0,.08,0,.16.05.25a1.76,1.76,0,0,1,.72-.16h.18a1.74,1.74,0,0,1,1.57,1.89,5.31,5.31,0,0,1-1.34,3.06c.12.44.22.81.3,1.09a16.34,16.34,0,0,1,1.78,1.27s0-.06,0-.09a1.76,1.76,0,0,1,1.73-1.46,1.76,1.76,0,0,1,1.43.74,3.92,3.92,0,0,1,.18,4.44l.36.53a1.43,1.43,0,0,1,.19.24,1.77,1.77,0,0,1,.3-1,1.7,1.7,0,0,1,1.11-.75l.15,0h.19a1.77,1.77,0,0,1,1.72,1.41,3.56,3.56,0,0,1-.23,2.14,1.5,1.5,0,0,1,.37,0,1.75,1.75,0,0,1,1.75,1.75,7.34,7.34,0,0,1-2.15,4.63A26.14,26.14,0,0,1,33,32.85a5.25,5.25,0,0,1,.59,3,1.75,1.75,0,0,1-1.73,1.48ZM12,29.76l.07-.11,0,0-.19,0,.16.09m19.16-4.49s0-.08,0-.12l-.05,0,0,.08"/><path class="cls-2" d="M32.5,37.72a1.74,1.74,0,0,1-1.73-1.47,3.75,3.75,0,0,1,.35-2.09c0-.32.1-.81.21-1.42a4.77,4.77,0,0,1-1.19-2.91,1.76,1.76,0,0,1,1.07-1.62,2.87,2.87,0,0,1,0-.77A1.76,1.76,0,0,1,33,26h.15l.12,0a3.16,3.16,0,0,1,.59-1.73,1.75,1.75,0,0,1,1.43-.73,1.73,1.73,0,0,1,1,.33,1.51,1.51,0,0,1,.23.21l.17-.12A3.82,3.82,0,0,1,36,22.12a1.76,1.76,0,0,1,.4-1.28,1.87,1.87,0,0,1,.46-.38,3.1,3.1,0,0,1-.4-1.33,1.67,1.67,0,0,1,.35-1.2,1.75,1.75,0,0,1,.6-2,1.73,1.73,0,0,1,1.72-1.45,1.73,1.73,0,0,1,1.48.81,4.34,4.34,0,0,1,.6,1.84,1.7,1.7,0,0,1,1,.59,1.76,1.76,0,0,1,.4,1.28,2.33,2.33,0,0,1-1.1,1.77,1.72,1.72,0,0,1,.68.82,1.74,1.74,0,0,1,.13.59l.38,0a1.75,1.75,0,0,1,1,3.26,1.72,1.72,0,0,1-.37.69,1.75,1.75,0,0,1-1.2.59h-.2a2.49,2.49,0,0,1-1.27-.34,1.69,1.69,0,0,1-.32,1,2.31,2.31,0,0,1-1.64.92,1.91,1.91,0,0,1-.13.51A2.18,2.18,0,0,1,36.94,30c0,.05,0,.11,0,.16a1.82,1.82,0,0,1-.17,1.15c.49,0,1,0,1.54,0,.79,0,1.46,0,1.9.07h0A5,5,0,0,1,42,28.67a1.79,1.79,0,0,1,1-.29,1.84,1.84,0,0,1,.33,0,3,3,0,0,1,.49-1,1.77,1.77,0,0,1,.55-.47,4.46,4.46,0,0,1-.07-.51,1.75,1.75,0,0,1,1.06-1.74A1.75,1.75,0,0,1,46.7,23.6h.21a1.75,1.75,0,0,1,1.32.6,1.7,1.7,0,0,1,1,.71,1.74,1.74,0,0,1,.27,1.31,2.49,2.49,0,0,1-.77,1.36,1.89,1.89,0,0,1,.3.56,1.71,1.71,0,0,1-.09,1.33,3.31,3.31,0,0,1-1.65,1.6,1.82,1.82,0,0,1,0,.52,1.31,1.31,0,0,1,.28.09,1.74,1.74,0,0,1,.67-.13,1.76,1.76,0,0,1,1.6,1h.07a1.75,1.75,0,0,1,1.67,1.66,1.82,1.82,0,0,1,0,.33A1.75,1.75,0,0,1,50.1,37.3h-.17a2.27,2.27,0,0,1-.82-.25,1.71,1.71,0,0,1-1.11.41h-.2l-.26-.06a4.09,4.09,0,0,1-.49-.18,1.79,1.79,0,0,1-.89.24A2.82,2.82,0,0,1,45,37.13a1.64,1.64,0,0,1-.74.17,2.15,2.15,0,0,1-1.2-.37,1.92,1.92,0,0,1-.48.07c-1,0-1.85-.69-2.59-2.09l-.17-.1c-.36,0-.87-.05-1.46-.05a11.22,11.22,0,0,0-3.26.38c-.63.2-.86.47-.86.64a1.74,1.74,0,0,1-1.48,1.92l-.11,0Z"/><g class="cls-3"><rect class="cls-4" x="1.49" y="1.5" width="31.68" height="34.35"/></g><g class="cls-5"><rect class="cls-6" x="31.64" y="15.94" width="18.73" height="20.28"/></g></g></g></svg>