<svg xmlns="http://www.w3.org/2000/svg" viewBox="0 0 49.28 38.91"><defs><style>.cls-1{fill:#444;}.cls-2{fill:#64872d;}.cls-3{fill:#7ba542;}.cls-4{fill:#d09358;}.cls-5{fill:#d6be91;}.cls-6{fill:#8e431b;}</style></defs><title>Almond</title><g id="레이어_2" data-name="레이어 2"><g id="레이어_1-2" data-name="레이어 1"><path class="cls-1" d="M39,38.91q-.93,0-2-.06h0l-.5,0a3.9,3.9,0,0,1-3.14-1.55A4.42,4.42,0,0,1,31.42,36a23.61,23.61,0,0,1-8,1.31,38.5,38.5,0,0,1-13.6-2.75c-1.07-.07-4.34-.6-7.33-4.63A3.09,3.09,0,0,1,0,26.81a3.72,3.72,0,0,1,2-3.25c.36-1.48,1.71-4.27,6.65-6.67-3.08-3-8.9-9.6-7.29-15.46l.22-.8.8-.24A12.77,12.77,0,0,1,5.78,0C9.71,0,17.63,1.32,26.53,10.17l.06.07.06.07s.93,1.19,1.89,2.61l1,.08a12.51,12.51,0,0,1,9.25,5.72C43,19.63,46,22,47.45,25.49c.46.72,2.38,4.07,1.68,7.49a7.18,7.18,0,0,1-3.26,4.65c-.52.37-2.25,1.28-6.89,1.28Z"/><path class="cls-2" d="M11.34,17.35S.88,8.68,2.77,1.83c0,0,10.18-3,22.7,9.4a35,35,0,0,1,3.89,6.12L13.43,18.79c-.11,0-2.09-1.44-2.09-1.44"/><path class="cls-3" d="M22.16,17.72s-1.76-2-4.49-4.72A6.44,6.44,0,0,0,19.9,8a.51.51,0,0,0-.53-.48A.5.5,0,0,0,18.9,8,5.57,5.57,0,0,1,17,12.3C16,11.42,15,10.49,14,9.53c.59-.81,1.81-2.75,1.21-4.32a.5.5,0,1,0-.93.35c.38,1-.45,2.5-1,3.32-.82-.7-1.68-1.41-2.56-2.1.24-.89.72-3,.2-3.9a.49.49,0,0,0-.68-.19.5.5,0,0,0-.19.68,5.72,5.72,0,0,1-.2,2.74A50.67,50.67,0,0,0,4.35,2.47a.5.5,0,0,0-.5.86A51.28,51.28,0,0,1,9.13,6.88c-.84.33-2.5.61-4.77-.74a.5.5,0,0,0-.69.17A.51.51,0,0,0,3.84,7,7.36,7.36,0,0,0,7.62,8.15,4.94,4.94,0,0,0,10,7.57c.82.64,1.62,1.3,2.38,1.95A6.94,6.94,0,0,1,6.7,10a.51.51,0,0,0-.66.27.5.5,0,0,0,.28.65,6.7,6.7,0,0,0,2.59.51,8.71,8.71,0,0,0,4.3-1.22c1.08.94,2.09,1.87,3,2.75a5.75,5.75,0,0,1-6.59.63.5.5,0,0,0-.44.9,7.62,7.62,0,0,0,3.35.83,6.76,6.76,0,0,0,4.39-1.67c2.72,2.66,4.44,4.66,4.48,4.7a.5.5,0,0,0,.76-.64"/><path class="cls-4" d="M1.51,26.79s-.22-1.33,1.81-2.26c0,0-.07-3.93,7.48-7s12.08-3.71,18.6-3.08,9,6.63,9,6.63,3.28,7-5.38,12.41c0,0-7.88,5.33-23-.52,0,0-3.54.19-6.74-4.48,0,0-2-.22-1.81-1.74"/><path class="cls-5" d="M30.56,20.15S28,23,29,26.31s1.55,4.06,1.28,5c0,0-.39.93,1.66,1.87a3.05,3.05,0,0,0,2.3,2.91,2.41,2.41,0,0,0,2.59,1.26s3.13.39,2.22-4.91c0,0-.53-11.48-8.5-12.29"/><path class="cls-6" d="M30.56,20.15s12.08-2.56,15.56,6c0,0,4.41,6.6-1.11,10.23,0,0-1.59,1.29-8.17.94,0,0,3.06.43,2.22-4.91,0,0-.68-11.59-8.5-12.29"/></g></g></svg>