<svg xmlns="http://www.w3.org/2000/svg" viewBox="0 0 52.79 40.29"><defs><style>.cls-1{fill:#444;}.cls-2{fill:#ceced0;}.cls-3{fill:#e5e7e9;}.cls-4{fill:#fbfafa;}.cls-5{fill:#31311a;}.cls-6{fill:#b6b5b8;}</style></defs><title>Anchovy</title><g id="레이어_2" data-name="레이어 2"><g id="레이어_1-2" data-name="레이어 1"><path class="cls-1" d="M51.93,4.26C50.27,2.46,45.25.88,44.21.56A18,18,0,0,0,39.77,0a20.45,20.45,0,0,0-11.5,3.72,14.75,14.75,0,0,0-2.67-.27c-2,0-3.22.58-3.71,1.75A1.86,1.86,0,0,0,22,6.93c.75,1.19,3.28,1.88,7.52,2.06l.74,0,0,0a2.55,2.55,0,0,0,.42.05c1,0,2.25-.6,3.8-1.84a5.23,5.23,0,0,1,2.94-1.43h.06a7.19,7.19,0,0,0,2.9.64,10.36,10.36,0,0,0,1.76-.18,9.12,9.12,0,0,1,1.6-.17,7.33,7.33,0,0,1,1.94.28,14,14,0,0,0,3.55.56,3.48,3.48,0,0,0,2.63-.8l.88-.91Z"/><path class="cls-1" d="M32.09,14.93c-1.18-2.15-5.67-4.89-6.6-5.45a18.25,18.25,0,0,0-8.74-2.16A21.26,21.26,0,0,0,9.25,8.7,11.5,11.5,0,0,0,5.08,7.57a2.79,2.79,0,0,0-2.38,1,1.87,1.87,0,0,0-.28,1.71c.45,1.33,2.74,2.62,6.81,3.82l.71.2h0a2.73,2.73,0,0,0,1.14.23,8.6,8.6,0,0,0,3.39-1,6.58,6.58,0,0,1,2.7-.74,2.08,2.08,0,0,1,.56.07,7.31,7.31,0,0,0,4.41,1.56,7.19,7.19,0,0,1,3.41,1,10.28,10.28,0,0,0,4.67,1.58,2.52,2.52,0,0,0,1.39-.33L32.7,16Z"/><path class="cls-1" d="M51.48,22.75l-.3-1L40.12,22c-.08,0-7.39-.16-10.49-.55a36.27,36.27,0,0,0-4.47-.24c-1.63,0-2.84.07-2.89.08H22l-.2-.08a6.49,6.49,0,0,0-2.22-.37c-1.51,0-4.37.54-6.49,4.19a2.07,2.07,0,0,0-.1,2c.58,1.18,2.07,1.76,4.86,1.91l.54,0a7.42,7.42,0,0,0,2.47-.4A1.55,1.55,0,0,0,22,29a1.86,1.86,0,0,0,.75-.17,12,12,0,0,1,5-1.26,5.82,5.82,0,0,1,1.27.12,4.36,4.36,0,0,0,2,.45,10,10,0,0,0,3.74-.9,27.36,27.36,0,0,0,3.09.22A5.69,5.69,0,0,0,40,27.2l.06,0,0,0a6.57,6.57,0,0,1,3.12-.95,2.81,2.81,0,0,1,.62.06h0l.14.06.15,0a13.69,13.69,0,0,0,2.4.25,4.52,4.52,0,0,0,3.36-1.08,2.44,2.44,0,0,0,1.33-1,2.17,2.17,0,0,0,.24-1.76"/><path class="cls-1" d="M37.43,34.5a7.6,7.6,0,0,1-1.61-1,3.75,3.75,0,0,0-2.36-.83,3.39,3.39,0,0,0-1,.15,7.39,7.39,0,0,1-1.81.19,13.62,13.62,0,0,1-7.3-2.35,10.92,10.92,0,0,0-6-1.76,14.46,14.46,0,0,0-7,2,4.39,4.39,0,0,0-3.58,1.89,8.65,8.65,0,0,0-5.55,3.09A2.84,2.84,0,0,0,.07,38.51a2.18,2.18,0,0,0,2,1.53,20.91,20.91,0,0,0,3.12.25c4,0,5.91-1.36,6.76-2.67a5.78,5.78,0,0,0,.78.05,4.56,4.56,0,0,0,4-2,20,20,0,0,1,3.84-.37,18.32,18.32,0,0,1,2.27.14,15.86,15.86,0,0,0,8.1,2.31l.66,0a10.55,10.55,0,0,0,2.93.48c3,0,3.63-1.88,3.69-2.1L38.55,35Z"/><path class="cls-2" d="M10.85,34.6c.89.53.25,1.8.25,1.8C9.74,39.48,4.36,39,2.3,38.7s-.12-1.94-.12-1.94c1.54-2.31,4.76-2.66,4.76-2.66s2.66-.23,3.91.5"/><path class="cls-3" d="M23.29,34.18a20.51,20.51,0,0,0-7.47.33l-2.49-1.66,4.23-1.49,4,.58,2.38,1.63Z"/><path class="cls-2" d="M15.82,34.51c-1.09,2.44-4.08,1.71-4.08,1.71.81-3.09-4-2.55-4-2.55a3,3,0,0,1,2.91-1.44s6.14-4.15,11.94-.44S32.83,34.1,32.83,34.1a2.39,2.39,0,0,1,2.13.45,9,9,0,0,0,1.95,1.2s-.62,2.06-5.19.64a14.13,14.13,0,0,1-8.43-2.21,8.68,8.68,0,0,0-3.86-1.69,3.38,3.38,0,0,0-3.61,2"/><path class="cls-4" d="M5.5,36.64a.89.89,0,1,1-.89-.89.89.89,0,0,1,.89.89"/><path class="cls-5" d="M5,36.64a.35.35,0,0,1-.7,0,.35.35,0,0,1,.7,0"/><path class="cls-2" d="M21.39,22.52s-4.22-1.77-7.11,3.24c0,0-1.11,1.6,3.67,1.85s5-3.36,5-3.36a2.12,2.12,0,0,0-1.53-1.73"/><path class="cls-2" d="M22.14,27.62c4.55-2.12,7.4-1.18,7.4-1.18,1.81,1.07,5-.58,5-.58,3.93.53,4.9.1,4.9.1C42.61,24.23,44.4,25,44.4,25c4.16.77,4.72-.7,4.72-.7,1.36-.22,1.07-1.17,1.07-1.17l-10.1.24s-7.42-.16-10.62-.57a45,45,0,0,0-7.11-.15s2.85,1.53-.62,4.43c0,0-.11.77.4.53"/><path class="cls-4" d="M17.29,25.06a.68.68,0,1,1-.68-.68.67.67,0,0,1,.68.68"/><path class="cls-5" d="M16.92,25.06a.31.31,0,1,1-.31-.31.31.31,0,0,1,.31.31"/><path class="cls-6" d="M8.91,10S4.84,8,3.79,9.42s5.82,3.42,5.82,3.42,1.12-1-.7-2.8"/><path class="cls-6" d="M10.28,12.91c1.21-1.38-.76-2.85-.76-2.85s7.71-3.5,15.32.61c0,0,5,3,6.06,4.91,0,0-1.1.7-4.67-1.3s-4.81-.21-7.78-2.5c0,0-1.33-.88-4.53.6s-3.64.53-3.64.53"/><path class="cls-4" d="M5.8,10.16a.73.73,0,0,0,.73.72.72.72,0,0,0,.72-.72.73.73,0,0,0-.72-.73.73.73,0,0,0-.73.73"/><path class="cls-5" d="M6.21,10.16a.32.32,0,0,0,.32.32.33.33,0,0,0,.32-.32.32.32,0,0,0-.32-.32.32.32,0,0,0-.32.32"/><path class="cls-6" d="M28.26,5.09s-4.44-1-5.13.63,6.48,1.92,6.48,1.92.85-1.21-1.35-2.55"/><path class="cls-6" d="M30.28,7.56C31.12,5.92,28.85,5,28.85,5s6.64-5.25,15-3.1c0,0,5.57,1.68,7.07,3.31,0,0-.91.94-4.85-.14s-4.72,1-8.16-.55c0,0-1.49-.53-4.25,1.67s-3.4,1.4-3.4,1.4"/><path class="cls-4" d="M25.27,6a.72.72,0,1,0,1.4-.35.71.71,0,0,0-.87-.53.72.72,0,0,0-.53.88"/><path class="cls-5" d="M25.66,5.86a.32.32,0,0,0,.62-.15.32.32,0,1,0-.62.15"/></g></g></svg>