<svg xmlns="http://www.w3.org/2000/svg" viewBox="0 0 48.14 40.93"><defs><style>.cls-1{fill:#444;}.cls-2{fill:#c61d22;}.cls-3{fill:#6a4a24;}.cls-4{fill:#2e8c47;}.cls-5{fill:#95c763;}.cls-6{fill:#f6ead6;}.cls-7{fill:#180e04;}</style></defs><title>Apple</title><g id="Layer_2" data-name="Layer 2"><g id="레이어_1" data-name="레이어 1"><path class="cls-1" d="M31.16,40.93a16.65,16.65,0,0,1-9.27-2.64H14.62l-.13,0C5.34,36.68,1.15,27.88,1,27.51l0-.12,0-.12C-.65,21.69-.19,17,2.25,13.32c2.82-4.24,7.52-5.89,9.9-6.48a33.22,33.22,0,0,1,0-5.11L12.21.32H18l-.21.46a13,13,0,0,1,4-.78,3.51,3.51,0,0,1,3.14,1.38l.13.2.06.23a6.34,6.34,0,0,1,.15,2.27,12.71,12.71,0,0,1,7.63,4.18A10.58,10.58,0,0,1,34,8.11l.27,0L35.83,8v.13a8.54,8.54,0,0,1,2,.5C51.64,14,47.61,31.54,47.57,31.71c-1.42,4.62-3.69,5.57-5.35,5.57h0a4.5,4.5,0,0,1-1.59-.3,3.87,3.87,0,0,1-.84,1.71,3.58,3.58,0,0,1-2.09,1.18A20.54,20.54,0,0,1,31.16,40.93Z"/><path class="cls-2" d="M13.81,8S-2.28,10.09,2.33,26.87c0,0,3.93,8.44,12.42,9.92h7.16S34,35.56,35.36,23c0,0,1.86-16.83-12.27-17.62A13.2,13.2,0,0,0,13.81,8"/><path class="cls-1" d="M15.3,14a2,2,0,0,1-1.39-.52c-1.08-1-3.46-.81-4.29-.67a.45.45,0,0,1-.51-.37.44.44,0,0,1,.36-.5c.14,0,3.42-.56,5,.89a1.52,1.52,0,0,0,1.63.09A3.19,3.19,0,0,0,18,10.58a.44.44,0,0,1,.44-.44h0a.44.44,0,0,1,.44.45,4,4,0,0,1-2.42,3.12A3,3,0,0,1,15.3,14"/><path class="cls-3" d="M15.48,12.55s-2.4-2.21-1.86-10.73h2.06s-2.5,5.44.69,10.24c0,0,.09.93-.89.49"/><path class="cls-4" d="M14.84,8.81s-.15-5.13,3.52-6.63c0,0,4.24-1.55,5.31,0,0,0,1.1,3.85-3.16,5.9,0,0-4.26,1.51-5.67.69"/><path class="cls-5" d="M15.24,9s3.6-4.88,7.11-5.51c0,0-4.06.19-7.5,5v.41Z"/><path class="cls-3" d="M26.78,13.89s-1.56-2-2.31-2.18c0,0-.42-1.1.64-.88,0,0,2.38,1.39,2.76,2.74"/><path class="cls-2" d="M37.34,38.4S23,44,16.32,29.08s11.14-15.6,11.14-15.6a8.81,8.81,0,0,1,6.87-3.9Z"/><path class="cls-6" d="M32,19.69S25.11,9.81,20.27,19c0,0-2.88,6.48,5.23,15,0,0,5.95,5.5,11.84,4.38,0,0,2.16-.13,1.9-3.14,0,0-.13-1,1-.19,0,0,3.79,3.12,5.89-3.71,0,0,3.92-16.38-8.9-21.35,0,0-6.08-2.55-6.15,4.38,0,0-.13,3.6,1,5.3"/><path class="cls-7" d="M32.92,23.05s-1.55,2.93.27,4.26-.27-4.26-.27-4.26"/><path class="cls-7" d="M35,21.9s3.18.93,2.87,3.16S35,21.9,35,21.9"/></g></g></svg>