<svg xmlns="http://www.w3.org/2000/svg" viewBox="0 0 69.46 47.77"><defs><style>.cls-1{fill:#444;}.cls-2{fill:#468733;}.cls-3{fill:#c5db9b;}.cls-4{fill:#c56639;}</style></defs><title>Avocado</title><g id="Layer_2" data-name="Layer 2"><g id="레이어_1" data-name="레이어 1"><path class="cls-1" d="M28.86,47.77c-1,0-1.63-.05-1.63-.05C1,45.49,0,30.13,0,29.47v-.13c0-.92,1.06-9,23-12.77a26.24,26.24,0,0,1,1.74-5.74A16.58,16.58,0,0,1,40.78,0,30.78,30.78,0,0,1,54.05,3.48c.24.12,19.37,10.58,14.66,31.74,0,.17-2.59,8.88-13.65,8.88h0a30.8,30.8,0,0,1-9.57-1.76C40.19,47.23,32.17,47.77,28.86,47.77Z"/><path class="cls-2" d="M28.88,6.75c.27-.25,7.26-10.3,24.52-1.93,0,0,18.37,9.78,13.85,30.08,0,0-4.89,17.63-34.67-.45,0,0-13.26-7-6.44-23a15.5,15.5,0,0,1,2.74-4.67"/><path class="cls-3" d="M1.5,29.41s.39-8.89,26.68-12.07c0,0,10.87-1.48,17.24,5.18,0,0,11.78,8.75-7.11,15.12,0,0-15.33,4.51-30.37-3.56,0,0-2.66,2.81-3.48-1.7a3.35,3.35,0,0,1-3-3"/><path class="cls-2" d="M1.5,29.41s.59,14.67,25.85,16.82c0,0,21.8,1.77,21.61-16.58,0,0-.42,4.76-10.65,8,0,0-12.3,3.31-24-.83a42.89,42.89,0,0,1-6.39-2.73s-2.7,2.85-3.48-1.7a3.36,3.36,0,0,1-3-3"/><path class="cls-4" d="M17.42,28.26s.49-8.4,10.93-9.48,11,10.08,11,10.08-1,5-8.08,5.18-12.85-1.15-13.89-5.78"/></g></g></svg>