<svg xmlns="http://www.w3.org/2000/svg" viewBox="0 0 59.01 36.86"><defs><style>.cls-1{fill:#444;}.cls-2{fill:#ebb99f;}.cls-3{fill:#ffd8c7;}.cls-4{fill:#ee6157;}</style></defs><title>Bacon</title><g id="Layer_2" data-name="Layer 2"><g id="레이어_1" data-name="레이어 1"><path class="cls-1" d="M58.82,19.29l-.06-.11,0-.09L58.65,19c-1-1.52-3.68-2.16-5-2.28h0a2.56,2.56,0,0,0-.62-.07,4.38,4.38,0,0,0-2,.55.84.84,0,0,1-.37.08A4.51,4.51,0,0,1,49.55,17a5.37,5.37,0,0,0-1.33-.23,2,2,0,0,0-1,.23H47c-.3,0-.66,0-1.1-.06s-1.13-.09-1.86-.11a14.85,14.85,0,0,0,4.41-2.83h.78a4.33,4.33,0,0,0,4-2.38,3.3,3.3,0,0,1,1-1.06c1.5-1.13,1.94-2.22,2-7.25a5.35,5.35,0,0,0-.46-1.73,2.53,2.53,0,0,0-.31-.42l-.08-.08-.08-.09A5.58,5.58,0,0,0,51.36,0a9.2,9.2,0,0,0-1.77.11,4,4,0,0,0-2.32,1.12,1.78,1.78,0,0,1-1.15.24h-.53a2.75,2.75,0,0,0-2,.58,7.54,7.54,0,0,1-1.33.29c-.75.14-1.68.3-2.84.6a6.67,6.67,0,0,0-2.34,1,3.65,3.65,0,0,0-1.54.88c-.09,0-.18.08-.27.12a5.43,5.43,0,0,1-1.64.46A11.88,11.88,0,0,0,28.33,8a8.63,8.63,0,0,0-2.69,1.89c-.85.18-1.78.43-2.82.72s-2,.55-3.17.82a10.44,10.44,0,0,0-2.68,1,5.8,5.8,0,0,0-3.07,1.28,60.91,60.91,0,0,1-5.53,3.24,4,4,0,0,0-1.71.72,2.77,2.77,0,0,0-.51.24c-2.64,1.55-3.61,4.5-4.38,7.39A6.36,6.36,0,0,0,1.55,28c-.22.35-.43.71-.64,1.09-1.23,2.19-1,3.6-.53,4.43A4.37,4.37,0,0,0,2.6,35.84a3.29,3.29,0,0,0,1.78.68,2.44,2.44,0,0,0,1.31.34,8.07,8.07,0,0,0,2.07-.36,6.53,6.53,0,0,0,3.53-2.41,4.53,4.53,0,0,1,.32-.38,7.72,7.72,0,0,0,4.06-3.08A2.31,2.31,0,0,1,16.94,30h0a.57.57,0,0,1,.13.14,3.71,3.71,0,0,0,2.49,1.21,4,4,0,0,1,.77.43,7.81,7.81,0,0,0,4.51,1.44,13.45,13.45,0,0,0,4.87-1.07A13.18,13.18,0,0,1,34.54,31a12.49,12.49,0,0,1,2.72.36,15.79,15.79,0,0,0,3.31.42l.57,0a17.14,17.14,0,0,0,7.74-1.92l.27.08a5.33,5.33,0,0,0,1.66.31,4.62,4.62,0,0,0,3.25-1.48A3.23,3.23,0,0,1,55.27,28c1.74-.72,2.44-1.66,3.7-6.53A5.73,5.73,0,0,0,58.82,19.29Z"/><path class="cls-2" d="M7.32,30s-.11.84,2.2-.5,2.05-3.22,3-3.66a6.37,6.37,0,0,0,2.44-3,3.31,3.31,0,0,1,2.53-2.14c1.11,0,1,.88,2.69.67s3.73,2.55,9.34-1.5S37.13,17.6,41,16.41a15.42,15.42,0,0,0,6.56-3.58c.83-.86,2.69.8,4.36-1.92s2.7-.22,2.71-7.53l-17,5.86-26,10.28L6.38,24l-1,5Z"/><path class="cls-3" d="M5.57,30a2.89,2.89,0,0,1-2.05-1.25l1.83-5.33,2.06-3.89V19a2,2,0,0,1,1.28-.6,15.44,15.44,0,0,0,2.13-.5l2.5-1.83,1.48-1.17a4.21,4.21,0,0,1,2.61-1,67,67,0,0,0,7.33-1.29l1.06-.89.61-.46A7.39,7.39,0,0,1,29.07,9.3c1.28-.36,5.87-1.94,5.87-1.94l1.45-1.2a2.07,2.07,0,0,1,1.38-.8c.92-.12,6.24-.42,6.24-.42l5.73-2.17V1.6s3.26-.46,4.41.58-.24,4-.74,5.65-1.71,1.48-2.66,3.26-2.23-.35-4.93,2.32S38,16.21,38,16.21s-6.2-.13-9.4,3.25-8.44,1.09-8.44,1.09a1.54,1.54,0,0,1-1.42-.34s-.8-.66-2.78.45-1.77,3.5-3.5,4.47S11,28.35,9.55,28.71,8.65,29.8,7.32,30l-.5-1Z"/><path class="cls-4" d="M3.85,28.9s-1.4-.33-.63-3.26,1.66-5.29,3.69-6.48a1.5,1.5,0,0,1,1.5,0c.72.47,2-.39,2,.83s-.83,1.54-2.17,4.19c0,0-.19,1-2.41,2A1.66,1.66,0,0,0,5,27.8S4.94,29.36,3.85,28.9Z"/><path class="cls-4" d="M8.69,18.38s.11,1.22,3,.25a1.81,1.81,0,0,1,1-1.86,7.64,7.64,0,0,0,2.06-1.89S9.49,18.24,8.69,18.38Z"/><path class="cls-4" d="M13.41,18.3s-1.42.55-1.34,0,.48-1,2.2-1.89,2.05-2.7,5.72-3.56,6.25-1.88,8.14-1.76,3.17-1.21,5.86-1c0,0,1.33.17-1.89,1.61s-2.25,1.7-4.08,2.09a3.57,3.57,0,0,1-2.5,2c-1.86.39-1.72-.59-5-.39s-2.64.18-4.81,1.53A16.31,16.31,0,0,1,13.41,18.3Z"/><path class="cls-4" d="M46.94,9.05c.07,1.1-1.67.3-4.78,1.55s-5.39.09-5.92-.7-2.92-1-5.14-.27-2-.33-2-.33,2.5-2.14,4.75-2.39,2.7-1.36,2.75-.31,2.39,1,2.37,2.05,4-.1,4.69-.94A1.92,1.92,0,0,1,46.94,9.05Z"/><path class="cls-4" d="M37.27,6.33s-.14-1.25,2.55-1.95S44,3.74,44.57,3.19s2.48.25,3.7-.84,2-.8,2.22-.33.83,1.78-1.22,3.39S46.85,7,45.94,6s-.53,1.25-4.14,1.22S37.52,6.94,37.27,6.33Z"/><path class="cls-4" d="M47.91,9.44C49.53,10,52,9,52,7.24a3.5,3.5,0,0,1,.92-2.55s1.77-1.31,1.47-2.09S53.74,2,53,2.27s-2.17,2-3.25,3.5S48,7,47.32,7.36s0,1.29,0,1.29A.84.84,0,0,0,47.91,9.44Z"/><path class="cls-4" d="M5.57,30s1.67-3.75,3.12-4.44,2.08-3.81,3.83-5.25,4-2.75,4.39-3.56,2.3-.16,3.78-.61,2.86,1,4.5.84,3.86-3.53,6.44-4.14,2.25.25,4.14-.42,2.33,1.25,5.44,0,2.09.22,4.48-1.53,6.08-.94,4.27,0-1-1.11-3.8,1.5-4.28,1.34-5.53,2.2-4.15-.31-6.37.86-.63-1.42-4.35.69a1.73,1.73,0,0,0-.84.84c-.3.64-2.63,3.21-5.33,2.95,0,0-1.22.07-1.36-.76a1.46,1.46,0,0,0-2.31-.72c-.91.69-1.5-1-3.05.13s-2.58,1-3.36,2.56-2.5,4.61-4.39,5.39S7.32,30,7.32,30A2,2,0,0,1,5.57,30Z"/><path class="cls-2" d="M5.11,35s-.32.78,2.25.07,2.79-2.61,3.85-2.79A6.4,6.4,0,0,0,14.33,30a3.3,3.3,0,0,1,3-1.44c1.07.3.73,1.09,2.45,1.32s3,3.4,9.41.88,7.89-.23,11.9-.42a15.27,15.27,0,0,0,7.24-1.83c1-.62,2.41,1.45,4.7-.77s2.67.46,4.51-6.61L39.58,22.5l-27.8,3.43L5.69,29,3.5,33.57Z"/><path class="cls-3" d="M3.41,34.56a2.91,2.91,0,0,1-1.67-1.73l3.11-4.7,3-3.25.13-.5a2,2,0,0,1,1.38-.26,16.34,16.34,0,0,0,2.2.05L14.4,23l1.72-.76a4.19,4.19,0,0,1,2.78-.32,68,68,0,0,0,7.42.58l1.25-.6.7-.29a7.4,7.4,0,0,1,3.07-1.2c1.32,0,6.16-.41,6.16-.41l1.71-.8a2.06,2.06,0,0,1,1.54-.43c.91.11,6.14,1.15,6.14,1.15L53,19.28l.29-1.13s3.27.36,4.13,1.66-1.25,3.84-2.13,5.28-2,1-3.4,2.5-2.07-.9-5.34,1-8.28.76-8.28.76-6-1.69-9.91.79-8.45-1.06-8.45-1.06a1.55,1.55,0,0,1-1.29-.68s-.61-.85-2.8-.26-2.6,2.94-4.51,3.45-2.2,2.76-3.72,2.74-1.14.82-2.46.65l-.24-1.07Z"/><path class="cls-4" d="M2,33.09s-1.28-.67.21-3.31,2.93-4.7,5.19-5.35a1.5,1.5,0,0,1,1.45.37c.58.64,2.06.13,1.7,1.3s-1.19,1.29-3.14,3.52c0,0-.44.9-2.85,1.33a1.67,1.67,0,0,0-1.18,1.36S3,33.81,2,33.09Z"/><path class="cls-4" d="M9.32,24.12s-.19,1.21,2.87,1a1.82,1.82,0,0,1,1.46-1.55,7.53,7.53,0,0,0,2.47-1.31S10.14,24.19,9.32,24.12Z"/><path class="cls-4" d="M13.92,25.22s-1.51.18-1.29-.33.71-.88,2.59-1.28,2.67-2.1,6.43-2,6.52-.26,8.32.33,3.37-.38,5.92.53c0,0,1.25.5-2.23,1.09s-2.61,1.08-4.48,1a3.55,3.55,0,0,1-2.91,1.28c-1.9-.09-1.52-1-4.75-1.63s-2.6-.48-5,.29A15.62,15.62,0,0,1,13.92,25.22Z"/><path class="cls-4" d="M48.69,24.65c-.2,1.09-1.69-.12-5,.31s-5.24-1.26-5.55-2.16-2.57-1.71-4.91-1.54-1.88-.83-1.88-.83S34.29,19,36.53,19.3s2.95-.64,2.74.39,2.07,1.56,1.78,2.58,3.9.9,4.78.27A1.91,1.91,0,0,1,48.69,24.65Z"/><path class="cls-4" d="M40,19.6s.18-1.25,3-1.24,4.19.42,4.89,0,2.33.86,3.79.12,2.14-.28,2.23.23.37,1.93-2,3-2.73.93-3.38-.24-.82,1.08-4.31.15S40.1,20.25,40,19.6Z"/><path class="cls-4" d="M49.54,25.27c1.44.91,4.05.62,4.53-1.09a3.52,3.52,0,0,1,1.52-2.25s2-.82,1.95-1.65-.5-.73-1.29-.67-2.6,1.39-4,2.57-2,.75-2.74.94-.32,1.25-.32,1.25A.82.82,0,0,0,49.54,25.27Z"/><path class="cls-4" d="M3.41,34.56S6,31.34,7.54,31s3-3.16,5-4.12,4.53-1.67,5.14-2.35,2.28.42,3.81.36,2.51,1.72,4.15,1.94,4.62-2.46,7.28-2.41,2.11.81,4.11.64,1.94,1.79,5.27,1.36,2,.74,4.71-.36,6.13.61,4.14,1.07-.71-1.33-4.06.5-4.47.22-5.9.74-3.94-1.33-6.38-.76-.26-1.53-4.39-.42a1.73,1.73,0,0,0-1,.61c-.45.53-3.35,2.45-5.9,1.52,0,0-1.2-.24-1.12-1.08A1.46,1.46,0,0,0,20.34,27c-1.06.44-1.2-1.35-3-.64s-2.76.35-3.89,1.64-3.58,3.84-5.6,4.12S5.11,35,5.11,35A2,2,0,0,1,3.41,34.56Z"/></g></g></svg>