<svg xmlns="http://www.w3.org/2000/svg" viewBox="0 0 54.52 52.62"><defs><style>.cls-1{fill:#444;}.cls-2{fill:#f9d73a;}</style></defs><title>Banana</title><g id="Layer_2" data-name="Layer 2"><g id="레이어_1" data-name="레이어 1"><path class="cls-1" d="M10.41,39.54H9.27c-1,0-6.25-.17-8.39-3.33a5.75,5.75,0,0,1-.31-5.64c.26-.62,1.8-3.57,7.88-4.42.11,0,10.21-1.49,16.38-9.51C26,14.25,29.27,7.85,33.21,6.25l.75-2a2,2,0,0,1,1.88-1.3l.3,0L39,3.4a2,2,0,0,1,1.51,2.81L39.36,8.78c1.62,3,4.13,11.8-10.18,25-.82.87-5.91,5.71-18.77,5.71"/><path class="cls-1" d="M41.82,8.31A18.27,18.27,0,0,1,34.9,7.2a2,2,0,0,1-1.08-1.1L33.59,6a2.14,2.14,0,0,1-1.65-1.11,2.92,2.92,0,0,1,.45-3A2.84,2.84,0,0,1,35,.1a2.64,2.64,0,0,1,1,.21l.14.07a13.19,13.19,0,0,0,5.13.81,27.81,27.81,0,0,0,7-1,2.48,2.48,0,0,1,1-.22c.4,0,2.39.15,2.53,3A3.21,3.21,0,0,1,51,5.49a3,3,0,0,1-1.58.84,2,2,0,0,1-1.6,1.5,39.07,39.07,0,0,1-6,.48"/><path class="cls-2" d="M38.72,5.38,37.09,8.93s7.12,8.3-9.33,23.48c0,0-4.52,5.41-18.44,5.12,0,0-9.41.07-6.89-6.23,0,0,1-2.44,6.29-3.18,0,0,11.06-1.48,17.83-10.45,0,0,4.32-9.33,8.17-9.77l1.12-3Z"/><path class="cls-1" d="M17.93,47.86c-2.72,0-4.71-.72-5.93-2.15a5.86,5.86,0,0,1-1.1-5c0-.2.86-4.86,7.43-7,4.9-1.59,9.66-6.92,9.71-7l.17-.17s3.61-3.47,6.12-14.15a.57.57,0,0,0,0-.14C34.5,11.92,35.54,8.9,38,7.7l.33-2.44a2,2,0,0,1,2-1.73H43.5a2,2,0,0,1,1.59.78A2.05,2.05,0,0,1,45.44,6l-.75,2.82c1.89,2.39,4.46,9.12-4.18,25.2A27.14,27.14,0,0,1,25.94,46.44a29,29,0,0,1-8,1.42"/><path class="cls-2" d="M40.26,5.53H43.5l-1,3.92s6.69,4.31-3.71,23.66A25.28,25.28,0,0,1,25.24,44.56s-13.7,4.6-12.37-3.48c0,0,.6-3.63,6.08-5.41s10.59-7.55,10.59-7.55,4-3.56,6.74-15.19c0,0,1.11-3.48,3.48-3.7Z"/><path class="cls-1" d="M31,52.62l-.76,0a4.54,4.54,0,0,1-3.34-1.88c-1-1.43-1.18-3.4-.48-5.85a9,9,0,0,1,4.24-5.61,25.94,25.94,0,0,0,7.77-9.79,24.23,24.23,0,0,0,2.15-13.33.78.78,0,0,1,0-.14c-.07-.66-.53-5.81,2.27-8.08l-.3-2.4a2,2,0,0,1,1.75-2.24L47.16,3l.23,0a2,2,0,0,1,1.29.47,2,2,0,0,1,.71,1.41l.14,2.35c1.65,1,3.78,3.69,4.73,10.65a37.24,37.24,0,0,1-4.48,22.47C49.55,40.72,43,52.62,31,52.62"/><path class="cls-2" d="M47.39,4.93l.22,3.63s3.37.08,4.67,9.52c0,0,1.7,11.08-4.22,21.19,0,0-6.34,11.81-17.71,11.33,0,0-3.44-.19-2-5.26A7,7,0,0,1,31.72,41s4.94-3.18,8.54-10.63a25.94,25.94,0,0,0,2.32-14.55S42,9.93,45,9l-.48-3.74Z"/><path class="cls-2" d="M35.68,5.36s.75-.69-1.81-1.32c0,0-.59.15.3-1.18,0,0,.33-1,1-.7,0,0,4.63,2.37,13.77-.06,0,0,.74-.57.82,1s-1.34,1.22-1.34,1.22-1.13-.32-1,1.52c0,0-7.52,1.29-11.77-.5"/></g></g></svg>