<svg xmlns="http://www.w3.org/2000/svg" viewBox="0 0 39.31 46.2"><defs><style>.cls-1{fill:#444;}.cls-2{fill:#fabf0a;}.cls-3{fill:#ebc718;}</style></defs><title>Barley</title><g id="Layer_2" data-name="Layer 2"><g id="레이어_1" data-name="레이어 1"><path class="cls-1" d="M37.75,14.8a10.22,10.22,0,0,0,1.42-7l-.83.1a10.27,10.27,0,0,0-.57-6.6L39,0,35.25.16c-1,0-2.7.83-4.5,5.16-.92.24-2.38,1.31-3.54,5.27l-.08,0c-.7.17-1.75.85-2.61,3.11l-.41.18c-.65.29-1.57,1.15-2,3.56l-.82.53c-.94.6-2.29,2.59-.87,9.21l.29,1.34a4.47,4.47,0,0,0-.25,1.36,5.58,5.58,0,0,0,.66,2.34c-.49.66-1,1.3-1.46,1.9-.47-.6-1-1.24-1.45-1.9a5.58,5.58,0,0,0,.66-2.34,4.47,4.47,0,0,0-.25-1.36l.28-1.34C20.32,20.58,19,18.59,18,18l-.82-.53c-.45-2.41-1.36-3.27-2-3.56l-.4-.18c-.87-2.26-1.91-2.94-2.61-3.11l-.08,0c-1.16-4-2.62-5-3.54-5.27C6.76,1,5,.2,4.06.16L.33,0,1.54,1.27A10.27,10.27,0,0,0,1,7.87l-.83-.1a10.22,10.22,0,0,0,1.42,7L1,14.89a9.69,9.69,0,0,0,2.31,5.32L1.55,21a9.08,9.08,0,0,0,2.28,3.37L2.17,25.42c.07.15,1.84,3.72,7.13,5l.73.18h0c.17.38,1.75,3.67,4.73,3.81l.22,0c.35.48,1.09,1.47,2.09,2.7-3.73,4.06-5.59,4.5-5.55,4.5h0l-.84.07-.38.75a2.53,2.53,0,0,0,1.29,3.32l.73.39.72-.4a28.37,28.37,0,0,0,6.6-5.65,28.59,28.59,0,0,0,6.61,5.65l.72.4.73-.39A2.51,2.51,0,0,0,29,42.49l-.28-.74-.84-.07s-1.88-.42-5.64-4.51c1-1.23,1.74-2.22,2.09-2.7l.22,0c3-.14,4.56-3.43,4.73-3.81h0l.72-.18c5.3-1.31,7.07-4.88,7.14-5l-1.66-1.05A9.08,9.08,0,0,0,37.76,21L36,20.21a9.79,9.79,0,0,0,2.31-5.32Z"/><path class="cls-2" d="M5,6.53S4.24,9.6,5.91,11c0,0,.57.56.88.5s.54-1.39.29-2.3A9.9,9.9,0,0,0,5,6.53Z"/><path class="cls-2" d="M3.52,10.38S4,13.49,6.08,14.14c0,0,.74.31,1,.13s0-1.49-.61-2.24A10,10,0,0,0,3.52,10.38Z"/><path class="cls-2" d="M8.29,10.25S6.78,13,8,14.79c0,0,.4.7.72.72s.89-1.2.89-2.15A9.86,9.86,0,0,0,8.29,10.25Z"/><path class="cls-2" d="M5.35,14.61s.77,3.06,2.89,3.52c0,0,.77.24,1,0S9.1,16.69,8.45,16A9.91,9.91,0,0,0,5.35,14.61Z"/><path class="cls-2" d="M10.44,14.63s-1.47,2.78-.2,4.55c0,0,.41.69.73.71s.87-1.21.85-2.16A9.87,9.87,0,0,0,10.44,14.63Z"/><path class="cls-2" d="M7.17,18.89S7.71,22,9.8,22.61c0,0,.74.3,1,.12s-.06-1.49-.65-2.24A9.94,9.94,0,0,0,7.17,18.89Z"/><path class="cls-2" d="M12.06,19.3s-1.27,2.88.13,4.55c0,0,.46.66.78.65s.78-1.27.69-2.22A9.89,9.89,0,0,0,12.06,19.3Z"/><path class="cls-2" d="M8.92,22.93s.76,3.05,2.89,3.51c0,0,.76.24,1,0S12.66,25,12,24.31A9.92,9.92,0,0,0,8.92,22.93Z"/><path class="cls-2" d="M14.49,23.07s-1.72,2.64-.6,4.51c0,0,.34.73.66.77s1-1.13,1-2.07A10,10,0,0,0,14.49,23.07Z"/><path class="cls-2" d="M10.07,26.37s.88,3,3,3.41c0,0,.78.21,1,0s-.22-1.47-.89-2.15A10,10,0,0,0,10.07,26.37Z"/><path class="cls-2" d="M16.11,26.7s-1.59,2.72-.39,4.54c0,0,.38.71.7.74s.92-1.17.94-2.12A9.9,9.9,0,0,0,16.11,26.7Z"/><path class="cls-2" d="M11.4,30s1.31,2.87,3.48,2.93c0,0,.8.1,1-.14s-.43-1.43-1.19-2A10,10,0,0,0,11.4,30Z"/><path class="cls-3" d="M8,8.16c-2.08-6.41-4-6.5-4-6.5C5.81,3.56,7.14,8.4,7.14,8.4Z"/><path class="cls-3" d="M11.3,13.71C10,7.09,8.14,6.77,8.14,6.77c1.57,2.11,2.29,7.08,2.29,7.08Z"/><path class="cls-3" d="M14.47,19.23c-.77-6.7-2.65-7.16-2.65-7.16,1.41,2.22,1.77,7.23,1.77,7.23Z"/><path class="cls-3" d="M15.89,22.79c.45-6.73-1.31-7.52-1.31-7.52,1,2.43.43,7.42.43,7.42Z"/><path class="cls-3" d="M17.43,26.88c1.42-6.59-.21-7.63-.21-7.63.62,2.56-.65,7.41-.65,7.41Z"/><path class="cls-3" d="M3.86,9.24S2.07,4.83,2.92,1.87c0,0-1.67,3,0,7.45Z"/><path class="cls-3" d="M4.51,15S1.59,11.21,1.6,8.13c0,0-.81,3.3,2.07,7.16Z"/><path class="cls-3" d="M7.14,20.63S3.31,17.8,2.48,14.84c0,0,.12,3.4,3.93,6.33Z"/><path class="cls-3" d="M9,24.88s-4.45-1.7-6-4.33c0,0,1,3.24,5.49,5Z"/><path class="cls-3" d="M10.11,28.21s-4.64-1.05-6.59-3.44c0,0,1.48,3.07,6.14,4.22Z"/><path class="cls-2" d="M34.35,6.53s.72,3.07-1,4.46c0,0-.57.56-.89.5s-.53-1.39-.28-2.3A9.9,9.9,0,0,1,34.35,6.53Z"/><path class="cls-2" d="M35.79,10.38s-.49,3.11-2.56,3.76c0,0-.74.31-1,.13s0-1.49.61-2.24A10,10,0,0,1,35.79,10.38Z"/><path class="cls-2" d="M31,10.25s1.51,2.76.26,4.54c0,0-.39.7-.71.72s-.89-1.2-.89-2.15A9.86,9.86,0,0,1,31,10.25Z"/><path class="cls-2" d="M34,14.61s-.77,3.06-2.9,3.52c0,0-.76.24-1,0s.16-1.48.81-2.17A9.91,9.91,0,0,1,34,14.61Z"/><path class="cls-2" d="M28.87,14.63s1.47,2.78.2,4.55c0,0-.41.69-.73.71s-.87-1.21-.86-2.16A10.07,10.07,0,0,1,28.87,14.63Z"/><path class="cls-2" d="M32.14,18.89s-.54,3.1-2.63,3.72c0,0-.74.3-1,.12s.05-1.49.65-2.24A9.94,9.94,0,0,1,32.14,18.89Z"/><path class="cls-2" d="M27.25,19.3s1.27,2.88-.13,4.55c0,0-.46.66-.78.65s-.78-1.27-.69-2.22A9.89,9.89,0,0,1,27.25,19.3Z"/><path class="cls-2" d="M30.39,22.93S29.63,26,27.5,26.44c0,0-.77.24-1,0s.17-1.48.81-2.17A9.92,9.92,0,0,1,30.39,22.93Z"/><path class="cls-2" d="M24.82,23.07s1.71,2.64.6,4.51c0,0-.34.73-.66.77s-1-1.13-1-2.07A10,10,0,0,1,24.82,23.07Z"/><path class="cls-2" d="M29.24,26.37s-.88,3-3,3.41c0,0-.78.21-1,0s.22-1.47.89-2.15A10,10,0,0,1,29.24,26.37Z"/><path class="cls-2" d="M23.2,26.7s1.59,2.72.39,4.54c0,0-.38.71-.7.74S22,30.81,22,29.86A9.9,9.9,0,0,1,23.2,26.7Z"/><path class="cls-2" d="M27.91,30S26.6,32.89,24.43,33c0,0-.8.1-1-.14s.43-1.43,1.19-2A10,10,0,0,1,27.91,30Z"/><path class="cls-3" d="M31.31,8.16c2.08-6.41,4-6.5,4-6.5C33.5,3.56,32.17,8.4,32.17,8.4Z"/><path class="cls-3" d="M28,13.71c1.27-6.62,3.17-6.94,3.17-6.94-1.57,2.11-2.29,7.08-2.29,7.08Z"/><path class="cls-3" d="M24.84,19.23c.77-6.7,2.64-7.16,2.64-7.16-1.4,2.22-1.76,7.23-1.76,7.23Z"/><path class="cls-3" d="M23.42,22.79c-.45-6.73,1.31-7.52,1.31-7.52-1,2.43-.43,7.42-.43,7.42Z"/><path class="cls-3" d="M21.88,26.88c-1.42-6.59.21-7.63.21-7.63-.62,2.56.65,7.41.65,7.41Z"/><path class="cls-3" d="M35.45,9.24s1.78-4.41.94-7.37c0,0,1.67,3,0,7.45Z"/><path class="cls-3" d="M34.8,15s2.92-3.76,2.91-6.84c0,0,.81,3.3-2.07,7.16Z"/><path class="cls-3" d="M32.17,20.63S36,17.8,36.83,14.84c0,0-.12,3.4-3.93,6.33Z"/><path class="cls-3" d="M30.29,24.88s4.45-1.7,6-4.33c0,0-1,3.24-5.49,5Z"/><path class="cls-3" d="M29.2,28.21s4.64-1.05,6.59-3.44c0,0-1.48,3.07-6.15,4.22Z"/><path class="cls-2" d="M27.65,43.17s-2.39-.21-7.4-6c1.84-2.17,3.09-3.93,3.09-3.93-.15-.76-.6-.72-.6-.72-1.11,1.53-2.14,2.84-3.09,4-.94-1.12-2-2.43-3.08-4,0,0-.45,0-.6.72,0,0,1.25,1.76,3.09,3.93-5,5.76-7.4,6-7.4,6-.38.75.66,1.32.66,1.32,2.49-1.38,5.21-4.15,7.33-6.59,2.12,2.44,4.85,5.21,7.34,6.59C27,44.49,28,43.92,27.65,43.17Z"/></g></g></svg>