<svg xmlns="http://www.w3.org/2000/svg" viewBox="0 0 54.92 39.55"><defs><style>.cls-1{fill:#444;}.cls-2{fill:#45a235;}.cls-3{fill:#70c42a;}.cls-4{fill:#3db135;}.cls-5{fill:#a1c13b;}.cls-6{fill:#8fd84a;}</style></defs><title>Basil</title><g id="Layer_2" data-name="Layer 2"><g id="레이어_1" data-name="레이어 1"><path class="cls-1" d="M12.85,39.55A54,54,0,0,1,2,38.23l-2-.46L.92,36a11.48,11.48,0,0,0,.84-5.43l-.05-.44.19-.41c5.31-11.26,7.4-12.26,8.36-12.35a15.43,15.43,0,0,1,4.17-.49l1.06,0-.55-2.06,1.23.11c-.49-1.5-.42-2.55.54-3.19a2.22,2.22,0,0,1,.43-.23c0-3,.57-6,2.72-6.58a7.34,7.34,0,0,0,.61-1.75c.36-1.31.77-2.79,2.23-3.12a2.31,2.31,0,0,1,.46,0c1.37,0,2.33,1.23,3.45,2.65a8.88,8.88,0,0,0,2,2.15c2,.86,4.42,3.79,4.91,7.15l3,.46a11.64,11.64,0,0,1,0,1.44,14.31,14.31,0,0,1,6.09,1.68c1.52.56,10.4,4,12.09,8.57l.15.43-.09.44c-.09.43-1.09,4.2-8,7.42a9.87,9.87,0,0,1-4.56,2c.46,1.84.62,3,.63,3.05l.25,1.86-8.54-.34h-.06a20.07,20.07,0,0,1-9-3.61c-.54.28-1,.58-1.62.92a26.36,26.36,0,0,1-5.12,2.48A18.3,18.3,0,0,1,12.85,39.55Z"/><path class="cls-2" d="M32,14.32c.66-3.6-2.07-7.26-3.94-8.06s-3.79-4.93-5-4.67S22.11,6,20.25,6.46s-1.47,6.79-1.47,6.79a1,1,0,0,0-1.2-.2c-.6.4,1.2,3.93,1.2,3.93s3.52,5.73,7.76,4.46S32,14.32,32,14.32Z"/><path class="cls-3" d="M31.18,12.55a.4.4,0,0,0-.35-.43.41.41,0,0,0-.43.36c-.2,2.17-2.86,3.77-4,4.39,0-1.07,0-2.28-.08-3.54C27.07,13,29,11.94,28.9,8.65a.38.38,0,0,0-.4-.39.39.39,0,0,0-.39.4c0,2.57-1.19,3.51-1.88,3.84-.28-3.78-1.06-7.86-3-10.1a.4.4,0,1,0-.6.52c1.81,2.07,2.55,6,2.81,9.6a6.63,6.63,0,0,1-4.72-5,.39.39,0,0,0-.46-.32.41.41,0,0,0-.32.46c.72,4.06,4.46,5.4,5.56,5.7.07,1.3.09,2.55.07,3.64-1.35-.39-5.23-1.72-5.64-4.54a.4.4,0,0,0-.79.12c.51,3.46,5.14,4.9,6.42,5.24-.05,1.83-.16,3.08-.16,3.12a.39.39,0,0,0,.36.43h0a.39.39,0,0,0,.39-.36c0-.16.13-1.43.17-3.25C27.32,17.3,30.92,15.42,31.18,12.55Z"/><path class="cls-4" d="M22.91,19.44s-8.19-1.86-12.39-.53c0,0-1.66-.27-7.19,11.46a12.83,12.83,0,0,1-1,6.32s10.52,2.47,16,.54,5.86-4.13,11.85-4.8S22.91,19.44,22.91,19.44Z"/><path class="cls-4" d="M29.44,16.58c.2.07,6.59-2.93,12.59.4,0,0,9.72,3.46,11.25,7.66,0,0-.73,3.4-7.26,6.39,0,0-3.13,2.67-6.13,1.54L29.44,25.31Z"/><path class="cls-5" d="M25.18,23.91a33.28,33.28,0,0,0-6.49.19C18,23,14.82,18.52,10.78,19.72a.41.41,0,0,0-.27.5.39.39,0,0,0,.49.26c3.17-.93,5.89,2.42,6.83,3.76a17.23,17.23,0,0,0-3.12.81c-.81-.61-4.19-2.92-7-1.49a.39.39,0,0,0,.36.7c2-1.05,4.61.4,5.73,1.15A6.77,6.77,0,0,0,10.76,28c-1-.31-4.11-1.14-5.72.17a.39.39,0,0,0,0,.55.39.39,0,0,0,.55.06c1.13-.92,3.56-.45,4.82-.08A16,16,0,0,1,4,35.19a.39.39,0,0,0,.17.75.32.32,0,0,0,.16,0,16.19,16.19,0,0,0,6.5-6.37c.3,1.42.52,4.13-1.51,5.7a.4.4,0,0,0-.07.56.39.39,0,0,0,.31.15.41.41,0,0,0,.24-.08c3-2.31,1.88-6.45,1.59-7.34A6.09,6.09,0,0,1,14.47,26a10.39,10.39,0,0,1-.16,9.84.41.41,0,0,0,.14.55.46.46,0,0,0,.2,0,.4.4,0,0,0,.34-.19,11.19,11.19,0,0,0,.22-10.54,17.73,17.73,0,0,1,3.1-.74c.64,1,3.36,5.82.1,10.34a.4.4,0,0,0,.09.56.39.39,0,0,0,.23.07.42.42,0,0,0,.32-.16c3.29-4.57,1-9.38.11-10.93a34.51,34.51,0,0,1,6-.15.39.39,0,0,0,.43-.36A.41.41,0,0,0,25.18,23.91Z"/><path class="cls-3" d="M51.84,23.28a14,14,0,0,0-4.39-1.37,1.15,1.15,0,0,1,1-.54.39.39,0,0,0,.45-.33.39.39,0,0,0-.32-.45,2.13,2.13,0,0,0-2,1.2,33.83,33.83,0,0,0-4.65-.24c.33-.76,1.11-2.09,2.52-2.09h0a.41.41,0,0,0,.4-.39.38.38,0,0,0-.38-.4h-.07c-2.14,0-3.1,2.14-3.38,2.9-1.39,0-2.76.13-4,.25.21-1.08.87-3.6,2.57-3.8a.4.4,0,0,0-.1-.79c-2.36.28-3.11,3.57-3.29,4.67-3.22.35-5.64.83-5.88.88a.4.4,0,0,0-.31.47.4.4,0,0,0,.47.3c.06,0,2.44-.48,5.67-.83,0,1.65.41,7.16,4.79,8H41a.4.4,0,0,0,.07-.79C37.28,29.2,37,24,37,22.63c1.22-.12,2.53-.21,3.87-.25a7.6,7.6,0,0,0,.25,5.06,3.74,3.74,0,0,0,2.42,1.89l.11,0a.4.4,0,0,0,.1-.78,3,3,0,0,1-1.93-1.5c-.85-1.6-.34-3.91-.12-4.71a34,34,0,0,1,4.66.2c-.23,1.49,0,3.84,2.14,4.38h.09a.41.41,0,0,0,.39-.3.4.4,0,0,0-.29-.48c-1.86-.45-1.67-2.72-1.55-3.51A13.79,13.79,0,0,1,51.46,24a.34.34,0,0,0,.19.05.38.38,0,0,0,.35-.21A.39.39,0,0,0,51.84,23.28Z"/><path class="cls-6" d="M26.54,22c1-4.53-9.49-5.46-9.49-5.46,2.26,8.53,6.79,6.93,6.79,6.93Z"/><path class="cls-6" d="M28.64,22.71c7-2.33,6.39-10.19,6.39-10.19-.86,2.26-3.06,1.8-5.86,3.13S26.54,22,26.54,22Z"/><path class="cls-3" d="M34.77,37.36c-7.13-.87-11.86-6.46-11.86-6.46l-1.09-5,.76.28c.33-3.38,4.79-6.67,4.79-6.67s6-1.73,9.59,5.2a43.6,43.6,0,0,1,4.4,12.92Z"/><path class="cls-4" d="M39.91,36.66c0-.08-1-1.69-5.47-4.53.58-.72,2.09-2.33,3.45-1.67a.4.4,0,0,0,.53-.19.4.4,0,0,0-.18-.52c-1.94-.95-3.84,1.15-4.48,2l-.59-.35a9.48,9.48,0,0,1-3.38-3.55c.77-.65,3.28-2.54,5-1.31a.39.39,0,0,0,.55-.09.4.4,0,0,0-.1-.55c-2.11-1.49-4.83.39-5.87,1.24a16.25,16.25,0,0,1-1.27-3.65c1.19-.52,3.72-1.33,4.78-.44a.4.4,0,0,0,.56-.05.39.39,0,0,0,0-.55c-1.43-1.22-4.31-.22-5.45.25a18.22,18.22,0,0,1-.3-2.56.39.39,0,0,0-.4-.39h0a.39.39,0,0,0-.39.4A18.69,18.69,0,0,0,27.21,23c-.91.53-3.77,2.46-3.73,5.94a.4.4,0,0,0,.4.39h0a.4.4,0,0,0,.39-.4c0-2.79,2.16-4.49,3.12-5.11a16.5,16.5,0,0,0,1.4,3.84c-.66.79-2.68,3.56-1.1,6.13A.41.41,0,0,0,28,34a.42.42,0,0,0,.21-.06.4.4,0,0,0,.13-.54c-1.18-1.91.18-4.08.84-5A10.4,10.4,0,0,0,32.77,32l.56.33c-.55,1-1,2.69.29,3.69a.46.46,0,0,0,.25.08.4.4,0,0,0,.31-.15.41.41,0,0,0-.07-.56c-.93-.72-.42-2-.11-2.64,4.3,2.7,5.21,4.23,5.21,4.24a.39.39,0,0,0,.54.16A.39.39,0,0,0,39.91,36.66Z"/></g></g></svg>