<svg xmlns="http://www.w3.org/2000/svg" viewBox="0 0 41.43 47"><defs><style>.cls-1{fill:#444;}.cls-2{fill:none;stroke:#000;stroke-miterlimit:10;stroke-width:0.25px;}.cls-3{fill:#908ca8;}.cls-4{fill:#6eac09;}.cls-5{fill:#fbb466;}.cls-6{fill:#782807;}.cls-7{fill:#fccf71;}</style></defs><title>Basil_Festo</title><g id="Layer_2" data-name="Layer 2"><g id="레이어_1" data-name="레이어 1"><path class="cls-1" d="M19.92,47c-.39,0-9.58,0-13.68-2.44C2.61,42.42,2.87,34.93,3,32.69A55.48,55.48,0,0,0,3,25.36,40.77,40.77,0,0,1,3,17.83a11.1,11.1,0,0,1,.62-2.66,12.86,12.86,0,0,0-1.9-.48A1.89,1.89,0,0,1,.05,13.41a1.93,1.93,0,0,1,1-2l.34-.28A9.87,9.87,0,0,1,3.51,9.79a5.16,5.16,0,0,0,.64-.33c0-.06,0-.13,0-.19A2.61,2.61,0,0,1,4.6,8a10,10,0,0,1,.26-5C5.77.85,7.61.55,9.3.55c.87,0,1.89.09,3.17.19l.46,0a8.14,8.14,0,0,0,.87,0c1.27,0,2.87-.16,4.56-.34A66,66,0,0,1,25.22,0a23.71,23.71,0,0,1,5.61.6A6.63,6.63,0,0,1,35.57,4a6.47,6.47,0,0,1,.4,4.2,1.64,1.64,0,0,1,.36.69,1.7,1.7,0,0,1-.18,1.3,9.9,9.9,0,0,0,3.75,1.6l1.53.39L41,13.67a3.6,3.6,0,0,1-2.59,2.42l0,.77-.5.28c.75,4.07.31,8.33-.08,12.14a36.13,36.13,0,0,0-.26,8.3,5.86,5.86,0,0,1-1.37,4.84C32.54,46.67,22.81,47,19.92,47Z"/><path class="cls-2" d="M10.25,11.11a8.16,8.16,0,0,0-5.22,7c-.61,5.5.39,8,0,14.77,0,0-.61,8.34,2.22,10S16.53,45,19.92,45s16.66-.61,15.66-7.11S38.14,21.78,35,14.17C35,14.17,31.2,10.33,10.25,11.11Z"/><path class="cls-3" d="M19.92,45.5C16.76,45.5,10,45,7,43.26S4.47,33.68,4.53,32.8a58.26,58.26,0,0,0-.07-7.52A39.72,39.72,0,0,1,4.53,18a8.6,8.6,0,0,1,5.57-7.37l.07,0h.06c1.87-.07,3.68-.1,5.38-.1,16.27,0,19.59,3.17,19.72,3.31l.07.07,0,.09c2,4.72,1.4,10.26.9,15.14a36,36,0,0,0-.25,8.69,4.38,4.38,0,0,1-1,3.64C31.74,45.31,21.86,45.5,19.92,45.5Z"/><path class="cls-4" d="M10.25,11.11a8.16,8.16,0,0,0-5.22,7c-.61,5.5.39,8,0,14.77,0,0-.61,8.34,2.22,10S16.53,45,19.92,45s16.66-.61,15.66-7.11S38.14,21.78,35,14.17C35,14.17,31.2,10.33,10.25,11.11Z"/><path class="cls-5" d="M13.31,14.87l.22.13c3.39,2.17,3.33,1.44,5.55.72s5.23,1.11,6.39-.44,4.34-1.34,7.17.11,4.22.61,4.22.61l0-1.44a2.1,2.1,0,0,0,2.72-1.34C33.08,11.56,34.14,9,34.14,9s2.5-5.44-3.67-6.95-13.61.56-17.66.23S7,1.72,6.25,3.61s0,5,0,5c-.44,2.56-2,2.06-3.93,3.67s-.54-.11,5.15,2.94a8.49,8.49,0,0,0,2.24.91L11.14,16l.31-1.55-.2-1.1.61.23.76,1Z"/><path class="cls-6" d="M13.53,15c-.89-1.53-2.28-2.94-3.34-2.72s-.27,1.33-.27,1.33c2.16,2.5-.34,2.49-.34,2.49s.25.16,1.56-.12S13.73,15.35,13.53,15Z"/><path class="cls-7" d="M6.25,8.61s-.51,0-.59.82.59,1.18,1.7,1.18,23.26.45,27.3-1c0,0,1-.65-1-.64S8.25,9.8,6.25,8.61Z"/></g></g></svg>