<svg xmlns="http://www.w3.org/2000/svg" viewBox="0 0 31.41 52.05"><defs><style>.cls-1{fill:#444;}.cls-2{fill:#fff2c1;}.cls-3{fill:#ffdd71;}</style></defs><title>Bean sprouts</title><g id="Layer_2" data-name="Layer 2"><g id="레이어_1" data-name="레이어 1"><path class="cls-1" d="M13,52.05a1.94,1.94,0,0,1-1-.29,1.93,1.93,0,0,1-1,.29h-.51a2,2,0,0,1-.94-.23l-.17-.1a2,2,0,0,1-1,.33H8.23a2.09,2.09,0,0,1-.67-.11L7.5,52a2.2,2.2,0,0,1-.61.09,2,2,0,0,1-.81-.17,2.16,2.16,0,0,1-.43.14L5.5,52H5.26A2,2,0,0,1,4.78,52a1.86,1.86,0,0,1-.48.06A2.24,2.24,0,0,1,3.78,52a2.24,2.24,0,0,1-.52.06,1.87,1.87,0,0,1-.62-.1,2,2,0,0,1-.64.1,2,2,0,0,1-1.24-.43,2,2,0,0,1-.32-2.81s.93-1.17,2.38-3.13c0-.9,0-1.81,0-2.71C.39,36.88-.25,29,.9,19.43a2.88,2.88,0,0,1-.1-.92,4,4,0,0,1,1.28-5L4.14,12a8.66,8.66,0,0,0-.73-1.47A2.84,2.84,0,0,1,2.79,10,4,4,0,0,1,0,5.68L.35,2.87.22,2.58,3,3.07a4.78,4.78,0,0,1,3.06,2A3.76,3.76,0,0,1,6.5,7.63a3.69,3.69,0,0,1,.21.64A20.39,20.39,0,0,1,9,14v0a4,4,0,0,1,.5-3c1-4.91,3-7.87,5.72-8.8a2.74,2.74,0,0,1,.58-.41A3.67,3.67,0,0,1,19,0a4.92,4.92,0,0,1,1.7.31l2.61,1.08.32,0-.47,1a3.17,3.17,0,0,1,.36-.23A3.68,3.68,0,0,1,26.78.28a4.92,4.92,0,0,1,1.7.31l2.61,1.07.32,0L30.18,4.15a4.46,4.46,0,0,1-3.55,2.53l-.25,1.05-.06.21A38.53,38.53,0,0,1,24,17.4l.35.74.12-.05,0,.21.68,1.43a4.79,4.79,0,0,1,.15,3.65,3.72,3.72,0,0,1-1.83,1.84,3.18,3.18,0,0,1-.36.51c-1.19,4.65-4.29,10-9.21,16,.34,2.81.74,5.61,1.13,7.95A2,2,0,0,1,13.3,52l-.12,0ZM14.26,26.4c-.06.76-.14,1.53-.23,2.3.61-1.07,1.2-2.13,1.75-3.17A13.31,13.31,0,0,0,14.26,26.4Zm-7,1.31,0-.07c0-.05,0-.09,0-.13S7.23,27.64,7.22,27.71ZM4.86,20c-.07.61-.13,1.22-.19,1.82A28.7,28.7,0,0,1,6,18.8H6a4.06,4.06,0,0,1-.88.79A2.92,2.92,0,0,1,4.86,20Zm15.58-4.7a19.68,19.68,0,0,0-4.87,6c.37-.15.76-.29,1.15-.42a2.39,2.39,0,0,1,.22-.23,3.67,3.67,0,0,1,2.42-2.52Q20,16.66,20.44,15.31Zm-6.24.3a2.74,2.74,0,0,1-.16.59,22.06,22.06,0,0,1,4-4.11,19.9,19.9,0,0,0-2.9,1.81A3.75,3.75,0,0,1,14.2,15.61Zm2.13-9.56c-1,.44-1.82,1.76-2.46,3.84a25.63,25.63,0,0,1,5.24-2.61,2.53,2.53,0,0,1,.37-.36,4.6,4.6,0,0,1,.32-.67,3.5,3.5,0,0,1-1.05.16A3.88,3.88,0,0,1,17.08,6a4.06,4.06,0,0,1-.51,0Zm5.9-1.83c-.08.12-.17.26-.28.41l.32-.07A1.76,1.76,0,0,1,22.23,4.22Z"/><path class="cls-2" d="M21.37,24a.5.5,0,0,0-.59.38c-1.09,5.12-4.89,10.81-8.7,15.5q-.13-1.32-.27-2.7c6.52-10,13.88-23.61,13.06-32.81a.48.48,0,0,0-.54-.45.49.49,0,0,0-.45.54c.75,8.5-6,21.24-12.23,31l-.12-1.43a49,49,0,0,0,1.28-8.51A17,17,0,0,1,18.29,23a.51.51,0,0,0,.35-.62A.5.5,0,0,0,18,22a18.16,18.16,0,0,0-5.15,2.3c0-.33,0-.67,0-1,2-4.54,4.82-8.51,9-10.75a.49.49,0,0,0,.2-.68.49.49,0,0,0-.67-.2,21.15,21.15,0,0,0-8.54,9.23,44.1,44.1,0,0,0-.54-5.25.5.5,0,0,0-1,.17A43.08,43.08,0,0,1,11.9,23c-.31.7-.59,1.4-.85,2.12a82.64,82.64,0,0,1,.31-9.78,21.39,21.39,0,0,1,9.18-5.9.5.5,0,0,0-.33-.95,23,23,0,0,0-8.65,5.18c.69-5,2.15-8.58,4.78-9.18a.5.5,0,0,0-.22-1c-3.38.78-5.05,5.37-5.73,11.39A21.49,21.49,0,0,0,8.3,17.71c-.83-4.08-1.86-7.41-3.15-9.07a.5.5,0,1,0-.79.61C5.67,10.94,6.71,14.59,7.53,19,4,25.65,3.81,33.67,4.45,39.93,3,35.27,2.24,28.57,3.46,19.08A.5.5,0,0,0,3,18.52a.5.5,0,0,0-.56.43C1,30.42,2.34,37.9,4.3,42.7c0,1.26,0,2.43,0,3.45-1.62,2.19-2.68,3.53-2.73,3.59a.5.5,0,0,0,.08.7.49.49,0,0,0,.31.11.52.52,0,0,0,.4-.18l.46-.59a.49.49,0,0,0,.74.64l.24-.21a.41.41,0,0,0,.18.25.47.47,0,0,0,.28.09.49.49,0,0,0,.41-.21l.09-.13a.49.49,0,0,0,.46.34h.1a.5.5,0,0,0,.4-.58s-.08-.4-.16-1l.32-.55c.28,1.12.48,1.79.5,1.84a.49.49,0,0,0,.47.34.44.44,0,0,0,.16,0,.5.5,0,0,0,.32-.63s-.3-1-.66-2.49l.13-.13c.28.38.56.72.83,1,0,1,0,1.61.06,1.77a.49.49,0,0,0,.5.47h0A.5.5,0,0,0,8.73,50s0-.27,0-.67a9,9,0,0,0,1.52,1.14.46.46,0,0,0,.23,0,.43.43,0,0,0,.22-.06.43.43,0,0,0,.22.06h0a.49.49,0,0,0,.48-.51c0-.39-.1-3.26-.33-7.33l.31-.36c.53,4.31,1,7.33,1.11,7.79a.49.49,0,0,0,.49.41h.08a.51.51,0,0,0,.41-.58c-.38-2.29-.82-5.29-1.21-8.66,4.07-4.9,8.3-11.07,9.5-16.71A.49.49,0,0,0,21.37,24ZM6.54,44.87l.26-.36c-.07.15-.14.3-.22.44ZM9.16,38.7c.1-1,.24-2,.4-3.08,0,.5.08,1,.11,1.49Zm1.3-4.44c-.07-.79-.14-1.59-.22-2.4,0-.11,0-.23.08-.35.06.86.12,1.71.19,2.54C10.49,34.12,10.48,34.19,10.46,34.26Zm-.54-5.59a3.11,3.11,0,0,1,0-.32l.2-.25C10,28.29,10,28.48,9.92,28.67Zm-.72,3a69.65,69.65,0,0,0-1.32,9.56C7.22,42.15,6.59,43,6,43.86v0c-.2-1.12-.37-2.35-.52-3.67A23.51,23.51,0,0,1,9,29.56Q9.11,30.6,9.2,31.63ZM5.45,46.35c0,.19.09.39.13.58l-.16.29c0-.24,0-.48-.06-.74Zm3.39-4c.23-.55.46-1.13.68-1.73l.36-.53c.06.78.1,1.53.14,2.24-.42.49-.84,1-1.25,1.42C8.79,43.3,8.81,42.83,8.84,42.35Zm2.43-12c0-.72-.08-1.44-.11-2.16.17-.58.34-1.16.53-1.73l.06,0C11.64,27.77,11.48,29.09,11.27,30.36Zm-1-13.66a87.64,87.64,0,0,0-.15,9.92L9.72,27C9.4,24.3,9,21.64,8.58,19.2A20.29,20.29,0,0,1,10.22,16.7Zm-2.4,4c.39,2.34.73,4.84,1,7.37A20.91,20.91,0,0,0,5.18,36,34.26,34.26,0,0,1,7.82,20.69Zm-4.88,29c.36-.46.88-1.13,1.52-2,0,.17,0,.33,0,.49C3.59,49.08,3,49.61,2.94,49.67Zm4.72-3.24v.18a.86.86,0,0,1-.07-.1Zm2.71,3a11.07,11.07,0,0,1-1.69-1.54c0-.71,0-1.57,0-2.55.45-.48.92-1,1.4-1.53C10.25,46.43,10.34,48.44,10.37,49.41Zm.6-8.18c-.05-.8-.1-1.65-.17-2.51l.13-.2c.09.85.18,1.66.27,2.44Z"/><path class="cls-3" d="M4.75,14.72,3.13,18.53l-.15,0V14.72a2.49,2.49,0,0,0-.61,3.49l0,0c-.29,1.24.56,1.31.56,1.31.66.4.91-.92.91-.92h0C6.45,17.33,4.75,14.72,4.75,14.72Z"/><path class="cls-3" d="M2.73,4.55,4.4,8.34l-.13.08L1.52,5.85A2.48,2.48,0,0,0,3.65,8.67h0C4.33,9.73,5,9.17,5,9.17c.74-.21,0-1.3,0-1.3l0,0C5.79,5.1,2.73,4.55,2.73,4.55Z"/><path class="cls-3" d="M21.07,3.22,17,3.81a1.31,1.31,0,0,0,0-.15l3.23-2A2.49,2.49,0,0,0,16.85,3V3c-1.2.39-.83,1.15-.83,1.15,0,.77,1.26.3,1.26.3v0C19.71,6,21.07,3.22,21.07,3.22Z"/><path class="cls-3" d="M28.83,3.5l-4.1.58a.88.88,0,0,1-.05-.15L27.91,2a2.49,2.49,0,0,0-3.3,1.29v0c-1.2.39-.83,1.15-.83,1.15,0,.78,1.26.31,1.26.31v0C27.47,6.3,28.83,3.5,28.83,3.5Z"/><path class="cls-3" d="M24.23,8l-2.12,3.55-.15,0,.5-3.74a2.49,2.49,0,0,0-1.06,3.38l0,0c-.45,1.18.38,1.37.38,1.37.6.48,1-.79,1-.79h0C25.55,10.79,24.23,8,24.23,8Z"/><path class="cls-3" d="M24.94,7.33,21,8.67l-.08-.14L23.75,6a2.5,2.5,0,0,0-3,1.89v0c-1.11.61-.6,1.29-.6,1.29.14.76,1.29.06,1.29.06v0C24.12,10.34,24.94,7.33,24.94,7.33Z"/><path class="cls-3" d="M23.7,20.37l-2.12,3.56-.14-.06.5-3.74a2.48,2.48,0,0,0-1.06,3.38l0,0c-.46,1.18.37,1.37.37,1.37.6.49,1-.79,1-.79h0C25,23.18,23.7,20.37,23.7,20.37Z"/><path class="cls-3" d="M22.42,20.59l-3.8,1.65-.09-.13,2.6-2.74a2.49,2.49,0,0,0-2.84,2.12v0c-1.05.7-.49,1.33-.49,1.33.2.75,1.3,0,1.3,0h0C21.85,23.65,22.42,20.59,22.42,20.59Z"/><path class="cls-3" d="M12.78,11,12.06,15H11.9l-.85-3.67a2.5,2.5,0,0,0,.2,3.54h0c0,1.26.83,1.14.83,1.14.74.24.69-1.1.69-1.1h0C15,13.12,12.78,11,12.78,11Z"/></g></g></svg>