<svg xmlns="http://www.w3.org/2000/svg" viewBox="0 0 53.07 44.93"><defs><style>.cls-1{fill:#444;}.cls-2{fill:#dbdbdb;}.cls-3{fill:#f7ef9a;}.cls-4{fill:#f9f9f9;}</style></defs><title>Bean_sprouts</title><g id="Layer_2" data-name="Layer 2"><g id="레이어_1" data-name="레이어 1"><path class="cls-1" d="M10.53,44.93a2.93,2.93,0,0,1-1.71-.59,6.88,6.88,0,0,1-2.11-2.48,6.51,6.51,0,0,1-5.24-3.57c-1.69-3-1.92-5.73-.69-8,2.49-4.53,10-5,10.87-5.1l1.68-.17a36.61,36.61,0,0,1,7-5.13c1-.56,1.95-1.16,2.84-1.78,1.37-3.78.95-5.56.63-5.79a10.41,10.41,0,0,1-1.91-1.75A4,4,0,0,1,19.2,7.73C19,7.07,18.41,3.44,22.74.87A5.5,5.5,0,0,1,25.51,0a3.35,3.35,0,0,1,3.14,2.06,3.88,3.88,0,0,1-.49,4.08,2.34,2.34,0,0,0-.25.82,6.49,6.49,0,0,1,1.38,2.36c.22-1.62,1-5.3,3.77-7a6.57,6.57,0,0,1,3.53-1,6.87,6.87,0,0,1,3.68,1.08A4,4,0,0,1,42,5.3a3.65,3.65,0,0,1-1.72,3.05,18.55,18.55,0,0,1-6.27,2.89c-.46,1.47-1.12,3.25-2,5.32a19.5,19.5,0,0,1-3.43,5.58c9.64-2.91,13.17-6.77,14.43-8.91-.09-.9-.25-4.35,2.13-5.94a6.81,6.81,0,0,1,3.69-1.08c2.22,0,3.84,1.15,4.12,2.93a3.88,3.88,0,0,1-.93,3,7.6,7.6,0,0,1-4.56,2.54c-1.08,2.32-3.53,5.72-9,9.91C34,28.05,27.65,28.89,22,29.34l-.3.37c-4,4.8-1.54,11.52-1.51,11.58l1.28,3.41-3.31-1.51a7.84,7.84,0,0,1-4.05-4.94,9.07,9.07,0,0,1,.9-6.19,15.73,15.73,0,0,0-1.83,1.82c-3.15,3.77-1.86,6-1,7.5.38.65,1.07,1.86.1,2.83A2.42,2.42,0,0,1,10.53,44.93ZM8.14,31.37A4.33,4.33,0,0,0,6.52,32.7,4.08,4.08,0,0,0,5.57,36a2.75,2.75,0,0,0,.46.94A15.85,15.85,0,0,1,8.14,31.37Z"/><path class="cls-2" d="M45.29,11.7s-1.26,12-33.57,15c0,0-14.58.76-8.9,10.9,0,0,1.07,3,5.89,2.84,0,0-7.69-2.46-3.43-8.62s22.83-1.23,32.31-8.43S46.87,11.7,46.87,11.7Z"/><path class="cls-3" d="M44.6,13.22s-.44-3.41,1.45-4.68,5.18-1.17,5.5.84S48.51,14,44.6,13.22Z"/><path class="cls-4" d="M25.27,6.84c7,3.47-.12,16.35-4.75,21.91s-1.75,13.08-1.75,13.08-7.33-3.35-.45-12.26S27,12.77,24.7,11.13a10.91,10.91,0,0,1-3.41-4.29Z"/><path class="cls-3" d="M20.66,7.41s-.88-3,2.84-5.25,4.69,1.71,3.55,3,0,4-3,4.23S20.66,7.41,20.66,7.41Z"/><path class="cls-4" d="M32,8.35S32,15.11,21.1,21.24,3.67,38.67,9.74,43.15c0,0,.82.63,1.45,0s-4.3-4.1.82-10.23S26.72,25.78,30.7,16,33,6.47,33,6.47Z"/><path class="cls-3" d="M30.7,10.18s.26-4.8,3.16-6.63a5.22,5.22,0,0,1,5.56,0,2,2,0,0,1,0,3.6C36.89,9.05,32.85,10.31,30.7,10.18Z"/></g></g></svg>