<svg xmlns="http://www.w3.org/2000/svg" viewBox="0 0 43.93 39.08"><defs><style>.cls-1{fill:#444;}.cls-2{fill:#c23b4a;}.cls-3{fill:#8c3445;}.cls-4{fill:#a03545;}.cls-5{fill:#f5d7cd;}.cls-6{fill:#ddbfb6;}</style></defs><title>Beef tenderloin</title><g id="Layer_2" data-name="Layer 2"><g id="Layer_1-2" data-name="Layer 1"><path class="cls-1" d="M19.47,39.08a19.08,19.08,0,0,1-7.36-1.53,23.33,23.33,0,0,1-2.17-1,2,2,0,0,1-.81-.39,1.9,1.9,0,0,1-.43-.39,5.25,5.25,0,0,1-.93-1.11C.37,26.1,0,21.63,0,21.14V15.63c0-.15,0-.29,0-.43H0C-.12,12,1.89,9.77,3.58,7.89c.38-.42.76-.84,1.12-1.27a5.68,5.68,0,0,1,.42-.44A11.51,11.51,0,0,1,6.38,5.11,22.1,22.1,0,0,1,10,3,62.7,62.7,0,0,1,17.15.21l.17,0h.17c.07,0,1.85-.15,4.26-.15,6.67,0,11,1,12.76,3a17.11,17.11,0,0,1,3.72,6.35,9.08,9.08,0,0,0,1.1,2.32,7.67,7.67,0,0,0,1.11,1.18h0c1.35.51,3.35,1.89,3.21,4.13a14.91,14.91,0,0,1-.8,8.47c-1.76,3.93-14.54,11-17.08,12.32a11.76,11.76,0,0,1-2.47.83l-.61.13-.44.08-.29,0c-.32.05-.61.08-.92.11H21a14.78,14.78,0,0,1-1.5.07Z"/><path class="cls-2" d="M41.1,19.14C23.76,38.08,10,32.93,9.55,30.51s-4.83-7-7.23-12.21,1-7.63,3.54-10.68,11.74-6,11.74-6,12.76-1,15.79,2.42A15.88,15.88,0,0,1,36.8,9.91c1.14,3.56,3,4.45,3,4.45S44.09,15.87,41.1,19.14Z"/><path class="cls-3" d="M9.72,34.61c-.24-.48-.5-1.64-.17-4.37,0,0,.51.2-2.81-5,0,0-4.36-6.3-4.42-7.33A6.93,6.93,0,0,1,1.5,15v5.9s.13,4.55,8.21,13.74Z"/><path class="cls-4" d="M42.18,17.05a.42.42,0,0,1,0-.07c-.37,1.57-2.69,3.62-2.69,3.62a49.07,49.07,0,0,1-9.65,7.85c-7.9,4.92-14.24,4.29-14.24,4.29-5.71-.35-6-2.49-6-2.49a11.51,11.51,0,0,0,0,3.8s0,.51.24.67a5.17,5.17,0,0,0,.5.27l1,.38,2.81,1.26,1.17.39a14.82,14.82,0,0,0,9.8-.53s14.79-8,16.43-11.71a13.6,13.6,0,0,0,.68-7.73"/><path class="cls-5" d="M38.07,12.53c-3.48,0-1.77,1.62-1.77,1.62,2,2.34-3.24,5.37-3.24,5.37s-5.16,2.59-7.14,0,1-4.68,5.14-6.57.63-1.58.63-1.58-12,2.46-13.45-2-7.6-5-7.6-5A16.41,16.41,0,0,0,5.86,7.58s3-.69,2.27,3.66S8.46,21.56,10,24c0,0,1.14,1.21-.64,5.54a.3.3,0,0,0,0,.16,3.37,3.37,0,0,0,2.75,2.56s6.06,2.08,14.22-1.8a.24.24,0,0,0,0-.07h0l0-.18v-.09h0c-.08-.46-.56-1.08-2.91-.06-3.33,1.45-8.77-.63-7.82-5.24,0,0,1.33-3.85-3.6-4.93,0,0-3.34.38-.31-6.38,0,0,.51-1.52,1.2-1.45,11.11,1.14,7.89,3.29,7.89,3.29-3,3.79.25,5.38.25,5.38,15.42,10.12,18.83-6.39,18.83-6.39A7.67,7.67,0,0,1,38.07,12.53Z"/><path class="cls-6" d="M26.35,30.33l-2.48,1a20.59,20.59,0,0,1-8.29,1.38c-5.3-.24-6.1-2.3-6.23-3a.51.51,0,0,1,0-.1.51.51,0,0,0,0,.1c-.27,3.52-.54,3.79-.54,3.79l0,.05.27.37c.74,1.11,1.36,1.16,1.36,1.16,7.9,4.53,14.26,1.6,14.26,1.6A3,3,0,0,1,25.92,34C27.19,33.1,26.52,30.83,26.35,30.33Z"/></g></g></svg>