<svg xmlns="http://www.w3.org/2000/svg" viewBox="0 0 62.66 62.49"><defs><style>.cls-1{fill:#444;}.cls-2{fill:#bd400a;}.cls-3{fill:#e0a36f;}.cls-4{fill:#c48657;}.cls-5{fill:#993310;}</style></defs><title>Beef_ribs</title><g id="Layer_2" data-name="Layer 2"><g id="레이어_1" data-name="레이어 1"><path class="cls-1" d="M34.85,62.49c-8.21,0-22.89-13.48-24.54-15-.26-.22-7.47-6.39-7.89-14a3.14,3.14,0,0,1-1.49-.9A4.57,4.57,0,0,1,0,29a4.73,4.73,0,0,1,4.23-4.53h.46a2.25,2.25,0,0,1,1-.37c2.78-.86,6.33-3.88,8.47-5.71l1.16-1a4.93,4.93,0,0,1,3-1.41,2,2,0,0,1,.36,0L26.46,2.15A3.29,3.29,0,0,1,29.32,0a2.94,2.94,0,0,1,1.49.43c.22.13.43.24.63.34a3.31,3.31,0,0,1,2,1.89,4.12,4.12,0,0,1-.58,3.12c-.22.42-.56,1.14-1,2.05C30,11.62,27,17.82,24.49,21a3.24,3.24,0,0,0,1.75,1.78,1.14,1.14,0,0,0,.3.1c1.13-1.72,2.34-4,2.35-4.07,2.53-4.71,5.3-10.48,5.4-11.6a2.93,2.93,0,0,1,3-3.13,4.31,4.31,0,0,1,2.37.75l.41.26c1,.65,3,1.87,1.35,5-.52,1-2.34,5.1-4.11,9.07-1.2,2.7-2.41,5.44-3.32,7.43a2.82,2.82,0,0,0,2.63,2.17l.28,0a53,53,0,0,1,3.55-6.53c1.65-3.24,4-8.43,4-9.92.08-2,1.24-3.21,3.08-3.21a8.09,8.09,0,0,1,1,.08,3.47,3.47,0,0,0,.42,0h.16a3.82,3.82,0,0,1,3.14,1.52,3.4,3.4,0,0,1,.2,3.29c-.12.3-.35.9-.65,1.72-1.49,4-4.54,12.3-6.85,16.45a3,3,0,0,0,1,1.51c1.42-2.52,2.41-4.35,2.7-5,2.46-5.17,6-13.14,6.11-14.69.08-1,.28-3.56,2.58-3.56a4.92,4.92,0,0,1,1.63.37,4.74,4.74,0,0,0,.57.16,3.88,3.88,0,0,1,2.82,1.83,4.72,4.72,0,0,1-.3,3.9c-.46,1.09-1.34,3.61-2.36,6.52C57.83,28.65,55.55,35.19,54,38.16a1,1,0,0,0,.14.28s0,0,.08.08a5.86,5.86,0,0,1,2.23,4.13A6.2,6.2,0,0,1,55,46.85c-.82,1.09-11.41,14.92-19.51,15.61q-.3,0-.63,0Z"/><path class="cls-2" d="M18.77,17.68s-.38-.86-2.46.85-6.63,6-10.33,7c0,0-2-.33-2.08,7.08s7.44,13.76,7.44,13.76S27.68,61.63,35.35,61,53.83,45.91,53.83,45.91a4.24,4.24,0,0,0-.57-6.26s-1.14-.75-.76-3l-4.45-2.74s-.48,2-2.18,1.51-3-3.28-2.18-4.34l-4.45-2.67a2.37,2.37,0,0,1-2.85,1.9c-2.46-.38-4.26-2.18-3.88-4.46s-3.69-3.48-3.69-3.48-.86,2.91-3.23,1.78S21.8,20.42,24,18.05Z"/><path class="cls-3" d="M27.81,2.81s.78-2,2.23-1.09,2.76.87,1.46,3.37-6.94,15.29-10,16.59-3-2.27-3-2.27Z"/><path class="cls-3" d="M31.27,28.83c.79-1.25,7.66-17.2,8.82-19.41s0-2.51-1.26-3.35-3-.74-3,1.15S30.22,19.5,30.22,19.5s-2.72,5.24-4,6.08,2.42,2.81,2.42,2.81S30.78,29.6,31.27,28.83Z"/><path class="cls-3" d="M41.76,23S45.88,14.93,46,12.44s2.11-1.62,3.06-1.66,2.9.56,2,2.76S43.93,33.7,41.76,33.8,38,31.52,38,31.52,36.45,31.71,41.76,23Z"/><path class="cls-3" d="M50,29.44s6-12.69,6.24-15.21.86-2.38,2.22-1.89,3.72.33,2.21,3.88S53.83,36.69,51.91,38.7a4.81,4.81,0,0,1-5.44-2.82S49.38,30.75,50,29.44Z"/><path class="cls-4" d="M4.37,25.92H7.78s3.71,3.49,0,6.18l-3.88,0Z"/><path class="cls-4" d="M13.37,42.21s4.55,1.14,4.46-3.49-4.46-3.52-4.46-3.52Z"/><path class="cls-4" d="M24.65,49c5-.28,4.83-3,4.17-6S24,41,24,41Z"/><path class="cls-4" d="M32,56.42c4.64,0,5.4-3.41,4.35-6S32,49,32,49Z"/><path class="cls-3" d="M4.37,25.92a3.23,3.23,0,0,0-2.84,3.17c-.28,3,1.42,3.08,2.37,3s2.59-1.21,2-3.7S4.37,25.92,4.37,25.92Z"/><path class="cls-5" d="M3.5,30.6a.67.67,0,0,1-.35-.06s-.23-.27-.13-1.31a1.9,1.9,0,0,1,1-1.68,4.55,4.55,0,0,1,.41,1.18,1.87,1.87,0,0,1-.13,1.46.91.91,0,0,1-.55.39Z"/><path class="cls-3" d="M13.37,35.2s-3.22,1-2.56,4,2.47,2.89,2.56,3,2.47,0,2.37-3.5S13.37,35.2,13.37,35.2Z"/><path class="cls-5" d="M13.54,40.71c-.25-.06-.9-.19-1.26-1.81a1.91,1.91,0,0,1,1.25-2.15c.32.18.68.77.71,2s-.37,1.84-.68,2Z"/><path class="cls-3" d="M24,41a4.06,4.06,0,0,0-2.46,4.83c.85,3.6,3.13,3.22,3.13,3.22s2.55.3,2.18-4S24,41,24,41Z"/><path class="cls-5" d="M24.45,47.54c-.48,0-1.11-.55-1.47-2.07a2.46,2.46,0,0,1,1.28-3c.32.13.91.78,1.07,2.64.14,1.62-.21,2.15-.33,2.27a.36.36,0,0,1-.25.13l-.14,0Z"/><path class="cls-3" d="M34.31,52c-.7,4.78-2.27,4.45-2.27,4.45s-2.56.76-2.6-3S32,49,32,49,34.78,48.74,34.31,52Z"/><path class="cls-5" d="M31.53,55c-.52,0-.59-1.12-.59-1.6,0-2.11,1-2.7,1.34-2.85a.74.74,0,0,1,.46.15,1.66,1.66,0,0,1,.09,1.07,6.75,6.75,0,0,1-1,3.17l-.23.06Z"/><path class="cls-5" d="M10.72,32.6a.5.5,0,0,1-.18-1c.09,0,9.69-3.95,11.13-7.79a.51.51,0,0,1,.64-.3.52.52,0,0,1,.3.65c-1.6,4.25-11.29,8.2-11.7,8.37A.58.58,0,0,1,10.72,32.6Z"/><path class="cls-5" d="M19.61,41a.48.48,0,0,1-.46-.32.5.5,0,0,1,.28-.65c.1,0,9.65-3.8,12.46-9.43a.51.51,0,0,1,.67-.22.5.5,0,0,1,.23.67c-3,6-12.59,9.76-13,9.92Z"/><path class="cls-5" d="M30.25,48.93A.5.5,0,0,1,30,48c.11-.06,11.34-5.76,12.84-12.07a.5.5,0,0,1,1,.23C42.23,42.91,31,48.64,30.48,48.88A.48.48,0,0,1,30.25,48.93Z"/></g></g></svg>