<svg xmlns="http://www.w3.org/2000/svg" viewBox="0 0 44.4 44.56"><defs><style>.cls-1{fill:#444;}.cls-2{fill:#16b200;}.cls-3{fill:#189e00;}.cls-4{fill:#2b3f0c;}.cls-5{fill:#15d600;}</style></defs><title>Pepper</title><g id="Layer_2" data-name="Layer 2"><g id="레이어_1" data-name="레이어 1"><path class="cls-1" d="M18.58,44.56c-6.36,0-10-3.11-11-9.52C1.92,31.09-2.22,19.4,1.31,12.35a5.59,5.59,0,0,1,4-3.22C7.19,6.49,9.91,3.62,13,3.62a14,14,0,0,1,2.38.19c0-.14,0-.28,0-.43C15.71,1.74,17,0,18.78,0a2.65,2.65,0,0,1,.74.11l.59.14A5,5,0,0,1,24.22,3.6c.4,0,.79-.07,1.17-.07a9.09,9.09,0,0,1,1.39.11,11.82,11.82,0,0,1,6.61,3.79,5.9,5.9,0,0,1,.83-.06,5.62,5.62,0,0,1,1.72.27c3.6,1.14,6.2,3.21,7.52,6a11,11,0,0,1,0,9c-1.34,3.37-8.35,20.2-15,20.2h0a6.07,6.07,0,0,1-2.27-.42c-1.51,1.37-3.68,2-6.84,2.16Z"/><path class="cls-2" d="M16.16,9.48s5-5.19,10.39-4.36,8.94,7.69,8.94,7.69l-3.85,9.93-8.52,1.71Z"/><path class="cls-3" d="M5.14,12.29S8.93,5.12,13,5.12s7.2,1.55,8.86,5.4-1.35,13.93-1.35,13.93S5.87,17.59,5.76,17.17,5.14,12.29,5.14,12.29Z"/><path class="cls-2" d="M16.88,16.14S6.18,6,2.65,13s1.82,20.37,8,21.82S19.27,23.2,19.27,23.2Z"/><path class="cls-4" d="M17.74,16.2s-1.32-.86-.86-1.79,1,.35,2.19-.66.31-7.84-1.41-8.42S17.35,1,19.11,1.55s3.78.27,4.28,5.26.2,6.94,1.37,6.9A2.79,2.79,0,0,1,27.06,16c-.12.67-.08,2.65-3.12,2.23A22.72,22.72,0,0,1,17.74,16.2Z"/><path class="cls-3" d="M24.26,20.29s5-13.2,11.23-11.22,8.93,7,6.54,13S33.31,41.34,28.42,41.31,23,35,23,35Z"/><path class="cls-5" d="M8.88,26.94S8.57,15.72,17.2,15.41s12.16,5.71,11,14.24-.41,13.09-8.94,13.4S8.05,38.06,8.88,26.94Z"/></g></g></svg>