<svg xmlns="http://www.w3.org/2000/svg" viewBox="0 0 35.02 54.75"><defs><style>.cls-1{fill:#444;}.cls-2{fill:#cb9047;}.cls-3{fill:#eaeac5;}.cls-4{fill:#5eaf37;}.cls-5{fill:#845ca6;}</style></defs><title>Bellflower</title><g id="Layer_2" data-name="Layer 2"><g id="레이어_1" data-name="레이어 1"><path class="cls-1" d="M1.24,49.15a9.59,9.59,0,0,1,3-5l-1.07.47.77-3A2.43,2.43,0,0,1,5.25,40a.86.86,0,0,1,0-.15V37.36l2.2,1.16a12.83,12.83,0,0,0,4.1.75h0c1.17,0,2.05-3.14,2.18-5.4.76-9.58,5.08-12.82,7-13.8a3.19,3.19,0,0,1,.56-.88,4,4,0,0,1,.37-.34,24.61,24.61,0,0,1-.11-7.31,9.48,9.48,0,0,1-1.31.59L19,12.57l-.61-1.15a4.35,4.35,0,0,1-.1-3.63,8.49,8.49,0,0,1-2-1l-2-1.24,1.94-1.28A7.94,7.94,0,0,1,20.1,3a4,4,0,0,1,1.53.29A4.76,4.76,0,0,1,25.48.19L26.94,0l.22,1.46c.21,1.37,0,3.88-1.65,5.3l.06.11L25,7.3a8.55,8.55,0,0,1,.25,1.44,5.11,5.11,0,0,1,.77-.23l.21-.25c.35-.59.65-1.17.66-1.19l.8-1.58,1.43,1.06a6.16,6.16,0,0,1,1.66,1.82,8.63,8.63,0,0,1,2,.43l2.2.8-1.64,1.67h0a5.72,5.72,0,0,0-.32.56,6.14,6.14,0,0,1-.55.95,7.09,7.09,0,0,1,.12,1.69l0,1.17-1.15.24a2.15,2.15,0,0,1-.45,0,4.36,4.36,0,0,1-1.26-.21,20.32,20.32,0,0,1-2.66,4.19A3.36,3.36,0,0,1,27,22l-.06.18-.25.41c1.16,4.14-1.57,9.21-2.1,10.12-1,3,.37,7.12.38,7.16L25.75,42l-2.32-.11A2.4,2.4,0,0,1,21.49,43l-2.73,0,1.31-2.09a26.91,26.91,0,0,1-2.48,2.32A14.14,14.14,0,0,1,9,47.12c-2,.28-4.46,2.57-5.16,3.36L0,54.75ZM24.92,13.08a15.64,15.64,0,0,0,0,3.59,14.09,14.09,0,0,0,1.13-1.9h-.47l0,0,0,0h-.08l0-.16A3.25,3.25,0,0,1,25,13.2Z"/><path class="cls-2" d="M25.07,22.4c1.63,3.93-1.81,9.67-1.81,9.67-1.34,3.63.33,8.29.33,8.29-1.07,0-.81-1.4-.81-1.4-.23,2.55-1.3,2.55-1.3,2.55a7.22,7.22,0,0,0,.89-2.78,12.21,12.21,0,0,0-.45-3.29c-.85,3.07-5.33,6.7-5.33,6.7a12.56,12.56,0,0,1-7.74,3.48c-3,.37-6.15,3.86-6.15,3.86,1.34-6,9.22-7.63,9.22-7.63.56-.71-2.66-.41-2.66-.41-1.45,0-2.89,2-2.89,2-.26-.93,1.18-1.86,1.18-1.86A3.85,3.85,0,0,0,5.37,42c.3-1.15,3.07-1,3.07-1-1.7-.48-1.7-1.11-1.7-1.11a13,13,0,0,0,4.7.92C14.81,41,15.22,34,15.22,34,16.11,22.77,22,21.14,22,21.14c-.06-1,1.11-1.5,1.27-1.5,0,0,3.06-.65,2.28,1.91Z"/><path class="cls-3" d="M22.78,6a.16.16,0,0,1-.06.21.15.15,0,0,1-.2-.06.15.15,0,0,1,.05-.2.16.16,0,0,1,.21,0"/><path class="cls-4" d="M29.21,13.34s-3,6.72-4.61,6.34c-.91-.22-1.27.05-1.27.05a24.31,24.31,0,0,1-.28-8.12c.67-3.82-.56-4.89-.56-4.89s1.11,2.59-2.77,4c0,0-1.38-2.56,2.11-4.56,0,0-1.89,1.22-4.78-.59,0,0,3.52-2.34,5,0l.18.33.3.19s0-4,3.11-4.41c0,0,.63,4.15-2.71,4.59,0,0,1.37,1.82.63,5.48a17.66,17.66,0,0,0,.3,7.34s1.73,1,4.55-5.85c0,0,.37-.49.76.1"/><path class="cls-1" d="M22.13,25.58a7.71,7.71,0,0,0-4.05-1.2l0-.25a7.93,7.93,0,0,1,4.21,1.24Z"/><path class="cls-1" d="M22.06,26.57C20.67,25.28,17.63,25,17.6,25l0-.26c.13,0,3.16.25,4.61,1.6Z"/><path class="cls-1" d="M21.15,27.16c-.76-1-3.95-1.47-4-1.47l0-.27c.13,0,3.32.49,4.15,1.58Z"/><path class="cls-1" d="M21.18,37.46a8.91,8.91,0,0,0-4.71-2.06l0-.27a9.07,9.07,0,0,1,4.87,2.13Z"/><path class="cls-1" d="M20.62,38.05s-1.94-2-3.92-2V35.8c2.09,0,4,2,4.1,2.07Z"/><path class="cls-1" d="M20.18,38.66A4.34,4.34,0,0,0,17,36.89v-.26a4.47,4.47,0,0,1,3.41,1.88Z"/><path class="cls-5" d="M28.25,7.75s-.39.77-.81,1.47a.78.78,0,0,0-.25.9s-.44-.43-1.55.1a1.69,1.69,0,0,1-.67.2s1,.89,1.08,1.46a.69.69,0,0,0,.54.65,1.26,1.26,0,0,0,.21,1.32,1.61,1.61,0,0,1,.23.69s0-.39.9-.67c0,0,.43.35.76.1a6.78,6.78,0,0,1,1.42.27,2.19,2.19,0,0,0,1,.16s.06-1.51-.35-2a3.33,3.33,0,0,0,.93-1.28,3.6,3.6,0,0,1,.6-.95A4.72,4.72,0,0,0,29.87,10a4.1,4.1,0,0,0-1.62-2.21"/><path class="cls-3" d="M29.33,11.69a.5.5,0,0,1-.5.5.5.5,0,0,1-.5-.5.5.5,0,0,1,.5-.5.51.51,0,0,1,.5.5"/><path class="cls-5" d="M22.1,5.12s0,.25,0,.48a.23.23,0,0,0,.05.26s-.16-.05-.38.23a.8.8,0,0,1-.14.14s.37.09.46.23a.18.18,0,0,0,.22.09.38.38,0,0,0,.23.32s.05,0,.14.14,0-.11.14-.29c0,0,.16,0,.21-.07a2.07,2.07,0,0,1,.4-.11.66.66,0,0,0,.28-.09s-.18-.4-.34-.45a1.53,1.53,0,0,1,.07-.45c.07-.25,0-.32,0-.32a1.33,1.33,0,0,0-.65.25,1.22,1.22,0,0,0-.7-.36"/></g></g></svg>