<svg xmlns="http://www.w3.org/2000/svg" viewBox="0 0 58.81 49.85"><defs><style>.cls-1{fill:#444;}.cls-2{fill:#95c763;}.cls-3{fill:#6da139;}.cls-4{fill:#2e8c47;}.cls-5{fill:#4677ff;}.cls-6{fill:#0c40b4;}.cls-7{fill:#21293b;}</style></defs><title>Blueberry</title><g id="Layer_2" data-name="Layer 2"><g id="레이어_1" data-name="레이어 1"><path class="cls-1" d="M17.82,49.85a14.25,14.25,0,0,1-11.29-23C3.22,22.89-2.24,15.05,1,10.16L1.11,10l.18-.15A18.32,18.32,0,0,1,12,6.3a17.71,17.71,0,0,1,4.15.5A14.24,14.24,0,0,1,40,6C42.43,4.52,46,3.69,50.72,3.55l4.62-.14L51.68,6.23s-2.81,2.33-3.94,8.42a23.37,23.37,0,0,1,2.88,1l.09,0,.09.05a3.54,3.54,0,0,0,1.57.32A6.06,6.06,0,0,0,55.61,15l3.2-2.05-.94,3.68a12.48,12.48,0,0,1-7.38,8.1,14.26,14.26,0,0,1-21,19A14.18,14.18,0,0,1,17.82,49.85Z"/><path class="cls-2" d="M36.81,17s4.92-3.5,13.23,0c0,0,2.68,1.58,6.38-.78,0,0-2.55,10-14.51,7.32A21.54,21.54,0,0,0,36.81,17"/><path class="cls-3" d="M37.83,11.66s-.61-6.2,12.94-6.61c0,0-3.39,2.61-4.59,9.81a8.6,8.6,0,0,1-8,7.41,27.43,27.43,0,0,0-.33-10.61"/><path class="cls-4" d="M34.12,29.72S18.44,36.89,9,27.48C9,27.48-1.3,16.36,2.23,11c0,0,10.48-8.43,22.38,2.09,0,0,10.24,11.22,9.51,16.64"/><path class="cls-2" d="M34.07,28.28S14.29,23.51,7.76,13.48"/><path class="cls-5" d="M30.59,35.58A12.77,12.77,0,1,1,17.82,22.82,12.77,12.77,0,0,1,30.59,35.58"/><path class="cls-5" d="M51.52,32.83A12.76,12.76,0,1,1,38.76,20.06,12.76,12.76,0,0,1,51.52,32.83"/><path class="cls-5" d="M41.08,14.26A12.77,12.77,0,1,1,28.31,1.5,12.77,12.77,0,0,1,41.08,14.26"/><path class="cls-6" d="M27.85,6.89a3.12,3.12,0,0,1,4.14,2s2.39,1.81,0,4.42a2.23,2.23,0,0,1-3,2.25,2.53,2.53,0,0,1-3.88-1.26,3.58,3.58,0,0,1-.43-4.69S25,6,27.85,6.89"/><path class="cls-6" d="M40.41,26.47a3.12,3.12,0,0,1,4.14,2s2.39,1.81,0,4.42a2.23,2.23,0,0,1-3,2.25,2.53,2.53,0,0,1-3.88-1.26,3.59,3.59,0,0,1-.44-4.69s.36-3.55,3.19-2.68"/><path class="cls-6" d="M15.58,33.64a3.11,3.11,0,0,1,4.13,2s2.4,1.81,0,4.42a2.22,2.22,0,0,1-3,2.25A2.54,2.54,0,0,1,12.82,41a3.6,3.6,0,0,1-.43-4.69s.35-3.56,3.19-2.69"/><path class="cls-7" d="M29.61,11.34a1.3,1.3,0,1,1-1.29-1.29,1.29,1.29,0,0,1,1.29,1.29"/><path class="cls-7" d="M42.37,30.92a1.29,1.29,0,1,1-1.29-1.29,1.29,1.29,0,0,1,1.29,1.29"/><path class="cls-7" d="M17.54,38.09a1.3,1.3,0,1,1-1.29-1.29,1.3,1.3,0,0,1,1.29,1.29"/></g></g></svg>