<svg xmlns="http://www.w3.org/2000/svg" viewBox="0 0 58.03 29.88"><defs><style>.cls-1{fill:#444;}.cls-2{fill:#a6d2ed;}.cls-3{fill:#4368ba;}.cls-4{fill:#fcfcfc;}.cls-5{fill:#0e0e0e;}</style></defs><title>Bonito</title><g id="레이어_2" data-name="레이어 2"><g id="레이어_1-2" data-name="레이어 1"><path class="cls-1" d="M22.19,29.88a2,2,0,0,1-.89-.22,9.24,9.24,0,0,1-3.81-3.24c-4.07-.36-14.95-1.9-17.34-8a2,2,0,0,1,.17-1.85A2.32,2.32,0,0,1,.81,16a2.48,2.48,0,0,1-.74-1.36A2.66,2.66,0,0,1,1.2,12.14c1.71-1.41,8.54-5,14.76-6.75,1-1.1,4-3.91,10.33-5.34l.16,0h.24A1.8,1.8,0,0,1,28,3c-.6.63-1,1.1-1.29,1.45a32.53,32.53,0,0,1,5,.52,23.36,23.36,0,0,1,5.05-1.73,2.61,2.61,0,0,1,.48,0,2.11,2.11,0,0,1,1.89,1.16A2.16,2.16,0,0,1,39.28,6a2,2,0,0,1,1.87,1.59,8.23,8.23,0,0,0,1.71.69l.09,0a42.41,42.41,0,0,1,6.2,3,24.29,24.29,0,0,0,5-5,1.9,1.9,0,0,1,1.52-.75,1.92,1.92,0,0,1,1.47.67,1.89,1.89,0,0,1,.44,1.52c-.45,3.19-.41,4.9-.24,5.4a6.91,6.91,0,0,1-.65,5.12A2.85,2.85,0,0,0,57.27,20a7.42,7.42,0,0,1,.65,4.67,2.37,2.37,0,0,1-2.35,2,2.34,2.34,0,0,1-1.52-.56,15.64,15.64,0,0,1-4.88-6.68,43.78,43.78,0,0,1-8.58,3.66,1.7,1.7,0,0,0,.61,1,1.78,1.78,0,0,1-1,3.27c-4.81,0-6.66-1.06-7.44-1.87A31,31,0,0,1,25,26.7c-.35,0-.7,0-1,0a5.34,5.34,0,0,0,0,1,1.84,1.84,0,0,1-.41,1.51,1.86,1.86,0,0,1-1.44.67"/><path class="cls-2" d="M3.78,16s4.41-5.67,7.7-3.53a1.53,1.53,0,0,0,1.63.08C14.19,12.11,26.33,8,47.3,14.67c0,0,2.58.77,2.92,2.52,0,0-7.55,4.28-10.82,4.64a.45.45,0,0,0-.42.44,3.71,3.71,0,0,0,1.39,3.08.29.29,0,0,1-.15.53c-2.14,0-5.83-.28-6.62-1.81a.43.43,0,0,0-.52-.2c-1.41.42-6.27,1.76-10,1.2a.4.4,0,0,0-.47.35A9.5,9.5,0,0,0,22.56,28a.38.38,0,0,1-.55.39c-1.11-.61-3-1.76-3.34-3a.62.62,0,0,0-.53-.41c-2.48-.19-14.36-1.38-16.6-7.12,0,0-.43-1,1.61-1l2.3,0Z"/><path class="cls-3" d="M50.22,17.19c-.34-1.75-2.92-2.52-2.92-2.52-21-6.67-33.11-2.56-34.19-2.11a1.53,1.53,0,0,1-1.63-.08C8.19,10.33,3.78,16,3.78,16l-1-.49s-2.3-.85-.63-2.22,8.57-4.93,14.59-6.57a.25.25,0,0,0,.12-.08c.36-.47,3-3.6,9.76-5.14a.3.3,0,0,1,.3.49c-1.09,1.15-4,4.15-.88,4a32.36,32.36,0,0,1,5.8.61.22.22,0,0,0,.16,0,21.36,21.36,0,0,1,5.12-1.82.64.64,0,0,1,.65,1,1.93,1.93,0,0,0-.37,1.86.25.25,0,0,0,.28.15c.3,0,.9-.15,1.45-.21a.58.58,0,0,1,.59.62c0,.38.56.93,2.69,1.59,0,0,5,2,6.54,3.29a.23.23,0,0,0,.28,0,23.6,23.6,0,0,0,6.14-5.8.43.43,0,0,1,.77.31c-.27,1.91-.59,4.89-.18,6.1a5.67,5.67,0,0,1-.59,4s-.59,1,.59,3.11a5.85,5.85,0,0,1,.47,3.69A.87.87,0,0,1,55,25c-1.63-1.37-4.52-4.28-4.79-7.82"/><path class="cls-4" d="M11.89,13.52a2.34,2.34,0,1,1-2.33-2.33,2.33,2.33,0,0,1,2.33,2.33"/><path class="cls-5" d="M10.7,13.52a1.15,1.15,0,1,1-1.14-1.15,1.15,1.15,0,0,1,1.14,1.15"/></g></g></svg>