<svg xmlns="http://www.w3.org/2000/svg" viewBox="0 0 45.28 42.09"><defs><style>.cls-1{fill:#444;}.cls-2{fill:#5eaf37;}</style></defs><title>Bracken</title><g id="Layer_2" data-name="Layer 2"><g id="레이어_1" data-name="레이어 1"><path class="cls-1" d="M2.71,42.09a2.32,2.32,0,0,1-2.07-3.4l.1-.21,9.88-9.88a3.71,3.71,0,0,1-2.94-.08L6.7,28,7,26.87a3.41,3.41,0,0,1,1.63-2.08,4.48,4.48,0,0,1-4.51-1.6L2.94,21.84,4.29,21A5.49,5.49,0,0,1,.93,18.41L0,16.75l1.83-.52.32-.07a3.13,3.13,0,0,1-.74-1.49l-.18-.81.59-.58a3.36,3.36,0,0,1,1.55-.79,4.6,4.6,0,0,1-.28-.59l-.34-.82.56-.69a2.73,2.73,0,0,1,2.47-.83c.2-1,.63-1.78,1.56-2a1.67,1.67,0,0,1,1.32.34A1.93,1.93,0,0,1,9.36,9a3,3,0,0,1,2.55.33l1,.61-.33,1.09a3.4,3.4,0,0,1-.24.6,3.15,3.15,0,0,1,1.55.77l.9.8-.6,1.06a4.47,4.47,0,0,1-.37.56H14l1.55.05-.11,1.55a5.13,5.13,0,0,1-.85,2.35h0l1.44.48-.49,1.44a4.05,4.05,0,0,1-.57,1l1.31.18-.1,1.35a91.3,91.3,0,0,1,9-7.47h0a5.83,5.83,0,0,1-5.08-2.67L19,11.6,20.8,11a7.21,7.21,0,0,1,2.57-.35,4,4,0,0,1-1.88-2.32L21.06,7l1.29-.52a3.48,3.48,0,0,1,1.22-.23,4.3,4.3,0,0,1-.48-1.31L22.8,3.36l1.54-.24a5,5,0,0,1,1.54,0,3.67,3.67,0,0,1,.39-1.76A2.51,2.51,0,0,1,27.87.14L28.38,0l.48.21c.09,0,2.15,1,1.34,4a2.89,2.89,0,0,1,1.2.46,2.29,2.29,0,0,1,1,1.72l.06.67L32,7.59c-.05.06-.11.11-.17.17a4.12,4.12,0,0,1,.65.55l1,1.08-1,1a4.58,4.58,0,0,1,.49.15l2.22.8-1.28,1.29c.4-.1.8-.19,1.21-.27A9.32,9.32,0,0,1,38,12.13a3.17,3.17,0,0,1,1.93.82,2.21,2.21,0,0,1,.68,2.2A2.25,2.25,0,0,1,38.8,16.7h0a21.74,21.74,0,0,1-3.26.34h-.26l.77,1.26a7.64,7.64,0,0,1,.59,1.18,3.91,3.91,0,0,1,1.21-1.22l.93-.58.83.7a3,3,0,0,1,.93,1.38,8.2,8.2,0,0,1,2.79,0l2,.32-.83,1.79a4.71,4.71,0,0,1-2.64,2.36,3.46,3.46,0,0,1,.07,2.05l-.45,1.46L40,27.25a7.3,7.3,0,0,1-1.77-.83,6.45,6.45,0,0,1,.22,3L38.11,31l-1.53-.4a4.87,4.87,0,0,1-3.37-2.76,6.2,6.2,0,0,1-.86,3.69l-1,1.5-1.3-1.23a7.15,7.15,0,0,1-1.92-2.86,6.39,6.39,0,0,1-.63,1.48l-1,1.68-1.37-1.39a6.55,6.55,0,0,1-1.34-1.91,3.73,3.73,0,0,1-1.1,1l-1.23.68-.76-1.18a5,5,0,0,1-.89-3.4L4,41.72l-.21.11A2.28,2.28,0,0,1,2.71,42.09ZM27.49,19.38l.38.54a6.86,6.86,0,0,1,.9-1.31C28.33,18.85,27.91,19.11,27.49,19.38Zm4.59-1.95.23.39a6.53,6.53,0,0,1,.57,1.29A5.72,5.72,0,0,1,33.71,18l.95-.94c-.41,0-.8.06-1.18.11S32.52,17.33,32.08,17.43Zm6.09-3.67Z"/><path class="cls-2" d="M38.48,15.23c-1.68.36-3.49.25-5.2.47a14.79,14.79,0,0,0-5.08,1.52,38.76,38.76,0,0,0-7.79,6l1.24.82c.7-2.65,2.63-2.38,2.63-2.38.24,1.66-1.73,2.59-1.73,2.59l2.62.39c-1.12-2.38,1.75-3.46,1.75-3.46.93,1.35-1,3.46-1,3.46l3.54-.15C27.18,21.19,31,18.58,31,18.58a5.12,5.12,0,0,1-.58,5.83l3.7-.48a4.07,4.07,0,0,1,.64-4.84c1.68,2.76.43,4.63.43,4.63L38,22.79a2.26,2.26,0,0,1,.6-3.25c1.18,1,.17,3.19.17,3.19.63-2.11,4.28-1.51,4.28-1.51-.9,2-3.92,2.05-3.92,2.05a2.31,2.31,0,0,1,1.28,2.55c-2.83-.93-2-2.16-2-2.16l-3.26,1A4.71,4.71,0,0,1,37,29.13C33.77,28.29,34.24,25,34.24,25l-3.48.42a4.87,4.87,0,0,1,.34,5.32c-2.68-2.52-1.55-5.11-1.55-5.11l-3.45.18c1.6,1.38.13,3.88.13,3.88-2-2.08-1.24-4-1.24-4l-2.5-.36c1.34,2.13-.5,3.16-.5,3.16-1.35-2.11-.3-3.36-.3-3.36L19.63,24,3.09,40.5A.83.83,0,0,1,2,39.38L13.37,28l-1.46-1.67s-2.32,1.55-3.5.9c0,0,.41-1.79,3.18-1.46l-1.88-3s-2.58,1.74-4.49-.52a6.28,6.28,0,0,1,3.91-.47l-1-2.18S4,20.8,2.24,17.68a8.2,8.2,0,0,1,5.54.86l-.52-2.69s-3.89.76-4.39-1.5c0,0,1.31-1.29,4.15.42l.08-2a2.12,2.12,0,0,1-2.62-1.43s.7-.86,2.66.3c0,0,0-2.47.47-2.56s.6,2.46.6,2.46,1.54-1.76,2.9-.9a2.9,2.9,0,0,1-2.93,2l-.06,2s3.1-2.53,4.73-1.08a4.41,4.41,0,0,1-4.73,2.1l.54,2.65s1.54-2.08,5.25-1.94c0,0-.27,3.75-4.85,2.87l.87,2.28s2.08-2,4.19-1.26a3.8,3.8,0,0,1-3.62,2.22l1.71,2.86S13,23,14.68,23.27c0,0-.2,2.78-2.11,2.58l1.5,1.68A91.44,91.44,0,0,1,26.9,16.45l-.48-2.24a4.78,4.78,0,0,1-5.1-1.85,6,6,0,0,1,4.82.57l0-3.17s-2.5.19-3.19-1.94a3.14,3.14,0,0,1,3.15.9l.76-2.16a2.27,2.27,0,0,1-2.25-2,3.4,3.4,0,0,1,2.69.87l.36-.88s-.84-2.6.64-3c0,0,1.2.52.28,2.92l-.48,1.36s2.7-.72,2.82.69a2.32,2.32,0,0,1-3,.24L27.06,9s2.74-1.23,4.3.39a3.62,3.62,0,0,1-4.3.53v2.81a6,6,0,0,1,5.38-.75s-2.86,2.87-4.94,1.91l.4,2c2.51-.62,4.94-1.49,7.49-2a7.76,7.76,0,0,1,2.4-.2,1.77,1.77,0,0,1,1.05.41c.55.52.28,1.06-.36,1.2"/></g></g></svg>