<svg xmlns="http://www.w3.org/2000/svg" viewBox="0 0 45.34 46.13"><defs><style>.cls-1{fill:#444;}.cls-2{fill:#327413;}.cls-3{fill:#6da139;}.cls-4{fill:#95c763;}</style></defs><title>Broccoli</title><g id="Layer_2" data-name="Layer 2"><g id="레이어_1" data-name="레이어 1"><path class="cls-1" d="M19.52,46.13a1.75,1.75,0,0,1-1.27-.55,1.71,1.71,0,0,1-.48-1.29C18,40.43,17.37,29.8,12.53,27a1.77,1.77,0,0,1-.84-1.85,4.23,4.23,0,0,1,4-3.63,4.28,4.28,0,0,1,1.3.2,1.28,1.28,0,0,1,.38.16,9,9,0,0,1,1.8,1.45v-.47a1.76,1.76,0,0,1,.51-1.24,4.47,4.47,0,0,1,3.22-1.32,6.93,6.93,0,0,1,3.51,1.1,1.76,1.76,0,0,1,.78,1.46v1.1l.2-.05a8.39,8.39,0,0,1,1.27-.11,3.67,3.67,0,0,1,3.21,1.45,4.16,4.16,0,0,1,.37,3.64,1.63,1.63,0,0,1-.39.64c-3.16,3.29-3.19,11.74-2.93,14.72a1.73,1.73,0,0,1-.45,1.34,1.8,1.8,0,0,1-1.3.57Z"/><path class="cls-1" d="M8.36,32.58a7.44,7.44,0,0,1-6.15-3.13A10.09,10.09,0,0,1,3.47,15.6a1.77,1.77,0,0,1,.8-.42,54.86,54.86,0,0,1,10.07-1.11c4.41,0,7.35.86,9,2.63a5.24,5.24,0,0,1,1.32,4.09c-.6,7.06-4.43,7.82-6.05,7.82a6.74,6.74,0,0,1-.68,0c-1.59,1.24-5.58,4-9.55,4"/><path class="cls-1" d="M35.34,31.61a12.36,12.36,0,0,1-4.19-.78,9,9,0,0,1-5.26-4.6,9.17,9.17,0,0,1-3.31.59A13.13,13.13,0,0,1,18.06,26a11.6,11.6,0,0,1-4.39.88,11.22,11.22,0,0,1-7.84-3.32A9.06,9.06,0,0,1,3,15.66a11.79,11.79,0,0,1,3.6-7.14C7.09,8.1,9.82,6,12.74,6l.5,0a9.59,9.59,0,0,1,9-6h.21a10.63,10.63,0,0,1,8.77,4.73h0a9.61,9.61,0,0,1,9.9,8.46,10.63,10.63,0,0,1,3.46,12.27c-.14.33-2.79,6.15-9.24,6.15Z"/><path class="cls-2" d="M25.42,28.35V22.83s-2.7-1.8-4.5,0v6.25a12.45,12.45,0,0,0-4.44-5.71c-2.51-.75-3.06,2.08-3.06,2.08,6.83,4,6.1,18.92,6.1,18.92h7.64s-1-11.5,3.42-16.09c0,0,1.16-3.33-2.92-2.66a7,7,0,0,0-2.24,2.73"/><path class="cls-3" d="M4.65,16.9s-5.75,5.17-1,11.5,13.83-1.73,13.83-1.73,4.77,1.81,5.44-6S4.65,16.9,4.65,16.9"/><path class="cls-4" d="M18,24A9.36,9.36,0,0,1,7.05,22.25c-5.25-5-.42-11.75.58-12.33,0,0,3.92-3.29,6.79-1.79a8,8,0,0,1,7.83-6.37,8.81,8.81,0,0,1,8,4.79s8.16-1.25,9.29,7.62c0,0,6,4,3.45,10.66A8.63,8.63,0,0,1,31.7,29.16a7,7,0,0,1-4.79-5.58s-2.83,3-8.91.46"/></g></g></svg>