<svg xmlns="http://www.w3.org/2000/svg" viewBox="0 0 53.55 44.9"><defs><style>.cls-1{fill:#444;}.cls-2{fill:#ffed87;}.cls-3{fill:#eacc7f;}.cls-4{fill:#e5c26a;}</style></defs><title>Butter_2</title><g id="Layer_2" data-name="Layer 2"><g id="레이어_1" data-name="레이어 1"><path class="cls-1" d="M15.08,44.9c-4.21,0-8.23-1.88-11.61-5.44C1.18,37.05.08,34.63.2,32.25a7.42,7.42,0,0,1,1.43-4L0,27.92l.21-1.39A129.53,129.53,0,0,0,1.47,13.27l0-.76L19.65,0l22,3.55.12,1.14S41.9,5.8,42,7.31c4.92,2.08,12.09,6.18,11.5,12.24-.58,5.9-5.81,8-10.53,8H42.5c-.8,0-4.32.36-5.85,7-1.9,8.2-11.32,8.84-14.17,8.84l-.83,0A14.7,14.7,0,0,1,15.08,44.9Z"/><path class="cls-2" d="M8.36,25s-12,4.81-3.8,13.45,16.75,3.4,16.75,3.4,11.87,1,13.88-7.64S42.6,26,42.6,26s8.73.52,9.43-6.63S39.11,7.8,39.11,7.8,28.38,3.53,23.62,19.58,8.36,25,8.36,25Z"/><path class="cls-3" d="M40.29,4.85l-3.78-.61L20.16,17.62l2.69.68-2.52,1.83L20.63,31l2.51.56L40.29,17.25C41.28,13.83,40.29,4.85,40.29,4.85Z"/><path class="cls-4" d="M25.61,16.16l-19.55-5L3,13.31A128.44,128.44,0,0,1,1.69,26.76l21.45,4.81L22.85,18.3Z"/><polygon class="cls-2" points="2.97 13.31 20.01 1.58 40.29 4.85 22.85 18.3 2.97 13.31"/></g></g></svg>