<svg xmlns="http://www.w3.org/2000/svg" viewBox="0 0 45.65 44.81"><defs><style>.cls-1{fill:#444;}.cls-2{fill:#97bc5c;}.cls-3{fill:#c6dc9c;}</style></defs><title>Cabbage</title><g id="Layer_2" data-name="Layer 2"><g id="레이어_1" data-name="레이어 1"><path class="cls-1" d="M26.17,34.94a9.12,9.12,0,0,1-2.32-.3c-11.25-3-17-18.16-17.23-18.81a1.58,1.58,0,0,1-.09-.31c0-.26-1.15-6.19,3.54-9.7C10.89,3.43,13.5,0,19.18,0a16.41,16.41,0,0,1,1.94.12c.49,0,1.7-.13,3.21-.13,5.54,0,9.29,1.11,11.17,3.31,1.86,1,8.74,5.16,9.9,9.81a2,2,0,0,1-.08,1.23c-.84,2.11-8.55,20.59-19.15,20.59"/><path class="cls-2" d="M8.49,15.14s-1-5.36,3.31-8.08c0,0,1.1-6,9.28-4.92,0,0,10.37-1.09,13.1,2.73,0,0,8.19,4.37,9.28,8.74,0,0-8.73,21.83-19.1,19.1S8.49,15.14,8.49,15.14"/><path class="cls-3" d="M33.59,11.39a.5.5,0,1,0-1,.07s.23,3.83-1.67,5.69a20,20,0,0,0-4.34-6.79,1.5,1.5,0,0,0,.23-.2c1.68-1.88.79-4.77.75-4.89a.5.5,0,0,0-.62-.33.51.51,0,0,0-.33.63s.75,2.48-.55,3.93c-.06.07-.14.13-.21.2a11.81,11.81,0,0,0-5.21-2.59.51.51,0,0,0-.59.39.5.5,0,0,0,.39.59,10.54,10.54,0,0,1,4.49,2.18,8.82,8.82,0,0,1-4.84.12.5.5,0,1,0-.19,1,15,15,0,0,0,2.75.28A6.42,6.42,0,0,0,25.74,11,19.37,19.37,0,0,1,30,17.76c-1.81.9-4.55.3-8.15-1.85a.49.49,0,0,0-.69.17.5.5,0,0,0,.17.68c2.7,1.61,5,2.41,6.85,2.41a5.09,5.09,0,0,0,2.18-.46A32.1,32.1,0,0,1,32,25.39a.51.51,0,0,0,.5.44h.06a.5.5,0,0,0,.44-.55,32.8,32.8,0,0,0-1.74-7.13c2.58-2.08,2.3-6.56,2.29-6.76"/><path class="cls-1" d="M30.4,44a2,2,0,0,1-1.27-.46c-.36-.29-8.69-7.29-4.41-14.1a2,2,0,0,1,1.7-.93h.22a3.49,3.49,0,0,0,.3-.49c1.07-2.15,3.7-3.69,5.11-4.39a4.86,4.86,0,0,1,4.05-2.77c1.06-2.58,3.4-7.48,6.47-9a2,2,0,0,1,.89-.21,2,2,0,0,1,1,.26,2,2,0,0,1,1,1.58c.11,1.53,1,15-2.52,20.37S31.72,43.51,31.39,43.7a2.06,2.06,0,0,1-1,.26"/><path class="cls-2" d="M43.46,13.61s1.09,14.19-2.18,19.1S30.4,42,30.4,42s-7.38-6.09-4-11.49c0,0,1.21.6,2.31-1.58s4.91-3.82,4.91-3.82.54-2.73,3.82-2.19c0,0,2.73-7.64,6-9.27"/><path class="cls-3" d="M31.22,39.52l-.39-.92s.79-.4,1.89-1.08a6.88,6.88,0,0,0,2.35-3c.73-1.87.46-4.07-.79-6.54a.51.51,0,0,1,.22-.67.5.5,0,0,1,.67.22c1.39,2.73,1.67,5.21.83,7.36-.06.15-.12.29-.19.43,2.2-1.75,4.42-4.06,5-6.58a.5.5,0,0,1,1,.22c-.93,4.16-5.72,7.65-8.5,9.36a9,9,0,0,1-2.05,1.16"/><path class="cls-1" d="M24.62,44.81C19.28,44.81,9.1,43,.88,31.12a2.09,2.09,0,0,1-.33-.82C.25,28.44-1.08,19,1.94,15.46a4.23,4.23,0,0,1,3.3-1.55,5.48,5.48,0,0,1,1.24.16,7.25,7.25,0,0,1,4.1-1.58,4.34,4.34,0,0,1,2.26.62A10.31,10.31,0,0,1,14.43,13a5.41,5.41,0,0,1,4.25,1.63,4.37,4.37,0,0,1,1,2.08,5.11,5.11,0,0,1,3.58,3.49,7.26,7.26,0,0,1,3.16,2.4c1.83,2.41,2.39,5.94,1.69,10.52,2.45,2.45,5.57,6.29,4.46,9.11-.42,1-1.5,2.29-4.31,2.32l-.09,0a24.12,24.12,0,0,1-3.59.26"/><path class="cls-2" d="M28.18,42.53c-.55,0-14.74,3.28-25.65-12.55,0,0-2.73-16.92,4.36-13.65,0,0,3.28-3.27,5.46-1.09,0,0,6-1.63,5.46,3.28,0,0,3.27-.55,3.82,3.27,0,0,6.55.55,4.37,12,0,0,9.27,8.73,2.18,8.73"/><path class="cls-3" d="M30.45,41.46a35.19,35.19,0,0,1-8.86-2.3c.35-1.56,1.32-6.82-.46-11.55a.5.5,0,0,0-.93.35c1.59,4.22.81,9.06.45,10.81a26.92,26.92,0,0,1-7.44-4.69c.75-.74,1.93-2.56,1.27-6.37a.51.51,0,0,0-.58-.41.5.5,0,0,0-.4.58c.6,3.5-.46,5-1,5.51a19,19,0,0,1-5.11-9A.5.5,0,0,0,6.77,24a.48.48,0,0,0-.36.6A19.78,19.78,0,0,0,11.67,34a2.09,2.09,0,0,1-2,.11.5.5,0,0,0-.46.88,2.9,2.9,0,0,0,1.36.34,3.42,3.42,0,0,0,1.88-.61,28,28,0,0,0,8,5,.75.75,0,0,1-.22.26,1.75,1.75,0,0,1-1.29.19.5.5,0,1,0-.15,1,4.69,4.69,0,0,0,.62,0,2.26,2.26,0,0,0,1.45-.45,2.05,2.05,0,0,0,.53-.66,36.85,36.85,0,0,0,9,2.34h0a.49.49,0,0,0,.5-.45.51.51,0,0,0-.45-.55"/><path class="cls-1" d="M30.85,41s.16,1.57-2.67,1.54l1.46.78,2-.71Z"/></g></g></svg>