<svg xmlns="http://www.w3.org/2000/svg" viewBox="0 0 52.36 38.94"><defs><style>.cls-1{fill:#444;}.cls-2{fill:#f6ead6;}.cls-3{fill:#ffc363;}.cls-4{fill:#f2dfc4;}</style></defs><title>Camembert</title><g id="Layer_2" data-name="Layer 2"><g id="레이어_1" data-name="레이어 1"><path class="cls-1" d="M27.45,38.94c-3.62,0-4.12-.44-4.41-.7-.62-.54-1.2-1.05-1-11.9a3.49,3.49,0,0,1-.44-.2A9.72,9.72,0,0,1,17.9,27,5.9,5.9,0,0,1,17,27c-1.2,1.15-4,2.42-10.24,2.67a6.17,6.17,0,0,1-2.75.7h-.4C2.39,30.31.28,29.4,0,23.37v-.16l0-.15A58.46,58.46,0,0,0,.9,14.9a11.58,11.58,0,0,1,.64-4.41h0C1.81,9.07,2.72,7.44,5,5.8,12.41.28,24.06,0,26.32,0h.51C29,0,48.08.31,51.92,11a6.66,6.66,0,0,1,.39,3.19l0,13-.07.22C48.8,38.62,29.64,38.94,27.46,38.94Z"/><path class="cls-2" d="M3.69,28.82S2.21,29,5.54,22c0,0-.89-4.15.3-6.37,0,0,.92-2.1,3.72,1,0,0,4.14-2.52,16.67-3.25,0,0-.84,5.5-1.72,7.2,0,0-1.31-.47-.87,1.47l-.08,3.08s-1.53-.05-1.69-.77c0,0-3.42,1.94-5.45.86,0,0-.47,2.64-10,2.94A4.53,4.53,0,0,1,3.69,28.82Z"/><path class="cls-3" d="M4.39,27.81a22.23,22.23,0,0,1,2.05-5.38l.15-.3-.07-.34c-.22-1.05-.63-4.14.2-5.69.07-.12.13-.17.22-.17s.71.07,1.88,1.36l.56.61.7-.43s3.9-2.25,15-3a36.52,36.52,0,0,1-1.19,5.1,1.52,1.52,0,0,0-.91.55,2.37,2.37,0,0,0-.3,2l0,1-.07-.32-1.17.66a8.82,8.82,0,0,1-3.47,1.06,2.13,2.13,0,0,1-1-.22l-1.21-.64-.23,1.27c-.13.22-1.44,2-9.12,2.2H6.05l-.24.16A3.86,3.86,0,0,1,4.39,27.81Z"/><path class="cls-2" d="M5.84,15.63S-.55,11.72,5.84,7,22.28,1.45,26.73,1.5c0,0,20.11-.22,23.78,10S28.12,21.56,28.12,21.56s-3.14.83-4.48.47c0,0-.52-1.78.87-1.47,0,0,.66-.72,1.72-7.2,0,0-10.7.36-16.67,3.25C9.56,16.61,7.17,13.62,5.84,15.63Z"/><path class="cls-4" d="M23.64,22s-.51,14.31.38,15.08S47.36,38.19,50.86,27l0-12.95s.27,4.59-11.26,6.53a59.67,59.67,0,0,1-11.43,1A10.76,10.76,0,0,1,23.64,22Z"/><path class="cls-4" d="M5.84,15.63S4.62,17.3,5.54,22c0,0-3.26,6.56-1.85,6.82,0,0-1.93.26-2.18-5.52,0,0,1.07-6.78.88-8.56a11.32,11.32,0,0,1,.68-4.11S1.91,12.71,5.84,15.63Z"/><path class="cls-3" d="M12,11s-.68-2.33.74-3.06S15.89,7.67,15.5,9,13.5,11.73,12,11Z"/><path class="cls-3" d="M31.84,11.5s2.89-.88,3.89.31S31.84,11.5,31.84,11.5Z"/><path class="cls-3" d="M32.5,5.84s-.44-.22.84-1.22.51-1.23.51-1.23.93-.83,1.6.61S32.5,5.84,32.5,5.84Z"/><path class="cls-1" d="M3,11l.1-.32A1.39,1.39,0,0,0,3,11Z"/></g></g></svg>