<svg id="그룹_228" data-name="그룹 228" xmlns="http://www.w3.org/2000/svg" width="121.571" height="125.276" viewBox="0 0 121.571 125.276">
    <path id="패스_80" data-name="패스 80" d="M1447.289,338.929l19.567-11.911a11.1,11.1,0,0,0-4.754-20.533,11.092,11.092,0,0,0-12.67-12.1,11.1,11.1,0,0,0-20.733-3.8l-10.989,20.094a36.047,36.047,0,0,0-24.766,10.706l-.094.094c-.245.242-.489.483-.729.734-.189.2-.384.405-.6.644-.177.2-.364.4-.593.659-1.8,2.02-3.947,4.7-6.388,7.961l-.078.105-.061.082c-.446.6-.9,1.2-1.361,1.838a295.711,295.711,0,0,0-24.123,39.093c-9.058,18.2-10.655,29.175-5.026,34.549,4.36,4.162,14.04,7.164,47.631-14.73q1.475-.962,2.942-1.942l.47-.232.224-.236c12.917-8.7,26.239-19.161,31.8-24.989A36.579,36.579,0,0,0,1447.289,338.929Z" transform="translate(-1350.614 -284.815)" fill="#444"/>
    <g id="그룹_227" data-name="그룹 227" transform="translate(4.697 2.433)">
        <g id="그룹_225" data-name="그룹 225" transform="translate(45.385)">
            <rect id="사각형_220" data-name="사각형 220" width="12.778" height="72.633" rx="5.043" transform="matrix(0.723, 0.691, -0.691, 0.723, 50.155, 9.086)" fill="#1f756a"/>
            <rect id="사각형_221" data-name="사각형 221" width="12.778" height="72.633" rx="5.043" transform="translate(62.523 21.507) rotate(58.672)" fill="#1f756a"/>
            <rect id="사각형_222" data-name="사각형 222" width="12.778" height="72.633" rx="5.043" transform="translate(35.206 0) rotate(28.672)" fill="#1f756a"/>
        </g>
        <path id="패스_81" data-name="패스 81" d="M1432.559,355.323c-11.4,11.941-65.9,52-76.4,41.974s26.988-66.327,38.387-78.267,29.151-13.5,39.649-3.474S1443.959,343.383,1432.559,355.323Z" transform="translate(-1354.321 -280.804)" fill="#f48c51"/>
        <g id="그룹_226" data-name="그룹 226" transform="translate(31.371 37.5)">
            <path id="패스_82" data-name="패스 82" d="M1407.895,333.4a1.886,1.886,0,0,0,3.273-1.875c-7.5-13.084-19.284-14.972-23.894-15.189-.242.239-.487.478-.725.726-.674.707-1.443,1.574-2.286,2.573a1.881,1.881,0,0,0,1.358.462C1386.2,320.055,1399.823,319.312,1407.895,333.4Z" transform="translate(-1377.698 -316.333)" fill="#d86d3f"/>
            <path id="패스_83" data-name="패스 83" d="M1401.8,339.538a1.885,1.885,0,1,0,3.271-1.875c-7.1-12.39-18.042-14.739-23.1-15.137q-1.326,1.729-2.767,3.7a1.787,1.787,0,0,0,.319.013C1380.1,326.2,1393.73,325.454,1401.8,339.538Z" transform="translate(-1379.047 -314.68)" fill="#d86d3f"/>
            <path id="패스_84" data-name="패스 84" d="M1381.828,355.679a1.885,1.885,0,0,0-1.721,3.355,26.161,26.161,0,0,1,11.236,10.574q1.585-1.032,3.158-2.088A29.839,29.839,0,0,0,1381.828,355.679Z" transform="translate(-1379.081 -305.884)" fill="#d86d3f"/>
        </g>
    </g>
</svg>
