<svg xmlns="http://www.w3.org/2000/svg" viewBox="0 0 56.75 48.69"><defs><style>.cls-1{fill:#444;}.cls-2{fill:#83cd31;}.cls-3{fill:#5d9a1b;}.cls-4{fill:#587f2b;}</style></defs><title>Celery</title><g id="Layer_2" data-name="Layer 2"><g id="레이어_1" data-name="레이어 1"><path class="cls-1" d="M30.5,48.69a3.12,3.12,0,0,1-3.22-2.35,2.25,2.25,0,0,0-2-1.68,2.92,2.92,0,0,0-1.57.56,6,6,0,0,1-3.14,1.22,2.32,2.32,0,0,1-2.38-2,5.68,5.68,0,0,1,.39-3.7c.14-.43.35-1.08.64-1.91a28,28,0,0,0-2.88,4.08c-.31,1.53-1.07,2.5-2.13,2.7a3.9,3.9,0,0,1-.58,0c-1.7,0-2.71-1.29-3.79-2.65l-.71-.89a2,2,0,0,0-1.63-1,4.06,4.06,0,0,0-1.73.52,9,9,0,0,1-3.51,1,2.15,2.15,0,0,1-2-1.1c-.64-1.23.23-2.55.6-3.09a9.33,9.33,0,0,1,1.8-2.09c3.71-4.34,12.49-10.52,26.1-18.36a61.46,61.46,0,0,1,11.78-15C41.27,2.41,44,0,46.24,0a2.82,2.82,0,0,1,1.24.27c.19.1.39.18.58.26a4,4,0,0,1,2.61,2.31c.42,1.39-.33,2.87-1,3.92l.38-.19A6.87,6.87,0,0,1,53,5.79a3.34,3.34,0,0,1,3,1.69,3.87,3.87,0,0,1,.66,2.87c-.3,1.05-1.15,1.54-2.06,2.05l-.18.1c-3.46,2-6.83,4-10,6a58.42,58.42,0,0,1-4.64,9.28c-1.54,2.22-2,4.9-2.61,8a43.53,43.53,0,0,1-2.7,9.74,5.29,5.29,0,0,1-.17.88,3.48,3.48,0,0,1-2.46,2.13,4.86,4.86,0,0,1-1.33.18Z"/><path class="cls-2" d="M53.69,11.19C18.7,31,14.47,43.4,14.47,43.4l-.85-.76-1.14-2.55L9.26,37.62l-3.88,1-2-.66c8.14-10.33,47.33-30,47.33-30s2.91-1.58,4,.31S55.19,10.34,53.69,11.19Z"/><path class="cls-3" d="M2.09,39.36A7.74,7.74,0,0,1,10.49,36c5.75,1.26,4.87,8,3.48,8.21s-2.15-1.14-3.67-3-3.16-1.83-5.18-.82S.26,42,2.09,39.36Z"/><ellipse class="cls-4" cx="3.39" cy="39.66" rx="0.28" ry="0.66"/><ellipse class="cls-4" cx="6.13" cy="38.32" rx="0.28" ry="0.66"/><ellipse class="cls-4" cx="8.91" cy="37.66" rx="0.28" ry="0.66"/><ellipse class="cls-4" cx="11.63" cy="39.36" rx="0.28" ry="0.66"/><ellipse class="cls-4" cx="13.1" cy="41.58" rx="0.28" ry="0.66"/><path class="cls-2" d="M32.52,46.15c3.88-8,2.6-14.31,6-19.23S46,9.58,48.29,6.12s.19-3.69-1.47-4.5S41.5,4.24,41.5,4.24c-14,12.38-21.66,37.58-21.66,37.58l8.18-.6Z"/><path class="cls-3" d="M32.85,46c.91-3.11-2.37-8.05-8.43-7.15s-4.74,5.38-4.74,5.38S19.82,46,22.9,44a3.63,3.63,0,0,1,5.83,2c.47,1.8,2.75,1.09,2.75,1.09S32.61,46.77,32.85,46Z"/><ellipse class="cls-4" cx="21.2" cy="42.69" rx="0.28" ry="0.66"/><ellipse class="cls-4" cx="23.94" cy="41.35" rx="0.28" ry="0.66"/><ellipse class="cls-4" cx="26.72" cy="40.69" rx="0.28" ry="0.66"/><ellipse class="cls-4" cx="29.44" cy="42.39" rx="0.28" ry="0.66"/><ellipse class="cls-4" cx="30.91" cy="44.61" rx="0.28" ry="0.66"/></g></g></svg>