<svg xmlns="http://www.w3.org/2000/svg" viewBox="0 0 60.17 35.95"><defs><style>.cls-1{fill:#444;}.cls-2{fill:#ffc363;}.cls-3{fill:#f5d7cd;}</style></defs><title>Cheddar Cheese</title><g id="Layer_2" data-name="Layer 2"><g id="레이어_1" data-name="레이어 1"><polygon class="cls-1" points="33.8 35.95 2.8 23.92 2.25 22.09 1.36 21.83 0 16.92 3.85 14.6 3.05 12.72 26.43 0 28.41 2.71 54.79 12.13 60.17 12.13 44.86 23.47 42.23 26.4 36.43 35.95 33.8 35.95"/><polygon class="cls-2" points="5.58 21.48 4.03 22.79 34.08 34.45 38.53 27.56 5.58 21.48"/><polygon class="cls-3" points="34.08 34.45 35.58 34.45 41.02 25.51 38.53 27.56 34.08 34.45"/><polygon class="cls-3" points="4.03 22.79 3.64 21.48 5.05 19.96 5.58 21.48 4.03 22.79"/><polygon class="cls-3" points="2.58 20.62 1.75 17.62 8.36 13.63 8.23 16.89 2.58 20.62"/><polygon class="cls-3" points="34.75 29.84 37.14 29.84 43.84 22.35 39.42 22.95 34.75 29.84"/><polygon class="cls-2" points="8.23 16.89 2.58 20.62 34.75 29.84 39.42 24.95 8.23 16.89"/><polygon class="cls-2" points="6.14 16.18 27.48 3.96 54.53 13.63 36.31 26.3 6.14 16.18"/><polygon class="cls-3" points="6.14 16.18 4.96 13.39 26 1.94 27.48 3.96 6.14 16.18"/><polygon class="cls-3" points="36.31 26.3 54.53 13.63 55.63 13.63 38.52 26.3 36.31 26.3"/></g></g></svg>