<svg xmlns="http://www.w3.org/2000/svg" viewBox="0 0 45.95 47.45"><defs><style>.cls-1{fill:#444;}.cls-2{fill:#c1272d;}.cls-3{fill:#e21e56;}.cls-4{fill:#ff3b6a;}.cls-5{fill:#70d65b;}.cls-6{fill:#58b741;}.cls-7{fill:none;}</style></defs><title>Cherry</title><g id="Layer_2" data-name="Layer 2"><g id="레이어_1" data-name="레이어 1"><path class="cls-1" d="M14.31,47.45c-4,0-8.66-3-11.2-7.14A12,12,0,0,1,2.56,28.2c2.66-5.22,6-6.32,8.26-6.32a7.49,7.49,0,0,1,2,.26A31.11,31.11,0,0,1,14.18,16C8.69,23.34,2.85,23.71,2.59,23.72l-.52,0-.43-.31c-.6-.43-3.4-3.09,0-13C4.37,2.6,10.35.67,12.9.2A6.53,6.53,0,0,1,14.41,0a2.48,2.48,0,0,1,.38,0l.86.07.16.33c4.73,1.1,16.46,5.48,18.27,21.85a8.42,8.42,0,0,1,2.39-.34c4.58,0,9.3,3.9,9.47,11.37.21,9-6.63,13.57-13.5,14.13l-.6,0h0A13,13,0,0,1,23.76,44a16.16,16.16,0,0,1-8.85,3.46Zm4.63-25.53a8.48,8.48,0,0,1,4.85,1.56,7.39,7.39,0,0,1,4.56-1.6,8.09,8.09,0,0,1,1.69.19c-1.19-8.91-5.82-13.46-10-15.77.66,2.82.05,6.24-1.82,10.21a28.37,28.37,0,0,0-1.4,5.68A8.91,8.91,0,0,1,18.94,21.92Z"/><path class="cls-2" d="M14.88,30.55c-2.21-6.82.92-14.69,1.06-15,2-4.19,2.38-7.52,1.23-9.94a5.8,5.8,0,0,0-3.54-3l.16-1c.2,0,19.43,2,19,25.8h-1c.28-17.1-9.9-22.48-15.12-24.11a6.53,6.53,0,0,1,1.36,1.9c1.29,2.7.88,6.32-1.22,10.78,0,.05-3.11,7.84-1,14.31Z"/><path class="cls-3" d="M32.32,24.71s-6.26-4.92-10.9,4.17,5.12,17.53,10.9,17.05,12.31-4.26,12.12-12.6S37.62,21.21,32.32,24.71Z"/><path class="cls-4" d="M14.79,24.71s-6.25-4.92-10.9,4.17S9,46.41,14.79,45.93s12.31-4.26,12.13-12.6S20.09,21.21,14.79,24.71Z"/><path class="cls-5" d="M14.05,13.53c-5.44,8.4-11.53,8.69-11.53,8.69s-2.67-1.93.58-11.34S14.67,1.51,14.67,1.51,17.55,8.11,14.05,13.53Z"/><path class="cls-6" d="M15.06,2.61c-1.7,2.1-8.63,10.89-9.28,15.88a1,1,0,0,1-1,.87H4.66a1,1,0,0,1-.86-1.12c.69-5.34,7.31-13.91,9.45-16.57a4.36,4.36,0,0,1,1.42-.15S15.14,2.5,15.06,2.61Z"/><path class="cls-7" d="M22.79,26.53a5.55,5.55,0,0,0-3.85-1.61,5.9,5.9,0,0,0-3.05.89l-2.36,1.41.1-2.75a30,30,0,0,1,1.82-9.08l0-.1c1.9-4,2.31-7.22,1.23-9.49a5,5,0,0,0-1.06-1.48l1.5-2.5c4.52,1.41,15.14,6.42,16.1,22.44l.17,2.8L31,25.65a5.39,5.39,0,0,0-2.66-.77,4.89,4.89,0,0,0-3.47,1.62l-1,1Z"/><path class="cls-7" d="M16.71,3.25a6.53,6.53,0,0,1,1.36,1.9c1.29,2.7.88,6.32-1.22,10.78a29,29,0,0,0-1.73,8.59,7,7,0,0,1,8.7.92,6.2,6.2,0,0,1,7.94-1.09C30.88,9.62,21.61,4.78,16.71,3.25Z"/></g></g></svg>