<svg xmlns="http://www.w3.org/2000/svg" viewBox="0 0 49.19 29.96"><defs><style>.cls-1{fill:#444;}.cls-2{fill:#e0a54b;}</style></defs><title>Chicken wings</title><g id="Layer_2" data-name="Layer 2"><g id="Layer_1-2" data-name="Layer 1"><path class="cls-1" d="M26,30a14.35,14.35,0,0,1-1.59-.08l-.33,0-.3-.17c-.34-.19-3.14-1.85-4.07-4.39a8.58,8.58,0,0,1-3.24-5.77v-.08l0-9c-.55,1.1-2.19,3-7.11,5.13l-.23.08a14.49,14.49,0,0,1-5,.34,3.33,3.33,0,0,1-3.09.4A2,2,0,0,1,0,14.71v-.06c0-.44.12-2.74,3.83-4.64A37,37,0,0,0,15.15,1.45,5.11,5.11,0,0,1,19.23,0c2.46.21,4.88,2,7.2,5.38a23.26,23.26,0,0,1,3.35,6.88A8.17,8.17,0,0,1,31.44,11c1.78-3.27,5-8.09,8.08-7.41.69.13,2.3.82,2.6,4.27,1.58.66,3.79,1.84,4.57,3.51.82.68,2.46,2.29,2.5,4.32a4.23,4.23,0,0,1-1.92,3.52A14.88,14.88,0,0,1,41.94,22C40.28,23.73,33.82,30,26,30Zm1.12-13.34c.07-4.68-3.32-9.25-3.35-9.3C22,4.82,20.35,3.41,19,3.29a2,2,0,0,0-1.4.39A40.36,40.36,0,0,1,5.63,12.77a12,12,0,0,0,2.58-.29c4.19-1.85,5.17-3.24,5.33-3.5l0-.18.19-.28c.45-.66,1.8-2.66,3.71-2.24s2.22,2.58,2.29,3l0,.13,0,9.84A5.34,5.34,0,0,0,22,22.9l.56.37.16.66c.25,1.1,1.66,2.22,2.41,2.72,7.79.61,14.67-7.2,14.74-7.28l.47-.53.7,0h0s1.51-.19,4.26-2.26c.41-.31.61-.59.61-.84,0-.61-.91-1.58-1.55-2l-.52-.37-.14-.63c-.21-.5-2-1.56-3.72-2.16l-1.09-.38V9a6.14,6.14,0,0,0-.26-2.08c-1,.6-3,3.27-4.52,6.06l-.26.49-.51.24c-1.42.65-2.73,2.92-3.08,3.66l-1.89,3.61-2.81-1.25Z"/><path class="cls-2" d="M45.31,12.33C44.91,10.49,40.52,9,40.52,9c0-3.64-1.33-3.8-1.33-3.8-2.51-.63-6.54,7-6.54,7-1.73.78-3,2.87-3.59,3.89-.14.84-.56,3-1.31,3h0A.14.14,0,0,1,27.6,19a.13.13,0,0,1,.15-.12h0c.34,0,.76-1.29,1-2.59-.11-5.18-3.67-9.9-3.67-9.9-5.13-7.45-8.7-3.81-8.7-3.81a38.9,38.9,0,0,1-11.8,8.94c-3,1.53-2.94,3.14-2.94,3.14.06,1,2.19-.36,2.19-.36A12.73,12.73,0,0,0,8.73,14c6-2.63,6.39-4.61,6.39-4.61,2.43-3.6,3,.12,3,.12l0,9.8a7.07,7.07,0,0,0,3,4.94c.51,2.27,3.47,4,3.47,4,8.89,1,16.52-7.8,16.52-7.8s1.84-.08,5.18-2.59S45.31,12.33,45.31,12.33Z"/></g></g></svg>