<svg xmlns="http://www.w3.org/2000/svg" viewBox="0 0 47.93 34.98"><defs><style>.cls-1{fill:#444;}.cls-2{fill:#fc852a;}.cls-3{fill:#fec198;}.cls-4{fill:#ca541c;}</style></defs><title>Chicken_feet</title><g id="Layer_2" data-name="Layer 2"><g id="레이어_1" data-name="레이어 1"><path class="cls-1" d="M43.31,35a16.29,16.29,0,0,1-4.48-.86l-2.21-.67c-3-.93-5.11-1.6-7.59-1.6a14.15,14.15,0,0,0-1.71.11,14.89,14.89,0,0,1-1.53.08A24.34,24.34,0,0,1,9.32,24.67l-.05-.06,0-.06a26.36,26.36,0,0,0-3.13-3.62S3,19.12,2.22,16.64a1.67,1.67,0,0,1,.26-1.5A1.72,1.72,0,0,1,5.16,15a3,3,0,0,0,1,.7c-2-2.27-4.65-5.5-5.19-7.8C.08,6.92-.2,4.77.14,1.52A1.68,1.68,0,0,1,1.82,0,1.65,1.65,0,0,1,3.4,1.1a9.51,9.51,0,0,0,1,2.15A4.76,4.76,0,0,1,5.86,3,3.87,3.87,0,0,1,9.57,5.7a1.8,1.8,0,0,1,.62-.11A1.91,1.91,0,0,1,11,5.8a2.31,2.31,0,0,0,1,.29,1.48,1.48,0,0,0,.67-.17,4.73,4.73,0,0,1,2.73-1c1.26,0,3,.58,4.22,3.26a5.76,5.76,0,0,1,3.25,3.54A5.77,5.77,0,0,1,27.17,15l.61.28a4.42,4.42,0,0,1-.29-1.9,12.2,12.2,0,0,0-1-1,1.89,1.89,0,0,1-.68-2A1.93,1.93,0,0,1,27.36,9a7.43,7.43,0,0,1,1-.06A4.77,4.77,0,0,1,32,10.36a6,6,0,0,1,3.39,1.87c1.51,1.66,2.12,4.14,1.82,7.37,0,.17-.3,2.22,1.08,2.84a15.31,15.31,0,0,0,2.2.64c2.86.7,7.65,1.87,7.48,6.42C47.79,33.13,46.24,35,43.31,35Z"/><path class="cls-2" d="M31.17,11.77s5.23,0,4.51,7.69c0,0-.52,3.24,2,4.35s9,1.19,8.79,5.63-2.3,4.7-7.17,3.25S31.41,30,27.14,30.47s-11.69-1.54-16.73-6.83c0,0-2.67-3.52-3.58-4l.79-.55L8,17.75s.36-1.11,1.32-.85c0,0-7-7-7-9.8L4.29,5.83l.13-1s4-2.05,4.22,4c0,0,2.95.07,2.43,3.78,0,0,3.33-.51,3.2,3.71,0,0,3.27-1.15,4,2.69a6,6,0,0,1,3.13-.19s-7.61-6.21-7.74-9.15l.57-1.31-.7-1.25s3.07-2.63,5,2.24a4.19,4.19,0,0,1,3.08,3.71s3.45-.06,4.35,3c0,0,3.65,1.41,4.54,2.94,0,0-.19-2.88.84-2.94,0,0-2.88-.07-2.31-3.27l1.43-.06Z"/><path class="cls-3" d="M13.62,9.71C13.16,9.61,10.83,9,9.9,7.6a.34.34,0,0,1,.44-.47,3.22,3.22,0,0,0,3.23,0s1.26,0,1.22,1.17a1.45,1.45,0,0,1-1,1.36A.29.29,0,0,1,13.62,9.71Z"/><path class="cls-3" d="M4.42,4.86c-1,.19-2-2-2.43-3.24a.19.19,0,0,0-.36.06c-.54,5.19.74,5.42.74,5.42a1.43,1.43,0,0,0,2.05-.63C5.2,5.06,4.42,4.86,4.42,4.86Z"/><path class="cls-3" d="M6.83,19.63s1.25.35,1.68-.34S8,17.75,8,17.75A6,6,0,0,1,4,16a.22.22,0,0,0-.38.2C4.14,17.86,6.37,19.38,6.83,19.63Z"/><path class="cls-3" d="M31.17,11.77A1.29,1.29,0,0,1,30.54,13a1.67,1.67,0,0,1-1.48-.17,15.17,15.17,0,0,0-1.71-1.66.42.42,0,0,1,.21-.75A3.55,3.55,0,0,1,31.17,11.77Z"/><path class="cls-4" d="M20.8,23.64c-1.11-2-3.53-1.87-4.12-1.79a3.12,3.12,0,0,0-1.2-2.23,3.63,3.63,0,0,0-2.63-.46c-1.44-3-3.52-2.39-3.54-2.38a.11.11,0,0,0-.08.15.12.12,0,0,0,.15.09c.08,0,1.9-.56,3.24,2.25-.31.29-1.62,1.59-1.24,2.88a.14.14,0,0,0,.12.09h0a.12.12,0,0,0,.08-.15c-.36-1.22,1.09-2.55,1.22-2.67a3.45,3.45,0,0,1,2.49.42A2.86,2.86,0,0,1,16.44,22c-.13.25-1.28,2.41-1,3.7a.12.12,0,0,0,.12.1h0a.11.11,0,0,0,.09-.15c-.25-1.17.83-3.24,1-3.51.39-.06,2.88-.35,3.95,1.71-.15.44-1.08,3.14-.19,4.2a.13.13,0,0,0,.1,0,.11.11,0,0,0,.08,0,.12.12,0,0,0,0-.17c-.81-1,.1-3.61.23-4a4.47,4.47,0,0,1,5.31.85.13.13,0,0,0,.18,0,.14.14,0,0,0,0-.18A4.7,4.7,0,0,0,20.8,23.64Z"/><path class="cls-4" d="M13.36,18.21h0a.12.12,0,0,0,.08-.15c-.13-.54.63-1.38.94-1.66a.12.12,0,0,0,0-.17.13.13,0,0,0-.18,0c-.05,0-1.21,1.11-1,1.9A.14.14,0,0,0,13.36,18.21Z"/><path class="cls-4" d="M11.21,12.73a.12.12,0,1,0-.11-.22c-.1.05-2.62,1.25-2.42,2.48a.14.14,0,0,0,.13.11h0a.12.12,0,0,0,.1-.14C8.79,14.08,10.53,13.06,11.21,12.73Z"/><path class="cls-4" d="M8.77,8.81a.14.14,0,0,0-.15-.1c-.14,0-3.29.68-3.1,2a.12.12,0,0,0,.13.11h0a.12.12,0,0,0,.11-.14c-.13-1,2.05-1.6,2.9-1.77A.13.13,0,0,0,8.77,8.81Z"/><path class="cls-4" d="M18.41,18.9a.13.13,0,0,0-.17.06c0,.06-.69,1.53-.15,2.12a.12.12,0,0,0,.09,0,.16.16,0,0,0,.09,0,.14.14,0,0,0,0-.18c-.36-.39,0-1.46.19-1.84A.13.13,0,0,0,18.41,18.9Z"/><path class="cls-4" d="M15.78,11.82h0a.14.14,0,0,0,.13-.12c0-.77,2-1.83,2.71-2.18a.13.13,0,0,0,.06-.17.13.13,0,0,0-.17-.06c-.29.14-2.8,1.34-2.85,2.39A.14.14,0,0,0,15.78,11.82Z"/><path class="cls-4" d="M19.6,15.64h0a.12.12,0,0,0,.12-.11c.17-1.16,1.94-2.29,2-2.3a.13.13,0,0,0,0-.18.13.13,0,0,0-.17,0c-.08.05-1.89,1.21-2.07,2.48A.13.13,0,0,0,19.6,15.64Z"/><path class="cls-4" d="M24.55,19.13h0a.13.13,0,0,0,.13-.12,3.55,3.55,0,0,1,1.36-2.78.12.12,0,0,0,0-.17.13.13,0,0,0-.17,0,3.72,3.72,0,0,0-1.48,3A.13.13,0,0,0,24.55,19.13Z"/><path class="cls-4" d="M34.41,16.92c-.69-1.23-3.24-.93-3.34-.92a.13.13,0,1,0,0,.25s2.48-.29,3.1.79a.11.11,0,0,0,.11.06h.06A.12.12,0,0,0,34.41,16.92Z"/></g></g></svg>