<svg xmlns="http://www.w3.org/2000/svg" viewBox="0 0 48.85 40.29"><defs><style>.cls-1{fill:#444;}.cls-2{fill:#f7e5e1;}.cls-3{fill:#fddad4;}.cls-4{fill:#fcd1c8;}</style></defs><title>Chicken_breast</title><g id="Layer_2" data-name="Layer 2"><g id="레이어_1" data-name="레이어 1"><path class="cls-1" d="M48.19,17.92a9,9,0,0,0-.37-.93c-.09-3.9-2.49-7-6.77-8.77l-1.19-.51-.24-.11-.83-.38C34.48,5.17,33.5,3.69,33,2.9l-.07-.1-.22-.34-.24-.35-.2-.25L32,1.6l-.27-.26-.31-.24L31.05.86,30.71.69,30.29.52,29.82.38,29.35.26,29.06.21l-.1,0-.1,0L28.28.09,27.66,0Q27.35,0,27,0C18.11,0,3.55,14.85,3.4,15c-5,5.19-3,18.82-2.81,20.33C.82,37,2.71,37.87,3.08,38l.07,0,.07,0A36.39,36.39,0,0,0,14,39.8a35.41,35.41,0,0,0,4.08-.24,7.45,7.45,0,0,0,3.14.73h0A6,6,0,0,0,24,39.65a14.21,14.21,0,0,1,4-1.33c6.14-.59,12.5-5.83,17.14-9.66l.72-.59C50,24.61,48.87,19.82,48.19,17.92Z"/><path class="cls-2" d="M2.08,35.12S-.2,20.85,4.48,16.05,21.09,1,27.53,1.52s.69,3,12.95,8.09,3.28,19.64-8.78,24.56-19.52,5.06-28,2.47C3.66,36.64,2.2,36,2.08,35.12Z"/><path class="cls-3" d="M46.33,17.38s3.12,5.74-1.49,9.53-11.07,9.34-17.06,9.92a15.33,15.33,0,0,0-4.48,1.48,5.39,5.39,0,0,1-4.9-.3l4.14-9.33,19.83-11.3Z"/><path class="cls-4" d="M38,8.49S32.2,8.34,26.46,14,7.57,34.49,3.66,36.64c8.52,2.59,16,2.46,28-2.47s21-19.51,8.78-24.56c-.94-.39-1.77-.76-2.51-1.12"/><path class="cls-4" d="M2.08,35.12c.94-2.9,14.84-16,23.43-21.72S31.8,3.85,31.8,3.85c-.88-1.3-1.07-2-4.27-2.33C21.09,1,9.15,11.25,4.48,16.05S2.08,35.12,2.08,35.12Z"/></g></g></svg>