<svg xmlns="http://www.w3.org/2000/svg" viewBox="0 0 35.13 36.93"><defs><style>.cls-1{fill:#444;}.cls-2{fill:#fff;}.cls-3{fill:#e0a54b;}</style></defs><title>Asset 34</title><g id="Layer_2" data-name="Layer 2"><g id="Layer_1-2" data-name="Layer 1"><path class="cls-1" d="M8.25,36.93a3.14,3.14,0,0,1-2.91-2.16,4.12,4.12,0,0,1-1.65.38A3.54,3.54,0,0,1,.48,32.91a3.35,3.35,0,0,1,0-3.38c.83-1.38,2.63-1.84,3.75-2l1-1.68c-1.33-1.6-2.68-4.57,0-8.76h0a10.39,10.39,0,0,0,1.06-5.56c-.4-4.29,4.54-8.42,5.41-9.11C12.15,1.9,14.53,0,20.07,0a37.15,37.15,0,0,1,9.84,1.53c.11,0,3.57.93,4.8,4,.86,2.15.41,4.67-1.35,7.51l-.07.09c-.48.66-4.83,6.41-9.52,6.41h-.16c-2.65,0-5.56,3.32-6.58,4.77a6.66,6.66,0,0,1-5.13,4.13l-.64,2c.85,2.06.93,3.63.26,4.8a3,3,0,0,1-1.81,1.37A3.78,3.78,0,0,1,8.25,36.93Z"/><path class="cls-2" d="M7,25.63,5.09,29s-4.85.12-3.27,3.28,4.51,0,4.51,0,.11,4.28,2.92,2.93c0,0,2.43-.24.41-4.64L10.77,27Z"/><path class="cls-3" d="M8.08,26.39S2.7,23.7,6.38,17.9a11.64,11.64,0,0,0,1.29-6.5c-.35-3.74,4.92-7.84,4.92-7.84S16.45-.65,29.51,3c0,0,7.2,1.82,2.57,9.25,0,0-4.33,5.92-8.43,5.8s-8,5.56-8,5.56S14,28.73,8.08,26.39"/></g></g></svg>