<svg xmlns="http://www.w3.org/2000/svg" viewBox="0 0 48.62 41.96"><defs><style>.cls-1{fill:#444;}.cls-2{fill:#c95f17;}.cls-3{fill:#fc852a;}.cls-4{fill:#ed701b;}</style></defs><title>Chicken_stick</title><g id="Layer_2" data-name="Layer 2"><g id="레이어_1" data-name="레이어 1"><path class="cls-1" d="M30.69,42c-5.3,0-7.37-3.77-9.19-7.1-1.63-3-3.17-5.78-6.83-6.72A24.06,24.06,0,0,1,11.28,27c-.39.19-.73.38-1.06.58a12,12,0,0,1-5.81,2.06,4.27,4.27,0,0,1-4.1-2.84L.25,26.7a4.78,4.78,0,0,1,0-3c.09-.42,1-4.22,3.46-5.63a5.42,5.42,0,0,1,1.11-3.49,2.9,2.9,0,0,1,2.46-1.31,8.64,8.64,0,0,1,3.84,1.45l.23.13c.53-.4,1.09-.84,1.68-1.34a15.89,15.89,0,0,0,3.63-4.62C17.73,7,18.84,5.11,21.49,4c.24-1.69,1.34-3.69,5.15-4h0s.26,0,.68,0c4.44,0,7.46,2,8.09,5.31.73,3.88,1.92,7.55,9.09,13.15,6.52,5.08,3.9,12.76,1.61,16.1a8.2,8.2,0,0,1-4.35,2.86c-1.66,2.37-4.56,3.74-9.26,4.41a12.85,12.85,0,0,1-1.81.13Z"/><path class="cls-2" d="M1.61,26.06C2,27,3,30.17,9.45,26.32S21.63,23.9,29.35,23s8-18.52-2-18.39S19.8,9.74,14,14.63s-6.72,3.78-9,4.5S1.7,24.06,1.7,24.06A4.22,4.22,0,0,0,1.61,26.06Z"/><path class="cls-3" d="M5.78,19.52s-1.46-1.64.27-4.1,5.69,2.75,9.64,2.34,6.07,1.72,10.58-.35,16.81.47,16.21,8.58.22,12.87-10.19,14.35S24.4,29.08,15,26.69,5.78,19.52,5.78,19.52Z"/><path class="cls-4" d="M26.76,1.52S33.07,1,33.93,5.58s2.52,8.5,9.65,14.06,1.29,14.08,1.29,14.08-4.14,5.72-11.51-.34-6.83-6.18-5.38-12S16.87,2.3,26.76,1.52Z"/></g></g></svg>