<svg xmlns="http://www.w3.org/2000/svg" viewBox="0 0 40.29 36.58"><defs><style>.cls-1{fill:#444;}.cls-2{fill:#4b8431;}.cls-3{fill:#991824;}.cls-4{fill:#5eaf37;}.cls-5{fill:#d70f18;}</style></defs><title>Chili</title><g id="Layer_2" data-name="Layer 2"><g id="레이어_1" data-name="레이어 1"><path class="cls-1" d="M6.82,36.58a2,2,0,0,1-2-1,1.93,1.93,0,0,1,.22-2l.06-.08.07-.07a47.88,47.88,0,0,0,4.81-6,19.76,19.76,0,0,1-8.56-3.15C1.08,24-.27,23,.05,21.67a1.93,1.93,0,0,1,1.63-1.43h.2A61.65,61.65,0,0,0,15.62,18c.68-1.3,1.07-2.12,1.07-2.13s1.31-2.63,2.08-4a4.57,4.57,0,0,1,1.93-2,3.09,3.09,0,0,1,1.36-.59c.45-.08.87-.15,1.65-1.51A4.61,4.61,0,0,0,23.61,3l-.06-.1-.05-.11A2.12,2.12,0,0,1,23.56.91,1.76,1.76,0,0,1,24.88,0l.34,0a2.25,2.25,0,0,1,2.13,1.48,9.18,9.18,0,0,1,.58,6.13,15.51,15.51,0,0,0-.63,3.24,10,10,0,0,1,1,2.16,2.29,2.29,0,0,1,.09,1.22v.11l0,0v0a3.38,3.38,0,0,1,1.08.19,3,3,0,0,1,1.37.54,1.28,1.28,0,0,0,.91.32,5.52,5.52,0,0,0,1.33-.22,4.63,4.63,0,0,0,3.34-3.49l0-.11.05-.11a2,2,0,0,1,1.81-1.33,1.81,1.81,0,0,1,1.1.38,2.24,2.24,0,0,1,.7,2.77,9.15,9.15,0,0,1-3.92,4.75,15,15,0,0,0-2.73,1.84,9.65,9.65,0,0,1-.84,2.22,2.28,2.28,0,0,1-.79.93l-.08.07c-.79,1.11-3.16,2.44-9.79,3.71-6.66,8.55-13.86,9.59-14.17,9.63A5,5,0,0,1,6.82,36.58Z"/><path class="cls-2" d="M24.88,2.17s-.25-.6.21-.66a.74.74,0,0,1,.85.5s1.34,2.78.57,5.14c0,0-1.09,3.72-.57,4.36,0,0,1.18,1.87.93,2.57,0,0-.06-1.17-1-1.18a1.66,1.66,0,0,0-1.57-1.13s-1-1-1.92-.38c0,0-.55-.34-.81-.16s.08-.34.77-.45,1.57-.29,2.69-2.24a6.08,6.08,0,0,0-.13-6.37"/><path class="cls-3" d="M26.77,14.32s1.36,1.34-5.21,10.54S7.55,35,7.55,35c-2,.34-1.26-.61-1.26-.61,6.54-6.74,11.76-17.85,11.76-17.85s1.27-2.56,2-3.93,1.5-1.46,1.5-1.46a1,1,0,0,1,.82.17s.73-.63,1.94.39a1.55,1.55,0,0,1,1.58,1.13s1.49.31.85,1.47"/><path class="cls-4" d="M37.85,12.09s.24-.61.61-.33a.73.73,0,0,1,.24,1s-1,2.91-3.22,4c0,0-3.41,1.87-3.49,2.68,0,0-.49,2.17-1.16,2.48,0,0,.78-.87.12-1.56a1.66,1.66,0,0,0-.32-1.9s0-1.43-1.09-1.63c0,0-.14-.63-.45-.69s.29-.17.86.23,1.31.91,3.49.32a6.09,6.09,0,0,0,4.41-4.59"/><path class="cls-5" d="M30.59,22s0,1.91-11.13,3.77S2.38,23.05,2.38,23.05c-1.64-1.15-.47-1.33-.47-1.33,9.39-.14,20.94-4.3,20.94-4.3s2.71-.91,4.21-1.34,2.1,0,2.1,0a.94.94,0,0,1,.45.69s1,.07,1.1,1.65A1.55,1.55,0,0,1,31,20.36s.83,1.28-.44,1.65"/></g></g></svg>