<svg xmlns="http://www.w3.org/2000/svg" viewBox="0 0 56.52 51.03"><defs><style>.cls-1{fill:#444;}.cls-2{fill:#65c250;}.cls-3{fill:#a8df94;}.cls-4{fill:#4d9b2d;}.cls-5{fill:#ade754;}.cls-6{fill:#93d55a;}.cls-7{fill:#67b744;}.cls-8{fill:#77be48;}.cls-9{fill:#63b13c;}.cls-10{fill:#e9f7d5;}</style></defs><title>Cabbage</title><g id="Layer_2" data-name="Layer 2"><g id="레이어_1" data-name="레이어 1"><path class="cls-1" d="M31.25,51a27.23,27.23,0,0,1-3.41-.24c-.31,0-.62,0-.93,0a3,3,0,0,1-.76.08h0A7.75,7.75,0,0,1,25,50.9c-6.05,0-8.55-6.39-9.22-8.53a5.13,5.13,0,0,1-2.21-5.2,5.76,5.76,0,0,0-.4-2.82,8.15,8.15,0,0,1-.32-4.9c.11-.47.17-.78.21-1A3.24,3.24,0,0,1,12,26.64a16.46,16.46,0,0,0-1.42-3.19,4.11,4.11,0,0,1-1.17.2,2.05,2.05,0,0,1-2.1-1.75,5.4,5.4,0,0,0-.92-.22c-.93-.18-2.48-.48-2.88-2-.06-.25-.06-.25-.75-.54a11.3,11.3,0,0,1-1.15-.54A2.94,2.94,0,0,1,.36,15.05a3.81,3.81,0,0,0,.09-.6,3.05,3.05,0,0,1-.1-3A2.77,2.77,0,0,1,2.74,10a3.17,3.17,0,0,0,1.32-.51l.15-.09.16-.06a8.67,8.67,0,0,1,2.34-.53,2.52,2.52,0,0,1,.57-.56c0-.12.07-.32.09-.46a3.25,3.25,0,0,1,3.55-3.12l.59,0c.31,0,.57,0,.79,0a2.73,2.73,0,0,0,1.3-.25,4.28,4.28,0,0,1,1.75-.37,8,8,0,0,1,1.54.18,10.27,10.27,0,0,0,1.82.16h0c.3-.28.61-.55.92-.8A2.28,2.28,0,0,1,20,2.11C20.6,1.23,21.69.73,23.38.57a3,3,0,0,0,.53-.09A1.66,1.66,0,0,1,25.08,0c.55,0,.87.2,1.84.78L27,.85h0a2,2,0,0,1,1-.26,2.14,2.14,0,0,1,.85.19h.43c4,0,6.61.66,8,2,.22.22.44.43.64.65a11.93,11.93,0,0,1,1.56-.11,9,9,0,0,1,2.24.27,3.06,3.06,0,0,0,.76.1,2.82,2.82,0,0,0,1.1-.26A3.52,3.52,0,0,1,45,3.14,2.71,2.71,0,0,1,47.1,4.29a4.39,4.39,0,0,0,1.13.88c1.07.67,2.69,1.68,2.4,4.29A2.92,2.92,0,0,0,51,11.21a3.42,3.42,0,0,1,.35,2.42c2,.42,3.43,1.08,4.09,3a1.58,1.58,0,0,0,.44.75,2.05,2.05,0,0,1,.3,2.72,2.57,2.57,0,0,1-1.24,1.21c-.57,1.62-2.45,1.74-3.36,1.81H51.4a2,2,0,0,1-1.51.66h0a4.4,4.4,0,0,1-1.65-.41,3.23,3.23,0,0,1-2,.7,3.64,3.64,0,0,1-.57,0c-.17.27-.36.53-.56.8-1.09,1.41-1.68,4.57-1.48,6.46.24,2.24-1.12,13.76-3.9,16-.28.23-.54.46-.79.7C37.44,49.48,35.76,51,31.25,51Z"/><path class="cls-2" d="M35.64,5.59a10.51,10.51,0,0,1,5.78-.52c2.8.71,3.27-1.41,4.5.15s3.51,1.51,3.22,4.07,1.42,2.89.48,4.55-3.94,5.63-4.13,5.92-6.58-.94-6.58-.94Z"/><path class="cls-3" d="M39.18,14.22a.36.36,0,0,0,.2.06.38.38,0,0,0,.32-.18,19.72,19.72,0,0,1,2.44-3A4.59,4.59,0,0,0,45,12.27,3.77,3.77,0,0,0,46.36,12a.37.37,0,0,0,.22-.48.37.37,0,0,0-.48-.22,3.52,3.52,0,0,1-3.41-.72A5.31,5.31,0,0,1,46.49,9a.37.37,0,0,0,.08-.74,6.1,6.1,0,0,0-4.38,1.86,2.47,2.47,0,0,1-.52-1.64,2.34,2.34,0,0,1,1.1-1.63.37.37,0,0,0-.43-.61,3,3,0,0,0-1.42,2.17,3.31,3.31,0,0,0,.71,2.22,19.58,19.58,0,0,0-2.56,3.12A.38.38,0,0,0,39.18,14.22Z"/><path class="cls-4" d="M7.79,12S7,10.19,8.23,9.38,8,5.88,11.39,6.16s2.32-1,5.21-.42,4.12-.67,4.78,2.6-3.55,9.43-3.55,9.43l-9-2.13Z"/><path class="cls-5" d="M25.13,2.52S33.75,1.43,36.3,3.89s2.09,3.55,3.46,3.84,2.42,11,2.37,11.09-3.22,5.44-3.22,5.44L26,20.47,24.89,5.59Z"/><path class="cls-6" d="M15.45,15.48s-.82-6.19,5.62-11c0,0,.31-.16.12-.73s0-1.42,2.33-1.63.71-1.16,2.62,0,1.33-1.19,3.11,1,2.55-.16,3,2.42S33.6,5.6,34,8.6s2.65,1.64,1.73,5.38,1.59.8.69,5.71l1,19.35-3.79,9.19-1.42.33a12,12,0,0,1-7,.42c-4-.9-6.54-9.61-6.54-9.61Z"/><path class="cls-3" d="M35.72,30.26a.5.5,0,0,0-.5-.5.46.46,0,0,0-.5.49c0,4.5-6.38,6.59-8.19,7.1-.34-2.45-.67-5.14-.93-7.9,1.77-.2,9.07-1.39,9.8-7.2a.5.5,0,0,0-1-.13c-.61,4.95-7.16,6.11-8.9,6.34-.18-1.93-.32-3.89-.41-5.81,1.22-.1,5.05-.61,7.06-3A5.7,5.7,0,0,0,33.3,14.9a.5.5,0,0,0-.57-.42.51.51,0,0,0-.42.57A4.76,4.76,0,0,1,31.38,19c-1.72,2.09-5.19,2.57-6.33,2.68C25,19.86,25,18.12,25,16.46c1.2-.32,5.63-1.82,6.55-6.51a.5.5,0,0,0-.4-.58.48.48,0,0,0-.58.39C29.8,13.64,26.36,15,25,15.42c.18-4.29.8-7.9,2.16-10A.38.38,0,1,0,26.55,5c-1.44,2.19-2.1,6-2.29,10.38C23,15,19.69,13.23,20.18,7.5A.5.5,0,0,0,19.72,7a.5.5,0,0,0-.54.46c-.58,6.81,3.93,8.69,5.05,9,0,1.68,0,3.43.05,5.21a6.39,6.39,0,0,1-6-4.07.49.49,0,0,0-.64-.3.5.5,0,0,0-.3.64c1.51,4.18,5.68,4.68,7,4.73.09,1.95.23,3.93.41,5.88-1,.11-3.78.29-5.47-1a3.55,3.55,0,0,1-1.36-2.67.5.5,0,1,0-1,.08,4.54,4.54,0,0,0,1.74,3.38,7.89,7.89,0,0,0,4.73,1.32c.61,0,1.12-.05,1.44-.08.28,2.79.61,5.5.95,8a6.12,6.12,0,0,1-4.27-.82A6.25,6.25,0,0,1,19.13,32a.51.51,0,0,0-.56-.44.52.52,0,0,0-.44.56c.31,2.5,1.25,4.32,2.81,5.39a6.54,6.54,0,0,0,3.72,1.08,8.46,8.46,0,0,0,1.25-.1c.8,5.58,1.6,9.71,1.69,10.19A.37.37,0,0,0,28,49H28a.38.38,0,0,0,.3-.44c0-.13-.85-4.38-1.67-10.22C28.46,37.88,35.66,35.64,35.72,30.26Z"/><path class="cls-3" d="M10.39,20.09s2.59,4.14,3.1,6.19,1.67.25.85,3.54,1.17,4.45.76,7.54a3.51,3.51,0,0,0,2,4s2.15,8.94,8.94,8c0,0,1.48.1.5-.76s-1.51-2.93-2.4-3.28-1.26-3.85-2.87-4.83.94-1.68-.6-4.58,4.39-3.57,1.39-10.58-8.31-6.47-8.31-6.47Z"/><path class="cls-7" d="M22.52,27c0-9.91-9.95-15.49-9.95-15.49S8.69,9.29,4.9,10.71a4.69,4.69,0,0,1-2.12.76,1.41,1.41,0,0,0-1,2.27c.67,1.08-.85,2.78.57,3.54S4.65,18,5,19.3s3.6.44,3.83,2.31,4.51-1.87,5.43.37,2-.09,3.72,2,1.68-3.7,4.23,3.22C22.2,27.23,22.52,27.81,22.52,27Z"/><path class="cls-3" d="M14.85,14.14a18.61,18.61,0,0,0-2.49.5c-.67-.85-3.31-3.88-6.76-3.33a.36.36,0,0,0-.31.43.38.38,0,0,0,.43.31c2.75-.44,5,1.85,5.85,2.81a14.44,14.44,0,0,0-3.1,1.35A4.32,4.32,0,0,0,4,14.9a.38.38,0,0,0-.23.48.37.37,0,0,0,.48.23,3.49,3.49,0,0,1,3.56,1,6.25,6.25,0,0,0-1.69,1.75.37.37,0,0,0,.13.51.35.35,0,0,0,.19.06.36.36,0,0,0,.32-.18,5.67,5.67,0,0,1,1.55-1.58c.4.52,1.19,1.75.52,2.77a.37.37,0,0,0,.11.52.31.31,0,0,0,.2.07.4.4,0,0,0,.32-.17c.92-1.4,0-2.94-.51-3.59a13.51,13.51,0,0,1,3.08-1.28c.46.75,1.25,2.32,1,3.41a1.37,1.37,0,0,1-.71.92.38.38,0,0,0,.18.71.37.37,0,0,0,.18-.05,2.1,2.1,0,0,0,1.08-1.41c.31-1.34-.52-3-1-3.79,1.21-.3,2.11-.41,2.14-.42a.37.37,0,1,0-.09-.74Z"/><path class="cls-8" d="M45.12,21a37.67,37.67,0,0,0-6.38-.47l.08-.4a16.89,16.89,0,0,0-2.42.63,3.86,3.86,0,0,0-2.61,1.36,2.18,2.18,0,0,0-.9,1.68,26.18,26.18,0,0,1-.36,4.76c-.49,1.4-.8,2.45.08,3.24,1.75,1.56.28.38.81,5s-1.09,2.51-.62,5.07-.52,1.47-1.23,4.55A3.5,3.5,0,0,1,28,49.3c7.63,1,8.67-1.31,10.8-3.06s3.6-12.51,3.36-14.73.43-5.78,1.78-7.54A4.49,4.49,0,0,0,45.12,21Z"/><path class="cls-9" d="M32.89,25.83a6.91,6.91,0,0,1,4.69-7.49C41,17.3,43.69,13.93,48,14.6s5.4.85,6,2.55,1.42,1.23.86,2.28-1,.19-1.33,1.37-2.8.66-3,1.09-.33.71-1.8.09-1.19,1.52-4,.24-2.13.81-5.07-1c0,0-.95-.6-1.37.35a3.68,3.68,0,0,1-3.13,2C33.7,23.55,32.89,25.83,32.89,25.83Z"/><path class="cls-3" d="M51.34,18.36a3.27,3.27,0,0,0-2.84-.11,14.77,14.77,0,0,0-2.72-1.44,5.08,5.08,0,0,1,3.64-.4.38.38,0,0,0,.46-.26.37.37,0,0,0-.26-.46,5.94,5.94,0,0,0-4.76.77,12.92,12.92,0,0,0-2-.53.38.38,0,0,0-.43.32.37.37,0,0,0,.32.42,11.69,11.69,0,0,1,1.33.33,3.39,3.39,0,0,0-1.44,3.24.39.39,0,0,0,.37.31h.07a.38.38,0,0,0,.3-.44c-.27-1.51,1.08-2.49,1.59-2.81a15.46,15.46,0,0,1,2.85,1.4,1.83,1.83,0,0,0-.47,2,.36.36,0,0,0,.35.26.25.25,0,0,0,.12,0,.38.38,0,0,0,.24-.47,1.12,1.12,0,0,1,.4-1.32A11.29,11.29,0,0,1,50,20.44a.4.4,0,0,0,.27.11.37.37,0,0,0,.27-.12.38.38,0,0,0,0-.53,14.16,14.16,0,0,0-1.26-1.1,2.19,2.19,0,0,1,1.64.17.37.37,0,1,0,.42-.61Z"/><path class="cls-3" d="M42.08,25.46a.38.38,0,0,0-.4.34c-.06.8-.81,1.09-1.3,1.19,0-.88,0-1.79-.05-2.75a.39.39,0,0,0-.39-.36.38.38,0,0,0-.36.39c0,1,.05,1.91.06,2.81-1.39.1-4.13,0-4.37-1.32a.39.39,0,0,0-.44-.3.38.38,0,0,0-.3.44c.31,1.68,2.63,2,4.17,2,.38,0,.7,0,.94,0,0,2.21-.12,4.18-.29,5.93-.82.05-3.05,0-3.34-1.43a.38.38,0,0,0-.44-.29.38.38,0,0,0-.3.44c.36,1.79,2.47,2,3.62,2h.37a36.72,36.72,0,0,1-1.09,5.78,2.57,2.57,0,0,1-1.71-.38A1.33,1.33,0,0,1,36,38.84a.4.4,0,0,0-.38-.37.38.38,0,0,0-.37.38A2.08,2.08,0,0,0,36,40.49a3.07,3.07,0,0,0,1.89.56h.07c-1.55,5-3.63,6.23-3.67,6.25a.37.37,0,0,0-.14.51.39.39,0,0,0,.33.19.31.31,0,0,0,.18,0c.16-.08,2.48-1.47,4.13-6.94a2.29,2.29,0,0,0,2.13-2.1.38.38,0,0,0-.31-.43.37.37,0,0,0-.43.31A1.54,1.54,0,0,1,39,40.21a37.82,37.82,0,0,0,1-5.74,1.79,1.79,0,0,0,1-.42,2.09,2.09,0,0,0,.62-1.64.38.38,0,0,0-.38-.38h0a.38.38,0,0,0-.37.38,1.39,1.39,0,0,1-.37,1.08.86.86,0,0,1-.42.2c.16-1.76.26-3.73.27-5.93a2.23,2.23,0,0,0,2-1.9A.37.37,0,0,0,42.08,25.46Z"/><path class="cls-10" d="M24.28,47.65c-.06,0-4.62-1.63-5.84-12.53,1.2-.39,3-1.47,2.9-3.43a.38.38,0,0,0-.4-.35.38.38,0,0,0-.35.39c.09,1.54-1.42,2.31-2.23,2.62-.12-1.31-.2-2.75-.22-4.32,1-.13,3.63-.64,3.69-2.53a.38.38,0,0,0-.75,0c0,1.24-2.09,1.67-2.94,1.8,0-1,0-2,.07-3a.38.38,0,0,0-.36-.39.37.37,0,0,0-.39.36c-.05,1.08-.07,2.1-.07,3.07a1.72,1.72,0,0,1-1.6-1.78.37.37,0,0,0-.37-.38.38.38,0,0,0-.38.37A2.49,2.49,0,0,0,17.39,30c0,1.66.1,3.17.23,4.55a1.16,1.16,0,0,1-.73-.09,2.65,2.65,0,0,1-1.11-1.85.37.37,0,0,0-.45-.28.36.36,0,0,0-.28.45,3.26,3.26,0,0,0,1.52,2.36,1.89,1.89,0,0,0,.83.18l.3,0a33.35,33.35,0,0,0,.85,4.72,2,2,0,0,1-1.31.14.82.82,0,0,1-.48-.55.38.38,0,0,0-.48-.23.37.37,0,0,0-.23.48,1.55,1.55,0,0,0,.93,1,1.72,1.72,0,0,0,.64.11,3.06,3.06,0,0,0,1.13-.23c1.89,6.45,5.11,7.53,5.31,7.59a.22.22,0,0,0,.11,0,.37.37,0,0,0,.11-.73Z"/></g></g></svg>