<svg xmlns="http://www.w3.org/2000/svg" viewBox="0 0 56.97 39.14"><defs><style>.cls-1{fill:#444;}.cls-2{fill:#e3cba5;}.cls-3{fill:#d6bd9e;}.cls-4{fill:#f1e6d4;}.cls-5{fill:#d2ad83;}.cls-6{fill:#b0a089;}</style></defs><title>Clams</title><g id="레이어_2" data-name="레이어 2"><g id="레이어_1-2" data-name="레이어 1"><path class="cls-1" d="M24.52,39.14A50.24,50.24,0,0,1,4,34.7C0,32.89-.3,29.8.16,28.11,0,26.58.33,23.88,2.74,20.53a5.27,5.27,0,0,1-1.49-6.22C1.51,11.5,3.57,6.44,13.6,1.75A17.28,17.28,0,0,1,20.88,0a15,15,0,0,1,11,5.14,16.09,16.09,0,0,1,4.5-.62A20.14,20.14,0,0,1,43.6,5.88c.34.16,7.34,3.41,10.61,7.84l.1.08,0,0c1.91,1.8,2.79,3.67,2.62,5.57a6.33,6.33,0,0,1-2.74,4.41A47.12,47.12,0,0,1,38,33.07a5.39,5.39,0,0,1-1.34,3.39,6.46,6.46,0,0,1-4.31,2,42.11,42.11,0,0,1-7.84.72Z"/><path class="cls-2" d="M2.72,14.74S.91,17.61,4.8,20.27c0,0,11.51,8.51,26.44,8.32,0,0,5.87.95,5.08-6s-13.19-6.83-13.19-6.83L12.8,14.92Z"/><path class="cls-3" d="M35.23,25.81c3.29-4.65-1.54-15.54-1.54-15.54S27.32-3,14.24,3.11,2.78,15.69,2.78,15.69s.65,4.92,16.29,9.36,16.16.76,16.16.76"/><path class="cls-2" d="M24.38,9a21.52,21.52,0,0,1-8.77-4.09,1.29,1.29,0,1,1,1.62-2c.06,0,6,4.79,11.38,3.49a1.29,1.29,0,1,1,.61,2.51A12,12,0,0,1,24.38,9"/><path class="cls-2" d="M23,15.2C16.27,14,10.94,9.1,10.63,8.8a1.29,1.29,0,0,1,1.76-1.88c.1.09,9.83,9,18.68,4.81a1.29,1.29,0,1,1,1.11,2.32A14.74,14.74,0,0,1,23,15.2"/><path class="cls-2" d="M22.62,23.36A31.64,31.64,0,0,1,5.43,13.68a1.29,1.29,0,0,1,2-1.67c.1.12,10.25,11.71,24.92,8.65a1.29,1.29,0,1,1,.52,2.52,27,27,0,0,1-10.21.18"/><path class="cls-4" d="M22.72,31.08s.54,3.36,5.22,2.78c0,0,14.26-1.22,25.34-11.23,0,0,5-3.16-.17-7.87S38.7,18.35,38.7,18.35l-8.29,6.21Z"/><path class="cls-5" d="M54.43,17.91C53.84,12.24,43,7.26,43,7.26S29.46,1.51,23.69,14.74s-.3,17-.3,17S27.13,35,41.81,28s12.62-10.1,12.62-10.1"/><path class="cls-4" d="M35.2,12.48a21.85,21.85,0,0,1-9.28,2.73A1.3,1.3,0,0,1,24.58,14a1.29,1.29,0,0,1,1.23-1.34c.08,0,7.68-.38,10.85-4.9a1.29,1.29,0,1,1,2.11,1.48,11.79,11.79,0,0,1-3.57,3.27"/><path class="cls-4" d="M38.27,18c-5.86,3.56-13.11,3.39-13.54,3.38a1.29,1.29,0,0,1,.08-2.58c.14,0,13.36.29,17.2-8.73a1.29,1.29,0,0,1,2.37,1A14.89,14.89,0,0,1,38.27,18"/><path class="cls-4" d="M43.35,24.4a31.67,31.67,0,0,1-19.29,4.1A1.29,1.29,0,1,1,24.42,26c.15,0,15.44,2,24.42-10a1.29,1.29,0,1,1,2.06,1.55,26.7,26.7,0,0,1-7.55,6.88"/><path class="cls-4" d="M1.69,28.27s-1.29,3.15,3,5.08c0,0,12.81,6.37,27.49,3.58,0,0,5.94-.09,3.94-6.81S22,25.69,22,25.69l-10.31,1Z"/><path class="cls-6" d="M35.62,33.49c2.44-5.15-4.22-15-4.22-15s-8.59-12-20.4-3.65S1.91,29.2,1.91,29.2s1.5,4.72,17.68,6.37,16-2.08,16-2.08"/><path class="cls-4" d="M22,18.86a21.56,21.56,0,0,1-9.34-2.49,1.29,1.29,0,1,1,1.24-2.26c.07,0,6.76,3.67,11.82,1.45a1.3,1.3,0,0,1,1.7.67,1.29,1.29,0,0,1-.67,1.69,11.71,11.71,0,0,1-4.75.94"/><path class="cls-4" d="M21.76,25.19c-6.86,0-13-3.91-13.33-4.15a1.29,1.29,0,0,1-.37-1.78,1.3,1.3,0,0,1,1.78-.38C10,19,21.1,26.07,29.08,20.36a1.29,1.29,0,0,1,1.5,2.09,14.84,14.84,0,0,1-8.82,2.74"/><path class="cls-4" d="M22.78,33.28A31.68,31.68,0,0,1,4.17,26.76a1.29,1.29,0,1,1,1.63-2c.12.1,12.15,9.74,26.05,4.16a1.29,1.29,0,0,1,1,2.4,26.76,26.76,0,0,1-10,2"/></g></g></svg>