<svg xmlns="http://www.w3.org/2000/svg" viewBox="0 0 56.83 21.79"><defs><style>.cls-1{fill:#444;}.cls-2{fill:#87714b;}.cls-3{fill:#a18c61;}.cls-4{fill:#fff;}</style></defs><title>Cod</title><g id="레이어_2" data-name="레이어 2"><g id="레이어_1-2" data-name="레이어 1"><path class="cls-1" d="M5.09,18.94a2.78,2.78,0,0,0,1-1.79,3.31,3.31,0,0,0,0-1h.09a9.47,9.47,0,0,0,4.28,1.18l1.22.3c1,.95,3.92,3.56,6.36,3.88l2.39.32-.77-2.29s-.14-.4-.34-.92l1.33,0A38.83,38.83,0,0,0,27.41,18c.89,1.11,2.65,2.85,5,2.85a5.1,5.1,0,0,0,2-.44,9.64,9.64,0,0,0,4.83-4.83c1.88-.21,3.68-.38,5-.5,1.12-.1,1.86-.17,2.23-.22a2.56,2.56,0,0,1,.51-.05h.19l.15.08c.11.06,2.76,1.55,4.78,2.53a3.41,3.41,0,0,0,1.5.4h0a2.09,2.09,0,0,0,1.68-.79,3.11,3.11,0,0,0,.44-2.47c-.28-2.34-.2-4.94.19-5.48s1.16-1.64.61-2.69a1.65,1.65,0,0,0-1.49-.89,1.94,1.94,0,0,0-.36,0c-3.06.12-6.24,2.07-7.6,2.94H47a21.51,21.51,0,0,1-4-.62c-.15-.2-.27-.32-.3-.36S39.46,4.05,36,3.45a6.58,6.58,0,0,0-1-.08A5.84,5.84,0,0,0,31,5c-.54-.15-1-.29-1.32-.41a17.9,17.9,0,0,0-1.83-.55,4.85,4.85,0,0,0-1.29-2.88A4.17,4.17,0,0,0,23.5,0h-.24c-3.57.15-5.17,2-5.86,3.24C11.86,3.49,6.63,6.52,5.85,7,1.89,8.75.14,10.17,0,11.73a2,2,0,0,0,.47,1.5,5.36,5.36,0,0,0,1,1.19,3.16,3.16,0,0,0,1.21,2.12c.26.2.13.65.12.67s-.91,1.51.13,2.12a2,2,0,0,0,2.16-.39"/><path class="cls-2" d="M12.45,16.23s3.41,3.44,5.8,3.76c0,0-1.3-3.82-2.34-4.17a11.88,11.88,0,0,0-3.15-.26Z"/><path class="cls-2" d="M28.08,16.37s2.44,4.15,5.82,2.69a8.31,8.31,0,0,0,4.37-4.84l.09-1.2-9.94.71Z"/><path class="cls-2" d="M18.41,4.71s.67-3,4.91-3.21,2.91,5.61,2.91,5.61l-5.5-1Z"/><path class="cls-2" d="M31.08,7.26s1.63-2.85,4.65-2.33,5.92,3.63,5.92,3.63a2.2,2.2,0,0,1,.62,1.76c-.13,1-9.67-1.47-9.67-1.47Z"/><path class="cls-3" d="M55,7.06c-2.82,0-6,2.07-7.15,2.81S38,8.21,38,8.21,31.65,6.91,29.17,6s-5.74-1.44-11.4-1.29S6.54,8.32,6.54,8.32c-6.52,2.89-4.85,4-4.85,4,1.37,2.52,5,2.29,5,2.29S8.42,6.4,46.36,13.39c1.44-.22,1.81.22,1.81.22s2.71,1.52,4.71,2.49,1.48-1.26,1.48-1.26-.63-5.08.44-6.6S55,7.06,55,7.06"/><path class="cls-2" d="M3.14,12.84s-.69,1.63.46,2.52a2.17,2.17,0,0,1,.61,2.37s1.2-.87-.35-2.91A1.24,1.24,0,0,1,3.79,13a.36.36,0,0,0-.12-.61c-.46-.24-.53.45-.53.45"/><path class="cls-4" d="M7.25,9.76a.82.82,0,0,1-.82.82.82.82,0,0,1-.81-.82A.81.81,0,0,1,6.43,9a.82.82,0,0,1,.82.81"/><path d="M6.79,9.76a.36.36,0,1,1-.36-.36.36.36,0,0,1,.36.36"/><path class="cls-4" d="M46.36,13.39C8.42,6.4,6.65,14.61,6.65,14.61a7.89,7.89,0,0,0,4,1.19,36.87,36.87,0,0,0,20-.11c3.78-1.45,14.18-2.08,15.63-2.3"/></g></g></svg>