<svg xmlns="http://www.w3.org/2000/svg" viewBox="0 0 56.74 21.84"><defs><style>.cls-1{fill:#444;}.cls-2{fill:#ff6700;}.cls-3{fill:#ef7422;}.cls-4{fill:#ff8736;}.cls-5{fill:#ffa466;}.cls-6{fill:#ffbb8d;}</style></defs><title>Conch</title><g id="레이어_2" data-name="레이어 2"><g id="레이어_1-2" data-name="레이어 1"><path class="cls-1" d="M56.46,12.88l-.12-.27C52.47,3.7,46,.94,41.21.2A15.78,15.78,0,0,0,38.56,0a14.35,14.35,0,0,0-8,2.19,1.73,1.73,0,0,0-.28.19l-.78-.19a4.12,4.12,0,0,0-1.09-.13A14,14,0,0,0,22.77,3.7l-.18.15a9.68,9.68,0,0,0-1.17-.07,4.05,4.05,0,0,0-3.07,1,3.7,3.7,0,0,0-.94-.12A8.82,8.82,0,0,0,15.23,5l-1.31.34-.17.09a2.32,2.32,0,0,0-.69.65,3.1,3.1,0,0,0-.45,0,5.13,5.13,0,0,0-3.1,1.23l-.11.09-.1.12a2.11,2.11,0,0,0-.17.22A2.18,2.18,0,0,0,8.07,8s0-.52-2.72.61a10.59,10.59,0,0,1-1.86.29A3.63,3.63,0,0,0,.31,10.52,2,2,0,0,0,.1,12.19a2,2,0,0,0,1.47,1.25l.6.17a11.44,11.44,0,0,0,2.89.61l.29,0a4.15,4.15,0,0,0,3.23,1.06,6.7,6.7,0,0,0,.82-.08,2.45,2.45,0,0,0,1.2.71,8.33,8.33,0,0,0,2.26.39h0a2.89,2.89,0,0,0,1.06-.18c1.44,1.47,4,1.65,5.1,1.65a9.53,9.53,0,0,0,1,0,3.05,3.05,0,0,0,.88-.18,7.57,7.57,0,0,0,5.41,1.82,13.35,13.35,0,0,0,2.5-.23l.12,0,.1,0a4.34,4.34,0,0,1,1.21-.26h.17a9.08,9.08,0,0,0,4.4,2.58,17,17,0,0,0,3.52.46A8.68,8.68,0,0,0,43.74,20c1.52-1.15,6.15-4.63,9.43-4.63a3.74,3.74,0,0,1,.84.08,2.59,2.59,0,0,0,1,.22,1.72,1.72,0,0,0,1.48-.8,1.93,1.93,0,0,0,0-2M46.71,9.69a9.48,9.48,0,0,0-1.21.07,5.14,5.14,0,0,1-.79.05,12.75,12.75,0,0,1-3.85-.66,9.35,9.35,0,0,1-4.1-3.24c-.28-.33-.54-.64-.8-.91a7.43,7.43,0,0,1,1.83-.19,24,24,0,0,1,5.15.71,14.82,14.82,0,0,1,7.7,4.89,10.78,10.78,0,0,0-3.93-.72"/><path class="cls-2" d="M7,13.23a1.65,1.65,0,0,1,.15-1,2.64,2.64,0,0,0,0-2.54,16,16,0,0,1-3.59.74c-1.59.08-2,.89-2,.89s-.38.5.35.69a14.5,14.5,0,0,0,3.26.72A3.82,3.82,0,0,1,7,13.23"/><path class="cls-2" d="M9.74,9.28a4.14,4.14,0,0,1,0,4.3s-1.57.43-2.09,0,0-1.22,0-1.22a3.05,3.05,0,0,0,0-2.91s.8.26,1.09-.07,1-.1,1-.1"/><path class="cls-3" d="M10.44,8.46a1.06,1.06,0,0,0,0,1.24c.42.7.55,1.8,0,3.93,0,0-.25.57.63.82s2.29.57,2.57.08a6.76,6.76,0,0,0,.83-4,13.53,13.53,0,0,0-.78-2.67s-1.14-1-3.19.6"/><path class="cls-4" d="M14.48,6.77s-.66.37-.26,1.37a6.56,6.56,0,0,1,.37,5.09c-.81,2.41,2.74,3.24,5.37,3,0,0,1,0,.56-.69S20,11,20,11s.26-2.42-.54-3.33-.63-2.07-3.85-1.24Z"/><path class="cls-5" d="M19.22,6.45S21,6.77,20.76,13s7.74,4.61,7.74,4.61a6.19,6.19,0,0,1,1.7-.35,11.47,11.47,0,0,1-2.48-5.44C27.5,9.08,25.33,6,22.89,5.41c0,0-3.13-.6-3.67.77,0,0-.1.23,0,.27"/><path class="cls-6" d="M33.71,4.38c1.26-.86,3.39-1.74,9.57-.32s9.62,6.69,10.47,8,.3,1.24.3,1.24-.68.26-3.11-1.11a9.15,9.15,0,0,0-5.19-1,12.17,12.17,0,0,1-5.36-.66c-3.22-1.05-4.72-4-6-5s-3.58-1.54-5.29-2-5.11,1-5.51,1.3-.1.34-.1.34,3.85.75,4.7,5.94,4.52,8.21,6.89,8.69,5,1,7.73-1.11S50.76,13.06,54.48,14c0,0,1.13.54.63-.48S51.35,3.3,41,1.67c0,0-5.6-1-9.63,1.82,0,0-.5.15,1,.63s1.34.26,1.34.26"/></g></g></svg>