<svg xmlns="http://www.w3.org/2000/svg" viewBox="0 0 59.28 41.6"><defs><style>.cls-1{fill:#444;}.cls-2{fill:#f9d3ba;}.cls-3{fill:#ee3928;}.cls-4{fill:#fff;}</style></defs><title>Crab</title><g id="레이어_2" data-name="레이어 2"><g id="레이어_1-2" data-name="레이어 1"><path class="cls-1" d="M55.37,16.78l-2.61-1.55.08.68a3.69,3.69,0,0,0-.69-.06,4.37,4.37,0,0,0-2.46.81,29.06,29.06,0,0,0-3.12,2.55,4.31,4.31,0,0,0,0-.93,4.53,4.53,0,0,0,.94-2.65l0-.26A7.06,7.06,0,0,0,46.12,11l0-.07-.27-.54C45.37,8,44.69,5.76,43.37,5l-.17-.28A9.1,9.1,0,0,0,35.39.57h-.24a3.55,3.55,0,0,0-.44,0,1.78,1.78,0,0,0-2,1.25.36.36,0,0,0,0,.1,1.62,1.62,0,0,0-.88-.26c-.39,0-1.65.16-1.69,2.17v.27a8.94,8.94,0,0,0,2.54,7.21,2.59,2.59,0,0,0-2.46,2.31,1.84,1.84,0,0,0-1.33.74,1.77,1.77,0,0,0-3.25.68c-.09.31-.12.43-.7.44a.25.25,0,0,0,0-.07,2.36,2.36,0,0,0,.13-.8A2.6,2.6,0,0,0,22.44,12H22.2A8.16,8.16,0,0,0,25,8.05a7.64,7.64,0,0,0-.55-6.23A2.84,2.84,0,0,0,22.81.19,9.86,9.86,0,0,0,20.92,0,7.14,7.14,0,0,0,16,1.75a6.61,6.61,0,0,0-2.16,3.1,4.43,4.43,0,0,0-2.25,2.46A6,6,0,0,0,11,11.55l-.13.19a6.8,6.8,0,0,0-1.16,3.83A3.83,3.83,0,0,0,7.66,15H7.5l.18-.66-2.8,1.15A7.55,7.55,0,0,0,.5,25.16a1.83,1.83,0,0,0,.91,1A11.08,11.08,0,0,0,1,31.59c.12.67.63,2.86,2.25,2.86l.82,0,.45-.6a2.25,2.25,0,0,0,.17-2A3.52,3.52,0,0,1,5.71,30a3.17,3.17,0,0,0,.71-.41,7,7,0,0,0,1.5.22,10.18,10.18,0,0,0-1.77,2.58l-.05.11a3.69,3.69,0,0,0-1.21,3.17,8.16,8.16,0,0,0,2.89,5.11,1.8,1.8,0,0,0,.9.25l.89,0,.45-.69a1.89,1.89,0,0,0,0-1.85,5.13,5.13,0,0,1-.26-1.23,2.86,2.86,0,0,0,.79-1.11,7.23,7.23,0,0,0,.87-.38,3.22,3.22,0,0,0,.34,1.58,2.2,2.2,0,0,0,0,1c.33,2,2.35,3.28,5.09,3.28.27,0,.53,0,.79,0,.83-.09,2.38-.24,2.53-1.65A1.68,1.68,0,0,0,19,38.16l-.22-.07h-.23a.94.94,0,0,1-.88-.92c0-.18-.06-.34-.1-.5a5.07,5.07,0,0,0,.34-.55,1.12,1.12,0,0,1,.25-.34L19,36a3.84,3.84,0,0,0,1.75.49l1.18,0c2.08,0,3.34-.28,4.09-.91l.1-.09c.79.23,1.32.32,1.36.33a11.09,11.09,0,0,0,1.59.1,13.88,13.88,0,0,0,3.15-.36l0,0c.75.63,2,.91,4.1.91l1.18,0A3.83,3.83,0,0,0,39.22,36l.8-.19a.82.82,0,0,1,.26.34,3.94,3.94,0,0,0,.35.55,3.67,3.67,0,0,0-.11.5.94.94,0,0,1-.88.92h-.23l-.21.07A1.68,1.68,0,0,0,38,39.91c.15,1.41,1.7,1.56,2.53,1.65.26,0,.52,0,.79,0,2.74,0,4.77-1.32,5.1-3.28a2.34,2.34,0,0,0,0-1,3.46,3.46,0,0,0,.34-1.58,5,5,0,0,0,.87.38,2.89,2.89,0,0,0,.78,1.11,5.13,5.13,0,0,1-.26,1.23,1.89,1.89,0,0,0,0,1.85l.51.72h.82a1.78,1.78,0,0,0,.9-.25,8.16,8.16,0,0,0,2.89-5.11,3.68,3.68,0,0,0-1.21-3.17l0-.11a10.36,10.36,0,0,0-1.7-2.5,6.69,6.69,0,0,0,1.39-.18,2.67,2.67,0,0,0,.63.39A3.49,3.49,0,0,1,53.43,32a2.27,2.27,0,0,0,.13,2l.51.66h.77c1.59,0,2.15-2.15,2.29-2.8a12,12,0,0,0,.07-4A1.88,1.88,0,0,0,58.32,27c2.64-5.1-.78-8.89-3-10.19M5,22.9a3.57,3.57,0,0,0-.63.48H4A4.58,4.58,0,0,1,5.78,22a5.19,5.19,0,0,0,.6-.18l.58.42a6,6,0,0,0-2,.64m15.17-6.26a1.72,1.72,0,0,0-.34.53,1.8,1.8,0,0,0-.7-.89,6.3,6.3,0,0,0-.41-1.66,4.43,4.43,0,0,0,1-1.12l.52-.24a2.6,2.6,0,0,0,.32,3.07,2.11,2.11,0,0,0-.38.31m18.3,0a3.18,3.18,0,0,0-.46.72l-.09-.1a1.78,1.78,0,0,0-1.28-.54,1.86,1.86,0,0,0-.54.07,1.34,1.34,0,0,1-.32,0l-.25,0a2.05,2.05,0,0,0-.73-1.33,2.56,2.56,0,0,0,.61-1.65,2.72,2.72,0,0,0-.18-.95,11.59,11.59,0,0,0,2.2.8,5.16,5.16,0,0,0,1,.95,4.72,4.72,0,0,0,0,2M54,23.57a3.22,3.22,0,0,0-.5-.43l0,0a6.11,6.11,0,0,1,.53.41H54"/><polygon class="cls-2" points="17.96 22.16 14.83 23.17 11.52 20.61 7.19 17.01 4.73 17.39 4.16 20.45 7.07 19.76 13.48 24.25 17.33 26.33 20.99 26.74 17.96 22.16"/><polygon class="cls-2" points="19.1 27.25 16.54 27.28 12.46 25.7 9.62 25.07 5.2 25.1 3.78 25.6 4.35 28.48 6.78 27.47 14.23 27.81 16.41 27.69 18.59 29.36 21.21 28.64 19.1 27.25"/><polygon class="cls-2" points="20.2 29.36 19.19 30.37 15.69 29.49 13.82 28.95 12.37 29.23 8.2 32.49 7.1 34.54 8.71 35.58 10.19 33.81 12.97 31.73 15.62 30.53 16.6 31.57 19.82 31.54 22.6 31.22 20.2 29.36"/><polygon class="cls-2" points="22.95 31.82 21.65 32.8 18.59 32.74 16.82 32.65 13.66 34.51 13.57 38.11 15.5 38.49 15.81 35.8 16.7 34 18.05 33.91 20.96 34.57 24.5 34.32 25.79 32.77 22.95 31.82"/><polygon class="cls-2" points="34.82 31.92 36.58 32.79 41.24 32.65 44.63 34.93 44.56 38.12 42.4 38.03 42.47 35.19 40.91 34.12 36.48 34.05 33.92 34.38 31.86 33.22 34.82 31.92"/><polygon class="cls-2" points="37.36 29.5 39.54 30.47 43.61 28.96 44.44 28.84 45.67 28.98 50.15 32.42 51.28 34.38 50.52 35.73 49.39 35.54 47.47 33.65 44.18 31.47 42.54 30.62 37.97 31.68 34.99 31.18 37.36 29.5"/><polygon class="cls-2" points="38.64 26.36 41.61 27.02 47.64 25.13 52.48 24.78 54.59 26.08 54.56 28.57 53.11 28.44 51.91 27.24 46.92 27.78 44.23 27.62 41.71 27.46 39.65 29.04 37.03 27.88 38.64 26.36"/><polygon class="cls-2" points="41.36 23.83 42.97 23.99 48.56 20.23 52.19 18.05 55.03 18.88 56.11 21.37 54.84 21.62 52.19 20.42 48.37 22.92 45.37 24.12 42.18 25.32 41.17 26.08 39.56 25.79 41.36 23.83"/><polygon class="cls-2" points="38.52 5.8 39.02 9.21 40.98 15.53 40.1 19.07 37.95 21.72 40.03 24.81 43.51 21.09 44.71 15.66 43 8.71 40.66 4.98 38.52 5.8"/><path class="cls-2" d="M16.52,4S14.79,7.57,15.17,8.8,13,10.65,13,10.65s-.64,3.69-.64,3.81S14,19.93,14,19.93l3.34,3.82,6,1-2.58-3.93-2.7-2.25-1.71-2.84.1-3.86L18,8l.28-3.79Z"/><path class="cls-3" d="M23,1.79S19.51.66,17,2.87,15.4,6.28,15.4,6.28a2.91,2.91,0,0,0,3.16.31A5,5,0,0,1,23,1.79"/><path class="cls-3" d="M12.7,18.56s-2.89-2.27-.52-6c0,0,.66-.56,1.52,1.28s3.26.62,3.26.62a4.91,4.91,0,0,1,.62,2.7s-.28.9-2.32.52-1.18,1.33-2.56.9"/><path class="cls-3" d="M14.55,21.4s-2.27-2.08-.24-3a2.31,2.31,0,0,1,1.8-.14,1.62,1.62,0,0,0,1.76-.66s.56-.43.61.56a1.78,1.78,0,0,1-.95,1.52,2.27,2.27,0,0,1-1.37.24s-.38,1.8-1.61,1.51"/><path class="cls-3" d="M15.12,22.21s2,.76,4,5.92,8.57,6.2,8.57,6.2S35.06,35.52,38,29.17c0,0,2.79-5,4.4-5.4,0,0,.53-.24-.15-.47s-1.31.05-1.22-.85c0,0,.21-.48-.43-.48s-1.3,0-1.35-.54.26-1.42-.52-1.28-1.7,0-1.68-.69,0-1.33-.52-1.18-2.37.28-2.46-1.14c0,0,0-.83-.71-.43s-2.54,0-2.68-1.28c0,0-.17-.8-.69,0s-2.15.33-2.2-.17c0,0-.38-.73-.64.14A2,2,0,0,1,24.83,17s-.78-.14-.93.36-1.72.3-1.72.3-1.07-.33-1,.34-1.45,1-1.83.82c0,0-.68-.16-.59.45a1.42,1.42,0,0,1-1.56,1.31c-.76-.17-1,.09-.9.59s-.69.9-.93.78-.35.21-.23.31"/><path class="cls-3" d="M23.83,19.35a9.68,9.68,0,0,0-1.39-3.66s-.72-.79-.34-1,.69-.38.91.22,2,4,2.81,4.26l-.91,1Z"/><path class="cls-3" d="M30.12,19.44s2.4-4.13,2.24-5.71c0,0,.73-.47.73.19S31.48,17.74,31.66,20l-1.07.51Z"/><path class="cls-3" d="M41.93,5.56C39.84,2.22,36.65,2.17,35,2.05s-.38.59-.38.59a10.08,10.08,0,0,1,3.27,4.2s3,.52,3.83-1Z"/><path class="cls-3" d="M43.73,11c-.8.07-1.21,1.23-1.21,1.23a1.89,1.89,0,0,1-1.78,1.66,2.93,2.93,0,0,1-2.48-1.52,9.25,9.25,0,0,1-2.49-.8c-4.64-2.16-4.12-6.45-4.1-7.7s.45-.43.45-.43,3.65,5.4,8.55,3.91c0,0,1-.35,1.28-.78,0,0,1.21-1.78,2.51,4.31,0,0,0,.05-.73.12"/><path class="cls-3" d="M40.1,17a3,3,0,0,1,.08-2.61s1.82.19,2.44-1,1.27-2.39,2.1-1.75a5.29,5.29,0,0,1,1.35,3.53c-.09.8,0,2.34-1.47,2.41s-4-.07-4.5-.61"/><path class="cls-3" d="M43.68,21.78C45.62,19.58,45,18,45,18a8,8,0,0,1-5.14-.59,1.82,1.82,0,0,0-.71,1.87c.21,1.3,2.06,2.48,2.06,2.48s.45,1,1.21.81a2.55,2.55,0,0,0,1.23-.76"/><path class="cls-3" d="M5.9,19.89c-1.09-.85-.45-3.07-.45-3.07S0,19.07,1.89,24.59c0,0,.33.81.45-1s2.8-2.93,2.89-3,1.38-.17.67-.72"/><path class="cls-3" d="M11.22,23s-4.93-2.47-5.36-4,.37-2.26.7-2.37a2.52,2.52,0,0,1,3,.57,37.24,37.24,0,0,1,3.4,3.88A4.86,4.86,0,0,0,11.22,23"/><path class="cls-3" d="M17.85,27.12c-.21.15-.51-.13-.51-.13a6.85,6.85,0,0,0-3.47-1.78s-2.73-.21-2.12-2.05,2-2,3.06-.76a13.71,13.71,0,0,1,3,4.55Z"/><path class="cls-3" d="M3.73,25.32s.6-.95.67-.06.34,2.16.88,2.46.51.57-.17.87-2.29,2.33-1.9,3.64-.49.73-.77-.9-.19-4.75,1.29-6"/><path class="cls-3" d="M11.8,28.11a8.7,8.7,0,0,1-.14-3A19,19,0,0,0,9.2,24a4.16,4.16,0,0,0-3.49.2s-1.22.57-.71,2.36,3.14,1.7,3.14,1.7a24.31,24.31,0,0,0,3.66-.16"/><path class="cls-3" d="M12.35,28a3.37,3.37,0,0,1,0-2.59s3.51.67,4.6,1.72,1.2,1.77,1.8,2,.44.76-.13.42a17.24,17.24,0,0,1-1.91-1.34c-.73-.57-3.95.43-4.33-.19"/><path class="cls-3" d="M7.16,33.53s1.63-.6,2.07,1.4a1.23,1.23,0,0,1-.59,1.27c-.79.58,0,2.78,0,2.78s.33.72-.14.45S5,35.34,7.16,33.53"/><path class="cls-3" d="M14.19,31.59c.54-.57-.27-.89-.27-.89s-1.19-.65-.95-1.35-.22-.72-.22-.72C9.13,29.33,7.52,33,7.52,33s1.63-.22,2.07,1.82c0,0,1.55,0,4.6-3.19"/><path class="cls-3" d="M16.43,28.68c1.91,1.61,2.73,1,2.89,1.56S21.17,32,21.17,32s-2.63.06-4.41,0-1.17-1-2.4-1.49a1.42,1.42,0,0,1-.93-1.7s0-.64,2.43-.21Z"/><path class="cls-3" d="M17.6,32.42s-4-.39-4.55,2.4,1.4,2.29,1.4,2.29a3.43,3.43,0,0,0,2.12-1.69c.73-1.39,1.8-1.13,1.8-1.13a1.49,1.49,0,0,0-.58-1.08c-.59-.45-.19-.79-.19-.79"/><path class="cls-3" d="M25,34.43c-.63.53-2.39.61-4.25.54s-2.7-2.2-2.7-2.2-.39-.52,1.2-.41,2.16-.39,3.08.44a6.25,6.25,0,0,0,2.7,1.33c.19,0,.27,0,0,.3"/><path class="cls-3" d="M13.67,37.44a2.13,2.13,0,0,0,2-.56s.34-.51.49.5a2.4,2.4,0,0,0,2.35,2.21s.88.29-1,.48-4.06-.46-4.26-2.07c0,0-.26-.74.38-.56"/><path class="cls-3" d="M53.71,21c1.2-.67.89-3,.89-3s5.07,3,2.39,8.21c0,0-.45.74-.31-1s-2.33-3.32-2.42-3.39-1.33-.38-.55-.82"/><path class="cls-3" d="M48,23.37s5.24-1.73,5.88-3.15,0-2.28-.33-2.44a2.52,2.52,0,0,0-3,.13,37.24,37.24,0,0,0-3.93,3.34A4.78,4.78,0,0,1,48,23.37"/><path class="cls-3" d="M40.83,26.43c.18.18.51-.06.51-.06A6.92,6.92,0,0,1,45,25.12s2.73.2,2.4-1.72-1.65-2.3-2.91-1.2a13.74,13.74,0,0,0-3.65,4.06Z"/><path class="cls-3" d="M54.53,25.52s-.57-1-.66-.08-.41,2.15-.95,2.43-.52.56.15.88,2.22,2.4,1.79,3.7.46.74.8-.88.32-4.75-1.13-6.05"/><path class="cls-3" d="M46.39,28.08a8.69,8.69,0,0,0,.23-3,18.48,18.48,0,0,1,2.49-1,4.16,4.16,0,0,1,3.48.31s1.2.6.64,2.37S50,28.34,50,28.34a25.29,25.29,0,0,1-3.65-.26"/><path class="cls-3" d="M45.84,28a3.31,3.31,0,0,0,.1-2.59s-3.52.56-4.64,1.59-1.25,1.73-1.85,1.92-.47.74.11.43A17.49,17.49,0,0,0,41.51,28c.74-.55,3.93.54,4.33-.06"/><path class="cls-3" d="M51,33.53s-1.62-.6-2.06,1.4a1.21,1.21,0,0,0,.58,1.27c.79.58,0,2.78,0,2.78s-.33.72.15.45,3.56-4.09,1.35-5.9"/><path class="cls-3" d="M44,31.59c-.55-.57.27-.89.27-.89s1.18-.65.94-1.35.22-.72.22-.72c3.62.7,5.23,4.33,5.23,4.33s-1.63-.22-2.07,1.82c0,0-1.55,0-4.59-3.19"/><path class="cls-3" d="M41.75,28.68c-1.91,1.61-2.73,1-2.88,1.56S37,32,37,32s2.62.06,4.4,0,1.17-1,2.4-1.49a1.42,1.42,0,0,0,.93-1.7s0-.64-2.43-.21Z"/><path class="cls-3" d="M40.59,32.42s4-.39,4.54,2.4-1.4,2.29-1.4,2.29a3.43,3.43,0,0,1-2.12-1.69c-.72-1.39-1.8-1.13-1.8-1.13a1.48,1.48,0,0,1,.59-1.08c.58-.45.19-.79.19-.79"/><path class="cls-3" d="M33.17,34.43c.62.53,2.38.61,4.24.54s2.7-2.2,2.7-2.2.4-.52-1.2-.41-2.16-.39-3.08.44a6.2,6.2,0,0,1-2.7,1.33c-.19,0-.26,0,0,.3"/><path class="cls-3" d="M44.52,37.44a2.13,2.13,0,0,1-2-.56s-.35-.51-.49.5a2.41,2.41,0,0,1-2.36,2.21s-.88.29,1,.48,4.06-.46,4.27-2.07c0,0,.25-.74-.38-.56"/><path class="cls-4" d="M23.55,14.58a1.11,1.11,0,1,1-2.21,0,1.11,1.11,0,0,1,2.21,0"/><path class="cls-4" d="M33.88,13.86a1.08,1.08,0,1,1-1.08-1.08,1.07,1.07,0,0,1,1.08,1.08"/><path class="cls-3" d="M23.17,2.61S19,10,14.9,6.4c0,0-.78-.87-1.91,1.55s-.34,3.6-.34,3.6a1.94,1.94,0,0,1,1,1c.28.76.85,1.71,1.56,1.71a3.65,3.65,0,0,0,3.36-2s3.89-1.3,4.95-4.75a6.07,6.07,0,0,0-.4-4.95"/><path d="M23,14.58a.56.56,0,1,1-.56-.55.56.56,0,0,1,.56.55"/><path d="M33.31,13.9a.48.48,0,1,1-1,0,.48.48,0,0,1,1,0"/></g></g></svg>