<svg xmlns="http://www.w3.org/2000/svg" viewBox="0 0 54.46 20.47"><defs><style>.cls-1{fill:#444;}.cls-2{fill:#858585;}.cls-3{fill:#fff;}.cls-4{fill:#ccc;}.cls-5{fill:#999;}</style></defs><title>Croaker</title><g id="레이어_2" data-name="레이어 2"><g id="레이어_1-2" data-name="레이어 1"><path class="cls-1" d="M21.17,20.46c-4.29,0-7.18-.53-8.81-1.55C7.61,18.69,5.63,18,5,17.76c-1.59-.49-2.65-1.45-4.5-3.5l-.06-.08a2.41,2.41,0,0,1-.32-2.31A3,3,0,0,1,1.77,8.93c.1-.07.46-.42.71-.67a11.17,11.17,0,0,1,4.39-3A12.7,12.7,0,0,1,10.74,3C12.36,1.79,15.59.34,21.91,0h0a1.87,1.87,0,0,1,1.76,1,2,2,0,0,1,.14.44,20.93,20.93,0,0,1,2.35-.39c1-.11,1.68-.16,2.1-.16a1.79,1.79,0,0,1,1.83,1,1.48,1.48,0,0,1,.1,1,26.36,26.36,0,0,1,7.39,3.57,11.4,11.4,0,0,0,4,1.55,2.06,2.06,0,0,1,1.35,1.05,11.45,11.45,0,0,0,2.63-.47A13.1,13.1,0,0,1,49.15,8c1.91,0,2.91.81,3.3,1.72.76.64,2.1,2,2,3.6a2.77,2.77,0,0,1-1.05,2,2.66,2.66,0,0,1-.54.81,4.07,4.07,0,0,1-3.08,1.06,11.46,11.46,0,0,1-2-.19c-1.36-.25-2.4-.44-3.26-.57l.31.32-2.6.6a32.15,32.15,0,0,1-7.24.75c-1.23,0-2.5-.06-3.78-.16-3.06.36-5.93.63-8.58.81,0,.05.18,1.76.18,1.76Z"/><path class="cls-2" d="M10.8,5S12.62,2,22,1.5c0,0,1.29-.08-1,2.41a21.85,21.85,0,0,1,5.37-1.34c5.19-.55-.09.52,2.91,1.58a27.06,27.06,0,0,1,7.42,3.5,13.39,13.39,0,0,0,4.58,1.84.55.55,0,0,1,.25.94,3.35,3.35,0,0,1-3.46.64c-2.94-.87-25.88-4.85-25.88-4.85Z"/><path class="cls-2" d="M12.32,16.55s-.26,2.37,8.85,2.41a3.28,3.28,0,0,0-2.29-2.74c-2.08-.56-6.56.33-6.56.33"/><path class="cls-2" d="M28.36,16a38.81,38.81,0,0,0,13.55-.19,7.19,7.19,0,0,0-4.14-2.13C35.54,13.63,28.36,16,28.36,16"/><path class="cls-3" d="M43.07,14.71c-30.91,5-37.5,1.65-37.5,1.65l-2-1.92,7.2-4L22.65,9.35l11.73,2,9.27,2Z"/><path class="cls-4" d="M51.14,10.55c0-.59-.86-1.81-5.15-.51a11.08,11.08,0,0,1-7.3-.08S27.25,3.07,19,3.11,7.65,6.59,7.65,6.59c-2.88.82-4.29,3.26-5.26,3.7s-.7,1.86-.7,1.86a1,1,0,0,0,0,1.11C3.6,15.42,4.4,16,5.57,16.36c2.39-2.78,8.83-7.42,24.14-5,6.64,1.06,10.79,2.22,13.36,3.32,1.19.09,2.6.34,5,.77,4.11.74,4-1.11,4-1.11,2.41-1.37-1-3.82-1-3.82"/><path class="cls-5" d="M12.07,14.54a3,3,0,0,1,1.33.12,4.7,4.7,0,0,0,2.73.38A3.14,3.14,0,0,0,18,13.18c-2.08-1.14-6.31-.37-6.31-.37s-.86,1.87.38,1.73"/><path class="cls-3" d="M7.42,10.72a1.38,1.38,0,1,1-2.75,0,1.38,1.38,0,0,1,2.75,0"/><path d="M6.71,10.72a.67.67,0,0,1-.67.67.67.67,0,0,1,0-1.34.67.67,0,0,1,.67.67"/></g></g></svg>