<svg xmlns="http://www.w3.org/2000/svg" viewBox="0 0 51.77 40.18"><defs><style>.cls-1{fill:#444;}.cls-2{fill:#b0ce42;}.cls-3{fill:#bbd671;}.cls-4{fill:#6b9e66;}</style></defs><title>Cucumber</title><g id="Layer_2" data-name="Layer 2"><g id="레이어_1" data-name="레이어 1"><path class="cls-1" d="M12.59,40.18c-3.68,0-5.46-1.2-6.31-2.45-1.94-.48-4.63-1.93-4.85-4.94-1-1.47-2.08-4-.93-6.41C.25,24.82,0,20.71,3.28,18.56a8.1,8.1,0,0,1,4.26-3.23l.16-.08a2.91,2.91,0,0,1,1.74-1.66,9,9,0,0,1,2.86-2l.32-.41A4.18,4.18,0,0,1,15,9.68a3.19,3.19,0,0,1,1.57-.94c6.28-2.2,8.28-3.94,8.3-4C29.67.62,36.23,0,39.72,0a17,17,0,0,1,1.8.07h.07l.08,0c.27.05,6.6,1.36,9.1,6.18,1.41,2.73,1.32,5.93-.28,9.53C46,25.91,30.83,33,26.12,34.93a3.88,3.88,0,0,1-1.07.41,3.45,3.45,0,0,1-.72.07,3.91,3.91,0,0,1-.76-.07,5.24,5.24,0,0,1-1.11.74,10.24,10.24,0,0,1-2.92,1.11C18.42,39,17.07,40,15.54,40h-.06A18.82,18.82,0,0,1,12.59,40.18Z"/><path class="cls-2" d="M22.41,33.16c3,2.26,4.42-1.26,4.42-1.26,3-.91,2.27-5.48,2.27-5.48a5.28,5.28,0,0,0,.1-4.58c1.71-2.27-1.36-4.53-1.36-4.53.15-2.06-2.11-3-2.11-3,.15-2.37-3.68-2.79-3.68-2.79a3,3,0,0,0-3.22-1.13c-2.51-.86-3,.8-3,.8-1.1-.25-2,.91-2,.91Z"/><path class="cls-3" d="M24.3,33a2.09,2.09,0,0,1-1.15-.43L14.87,12.3A1.12,1.12,0,0,1,15.5,12l.82.19.36-.8c0-.07.21-.4.85-.4a3.17,3.17,0,0,1,1,.19l.27.09.28-.08a2.44,2.44,0,0,1,.56-.06,1.92,1.92,0,0,1,1.66.85l.23.33.41.05s3,.41,2.87,1.83l0,.64.59.25c.07,0,1.67.74,1.57,2.12l0,.5.4.3a4,4,0,0,1,1.5,2.14,1.47,1.47,0,0,1-.32,1.11l-.36.47.29.51A4.42,4.42,0,0,1,28.28,26l-.12.25,0,.28s.59,3.81-1.63,4.47l-.41.12-.16.4S25.35,33,24.3,33Z"/><path class="cls-4" d="M24.74,33.87S44.19,26.32,49.12,15.2,41.38,1.56,41.38,1.56,31.92.65,25.88,5.89c0,0-2,1.9-8.89,4.29a3.57,3.57,0,0,1,1.84.19s2.23-.6,3.22,1.13c0,0,3.78.36,3.68,2.79,0,0,2.26.92,2.11,3,0,0,3,2.09,1.36,4.53a5.72,5.72,0,0,1-.1,4.58s.68,4.65-2.27,5.48A3.67,3.67,0,0,1,24.74,33.87Z"/><path class="cls-2" d="M8.92,16.37S9.12,15,10.23,15a6.45,6.45,0,0,1,8.59-1.48c5.2,3.06,5.36,13.12,3.45,16.88a11.06,11.06,0,0,1-4.49,5S7.55,30.51,8.69,23.87,8.92,16.37,8.92,16.37Z"/><path class="cls-3" d="M17.75,34.29c-1.83-1-9.06-5.1-8.17-10.26.67-3.89.77-6.54.31-7.76.06-.18.18-.4.37-.4l.43,0L11,15.5a6,6,0,0,1,4.3-2.17,6.17,6.17,0,0,1,3.11.94C22.94,17,23.25,26.43,21.46,30A11,11,0,0,1,17.75,34.29Z"/><path class="cls-4" d="M17.78,35.32c.77,1.28,4-.57,4-.57,4.18-2,3.66-12.38,3.66-12.38s-.16-4.29-2-7-5.75-2.49-5.75-2.49,3.87.82,5.32,7.32a19.58,19.58,0,0,1,0,8.25,11.29,11.29,0,0,1-4.8,6.64Z"/><path class="cls-4" d="M15.13,17.17s2.8.57,3.35,2.83c0,0,2.49.08,2.19,3.7,0,0,2.11,3.65-.3,6.92,0,0-1.56,8.07-5,7.82,0,0-6.7,1.27-8.15-2"/><path class="cls-2" d="M4.36,19.66a6.64,6.64,0,0,1,3.72-2.92s2.59-1.48,4.83-.47c0,0,3.81.65,4.22,4a5,5,0,0,1,1.78,4.35s1.48,3.75-1,5.53c0,0-.9,5.6-4.29,6.44,0,0-4.12,1.88-6.41-.16,0,0-4.42-.61-4.32-4.13,0,0-2.52-3.05-.84-5.64C2.08,26.63.84,21.67,4.36,19.66Z"/><path class="cls-3" d="M10.08,36.44a3.23,3.23,0,0,1-2.23-.72l-.21-.18-.27,0c-.15,0-3.62-.55-3.55-3.2V32l-.21-.26s-2.07-2.59-.78-4.57l.21-.33L3,26.42c0-.05-1-4.33,1.85-6L5,20.32l.12-.21a5.85,5.85,0,0,1,3.15-2.49l.13,0,.11-.06a6,6,0,0,1,2.65-.71,3.3,3.3,0,0,1,1.36.28l.1,0,.12,0c.13,0,3.15.6,3.47,3.19l.05.36.28.23A4.14,4.14,0,0,1,18,24.44l0,.25.09.23s1.19,3.13-.66,4.47l-.3.22-.06.37c-.23,1.39-1.32,5.14-3.62,5.7A9.32,9.32,0,0,1,10.08,36.44Z"/></g></g></svg>