<svg xmlns="http://www.w3.org/2000/svg" viewBox="0 0 53.38 30.51"><defs><style>.cls-1{fill:#444;}.cls-2{fill:#a2a2a2;}.cls-3{fill:#bb700a;}.cls-4{fill:none;}.cls-5{fill:#cecece;}</style></defs><title>Curry</title><g id="Layer_2" data-name="Layer 2"><g id="레이어_1" data-name="레이어 1"><path class="cls-1" d="M26.51,30.51a18.37,18.37,0,0,1-2.59-.18c-3.39-.48-7.91-1.47-8.07-4.48C15.76,24.07,17,22.62,19,22a8.5,8.5,0,0,0,1.37-1.59c-3.22-1.19-6.63-3.68-10.16-7.41C4.5,7,1.77,5.91,1.75,5.9L0,5.25,1,3.67c.21-.34,1.12-1.43,3.71-1.43A19.73,19.73,0,0,1,11,3.58l1.93.69C17.11,5.78,18.11,6.13,22,6.13c.82,0,1.77,0,2.89,0a13.77,13.77,0,0,0,7.88-2.43,19.4,19.4,0,0,1,5.87-2.57A10,10,0,0,1,42,.24a2.78,2.78,0,0,1,1.8.57A11.37,11.37,0,0,1,47.91,0a9.08,9.08,0,0,1,2.23.28,4.28,4.28,0,0,1,3.22,4c.23,2.52-1.3,5.89-5.22,7.72C45.43,13.21,43,14.16,40.93,15c-.9.35-1.76.69-2.6,1a25.11,25.11,0,0,1-6.86,4.24,5.9,5.9,0,0,0,1.26,1.58,5.37,5.37,0,0,1,3.08,3.21,3.08,3.08,0,0,1-.66,2.69c-1.54,1.9-5.45,2.75-8.64,2.75Z"/><path class="cls-2" d="M2.24,4.48s1.26-2,8.26.52,6.93,2.78,14.41,2.59,8.26-3.7,14.18-5.07c0,0,5.82-2.6,3.52,1.66S30.69,16.11,30.69,16.11l-14.6-3.3L7.72,7,4.2,4.81Z"/><path class="cls-3" d="M11.2,8.92s15.13-1.87,25,.23l-5.48,3.14L17.5,11.48Z"/><path class="cls-4" d="M48.56,3.11c-2.37-1.11-5.5.49-5.5.49h0a19.64,19.64,0,0,1-3.77,9.27c2.2-.94,5.16-1.64,7.43-3.08C49.65,7.92,50.93,4.22,48.56,3.11Z"/><path class="cls-5" d="M42.91,2.94c-3.42,5.23-14.09,7.84-17.34,7.91A27,27,0,0,1,10.72,7C5,3.44,2.24,4.48,2.24,4.48S5.09,5.4,11.32,12s10.4,7.29,11,7.48-2,3.74-2.81,4-2.26.89-2.19,2.34,2.63,2.48,6.78,3.07,8.59-.48,9.85-2-.66-3-1.89-3.59-2.77-3.74-2.77-3.74a23.68,23.68,0,0,0,8.19-4.72c3-1.23,6.1-2.35,10-4.17,5.07-2.37,5.63-8,2.26-8.86a9.59,9.59,0,0,0-6.61,1Zm3.81,6.84c-2.27,1.44-5.23,2.14-7.43,3.08a19.64,19.64,0,0,0,3.77-9.27h0s3.13-1.6,5.5-.49S49.65,7.92,46.72,9.78Z"/></g></g></svg>