<svg xmlns="http://www.w3.org/2000/svg" viewBox="0 0 36.36 54.81"><defs><style>.cls-1{fill:#444;}.cls-2{fill:#cb9047;}.cls-3{fill:#5eaf37;}</style></defs><title>Deodeok</title><g id="Layer_2" data-name="Layer 2"><g id="레이어_1" data-name="레이어 1"><path class="cls-1" d="M1.23,49.25a9.65,9.65,0,0,1,3-5.06l-1.07.47.77-3a2.45,2.45,0,0,1,1.33-1.58.76.76,0,0,1,0-.15V37.45l2.2,1.16a12.6,12.6,0,0,0,4.1.76h0c1.17,0,2-3.15,2.17-5.41.77-9.58,5.09-12.82,7-13.8a3,3,0,0,1,.6-.92,3.49,3.49,0,0,1,1.72-1,5.4,5.4,0,0,1,1-.1,3.09,3.09,0,0,1,2.63,1.13A3,3,0,0,1,27,22.08l-.06.18-.25.42c1.16,4.14-1.57,9.2-2.09,10.12C23.57,35.85,25,39.91,25,40l.74,2.11L23.42,42a2.45,2.45,0,0,1-1.94,1.16H18.75L20.06,41a28.5,28.5,0,0,1-2.48,2.32A14.1,14.1,0,0,1,9,47.21c-2,.28-4.4,2.52-5.16,3.36L0,54.81Z"/><path class="cls-1" d="M21.84,20.06a26.12,26.12,0,0,1-.32-8.53,8.47,8.47,0,0,1-1.32.6L19,12.57l-.61-1.14a4.36,4.36,0,0,1-.11-3.65,8.22,8.22,0,0,1-2-.94l-2-1.24L16.2,4.32A7.94,7.94,0,0,1,20.08,3a4.06,4.06,0,0,1,1.54.29A4.8,4.8,0,0,1,25.46.19L26.92,0l.22,1.45a7.53,7.53,0,0,1-.35,3.45L28,4.85A4.73,4.73,0,0,1,31.49,6.3v0a5.56,5.56,0,0,1,3.27-1.17l1.33-.07.22,1.31a4.61,4.61,0,0,1-1.88,4.25,5.71,5.71,0,0,1,1,2.79l.15,1.64H33.92a5,5,0,0,1-3-1.12c-.56,2.54-3.81,5.56-5.34,6.87l-.49.42-.64-.07-.42,0H23.8l-1.57.69ZM25,7.14a10.09,10.09,0,0,1,.09,4.91,14.59,14.59,0,0,0-.16,4.12c1.34-1.35,2.3-2.67,2.27-3.23a5.29,5.29,0,0,1,.46-2.56,5,5,0,0,1-1.16-4.22l.1-.75a5.93,5.93,0,0,1-.41.66A4.34,4.34,0,0,1,25,7.14Z"/><path class="cls-2" d="M25.06,22.5c1.63,3.92-1.81,9.66-1.81,9.66-1.33,3.63.33,8.3.33,8.3-1.07-.06-.81-1.41-.81-1.41-.22,2.56-1.3,2.56-1.3,2.56a7.27,7.27,0,0,0,.89-2.78,12.6,12.6,0,0,0-.44-3.3c-.86,3.08-5.34,6.71-5.34,6.71a12.56,12.56,0,0,1-7.74,3.48c-3,.37-6.15,3.85-6.15,3.85,1.34-6,9.23-7.63,9.23-7.63.55-.7-2.67-.41-2.67-.41-1.44,0-2.89,2-2.89,2-.26-.93,1.19-1.85,1.19-1.85a3.81,3.81,0,0,0-2.19.33c.3-1.15,3.08-1,3.08-1-1.71-.48-1.71-1.11-1.71-1.11a13.11,13.11,0,0,0,4.71.93c3.37.22,3.77-6.82,3.77-6.82C16.1,22.87,22,21.24,22,21.24c-.06-1,1.11-1.5,1.28-1.5,0,0,3.05-.65,2.27,1.9Z"/><path class="cls-3" d="M24.58,19.68s5.3-4.52,4.89-6.67,1.19-2.51,1.19-2.51a3.4,3.4,0,0,0,3.26,3.07c-.26-2.74-2.23-3.19-2.23-3.19,3.6-1.14,3.15-3.74,3.15-3.74a4.44,4.44,0,0,0-4,3.08A2.74,2.74,0,0,0,28,6.35c-.4,3.22,2,3.7,2,3.7s-1.37.48-1.26,2.82-4.78,6.22-4.78,6.22a17.66,17.66,0,0,1-.3-7.34C24.32,8.09,23,6.27,23,6.27c3.34-.44,2.71-4.59,2.71-4.59-3.08.41-3.11,4.41-3.11,4.41l-.3-.19-.19-.33c-1.51-2.33-5,0-5,0,2.89,1.81,4.77.59,4.77.59-3.48,2-2.11,4.56-2.11,4.56,3.89-1.41,2.78-4,2.78-4s1.22,1.07.56,4.89a24.52,24.52,0,0,0,.27,8.13,2.75,2.75,0,0,1,1.28-.06"/><path class="cls-1" d="M22.12,25.67A7.48,7.48,0,0,0,18,24.38l0-.27a7.68,7.68,0,0,1,4.28,1.34Z"/><path class="cls-1" d="M22.05,26.66c-1.38-1.27-4.41-1.51-4.44-1.51l0-.26c.13,0,3.15.25,4.59,1.58Z"/><path class="cls-1" d="M21.15,27.26c-.74-1-3.83-1.4-3.86-1.4l0-.25c.13,0,3.23.47,4,1.49Z"/><path class="cls-1" d="M21.07,37.5a8.71,8.71,0,0,0-4.61-2l0-.26a8.85,8.85,0,0,1,4.76,2.08Z"/><path class="cls-1" d="M20.59,38.16s-1.92-2-3.9-2v-.26c2.09,0,4,2,4.09,2.09Z"/><path class="cls-1" d="M20.18,38.83A4.32,4.32,0,0,0,17,37v-.28a4.49,4.49,0,0,1,3.42,2Z"/></g></g></svg>