<svg xmlns="http://www.w3.org/2000/svg" viewBox="0 0 60.83 16.29"><defs><style>.cls-1{fill:#444;}.cls-2{fill:#a6a6a7;}.cls-3{fill:#d3c2b8;}.cls-4{fill:#dbceaa;}.cls-5{fill:#888075;}</style></defs><title>Dried_Pollock_2_1</title><g id="레이어_2" data-name="레이어 2"><g id="레이어_1-2" data-name="레이어 1"><path class="cls-1" d="M9.44,12.88a7.56,7.56,0,0,0,3.5.95,5.12,5.12,0,0,0,1.91-.35c.67.19,1.34.34,2,.47a6,6,0,0,0,4,2.34h.17a2,2,0,0,0,2.15-2.06c2-.25,9.76-2,12.17-2.6L38.88,11a22,22,0,0,0,3.43.26A21,21,0,0,0,45.6,11c2.66-.41,3.9-1.38,4.45-2.37a8.46,8.46,0,0,1,.87-.05,6.52,6.52,0,0,1,2.18.34,15,15,0,0,0,4.31.47c.52,0,1,0,1.39,0a1.93,1.93,0,0,0,2-1.35,2.17,2.17,0,0,0-1-2.31,1.34,1.34,0,0,1,0-1,1.89,1.89,0,0,0,.23-2,2,2,0,0,0-1.82-1c-.13,0-1.24-.09-2.37-.09a6.28,6.28,0,0,0-2.74.37,16.79,16.79,0,0,1-3.51.38s-2.34,0-5.77-.06A12.75,12.75,0,0,0,39,1.07h-.22a12.93,12.93,0,0,0-4.35,1L31.88,2,33.23.73,30.11.28c-.11,0-.84-.1-4.56-.27h-.68A21,21,0,0,0,18,1.28c-.6-.08-.79-.13-.8-.13h0a6.65,6.65,0,0,0-2.78-.6A8.21,8.21,0,0,0,11.8,1l-.13,0a4.56,4.56,0,0,0-.72.21,2.63,2.63,0,0,1-.83.22h0a4.05,4.05,0,0,0-.87-.07c-.7,0-1.71.08-2.68.16s-1.68.13-2.15.13H4.25a2.48,2.48,0,0,0-1.89.79,2.86,2.86,0,0,0-.67,2.09l.06.7.83.58a2.76,2.76,0,0,0-2.31,1A1.65,1.65,0,0,0,.14,8.39c.18.43.56,1.3,5.93,3.78,0,0,2.61,1.1,3.37.71"/><path class="cls-2" d="M17,11.6s1.75,3.08,3.95,3.19-1.14-3.61-1.14-3.61Z"/><path class="cls-2" d="M36.32,8.85a20.85,20.85,0,0,0,9.06.63c5-.77,3.27-3.44,3.27-3.44L38.1,7.43Z"/><path class="cls-3" d="M45.77,5.38l-15.68-.8-15.87.23L6.59,9.17l1.55,2.22h0a1.35,1.35,0,0,0,.9,0,1,1,0,0,1,1,.06c3,1.63,4.7.38,4.7.38a22.19,22.19,0,0,0,8.17.89c1.16,0,12.25-2.61,12.25-2.61s10.55-2,13-2.72a9.65,9.65,0,0,1,1-.24l.23-.09,1-1Z"/><path class="cls-2" d="M18.15,2.81a19.4,19.4,0,0,1,7.34-1.3c3.83.17,4.41.25,4.41.25S27.65,3.85,26.21,4s-8.31-.33-8.31-.33Z"/><path class="cls-2" d="M33.13,4.32a13.27,13.27,0,0,1,5.69-1.75A13.29,13.29,0,0,1,45,4.46L35.29,5.57Z"/><path class="cls-4" d="M58.71,6.76a2.61,2.61,0,0,1-.14-3c.5-.69-.47-.66-.47-.66s-3.5-.28-4.36.14a18.6,18.6,0,0,1-4.17.52s-30.75-.22-33-1.25a6.25,6.25,0,0,0-4.61,0c-.33,0-1.28.59-2.11.42s-4.31.28-5.53.25S3.18,4.43,3.18,4.43l4.28,3S1.15,7,1.51,7.79s5.75,3.28,5.75,3.28a6.15,6.15,0,0,0,.88.32c1.07-3.56,8.19-8.31,41.52-4.28h0a8.61,8.61,0,0,1,4,.36,17.86,17.86,0,0,0,5.06.34c1.4-.09,0-1.06,0-1.06"/><path class="cls-2" d="M12.49,5.46a2,2,0,1,1-2-2,2,2,0,0,1,2,2"/><path class="cls-5" d="M11.51,5.29a1,1,0,1,1-1-1,1,1,0,0,1,1,1"/><path class="cls-2" d="M19.46,8.32s6.19-.39,8.25.55a4,4,0,0,1-3.5,1.84c-2.28-.2-2.53-.53-2.53-.53A2.06,2.06,0,0,0,20.24,10c-1.06.11-.78-1.67-.78-1.67"/></g></g></svg>