<svg xmlns="http://www.w3.org/2000/svg" viewBox="0 0 60.84 16.29"><defs><style>.cls-1{fill:#444;}.cls-2{fill:#867543;}.cls-3{fill:#f1e3b6;}.cls-4{fill:#dabc67;}.cls-5{fill:#867645;}.cls-6{fill:#b39a3f;}</style></defs><title>Dried_Pollock_1_1</title><g id="레이어_2" data-name="레이어 2"><g id="레이어_1-2" data-name="레이어 1"><path class="cls-1" d="M9.44,12.88a7.56,7.56,0,0,0,3.5.95,5.12,5.12,0,0,0,1.91-.35c.67.19,1.35.34,2,.47a6,6,0,0,0,4,2.34h.17a2.07,2.07,0,0,0,1.92-1,2.12,2.12,0,0,0,.23-1c2-.25,9.76-2,12.17-2.6L38.88,11a22,22,0,0,0,3.43.26,21.1,21.1,0,0,0,3.3-.25c2.65-.41,3.89-1.38,4.44-2.37a8.46,8.46,0,0,1,.87-.05,6.59,6.59,0,0,1,2.19.34,14.9,14.9,0,0,0,4.3.47c.52,0,1,0,1.39,0a1.93,1.93,0,0,0,2-1.35,2.17,2.17,0,0,0-1-2.31,1.34,1.34,0,0,1,0-1,1.86,1.86,0,0,0,.23-2,2,2,0,0,0-1.81-1c-.14,0-1.25-.09-2.38-.09a6.28,6.28,0,0,0-2.74.37,16.7,16.7,0,0,1-3.51.38s-2.34,0-5.77-.06A12.75,12.75,0,0,0,39,1.07h-.22a12.93,12.93,0,0,0-4.35,1L31.88,2,33.24.73,30.11.28c-.11,0-.84-.1-4.56-.27h-.68A21,21,0,0,0,18,1.28c-.6-.08-.79-.13-.8-.13h0a6.65,6.65,0,0,0-2.78-.6A8.21,8.21,0,0,0,11.8,1l-.13,0a4.56,4.56,0,0,0-.72.21,2.56,2.56,0,0,1-.83.22h0a4.05,4.05,0,0,0-.87-.07c-.7,0-1.71.08-2.68.16-.82.06-1.68.13-2.15.13H4.25a2.48,2.48,0,0,0-1.89.79,2.86,2.86,0,0,0-.67,2.09l.06.7.83.58a2.76,2.76,0,0,0-2.31,1A1.65,1.65,0,0,0,.14,8.39c.18.43.56,1.3,5.94,3.78,0,0,2.6,1.1,3.36.71"/><path class="cls-2" d="M17,11.6s1.75,3.08,3.95,3.19-1.14-3.61-1.14-3.61Z"/><path class="cls-2" d="M36.32,8.85a20.85,20.85,0,0,0,9.06.63c5-.77,3.27-3.44,3.27-3.44L38.1,7.43Z"/><path class="cls-3" d="M50.85,6.13,44,5.5l-15.1-.88-14.53.12L6.2,9.92l1.94,1.47h0a1.35,1.35,0,0,0,.9,0,1,1,0,0,1,1,.06c3,1.63,4.7.38,4.7.38a22.19,22.19,0,0,0,8.17.89c1.16,0,12.25-2.61,12.25-2.61s10.55-2,13-2.72a7.55,7.55,0,0,1,.86-.2l.66-.11Z"/><path class="cls-2" d="M18.15,2.81a19.4,19.4,0,0,1,7.34-1.3c3.83.17,4.41.25,4.41.25S27.65,3.85,26.21,4s-8.31-.33-8.31-.33Z"/><path class="cls-2" d="M33.13,4.32a13.27,13.27,0,0,1,5.69-1.75A13.29,13.29,0,0,1,45,4.46L35.29,5.57Z"/><path class="cls-4" d="M58.71,6.76a2.61,2.61,0,0,1-.14-3c.5-.69-.47-.66-.47-.66s-3.5-.28-4.36.14a18.53,18.53,0,0,1-4.17.52s-30.75-.22-33-1.25a6.25,6.25,0,0,0-4.61,0c-.33,0-1.28.59-2.11.42s-4.31.28-5.53.25S3.18,4.43,3.18,4.43l4.28,3S1.15,7,1.51,7.79s5.75,3.28,5.75,3.28a6.15,6.15,0,0,0,.88.32c1.08-3.56,8.2-8.31,41.53-4.28h0a8.59,8.59,0,0,1,4,.36,17.86,17.86,0,0,0,5.06.34c1.4-.09,0-1.06,0-1.06"/><path class="cls-5" d="M12.49,5.46a2,2,0,1,1-2-2,2,2,0,0,1,2,2"/><path class="cls-6" d="M11.51,5.29a1,1,0,1,1-1-1,1,1,0,0,1,1,1"/><path class="cls-2" d="M19.46,8.32s6.19-.39,8.25.55a4,4,0,0,1-3.5,1.84c-2.28-.2-2.53-.53-2.53-.53A2.06,2.06,0,0,0,20.24,10c-1.06.11-.78-1.67-.78-1.67"/></g></g></svg>