<svg xmlns="http://www.w3.org/2000/svg" viewBox="0 0 48.63 32.46"><defs><style>.cls-1{fill:#444;}.cls-2{fill:#a65a32;}.cls-3{fill:#e9c4ba;}.cls-4{fill:#dc907f;}</style></defs><title>Duck_meat</title><g id="Layer_2" data-name="Layer 2"><g id="레이어_1" data-name="레이어 1"><path class="cls-1" d="M38,32.46A5.6,5.6,0,0,1,34.6,31a4.28,4.28,0,0,1-1.54-1.21,22.7,22.7,0,0,1-2.75,1.95,3.25,3.25,0,0,1-1.59.41,5.41,5.41,0,0,1-3.44-1.57,4.14,4.14,0,0,1-2-2.23,29.58,29.58,0,0,1-7.7.95,16.29,16.29,0,0,1-1.68-.07c-2.35-.26-3.2-2.76-3.41-3.88-.06-.12-.12-.25-.17-.38a29,29,0,0,1-8.94-4c-1.64-1.21-1.59-3.43-1-5.07a4.37,4.37,0,0,1,2.15-3.5,4.69,4.69,0,0,1,1-2.29,2.93,2.93,0,0,1,2-1.2,4.34,4.34,0,0,0,.47-.07A9.82,9.82,0,0,1,9,6.7a16.81,16.81,0,0,1,9.36-3.42,3,3,0,0,1,2.2-1.72,2.54,2.54,0,0,1,.16-.38A2.16,2.16,0,0,1,22.22.08h.22a3.88,3.88,0,0,1,.67.06,4.57,4.57,0,0,1,.75,0,4.35,4.35,0,0,1,.51,0V0L25,.18a8.74,8.74,0,0,1,1.45.43c.35,0,.7,0,1.05,0A9.65,9.65,0,0,1,32,1.64a11.14,11.14,0,0,1,4-.75c3,0,8.35,1.3,11,10,2.44,8,1.8,10.24.53,12.75-.11.22-.22.44-.33.68C45.94,27.05,41.3,31,39.67,32a3.24,3.24,0,0,1-1.72.49Z"/><path class="cls-2" d="M25.44,3.46c3.22,3.4,4.6,9.37-2.73,15.29s-8.84,5-11.38,4.87S3.69,20.85,2.27,19.8s-.42-3.56-.42-3.56l10-1.16,11.75-8.2Z"/><path class="cls-3" d="M4,13.4a3.1,3.1,0,0,0-2.14,2.69c-.07,2.06-.33,2.55,4.27,4.34s6.37,2.55,9.06,1.95S26.79,14,27.27,10,25,1.57,22.44,1.57c0,0-1,.15-.26,1.68L14.06,11.3Z"/><path class="cls-4" d="M5.78,17.25c1.64,1,8.28,1.57,11.24,0s3.7-3.85,5.84-5.2A6.14,6.14,0,0,0,25.44,7c0-1.13-1.5-2.62-1.91-3.26s-1.35-.45-1.35-.45a1.78,1.78,0,0,0-2.73,1.5S13.68,4.6,9.79,8c0,0-2.47,1.16-3,2.24a7,7,0,0,1-1.23.23c-.75.07-1.8,1.5-1.61,3A4.28,4.28,0,0,0,5.78,17.25Z"/><path class="cls-2" d="M26,2.05c4.49,1.34,8.67,5.83,5.26,14.61s-5.18,8.73-7.44,9.9-8,1.41-9.75,1.21-2.14-2.87-2.14-2.87l8.12-6,6.1-13Z"/><path class="cls-3" d="M12.36,21.36a3.11,3.11,0,0,0-.5,3.4c1,1.83,1,2.38,5.86,1.64s6.79-1,8.83-2.83,5.85-13.09,4.3-16.78S24.66.63,22.46,1.9c0,0-.77.62.61,1.59l-3,11Z"/><path class="cls-4" d="M15.85,23.81c1.91.06,8-2.77,9.73-5.6S26.87,13,28,10.78a6.11,6.11,0,0,0-.3-5.7c-.59-1-2.6-1.52-3.28-1.87a1.38,1.38,0,0,0-1.39.28c-2.71.4-1.62,2.66-1.62,2.66s-5.07,2.75-6.77,7.61c0,0-1.56,2.24-1.44,3.43a6.6,6.6,0,0,1-1,.81c-.61.44-.81,2.19.08,3.36A4.31,4.31,0,0,0,15.85,23.81Z"/><path class="cls-2" d="M24.24,2.61C28.66,1.08,34.68,2.28,37,11.4s.9,10.11-.25,12.38-5.67,5.82-7.21,6.68-3.42-1.08-3.42-1.08l3.08-9.63L26.62,5.66Z"/><path class="cls-3" d="M24.45,26.25A3.12,3.12,0,0,0,26,29.31c1.85.92,2.18,1.36,5.72-2.1s4.94-4.75,5.5-7.45-2.89-14-6.31-16.13-8.61-1.39-9.66.93c0,0-.27,1,1.43.94l4,10.71Z"/><path class="cls-4" d="M28.71,26.21c1.59-1.08,4.84-6.9,4.63-10.24s-2-5-2.34-7.46a6.12,6.12,0,0,0-3.58-4.45c-1-.43-3,.28-3.75.39s-1,1-1,1c-2,1.9.23,3.1.23,3.1s-2.51,5.19-1,10.13c0,0,0,2.73.83,3.62a7.35,7.35,0,0,1-.31,1.22c-.24.71.63,2.25,2,2.68A4.29,4.29,0,0,0,28.71,26.21Z"/><path class="cls-2" d="M31.88,3.1C36.23,1.38,42.29,2.33,45,11.34s1.32,10.06.27,12.38-5.42,6.05-6.92,7-3.46-.94-3.46-.94L37.6,20l-3.22-14Z"/><path class="cls-3" d="M33.09,26.71a3.1,3.1,0,0,0,1.7,3c1.89.83,2.24,1.26,5.62-2.34s4.74-5,5.19-7.68-3.48-13.91-7-15.84S30,2.81,29,5.17c0,0-.22,1,1.47.88L34.9,16.59Z"/><path class="cls-4" d="M37.34,26.48c1.54-1.13,4.54-7.09,4.19-10.42s-2.2-4.87-2.65-7.36a6.11,6.11,0,0,0-3.76-4.29c-1.06-.39-3,.41-3.73.55s-.92,1.09-.92,1.09c-1.89,2,.37,3.09.37,3.09s-2.3,5.29-.62,10.16c0,0,.15,2.73,1,3.58A6.76,6.76,0,0,1,31,24.11c-.21.73.71,2.23,2.14,2.6A4.27,4.27,0,0,0,37.34,26.48Z"/></g></g></svg>