<svg xmlns="http://www.w3.org/2000/svg" viewBox="0 0 59.29 43.44"><defs><style>.cls-1{fill:#444;}.cls-2{fill:#70685b;}.cls-3{fill:#323838;}.cls-4{fill:#fff;}</style></defs><title>Eel</title><g id="레이어_2" data-name="레이어 2"><g id="레이어_1-2" data-name="레이어 1"><path class="cls-1" d="M54.13,43.44c-2.72,0-6.18-4.28-7.59-6.21a6.78,6.78,0,0,1-1.74-2.54c-.06-.16-.1-.26-.79-.79a8.21,8.21,0,0,1-2.87-4.81A11,11,0,0,1,37,30a6.09,6.09,0,0,1-3.75-1.1l-.09-.08-.08-.09A4.06,4.06,0,0,1,32,25.06c.49-2.35,3.17-3.64,3.47-3.77l.15-.07.16,0a11.69,11.69,0,0,1,2.58-.3h.49q-.61-.75-1.41-1.62a3.12,3.12,0,0,0-2.37-.79c-4.15,0-10.2,3.58-10.26,3.62l-.07,0-.07,0c-4.64,2.13-8.77,3.21-12.28,3.21-4.57,0-6.73-1.82-7.3-2.4C-.91,18.45-.58,13.9.94,10.71a5,5,0,0,1,.93-3.9l.74-1C3.82,4.14,4.55,3.14,5.93,2.9l.7-.45A9.54,9.54,0,0,1,11.91.54c2.67,0,7.37-.49,7.61-.51A4.33,4.33,0,0,1,20,0a2.3,2.3,0,0,1,2.32,1.31c.59,1.39-.53,2.8-1.57,3.88C18.69,7.35,14.59,9,11.47,10,8.63,11.53,8,12.89,8,13.37l.07.13-.06,0c.51,2.5,1.85,3.61,4.36,3.61h0c4,0,9-3,9.07-3,5.34-3.47,10.3-5.24,14.69-5.24,7.5,0,11.74,4.95,13.94,9a6.27,6.27,0,0,1,4.08-1.64c2.51,0,4.48,1.07,5,2.73.21.66.47,2.34-1.63,3.87a9.81,9.81,0,0,1-2.81,1.36A8.86,8.86,0,0,1,56,29.6a6.84,6.84,0,0,1,1.1,3.56l.18,1.72c.55,5.17.78,7.3-2.28,8.4a2.51,2.51,0,0,1-.9.16"/><path class="cls-2" d="M3.08,12.15a3.92,3.92,0,0,1,0-4.44C4.69,5.54,5.25,4.54,6.19,4.37S9.08,2,11.91,2s7.78-.52,7.78-.52,2.94-.43,0,2.63-11,5.06-11,5.06Z"/><path class="cls-2" d="M44.08,24.87c-.17.06-2.45-3.44-8-2.22,0,0-4.5,2.06-1.83,5.06,0,0,3.22,2.66,9.83-1.95Z"/><path class="cls-2" d="M49,21.54s1.94-3.89,5.16-3.89,4.95,2.11,2.5,3.89-7,1.94-7,1.94Z"/><path class="cls-3" d="M18.41,3.15a9.51,9.51,0,0,0-8.5.78c-4.55,2.66-14,10.28-3.83,17.94,0,0,4.39,5.17,17.94-1.05,0,0,10.89-6.5,14.5-2.56s4.56,6.28,4.56,6.28.44.55-.34,1.83.12,4.78,2.17,6.34.45,1.11,2.78,3.55c0,0,4.67,6.39,6.83,5.61s1.78-2.11,1.11-8.61c0,0-.05-2.22-1.16-3.17,0,0,1.05-5.61-3.95-7.33,0,0-5.78-22-28.33-7.39,0,0-13.67,8.17-15.67-1.61,0,0-.83-2.61,5-5.5s6.94-5.11,6.94-5.11"/><path class="cls-4" d="M49.3,36.08a.5.5,0,0,1,.76.18c.28.52,1,1.21.46,1.78s-1.09-.52-1.09-.52-.78-.91-.13-1.44"/><path class="cls-4" d="M55,34.54s-.31,0-.22.69,0,1.48.5,1.46.35-2.19-.28-2.15"/><path d="M50.47,36.91c-.11.71-.76.28-.89-.22s.48-.43.48-.43Z"/><path d="M54.81,36.14c.25.24.4-.29.33-.79s-.41-.27-.41-.27Z"/></g></g></svg>