<svg xmlns="http://www.w3.org/2000/svg" viewBox="0 0 50.49 46.83"><defs><style>.cls-1{fill:#444;}.cls-2{fill:#a9d15e;}.cls-3{fill:#85378d;}</style></defs><title>Eggplant</title><g id="Layer_2" data-name="Layer 2"><g id="레이어_1" data-name="레이어 1"><path class="cls-1" d="M36.67,46.83a14.1,14.1,0,0,1-1.94-.12C20.38,43.85,9.9,27.33,6.89,22.08c-.31.2-.63.37-1,.54L3.54,23.78l.24-2.65a7.44,7.44,0,0,0-.18-2.75C2.93,17,3,14.08,3.06,13.22A8.75,8.75,0,0,1,5,8.63c0-.14-.31-1.24-3.85-2.76L0,5.38l.25-1.2A6.45,6.45,0,0,1,3,.56L3.75,0l.84.49A22.07,22.07,0,0,1,9.84,5.1a6.33,6.33,0,0,1,1.5-.17,10.78,10.78,0,0,1,4.71,1.25A25.91,25.91,0,0,0,20.93,7.8l2.63.57-1.87,1.94c-.05,0-.23.23-.53.48,7.3,7.88,14.66,9.63,14.74,9.64,6.43,1.47,9.33,4.07,9.8,4.53,5.79,5,5.18,10.95,4,13.46-2.9,7.59-10.09,8.41-13.06,8.41Z"/><path class="cls-2" d="M1.72,4.49a5,5,0,0,1,2.11-2.7A20.72,20.72,0,0,1,9.35,6.9s1.93-1.4,6,.63a27.17,27.17,0,0,0,5.22,1.74s-4.33,4.52-10.48.77c0,0,1.33,8.23-4.85,11.23A9,9,0,0,0,5,17.73c-.56-1.15-.39-4.43-.39-4.43A7.3,7.3,0,0,1,6.18,9.51S8.16,7.28,1.72,4.49Z"/><path class="cls-3" d="M10.13,10c.78,6.9-2.77,9.79-2.77,9.79S18.79,42,35,45.23c0,0,10,1.56,13.39-7.39,0,0,2.89-6.17-3.67-11.78,0,0-2.55-2.66-9.11-4.16,0,0-8.56-1.9-16.67-11.39a8.34,8.34,0,0,1-8.39-.24Z"/></g></g></svg>