<svg xmlns="http://www.w3.org/2000/svg" viewBox="0 0 60.64 37.18"><defs><style>.cls-1{fill:#444;}.cls-2{fill:#ffc363;}.cls-3{fill:#ffa733;}.cls-4{fill:#fcb247;}.cls-5{fill:#f38e01;}.cls-6{fill:#ffb401;}</style></defs><title>Emmental</title><g id="Layer_2" data-name="Layer 2"><g id="레이어_1" data-name="레이어 1"><path class="cls-1" d="M3.3,37.18c-1.8,0-2.63-1.94-2.78-2.33l-.1-.25L0,15.71,35.15,0l.58.22c.69.26,16.92,6.45,24.13,11.25l.78.52L58.1,30.89,40,33.59l-.53-.48a.71.71,0,0,0-.53-.17,3.14,3.14,0,0,0-1.28.36l-.21.12-6.31,1.24h-.19s-.42,0-1,0a8.61,8.61,0,0,0-3.16.38l-.26.14-6.6.57-.16,0s-.45-.05-1.06-.05a6.51,6.51,0,0,0-2.31.34l-.21.09L3.66,37.15A2.19,2.19,0,0,1,3.3,37.18Z"/><path class="cls-2" d="M1.52,16.68,35.2,1.62S51.88,8,59,12.72L46.36,13.9s-5.61-1.91-6.74.66L13.14,16a6.53,6.53,0,0,0-7,.73Z"/><path class="cls-3" d="M1.52,16.68l.4,17.63s.59,1.55,1.55,1.35.2-14.1.2-14.1a9.16,9.16,0,0,1-1.82-4.88Z"/><path class="cls-4" d="M6.14,16.68s.9,3.67,4.53,2.4A3.94,3.94,0,0,0,13.14,16l26.48-1.39a3,3,0,0,0,4,2.71c3.7-.89,2.74-3.37,2.74-3.37L59,12.72,56.76,29.57,40.45,32s.43-2.35-1.55-2.78-2,2.78-2,2.78L31,33.15s-3-2.11-4.92.53L20,34.21s-1.69-2-4.13.4l-12.35,1s1,.73.2-14.1a9.16,9.16,0,0,1-1.82-4.88Z"/><path class="cls-5" d="M25.32,16.22a3.73,3.73,0,0,0-3.68,4.13s0,3.13,3.43,2.62c0,0,3.37-.75,2.8-4.91A2.18,2.18,0,0,0,25.32,16.22Z"/><path class="cls-5" d="M30.44,23.85A2.93,2.93,0,0,0,27,26.63c-.24,3.21,4.23,2.07,4.23,2.07s1.82-.53,1.12-3.17A1.94,1.94,0,0,0,30.44,23.85Z"/><path class="cls-5" d="M49.11,18.77s-1.43.46-.84,1.47,1.35.36,1.35.36a1,1,0,0,0,.28-1.39S49.6,18.53,49.11,18.77Z"/><path class="cls-6" d="M29.66,10.43s-3.13,0-3.33,1.3,4.82,1,4.82,1,2.31-.07,1.91-1.65C33.06,11.07,32.88,10.25,29.66,10.43Z"/><path class="cls-6" d="M24.94,10.27S22.08,12,19.51,11c0,0-1.3-.4.55-1.26S24.94,10.27,24.94,10.27Z"/><path class="cls-6" d="M36.81,6.71S34.21,7.1,35,7.87a3.61,3.61,0,0,0,3.83-.26C40.64,6.2,36.81,6.71,36.81,6.71Z"/><path class="cls-6" d="M46.93,11.11a3,3,0,0,1,2.53-.84c1.76.13,1.85.93,1.85.93s.35,1.23-2.86.86C48.45,12.06,47,12.08,46.93,11.11Z"/><path class="cls-6" d="M6.14,16.68a6.23,6.23,0,0,1,7-.73Z"/><path class="cls-5" d="M6.14,16.68l7-.73a3.59,3.59,0,0,1-2.47,3.13S7.33,20.74,6.14,16.68Z"/><path class="cls-6" d="M39.62,14.56s.63-2.6,6.74-.66Z"/><path class="cls-5" d="M39.62,14.56l6.74-.66s1.06,2.68-2.74,3.37C43.62,17.27,40.09,18.66,39.62,14.56Z"/><line class="cls-6" x1="39.62" y1="14.56" x2="46.36" y2="13.9"/><path class="cls-5" d="M38.9,29.22c-2.25-.24-2,2.78-2,2.78s2.18-1.26,3.57,0C40.45,32,41.28,29.49,38.9,29.22Z"/><path class="cls-5" d="M31,33.15s-3.53-.19-4.92.53C26.09,33.68,27.51,30.81,31,33.15Z"/><path class="cls-5" d="M20,34.21a9.79,9.79,0,0,0-4.13.4S17.83,31.87,20,34.21Z"/></g></g></svg>