<svg xmlns="http://www.w3.org/2000/svg" viewBox="0 0 17.22 50.44"><defs><style>.cls-1{fill:#444;}.cls-2{fill:#fbf6d9;}.cls-3{fill:#e5dfc1;}</style></defs><title>Enoki_mushroom</title><g id="Layer_2" data-name="Layer 2"><g id="레이어_1" data-name="레이어 1"><path class="cls-1" d="M15.44,3.59A2.74,2.74,0,0,0,14,1.9a2,2,0,0,0-.76-.14A2.77,2.77,0,0,0,10.73,3.4a1.71,1.71,0,0,0,.57,1.91L7.41,50.44H11l0-.3c.15-1.54,3.59-36.65,3.74-44.3a1.71,1.71,0,0,0,.42-.44A2.1,2.1,0,0,0,15.44,3.59Z"/><path class="cls-2" d="M12.42,4s.62-.67,1.32.45-3.66,45.61-3.66,45.61H8.45Z"/><path class="cls-3" d="M12.7,5s-1.3-.47-1-1.25a1.75,1.75,0,0,1,2-.92c.52.23,1.22,1.31.75,2S12.7,5,12.7,5Z"/><path class="cls-1" d="M10.08,49.05a1,1,0,0,1,.87.55c-.35-1-1.61-11.19-2.72-20.2C7,19.66,5.78,9.6,5.08,5.79a1.89,1.89,0,0,0,.53-1.32C5.61,3,4.16,2.15,2.72,2.15a2.67,2.67,0,0,0-.5,0,2.73,2.73,0,0,0-2,1.52,2.16,2.16,0,0,0,0,2,1.84,1.84,0,0,0,.87.79C2,14.24,7.23,48.69,7.46,50.2l0,.24h2.58Z"/><path class="cls-2" d="M2,4.93a1.81,1.81,0,0,1,1.67-.49c.88.31,5.73,45.61,6.39,45.61H8.45S1.58,5.26,2,4.93Z"/><path class="cls-3" d="M2.89,5.71S1.53,6,1.11,5.24,1.5,3.3,2.36,3.17s2.25.22,2.25,1.3S2.89,5.71,2.89,5.71Z"/><path class="cls-1" d="M11.08,50c0-1.6-.74-38.35-1.42-46.4a1.83,1.83,0,0,0,.44-1C10.31,1.19,9,.26,7.63,0H7.35A2.5,2.5,0,0,0,4.62,2.1,1.94,1.94,0,0,0,5.38,4l1.5,46.49h4.2Z"/><path class="cls-2" d="M6.33,2.23s1.38-.92,2.12,0,1.63,47.82,1.63,47.82H7.87Z"/><path class="cls-3" d="M7.22,3.45s-1.77.11-1.61-1.23S7.45,1,7.45,1s1.83.34,1.66,1.5S7.22,3.45,7.22,3.45Z"/><path class="cls-1" d="M16.6,7.4a1.86,1.86,0,0,0,.32-1.65A1.8,1.8,0,0,0,15,4.51a5.61,5.61,0,0,0-1.47.24,2.21,2.21,0,0,0-1.37.94,2.37,2.37,0,0,0-.3,1.86,1.45,1.45,0,0,0,.47.76c-1,18.31-3,38.78-5.17,41.05l-1,1.08h4.23v0C11.31,47.92,16.57,14.55,16.6,7.4Z"/><path class="cls-2" d="M7.87,50.05C11.45,46.27,13.4,6.88,13.4,6.88a1.57,1.57,0,0,1,2-.72c1.33.55-4.85,40.94-6,43.89Z"/><path class="cls-3" d="M14.71,7.58s-1.7.51-1.89-.27a1.26,1.26,0,0,1,.94-1.59S15.68,5.09,16,6,14.71,7.58,14.71,7.58Z"/><path class="cls-1" d="M9.71,49.8c-.25-1-.91-10-1.5-17.93-.66-9-1.35-18.35-1.81-21.94a1.92,1.92,0,0,0,.29-2,2,2,0,0,0-2-1.2,4.94,4.94,0,0,0-1.31.22A2.47,2.47,0,0,0,1.93,9.66a1.46,1.46,0,0,0,.88,1.14c.94,14.42,2.56,37.87,3.3,39.64H9.87Z"/><path class="cls-2" d="M8.74,50.05C8.13,47.66,5.83,8.92,5.12,8.59a1.49,1.49,0,0,0-1.43.26S6.2,48.27,7,50.05Z"/><path class="cls-3" d="M4.92,9.89s-1.89.44-2-.37a1.51,1.51,0,0,1,.75-1.63c.41-.12,1.69-.53,2.11.41S4.92,9.89,4.92,9.89Z"/><path class="cls-1" d="M10.43,50C10.36,48.52,8.92,14.87,8,7a1.59,1.59,0,0,0,.73-1.73A2.49,2.49,0,0,0,6.35,3.44a2,2,0,0,0-.34,0A2.18,2.18,0,0,0,3.89,5.74,1.61,1.61,0,0,0,4.67,7.2L6.89,50.44h3.55Z"/><path class="cls-2" d="M5.6,5.76S5.82,5,6.69,5.51,9.43,50.05,9.43,50.05H7.87Z"/><path class="cls-3" d="M6.52,6.44s-1.66.37-1.63-.68.61-1.2,1.28-1.3a1.47,1.47,0,0,1,1.57,1C7.89,6.1,7.09,6.37,6.52,6.44Z"/><path class="cls-1" d="M11.16,50.06c0-1.5.65-35.85.45-44a1.64,1.64,0,0,0,.7-1A1.92,1.92,0,0,0,12,3.52a2.7,2.7,0,0,0-1.8-1l-.32,0a2.27,2.27,0,0,0-1.63.66A2,2,0,0,0,7.7,4.61a1.67,1.67,0,0,0,.4,1.06L7.53,50.44h3.63Z"/><path class="cls-2" d="M9.11,4.44s.9-.84,1.38,0-.33,45.61-.33,45.61H8.54Z"/><path class="cls-3" d="M9.84,5.39s-1.11,0-1.14-.81a1.11,1.11,0,0,1,1.37-1.1c.66.08,1.43.6,1.27,1.37S9.84,5.39,9.84,5.39Z"/><path class="cls-2" d="M9.81,11.91s-1.32-.14-1.36-.84,1-1.05,1.36-1,1.31.25,1.29,1.11S9.81,11.91,9.81,11.91Z"/><path class="cls-2" d="M9.19,11s.77-.81,1.11,0-.22,39.07-.22,39.07H8.45S9.19,12.24,9.19,11Z"/><path class="cls-1" d="M10.38,49.73c-.23-.88-.62-9.46-1-17C9,24.43,8.63,15.89,8.28,12.42a1.87,1.87,0,0,0,.52-1.66A2,2,0,0,0,6.64,9.12l-.41,0a2.29,2.29,0,0,0-2.11,2.41,1.63,1.63,0,0,0,.52,1.17C5.14,28.84,5.94,48.05,7,50.44h3.71Z"/><path class="cls-2" d="M9.43,50.05C8.89,48.77,7.73,11.49,7,11s-1.43.39-1.43.39S6.67,48.16,7.87,50.05Z"/><path class="cls-3" d="M6.7,12.24s-1.55.23-1.58-.72a1.3,1.3,0,0,1,1.14-1.38c.39,0,1.39-.15,1.55.79S6.7,12.24,6.7,12.24Z"/><path class="cls-1" d="M10.43,50.09c.05-1.41,1.38-33.59,1.12-41a1.62,1.62,0,0,0,.65-1,2.07,2.07,0,0,0-.51-1.6,2.56,2.56,0,0,0-1.83-1H9.74a3.36,3.36,0,0,0-2.42.94A1.71,1.71,0,0,0,7.57,9L6.5,50.44h3.91Z"/><path class="cls-2" d="M8.61,7.54a1.19,1.19,0,0,1,1.8.16c.72,1.07-1,42.35-1,42.35H7.51Z"/><path class="cls-3" d="M9.57,8.56S8,8.53,7.88,7.7,9,6.48,9.82,6.5s1.48.89,1.39,1.39S10.38,8.68,9.57,8.56Z"/><path class="cls-1" d="M8.8,15.58a1.76,1.76,0,0,0,.62-1.68,1.85,1.85,0,0,0-2-1.48,3.31,3.31,0,0,0-.75.08h0a2.2,2.2,0,0,0-2,2.16,1.66,1.66,0,0,0,1.2,1.56C6.9,31.11,7.56,47,6.58,49.7l-.28.74H9.36C10.76,47.4,9.55,21.55,8.8,15.58Z"/><path class="cls-2" d="M8.45,50.05c1.43-2.62-.16-35.37-.94-35.67s-.82.25-.82.25,2.43,31.08.82,35.42Z"/><path class="cls-3" d="M7.13,15.3s-1.5.3-1.53-.67,1.17-1.14,1.17-1.14,1.5-.36,1.67.58S7.13,15.3,7.13,15.3Z"/><path class="cls-1" d="M13.2,7.75h-.15a2.34,2.34,0,0,0-2.54,2.09A1.77,1.77,0,0,0,11,11.18c-.85,10-3.54,38.48-3.56,38.77l0,.49h4l0-.3c.13-1.33,3.14-31.68,3.39-38.71a1.64,1.64,0,0,0,.68-.62,1.35,1.35,0,0,0,.19-.91A2.34,2.34,0,0,0,13.2,7.75Z"/><path class="cls-2" d="M12.13,10s1.08-.56,1.65,0-3.34,40-3.34,40h-2S11.41,18.64,12.13,10Z"/><path class="cls-3" d="M12.92,10.81s-1.44.14-1.41-1,1.58-1.11,1.58-1.11S14.62,8.61,14.7,10C14.7,10,15,10.78,12.92,10.81Z"/><path class="cls-1" d="M17,12a2.92,2.92,0,0,0-1.63-1.36A4.6,4.6,0,0,0,14,10.37a1.76,1.76,0,0,0-1.92,1.72A2.24,2.24,0,0,0,12.92,14C12.2,36.77,8.5,49.64,8.47,49.76l-.2.68h3.52c.73-1.11,1.62-4.61,2.91-16.79.82-7.74,1.46-15.93,1.65-19.18a1.75,1.75,0,0,0,.62-.58l.05-.08,0-.08A2.21,2.21,0,0,0,17,12Z"/><path class="cls-2" d="M14,12.56s1.39-1,1.45.54-2.59,36.33-4.68,36.95H9.43S13.35,36.68,14,12.56Z"/><path class="cls-3" d="M14.29,13.54a1.34,1.34,0,0,1-1.19-1.41c.05-1.26,2-.57,2-.57s1.57.5,1.07,1.81C16.12,13.37,15.71,14.09,14.29,13.54Z"/><path class="cls-1" d="M13.23,13.27A2.29,2.29,0,0,0,11,11.58s-.18,0-.44,0a2.43,2.43,0,0,0-2,.75,1.57,1.57,0,0,0-.25,1.37,2.09,2.09,0,0,0,.65,1.06C9.19,30.23,9,46.81,8,49.34l-.43,1.1h3.27l.14-.3c.94-2,1.61-29.44,1.44-35.26A1.59,1.59,0,0,0,13.23,13.27Z"/><path class="cls-2" d="M10.08,49.71c.82-1.72,1.77-35.41,1.21-36s-1.39,0-1.39,0,.64,32-1,36.05Z"/><path class="cls-3" d="M10.9,14.38s-1.39.09-1.66-1,1.66-.85,1.66-.85,1.23.12,1.34.85S10.9,14.38,10.9,14.38Z"/></g></g></svg>