<svg xmlns="http://www.w3.org/2000/svg" viewBox="0 0 59.99 35.06"><defs><style>.cls-1{fill:#444;}.cls-2{fill:#f9cb9b;}.cls-3{fill:#a37957;}.cls-4{fill:#fff;}.cls-5{fill:#1d1d1d;}</style></defs><title>Flounder</title><g id="레이어_2" data-name="레이어 2"><g id="레이어_1-2" data-name="레이어 1"><path class="cls-1" d="M27,35.06a22.5,22.5,0,0,1-5.26-.65,15.67,15.67,0,0,1-10-5.15l-.28-.15c-4-2-4.52-2.89-4.68-3.18A8.19,8.19,0,0,0,6,24.87,4.9,4.9,0,0,1,3.12,23,7.63,7.63,0,0,0,2,21.84,4.73,4.73,0,0,1,.09,19.13,2.83,2.83,0,0,1,.4,17l.09-.13c0-.1,0-.19.07-.29a3,3,0,0,1,1.69-1.82l.29-.24A2.81,2.81,0,0,1,5.33,12h.06c.72-.67,1.31-1.24,1.75-1.7a17.41,17.41,0,0,1,4.62-3.65C12.85,5,15.4,2.4,21.17,1a31.58,31.58,0,0,1,7.18-1,8.23,8.23,0,0,1,4.18.83C34,1.34,42.79,4.64,45.83,9.6c.58.94,1.12,1.74,1.6,2.38,1.25-.47,4.08-1.53,5.78-2.14a7.63,7.63,0,0,1,2.65-.52,3.79,3.79,0,0,1,1.85.4l.35.2.21.35c.56,1,2.18,4.08,1.41,6.2l.11.36A4.5,4.5,0,0,1,59,21.05a4,4,0,0,1-.87,2.73,3,3,0,0,1-2.23,1.44,1.56,1.56,0,0,1-.57-.1,19,19,0,0,1-5.14-1.63,19.58,19.58,0,0,0-3.06-1.18,24.57,24.57,0,0,1-3.26,4.84l0,.07-.07.06A27.24,27.24,0,0,1,34.84,33c-.72.31-1.49.64-2.34,1A12.81,12.81,0,0,1,27,35.06"/><path class="cls-2" d="M12.36,8.88s.86-4.41,9.16-6.41,10.34-.28,10.34-.28,9.69,3.31,12.69,8.19S48.64,15,48.64,15l-17.5.66-14.5-4.41Z"/><path class="cls-2" d="M12.72,28s2.78,4,9.33,4.9c0,0,5.81,1.58,9.81-.31s6-2.13,10.89-6.47c0,0,3.83-4.36,4-7.64L13.8,23.16,12.47,27Z"/><path class="cls-3" d="M47.36,13.61s4.14-1.56,6.36-2.36S57,11,57,11s2.19,3.81,1.14,5.25c0,0-.89.48-.45.67s.69.31.69.31.62,2.11-.74,3c0,0-.39.06-.11.92s-1.25,2.87-1.75,2.48a17.08,17.08,0,0,1-4.92-1.54,15.84,15.84,0,0,0-4.19-1.47,5.87,5.87,0,0,0-4,1.86c-2.09,2-11.25,5.64-11.25,5.64a32.07,32.07,0,0,1-10.64,1.42s-6.28-.53-8.53-1.78c0,0-3.67-1.83-4.11-2.61a12.1,12.1,0,0,0-1.36-1.75A3,3,0,0,1,4.3,22.05c-1.16-1.5-2.41-1.78-2.75-3.25,0,0-.29-1.14.51-1.25,0,0-.55-.85,1-1.55,0,0,3.41-2.8,5.17-4.67a13.9,13.9,0,0,1,4.53-3.46A30,30,0,0,1,38.22,9.5s5,2.27,6.28,3.55a2.64,2.64,0,0,0,2.86.56"/><path class="cls-2" d="M14,20.3a4,4,0,0,0,2.63-1.08,14.66,14.66,0,0,1,1.92-1.52,4.9,4.9,0,0,0,.8-.45c.86-1-.25-.92-.25-.92-4.89-.14-6.53,3.11-6.53,3.11s1.25-.22,1.43.58Z"/><path class="cls-4" d="M6.64,14.8a1.31,1.31,0,1,1-1.31-1.31A1.31,1.31,0,0,1,6.64,14.8"/><path class="cls-5" d="M5.87,14.8a.54.54,0,1,1-.54-.54.54.54,0,0,1,.54.54"/></g></g></svg>