<svg xmlns="http://www.w3.org/2000/svg" viewBox="0 0 52.14 44.38"><defs><style>.cls-1{fill:#444;}.cls-2{fill:#c23b4a;}.cls-3{fill:#f5d7cd;}.cls-4{fill:#ddbfb6;}</style></defs><title>Forelimb_1</title><g id="Layer_2" data-name="Layer 2"><g id="Layer_1-2" data-name="Layer 1"><path class="cls-1" d="M7.54,10,1.47,22.48A12.92,12.92,0,0,0,.18,29.31c-.16,1-.61,4.71,1,7.07a13.68,13.68,0,0,0,3.18,3,9.5,9.5,0,0,1,2.51,2.39c.4.73,2.06,2.44,8.66,2.44h1a3.9,3.9,0,0,0,1.23.18,9.87,9.87,0,0,0,3.48-.79l.63.09a4.86,4.86,0,0,0,2.3.47,15.86,15.86,0,0,0,4.59-.85,13.86,13.86,0,0,0,5.38.84,38.71,38.71,0,0,0,4-.23h.09c1,0,5.92-.33,7.67-7a2.43,2.43,0,0,0,.09-.3c.08-.19.23-.55.42-1l.22-.54c.14-.37.31-.79.49-1.27.56-1.46,1.39-3.73,2.16-6.19l.52-1.78c1.19-4.23,1.65-7.38,1.4-9.61a26.15,26.15,0,0,0,.65-2.8A23.58,23.58,0,0,0,52,7.86a5.79,5.79,0,0,0-1.71-3.34l-.15-.14L50,4.29a8.52,8.52,0,0,0-3.63-.68A17,17,0,0,0,38.21,6l-1.3.77c-.27.17-.54.34-.8.52A24,24,0,0,0,35,3.63a6,6,0,0,0-2.82-3L31.93.55l-.19,0a4.59,4.59,0,0,0-.68,0c-1.22,0-4.18.33-7.7,3.12l-.11-.18A6.62,6.62,0,0,0,19.39.05l-.2,0H19c-.19,0-4.49.13-8.73,5.61A47.3,47.3,0,0,0,7.54,10Z"/><path class="cls-2" d="M19,1.5s-5.58.07-10.12,9.17L2.79,23.19s-3.79,7,2.26,12.08a7.26,7.26,0,0,0,7.88,4.08s6.92,1.67,9.41-2.28c0,0,7.11-3,6.58-6.28,0,0-1.17-15.31-4.74-20.19C24.18,10.6,22.81,2.49,19,1.5Z"/><path class="cls-3" d="M1.7,29.35s.48-1.31,4.68-.5c0,0,1.74-4.17,4.41-5.42s4.56-8.74,4.56-8.74S15,12.1,9.81,9l.78-1.25s2,1.44,5.45,6c0,0,3.33-2,3.79-4.44,0,0-1.64-4,2.13-5.13A18.09,18.09,0,0,1,22.86,6s-2.34.33-1.19,3.64c0,0-1.2,4.44-4.48,4.95,0,0-2.35,4.58-1.71,5.94a8.7,8.7,0,0,1,6.29.05,4.87,4.87,0,0,0,5.55-1.13l.35,1.79a5.27,5.27,0,0,1-6.08.62s6.38,3.74,7,5.77L28.75,29s-5-6-8.33-4.33c0,0-3.06,1.47-1.27,4.28,0,0,1.7,2.6-2.51-.51,0,0-5.14,2.11-7.21,1.78,0,0-.67,1.49-3.28.9,0,0,2.61,4.61,12.88,3.67,0,0,3.39-.21,9.77-5.24l.12,1.24s1.19,2.69-6.58,6.28c0,0-1.46,3.69-9.41,2.28a7.18,7.18,0,0,1-7.88-4.08A8.89,8.89,0,0,1,1.7,29.35Z"/><path class="cls-2" d="M8.41,28.66s3.09-7,10.87-7C19.28,21.69,18,30.09,8.41,28.66Z"/><path class="cls-4" d="M8.53,38.82a6.66,6.66,0,0,1-3.48-3.55s1.56,2.8,3.54,3.55Z"/><path class="cls-4" d="M28.94,30.93c.08.5,0,2.39-4,4.79-.66.36-2.6,1.35-2.6,1.35a4.76,4.76,0,0,1-1.7,1.64l-.14.08-.08,0c-2.84,1.35-7.49.52-7.49.52a7.32,7.32,0,0,1-7.88-4.08A9.4,9.4,0,0,1,3,32.9l-.1-.17A8.16,8.16,0,0,1,2.44,32a13.73,13.73,0,0,1-.74-2.62s-.78,4,.75,6.17S7,38.9,8.22,41c0,0,1,1.9,8.66,1.65,0,0,2,1.4,9.18-3.39C26.06,39.3,30.54,37.39,28.94,30.93Z"/><path class="cls-4" d="M28.94,30.93c0-.09,0-.14,0-.14S28.93,30.88,28.94,30.93Z"/><path class="cls-2" d="M31.52,2S26,1.13,20,9.32L11.87,20.64S7,26.93,12.06,32.92a7.27,7.27,0,0,0,7.08,5.36s6.53,2.81,9.66-.66c0,0,7.51-1.76,7.54-5.08,0,0,1.43-15.29-1.26-20.7C35.08,11.84,35.09,3.62,31.52,2Z"/><path class="cls-3" d="M9.75,26.53s.7-1.22,4.7.3c0,0,2.42-3.82,5.26-4.6s6-7.85,6-7.85.08-2.61-4.5-6.57l1-1.1s1.74,1.76,4.36,6.85c0,0,3.62-1.36,4.49-3.74,0,0-1-4.17,3-4.69a20.36,20.36,0,0,1,.57,2S32.18,7,32.77,10.5c0,0-1.94,4.16-5.26,4.11,0,0-3.09,4.12-2.69,5.57A8.68,8.68,0,0,1,31,21.29a4.85,4.85,0,0,0,5.65-.17l0,1.82a5.27,5.27,0,0,1-6.09-.41s5.66,4.75,5.94,6.87l-.09,1.35S32.57,24,29,25.08c0,0-3.26.93-2,4,0,0,1.24,2.84-2.38-.93,0,0-5.43,1.21-7.41.54,0,0-.92,1.36-3.39.34,0,0,1.8,5,12.07,5.78,0,0,3.38.37,10.53-3.51l-.1,1.24s.72,2.86-7.54,5.08c0,0-2.07,3.4-9.66.66a7.19,7.19,0,0,1-7.08-5.36A8.9,8.9,0,0,1,9.75,26.53Z"/><path class="cls-2" d="M16.49,27s4.22-6.37,11.89-5C28.38,22,25.7,30,16.49,27Z"/><path class="cls-4" d="M14.89,37a6.64,6.64,0,0,1-2.83-4.09S13.12,36,15,37Z"/><path class="cls-4" d="M36.34,32.68c0,.51-.38,2.36-4.76,4-.7.25-2.78.89-2.78.89a4.73,4.73,0,0,1-2,1.33l-.15.06-.09,0c-3,.85-7.46-.75-7.46-.75a7.32,7.32,0,0,1-7.08-5.36,9.24,9.24,0,0,1-1.67-2.68l-.08-.18a7.83,7.83,0,0,1-.26-.83,13.75,13.75,0,0,1-.3-2.7s-1.44,3.79-.3,6.21,3.93,4.1,4.76,6.41c0,0,.7,2.05,8.25,3.09,0,0,1.71,1.71,9.62-1.8C32.08,40.44,36.82,39.32,36.34,32.68Z"/><path class="cls-4" d="M36.34,32.68v0Z"/><path class="cls-2" d="M49.32,5.63s-5-2.52-13.21,3.46l-11.19,8.3s-6.61,4.48-3.57,11.75a7.26,7.26,0,0,0,5.1,7.26s5.37,4.67,9.4,2.32c0,0,7.7.61,8.73-2.54,0,0,6-14.11,5.12-20.09C49.7,16.09,52.23,8.26,49.32,5.63Z"/><path class="cls-4" d="M42.48,38l.2-1.08L40,37.07l-5.81-.14-5.82-2.18L24.51,32.5l-1.65-3.33-.6-3.69L21.1,22.34l-.1.34.1-.34s-2.53,3.17-2.18,5.82,2.49,5.11,2.57,7.56c0,0,.05,2.16,6.92,5.46,0,0,1.11,2.16,9.71,1.23,0,0,4.85.38,6.42-6.09C44.43,36.63,44,37.42,42.48,38Z"/><path class="cls-4" d="M44.54,36.32a1.31,1.31,0,0,0,0-.14S44.55,36.27,44.54,36.32Z"/><path class="cls-3" d="M21.1,22.34s1-.94,4.39,1.72c0,0,3.46-2.9,6.41-2.77S40,15.64,40,15.64s.88-2.46-2.28-7.64L39,7.26s1.12,2.2,2.06,7.85c0,0,3.86-.19,5.42-2.18,0,0,.37-4.27,4.25-3.57,0,0,0,1.34-.05,2.06,0,0-2.24-.79-2.74,2.68,0,0-3.11,3.38-6.26,2.32,0,0-4.19,3-4.26,4.47a8.69,8.69,0,0,1,5.56,3,4.87,4.87,0,0,0,5.44,1.56l-.52,1.75A5.27,5.27,0,0,1,42.2,24.9s3.93,6.26,3.55,8.36l-.49,1.26s-1.66-7.61-5.39-7.69c0,0-3.39-.1-3.1,3.21,0,0,.31,3.09-2-1.61,0,0-5.53-.5-7.22-1.75,0,0-1.29,1-3.33-.71,0,0,.19,5.29,9.73,9.2,0,0,3.11,1.37,11.09-.14l-.47,1.15s-.18,2.94-8.73,2.54c0,0-3,2.6-9.4-2.32a7.18,7.18,0,0,1-5.1-7.26A8.92,8.92,0,0,1,21.1,22.34Z"/><path class="cls-2" d="M27.38,24.83s6-4.78,12.85-1.16C40.23,23.67,35.22,30.53,27.38,24.83Z"/></g></g></svg>