<svg xmlns="http://www.w3.org/2000/svg" viewBox="0 0 56.78 27.38"><defs><style>.cls-1{fill:#444;}.cls-2{fill:#ccebfe;}.cls-3{fill:#82766a;}.cls-4{fill:#fff;}.cls-5{fill:#a7998c;}.cls-6{fill:#141518;}</style></defs><title>Frozen_Pollock</title><g id="레이어_2" data-name="레이어 2"><g id="레이어_1-2" data-name="레이어 1"><polygon class="cls-1" points="17.82 24.86 10.28 23.91 7.32 21.61 4.14 22.19 1.61 19.69 0 13.69 5.9 7.52 12.19 7.13 17.39 5.94 17.93 2.71 26.55 0 28.92 5.49 34.82 6.6 39.26 3.43 44.77 6.34 46.91 4.12 56.78 3.56 53.52 13.14 56.77 19.95 48.76 22.16 44.43 20.29 33.16 24.87 26.23 24 23.16 27.38 17.82 24.86"/><polygon class="cls-2" points="6.58 8.98 1.67 14.12 2.96 18.91 4.64 20.57 7.71 20.01 10.87 22.48 18.24 23.4 22.8 25.55 25.65 22.41 32.96 23.34 44.45 18.66 48.87 20.57 54.65 18.98 51.91 13.23 54.65 5.19 47.58 5.58 45.06 8.2 39.38 5.19 35.17 8.2 27.86 6.81 25.71 1.84 19.26 3.86 18.71 7.18 12.4 8.61 6.58 8.98"/><path class="cls-3" d="M16.34,17.38s.61,3.13,1.9,3.19c0,0,0-2.64-.46-2.91Z"/><path class="cls-3" d="M19.69,10s2.95-4.45,5.22-4.85c0,0,.95.83.8,3a5.06,5.06,0,0,0,.37,3l-5.56-.49Z"/><path class="cls-3" d="M35.41,11.67s1,.42,4.43-2.05c0,0,3,1.43,3.5,3.49Z"/><path class="cls-3" d="M27.89,19.81a31.66,31.66,0,0,0-5.09-2.12l12.77-2.37s.65.77.5,1.26a4.47,4.47,0,0,0-2,1.15c-.49.63-3.88,1.79-5.24,2.23a1,1,0,0,1-.91-.15"/><path class="cls-4" d="M40.13,15.21c-1.2-1.36-10.31-2.08-18.94-2.41s-8.79,4.36-8.79,4.36a27.57,27.57,0,0,0,8.44,1.5c6.84,0,15.52-2.51,15.52-2.51s1.85-.54,3.7-.92Z"/><path class="cls-4" d="M40.13,15.21c-1.2-1.36-10.31-2.08-18.94-2.41s-8.79,4.36-8.79,4.36a27.57,27.57,0,0,0,8.44,1.5c6.84,0,15.52-2.51,15.52-2.51s1.85-.54,3.7-.92Z"/><path class="cls-5" d="M50.42,17.19a10.64,10.64,0,0,1-1.14-3.66,9.29,9.29,0,0,1,.92-3.9c.58-1-.18-.57-.18-.57A13.42,13.42,0,0,0,46.59,11c-1.41.74-1.85,2.77-10.58.26A46.71,46.71,0,0,0,19.43,9.66,46.14,46.14,0,0,0,7,13.53c-.23.11-.53.29-.53.29-.72.63,0,.88,0,.88a41.67,41.67,0,0,0,5.94,2.45c0-.07.22-4.67,8.79-4.35s17.74,1,18.94,2.41h0a14,14,0,0,1,2.77-.35c1.93.07,5.62,2.31,7,3s.54-.71.54-.71"/><path class="cls-3" d="M18.46,16.18c.25,1.1,4.51-.4,4.42-.76s.71-.86.71-.86c-1.66-1.11-6.11,0-6.11,0a5.15,5.15,0,0,1,1,1.62"/><path class="cls-4" d="M12,13.59a.78.78,0,1,1-.78-.79.78.78,0,0,1,.78.79"/><path class="cls-6" d="M11.59,13.59a.36.36,0,1,1-.36-.36.36.36,0,0,1,.36.36"/></g></g></svg>