<svg xmlns="http://www.w3.org/2000/svg" viewBox="0 0 39.1 45.98"><defs><style>.cls-1{fill:#444;}.cls-2{fill:#ffeeeb;}.cls-3{fill:#e9d7b1;}.cls-4{fill:#f4e9d7;}</style></defs><title>Garlic</title><g id="Layer_2" data-name="Layer 2"><g id="레이어_1" data-name="레이어 1"><path class="cls-1" d="M24.06,46a9.56,9.56,0,0,1-3.45-.64,9.76,9.76,0,0,1-4.68-3.72c-.39-.09-.78-.2-1.16-.31a9,9,0,0,1-1.62,1.25,8.47,8.47,0,0,1-4.34,1.18A10.16,10.16,0,0,1,3.9,42.42,16,16,0,0,1,.54,39.8a3.4,3.4,0,0,1-.31-3l.06-.14.08-.12a9.29,9.29,0,0,1,5-3.62c-1.12-2.41-1.73-6.36.35-12.44.15-.49.84-2.19,3.74-4.92,1.26-1.18-.42-6.8-2.72-11.1l-.07-.13,0-.16C6.53,3.79,6.19,2,9.05.73A6.66,6.66,0,0,1,11.65,0a1.92,1.92,0,0,1,1.12.32l.3.2,5.26,9.88h0a.72.72,0,0,0,.42.1,2.92,2.92,0,0,0,1-.24,7.23,7.23,0,0,1,2.71-.56,5.54,5.54,0,0,1,2,.36,11,11,0,0,1,3-.4,10.75,10.75,0,0,1,7.41,3c4.1,3.77,3.78,7.63,3.44,9.16a10.71,10.71,0,0,1,.34,7.28c-1,3.3-3.71,6-7.93,8.19a10.92,10.92,0,0,1-1.34,2.15c1.27,3.07,0,4.5-.28,4.78a7.55,7.55,0,0,1-5,1.79Z"/><path class="cls-2" d="M7.15,20.88s.37-1.49,3.34-4.28S8.07,3.71,8.07,3.71,7.84,2.93,9.68,2.1s2.24-.55,2.24-.55L17,11.1s.77,1.57,3.3.55a4.43,4.43,0,0,1,4.05,0,9.26,9.26,0,0,1,9.45,2.06c4.47,4.11,2.87,8.19,2.87,8.19s4.7,8.52-7.15,14.24c0,0-2.75,7.73-11.1,4.37,0,0-7.45-.58-9.19-5.38,0,0-6-2.9-2.09-14.27"/><path class="cls-3" d="M14.16,30.48s-3.24,3.45-6.91,3.61A7.5,7.5,0,0,0,1.63,37.3a1.89,1.89,0,0,0,.12,1.62,18.66,18.66,0,0,0,2.93,2.23s3.89,2.38,7.7.12,4.86-8,4.86-8-.85-1.92-1.56-1.92a2.84,2.84,0,0,1-1.52-.83"/><path class="cls-4" d="M16.45,32.86s-2.78,8,4.73,11.1c0,0,3.92,1.62,6.85-.86,0,0,1.5-1.4-1.5-5.59a7,7,0,0,0-2.93-2.29,8.53,8.53,0,0,1-3.88-3.91,1.45,1.45,0,0,0-1.53.82,1.59,1.59,0,0,1-1.74.73"/></g></g></svg>