<svg xmlns="http://www.w3.org/2000/svg" viewBox="0 0 54.23 45.4"><defs><style>.cls-1{fill:#444;}.cls-2{fill:#62863f;}.cls-3{fill:#c7dea7;}</style></defs><title>Garlic_leaves</title><g id="Layer_2" data-name="Layer 2"><g id="레이어_1" data-name="레이어 1"><path class="cls-1" d="M13.24,45.1c-1.78.35-3.2.63-4-.58a2.31,2.31,0,0,1,.34-2.69,5.4,5.4,0,0,0,.62-1.11,58.8,58.8,0,0,1,3.9-7.51,34.7,34.7,0,0,0-4.77.47A22.2,22.2,0,0,1,3.77,34C2,33.85.52,33.72.09,32.33a2.31,2.31,0,0,1,1.09-2.49A5.09,5.09,0,0,0,2.09,29c1.31-1.78,8.25-9,13.11-11.69a27.32,27.32,0,0,0,4.33-3.39C22.8,11,26.88,7.39,33,6c.45-.11.88-.2,1.29-.28,4.93-1,7.58-.64,9,0l1.87-1.09C49.33.3,50.06.15,50.65,0a1.88,1.88,0,0,1,1.69.48,2.3,2.3,0,0,1,.65,1,1.85,1.85,0,0,1,.9.79c.86,1.51-.06,3.05-1.28,3.85L48.28,8.68l-1.47,1.53a9.89,9.89,0,0,1,.12,7.88c-2.29,6.18-15.61,21.45-21.86,22.76a28.45,28.45,0,0,0-6.59,2.35A22.21,22.21,0,0,1,13.24,45.1Z"/><path class="cls-2" d="M43.59,8.75s-1.79-1.51-9.43,2.74S24.29,23.32,20.7,27s-8.15,12.31-8.87,14.31-2.71,2.84,1.08,2.09,6.31-3.1,11.81-4.25S43.16,23.26,45.3,17.49,43.59,8.75,43.59,8.75Z"/><path class="cls-3" d="M42.93,9.55s7.57-8.4,8.21-7.78-.27,1.68-.27,1.68l-7.09,7.42L29.09,27.72Z"/><path class="cls-2" d="M43.17,7.76s-1.29-1.95-9.82,0S20.53,16.26,16,18.77,4.75,28.27,3.49,30s-3.41,1.95.44,2.31,6.92-1.18,12.53-.73,22.19-10,25.87-14.94S43.17,7.76,43.17,7.76Z"/><path class="cls-3" d="M42.31,8.34S52,2.43,52.39,3.2s-.73,1.54-.73,1.54l-8.91,5.1-18.86,12Z"/></g></g></svg>