<svg xmlns="http://www.w3.org/2000/svg" viewBox="0 0 52.18 42.44"><defs><style>.cls-1{fill:#444;}.cls-2{fill:#eeb887;}.cls-3{fill:#fef684;}.cls-4{fill:#b7845e;}</style></defs><title>Ginger</title><g id="Layer_2" data-name="Layer 2"><g id="레이어_1" data-name="레이어 1"><path class="cls-1" d="M35.31,42.44a6,6,0,0,1-1.67-.23,3.79,3.79,0,0,1-.49,0,11.27,11.27,0,0,1-4.64-1.62,35.2,35.2,0,0,1-6.7-1.89,1.83,1.83,0,0,1-.33,0,2.45,2.45,0,0,1-1-.24l-.05,0-.05,0a4.87,4.87,0,0,0-2.3-.31c-.66,0-1.41,0-2.23.11-.6.06-1.09.12-1.27.15a9.73,9.73,0,0,1-2.29.26A17.36,17.36,0,0,1,6,37.28l-.41-.22c-.2-.11-.5-.29-.84-.52l-.44-.32c-.2-.14-.42-.31-.65-.5a11.33,11.33,0,0,1-2.24-2.43L1.2,33l-.08-.13h0a8,8,0,0,1-.94-2.24,4.74,4.74,0,0,1,.49-3.76,5.94,5.94,0,0,1,3.48-2.35,5.82,5.82,0,0,0,3.23-3.29C8,19,9.58,18,11,17.16a10.93,10.93,0,0,0,2.42-1.87,7.59,7.59,0,0,1,5.16-2.5c.65-.89,2-1.68,4.65-1.68.51,0,1,0,1.43.07h0a3.32,3.32,0,0,1,.64-3.48l.05,0,.05-.05a6.17,6.17,0,0,1,4.09-1.71A5.92,5.92,0,0,1,33.4,7.56l.17-.07a9.93,9.93,0,0,1,1.2-4.13l0-.08C36.25,1.11,38,0,39.9,0c2.79,0,4.86,2.42,4.94,2.52l0,.06,0,.06c3.22,4.87,1.75,8,1.12,9,.6,1,1.14,2.27.59,3.27a1.72,1.72,0,0,1-1.18.85,1.58,1.58,0,0,0,.09,1c.64,2.19-.74,4.16-1.94,5.23a2.3,2.3,0,0,1-.55,1.14,4,4,0,0,1-3.14,1.07h0a1.56,1.56,0,0,1-.53.16,5.45,5.45,0,0,1-2.17.38A5.06,5.06,0,0,1,33.53,26c-.33,0-.54,0-.54,0h-.33a3.85,3.85,0,0,0-1.43.23,4.81,4.81,0,0,1,.2,1.09.93.93,0,0,0,.22,0l.74,0s.4.72.42.74a2.42,2.42,0,0,1,1.82-.72h.3l.1,0a6.23,6.23,0,0,0,1.14.14h.18A6.76,6.76,0,0,1,42,24.7a11.23,11.23,0,0,1,4.77,1.2c2.72,1.29,4.44,3,5.1,4.94a5.51,5.51,0,0,1-.17,4A2.91,2.91,0,0,1,49.08,37h0a2.77,2.77,0,0,1-.42,0h-.11a7.46,7.46,0,0,0-1.21.77c-1.68,1.91-3.21,2.88-4.56,2.88a2.33,2.33,0,0,1-1-.22,2.55,2.55,0,0,0-.91-.15,4.24,4.24,0,0,0-.93.11,2.8,2.8,0,0,1-1.4,1.3A7.27,7.27,0,0,1,35.31,42.44Z"/><path class="cls-2" d="M19.35,14.09a6.23,6.23,0,0,0-5,2.07c-2.16,2.4-4.9,2.5-5.72,5.43s-4.09,4.18-4.09,4.18-4,.82-3.11,4.55,5.05,5.77,5.05,5.77,4.33,1.93,7.84,1c0,0,5.21-.76,6.74.24a.87.87,0,0,0,.78,0s5.79,2.15,7,2c0,0,3.43,2.09,4.87,1.54a5.09,5.09,0,0,0,4.3-.38s.9-.39.83-1.12a5,5,0,0,1,3.46-.13s1.28.86,4.14-2.44a7.6,7.6,0,0,1,1.86-1.09c.61-.13,1.47.55,2.21-1.34,0,0,2.21-4.2-4.3-7.28s-8.94,1.41-8.94,1.41-.22.64-2.5.19c0,0-1.38-.16-1.18,1.06a1.85,1.85,0,0,1-2-1.12s-1.48,0-1.48-1.19c0,0,0-1.28-.64-1.57,0,0,.84-1.34,3.62-1.18,0,0,2.57.25,3.43-1.28,0,0,2.38.12,2.63-.58,0,0,3.4.42,3.17-1.51,0,0,2.63-1.92,2-4.23s.8-2.63.8-2.63,1.25.1-.32-2.43c0,0-.42-.67.06-1,0,0,2.34-2.65-1-7.69,0,0-4.23-5-8,.64a8,8,0,0,0-1,4.29,3.8,3.8,0,0,1-2,.58,4.4,4.4,0,0,0-6.63-.29,2,2,0,0,0-.14,2.5,1.38,1.38,0,0,0,0,1.6S20.07,11.5,19.35,14.09Z"/><path class="cls-3" d="M18.39,36.85s-.12-.58-.27-1.38-1.62-1.56-1.62-1.56,2,.53,2.23-.25a.91.91,0,0,0-.36-1.11s-1.76-1.12-1.95-1.63-1.19-1.09-1.19-1.09C13.31,28.52,7.16,26,4.05,27.33s-1.75,5-1.75,5a11.58,11.58,0,0,0,4.18,3.75s4.3,1.89,7.84,1A28,28,0,0,1,18.39,36.85Z"/><path class="cls-4" d="M29.6,25.82a.2.2,0,0,1-.2-.14c0-.07-2.7-7.08-8.54-6.79a.23.23,0,0,1-.22-.21.2.2,0,0,1,.2-.22c6.12-.3,8.94,7,9,7.07a.21.21,0,0,1-.12.28Z"/><path class="cls-4" d="M39.32,23h0a.22.22,0,0,1-.18-.25c0-.09,1.39-8.37-2.24-12a.21.21,0,0,1,0-.31.22.22,0,0,1,.3,0c3.8,3.84,2.43,12.07,2.37,12.42A.22.22,0,0,1,39.32,23Z"/></g></g></svg>