<svg xmlns="http://www.w3.org/2000/svg" viewBox="0 0 56.64 22.47"><defs><style>.cls-1{fill:#444;}.cls-2{fill:#d0b444;}.cls-3{fill:#eaebed;}.cls-4{fill:#c1d3e7;}.cls-5{fill:#fff;}</style></defs><title>Gizzard_Shad</title><g id="레이어_2" data-name="레이어 2"><g id="레이어_1-2" data-name="레이어 1"><path class="cls-1" d="M26.08,22.47l-.65,0a8.69,8.69,0,0,1-2.87-.76h-.29A40.73,40.73,0,0,1,6.64,18.38C2.69,16.78.44,14.81,0,12.55l0-.16v-.16A2.58,2.58,0,0,1,1.44,10a3.31,3.31,0,0,1,2.2-1.42C5,7.05,9.09,3.21,18,1.58A19.53,19.53,0,0,1,26.66,0a51.72,51.72,0,0,1,6.48.46l.17,0,.16.06a1.81,1.81,0,0,1,1.37,2,1.59,1.59,0,0,1-.46.9,12.24,12.24,0,0,1,.83,1.07C38.57,5.83,42,7.15,45.52,7.15a13.93,13.93,0,0,0,7.26-2.08,4.18,4.18,0,0,1,2-.68,1.83,1.83,0,0,1,1.59.88c.54.93.81,1.4-4,6,3.44,2.4,3.48,3,3.52,3.58l0,.65-.46.5a2,2,0,0,1-1.55.55h0a101.59,101.59,0,0,1-10.28-1.45l-1.13-.2-.32,0h-.1A8,8,0,0,1,40,16.48a1.85,1.85,0,0,1-1,1.63A11.73,11.73,0,0,1,33,19.66a24.58,24.58,0,0,1-2.62.93l-.3.37a5.1,5.1,0,0,1-4,1.51"/><path class="cls-2" d="M17,4.25S19.32.17,33,2c0,0,1.59.59-1.48.67,0,0,3,2.63,3.18,4.18S17,4.25,17,4.25"/><path class="cls-2" d="M21.1,19.06A8.63,8.63,0,0,0,25.54,21C28,21.13,29,20,29,20s-4.89.42-5.59-1.43-2.26.48-2.26.48"/><path class="cls-2" d="M30.43,17.86a10.88,10.88,0,0,0,7.82-1.06s.85-.48-.56-.48,2.69-1.16,3.6-2.86-9.71,1.19-9.71,1.19Z"/><path class="cls-3" d="M7.28,17s17.6,8.26,30.48-1.85a6.53,6.53,0,0,1,6.17-1.58L41.8,9.39,21.1,8.25,13.43,9.82,6.84,14.54Z"/><path class="cls-4" d="M50,11.43s5.3-5,5-5.41-1.52.34-1.52.34C41.28,13.62,32,1.14,20.06,2.76S4.39,10,4.39,10a1.84,1.84,0,0,0-1.92,1.25c-.93,0-1,1-1,1,.4,2.16,3.38,3.77,5.78,4.74C11.4,14.33,19.93,9.47,27,10c8.24.62,14.17,1,16.18,3.45,1.89.34,11.29,2,11.26,1.46S50,11.43,50,11.43"/><path class="cls-2" d="M11.36,16.8c.55,1.11,3.4,1.37,3.4,1.37s-.26-.26,3.08,0,1.29-.52,1.29-.52c-3-1.52-8.29-1.37-8.29-1.37Z"/><path class="cls-5" d="M6.43,11.88a1.26,1.26,0,1,1-1.26-1.26,1.25,1.25,0,0,1,1.26,1.26"/><path d="M5.8,11.88a.63.63,0,1,1-1.26,0,.63.63,0,1,1,1.26,0"/></g></g></svg>