<svg xmlns="http://www.w3.org/2000/svg" viewBox="0 0 54.14 35.89"><defs><style>.cls-1{fill:#444;}.cls-2{fill:#f6ead6;}.cls-3{fill:#f2dfc4;}.cls-4{fill:#e5d3be;}.cls-5{fill:#87b0d6;}.cls-6{fill:#6f9cbc;}.cls-7{fill:#4e6271;}.cls-8{fill:#3e5b6d;}</style></defs><title>Gorgonzola</title><g id="Layer_2" data-name="Layer 2"><g id="레이어_1" data-name="레이어 1"><path class="cls-1" d="M52.25,35.84,46,35.69l-7.4-.13c-4.52-.06-9-.1-13.21-.1-10.39,0-17.27.19-20.44.31l-2.54.1L1.9,35.3A8.31,8.31,0,0,1,.15,31.09,15.92,15.92,0,0,1,.4,25.45a15.66,15.66,0,0,1,.1-3.21v-.1c.05-.37.1-.78.18-1.22C1.27,17.47,2.83,11.69,7,3.29,7.75,1.84,8.23,1,8.23,1l.52-1L13,.79v0A216,216,0,0,1,50.58,11.7l1.16.49-.29,1.23a15.33,15.33,0,0,0-.14,3.78v.08c0,.41.1,1.49.16,2.23l.05.53c.63,6.26,2.21,13.92,2.23,14l.38,1.85Z"/><path class="cls-2" d="M9.55,1.68S1.18,17,1.92,25.54c0,0,33.63,2.43,50.37,8.8,0,0-3.41-16.44-2.3-21.26A214,214,0,0,0,9.55,1.68Z"/><path class="cls-3" d="M1.92,25.54s-1.48,5.51,1.13,8.8c0,0,17.37-.85,49.24,0C52.29,34.34,39.1,28.6,1.92,25.54Z"/><path class="cls-3" d="M9.55,1.68l1.35.25S8.73,4.86,8.73,6.27s-2.11,5.37-2.11,5.37-2.11,4.7-1.92,8.7a21.41,21.41,0,0,1-.19,5.42l-2.59-.22S.66,18.49,9.55,1.68Z"/><path class="cls-4" d="M1.92,25.54s-1.46,5.7,1.13,8.8l1.8-.07s-1.54-2.07-.34-8.51Z"/><path class="cls-5" d="M50,20.2c.13,1.25-3.27-1-3.27-1s-6,.15-3.3-.77a5.52,5.52,0,0,0,3.3-3.79s.3-.92,1.3,1.15,1.74,1.44,1.74,1.44S50,19.5,50,20.2Z"/><path class="cls-5" d="M29.91,28.91c.5-1.32,0-1.75,0-1.75,1-2.3,0-1.4,0-1.4s-.3.4-2.22,1.1-2.15,1.35-2.15,1.35Z"/><path class="cls-6" d="M25.51,28.21s1.33,1.65.63,2.24,1.41.45,1.41.45.29,2.37,1.92-.34c0,0-1.17-.45.44-1.65Z"/><path class="cls-6" d="M13,28.42s1.85.81.63,1.18-1.63-1-1.63-1-1.63-.22-.85-1.39c0,0,.2-.67,1.71-.66l4.42.51a2.66,2.66,0,0,1,0,2.09c-.5,1-2.54-1.44-2.54-1.44s-1.81-.78-2,.18C12.77,27.93,12.68,28.37,13,28.42Z"/><path class="cls-5" d="M12.89,26.59s3.42-1,3.33-3.17-3.78-3.71-3.78-3.71S8,18.38,13.62,16.16s4.63-.56,4.63-.56-2.66,6.15,2.15,7.85-3.09,3.65-3.09,3.65Z"/><path class="cls-6" d="M38.55,34.06s2.74-.72,2.33-1.94S40,30.84,40,30.84s4.08.92,6.17,1.52c0,0,.69,1.61,0,1.83Z"/><path class="cls-5" d="M40,30.84s-1-1.57,1.62-1.5,2.89,1.5,2.89,1.5,1.83.49,1.66,1.52Z"/><path class="cls-5" d="M26.89,13.19s-5.9,1.52-4.08,2.15,5.63,0,5.63,0a7.47,7.47,0,0,1,4.11.45c2.37.89,3.89,2.07,2.26,3.11a1.56,1.56,0,0,0-.67,2.33s4.93,6.37-6.63,0-5.55-8-5.55-8,4.22-1.59,5.55-1.4A.9.9,0,0,1,26.89,13.19Z"/><ellipse class="cls-7" cx="25.57" cy="16.63" rx="1.51" ry="0.34"/><ellipse class="cls-7" cx="31.3" cy="19.61" rx="0.31" ry="2.01" transform="translate(-4.04 30.35) rotate(-48.98)"/><ellipse class="cls-7" cx="31.58" cy="16.74" rx="0.23" ry="1.66" transform="translate(11.29 46.17) rotate(-83.36)"/><ellipse class="cls-7" cx="17.14" cy="24.69" rx="2.12" ry="0.27" transform="translate(-12.81 27.19) rotate(-60)"/><ellipse class="cls-8" cx="16.21" cy="27.77" rx="0.72" ry="0.26"/><ellipse class="cls-8" cx="27.3" cy="29.65" rx="0.74" ry="0.22" transform="translate(-12.6 35.38) rotate(-55.54)"/><ellipse class="cls-7" cx="28.49" cy="27.61" rx="0.27" ry="0.82" transform="translate(-7.02 45.32) rotate(-70.6)"/><ellipse class="cls-7" cx="42.28" cy="30.53" rx="0.26" ry="1.09" transform="translate(0.55 61.8) rotate(-72.67)"/><ellipse class="cls-8" cx="42.28" cy="32.95" rx="0.78" ry="0.31" transform="translate(-10.91 39.55) rotate(-45)"/><ellipse class="cls-7" cx="47.45" cy="17.77" rx="0.48" ry="1.24" transform="matrix(0.87, -0.5, 0.5, 0.87, -2.53, 26.1)"/></g></g></svg>