<svg xmlns="http://www.w3.org/2000/svg" viewBox="0 0 32.44 52.17"><defs><style>.cls-1{fill:#444;}.cls-2{fill:#6da139;}.cls-3{fill:#95c763;}.cls-4{fill:#a08756;}.cls-5{fill:#7c54b1;}.cls-6{fill:#8f63c6;}</style></defs><title>Grape</title><g id="Layer_2" data-name="Layer 2"><g id="레이어_1" data-name="레이어 1"><path class="cls-1" d="M19.34,22.4a5.94,5.94,0,0,1-3.49-1.12,2.6,2.6,0,0,1-.85-.85l-.06-.11a2.67,2.67,0,0,1-.22-.68,7.87,7.87,0,0,1-.13-2.85C14,14.56,12.82,12,10.41,12a5.88,5.88,0,0,0-2.07.44,2.85,2.85,0,0,1-1.48.44,2.65,2.65,0,0,1-2.27-1.34,1.94,1.94,0,0,1,0-2c.75-1.37,3.09-2.4,5.45-2.4a8.94,8.94,0,0,1,7.28,4,17,17,0,0,1,1.76-1.73c5-4.31,5.72-7.09,5.73-7.12L25.33,0l1.78,1.53c.07.06,6.71,6,.52,15.1C25,20.46,22.22,22.4,19.34,22.4Z"/><path class="cls-2" d="M16.23,19.72S14.39,15.3,20,10.5s6.2-7.9,6.2-7.9,5.82,5.1.27,13.23S16.58,20,16.58,20Z"/><path class="cls-3" d="M24.52,15.22a1.9,1.9,0,0,1-1-.22A19.42,19.42,0,0,1,21,17.5a1.19,1.19,0,0,0,1.27,0,.47.47,0,1,1,.4.86,2,2,0,0,1-2.44-.29,19.47,19.47,0,0,1-3.31,2,.8.8,0,0,1-.16.08,2,2,0,0,1-.48-.42,1.36,1.36,0,0,1-.12-.37l.38-.16A19.71,19.71,0,0,0,19.6,17.3a4.25,4.25,0,0,1-.44-3.85.46.46,0,0,1,.6-.28h0a.48.48,0,0,1,.28.61,3.26,3.26,0,0,0,.31,2.94,19,19,0,0,0,2.47-2.39,3,3,0,0,1-.23-2.78.48.48,0,0,1,.59-.26l0,0a.47.47,0,0,1,.25.62,2,2,0,0,0,0,1.6A13.48,13.48,0,0,0,26.1,7.42a.47.47,0,0,1,.54-.4l.09,0a.48.48,0,0,1,.31.52,14.59,14.59,0,0,1-2.87,6.68,1.36,1.36,0,0,0,.3,0,.47.47,0,1,1,.05.94"/><path class="cls-4" d="M18.15,19.52c.45-2.88-1.89-7.37-1.89-7.37C11.9,5.9,5,9.54,5.79,10.8a1.24,1.24,0,0,0,1.89.41c8.18-3.33,8.8,8.31,8.8,8.31Z"/><path class="cls-1" d="M16.7,52.17a7.62,7.62,0,1,1,7.62-7.62A7.62,7.62,0,0,1,16.7,52.17Z"/><circle class="cls-5" cx="16.7" cy="44.55" r="6.2"/><path class="cls-1" d="M11.57,30.54a7.63,7.63,0,1,1,7.62-7.62A7.63,7.63,0,0,1,11.57,30.54Z"/><circle class="cls-5" cx="11.57" cy="22.92" r="6.2"/><path class="cls-1" d="M7.62,34.8a7.62,7.62,0,1,1,7.63-7.62A7.63,7.63,0,0,1,7.62,34.8Z"/><circle class="cls-6" cx="7.62" cy="27.18" r="6.2"/><path class="cls-1" d="M12,44.51a7.63,7.63,0,1,1,7.62-7.63A7.64,7.64,0,0,1,12,44.51Z"/><circle class="cls-6" cx="11.97" cy="36.88" r="6.2"/><path class="cls-1" d="M21.57,43.7a7.63,7.63,0,1,1,7.62-7.62A7.63,7.63,0,0,1,21.57,43.7Z"/><circle class="cls-6" cx="21.57" cy="36.08" r="6.2"/><path class="cls-1" d="M24.81,34.21a7.62,7.62,0,1,1,7.63-7.62A7.63,7.63,0,0,1,24.81,34.21Z"/><circle class="cls-6" cx="24.81" cy="26.59" r="6.2"/><path class="cls-1" d="M16.7,33.29a7.62,7.62,0,1,1,7.62-7.62A7.62,7.62,0,0,1,16.7,33.29Z"/><circle class="cls-5" cx="16.7" cy="25.67" r="6.2"/></g></g></svg>