<svg xmlns="http://www.w3.org/2000/svg" viewBox="0 0 51.51 52.98"><defs><style>.cls-1{fill:#444;}.cls-2{fill:#8da2ce;}.cls-3{fill:#dcd7e2;}.cls-4{fill:#fff;}</style></defs><title>Hairtail</title><g id="레이어_2" data-name="레이어 2"><g id="레이어_1-2" data-name="레이어 1"><path class="cls-1" d="M12.53,50.12c-4.08-3-2.57-7.33-2.07-8.76a5.06,5.06,0,0,1,2.24-2.79,5.57,5.57,0,0,1,2.8-.73,9.47,9.47,0,0,1,5.18,1.88h0a27.55,27.55,0,0,0,6,2.78,4.92,4.92,0,0,0,1.06.24A24.87,24.87,0,0,0,31,43c2.82,0,6.58-.49,8.46-2.82,3-3.73.86-7.94.51-8.57-.5-.61-4.36-5.12-9.21-5.32C24.3,26,19.1,21.35,18.88,21.16l-.09-.09C15,17,10.59,13.37,9.43,13.32a6.23,6.23,0,0,1-1.49.17A7.13,7.13,0,0,1,4,12.32l-.1-.07-.09-.08C1,9.34.43,8.51.86,7.43a1.66,1.66,0,0,1,.8-.83l-.14-.74A2.56,2.56,0,0,1,0,4,1.78,1.78,0,0,1,.75,2.34C2.06,1.3,4.39.77,7.82.77a48.07,48.07,0,0,1,6.9.56A12,12,0,0,1,19.1,0a4,4,0,0,1,2.17.59l.21.13.16.2A3.82,3.82,0,0,0,23,2,4.75,4.75,0,0,1,25.5,4.65a4.2,4.2,0,0,1,1.93,2.2A4.45,4.45,0,0,1,29.2,9a4.53,4.53,0,0,1,1.62,1.56A5.11,5.11,0,0,1,33,12.26a3.79,3.79,0,0,1,2.89,1.46,4.36,4.36,0,0,1,2.32,1,3.47,3.47,0,0,1,2.6,1.4A4.47,4.47,0,0,1,44,17.66,3.81,3.81,0,0,1,46,19.25a3.77,3.77,0,0,1,2.45,2.86A4.17,4.17,0,0,1,50,25.68a4.15,4.15,0,0,1,1.41,3.8,6.48,6.48,0,0,1-.33,3.11A6.54,6.54,0,0,1,50.25,37L50,41l-.1.23a6.81,6.81,0,0,1-2.4,3.1,3.61,3.61,0,0,1-2.17,2.79,4.59,4.59,0,0,1-3,2,3.86,3.86,0,0,1-2.58,1,4.91,4.91,0,0,1-.55,0,4,4,0,0,1-2.52,1,2.77,2.77,0,0,1-1-.19,8.09,8.09,0,0,1-2.68.45,7.89,7.89,0,0,1-2.8-.51,3.07,3.07,0,0,1-1.16.23,3.35,3.35,0,0,1-2.45-1.12h-.24a3.42,3.42,0,0,1-3.13-1.59,3,3,0,0,1-1.52-.93,3.11,3.11,0,0,1-.74-2,14.13,14.13,0,0,0-4.36-3.08,1.56,1.56,0,0,0-.57-.1,1.35,1.35,0,0,0-1,.44c-1.28,1.48-.56,4.6-.18,5.68L16.46,53Z"/><path class="cls-2" d="M19.94,41.05s-3.56-2.86-6.5-1.18a3.68,3.68,0,0,0-1.57,2c-.52,1.52-1.56,4.79,1.54,7,0,0-1.69-4.67.45-7.16A2.94,2.94,0,0,1,17.14,41,15.36,15.36,0,0,1,22,44.38c4.69,4.41,11.75,3.77,11.75,3.77s11.41,0,13.82-11.69c0,0,2.26-8.59-4.26-14.85a30.68,30.68,0,0,0-10.37-4.48c-6-1.3-9.85-9.23-9.85-9.23s-3-4.48-8.26-5c0,0-10.14-1.74-13.22.7,0,0-1.25.86,4.66,2.36A4.7,4.7,0,0,1,9.19,9.46s1.17,2.31-6.28-1.31c0,0-2.41-1.36,2,2.95a5.81,5.81,0,0,0,4.33.75C11.69,11.29,19.88,20,19.88,20s4.95,4.45,10.92,4.7,10.39,6,10.39,6,3.33,5.5-.58,10.36c-3.29,4.08-10.77,3.46-13.09,3.16a6.93,6.93,0,0,1-1.33-.31,28.23,28.23,0,0,1-6.33-3"/><path class="cls-3" d="M22.49,44.81A1.69,1.69,0,0,0,24.31,47c.3,2,2.93,1.37,2.93,1.37,1.4,2.11,2.89.81,2.89.81a6.53,6.53,0,0,0,5.63.08c1.43,1.11,3-.85,3-.85a2.45,2.45,0,0,0,2.88-.71,3.12,3.12,0,0,0,2.71-1.89c1.63.08,1.78-2.55,1.78-2.55,1.29,0,2.37-2.56,2.37-2.56l.29-4.29c1.26-1,.78-4,.78-4a4.88,4.88,0,0,0,.33-3c.6-1.78-1.48-3.11-1.48-3.11A2.75,2.75,0,0,0,47.09,23a2.35,2.35,0,0,0-2.15-2.45c-.26-1.37-2-1.59-2-1.59-.26-1.33-3-1.37-3-1.37a2.19,2.19,0,0,0-2.52-1.3c-.11-1-2.44-1.14-2.44-1.14-.63-1.74-2.89-1.34-2.89-1.34-.33-1.52-2.45-2.07-2.45-2.07,0-1-1.77-1.74-1.77-1.74,0-1.34-1.74-2.15-1.74-2.15a2.77,2.77,0,0,0-1.78-2.07s-.74-2-1.82-2.3a5.35,5.35,0,0,1-2.07-1.61C18.61.66,15,2.88,15,2.88c5.12.62,8.11,5,8.11,5s3.89,7.93,9.85,9.23a30.68,30.68,0,0,1,10.37,4.48c6.52,6.26,4.26,14.85,4.26,14.85C45.16,48.13,33.75,48.15,33.75,48.15s-6.59.6-11.26-3.34"/><path class="cls-4" d="M13,5.09A2.19,2.19,0,1,1,10.83,2.9,2.17,2.17,0,0,1,13,5.09"/><path d="M11.68,5.09a.85.85,0,1,1-.85-.85.85.85,0,0,1,.85.85"/><path class="cls-3" d="M4,5.28,3.14,6.35l-.3-1.51A11,11,0,0,0,4,5.28"/><path class="cls-3" d="M5.48,5.72,4.9,6.79,4.58,5.46l.93.27"/><path class="cls-3" d="M6.87,6.21,6.24,7.53,6,5.85l.3.08a3.5,3.5,0,0,1,.6.28"/><path class="cls-3" d="M8.06,7.16l-.8.73.18-1.3a4.53,4.53,0,0,1,.62.57"/><path class="cls-3" d="M6.87,9.83l.2-1.3,1.07,1.62a8.2,8.2,0,0,1-1.3-.33"/><path class="cls-3" d="M5.34,9.26,5.72,8l.62,1.61c-.31-.11-.65-.24-1-.4"/><path class="cls-3" d="M3.71,8.53,4.2,7.42,4.67,9l-1-.45"/><path class="cls-3" d="M20.16,13.82s10,5.22,4.89,5.08-5.44-2.27-5.44-2.27l-.84-2.17s1.11-.11,1.39-.64"/></g></g></svg>