<svg xmlns="http://www.w3.org/2000/svg" viewBox="0 0 54.45 42.58"><defs><style>.cls-1{fill:#444;}.cls-2{fill:#b3830a;}</style></defs><title>Hijki</title><g id="레이어_2" data-name="레이어 2"><g id="레이어_1-2" data-name="레이어 1"><path class="cls-1" d="M0,39.75l1-1,.11-.07A43.14,43.14,0,0,0,11.48,27a3.37,3.37,0,0,0-.73-1.13h-.08a1.88,1.88,0,0,1-.13-3.75h.25l.29,0a1.94,1.94,0,0,1-.37-.94,1.88,1.88,0,0,1,1.66-2.06l.52,0a4.17,4.17,0,0,1,.94.1A4.62,4.62,0,0,1,12.74,15a1.89,1.89,0,0,1,1.84-1.48h.15l.23,0a1.83,1.83,0,0,1,1.19.81,1.85,1.85,0,0,1,.28,1.29,1.9,1.9,0,0,1,1.26-.48h.17l.24,0A1.9,1.9,0,0,1,19.56,17a2.26,2.26,0,0,0,.55-.21,1.87,1.87,0,0,1,1.74-1.17H22l.26,0a1.88,1.88,0,0,1,1.39,2.25,2.91,2.91,0,0,1-.34.85,1.14,1.14,0,0,0,.11.11l1.11-1.34c0-.09,0-.18-.08-.27l0,0L24.41,17a10.5,10.5,0,0,0-.64-1.57,1.87,1.87,0,0,1-.66-2.81,1.91,1.91,0,0,1,1.15-.72,1.94,1.94,0,0,1,.4,0,2,2,0,0,1,.85.18l.13-.14a1.88,1.88,0,0,1,1.27-.5,1.86,1.86,0,0,1,.34,0,4.82,4.82,0,0,0-.61-.69,1.88,1.88,0,0,1-1.58-1.85,1.88,1.88,0,0,1,1.87-1.88,2.47,2.47,0,0,1,.94.16,2.09,2.09,0,0,1,.07-.7,1.94,1.94,0,0,1,.38-.69,1.61,1.61,0,0,1-.21-.3,1.83,1.83,0,0,1-.17-1.43,1.89,1.89,0,0,1,1.81-1.37h.19l.28.06c.4.12,1.38.39,2.72,2.43l.49-.88a4.74,4.74,0,0,0-.32-.88,1.89,1.89,0,0,1-.66-.74A1.87,1.87,0,0,1,34.13,0a1.72,1.72,0,0,1,.6.1,3.38,3.38,0,0,1,2,2.18,7.28,7.28,0,0,1,1.17-.1,6.22,6.22,0,0,1,.86.06A1.91,1.91,0,0,1,40,3a1.87,1.87,0,0,1,.35,1.39A1.89,1.89,0,0,1,38.46,6h-.11l-.18,0a1.51,1.51,0,0,0-.31,0,4.24,4.24,0,0,0-1.13.18l-.5.91a7.57,7.57,0,0,1,2.35.29,1.88,1.88,0,0,1-.13,3.58V11a1.89,1.89,0,0,1-1,1.54,2.48,2.48,0,0,1,.32.54,1.88,1.88,0,0,1,.12,1,1.84,1.84,0,0,1,1.12,1,1.76,1.76,0,0,1,.16.54A1.89,1.89,0,0,1,40.06,17h0c0-.07.07-.15.1-.23a4.91,4.91,0,0,1,.37-3.35,1.88,1.88,0,0,1,2.57-.66l.12.08a3.73,3.73,0,0,1,.4-.2,2,2,0,0,1,.72-.14,1.86,1.86,0,0,1,1.44.67,1.91,1.91,0,0,1,.43-1.05,1.88,1.88,0,0,1,1.26-.67h.17a1.8,1.8,0,0,1,1,.27,1.91,1.91,0,0,1,1.24-.66h.18a1.89,1.89,0,0,1,1.88,1.68,7.2,7.2,0,0,1-.47,3,1.87,1.87,0,0,1-.78,3l.12.25c2.13.87,3.34,1.92,3.6,3.15A1.89,1.89,0,0,1,53,24.39l-.15,0h-.23a1.9,1.9,0,0,1-.95-.26,1.87,1.87,0,0,1-1.54.8h-.15l-.22,0a1.89,1.89,0,0,1-1.35-1.1,1.92,1.92,0,0,1-1.28.63h0a1.93,1.93,0,0,1,0,1,1.87,1.87,0,0,1-3.44.38,4.06,4.06,0,0,1-.46-1.43h-.28c-.5,0-1.94,0-4-3-.8.3-1.63.63-2.48,1a6,6,0,0,1,2,2.9,3.68,3.68,0,0,1,1.14-.19h.29a1.89,1.89,0,0,1,1.27.66,1.79,1.79,0,0,1,.36.68h0a1.81,1.81,0,0,1,1,1,1.85,1.85,0,0,1,0,1.44,2.83,2.83,0,0,1-2.81,1.58A7,7,0,0,1,38,30.34a1.81,1.81,0,0,1-.48.94l-.15.14c1.54,1.85,2,3.55,1.28,5a1.88,1.88,0,0,1-1.68,1,2,2,0,0,1-.84-.19,1.89,1.89,0,0,1-.3-.19l-.26.17a2,2,0,0,1-.87.21,1.87,1.87,0,0,1-1.66-1c-.3-.56-.57-1.57.21-3.89l-.55-.47c-.83.09-1.69.2-2.56.34A3.22,3.22,0,0,1,31,33.71a1.87,1.87,0,0,1,0,1.43,1.89,1.89,0,0,1-1,1h0a1.87,1.87,0,0,1-1.19,3.32h-.11l-.17,0a4.39,4.39,0,0,1-3.11-2,6.83,6.83,0,0,1-.9-3.82q-1.2.3-2.43.66c1.12,2.07,1.83,4.36.16,5.6a1.88,1.88,0,0,1-2.81-2.31,11.75,11.75,0,0,0-1-2.15A105.4,105.4,0,0,0,3,41.91l-1.23.67Zm19.7-8.7,1-.29c0-.11,0-.23.08-.34l-1.07.63m5.57-3.18a1.9,1.9,0,0,1,.38.68,2,2,0,0,1,0,.93l.3-.07a1.63,1.63,0,0,1,.45-.09l1.11-.23a1.83,1.83,0,0,1-1-.85,1.86,1.86,0,0,1-.24-.92l-1,.55m-1.9-3.28.52-.29-.24,0a4.12,4.12,0,0,0-.28.31m-6.12-.53a2.46,2.46,0,0,1,.47.1,2.3,2.3,0,0,1,.58.31c.76-.78,1.53-1.58,2.29-2.41a1.81,1.81,0,0,1-1,.3,1.88,1.88,0,0,1-.84-.19,4,4,0,0,0-1,.66c-.17.41-.34.82-.52,1.23M13,22.87l.4.34a.67.67,0,0,0-.4-.34m13.36-1.65a2.16,2.16,0,0,1,1,1.28c.47-.24.94-.48,1.4-.7a4,4,0,0,1-1.23-1.94l-1.13,1.36m16.82-.47a1.8,1.8,0,0,1,.47.12c.07-.21.14-.41.22-.6q-.14-.21-.27-.39l-1,.27a5.2,5.2,0,0,0,.55.6m-9.48-3.06a2,2,0,0,1,.41.78,7.47,7.47,0,0,1,.08-.8l-.32,0h-.17m-3.45-1.38a10.23,10.23,0,0,1,2,.45,1.94,1.94,0,0,1-.2-.49,2.3,2.3,0,0,1-.05-.45,6.71,6.71,0,0,0-.81-.81c-.31.44-.62.87-.94,1.3m3.54-5.15c.35,0,.67.07,1,.12l0-.22-.26-.23-.5,0-.18.29"/><path class="cls-2" d="M52.94,22.47c-.23-1.11-2.5-2-3.24-2.28a27.76,27.76,0,0,0-1.41-2.74c.58-.05,1.14-.09,1.67-.09h.12a.38.38,0,0,0,0-.75H50l-.48,0a8.17,8.17,0,0,0,1-3.74.37.37,0,0,0-.41-.33.37.37,0,0,0-.34.41,8.33,8.33,0,0,1-1.08,3.7l-.92.09a.34.34,0,0,0-.14,0l-1.1.15c.65-1,1.66-2.83,1.58-3.65a.37.37,0,0,0-.74.07c.05.58-1,2.5-1.84,3.76l-1.17.26h0c-.69.16-1.4.35-2.12.56.51-1.14,1.43-2.82,2.38-3.22a.39.39,0,0,0,.21-.49.38.38,0,0,0-.5-.2,4.65,4.65,0,0,0-1.87,1.89,2.32,2.32,0,0,1,.15-1.36.38.38,0,0,0-.14-.51.37.37,0,0,0-.51.13A4.21,4.21,0,0,0,41.76,17c-.27.55-.47,1-.57,1.27C39.63,18.71,38,19.3,36.37,20c0-.18,0-.4,0-.62.67-.41,2.11-1.37,2.23-2.16a.37.37,0,0,0-.32-.42.38.38,0,0,0-.43.32c0,.27-.71.84-1.45,1.35a2.59,2.59,0,0,1,1.15-2.27.38.38,0,0,0-.32-.68c-1.89.9-1.67,3.81-1.53,4.78A158.91,158.91,0,0,0,13.05,32.45,112.93,112.93,0,0,0,23,22.78c1.12-.05,2.13.16,2.16.37a.36.36,0,0,0,.37.32h.05a.38.38,0,0,0,.32-.42c-.1-.8-1.32-1-2.24-1q1.59-1.79,3.15-3.73c.65,0,1.29.06,1.88.11.1.75.45,2.45,1.67,2.45a.38.38,0,1,0,0-.75c-.5,0-.78-.91-.9-1.62a5.44,5.44,0,0,1,2.5.63.37.37,0,0,0,.32.19.35.35,0,0,0,.19-.06.36.36,0,0,0,.13-.51c-.5-.84-3.41-1.09-5.21-1.17q1.62-2.06,3.16-4.26h.91c1.33,1,2.22,2.08,2.08,2.32a.37.37,0,0,0,.13.51.34.34,0,0,0,.19.05.36.36,0,0,0,.32-.18c.45-.74-.55-1.85-1.47-2.66,1.61.09,2.86.3,3,.56a.38.38,0,0,0,.35.23l.14,0a.37.37,0,0,0,.2-.49c-.38-.92-3.26-1.08-5.36-1.07.69-1,1.36-2.05,2-3.11.45,0,1.1-.1,1.8-.13.43.25,1.36.92,1.33,1.55a.38.38,0,0,0,.36.39h0a.38.38,0,0,0,.37-.36,2.14,2.14,0,0,0-.85-1.61,6.06,6.06,0,0,1,1.74.15.37.37,0,1,0,.25-.7,15.74,15.74,0,0,0-4.53-.09C34.3,7.42,35,6.17,35.68,4.89a5.64,5.64,0,0,1,2.73-.42.39.39,0,0,0,.43-.32.38.38,0,0,0-.32-.42,6.15,6.15,0,0,0-2.84.36c-.19-.85-.63-2.3-1.43-2.57a.37.37,0,0,0-.47.24.37.37,0,0,0,.23.47c.36.12.8,1.26,1,2.31-.67,1.27-1.39,2.5-2.11,3.72C32.32,7,31,4.57,29.84,4.24a.37.37,0,0,0-.2.72c.57.16,1.32,1.24,2,2.4a3.05,3.05,0,0,1-1.54-.5.38.38,0,1,0-.66.36c.36.66,1.9.88,2.62,1,.15.3.28.59.4.86-.66,1.08-1.34,2.14-2,3.16-.67-1.22-2.15-3.64-3.46-3.64h0a.38.38,0,0,0-.37.38.37.37,0,0,0,.37.37h0c.78,0,2.16,2,3,3.6q-1.52,2.17-3.11,4.2c-.06-.21-.13-.42-.19-.61.55-1.32,1.06-2.93.6-3.43a.39.39,0,0,0-.54,0,.35.35,0,0,0,0,.51,5.14,5.14,0,0,1-.42,1.87c-.57-1.43-1.13-2.11-1.66-2a.39.39,0,0,0-.33.44.36.36,0,0,0,.42.29,6.57,6.57,0,0,1,1.21,2.49v0c.13.37.25.77.37,1.17-1,1.27-2.06,2.5-3.11,3.67a2.32,2.32,0,0,0-1.39-2,.38.38,0,0,0-.2.73c.71.19.9,1.38.93,2a113.53,113.53,0,0,1-15.29,14,47.21,47.21,0,0,0,6.63-8.74A10.47,10.47,0,0,1,17,26.29a.38.38,0,0,0,.44.09.36.36,0,0,0,.18-.49.55.55,0,0,0-.34-.31,5.74,5.74,0,0,0-2.8.78c.46-.84.9-1.72,1.31-2.63a.3.3,0,0,0,.07-.15c.24-.53.47-1.07.68-1.62.26-.26,1.91-1.81,2.87-1.16a.38.38,0,1,0,.41-.63,2.52,2.52,0,0,0-2.76.4c.12-.35.24-.71.35-1.07,1.05,0,4.45-.25,4.85-2a.38.38,0,0,0-.28-.45.37.37,0,0,0-.45.28c-.21.91-2.31,1.31-3.87,1.38.15-.53.3-1.06.43-1.61a.37.37,0,0,0-.27-.45.38.38,0,0,0-.46.27c-.14.58-.3,1.14-.46,1.69a2.79,2.79,0,0,1-1.92-3.18.37.37,0,0,0-.73-.16,3.55,3.55,0,0,0,2.42,4.06,31.65,31.65,0,0,1-1.13,3.06,2.8,2.8,0,0,0-3-1.79.38.38,0,0,0-.34.41.37.37,0,0,0,.42.33c1.8-.18,2.33,1.6,2.44,2.08-.45,1-.93,1.94-1.43,2.85-.44-1.07-1.4-2.78-3-2.67a.37.37,0,0,0-.35.4.38.38,0,0,0,.4.35c1.25-.11,2.14,1.84,2.43,2.78A44.7,44.7,0,0,1,2,39.91L1.92,40h0l.4.63a108.15,108.15,0,0,1,16.64-7c1.36,2.07,2.23,4.15,1.85,4.43a.37.37,0,0,0-.08.53.36.36,0,0,0,.3.15.36.36,0,0,0,.22-.07c1.11-.82-.52-3.7-1.54-5.28,2.06-.64,4.22-1.23,6.42-1.72-.22,1.1-.53,3.45.44,5A2.92,2.92,0,0,0,28.62,38h.07a.37.37,0,0,0,.06-.74,2.15,2.15,0,0,1-1.55-1,3.81,3.81,0,0,1-.52-1.67A2.63,2.63,0,0,1,28.42,34a.72.72,0,0,1,.47.49.38.38,0,0,0,.35.24.34.34,0,0,0,.14,0,.38.38,0,0,0,.21-.49,1.49,1.49,0,0,0-1-.94,2.81,2.81,0,0,0-2,.41,10.87,10.87,0,0,1,.27-2.21,57.6,57.6,0,0,1,6.21-1A19.85,19.85,0,0,1,35,32.17c-.35.86-1,2.81-.63,3.6a.35.35,0,0,0,.33.2.33.33,0,0,0,.17,0,.37.37,0,0,0,.16-.51,5.59,5.59,0,0,1,.54-2.63c.81,1,1.39,2,1.06,2.64a.38.38,0,0,0,.17.5.33.33,0,0,0,.17,0,.36.36,0,0,0,.33-.21c.85-1.74-1.68-4.17-3.05-5.3.65-.05,1.28-.08,1.92-.1a.38.38,0,0,0,.37-.38.4.4,0,0,0-.09-.22,12.4,12.4,0,0,1,1-1.14,7,7,0,0,0,2.14.43A1.45,1.45,0,0,0,41,28.34a.38.38,0,0,0-.69-.31c-.18.42-1.28.29-2.25,0a2.34,2.34,0,0,1,1.54-.66A.37.37,0,0,0,40,27a.39.39,0,0,0-.35-.41c-1.69-.15-3.63,2.33-4.12,3-.77,0-1.53.08-2.3.15a.28.28,0,0,0-.13,0c-.9.08-1.8.19-2.7.32.58-.82,1.52-1.9,2.32-1.93a.37.37,0,0,0,.36-.38.39.39,0,0,0-.39-.37,3.1,3.1,0,0,0-1.92,1.07C30.26,27.77,29,26.38,28,27a.37.37,0,0,0-.14.51.38.38,0,0,0,.51.15c.48-.27,1.38.63,1.95,1.43a10,10,0,0,0-.84,1.19q-1.43.24-2.82.54a.45.45,0,0,0-.2,0c-1.23.27-2.44.56-3.64.88.15-.82.5-2.06,1.17-2.27a.38.38,0,0,0,.25-.47.37.37,0,0,0-.47-.24c-1.28.39-1.65,2.45-1.74,3.2-1,.27-2,.56-2.92.86a.47.47,0,0,0-.19.06h0A111.18,111.18,0,0,0,6.46,37.72l.26-.19a217.24,217.24,0,0,1,21.45-12.9c.79.42,2.38,1.45,2.46,2.41a.37.37,0,0,0,.37.34h0a.37.37,0,0,0,.34-.4,2.87,2.87,0,0,0-1-1.72,5.65,5.65,0,0,1,2-.23.39.39,0,0,0,.43.21.37.37,0,0,0,.28-.46.62.62,0,0,0-.31-.38c-.63-.37-2.38.06-3.14.27-.24-.17-.48-.33-.69-.45,1.25-.63,2.5-1.24,3.75-1.82.39.27.78.56,1.15.85-.15,1-.37,3.07.12,3.65a.37.37,0,0,0,.27.13.36.36,0,0,0,.24-.09.39.39,0,0,0,.06-.53,6.53,6.53,0,0,1,0-2.59c1,.89,1.76,1.74,1.66,2.13a.37.37,0,0,0,.27.45l.1,0a.37.37,0,0,0,.36-.28c.32-1.23-2.09-3.14-3.43-4.1,2-.92,4-1.75,6-2.44.56,1,2.09,3.37,3.36,3.37H43a.37.37,0,0,0,.34-.41.39.39,0,0,0-.41-.34c-.63.06-1.87-1.56-2.66-2.87,1.37-.47,2.71-.87,4-1.19.35.47.85,1.2,1.32,2-.34.75-1.47,3.49-.62,5a.39.39,0,0,0,.33.19.29.29,0,0,0,.18-.05.37.37,0,0,0,.15-.5c-.52-.95,0-2.73.42-3.84a4.78,4.78,0,0,1,.6,1.65A.37.37,0,0,0,47,23h0a.37.37,0,0,0,.35-.4C47.25,21.23,45.71,19,45,18c.85-.19,1.68-.33,2.47-.44,1,1.71,2.44,4.55,2.25,5.5a.37.37,0,0,0,.3.44h.07a.37.37,0,0,0,.37-.3,4.45,4.45,0,0,0-.36-2c1,.42,2,1,2.11,1.47a.37.37,0,0,0,.36.29h.08a.38.38,0,0,0,.29-.45"/></g></g></svg>