<svg xmlns="http://www.w3.org/2000/svg" viewBox="0 0 40.78 52.44"><defs><style>.cls-1{fill:#444;}.cls-2{fill:#c39b6a;}.cls-3{fill:#ffc91f;}.cls-4{fill:#ffd636;}.cls-5{fill:#d4ba9e;}.cls-6{fill:#ffcb24;}.cls-7{fill:#feae35;}</style></defs><title>Honey</title><g id="Layer_2" data-name="Layer 2"><g id="레이어_1" data-name="레이어 1"><path class="cls-1" d="M15.49,52.43c-4.68-.09-8.29-1.45-10.75-4C2,45.45,1.26,41.56,1.22,38.5a2.76,2.76,0,0,1-.61-.62C.2,37.28-1,35.51,1.88,27.45a4.45,4.45,0,0,1-.61-3.91C2.41,19.45,8.58,18.19,13,17.82c0-.27,0-.56,0-.85.09-2.25-.84-3-2.14-4.1S7.59,10.16,8.2,6.68A7.52,7.52,0,0,1,16,.37h.46a6.44,6.44,0,0,1,5.52,2.8C27.53,1.86,36,0,38.22,0l.41,0a2.47,2.47,0,0,1,2,1.93,2.76,2.76,0,0,1-.28,2.21,2.42,2.42,0,0,1-1.62,1.08L22.88,7.67a4.94,4.94,0,0,1-2.53,4.45c-.91.6-1.69,1.12-1.91,4.15,0,.5-.06,1-.08,1.44,4.5.26,8.48,1.63,10.42,3.63a4.34,4.34,0,0,1,1.34,3.16A4.62,4.62,0,0,1,29.25,27,17.6,17.6,0,0,1,31,32.78a3.19,3.19,0,0,1-.55,2.48l0,0c.26,4.11-.25,9.35-3.56,13C24.37,51,20.7,52.44,16,52.44Z"/><path class="cls-2" d="M3.07,34.49S-.56,50.63,15.51,50.93,29,35,28.57,32.29,3.07,34.49,3.07,34.49Z"/><path class="cls-3" d="M3.83,26.5s-4.41,11-1.1,11,2.08-3.22,4.59-3.12.1,3.79,3.74,3.79,3.32,1.16,3.22,2.86S16,42.74,16,42.74s2.9.72,2.54-5.28c0,0,0-1.79,1.64-1.79s.82,3.33,3,2.77.41-2.67,2.21-4.56,4.4,2.66,4.09-1-3-7.89-3-7.89H4.81Z"/><path class="cls-4" d="M15.84,19.18S4.05,19.13,2.72,23.94s6.75,5.79,13.87,5.79,11.93-2.15,12-5.27S22.43,18.92,15.84,19.18Z"/><path class="cls-4" d="M13.87,23.89s.36-.92.62-6.86S8.75,12.22,9.67,6.94,16,1.87,16,1.87s5.36-.56,5.36,5.07S17.46,9,17,16.16s1,8,1,8"/><path class="cls-5" d="M19.35,5.3s16.95-4,19.11-3.79c0,0,.56.05.76.82a1.05,1.05,0,0,1-.71,1.44c-.57.1-18.8,2.86-18.8,2.86Z"/><path class="cls-6" d="M15.46,22.05s-7.94,0-8.4,2.35,11.47,1.8,11.47,1.8,4.71-.11,5.38-1.8S20.43,21.89,15.46,22.05Z"/><ellipse class="cls-7" cx="16.04" cy="6.63" rx="4.74" ry="3.45" transform="translate(-0.91 2.89) rotate(-10.01)"/></g></g></svg>