<svg xmlns="http://www.w3.org/2000/svg" viewBox="0 0 46.22 44.39"><defs><style>.cls-1{fill:#444;}.cls-2{fill:#fde293;}.cls-3{fill:#d7a743;}</style></defs><title>Hulled_rice</title><g id="Layer_2" data-name="Layer 2"><g id="레이어_1" data-name="레이어 1"><path class="cls-1" d="M41.87,19a2.85,2.85,0,0,0-.52-.06,4.64,4.64,0,0,0-.1-3.09C37.88,7.08,30.39,3,26.39,3a4.34,4.34,0,0,0-2.3.58,5.1,5.1,0,0,0-1.86,2,3.27,3.27,0,0,0-.42-.69C19.56,2,11.25,0,7.6,0A8.07,8.07,0,0,0,6.38.08c-1.59.28-4.67,1.69-4.91,5A5.72,5.72,0,0,0,3.35,9.23a12.61,12.61,0,0,0,1.49,1.35,4.93,4.93,0,0,0-2,1.93C-.8,19.06-.41,25.81,1.05,29.6c.79,2.06,2,3.45,3.29,3.92a11.9,11.9,0,0,0,2.55,5.23,1.27,1.27,0,0,0,0,.2c.06,3.34,3.06,4.91,4.69,5.29a10,10,0,0,0,1.86.15h0c4,0,11.39-1.62,13.66-4.07,1.2-.49,2.36-1,3.45-1.54a3,3,0,0,0,.46.64,2.49,2.49,0,0,0,1.79.74h.3a5.52,5.52,0,0,0,1.79-.59A2.36,2.36,0,0,1,36,39.21a2.86,2.86,0,0,1,1.06.25,2.52,2.52,0,0,0,.9.17h0a3.68,3.68,0,0,0,2.56-1.29c2.79-2.81,5.75-10.49,5.73-13.83C46.15,22.89,45.16,19.66,41.87,19Z"/><path class="cls-2" d="M23.34,9.8s-1.07-3.34,1.54-5,11.41,2.27,15,11.53L39.66,18l-3.84.57-2.56.8L29.38,17,24.44,11.6Z"/><path class="cls-2" d="M9.66,30.15s-1.88,3-4.79,2S-.67,21.89,4.19,13.24l1.34-.87L8.42,15l2.25,1.46.66,4.5-1,7.23Z"/><path class="cls-2" d="M44.72,24.57s-.15-3.5-3.15-4.11-9.93,6.06-10.09,16l.73,1.43,3.8-.79L38.69,37l2.83-3.56,2.79-6.74Z"/><path class="cls-3" d="M44.72,24.57S42.21,34.4,38,36.28a3.23,3.23,0,0,1-2.26-.38c-1.18-.68-2.59,2-4.3.53,0,0,0,2.39,1.45,2.22s2.12-1.58,4.65-.59S44.74,28.42,44.72,24.57Z"/><path class="cls-2" d="M27.09,31s3.5.22,4.43-2.7-5-10.51-14.86-11.69l-1.49.58.39,3.86-.15,2.67,3.25,3.19,6.41,3.47Z"/><path class="cls-2" d="M6.64,1.56S3.19,2.16,3,5.22s7.31,9.06,17.16,7.91l1.32-.91L20.17,8.56,19.7,5.92,15.8,3.58l-7-1.89Z"/><path class="cls-2" d="M11.85,42.77S8.43,42,8.38,38.92s7.77-8.66,17.55-7l1.27,1-1.47,3.59-.61,2.61-4,2.14L14,42.74Z"/><path class="cls-3" d="M11.62,17.2h0a5.58,5.58,0,0,0-2.88-5,3.68,3.68,0,0,0-3.22-.27h0a3.37,3.37,0,0,0-1.33,1.32c2.23-.43,2.08,2.62,3.44,2.62a3.18,3.18,0,0,1,2.14.81c2.67,3.73-.11,13.48-.11,13.48C11.1,27.71,12.21,20.83,11.62,17.2Z"/><path class="cls-3" d="M27.09,31s-9.51-3.5-10.95-7.85A3.19,3.19,0,0,1,16.76,21c.79-1.11-1.76-2.78-.1-4.33,0,0-1.53-.16-2.12.55v0s-1.28.74-1,3.76,1.75,3.88,1.75,3.89C17.8,27.45,24.21,30.74,27.09,31Z"/><path class="cls-3" d="M22.82,9.38C22.82,6.76,20,5.17,20,5.17h0c-2.74-2.12-10.31-4-13.32-3.61,0,0,10.06,1.2,12.48,5.09A3.22,3.22,0,0,1,19,8.94c-.52,1.26,2.35,2.3,1.09,4.19a4.24,4.24,0,0,0,.56-.12C22.73,12.78,22.82,12,22.82,9.38Z"/><path class="cls-3" d="M40,16.86h0c-.07-.28-.14-.48-.14-.48-1.09,2-3.34-.07-4.22,1a3.23,3.23,0,0,1-2,1.14c-4.57-.33-10.3-8.69-10.3-8.69.87,2.43,4.78,7,7.87,9.22h0a6.53,6.53,0,0,0,8,.59S40.84,19,40,16.86Z"/><path class="cls-3" d="M27.2,32.38h0a4.24,4.24,0,0,0-1.27-.46c1.16,1.95-1.76,2.84-1.31,4.12a3.17,3.17,0,0,1,0,2.29C22,42.1,11.85,42.77,11.85,42.77c2.76.53,9.52-.72,12.77-2.48h0s3.54-1.3,4-4.33S27.2,32.38,27.2,32.38Z"/></g></g></svg>