<svg xmlns="http://www.w3.org/2000/svg" viewBox="0 0 49.35 47.45"><defs><style>.cls-1{fill:#444;}.cls-2{fill:#b2ce3a;}.cls-3{fill:#a1c13b;}.cls-4{fill:#cde870;}.cls-5{fill:#b3c640;}.cls-6{fill:#6e8414;}.cls-7{fill:#6da139;}.cls-8{fill:#95c763;}</style></defs><title>Japanese_apricot</title><g id="Layer_2" data-name="Layer 2"><g id="레이어_1" data-name="레이어 1"><path class="cls-1" d="M35.09,47.45c-5.67,0-9.79-2.51-11.81-7.12a17,17,0,0,1-11.11,3.81H12c-4,0-8.24-3-10.42-7.17a11.46,11.46,0,0,1,.12-11.34c-.24-.55-.46-1.12-.66-1.7-1.49-4.43-1.35-8.27.41-11.4,2.62-4.65,8-6.19,9.63-6.55l.41-.09,1-.33.07,0a8.52,8.52,0,0,1,1.67-.17c2.75,0,5.37,1.36,7.79,4a13.25,13.25,0,0,1,1.65,2.3c3-6.11,2.72-9.22,2.72-9.25L26.16,0l2.31,1a15.28,15.28,0,0,1,8,9.63,18,18,0,0,1,7.05,4.09c2.9,2.67,4.08,7.52,3,12a13.79,13.79,0,0,1,2,13.09c-1.72,4.35-5.78,7-11.44,7.54-.67.06-1.33.09-2,.09Z"/><path class="cls-2" d="M22,18.23s-4.7,13.42,9.64,15.94S48.21,21,42.52,15.8s-11.63-4.49-13.44-4.05S22.74,13.51,22,18.23Z"/><path class="cls-3" d="M23,21a1,1,0,0,0,1.35-.41,1.13,1.13,0,0,0,.08-.24c3.78.05,12.26-.28,15.72-4.35l-.56-.47c-3.29,3.83-11.66,4.14-15.28,4.08a1,1,0,0,0-.37-.38A1,1,0,1,0,23,21Z"/><path class="cls-4" d="M11.83,7.35s-14,2.29-9.39,16.1,19.46,8.26,21.33.75-1.61-12.36-2.86-13.74S16.33,5.74,11.83,7.35Z"/><path class="cls-3" d="M11.67,7.68s-.35-.12-.28-.24l.44-.09.5-.16c4.55,2.5,7,10.36,7.84,13.94a1.07,1.07,0,0,1,.25,0,1,1,0,1,1-1.21.74.94.94,0,0,1,.27-.45c-.85-3.51-3.27-11.57-7.81-13.75"/><path class="cls-5" d="M23.45,33s-1,14.18,13.47,12.87,12.55-17,5.69-20.58-12.4-1.29-14-.4S22.92,28.25,23.45,33Z"/><path class="cls-6" d="M40.54,31.88a1,1,0,0,0-1.39-.29.77.77,0,0,0-.18.18c-3.3-1.86-10.95-5.61-15.89-3.7l.26.68c4.7-1.81,12.22,1.94,15.37,3.72a1,1,0,0,0,.15.51,1,1,0,1,0,1.68-1.1Z"/><path class="cls-7" d="M21.4,32.38S16.57,26.75,22.52,17,27.88,2.35,27.88,2.35s11,4.74,6.75,19.39-12.56,11-12.56,11Z"/><path class="cls-8" d="M30.25,21.72a3,3,0,0,1-1.55.14,30,30,0,0,1-2.63,4.93,1.86,1.86,0,0,0,1.89-.6.74.74,0,0,1,1,1.08,3.17,3.17,0,0,1-3.74.75,30.45,30.45,0,0,1-3.94,4.5.74.74,0,0,1-1-.06.73.73,0,0,1,.07-1A30,30,0,0,0,24,27.14a6.57,6.57,0,0,1-2.5-5.48.73.73,0,0,1,.75-.7h0a.74.74,0,0,1,.7.77,5.1,5.1,0,0,0,1.87,4.19,29,29,0,0,0,2.5-4.72,4.57,4.57,0,0,1-1.67-4,.73.73,0,0,1,.75-.67h.05a.73.73,0,0,1,.66.8,3.06,3.06,0,0,0,.78,2.35,20.7,20.7,0,0,0,.94-10.27.74.74,0,0,1,.6-.85h.15a.73.73,0,0,1,.7.62,22.38,22.38,0,0,1-1,11.23,1.56,1.56,0,0,0,.46-.09.74.74,0,0,1,.53,1.38"/><path class="cls-3" d="M25.59,27.09S20.08,14,7.75,21.73,4.26,42.57,12,42.64s11.64-4.46,12.69-6S28.21,31.09,25.59,27.09Z"/><path class="cls-6" d="M25.86,27.54c-1.37,5-8.44,9.18-11.72,10.88a1,1,0,1,1-1-.76,1,1,0,0,1,.51.16C16.9,36.17,24.17,31.94,25.23,27l.12-.44.24.51Z"/></g></g></svg>