<svg xmlns="http://www.w3.org/2000/svg" viewBox="0 0 48.56 44.58"><defs><style>.cls-1{fill:#444;}.cls-2{fill:#90251d;}.cls-3{fill:#ca271d;}.cls-4{fill:#6da139;}.cls-5{fill:#95c763;}.cls-6{fill:#ef3d21;}</style></defs><title>Jujube</title><g id="Layer_2" data-name="Layer 2"><g id="레이어_1" data-name="레이어 1"><path class="cls-1" d="M26.5,44.58A7.58,7.58,0,0,1,23,43.75a21.24,21.24,0,0,1-3.67-.63c-3.29-1-5.49-4-6.31-8.48h-.21a7.54,7.54,0,0,1-4.68-1.59,20,20,0,0,1-3.49-1.28A8.61,8.61,0,0,1,.3,25.5C-1,18.94,2.2,10,6,5.49a10.56,10.56,0,0,1,8.38-3.91,15.53,15.53,0,0,1,6.44,1.5l.1,0A22.55,22.55,0,0,1,32.79,0a33.57,33.57,0,0,1,8.32,1.11L44.7,2,41.49,3.86a18.1,18.1,0,0,0-3,2.27l.28.17c6,3.79,9.27,7.72,9.7,11.68A7.66,7.66,0,0,1,47,23.53,19.23,19.23,0,0,1,45.69,27c-1.26,2.44-3.61,3.95-6.84,4.47l-.05.26-.31.83c-4,9.92-8.71,12-12,12Z"/><path class="cls-2" d="M37.09,32c-6.16,15.4-13.67,10.2-13.67,10.2a16.5,16.5,0,0,1-3.68-.58c-7.4-2.24-6.5-16.9-2.6-23.89s12.49-4.34,12.49-4.34,11,1.56,7.73,17.9Z"/><path class="cls-3" d="M38,7.58c14,8.85,7.53,15.3,7.53,15.3a15.89,15.89,0,0,1-1.23,3.5c-3.55,6.87-17.81,3.32-24-1.8s-2-13.07-2-13.07S21.91,1,37.38,7.18Z"/><path class="cls-4" d="M19.18,6.55s6.69-7.9,21.85-4A18.85,18.85,0,0,0,34.4,9.33c-2.21,4.29-5.37,5.93-9.92,5.87S19.18,6.55,19.18,6.55Z"/><path class="cls-5" d="M37.05,3.25a28.6,28.6,0,0,0-4.76.84c-.13-.52-.28-1.48.3-1.74a.37.37,0,0,0,.2-.49.37.37,0,0,0-.49-.19c-1,.43-1,1.71-.74,2.62a25.18,25.18,0,0,0-5.38,2.25,2.13,2.13,0,0,1,.16-2.66.37.37,0,0,0-.54-.52,2.88,2.88,0,0,0-.27,3.57,15.85,15.85,0,0,0-3.41,2.7.37.37,0,0,0,0,.53.38.38,0,0,0,.53,0A16.26,16.26,0,0,1,25.9,7.6c.43.91,1.64,3,3.9,3h0a.37.37,0,0,0,.37-.36.37.37,0,0,0-.36-.39C28,9.81,26.89,8,26.55,7.22A23.83,23.83,0,0,1,31.72,5a2.32,2.32,0,0,0,2.22,2.09h.14a.37.37,0,0,0,.35-.39A.38.38,0,0,0,34,6.37c-1.15.06-1.5-1-1.6-1.54A29.94,29.94,0,0,1,37.12,4a.36.36,0,0,0,.34-.4A.38.38,0,0,0,37.05,3.25Z"/><path class="cls-6" d="M24.12,24.11c-8.86,14-15.3,7.53-15.3,7.53a16,16,0,0,1-3.51-1.23C-1.56,26.86,2,12.6,7.11,6.44s13.08-2,13.08-2S30.7,8,24.51,23.46Z"/></g></g></svg>