<svg xmlns="http://www.w3.org/2000/svg" viewBox="0 0 59.08 31.49"><defs><style>.cls-1{fill:#444;}.cls-2{fill:#74721c;}.cls-3{fill:#4c4a1a;}.cls-4{fill:#403e17;}.cls-5{fill:#91914d;}.cls-6{fill:#848145;}</style></defs><title>Kelp</title><g id="레이어_2" data-name="레이어 2"><g id="레이어_1-2" data-name="레이어 1"><path class="cls-1" d="M44.39,31.49a13.43,13.43,0,0,1-5.84-1.74l-.19.06a19.9,19.9,0,0,1-2.64.52l-.17,0-.18,0a3.94,3.94,0,0,1-1.2-.36,23,23,0,0,1-5-3.72c-11.23-4-16.69-7.68-16.92-7.84l-.08-.05-.08-.07a7,7,0,0,0-2.07-1.41c-.6-.08-2-.69-8.15-5.16A4.07,4.07,0,0,1,0,8.15C.15,5.59,2.91,3.64,4,3,4.58,2.18,6.52,0,9,0A4.54,4.54,0,0,1,12.1,1.26C14.4,2.05,19.86,3.82,22,4a22.47,22.47,0,0,1,5,1.26L28.33,3.6l4.8,3.76a8.53,8.53,0,0,1,1-.79l.32-.19.09,0A3.3,3.3,0,0,1,35,6.15,2.52,2.52,0,0,1,35.79,6a1.91,1.91,0,0,1,1,.3l.16.07.05.06c1.09.63,5.29,3.43,8.07,10,1.31,3.1,3,3.11,3.52,3.11h0a5.67,5.67,0,0,0,3-1A3.39,3.39,0,0,1,53.5,18a6.88,6.88,0,0,1,4.62,2.28l1,.92-.8,1.06c-1.69,2.27-4.2,6-4.49,7.16l-.33,1.29-1.32-.16a16.24,16.24,0,0,0-1.77-.09,11,11,0,0,0-4,.64,4.18,4.18,0,0,1-2,.41"/><path class="cls-2" d="M38.58,28.07c-.28.39-3,.78-3,.78C33.91,28.68,30,25,30,25c-11.39-4.06-16.89-7.78-16.89-7.78-1.89-1.67-2.84-1.78-2.84-1.78-.77,0-7.5-4.89-7.5-4.89C-1.09,7.63,5,4.13,5,4.13S8.25-.54,11.3,2.57c0,0,.95,1.89-.33,5.67,0,0-2.17,6.33,3.39,2.55,0,0,2.94-1.66,5.39-.28a4.45,4.45,0,0,0,4.89,0s.94-.89,2.27,1c0,0,1.34,2.62,7-2.83,0,0,3.5-3.44,2,1.45,0,0-1.39,7.16-.06,10.88,0,0-.22,5.67.84,6.23Z"/><path class="cls-3" d="M22.41,19.64c-2.66,0-10.3-7.26-10.63-7.58l.17-.18c.08.08,7.9,7.51,10.45,7.51h.1l0,.25h-.11"/><path class="cls-4" d="M21.86,11.2S20,12.35,21,13.46s5.44,6,5.5,7.22S30,25,30,25s3.77,3.67,5.5,3.89c0,0,2.64-.35,3-.78l-1.94-.83s-.89.33-.84-6.23c0,0-1.31-3.13.06-10.88,0,0,1.69-4.81-2-1.45,0,0-5,5.22-7,2.83,0,0-1.08-1.83-2.27-1a5,5,0,0,1-2.78.74"/><path class="cls-3" d="M11.3,2.57s7.64,2.67,10.56,2.94a18.7,18.7,0,0,1,5.58,1.64s-3.06,3.47-5.58,4a3.67,3.67,0,0,1-2.11-.69,5.53,5.53,0,0,0-5.39.28s-5.31,4-3.39-2.55a9.21,9.21,0,0,0,.33-5.67"/><path class="cls-5" d="M27.44,7.15l1.14-1.44,4.64,3.64s-4.64,4.43-6.31,2.16c0,0-1.13-1.83-2.27-1a4.89,4.89,0,0,1-2.78.74s2.17-.32,5.58-4"/><path class="cls-6" d="M36.1,7.62S40.75,10,43.72,17s8.75,2.7,8.75,2.7,1.69-1.2,4.61,1.61c0,0-4.25,5.69-4.75,7.69,0,0-3.92-.5-6.64.7,0,0-1.8,1.22-7.11-1.67l-1.94-.83s-1.09-.31-.84-6.23c0,0-1.27-4,.06-10.89,0,0,.61-1.83.24-2.5"/></g></g></svg>