<svg xmlns="http://www.w3.org/2000/svg" viewBox="0 0 20.75 43.48"><defs><style>.cls-1{fill:#444;}.cls-2{fill:#ca2910;}.cls-3{fill:#fb3321;}</style></defs><title>Ketchup_1</title><g id="Layer_2" data-name="Layer 2"><g id="레이어_1" data-name="레이어 1"><path class="cls-1" d="M10.68,43.48A17.07,17.07,0,0,1,7,43C0,41.44,0,38.31,0,37.7L3.93,12.38A3.23,3.23,0,0,1,5.76,9.83c0-.05,0-.1,0-.14C6,9,6.75,7,9.94,6.74l1.44-5.26.2-.25A3.09,3.09,0,0,1,14,0a4,4,0,0,1,2.8,1.39l.4.46-.4,6.25a5,5,0,0,1,2.59,2.42,3.09,3.09,0,0,1,.24,1.61,3.23,3.23,0,0,1,1,3.12L15.77,40.88l0,.11c-.09.25-1,2.49-5.05,2.49Z"/><path class="cls-2" d="M5.42,12.53,1.5,37.84s-.22,2.35,5.87,3.72,6.94-1.07,6.94-1.07L19.21,15l-.75-.39-6.17.15Z"/><path class="cls-3" d="M19.21,15s-.86,3.12-7.55,2-6.24-4.5-6.24-4.5,0-2.83,6.73-1.51S19.45,13.56,19.21,15Z"/><path class="cls-3" d="M15.68,2.37S14.1.54,12.74,2.19L13.24,5,15,4Z"/><path class="cls-3" d="M7.25,10.1s.35-2.85,6.14-1.57,4.71,3.71,4.71,3.71A2.85,2.85,0,0,1,15,14.37a31.71,31.71,0,0,1-5.34-.8L7.49,11.73Z"/><path class="cls-2" d="M15.12,11.28a3.16,3.16,0,0,1-2.75.48c-1.61-.46-1.87-1.35-1.87-1.35l2.24-8.22s1.56,1.4,2.94.18Z"/><path class="cls-2" d="M18.1,12.24s.57,4.28-5.55,3.44S6.65,12,7.25,10.1C7.25,10.1,11.5,16,18.1,12.24Z"/></g></g></svg>