<svg xmlns="http://www.w3.org/2000/svg" viewBox="0 0 53.01 45.3"><defs><style>.cls-1{fill:#444;}.cls-2{fill:#871716;}.cls-3{fill:#fedecc;}.cls-4{fill:#9b1c1c;}.cls-5{fill:#a82222;}</style></defs><title>Kidney_beans</title><g id="Layer_2" data-name="Layer 2"><g id="레이어_1" data-name="레이어 1"><path class="cls-1" d="M52.94,28.25a8.76,8.76,0,0,0-9.12-7.79c-.34,0-.7.05-1.06.07A7.48,7.48,0,0,0,46,15.66c.35-4.23-.81-7.32-7.59-8.72A32.64,32.64,0,0,1,27.61,2.11a7.93,7.93,0,0,0-5-2.11,6,6,0,0,0-4,1.55,9.27,9.27,0,0,0-3.13,7.14c.18,3.19,2.18,6.25,6,9.12a15,15,0,0,0-4,2.15A32.23,32.23,0,0,1,6.55,24.55C4.24,24.72.1,26.21,0,30.78a9.38,9.38,0,0,0,2.38,6.48c1.79,1.9,4.39,2.86,7.73,2.86h0A25.07,25.07,0,0,0,16,39.33a25.35,25.35,0,0,0,7.83-3.28c-.26,3,.63,5.89,2.27,7.19a7.73,7.73,0,0,0,4.81,2.06c2.09,0,4.2-1.13,6.66-3.56a32.33,32.33,0,0,1,10-6.29C49.74,34.92,53.58,32.77,52.94,28.25Z"/><path class="cls-2" d="M19.76,3s-7.89,6.52,4.43,14.59,19.72,1,20-2,0-5.53-6.15-6.8a34.09,34.09,0,0,1-11.54-5.2S23,.09,19.76,3Z"/><path class="cls-3" d="M28.9,7.18s2.65,2.85,6,2.6c0,0,1.5-.11.44-.63S31,7.81,29.4,6.47C29.4,6.47,27.87,5.77,28.9,7.18Z"/><path class="cls-4" d="M1.81,30.88S1.23,41.1,15.52,37.57s14.12-13.8,12.1-16-4-3.77-9.17-.12A34,34,0,0,1,6.79,26.35S1.91,26.59,1.81,30.88Z"/><path class="cls-3" d="M11.13,27.07s3.9,0,6-2.63c0,0,.94-1.18-.16-.75S13,26,11,26.21C11,26.21,9.4,26.86,11.13,27.07Z"/><path class="cls-5" d="M51.14,28.44s-1.07-10.18-14.61-4.38S24.83,40,27.19,41.82s4.59,3.06,9.06-1.37A34.17,34.17,0,0,1,47,33.71S51.74,32.7,51.14,28.44Z"/><path class="cls-3" d="M42.57,33.71s-3.85.64-5.5,3.57c0,0-.73,1.31.29.71s3.53-2.9,5.51-3.46C42.87,34.53,44.31,33.63,42.57,33.71Z"/></g></g></svg>