<svg xmlns="http://www.w3.org/2000/svg" viewBox="0 0 38.2 44.1"><defs><style>.cls-1{fill:#444;}.cls-2{fill:#e2dcc9;}.cls-3{fill:#97765d;}.cls-4{fill:#fdf6e6;}</style></defs><title>King_oyster_mushroom</title><g id="Layer_2" data-name="Layer 2"><g id="레이어_1" data-name="레이어 1"><path class="cls-1" d="M5.3,42.8A9.22,9.22,0,0,1,.35,37.49a7.07,7.07,0,0,1,.49-5.55,30.88,30.88,0,0,1,4.63-5.78c2.38-2.57,5.08-5.48,6.42-8.64l.08-.17c.93-2.2,1.72-4.05,2.17-5.49a11,11,0,0,1-2-1.3h0a3.73,3.73,0,0,1-.36-.32l-.06-.06h0a6.71,6.71,0,0,1-1.4-2.33c-.48-1.27-.42-4.08,2.84-6.66C16-1.12,21.69.33,25.69,2.27c1.44.69,4,2.13,5.2,3.93a29.2,29.2,0,0,0,4.8,5.38c.33.31,2.52,2.48,2.51,5.07A4.52,4.52,0,0,1,36.72,20a5.78,5.78,0,0,1-5.47,1.47,8.34,8.34,0,0,1-1.88-.67,14,14,0,0,0-2.71,3.65c-.44.85-.92,1.85-1.43,2.93C21.7,34.67,16.87,44.74,10,44.07A13.78,13.78,0,0,1,5.3,42.8Z"/><polygon class="cls-2" points="13.51 8.04 14.23 5.78 17.56 7.55 17.89 9.96 16.97 10.74 13.71 8.89 13.51 8.04"/><polygon class="cls-2" points="30.51 15.31 28.93 17.81 32.81 19.68 34.43 16.62 30.51 15.31"/><path class="cls-3" d="M13.2,9.32a11.17,11.17,0,0,0,4.22,2c2.84.8,1.1-.73,1.1-.73S14,9.74,14,8.13a1.33,1.33,0,0,0-1.34-1.54Z"/><path class="cls-3" d="M28,18a10.43,10.43,0,0,0,3.68,1.78l.77-.79a6.09,6.09,0,0,1-3.58-1.88Z"/><path class="cls-4" d="M25.18,23.65c-3.12,6.11-8.36,19.42-15,18.77s-10-5.7-7.83-9.7,8.59-8.63,11.12-14.55S17.35,9.05,15,7.49a.56.56,0,0,0-.93.38c-.2.9,1,1,0,1.54S11.9,7.63,11.82,7.26c0,0-.88-2.26,2.32-4.8S27.44,3.93,29.51,7.1a30,30,0,0,0,5.12,5.74s3.57,3.43.95,5.9c0,0-2.07,2-4.31.91,0,0-.68-.22-.47-.73s1-.08,1.36-.91-1.66-.64-2.07-.15A19.42,19.42,0,0,0,25.18,23.65Z"/></g></g></svg>