<svg xmlns="http://www.w3.org/2000/svg" viewBox="0 0 47.17 37"><defs><style>.cls-1{fill:#444;}.cls-2{fill:#f9d73a;}.cls-3{fill:#fff;}.cls-4{fill:#6a4a24;}.cls-5{fill:#f6ead6;}</style></defs><title>Korean melon</title><g id="Layer_2" data-name="Layer 2"><g id="레이어_1" data-name="레이어 1"><path class="cls-1" d="M31.63,37a9.43,9.43,0,0,1-4.38-1,31.82,31.82,0,0,1-8.64-6.1c-.9.29-1.48.43-1.74.49a11.11,11.11,0,0,1-3.89.75,9.31,9.31,0,0,1-8.06-5,5.1,5.1,0,0,1-2.66-1.72,4.77,4.77,0,0,1-.93-3.35c-.66-1-1.79-3.1-1-5a11.73,11.73,0,0,1,.91-8c1.7-3.27,5-5.61,9.82-6.95A43.44,43.44,0,0,1,20.16,0C25.57,0,29,1.46,30.35,4.34c.22.23.58.64,1,1.19a33.46,33.46,0,0,1,5.26,3.21c7.16,4.87,10.73,9.78,10.54,14.53-.18,4.51-3.69,7.31-5,8.19a5.74,5.74,0,0,1-1,1.4,8,8,0,0,1-2,1.56A13.19,13.19,0,0,1,31.63,37Z"/><path class="cls-2" d="M23.61,26.25c18-8.69,5.48-21.06,5.48-21.06-2.6-6.26-17.62-2.66-17.62-2.66C-1.61,6.19,1.94,16.27,1.94,16.27c-1.22,1.67.94,4.38.94,4.38A3.38,3.38,0,0,0,5.93,24.8S8.87,31.85,16.46,29a32.12,32.12,0,0,0,7.15-2.71"/><path class="cls-3" d="M5.93,24.8l-.46-.08a19.38,19.38,0,0,1,.76-5.33.28.28,0,0,1,.35-.21.33.33,0,0,1,.19.4c-.32,1.15-1,4.29-.65,5.61C6.12,25.19,6,24.87,5.93,24.8Z"/><path class="cls-3" d="M2.87,20.75a9.35,9.35,0,0,1,3.29-1.43A.3.3,0,0,0,6.39,19,.34.34,0,0,0,6,18.73a10.9,10.9,0,0,0-3.45,1.46s.31.46.33.46Z"/><path class="cls-3" d="M5.91,18.34a.31.31,0,0,0,.22-.09.29.29,0,0,0,0-.41c-.28-.24-2.62-2.18-4.29-2a3.35,3.35,0,0,0,.12.4l-.12.19C3,16.22,5,17.67,5.7,18.27a.31.31,0,0,0,.21.07"/><path class="cls-3" d="M6.19,17.81a.3.3,0,0,1-.27-.18c0-.1-3.58-9.36,5.33-15a11.07,11.07,0,0,1,1.82-.39s0,0-.06,0C2.69,7.57,6.42,17.32,6.46,17.42a.28.28,0,0,1-.16.37l-.11,0"/><path class="cls-3" d="M7.12,17.94a.33.33,0,0,1-.14,0,.28.28,0,0,1-.1-.39c.08-.14,8.39-13.76,22-12.85,0,0,.24.43.28.55s-.09,0-.15,0C15.67,4.21,7.44,17.66,7.36,17.8a.27.27,0,0,1-.24.14"/><path class="cls-3" d="M7.46,19.38a.29.29,0,0,1-.28-.25.28.28,0,0,1,.24-.31c.81-.1,19.88-2.37,25.52-1.71a.28.28,0,1,1-.06.56C27.3,17,7.69,19.35,7.49,19.37h0"/><path class="cls-3" d="M21.68,25.43A22.14,22.14,0,0,1,7.1,19.58a.28.28,0,0,1,0-.4.29.29,0,0,1,.4,0c.08.09,8.32,8.31,20,4.81a.28.28,0,0,1,.36.18.27.27,0,0,1-.19.35,20.3,20.3,0,0,1-5.95.9"/><path class="cls-3" d="M12.7,29.65s0,0-.06,0c-5.8-2.66-5.57-10-5.57-10a.29.29,0,0,0-.29-.3.32.32,0,0,0-.32.28c0,.07-.21,6.63,4.62,9.86A7.74,7.74,0,0,0,12.7,29.65Z"/><path class="cls-2" d="M14.15,12.53S10.76,26.18,28,34.72c0,0,5.41,3.08,12.1-2.87Z"/><path class="cls-4" d="M17.83,8.52s-.38-1.28.89-.77l.45.39-.7.81Z"/><path class="cls-5" d="M18.42,8.26s-11.06,3.91,1,17.46,20.7,7.65,21.53,4.74c0,0,13.55-7.73-5.23-20.53,0,0-12.86-9.9-17.29-1.67"/><path class="cls-1" d="M36.58,30.73h-.1C17.48,25.39,17.26,13,17.26,12.9a.37.37,0,1,1,.74,0c0,.12.26,11.93,18.68,17.1a.37.37,0,0,1,.26.46.36.36,0,0,1-.36.27"/><path class="cls-1" d="M41.82,26.34a.37.37,0,0,1-.37-.37c0-.12-.25-11.93-18.68-17.1a.37.37,0,0,1,.2-.72C42,13.48,42.19,25.84,42.19,26a.37.37,0,0,1-.37.37Z"/><path class="cls-1" d="M27.65,21.59c.17.17-.17.79-.76,1.37s-1.2.93-1.37.76.17-.78.76-1.37,1.2-.93,1.37-.76"/><path class="cls-1" d="M29.8,23.21c.21.12,0,.8-.37,1.52s-.92,1.21-1.13,1.09,0-.8.37-1.52.93-1.21,1.13-1.09"/><path class="cls-1" d="M32,24.5c.23.07.23.77,0,1.56s-.62,1.39-.85,1.32-.22-.77,0-1.57.62-1.38.85-1.31"/><path class="cls-1" d="M34.25,25.57c.23,0,.35.72.26,1.54s-.36,1.48-.6,1.45-.35-.72-.26-1.54.36-1.48.6-1.45"/><path class="cls-1" d="M25.28,19.42c-.15-.19-.79.1-1.43.63s-1,1.12-.87,1.3.79-.1,1.43-.63,1-1.12.87-1.3"/><path class="cls-1" d="M23.64,17.52c-.11-.21-.8-.08-1.54.29s-1.26.86-1.15,1.07.8.08,1.54-.29,1.26-.85,1.15-1.07"/><path class="cls-4" d="M6.89,19.86a1.39,1.39,0,0,1-1.18-1.1,1.26,1.26,0,0,1,.61-1.65c.56-.17,1.17.3,1.4,1.06a1.79,1.79,0,0,1,0,1,.94.94,0,0,1-.62.66.83.83,0,0,1-.22,0m-.35-2.22H6.48c-.22.06-.37.47-.23,1s.49.76.71.69.2-.2.23-.29a1.18,1.18,0,0,0,0-.67c-.13-.43-.42-.69-.64-.69"/><path class="cls-1" d="M22.19,15.45c-.07-.23-.77-.23-1.57,0s-1.39.61-1.32.84.77.23,1.57,0,1.39-.61,1.32-.84"/><path class="cls-4" d="M7.35,18.18a.83.83,0,0,1-.25,1.13.83.83,0,0,1-1-.55.84.84,0,0,1,.25-1.13.82.82,0,0,1,1,.55"/><path class="cls-1" d="M31.64,17c.2.13.73-.33,1.18-1s.65-1.38.44-1.51-.73.34-1.18,1-.64,1.37-.44,1.5"/><path class="cls-1" d="M33.68,18.78c.16.17.79-.14,1.4-.7s1-1.15.82-1.33-.79.13-1.4.69-1,1.16-.82,1.34"/><path class="cls-1" d="M35.39,20.6c.12.21.81,0,1.53-.35s1.22-.9,1.11-1.11-.81-.06-1.53.35-1.22.9-1.11,1.11"/><path class="cls-1" d="M36.93,22.61c.08.23.78.2,1.57-.07s1.36-.66,1.29-.89-.78-.2-1.57.07-1.37.67-1.29.89"/><path class="cls-1" d="M29,15.17c-.22-.11-.08-.8.31-1.53s.87-1.25,1.08-1.14.08.8-.31,1.54-.87,1.24-1.08,1.13"/><path class="cls-1" d="M26.8,14c-.23-.06-.25-.76,0-1.57s.57-1.41.8-1.35.25.77,0,1.57S27,14,26.8,14"/><path class="cls-1" d="M24.47,13c-.24,0-.39-.7-.33-1.53s.3-1.49.54-1.47.39.7.33,1.53S24.71,13,24.47,13"/></g></g></svg>