<svg xmlns="http://www.w3.org/2000/svg" viewBox="0 0 51.39 36.48"><defs><style>.cls-1{fill:#444;}.cls-2{fill:#ddbfb6;}.cls-3{fill:#a03545;}.cls-4{fill:#f5d7cd;}.cls-5{fill:#c23b4a;}</style></defs><title>Limb_1</title><g id="Layer_2" data-name="Layer 2"><g id="Layer_1-2" data-name="Layer 1"><path class="cls-1" d="M51.27,2.21a2.28,2.28,0,0,1,.08,1.19,13,13,0,0,1-.73,2.79c-.08.23-.15.43-.19.57a3,3,0,0,1,0,1.34,2,2,0,0,1-2,1.73h0a2.4,2.4,0,0,1-1.14-.3,3.81,3.81,0,0,0-1.83-.31,14.18,14.18,0,0,0-5.33,1,4.31,4.31,0,0,1-2.13.86c-1.1,2.34-4.29,4.37-5.39,5-3.26,2.16-4.5,6.66-4.51,6.7a36.51,36.51,0,0,1-1.16,3.93c-.69,1.82-3,4.44-4.91,5a3.4,3.4,0,0,0-1.39.8l-.1.09a19.74,19.74,0,0,1-1.88,1.51l0,0-.43.29-.12.08a8.44,8.44,0,0,1-2.53,1.15l-.14,0-.39.06-.47,0a2.69,2.69,0,0,1-1.08-.2h-.15a3.22,3.22,0,0,0-.64.07l-.26.06-.47.15c-.17.06-.29.1-.42.16a6.23,6.23,0,0,1-2.35.43H8.75a7.79,7.79,0,0,1-3.2-.68h0A5.87,5.87,0,0,1,3.11,34.1a5.25,5.25,0,0,1-.56-.64h0A16.5,16.5,0,0,1,.78,30.68a7.4,7.4,0,0,1,1.5-8.53,11.46,11.46,0,0,1,4.84-6c3.39-1.92,6.75-6.78,6.79-6.83S16,6.12,21,6.12a14.69,14.69,0,0,1,3.21.38h.18A9,9,0,0,0,29,5.5C31.11,4,34.87,3.67,35.8,3.62a2,2,0,0,1,.44-.05,2.06,2.06,0,0,1,1,.24,8.57,8.57,0,0,1,1.61-.46,45.9,45.9,0,0,0,7.28-3l.07,0,.06,0A5.83,5.83,0,0,1,48.08,0a3.38,3.38,0,0,1,1.8.47S51.28,1.13,51.27,2.21Z"/><path class="cls-2" d="M48.94,6.53a19.66,19.66,0,0,0,.91-3.34s-.2-.22-.84,0a7.42,7.42,0,0,1-1.78.23l-.45,0-.72.17-.55.17a5.75,5.75,0,0,0-2.78.58l-.91.38a11.55,11.55,0,0,0-1.68.61l-.52.19c-1.56.66-2.6,1-2.6,1a4.46,4.46,0,0,0-.33,1.09l-.2.57-.89.57-.47.18a4.75,4.75,0,0,1-1,.73,18.23,18.23,0,0,0-10.5,13.26h0l-2.82,3.46L17.93,28l-5.55,2.11-3.89-.4L6.67,25.46,3.6,22.92v0l0,0S.11,26,2.11,29.89,6,34.23,6,34.23s2.89,1.16,4.95.3,3-.47,3-.47,1.5,1,5.55-2.65a5,5,0,0,1,2.08-1.22c1.28-.36,3.34-2.51,3.92-4a36.8,36.8,0,0,0,1.11-3.76s1.34-5,5.2-7.58c0,0,4.94-2.9,5-5.19h0a3.21,3.21,0,0,0,2.36-.57C40.27,8.26,46,7,48,8.22c0,0,.76.42.93-.41S48.83,7,48.94,6.53Z"/><path class="cls-3" d="M17.83,30.21l-.42.17-.89-.46-1.4-.67H12L10.63,32.4a7,7,0,0,1-3-.77,8.46,8.46,0,0,1-3.13-3.58l-.25-.27a6.16,6.16,0,0,0-.5,4.67A5.47,5.47,0,0,0,6,34.23a7.67,7.67,0,0,0,3.61.62,4.05,4.05,0,0,0,1.55-.39,7.29,7.29,0,0,1,2.82-.4s.94.77,3.55-1.08l.23-.11A7.34,7.34,0,0,0,17.83,30.21Z"/><path class="cls-4" d="M36.53,8.72C25.36,15.44,24,24.22,24,24.22c-1.36,5.67-11.1,7.67-11.1,7.67-5.64,2.33-8.42-3.84-8.42-3.84C3.18,26.78,3,24.84,3.6,22.92a9.8,9.8,0,0,1,4.26-5.48c3.73-2.11,7.28-7.28,7.28-7.28S17.47,6.44,24,8c0,0,3.86.16,5.86-1.28S36,5.11,36,5.11s1.45-.61,1.06,3.11Z"/><path class="cls-5" d="M18.62,23.35s-.7,3,1,2.55,2.63-.48,3-3.07,2.74-9.7,8.44-12.59c0,0,1.85-.74,0-1.78S19.88,15.46,18.62,23.35Z"/><path class="cls-5" d="M20.88,11.72C19.17,12.79,16.62,19,16.62,19a3,3,0,0,1-3.11,0c-1.7-1,0-2.77,0-2.77s4-4.93,6.89-4.93C20.4,11.31,21.68,11.22,20.88,11.72Z"/><path class="cls-4" d="M49.59,2.27c-.71-1.33-2.82-.54-2.82-.54s-5.48,2.69-7.66,3.1-2.09,1-2.09,1a1.62,1.62,0,0,0,.12,1.09,1.85,1.85,0,0,1,0,.23v.2s6-3.43,10-3.45S49.59,2.27,49.59,2.27Z"/><path class="cls-5" d="M17.84,30.28v-.06c0-1-2.17-5.09-2.17-5.09a4.18,4.18,0,0,0-3.33-4.67c-4-1.15-8.1,7.33-8.1,7.33a9.38,9.38,0,0,0,2.95,3.58h0l.27.18a5.06,5.06,0,0,0,4.43.71h0a5.52,5.52,0,0,0,1.05-.36C13.8,32,17.84,30.28,17.84,30.28Z"/></g></g></svg>