<svg xmlns="http://www.w3.org/2000/svg" viewBox="0 0 49.64 48.41"><defs><style>.cls-1{fill:#444;}.cls-2{fill:#5eaf37;}.cls-3{fill:#fff;}.cls-4{fill:#29707c;}</style></defs><title>Leek</title><g id="Layer_2" data-name="Layer 2"><g id="레이어_1" data-name="레이어 1"><path class="cls-1" d="M5.15,47.62l-.09.1L4.25,47l-.45.46-.91-.88-.16.15-1-1.09L0,43.79l1.45-1.37-.77-.93,4.84-4.2c6-5.42,20.21-19.13,21.75-29a2,2,0,0,1,2-1.69h.11l.17,0A2,2,0,0,1,31.05,7.7a1.75,1.75,0,0,1,.4,0,1.84,1.84,0,0,1,.41,0,2,2,0,0,1,1.26.85,2,2,0,0,1,.33,1.22,40.74,40.74,0,0,0,5.21-7.24,2,2,0,0,1,1.79-1.12,2,2,0,0,1,1.9,1.35,2,2,0,0,1,.1.72C46.33.07,47,0,47.53,0h.12a2,2,0,0,1,2,1.89,1.91,1.91,0,0,1-.5,1.44A2,2,0,0,1,48.08,4a51.45,51.45,0,0,0-5.55,4.8,2,2,0,0,1,.35,3.94,3.09,3.09,0,0,0-.61.22A13.6,13.6,0,0,1,45,12.34h.2a2,2,0,0,1,1.55,3.26,2,2,0,0,1-1.34.72,17.65,17.65,0,0,0-5.54,1.83,2,2,0,0,1-.59,3.59,33.11,33.11,0,0,0-6.15,2.42h.75a2,2,0,0,1,1.93,2.06,2,2,0,0,1-1.9,1.93H33.4c-8.86,0-19.81,11.5-24.11,16.44-.21.25-.86,1-1.4,1.66s-.75.92-.79,1l-.91,1.19Z"/><path class="cls-2" d="M16.54,30.44a.51.51,0,0,1-.36-.15.51.51,0,0,1,0-.71c.14-.13,13.47-13.5,14.78-20a.5.5,0,0,1,1,.2c-1.37,6.82-14.49,20-15,20.53A.5.5,0,0,1,16.54,30.44Z"/><path class="cls-2" d="M14.7,35.88a.49.49,0,0,1-.34-.14.5.5,0,0,1,0-.71c.12-.12,12.13-12.41,24.29-15.72a.5.5,0,0,1,.61.36.5.5,0,0,1-.35.61C27,23.51,15.18,35.61,15.06,35.73A.51.51,0,0,1,14.7,35.88Z"/><path class="cls-2" d="M13.21,36.05a.48.48,0,0,1-.36-.16.5.5,0,0,1,0-.71c.88-.82,21.57-20.24,32.28-21.35a.5.5,0,0,1,.55.44.5.5,0,0,1-.45.55C34.88,15.9,13.77,35.71,13.56,35.91A.52.52,0,0,1,13.21,36.05Z"/><path class="cls-2" d="M3.4,42.44c1-.8,24.17-19.88,26.34-33.81a.5.5,0,0,0-.41-.57.52.52,0,0,0-.58.42C26.64,22,3,41.47,2.77,41.67Z"/><path class="cls-2" d="M2.79,44.59c1.36-1.26,33.24-31,38.11-41a.5.5,0,1,0-.9-.44C35.21,13,2.44,43.55,2.11,43.86Z"/><path class="cls-2" d="M3.77,45.31C20.21,28.38,45.46,3,47.67,2.5a.5.5,0,0,0-.06-1C44.89,1.65,10,37.44,3.06,44.61Z"/><path class="cls-2" d="M5,45.6c.3-.32,30.42-32.65,37.53-34.37a.5.5,0,0,0,.37-.6.51.51,0,0,0-.61-.37c-7.39,1.79-36.77,33.32-38,34.66Z"/><path class="cls-2" d="M5.91,46.31c.15-.2,15.29-19.66,27.49-19.66h.39a.54.54,0,0,0,.52-.48.5.5,0,0,0-.48-.52C21,25.19,5.76,44.86,5.12,45.7Z"/><path class="cls-3" d="M2.77,41.67,6.52,38.4l.71.73s-3.6,3.16-3.83,3.31Z"/><polygon class="cls-3" points="3.06 44.62 7 40.56 7.73 41.24 3.77 45.31 3.06 44.62"/><polygon class="cls-3" points="4.26 44.92 7.61 41.37 8.36 42.04 4.99 45.6 4.26 44.92"/><path class="cls-3" d="M5.12,45.7s1.51-1.89,2.33-2.83l.79.64s-2,2.37-2.33,2.8Z"/><polygon class="cls-3" points="2.11 43.86 5.97 40.21 6.69 40.92 2.79 44.59 2.11 43.86"/><path class="cls-4" d="M11.5,40a10.37,10.37,0,0,0-3.16-3.26s2.68-2.55,2.92-2.79c0,0,1.14,2.6,3.09,3.23Z"/></g></g></svg>