<svg xmlns="http://www.w3.org/2000/svg" viewBox="0 0 43.61 51.76"><defs><style>.cls-1{fill:#444;}.cls-2{fill:#f9d73a;}.cls-3{fill:#6a4a24;}.cls-4{fill:#6da139;}.cls-5{fill:#95c763;}.cls-6{fill:#f6ead6;}</style></defs><title>Lemon</title><g id="Layer_2" data-name="Layer 2"><g id="레이어_1" data-name="레이어 1"><path class="cls-1" d="M27.69,51.76c-4,0-7.61-1.85-10.8-5.51-.55-.63-1.06-1.26-1.53-1.92h-.54c-.52,0-1,0-1.44-.07s-.57,0-.81,0a.85.85,0,0,0-.32,0A8.18,8.18,0,0,1,9,44.81a12.38,12.38,0,0,1-1.8-.12l-.17,0-.16-.07c-1.52-.6-2-2.81-2.22-4.42A13.62,13.62,0,0,1,.07,28.66C2.54,11.26,13.74,9.12,16.64,8.86a6,6,0,0,1,3.93-2,3.5,3.5,0,0,1,1.21.21,20.87,20.87,0,0,0,2.87-5.87A1.87,1.87,0,0,1,26.41,0a1.93,1.93,0,0,1,.67.12,1.91,1.91,0,0,1,1,1,1.87,1.87,0,0,1,.07,1.43,12.33,12.33,0,0,1,1.18,1.33c.23,0,.47,0,.74,0,2.22,0,6.25,1.17,8.31,9C40.07,19.15,38.05,23,36,25.21a20.29,20.29,0,0,1,1.6,1.45c6.56,6.56,7.92,14,3.39,18.55l-.1.08c-1.45,1.53-6.68,6.47-13.16,6.47Z"/><path class="cls-2" d="M26.3,14.4c8.21,10.53-3.63,24.66-3.63,24.66-5.63,5.63-9.34,3.09-11,3.82a9.39,9.39,0,0,1-4.23.33c-1.11-.44-1.33-3.78-1.33-3.78A12.2,12.2,0,0,1,1.55,28.88C4.22,10.1,17.33,10.32,17.33,10.32s2.3-2.81,4.3-1.63a6.94,6.94,0,0,0,3.09,1.19s1.8-.37,1.35,3.18a1.93,1.93,0,0,0,.23,1.34"/><path class="cls-3" d="M22.4,9.49a.37.37,0,0,1-.34-.22.36.36,0,0,1,.17-.49s1.67-1,3.83-7a.38.38,0,1,1,.71.25c-2.29,6.38-4,7.36-4.21,7.45a.34.34,0,0,1-.16,0"/><path class="cls-4" d="M28.19,5.72a11.12,11.12,0,0,0-2.32-2.63l.33-.38a11.19,11.19,0,0,1,2.45,2.82Z"/><path class="cls-4" d="M28.19,5.72s-3.4,3.74.46,10.49,3.35,10,3.35,10,7.59-3,5-13-8.31-7.68-8.31-7.68Z"/><path class="cls-5" d="M34.87,13.17a2,2,0,0,0-1-.13,20.72,20.72,0,0,0-1.69-3.4,1.24,1.24,0,0,1,1.27.45.5.5,0,0,0,.7-.72,2.14,2.14,0,0,0-2.52-.58A20,20,0,0,0,29,5.66a.5.5,0,0,0-.71,0,.48.48,0,0,0,0,.7,21.64,21.64,0,0,1,2.42,3A4.46,4.46,0,0,0,28.92,13a.49.49,0,0,0,.5.49h0a.5.5,0,0,0,.49-.5,3.48,3.48,0,0,1,1.35-2.81,20.08,20.08,0,0,1,1.61,3.25,3.12,3.12,0,0,0-1.22,2.67.5.5,0,0,0,.5.47h0a.5.5,0,0,0,.47-.53,2.06,2.06,0,0,1,.58-1.58,14.1,14.1,0,0,1,.43,7,.5.5,0,0,0,.4.58h.1a.48.48,0,0,0,.48-.4A15.14,15.14,0,0,0,34.17,14a1.16,1.16,0,0,1,.31.07.5.5,0,0,0,.66-.27.49.49,0,0,0-.27-.65"/><path class="cls-2" d="M39.9,44.15c-4.14,4.13-12.86,2.56-18.42-3s-7.34-12.73-3.2-16.87S31,22.15,36.51,27.72,44,40,39.9,44.15"/><path class="cls-6" d="M22.5,40.11c-5.48-5.49-6.91-12-3.41-15.51s11.38-1.79,16.84,3.68c4.65,4.64,7.56,11.1,3.6,15.07-3.61,3.61-11.72,2.06-17-3.24"/><path class="cls-2" d="M40.09,43.92S28.47,57.23,18,45.27s.5-21.24.5-21.24-6.61,6.11,3.41,16.64c0,0,9.7,10.2,18.16,3.25"/><path class="cls-2" d="M24.71,23.44s-1.49.52.43,2.43,3.29,3.83,3.4,4.86a1.2,1.2,0,0,0,1.09,1.1s1.22.19,1.24-1.49a7.82,7.82,0,0,1,.42-3.08s.67-1.62-2.82-2.82-3.76-1-3.76-1"/><path class="cls-2" d="M27.77,32.06s.84-.38.34-1.52-1.47-2.9-4.51-5.39-5,.92-5,.92a.94.94,0,0,0,.53,1.29,54.93,54.93,0,0,1,6.38,3.56,16.13,16.13,0,0,0,2.28,1.14"/><path class="cls-2" d="M27.38,32.32s1.43,1,.89,1.56-8.15,1.19-8.15,1.19-2.27.93-2.19-5.9c0,0,0-1.35,1.45-1s4.41,3,8,4.1"/><path class="cls-2" d="M31.25,32.42s3.58-.28,4.67-1.37S35,28.29,35,28.29c-3.29-3.25-3.1-1.75-3.1-1.75s-.38,4.3-1,5.48a.46.46,0,0,0,.4.4"/><path class="cls-2" d="M31.48,32.85s2,0,5.48-1.75c0,0,.94-.9,2,2,0,0,.81,2.17-.46,2.26a14.37,14.37,0,0,1-6.9-2s-.46-.19-.1-.48"/><path class="cls-2" d="M31.5,34s4.71,2.14,7.9,1.7c0,0,1.54-.25,1.14,3.79s-2.75,1.39-2.75,1.39l-6.45-6.6s-.21-.27.16-.28"/><path class="cls-2" d="M32.64,44.31a18.46,18.46,0,0,0-1.39-8.59s-.23-.83.88,0,5.7,5.71,5.7,5.71,2.22,1.56-2.07,3c0,0-3.34,1-3.12-.12"/><path class="cls-2" d="M25.58,41.19a39.66,39.66,0,0,0,4.48-5.84s.37-.82,1.06.91A25.13,25.13,0,0,1,31.87,44c-.22.7-3.41-.63-3.41-.63s-4-1.63-2.88-2.22"/><path class="cls-2" d="M20.68,35.54a46.24,46.24,0,0,0,8-1.36s1.49-.6.14,1.66a29.94,29.94,0,0,1-4,4.87s-.44,1.13-3.07-2.12-1.05-3.05-1.05-3.05"/></g></g></svg>