<svg xmlns="http://www.w3.org/2000/svg" xmlns:xlink="http://www.w3.org/1999/xlink" viewBox="0 0 45.61 46.96"><defs><style>.cls-1{fill:#444;}.cls-2{fill:url(#무제_그라디언트_44);}.cls-3{fill:#f6ecaf;}</style><linearGradient id="무제_그라디언트_44" x1="8.95" y1="41.85" x2="31.72" y2="9.68" gradientUnits="userSpaceOnUse"><stop offset="0" stop-color="#97bb2c"/><stop offset="0.16" stop-color="#97b72c"/><stop offset="0.32" stop-color="#97ac2d"/><stop offset="0.48" stop-color="#98982e"/><stop offset="0.63" stop-color="#987d2f"/><stop offset="0.78" stop-color="#995b31"/><stop offset="0.93" stop-color="#9a3134"/><stop offset="1" stop-color="#9a1935"/></linearGradient></defs><title>Lettuce</title><g id="Layer_2" data-name="Layer 2"><g id="레이어_1" data-name="레이어 1"><path class="cls-1" d="M2.52,47A2.71,2.71,0,0,1,.16,45L0,44.57l1.11-4.13,1.06-.09s.89-.08,2.17-.33a2.9,2.9,0,0,0,.48-1,2.48,2.48,0,0,1,1.57-1.68,2,2,0,0,1,.37-.94,2.13,2.13,0,0,1,1.56-.8A2.29,2.29,0,0,1,9,34.1,1.86,1.86,0,0,1,9.08,33a1.75,1.75,0,0,1,.37-.61,1.86,1.86,0,0,1-.22-1.05A2,2,0,0,1,10,30a.89.89,0,0,0-.39-.28A2.32,2.32,0,0,1,8.15,27a2.22,2.22,0,0,1-1.56-1.64,1.68,1.68,0,0,1,.14-1,2.61,2.61,0,0,1-.86-1.92,2.12,2.12,0,0,1,.8-1.55,5.29,5.29,0,0,0-.25-1.51c-.12-.47-.25-1-.36-1.59a3.79,3.79,0,0,1,.62-3.31,2.6,2.6,0,0,1,.86-.69,3.56,3.56,0,0,1-.32-1.46A3.85,3.85,0,0,1,9,9.21a2.91,2.91,0,0,1,1.74-.6,2.72,2.72,0,0,1,.72.1,2.67,2.67,0,0,1,2-.78,2.37,2.37,0,0,0,.46,0,4.11,4.11,0,0,0,.59-.73,3.21,3.21,0,0,1,1.39-1.3,2.74,2.74,0,0,1,2.85-2.64A1.51,1.51,0,0,0,20,2.58a3.12,3.12,0,0,1,1.58-1.06,2.89,2.89,0,0,1,.76-.1,3.07,3.07,0,0,1,2.16,1A5.17,5.17,0,0,1,28.93.33c.24,0,.48,0,.74,0a2,2,0,0,0,.34,0,4.65,4.65,0,0,0,1.23-.2A4.53,4.53,0,0,1,32.37,0c1.21,0,2,.79,2.39,2.34.14.59,1.39,1.53,2.31,2.21,1.51,1.13,3.08,2.3,3.55,4a2.42,2.42,0,0,0,1,1.34,3.46,3.46,0,0,1,1.48,3.43c-.1.62,0,.76.07.93a2.37,2.37,0,0,1,.35,1.07c1.56.49,1.81,2.87,2.05,5.18l0,.29c.21,2-1.48,2.74-2.29,3.09a3,3,0,0,0-.78.42h0a1.24,1.24,0,0,0,.06.54c.84,3.2-1.36,4-2.42,4.42-.76.29-1.2.47-1.49,1a6,6,0,0,1-3.53,2.64L34.7,33a3.09,3.09,0,0,1-.86,2,6.9,6.9,0,0,1-5,1.78h-.72a2.07,2.07,0,0,1,0,1.78c-.49,1.07-1.73,1.46-2.91,1.68-.06.1-.16.27-.23.41a4.44,4.44,0,0,1-3.35,2.56,1.66,1.66,0,0,0-1.29.95,1.89,1.89,0,0,1-1.61,1.09,1.66,1.66,0,0,1-1.17-.5l-.24.23a2.35,2.35,0,0,1-1.51.68,1.58,1.58,0,0,1-1.25-.54A3.41,3.41,0,0,1,13,45.4h-.21a14.47,14.47,0,0,0-2.06.18A20.32,20.32,0,0,1,3,47Z"/><path class="cls-2" d="M4.69,41.56v1.7s2,1.77,2.71,1.52A21.62,21.62,0,0,1,13,43.9c2,0,.92-1.27,1.87-1.36s.28,2.4,1.48,1.29,1.69-1.17,2.22-.31.4-1.42,2.86-1.83,2.06-2.69,3.45-2.94,2.33-.66,1.86-1.49-.7-2.11,1.83-2,4.8-1,4.67-2.52,2.81-.89,4.17-3.26,4.61-1,3.76-4.26,3.19-2.18,3-4.28-.44-4.75-1.55-4.12-1.14.19-.66-.88-.6-.76-.29-2.84-1.76-1.77-2.43-4.14-5.33-4-5.87-6.25-1.42-.57-3.79-.83S25.72,3,25.72,3.41s-.66,1.45-1.55.73S22.94,2.72,22,3,21,4.58,18.77,4.71s-.91,2.18-2,2.4S15.9,8,14.89,9s-2.46-.16-2.56,1.36-.88-1.08-2.49.09-1.36,2.84,0,3.89-.44,1.8-.76,1-2-.32-1.58,2.11,1.17,3.67.1,4.55,1.57,2,.94,2.5-.88.69.54,1.2-.28,2.11,1,2.62,2,2.05.88,2.78,1.36,1.61.57,2-1.54.16-.79,1.27-1.23,0-.94,1.86-2.44,0-1.9,1.93-1-.44-1.7,1.45S4.69,41.56,4.69,41.56Z"/><path class="cls-3" d="M2.54,45.46c7.56.12,10.49-2.89,12.36-4.1s2.42-2.46,3.18-2.79,3.08-3.7,3.27-4.91,3.08-5.68,3.26-6.6a1.38,1.38,0,0,1,1.14-1,12.46,12.46,0,0,0,5.76-2.53c2.6.28,3.27-.27,3.27-.27A7.89,7.89,0,0,1,32.19,23c3.65-2.82,3.75-4,3.75-4-3.49,4.33-10.57,6.61-10.07,6.28s.83-1.85,1.4-3.25,4.12-2.2,4.12-2.2c5.47-1.37,6-4.26,6-4.26-1.82,2.84-7.65,4.35-8.9,4.73s-.41-1.06-.38-1.7,1.2-1.07,1.2-1.07,6.09-1.8,7.09-2.86a17.64,17.64,0,0,1,2.86-2.25c-.71-.05-3,1.91-3.5,2.15s-.12-.4-.12-.4c1-2.35.12-3.1.12-3.1a5.06,5.06,0,0,1-.57,2.74c-.78,2-4.62,2.63-5.45,3.08s-.71-.09-.71-.09a35.26,35.26,0,0,1,1.42-5.4,1.72,1.72,0,0,1,.78-.74c2.84-1.44,2.94-2.77,2.94-2.77a5.87,5.87,0,0,1-3.51,2.32c1-3.76.19-4.85.19-4.85.55,2.18-1.77,8-1.77,8A7.87,7.87,0,0,0,28,9.51c-1.2-2.18.36-4.93.36-4.93-1.35.28-1.14,3.6-1.59,3.67s-1.06-1.37-1.06-1.37c-.26,1.37,2,2.67,2.72,5.21s-1.49,8.69-2,9.66-.49-.57-.49-.57c-.5-3.31-3.58-2.7-3.89-8.77s2.08-6.95,2.08-6.95c-.82-.18-1.48.79-1.48.79a1.4,1.4,0,0,0-1.55-1.07,1.68,1.68,0,0,1,1,2.15c-2.4,6.57,1.92,12,1.92,12s2.21,2.3.73,4.52-1.39,1-1.39,1a5.19,5.19,0,0,0-.91-2.25s-4.36-6.12-2.75-7.86.91-4.39.91-4.39C20.23,14.65,19,14.18,19,14.18c-.47-.57-.72-5-.72-5-.54.89-.13,3.38-.13,3.38s-.79-.88-1.3-.92-1.64-1.1-1.64-1.1.63,1.51,1.68,1.64,1.8,2.18,1.68,4.17S21,22,22.06,23.88s-.51,4.29-3.32,6.91S17.79,34,13.5,37.68,2.29,41.84,2.29,41.84l-.72,2.67S1.9,45.45,2.54,45.46Z"/></g></g></svg>