<svg xmlns="http://www.w3.org/2000/svg" viewBox="0 0 43.61 51.76"><defs><style>.cls-1{fill:#444;}.cls-2{fill:#3db135;}.cls-3{fill:#6a4a24;}.cls-4{fill:#45a235;}.cls-5{fill:#f6ead6;}.cls-6{fill:#bbcf00;}.cls-7{fill:#6da139;}.cls-8{fill:#95c763;}</style></defs><title>Lime</title><g id="Layer_2" data-name="Layer 2"><g id="레이어_1" data-name="레이어 1"><path class="cls-1" d="M15.92,51.76c4,0,7.62-1.86,10.81-5.51.55-.63,1.05-1.26,1.52-1.92h.54c.53,0,1,0,1.45-.07s.56,0,.8,0a.8.8,0,0,1,.32,0,8.17,8.17,0,0,0,3.23.56,11.78,11.78,0,0,0,1.81-.13l.17,0,.16-.07c1.51-.6,2-2.81,2.21-4.42a13.59,13.59,0,0,0,4.6-11.52C41.07,11.26,29.87,9.12,27,8.86A6,6,0,0,0,23,6.9a3.54,3.54,0,0,0-1.21.21A21.17,21.17,0,0,1,19,1.24,1.87,1.87,0,0,0,17.2,0a1.87,1.87,0,0,0-1.69,1.07,1.82,1.82,0,0,0-.08,1.43,13.51,13.51,0,0,0-1.18,1.33,5.6,5.6,0,0,0-.74,0c-2.22,0-6.25,1.17-8.31,9C3.54,19.15,5.57,23,7.65,25.21c-.57.46-1.11.95-1.61,1.44-6.56,6.56-7.92,14-3.38,18.56l.09.08c1.45,1.53,6.69,6.47,13.17,6.47Z"/><path class="cls-2" d="M17.32,14.4C9.1,24.93,21,39.06,21,39.06c5.63,5.63,9.33,3.09,11,3.82a9.35,9.35,0,0,0,4.22.33c1.11-.44,1.33-3.78,1.33-3.78a12.17,12.17,0,0,0,4.56-10.55C39.39,10.1,26.28,10.32,26.28,10.32S24,7.51,22,8.69a6.94,6.94,0,0,1-3.09,1.19s-1.8-.37-1.35,3.18a2,2,0,0,1-.22,1.34"/><path class="cls-3" d="M21.22,9.49a.38.38,0,0,0,.34-.22.37.37,0,0,0-.17-.49c-.05,0-1.67-1-3.84-7a.37.37,0,0,0-.48-.23.38.38,0,0,0-.22.48c2.29,6.38,4,7.36,4.21,7.45a.29.29,0,0,0,.16,0"/><path class="cls-4" d="M3.72,44.14c4.14,4.14,12.85,2.57,18.42-3s7.33-12.73,3.19-16.87S12.67,22.15,7.1,27.72-.42,40,3.72,44.14"/><path class="cls-5" d="M21.11,40.1c5.48-5.48,6.92-12,3.41-15.5S13.15,22.81,7.68,28.28C3,32.92.12,39.38,4.09,43.35c3.6,3.6,11.72,2.06,17-3.25"/><path class="cls-4" d="M3.52,43.92S15.15,57.23,25.6,45.27,25.09,24,25.09,24s6.62,6.11-3.41,16.64c0,0-9.69,10.2-18.16,3.25"/><path class="cls-6" d="M18.91,23.44s1.48.51-.43,2.43-3.3,3.83-3.4,4.86A1.2,1.2,0,0,1,14,31.82s-1.21.19-1.23-1.48a7.82,7.82,0,0,0-.42-3.08s-.68-1.62,2.82-2.82,3.76-1,3.76-1"/><path class="cls-6" d="M15.84,32.06s-.84-.38-.33-1.52S17,27.64,20,25.15s5,.92,5,.92a.94.94,0,0,1-.53,1.29,54.93,54.93,0,0,0-6.38,3.56,15.37,15.37,0,0,1-2.28,1.14"/><path class="cls-6" d="M16.23,32.32s-1.42,1-.89,1.56,8.15,1.19,8.15,1.19,2.28.93,2.19-5.9c0,0,0-1.35-1.45-1s-4.41,3-8,4.1"/><path class="cls-6" d="M12.37,32.41s-3.58-.27-4.68-1.36.93-2.76.93-2.76c3.28-3.25,3.1-1.75,3.1-1.75s.37,4.29,1,5.47a.45.45,0,0,1-.4.4"/><path class="cls-6" d="M12.13,32.85s-2,0-5.48-1.75c0,0-.93-.9-2,2,0,0-.8,2.17.46,2.26a14.39,14.39,0,0,0,6.91-2s.45-.19.09-.48"/><path class="cls-6" d="M12.12,34s-4.71,2.14-7.9,1.7c0,0-1.55-.25-1.15,3.79s2.76,1.39,2.76,1.39l6.45-6.6s.2-.27-.16-.28"/><path class="cls-6" d="M11,44.31a18.37,18.37,0,0,1,1.38-8.59s.23-.83-.88,0-5.7,5.71-5.7,5.71-2.21,1.56,2.07,3c0,0,3.35,1,3.13-.12"/><path class="cls-6" d="M18,41.19a39.66,39.66,0,0,1-4.48-5.84s-.37-.82-1.06.91A25.13,25.13,0,0,0,11.74,44c.22.7,3.41-.63,3.41-.63s4-1.63,2.88-2.22"/><path class="cls-6" d="M22.94,35.54a46.44,46.44,0,0,1-8-1.36s-1.48-.6-.14,1.66a30.33,30.33,0,0,0,4,4.87s.44,1.13,3.06-2.12,1.06-3.05,1.06-3.05"/><path class="cls-7" d="M17.74,2.8c-.15-.26-.32-.09-.32-.09A11.19,11.19,0,0,0,15,5.53l.46.19a10.93,10.93,0,0,1,2.31-2.63S17.9,3.06,17.74,2.8Z"/><path class="cls-7" d="M15.56,5.55S19,9.28,15.1,16s-3.35,10-3.35,10-7.6-3-5-13S15.1,5.35,15.1,5.35Z"/><path class="cls-8" d="M8.92,13A1.91,1.91,0,0,1,10,12.82a20,20,0,0,1,1.69-3.4,1.24,1.24,0,0,0-1.27.44.5.5,0,1,1-.7-.71,2.14,2.14,0,0,1,2.52-.58A20.94,20.94,0,0,1,14.8,5.43a1.66,1.66,0,0,1,.13-.14,2.45,2.45,0,0,1,.63.26,1.49,1.49,0,0,1,.24.32l-.32.29a21.64,21.64,0,0,0-2.42,3,4.46,4.46,0,0,1,1.81,3.67.5.5,0,0,1-.5.49h0a.5.5,0,0,1-.49-.51A3.49,3.49,0,0,0,12.52,10a20.21,20.21,0,0,0-1.61,3.26,3.12,3.12,0,0,1,1.22,2.67.51.51,0,0,1-.5.47h0a.5.5,0,0,1-.46-.54,2.09,2.09,0,0,0-.58-1.58,14.11,14.11,0,0,0-.44,7,.49.49,0,0,1-.39.59h-.1a.5.5,0,0,1-.49-.4,15.25,15.25,0,0,1,.49-7.65.92.92,0,0,0-.32.07.51.51,0,0,1-.65-.27A.49.49,0,0,1,8.92,13"/></g></g></svg>