<svg xmlns="http://www.w3.org/2000/svg" viewBox="0 0 53.45 33.44"><defs><style>.cls-1{fill:#444;}.cls-2{fill:#f3dba3;}.cls-3{fill:#f9e0c7;}.cls-4{fill:#e9b554;}.cls-5{fill:#eacb8c;}.cls-6{fill:#feefd5;}</style></defs><title>Lotus_root</title><g id="Layer_2" data-name="Layer 2"><g id="레이어_1" data-name="레이어 1"><path class="cls-1" d="M42.75,33.44a9.05,9.05,0,0,1-3.83-.88,29.4,29.4,0,0,0-7.12-1h-.37c-.29,0-.6,0-.89,0A11.39,11.39,0,0,1,22,28.27,22.38,22.38,0,0,1,14.2,30a5.67,5.67,0,0,1-.91.06C12.64,30,11.9,30,11.9,30c-5-.19-10.85-5-11.73-9.72A9.18,9.18,0,0,1,1.77,13C3.8,5.64,12.25,2.56,13.49,2.15A22.84,22.84,0,0,1,18.35.22,9.11,9.11,0,0,1,20.3,0c2.27,0,5.33,1,7.57,5.27a11.22,11.22,0,0,1,3.37-.83l.41,0c.6,0,1.48.07,1.75.09a5.53,5.53,0,0,0,.82-.09,3.34,3.34,0,0,1,2-.52h.1a13.31,13.31,0,0,1,8.22,3.62c3.12,1.08,6.07,5.28,6.63,6.1.74.87,5,6.45-.55,14.86-2.71,4.1-5.79,5-7.9,5Z"/><path class="cls-2" d="M14.07,3.53S4.92,6.4,3.14,13.68A7.54,7.54,0,0,0,1.64,20c.73,3.89,6,8.34,10.39,8.5a9.92,9.92,0,0,0,2,0A29.54,29.54,0,0,1,16.37,26c.11.06,2.37-9.1,2.37-9.1L20.48,4.27Z"/><path class="cls-3" d="M18.7,1.68S5.76,4.79,5.59,16.18,14,28.45,14,28.45s15.61.06,14.78-14C28.81,14.45,27.81-.27,18.7,1.68Z"/><path class="cls-4" d="M17.21,6.73S15.59,6.43,15.39,9,17,10.79,17,10.79a2,2,0,0,0,1.31-2.28C18.14,6.57,17.21,6.73,17.21,6.73Z"/><path class="cls-4" d="M13.51,11.65a2.23,2.23,0,0,0-2.64.92,9.36,9.36,0,0,1-1.36,2s-1.28,1.31.86,2.2S13.81,14,13.81,14,14.73,12.09,13.51,11.65Z"/><path class="cls-4" d="M20.23,10.79a3,3,0,0,1,.6-3.14s1.09-1.56,2.29-.81-.48,2.84-.48,2.84S20.73,12,20.23,10.79Z"/><path class="cls-4" d="M13.53,18.67a2.28,2.28,0,0,0-2.75,1.73s-.91,1.55-.11,2,2.06-.83,2.06-.83A2.54,2.54,0,0,0,13.53,18.67Z"/><path class="cls-4" d="M16.45,20.54s-1.31-.45-2.31,2.11.89,2.44.89,2.44,1.17,0,1.59-2.29S16.45,20.54,16.45,20.54Z"/><path class="cls-4" d="M18.87,21.37a2.79,2.79,0,0,0-.61,2.13c.25,1.12.61,1.18.61,1.18A3.55,3.55,0,0,0,18.87,21.37Z"/><path class="cls-5" d="M36.37,14.79l-12-1.11-3.5,5.44V23.5s1.73,7.09,10.54,6.62a30,30,0,0,1,8.06,1l4.64-1.57Z"/><path class="cls-6" d="M31.31,5.94s-6.85.29-10.3,8.33S22.24,24.9,22.24,24.9a12.72,12.72,0,0,0,7.22,1.69c3.74-.44,8,3.34,8,3.34s6.55,5.8,11.88-2.28S50,14.54,50,14.54s-3.28-4.95-6.23-5.7A12,12,0,0,0,36.31,5.4s-1,0-1.25.28-1.7.33-1.7.33A17.82,17.82,0,0,0,31.31,5.94Z"/><path class="cls-4" d="M23.92,17.7a2.27,2.27,0,0,0,2,.64,3.15,3.15,0,0,0,1.74-.89s.51-1.22-2.17-.94S23.92,17.7,23.92,17.7Z"/><path class="cls-4" d="M29.14,15.59s-1.77.92-2.19-.36.17-1.66.17-1.66a1.51,1.51,0,0,1,2.14.38C30.37,15.18,29.14,15.59,29.14,15.59Z"/><path class="cls-4" d="M33.45,13.73s-1.94.84-3.33-1.64,1.83-3,2.64-2.44S35.14,12.29,33.45,13.73Z"/><path class="cls-4" d="M39.62,14.23s-2.5.28-2.75-2.08,2.89-1.36,2.89-1.36a1.76,1.76,0,0,1,.94,2.5S40.64,14,39.62,14.23Z"/><path class="cls-4" d="M25,22.8s1-2.85,3.69-3,.92,1.31.92,1.31S25.42,23.7,25,22.8Z"/><path class="cls-4" d="M29.77,24.34s-.54-1,.18-1.32a6.72,6.72,0,0,1,2-.34s1.07.25-.9,1.36C31.09,24,30,25.06,29.77,24.34Z"/><path class="cls-4" d="M34.39,25.73a3.4,3.4,0,0,0-.52-1.36c-.36-.39.26-.73.26-.73s.76-.85,1.24.76S34.31,26.37,34.39,25.73Z"/><path class="cls-4" d="M42.14,18.67S40.78,17,42,15.91s3.13,0,3.13,0,3.09,1.89,2.14,3.93S42.69,19.67,42.14,18.67Z"/><path class="cls-4" d="M37.2,24.6s2.33,1.44,2.36,1.77.47.83.78.83.89-.16.8-1.05A3.43,3.43,0,0,0,40,24.37s-1.8-1.94-2.83-1A.81.81,0,0,0,37.2,24.6Z"/><path class="cls-4" d="M42.12,23.41s-.73-.9-.34-1.37,1.78.25,1.78.25,2.92,1.47,2.53,3.47S42.12,23.41,42.12,23.41Z"/><path class="cls-4" d="M36.07,18.67a.55.55,0,0,1-.61-.77c.2-.85,1,.14,1,.14S36.9,18.59,36.07,18.67Z"/><path class="cls-4" d="M33.85,18.67a.58.58,0,0,1-.5-.72c.15-.61.85.26.85.26S34.5,18.69,33.85,18.67Z"/></g></g></svg>