<svg xmlns="http://www.w3.org/2000/svg" viewBox="0 0 55.36 18.97"><defs><style>.cls-1{fill:#444;}.cls-2{fill:#8da2ce;}.cls-3{fill:#fff;}.cls-4{fill:#ccebfe;}</style></defs><title>Mackerel</title><g id="레이어_2" data-name="레이어 2"><g id="레이어_1-2" data-name="레이어 1"><path class="cls-1" d="M15.9,19a2.54,2.54,0,0,1-.65-.09,4.16,4.16,0,0,1-2.55-2.76c-.65-.14-1.27-.31-1.86-.5l-1.21-.41L4.81,13.58l.3-.08A13.5,13.5,0,0,1,1,11.13a2,2,0,0,1-.91-1.05,1.94,1.94,0,0,1,0-1.28,2,2,0,0,1,.4-1.29,1.86,1.86,0,0,1,1.4-.72C3,6.05,5.94,4.66,12.16,4A8.18,8.18,0,0,1,15.4.9,3.16,3.16,0,0,1,17.53,0a2.9,2.9,0,0,1,1.41.38h.29a2.68,2.68,0,0,1,1.61.5,3,3,0,0,1,1.3.29,2.38,2.38,0,0,1,.39,0,2.52,2.52,0,0,1,1.39.41l.35,0a2.67,2.67,0,0,1,2.57,1.81,1.48,1.48,0,0,0,.27.44l1.23.08A9.4,9.4,0,0,1,33.74,2l4.47-.24L35,4.51a32.5,32.5,0,0,1,8.67,2.17,3.44,3.44,0,0,0,.46.18,3.45,3.45,0,0,0,.57,0,1,1,0,0,0,.31,0c1-.88,5.34-3.95,8.07-3.95a3.45,3.45,0,0,1,.87.11l.21,0,.18.12a2.14,2.14,0,0,1,1,1.56,2.18,2.18,0,0,1-.75,1.84,11.93,11.93,0,0,1-1,.78A12.46,12.46,0,0,0,51.1,9.57a12.69,12.69,0,0,0,3.11,2.74l.09.06.08.07a2.48,2.48,0,0,1,.91,2.42,2,2,0,0,1-1.71,1.37,2.58,2.58,0,0,1-.42,0c-1.56,0-6.45-1.6-8-4.13l-.22.12a18.72,18.72,0,0,1-4.65,1.63h0c-1.71.46-3.5.89-4.74,1.17a1.77,1.77,0,0,1,.9,1.85c-.23,1.19-1.48,1.42-2.23,1.56a6,6,0,0,1-1,.1,6.3,6.3,0,0,1-4.6-2.24,61.64,61.64,0,0,1-8.1.57c-1,0-1.92,0-2.83-.09a1.91,1.91,0,0,1-.38,1.57A1.7,1.7,0,0,1,15.9,19Z"/><path class="cls-2" d="M28.23,6.11s1.37-2.37,5.59-2.59c0,0-2.55,2.14,0,3.18s-5.59-.59-5.59-.59"/><path class="cls-2" d="M13.64,14.13s.63,2.93,2,3.3-.72-1.8,1.22-3.59-3.22.29-3.22.29"/><path class="cls-2" d="M28.71,14S30.62,17.6,33.9,17s-2.37-.73-1.34-4.57S28.71,14,28.71,14"/><path class="cls-2" d="M12.71,6s1.67-3.24,3.54-3.78A1.53,1.53,0,0,1,18.58,2s1.28-.41,1.63.46c0,0,1.28-.28,1.58.39,0,0,1.14-.61,1.64.39,0,0,1.5-.71,2,.65a6.37,6.37,0,0,0,2.43,2.46L14,5.67Z"/><path class="cls-3" d="M39.83,12.43l1.19-2L22.57,7.24,11.74,6.91l-1.62,6.88h0l1.19.4c8.78,2.85,22.34-.26,22.34-.26s3.26-.7,6.21-1.5"/><path class="cls-4" d="M53.38,13.56s-4-2.63-3.82-4.07,3.3-3.34,4-4,0-1,0-1C51.49,3.93,46.3,7.6,46,8s-1.18.49-2.15.34S40.16,5.93,26.23,5.23C6.55,4.23,2.3,8.34,2.3,8.34c-.94-.29-.68.69-.68.69A.56.56,0,0,0,2,9.91s.52,1.3,8.15,3.88c4.53-2,13.43-5,22.22-3.42a42.62,42.62,0,0,1,7.49,2.06A22.29,22.29,0,0,0,44.12,11c1.85-1.11,2.07,0,2.07,0,.82,2.11,6,4,7.15,3.77s0-1.18,0-1.18"/><path class="cls-2" d="M14.25,10.08c1.87-.71,2.3.7,3.24.55s.65-1.44.65-1.44c.55-.06.87-.85.87-.85-1.72-1.69-5.69.18-5.69.18s.54,1.71.93,1.56"/><path class="cls-3" d="M8.42,8.28A1.37,1.37,0,1,1,7.05,6.91,1.37,1.37,0,0,1,8.42,8.28"/><path d="M7.73,8.28a.69.69,0,1,1-.68-.68.68.68,0,0,1,.68.68"/></g></g></svg>