<svg xmlns="http://www.w3.org/2000/svg" viewBox="0 0 55.66 31.99"><defs><style>.cls-1{fill:#444;}.cls-2{fill:#1c3716;}.cls-3{fill:#3c5a2f;}.cls-4{fill:#314726;}.cls-5{fill:#404f3b;}</style></defs><title>Maesaengyi</title><g id="레이어_2" data-name="레이어 2"><g id="레이어_1-2" data-name="레이어 1"><path class="cls-1" d="M17.34,32a9.67,9.67,0,0,1-3.72-.8,12.17,12.17,0,0,1-4.89-1,4.4,4.4,0,0,1-1.38-1,7.5,7.5,0,0,1-5.43-2.25c-1.5-1.63-2.12-4-1.86-7,.05-1,.34-4.59,1.75-6.08a25.9,25.9,0,0,1,4.43-3.23l.23-.13.25,0c.11,0,2.3-.44,5.27-.81a6,6,0,0,1-.09-1c0-3.16,3.18-6,3.54-6.32l.14-.12.16-.08A19.31,19.31,0,0,1,24,.28l1.1,0A4.49,4.49,0,0,1,26.83,0a9.6,9.6,0,0,1,2.35.33,13.08,13.08,0,0,0,1.6.24c2,.21,4.56.48,7.68,4.36l.09.11a2.19,2.19,0,0,0,.11.2,6,6,0,0,1,3.55,1.47,2.25,2.25,0,0,1,.55,1.18,6.35,6.35,0,0,1,.29.94c1.79.31,3.49.68,4.17.83a7.29,7.29,0,0,1,1.09-.08,5.6,5.6,0,0,1,5.82,5,8.48,8.48,0,0,1,.67,1.26,7.39,7.39,0,0,1,.7,2.31l0,.13c0,.23.06.48.09.73a3.88,3.88,0,0,1,0,.43,1.48,1.48,0,0,1,0,.22,11.65,11.65,0,0,1-.18,2.51l0,.22c0,.19-.08.39-.13.58l0,.11c-.05.19-.1.38-.16.57s-.11.34-.17.51-.22.59-.35.89l-.13.31c-.18.39-.38.79-.61,1.2s-.52.88-.76,1.24c-.31,1.15-1.64,3.88-7.16,3.88-4.18,0-10-1.57-17.43-4.65L28.32,27c-.14.54-.3,1.1-.47,1.68l-.32,1-.22.7-.68.25a18.61,18.61,0,0,1-5.55,1.15,6.65,6.65,0,0,1-1.47-.15,7,7,0,0,1-2.27.36"/><path class="cls-2" d="M16,14.15s-2.56-3-2.56-5.58,3-5.19,3-5.19a18.07,18.07,0,0,1,9-1.54s.81-.72,3.43-.06,4.91-.35,8.48,4.09c0,0,.54,1,.87.88s3.25.4,3.11,1.48c0,0,2.14,4.17-3,6.46s-18.1,3.5-18.1,3.5Z"/><path class="cls-3" d="M1.55,20s.21-4,1.35-5.18a25.19,25.19,0,0,1,4.11-3s14-2.69,19.09-.53,0,17.9,0,17.9-4.49,1.61-6.58.81c0,0-2.08,1.21-5.58-.34,0,0-4.92.07-5.79-2.09,0,0-7.34.94-6.6-7.6"/><path class="cls-4" d="M8.15,27.61a7.24,7.24,0,0,1,4.78-1s5.05-3.76,9.28-2.42c0,0,3.38-3.63,6-4.17a52.76,52.76,0,0,1-2.07,9.22s-4.43,1.66-6.59.81c0,0-2.09,1.22-5.58-.34,0,0-5,0-5.79-2.09"/><path class="cls-5" d="M29.08,25.66s-2.18-3.44-1.89-5.92S32,13.88,32,13.88s4.11-4,6.6-4,8.61,1.34,8.61,1.34,4.86-1.14,5.52,4c0,0,3.9,5-1,12.05,0,0-.6,7.6-22.61-1.55"/><path class="cls-4" d="M27.7,18.36s6.24,2.31,10,1.86A39.26,39.26,0,0,1,47.57,20s4.73-3.36,5.88-3.49c0,0,2.46,4.71-1.76,10.69,0,0-.57,7.65-22.61-1.55,0,0-2.1-3-1.89-5.92a3.6,3.6,0,0,1,.51-1.38"/><path d="M4.55,18.77a.33.33,0,0,1-.33.33.33.33,0,0,1-.33-.33.33.33,0,0,1,.33-.33.32.32,0,0,1,.33.33"/><path d="M8.3,15.77a.58.58,0,1,1-.58-.58.58.58,0,0,1,.58.58"/><path d="M9.53,22.16a.25.25,0,0,1-.25.25.25.25,0,1,1,0-.5.25.25,0,0,1,.25.25"/><path d="M20.28,16.77a.34.34,0,0,1-.67,0,.34.34,0,0,1,.67,0"/><path d="M35.58,15.77a.59.59,0,1,1-.59-.58.58.58,0,0,1,.59.58"/><path d="M40.92,15.77a.25.25,0,1,1-.25-.25.25.25,0,0,1,.25.25"/><path d="M44.89,12.82a.28.28,0,1,1-.28-.27.28.28,0,0,1,.28.27"/><path d="M45.78,26.1a.28.28,0,1,1-.28-.27.28.28,0,0,1,.28.27"/><path d="M19.36,4.88A.36.36,0,1,1,19,4.52a.36.36,0,0,1,.36.36"/><path d="M25.25,7.32a.31.31,0,0,1-.31.31.31.31,0,0,1,0-.61.31.31,0,0,1,.31.3"/><path d="M29.51,4.52a.51.51,0,0,1-1,0,.51.51,0,1,1,1,0"/></g></g></svg>