<svg xmlns="http://www.w3.org/2000/svg" viewBox="0 0 53.66 43.27"><defs><style>.cls-1{fill:#444;}.cls-2{fill:#ec4345;}.cls-3{fill:#faf7f7;}</style></defs><title>Marbled</title><g id="Layer_2" data-name="Layer 2"><g id="레이어_1" data-name="레이어 1"><path class="cls-1" d="M16.05,43.25a3.73,3.73,0,0,1-2.21-1A3.61,3.61,0,0,1,12.42,40a3.57,3.57,0,0,0-.22-.62l0-.06,0-.07a5,5,0,0,0-.6-1.12,4,4,0,0,1-.8-.59,3.58,3.58,0,0,1-1.43-2.21,3.57,3.57,0,0,0-.22-.62l0-.07,0-.07A6.54,6.54,0,0,0,8.15,33a4.73,4.73,0,0,1-.57-.45,3.62,3.62,0,0,1-1.43-2.22,3.22,3.22,0,0,0-.22-.61l0-.07,0-.07a5.58,5.58,0,0,0-.59-1.11,4,4,0,0,1-1.35-.85,3.62,3.62,0,0,1-1.43-2.21,4.54,4.54,0,0,0-.21-.62l0-.06,0-.07a7.52,7.52,0,0,0-1.12-1.83l-.06-.08L1,22.69a5,5,0,0,1,.31-6.38c2.09-2.71,4.75-3,6.89-3.24a7.62,7.62,0,0,0,2.53-.55,6.3,6.3,0,0,0,1.89-1.72,9.24,9.24,0,0,1,4-3.07,7,7,0,0,1,3.3-.55c.23,0,.45.06.66.09l.38.06A1.36,1.36,0,0,0,22,7a6.67,6.67,0,0,0,1.68-1.51A7.28,7.28,0,0,1,27,3.12a6.06,6.06,0,0,1,2.67-.3c.44,0,.88.12,1.32.2s.72.14,1.1.18A3.85,3.85,0,0,0,33.88,3c.58-.22.71-.52.94-1.08A2.56,2.56,0,0,1,37.5,0a5.59,5.59,0,0,1,1.81.57,7.78,7.78,0,0,1,2.81,2.31h0a4.35,4.35,0,0,1,1.25,2.26,5.12,5.12,0,0,1,.2.68,8.1,8.1,0,0,1,2.18,2h0A4.42,4.42,0,0,1,47,10.08a6.45,6.45,0,0,1,.3,1.12,8,8,0,0,1,1.61,1.58h0a4.37,4.37,0,0,1,1.25,2.26,7.57,7.57,0,0,1,.24.83A8,8,0,0,1,52,17.46h0a4.42,4.42,0,0,1,1.25,2.26,6.14,6.14,0,0,1,.37,1.82v.29l-.1.28c-.82,2.2-3,3-5.36,3.85a23.31,23.31,0,0,0-5.33,2.49c-2.17,1.45-3.78,2-5.56,1.8h0l-1-.14c-.26,0-.52-.09-.81-.12a5,5,0,0,0-1.76.16A3.64,3.64,0,0,0,31.6,32a6.68,6.68,0,0,1-5.23,3.24c-2.73.31-4.3,2.63-5.68,4.68a17.35,17.35,0,0,1-1.53,2.05A3.66,3.66,0,0,1,16.05,43.25Z"/><path class="cls-2" d="M13.57,38.77a9.07,9.07,0,0,0-1.38-2.31l.63-3.92,7.79-3.09L29.51,25l8.61-3.86L45.77,20l3.29-1.78,1.82.19s1,.95.92,1.61L51,21.38,45.29,23l-7.21,1.74-5.44,2.44L28.29,29l-4.78,3.25L19.25,34.2,15,38.38Z"/><path class="cls-2" d="M14.79,41a2.09,2.09,0,0,0,3.27-.14c1.75-1.87,3.57-6.67,8.14-7.19s3.6-4,7.19-5,4.07,1.56,8.64-1.5,9.11-2.87,10.12-5.61l-.46-.48L39.21,24.85l-12.11,5L16.77,36.25Z"/><path class="cls-3" d="M50.88,18.43s-2.65,3.28-8.59,3.18S38.46,24.24,33,25.19s-8.19,5.92-13.39,6.57a10,10,0,0,0-7.37,4.7,3.54,3.54,0,0,1,.23-4.68c2.66-3.45,6.53-2.08,8.94-3.37s2.57-3.49,5.73-4.72,3.38.5,5.55-.81,2.28-2.93,4.75-3.79S41.54,20,44.3,19s1-4,4.28-2.44a6.33,6.33,0,0,1,2.26,1.86Z"/><path class="cls-3" d="M52,21.64c-1.28.29-10.37,2.41-11.66,3.83s-8.27.87-12.12,4.83S19.91,32.77,17.91,37c0,0-1.37,3.12-3,4l-.14.07a2.1,2.1,0,0,1-.92-1.39,4.06,4.06,0,0,0-.3-.87l.14-.21a16.21,16.21,0,0,1,7.37-5.75c4.88-1.77,6.62-5,10-5.7s5.92-2.72,9.17-3.79S47.39,23.07,51.8,20l0,0a4.58,4.58,0,0,1,.33,1.51Z"/><path class="cls-2" d="M10.47,34.09a9.07,9.07,0,0,0-1.38-2.31l.63-3.92,7.79-3.08,8.9-4.45L35,16.46l7.65-1.12L46,13.56l1.82.2s1,1,.92,1.6l-.78,1.34-5.73,1.62L35,20.07l-5.44,2.44-4.35,1.84L20.41,27.6l-4.26,1.93-4.3,4.18Z"/><path class="cls-2" d="M11.69,36.36A2.09,2.09,0,0,0,15,36.22c1.75-1.88,3.57-6.68,8.14-7.19s3.6-4,7.19-5,4.07,1.56,8.64-1.5S48,19.65,49.05,16.91l-.46-.47L36.11,20.18,24,25.16,13.67,31.57Z"/><path class="cls-3" d="M47.78,13.76S45.13,17,39.19,16.94s-3.83,2.63-9.34,3.57-8.19,5.93-13.39,6.57a10,10,0,0,0-7.37,4.7,3.52,3.52,0,0,1,.23-4.67C12,23.65,15.85,25,18.26,23.73S20.83,20.24,24,19s3.38.5,5.55-.81,2.28-2.92,4.75-3.78,4.15.87,6.91-.15,1-4,4.28-2.44a6.36,6.36,0,0,1,2.26,1.87Z"/><path class="cls-3" d="M48.9,17c-1.28.3-10.37,2.41-11.66,3.83s-8.27.88-12.12,4.84-8.31,2.46-10.31,6.7c0,0-1.37,3.12-3,4l-.14.07a2.15,2.15,0,0,1-.92-1.4,4.26,4.26,0,0,0-.3-.87l.14-.21A16.21,16.21,0,0,1,18,28.13c4.88-1.77,6.62-5,10-5.7s5.92-2.72,9.17-3.78,7.12-.25,11.53-3.29l0,.05a4.52,4.52,0,0,1,.33,1.5Z"/><path class="cls-2" d="M7.3,29.13a8.87,8.87,0,0,0-1.38-2.31l.63-3.92,7.79-3.09,8.9-4.45,8.61-3.86,7.65-1.12L42.79,8.6l1.82.19s1,1,.92,1.61l-.78,1.34L39,13.35,31.81,15.1l-5.44,2.44L22,19.38l-4.78,3.26L13,24.56l-4.3,4.18Z"/><path class="cls-2" d="M8.53,31.39a2.08,2.08,0,0,0,3.26-.14c1.75-1.88,3.57-6.67,8.14-7.19s3.6-4,7.19-5,4.07,1.56,8.64-1.5S44.87,14.68,45.88,12l-.46-.48L32.94,15.21l-12.11,5L10.5,26.61Z"/><path class="cls-3" d="M44.61,8.79S42,12.07,36,12s-3.83,2.63-9.34,3.58-8.19,5.92-13.39,6.57a10,10,0,0,0-7.37,4.7,3.54,3.54,0,0,1,.23-4.68c2.66-3.45,6.53-2.08,8.94-3.37s2.57-3.49,5.73-4.72,3.38.5,5.56-.82,2.28-2.92,4.74-3.78,4.15.88,6.91-.14,1-4,4.28-2.45a6.36,6.36,0,0,1,2.26,1.87Z"/><path class="cls-3" d="M45.73,12c-1.28.29-10.37,2.41-11.66,3.83S25.8,16.7,22,20.66s-8.31,2.46-10.31,6.71c0,0-1.37,3.11-3,3.95l-.13.07A2,2,0,0,1,7.61,30a4.88,4.88,0,0,0-.31-.86l.14-.21a16.21,16.21,0,0,1,7.37-5.75c4.88-1.77,6.62-5,10-5.71s5.92-2.71,9.17-3.78,7.12-.25,11.53-3.28l0,0A4.58,4.58,0,0,1,45.88,12Z"/><path class="cls-2" d="M3.67,24.2a9.24,9.24,0,0,0-1.38-2.3L2.91,18l7.8-3.08,8.9-4.45,8.6-3.86,7.65-1.12,3.29-1.78L41,3.87s1,1,.92,1.6l-.78,1.35L35.39,8.43l-7.21,1.75-5.45,2.44-4.34,1.84L13.6,17.72,9.35,19.64,5,23.82Z"/><path class="cls-2" d="M4.89,26.47a2.08,2.08,0,0,0,3.27-.14c1.75-1.88,3.56-6.68,8.14-7.19s3.6-4,7.19-5,4.06,1.56,8.64-1.5S41.23,9.76,42.25,7l-.46-.47L29.31,10.29l-12.11,5L6.86,21.69Z"/><path class="cls-3" d="M41,3.87s-2.65,3.27-8.59,3.18S28.56,9.68,23,10.63s-8.19,5.92-13.39,6.56A10,10,0,0,0,2.29,21.9a3.53,3.53,0,0,1,.22-4.68c2.66-3.46,6.53-2.08,8.94-3.38S14,10.36,17.19,9.12s3.38.51,5.55-.81S25,5.39,27.48,4.53s4.15.88,6.92-.14,1-4,4.28-2.45a6.33,6.33,0,0,1,2.25,1.87Z"/><path class="cls-3" d="M42.09,7.08c-1.28.29-10.36,2.4-11.65,3.83s-8.27.87-12.13,4.83S10,18.2,8,22.45c0,0-1.37,3.11-3,3.95l-.14.07A2.07,2.07,0,0,1,4,25.07a6.38,6.38,0,0,0-.3-.87L3.8,24a16.4,16.4,0,0,1,7.37-5.75c4.88-1.76,6.62-5,10-5.7s5.92-2.71,9.17-3.78,7.13-.25,11.53-3.29l0,0A4.88,4.88,0,0,1,42.25,7Z"/></g></g></svg>