<svg xmlns="http://www.w3.org/2000/svg" viewBox="0 0 62.48 33.7"><defs><style>.cls-1{fill:#444;}.cls-2{fill:#01913a;}.cls-3{fill:#3dc96f;}.cls-4{fill:#e6653b;}.cls-5{fill:#ee8369;}</style></defs><title>Mentaiko</title><g id="레이어_2" data-name="레이어 2"><g id="레이어_1-2" data-name="레이어 1"><path class="cls-1" d="M24.93,33.7c-1.4,0-8.37-.09-9.19-1.73-.39-.78-.55-1.09,2.15-4.59-.63,0-1.26.05-1.88.05a36.66,36.66,0,0,1-13.6-2.38L.46,24.21l1.45-1.56a51,51,0,0,1,9.14-7.25,45.55,45.55,0,0,1-6-2L0,11.16,2.56,9.7c.11-.06,2.68-1.51,6.81-3.29a11.06,11.06,0,0,1,2-2.87C13,1.82,16.05,1,20.71,1c1.46,0,3.07.08,4.81.25A55.43,55.43,0,0,1,36.4,0s.5,0,1.31,0c3.69,0,13,.49,19.83,5l.74.49c2.54.59,2.95,1.1,3.16,1.36l1,1.3-1.41.9-1.31.81c-2.17,6.66-9,14-18.34,19.81-5.34,3.31-11.92,4-16.49,4Z"/><path class="cls-2" d="M5.6,12.05C30,22,56.71,6.27,56.71,6.27,48.56.86,36.41,1.53,36.41,1.53,19.82,1.6,3.3,11,3.3,11Z"/><path class="cls-2" d="M60.26,7.8c-.37-.46-3.18-1-3.18-1C22.86,2.34,3,23.67,3,23.67a38.48,38.48,0,0,0,22.6,1.12c12.89-3.12,34.66-17,34.66-17"/><path class="cls-2" d="M58.78,7.8C57.3,14.89,50,22.64,40.63,28.42S17.3,31.75,17.08,31.3s5.7-7.63,5.7-7.63Z"/><path class="cls-3" d="M7.45,23a.38.38,0,0,1-.14-.73c.32-.12,32.31-12.82,48.48-14.21a.36.36,0,0,1,.4.34.37.37,0,0,1-.34.4C39.8,10.18,7.91,22.83,7.59,23a.35.35,0,0,1-.14,0"/><path class="cls-3" d="M7.45,11.38a.38.38,0,0,1-.37-.29.38.38,0,0,1,.29-.45c1.39-.29,34.07-7.25,46.26-5.26a.37.37,0,0,1,.3.43.38.38,0,0,1-.43.31c-12-2-45.63,5.18-46,5.26H7.45"/><path class="cls-3" d="M20.93,30.2a.37.37,0,0,1-.11-.73c.27-.09,27.94-9.2,34.68-19.77a.38.38,0,0,1,.64.4C49.25,20.9,22.2,29.81,21.05,30.18l-.12,0"/><path class="cls-4" d="M13.45,11.9C22.5,14,42,12.78,42,12.78s9.55-1,9.78-3.55S34,4,34,4,16.56.19,12.49,4.56s-1.26,6.37-1.26,6.37a4.36,4.36,0,0,0,2.22,1"/><path class="cls-5" d="M13.45,22.12S11,21.16,12,17.9s7-6.6,19-5.71,19.77,0,21.92,2.52S41.6,21,27.52,22.12s-14.07,0-14.07,0"/></g></g></svg>