<svg xmlns="http://www.w3.org/2000/svg" viewBox="0 0 26.04 52.92"><defs><style>.cls-1{fill:#444;}.cls-2{fill:#eaeff1;}.cls-3{fill:#9ea3a8;}.cls-4{fill:#dfe2e5;}.cls-5{fill:#58c4e0;}.cls-6{fill:#49aac1;}.cls-7{fill:#f9fafe;}.cls-8{fill:#7a8289;}</style></defs><title>Milk</title><g id="Layer_2" data-name="Layer 2"><g id="레이어_1" data-name="레이어 1"><path class="cls-1" d="M0,52.92V8.52l3.11-3.8A5.27,5.27,0,0,1,3.85,1,2.57,2.57,0,0,1,5.77,0c.62,0,1.61,0,2.65,0,2,0,4.25,0,4.29,0s2.49,0,4.75,0c1.16,0,2.26,0,2.95,0A2.78,2.78,0,0,1,22.5,1.08a5.29,5.29,0,0,1,.72,3.69L26,8.55V52.92Z"/><path class="cls-2" d="M4.69,5.16S4,1.61,5.84,1.53s6.85,0,6.85,0V5.16Z"/><path class="cls-2" d="M21.64,5.16s.74-3.55-1.29-3.63-7.66,0-7.66,0V5.16Z"/><polygon class="cls-3" points="21.64 5.16 18.35 9.05 24.54 9.05 21.64 5.16"/><rect class="cls-4" x="1.5" y="9.05" width="16.85" height="42.37"/><rect class="cls-3" x="18.35" y="9.05" width="6.19" height="42.37"/><path class="cls-5" d="M1.5,35.37S9.76,28.81,13.43,37c0,0,1.85,4.28,4.92,3.72V51.42H1.5Z"/><path class="cls-6" d="M18.35,40.7A5.36,5.36,0,0,0,20.54,38c.39-1.55,2.72-3.74,4-3.81v17.2H18.35Z"/><polygon class="cls-7" points="18.35 9.05 1.5 9.05 4.68 5.16 21.64 5.16 18.35 9.05"/><polygon class="cls-8" points="24.54 9.05 20.37 6.67 21.64 5.16 24.54 9.05"/></g></g></svg>