<svg xmlns="http://www.w3.org/2000/svg" viewBox="0 0 59.87 37.46"><defs><style>.cls-1{fill:#444;}.cls-2{fill:#ad978a;}.cls-3{fill:#7c685c;}.cls-4{fill:#fff;}.cls-5{fill:#edbb4c;}</style></defs><title>Monkfish</title><g id="레이어_2" data-name="레이어 2"><g id="레이어_1-2" data-name="레이어 1"><path class="cls-1" d="M26,37.46A20.42,20.42,0,0,1,8.6,28a6.9,6.9,0,0,1-1-4.23,2.05,2.05,0,0,1-.23-.95,2.7,2.7,0,0,1,1.27-2.14,2.41,2.41,0,0,1,1.47-.47l.4,0-.08-.06A3.16,3.16,0,0,1,9,17.62a2.7,2.7,0,0,1,1.61-2.29,3.37,3.37,0,0,1,1.6-.44,18.09,18.09,0,0,1,4.32-5.36c.07-2.12-.29-3.83-1-4.55a1.26,1.26,0,0,0-1-.4c-.7,0-2.29.36-5.22,2.65a4.1,4.1,0,0,1-.17,1.21c-1,3.36-4.93,4-5.1,4a5.14,5.14,0,0,1-.52,0C2,12.46.8,11.91.28,10.9S0,8.63,1,7.22C2.75,4.72,4.51,4.34,5.4,4.34h.39C7.57,2.77,11.17,0,14.6,0c1.68,0,4,.65,5.48,3.77a12.74,12.74,0,0,1,1.08,3.12,16.45,16.45,0,0,1,5.7-1h.19c6.34.06,9.71,1.56,11.48,3l0-.14c.33-1.8,1.95-2.87,4.32-2.87a5.63,5.63,0,0,1,.72,0,4.8,4.8,0,0,1,3.17,2.14,5.33,5.33,0,0,1,.28,4.49l0,.17-.09.15A6.43,6.43,0,0,1,43,15.47a4.29,4.29,0,0,0,.9.93,5.06,5.06,0,0,0,.85.1c.31,0,1,0,2.56-2.46a7.1,7.1,0,0,1,5.71-3.25h.6a3.25,3.25,0,0,1,2.84,1.64.39.39,0,0,0,.3.21h.29c.65,0,2.21.33,2.68,3.33.38,2.46-.41,3.73-.86,4.23a.55.55,0,0,0-.08.34,3.07,3.07,0,0,1-.26,2.9,4,4,0,0,1-3.49,1.71h-.14c-2.43,0-5.79-.78-7.8-2.54a.65.65,0,0,0-.44-.15c-.88,0-2.16,1.15-2.25,3.31a5.18,5.18,0,0,1-.09.78A9.31,9.31,0,0,1,47.13,26a2.65,2.65,0,0,1,2.48,1.22c.78,1.31.08,2.89-.51,4a5.14,5.14,0,0,1-4.54,2.95,6.66,6.66,0,0,1-4.28-1.8A25.53,25.53,0,0,1,37,34.69a23.62,23.62,0,0,1-11,2.77"/><path class="cls-2" d="M38.9,14.25c5.14.56,6.72-2.14,6.72-2.14,1.28-4-2.19-4.69-2.19-4.69S40.4,7.06,40,9a7.49,7.49,0,0,1-2.14,3.58Z"/><path class="cls-2" d="M40.87,27.39a3.57,3.57,0,0,0,3.86.61c2.56-.86,4.92-.92,3.06,2.47s-5.56,2.7-8.25-1.22Z"/><path class="cls-3" d="M12.93,17S16.37,7.3,27,7.42,39,11.8,39,11.8s3,5.78,4.61,6.06,2.84.5,5-3a5.53,5.53,0,0,1,4.83-2.53,1.76,1.76,0,0,1,1.75.89,1.93,1.93,0,0,0,1.81,1s.92-.25,1.28,2.05-.56,3.06-.56,3.06a2.1,2.1,0,0,0-.28,1.89c.42.94-.22,2.47-2.38,2.5a11.54,11.54,0,0,1-7-2.17c-1.69-1.47-5,.28-5.17,4.22s-6.72,7.7-6.72,7.7A21.77,21.77,0,0,1,21.68,35.5,19.44,19.44,0,0,1,9.9,27.22a5.15,5.15,0,0,1-.72-3.55c.47-1.64,1.41-1.78,2.16-1.31s5,4.56,3.67,1a11.87,11.87,0,0,0-3.81-5.31s-1.08-.8,1.73-1.08"/><path class="cls-2" d="M11.34,18.94s-1.86-1.25,0-2.3,3.86,1.5,3.86,1.5,4.39,6.71,1.42,8.78c0,0-1.56,2.22-7.58-3.73,0,0-.64-.48.5-1.34s4.25,1.79,5,2.37c0,0,.58-2.28-3.23-5.28"/><path class="cls-3" d="M7.18,7.08c12.8-11,10.77,4,10.77,4l-1.8,3.75s6.19-2.91,2.58-10.41S6,6.25,6,6.25,3.2,6.33,3.09,8.58A1.44,1.44,0,0,0,5,10.25S6.93,9.6,7.26,8.17s-.08-1.09-.08-1.09"/><path class="cls-2" d="M26,20.14a18.1,18.1,0,0,0,2.69-2.89c.84-1.28,3,.89,3,.89s2.92,2.05-.5,4.14-4.41.22-4.41.22.88-2.11-.78-2.36"/><path class="cls-4" d="M20.79,16.47a1.55,1.55,0,1,1-1.55-1.55,1.54,1.54,0,0,1,1.55,1.55"/><path d="M19.93,16.47a.69.69,0,1,1-.69-.69.69.69,0,0,1,.69.69"/><path class="cls-5" d="M2.2,8.09C-.06,11.29,3.89,11,3.89,11S7.07,10.5,7.77,8,5.61,5.86,5.61,5.86,4,5.51,2.2,8.09"/></g></g></svg>