<svg xmlns="http://www.w3.org/2000/svg" viewBox="0 0 50.62 41.62"><defs><style>.cls-1{fill:#444;}.cls-2{fill:#f5c85d;}.cls-3{fill:#e6b055;}.cls-4{fill:#fff5e9;}.cls-5{fill:#fcf1e3;}</style></defs><title>Mozzarella</title><g id="Layer_2" data-name="Layer 2"><g id="레이어_1" data-name="레이어 1"><path class="cls-1" d="M12,41.62a9.54,9.54,0,0,1-8.47-5.5C-1.75,31.41,0,24,1.71,20.68l.5-1,1.08.18a8.88,8.88,0,0,1,2.22.74c.22,0,.6,0,1.09,0A9.69,9.69,0,0,0,12,19.25L13.81,18l.36,1.51.1-.06c4.62-2.65,16.82-10,20.26-13.67a2.65,2.65,0,0,1,.3-1.06l.05-.1C35.55,3.5,37.92,0,40.57,0a3,3,0,0,1,1.87.66,9,9,0,0,1,5,5.81c.86,1.53,5.94,11.29,1.13,17.62a1.75,1.75,0,0,1-1.45.66h0A9.3,9.3,0,0,1,44.34,24l-.41-.16-.08-.14a3,3,0,0,0-1.34-.24c-2.72,0-9.31,1.91-23,14.55a.49.49,0,0,0,0,.12,2.18,2.18,0,0,1-.77,1.44l-.11.09-.12.07A13.85,13.85,0,0,1,12,41.62Z"/><path class="cls-2" d="M13.27,28.47S7.05,22,3.05,21.36c0,0-4.45,8.67,1.67,13.84,0,0,3.44,8.44,13.05,3.22,0,0,1.67-1.33-3.94-2.28,0,0-.78-3.83.05-5.78C13.88,30.36,14.68,29.84,13.27,28.47Z"/><path class="cls-2" d="M47.38,23.18C52,17.16,46.05,7,46.05,7A7.44,7.44,0,0,0,41.64,2c-2.11-2-5.48,3.4-5.48,3.4s-1.44,2.71,4.74-1c0,0-1.11,5.55,1.93,6.77,0,0,1.07,3.49,2.26,4.49s2.59,6.4-.19,7C44.9,22.62,47.12,23.52,47.38,23.18Z"/><path class="cls-3" d="M37,5.55c-.24.06,4.19-5.59,3.63-1.78A12.81,12.81,0,0,1,37,5.55Z"/><path class="cls-4" d="M5.12,22.08s4.63.62,7.74-1.61c0,0,.34,1.45,2.16.23,0,0,17.61-10.1,21.1-14.52,0,0,.58.72,4.78-1.85,0,0-1.13,5.4,1.93,6.77,0,0,1,3.43,2.26,4.49,0,0,1.37,1.3,1.42,4.44,0,0,.05,2.3-1.61,2.59,0,0-5.28-5.41-27.08,14.91,0,0-.6-.89-4-1.39,0,0-.82-3.85.05-5.78,0,0,.81-.51-.61-1.89S8.76,23.91,5.12,22.08Z"/><path class="cls-5" d="M17.09,20.93S29.64,14.25,31.31,12c0,0,4.11-4.52,6.55-2.4S24.6,23.91,24.6,23.91a5.88,5.88,0,0,1-3.48,1.42s2.48-3.3-1.66-3.6S17.09,20.93,17.09,20.93Z"/><circle class="cls-3" cx="9.43" cy="29.09" r="0.32"/><circle class="cls-3" cx="4.09" cy="26.75" r="0.78"/><circle class="cls-3" cx="6.72" cy="34.01" r="0.46"/><circle class="cls-3" cx="12.72" cy="38.31" r="0.69"/><circle class="cls-3" cx="44.46" cy="10.79" r="0.52"/><circle class="cls-3" cx="43.68" cy="7.68" r="0.41"/></g></g></svg>