<svg xmlns="http://www.w3.org/2000/svg" viewBox="0 0 54.92 49.61"><defs><style>.cls-1{fill:#444;}.cls-2{fill:#418838;}.cls-3{fill:#317238;}.cls-4{fill:#6a9b30;}.cls-5{fill:#387538;}</style></defs><title>Mugwort</title><g id="Layer_2" data-name="Layer 2"><g id="레이어_1" data-name="레이어 1"><path class="cls-1" d="M36.74,49.61l-.4-.67a42.77,42.77,0,0,0-3.58-3.87l-.88.2a2.42,2.42,0,0,1-.64.07A4.73,4.73,0,0,1,29.63,45,2.39,2.39,0,0,1,28,43.59l-.2-.74.38-.52.28-.56c-.25-.13-.48-.24-.71-.34a5.28,5.28,0,0,0-1.92-.5c-.66,0-.89.27-1.45,1.11a6.29,6.29,0,0,1-.83,1.07l-.45.47c-1.09,1.18-2.91,3.16-6,3.16A7.14,7.14,0,0,1,16,46.65l-1.71-.27.36-1.17a7,7,0,0,1-4.41-1.53l-1.05-.93.85-1.1.39-.46a1.51,1.51,0,0,1-.49-.91c-.17-.9.21-1.49,2.08-2.62a1.58,1.58,0,0,1-.12-1.07,2.2,2.2,0,0,1,1.16-1.31,3.9,3.9,0,0,1-1.5-.31l-1.38-.6.49-1.11A7.89,7.89,0,0,1,6.2,31.12L4.91,29.64l1-.48a5.29,5.29,0,0,0-1.56-.43L0,30.06l2.75-3.67a5.91,5.91,0,0,1,2.39-1.78l0-.75a1.77,1.77,0,0,1,1.42-1.53,3.86,3.86,0,0,1-1.4-2.54V17.88l2,.48a8.2,8.2,0,0,1-1-4l0-2.1,2,.71a11.85,11.85,0,0,1,2.26,1.14l-.22-1.32,2.65,1.33a6.48,6.48,0,0,1,2.12,2h.52c-.24-1.25-.37-1.83-.37-1.84L14.37,11l2.91,1.58a11.11,11.11,0,0,1,3.9,3.95A6.15,6.15,0,0,1,22,19.49h.43a6.15,6.15,0,0,1,.07-3.16L22.94,15l1.36.34c.06,0,.27.07.57.17a1.54,1.54,0,0,1,.63-.82l.38-.25h.5c.34,0,.74,0,2.36,1.13a1.54,1.54,0,0,1,.93-.55l.15,0H30a2.4,2.4,0,0,1,1.35.54A3.86,3.86,0,0,1,31,14v-1.5h1.21a7.87,7.87,0,0,1,.17-5l.84-1.77.84.72a4.61,4.61,0,0,0-.25-1.62L30.88,1.46l4.47,1.07A6,6,0,0,1,38,4.1l.35-.45h.76a1.9,1.9,0,0,1,1.41.72l0,0a3.87,3.87,0,0,1,1.77-2.3l1.74-.76s.35,1.95.36,2A8.14,8.14,0,0,1,47.74.81L49.67,0l.14,2.09a12.46,12.46,0,0,1-.13,2.53l1.11-.73-.16,3a6.32,6.32,0,0,1-.93,2.72l.12.28.08.2C51,9.34,51.43,9,51.43,9L54.1,7l-.28,3.31a11.19,11.19,0,0,1-2,5.15,6.19,6.19,0,0,1-2.38,1.95,2.8,2.8,0,0,1,.3.76l2.08.67-1,1.46a6.25,6.25,0,0,0,2-.25l1.52-.67L54.82,21c.14.4.33,1.58-1,3.16a1.64,1.64,0,0,1,.78,1,1.86,1.86,0,0,1-1.1,2.13,7.75,7.75,0,0,0-1,.74,8.87,8.87,0,0,1-2.22,1.41,1.91,1.91,0,0,1,.86,1.86c-.22,1.35-1.7,1.61-2.19,1.7a13.81,13.81,0,0,1-2.4.21A13.32,13.32,0,0,1,44.38,33a8.89,8.89,0,0,1-.05,1.75l-.24,1.65L42.48,36a6,6,0,0,1-3.59-3.3c-.17-.32-.39-.53-.56-.53-.41,0-1.76.86-3.14,4.82-.45,1.31-.81,2.35-1.09,3.18l.18.17C39,44.69,39.14,44.79,39.53,45l.25.13.93.53-.19,1.05a4,4,0,0,1-1.13,2,2.52,2.52,0,0,1-1.74.93Z"/><path class="cls-2" d="M39,46.44c-.8-.45-.41,0-5.78-5s-3.94-7.55-1.53-7.7a4.65,4.65,0,0,0,3.37-1.39,5.46,5.46,0,0,0-3-.85c-1.26.21-.46-.3-.46-.3a11.12,11.12,0,0,0,2.95-5.4c.87-3.55-4,2.88-3.11-.12s-.11-4-.32-5.83-1.52,1.43-1.52,1.43c-.36.84-.39-.21-.39-.21-.66-3.53-2-3.66-2-3.66,0,1.73-1.89,4.62-1.71,5.39s-.43,1.4-.36.43-1.15-2.88-1.15-2.88a4,4,0,0,0-1,3.59s.89,4.35.5,5.56-2.33-2.09-2.81-3.82,2.1-4.63,2.1-4.63c-1.15-.37-1.21.47-2.09.43s.45-1.9-.88-4.21a9.5,9.5,0,0,0-3.31-3.38s.23,1,.65,3.39-.12,1.22-.12,1.22a2.48,2.48,0,0,0-1.86-.95,6.46,6.46,0,0,1,1,2.08c.84,2.72-.87,5.52-1.14,1.33s-2.93-5.52-2.93-5.52c.63,3.69-.13,2.29-.13,2.29-1.29-2.26-4.39-3.37-4.39-3.37,0,2.94,2,4.62,1.93,5.36s-2.88.05-2.88.05c0,.79,1.69,2.36,2.84,2.72a14.58,14.58,0,0,1,4.82,2.84c.83,1-.3.45-.3.45C8.48,22.54,6.35,24,6.7,24s1.66,1.73,1.66,1.73A4.57,4.57,0,0,0,4,27.28c1.39-.42,5.79,2,5.79,2a8.2,8.2,0,0,0-2.42.81C9,32,13.39,32,13.39,32c-.66.26-1.23,1.56-1.23,1.56a3.47,3.47,0,0,0,2.66-.25,6.32,6.32,0,0,1,7.27,1.36,1.4,1.4,0,0,1-1.49.24c-.44-.33-3.79-1.1-3.91-.74S18,35.92,18,35.92c-1.38-.85-4.6.68-4.67,1s1.34,1,1.34,1S11.35,39.69,11.41,40s2.08.7,2.08.7a7.18,7.18,0,0,0-2.26,1.84c2,1.77,6.25,1,6.25,1a3.07,3.07,0,0,0-1.25,1.59c3.42.54,5.18-2.07,6.26-3.13s1.47-3.82,5.84-2,9.24,8,9.24,8,.11.22.74-.43A2.66,2.66,0,0,0,39,46.44Z"/><path class="cls-3" d="M29.53,39.14s-2.16-1.86-4-1.94-7,3.54-8.86,2.92c0,0,5-2,6.52-3.12a3.09,3.09,0,0,1,2.8-.69s-9.47-8.44-10.38-11c0,0,9.57,9.39,10.82,10.25a17,17,0,0,1,.27-3.78c.37-1.39,1.38-5.12.82-7,0,0,1.53.19-.32,7.72C27.24,32.44,26.29,35.45,29.53,39.14Z"/><path class="cls-4" d="M31.54,43.81c.09-.91-.16-.37,2.24-7.29s5.33-6.63,6.44-4.48a4.63,4.63,0,0,0,2.62,2.52,5.52,5.52,0,0,0-.41-3.06c-.69-1.07.09-.54.09-.54a11.16,11.16,0,0,0,6.13.54c3.6-.63-4.23-2.5-1.14-2.91s3.64-1.7,5.21-2.62-1.91-.82-1.91-.82c-.92,0,0-.44,0-.44,3-2,2.56-3.28,2.56-3.28-1.58.69-5,.12-5.62.6s-1.46.15-.54-.16,2.18-2.21,2.18-2.21a4,4,0,0,0-3.7.5s-3.63,2.56-4.89,2.69,1-3,2.37-4.11,5.08.06,5.08.06c-.12-1.2-.91-.91-1.23-1.73s1.93-.35,3.51-2.5a9.45,9.45,0,0,0,1.76-4.39s-.85.63-2.84,2-1.17.38-1.17.38a2.46,2.46,0,0,0,.13-2.08,6.36,6.36,0,0,1-1.52,1.73c-2.14,1.87-5.4,1.42-1.67-.5s3.89-4.9,3.89-4.9C46,8.83,47,7.56,47,7.56c1.55-2.08,1.32-5.37,1.32-5.37-2.71,1.14-3.44,3.67-4.13,3.92S43,3.49,43,3.49c-.73.31-1.49,2.49-1.36,3.69A14.48,14.48,0,0,1,41,12.74c-.6,1.17-.54-.09-.54-.09.76-6.41-1.39-7.8-1.3-7.46a8.41,8.41,0,0,1-.91,2.21A4.6,4.6,0,0,0,35,4c.95,1.11.44,6.13.44,6.13-.16-.57-1.7-1.89-1.7-1.89-1.08,2.27.69,6.31.69,6.31-.5-.5-1.93-.5-1.93-.5a3.45,3.45,0,0,0,1.3,2.33,6.3,6.3,0,0,1,1.67,7.2,1.39,1.39,0,0,1-.82-1.26c.13-.54-.5-3.92-.88-3.88s-1,1.92-1,1.92c.22-1.61-2.47-4-2.78-3.88s-.35,1.61-.35,1.61-3-2.34-3.28-2.15.18,2.18.18,2.18a7,7,0,0,0-2.58-1.33c-.83,2.53,1.57,6.13,1.57,6.13a3.1,3.1,0,0,0-2-.51c.88,3.35,4,3.92,5.38,4.49s4.09-.19,4.15,4.55-3.64,11.68-3.64,11.68-.16.19.7.51A2.62,2.62,0,0,0,31.54,43.81Z"/><path class="cls-5" d="M34.41,32.17s.83-2.72.19-4.41-6-5-6.23-6.93c0,0,3.82,3.81,5.47,4.71a3.11,3.11,0,0,1,1.76,2.3s3.94-12.07,5.92-13.93c0,0-4.76,12.54-5.05,14A16.67,16.67,0,0,1,40,26.67c1.42-.22,5.24-.79,6.79-2.09,0,0,.44,1.49-7.2,2.81C39.63,27.39,36.49,27.73,34.41,32.17Z"/></g></g></svg>