<svg xmlns="http://www.w3.org/2000/svg" viewBox="0 0 42.33 45.63"><defs><style>.cls-1{fill:#444;}.cls-2{fill:#c78e65;}.cls-3{fill:#f7eee3;}</style></defs><title>Mushroom</title><g id="Layer_2" data-name="Layer 2"><g id="레이어_1" data-name="레이어 1"><path class="cls-1" d="M27.83,31.29A43.69,43.69,0,0,1,16,29.45a2,2,0,0,1-1-.77L9.4,20.56A1.88,1.88,0,0,1,9.12,20c-1.35-4.79-1-8.58,1-11.25,2.46-3.25,6.66-3.93,9.75-3.93.52,0,1,0,1.41,0L22.34,2.5A2.06,2.06,0,0,1,23,1.67,11,11,0,0,1,29,0a12.49,12.49,0,0,1,5.94,1.56,2,2,0,0,1,1,1.63,15.75,15.75,0,0,1-.27,4.09,9.31,9.31,0,0,1,4.26,2.89c2.24,2.71,2.91,6.65,2,11.7C40.8,28,35.8,31.29,27.83,31.29"/><path class="cls-1" d="M17.58,45.63a2,2,0,0,1-.85-.19,2,2,0,0,1-1.09-1.33,14.58,14.58,0,0,0-1.16-3.17,7.43,7.43,0,0,0-1.62,1,6.35,6.35,0,0,1-4.13,1.62c-3,0-5.54-2.17-7.63-6.44C-3.83,27,9.38,18.12,9.94,17.75,10.18,17.6,15.69,14,21.7,14a12,12,0,0,1,9.53,4.32c2.52,3,3.49,5.88,2.87,8.67a9.85,9.85,0,0,1-4.44,5.84,4,4,0,0,1-.87,2.36,3,3,0,0,1-.41.39,21.11,21.11,0,0,0,1.07,2.12,2,2,0,0,1,.18,1.59,2,2,0,0,1-1,1.21L18.46,45.43a2.09,2.09,0,0,1-.88.2"/><path class="cls-2" d="M11,19.42C6.77,4.26,22.52,7,22.52,7l1.65-3.66a9.61,9.61,0,0,1,9.78,0s.26,4-1.07,5.43c0,0,9.41.06,7.07,12.76s-23.3,6-23.3,6Z"/><path class="cls-3" d="M16.38,7.17s-1.25,2.47,1.47,3c0,0,.63,3.54,3.28,1.71,0,0,1.71,3.34,3.92.94,0,0,4,4.58,5.68.87,0,0,7,3.05,4.17-.87,0,0,2.77.86,2.53-.82,0,0,1.15.74.7-.83a7,7,0,0,0-5.25-2.39S34,8.31,34,3.32a9.87,9.87,0,0,0-9.78,0L22.52,7a17.07,17.07,0,0,0-6.14.19"/><path class="cls-3" d="M17.58,43.63s-1.09-4.41-2.41-4.74-3.6,1.47-3.6,1.47S7.11,44.81,2.9,36.19,11,19.42,11,19.42s11.85-7.81,18.67.19-2.09,12.08-2.09,12.08.38,2.66-1.13,2.47,1.23,4.54,1.23,4.54Z"/><path class="cls-1" d="M12.7,31s2.61,2.94,2.56,4.36-1.75.42-1.75.42-2-.94-2.47,1.57c0,0-.85,3.22-1.94-.86S12.7,31,12.7,31"/><path class="cls-1" d="M21.47,25.11,25,31.6s1-.29.52-1.78.8-1.73.8-1.73,1.14-.42,1.66.26S29.19,28,29.19,28s1.42-1.61-2.47-3.74-5.25.85-5.25.85"/></g></g></svg>