<svg xmlns="http://www.w3.org/2000/svg" viewBox="0 0 32 51.47"><defs><style>.cls-1{fill:#444;}.cls-2{fill:#e7bf10;}.cls-3{fill:#f9c73a;}.cls-4{fill:#fbc001;}.cls-5{fill:#f7c102;}</style></defs><title>Mustard_1</title><g id="Layer_2" data-name="Layer 2"><g id="레이어_1" data-name="레이어 1"><path class="cls-1" d="M15.36,51.47a9.63,9.63,0,0,1-1.95-.22c-3.9-.86-4.48-2.78-4.54-4.73a3.32,3.32,0,0,0,0-.6h0s-.11-.05-.29-.1C5.29,44.93,3.86,44,3.33,42.2a6.22,6.22,0,0,1,.35-5.45c1.13-1.69,3.24-2.54,6.29-2.54h0a2.83,2.83,0,0,1-.16-.36A3.22,3.22,0,0,1,7.5,31.57L0,6.55l0-.11c-.09-.64-.21-4,6.77-5.81A16.78,16.78,0,0,1,11,0c3.47,0,4.36,1.76,4.5,2.11L23.7,26.38a3.24,3.24,0,0,1-.45,3.1c0,.05,0,.1,0,.15.16.67.4,2.8-2.31,4.53l.43,2a18.16,18.16,0,0,0,3.72.36l.81,0h.35c4.14,0,5.68,2.43,5.73,4.5a6,6,0,0,1-6,5.76c-1.89.1-3.13,1.05-4.57,2.15s-3.39,2.6-6.11,2.6Z"/><path class="cls-2" d="M4.75,41.71s-2.54-6.08,5.37-6S19.19,38.18,26,38s5.26,7,0,7.27S19.5,51,13.73,49.78s-1.54-4.52-4.8-5.41S5,42.67,4.75,41.71Z"/><path class="cls-3" d="M17.89,40.68s2.25.89,2.69-1.19l-1.75-2.28-1.14,1.7Z"/><path class="cls-4" d="M22.3,26.93,14.1,2.67S13.21.49,7.17,2.08,1.51,6.23,1.51,6.23L8.93,31.1h.84l5.4-3Z"/><path class="cls-3" d="M8.93,31.1s-.68-3.17,5.76-5.28,7.61,1.11,7.61,1.11,1.34,2.5-5.27,4.45S9.38,32.49,8.93,31.1Z"/><path class="cls-3" d="M21.8,29.93s1,2.7-4.72,4.23S11.19,33,11.19,33A2.84,2.84,0,0,1,13,29.71,31.67,31.67,0,0,1,18.08,28l2.75.64Z"/><path class="cls-4" d="M14.28,32.52a3.15,3.15,0,0,1,2.21-1.7c1.65-.33,2.29.34,2.29.34l1.8,8.33s-2-.53-2.69,1.19Z"/><path class="cls-5" d="M11.19,33s-2.49-3.53,3.34-5.61,6.94.56,7.27,2.5C21.8,29.93,15.3,26.66,11.19,33Z"/></g></g></svg>