<svg xmlns="http://www.w3.org/2000/svg" viewBox="0 0 56.55 52.92"><defs><style>.cls-1{fill:#444;}.cls-2{fill:#e8533f;}.cls-3{fill:#c94a39;}.cls-4{fill:#f76148;}.cls-5{fill:#f56147;}.cls-6{fill:#fff;}</style></defs><title>Octopus</title><g id="레이어_2" data-name="레이어 2"><g id="레이어_1-2" data-name="레이어 1"><path class="cls-1" d="M12.38,52.92a3.64,3.64,0,0,1-2.79-1.08,1.66,1.66,0,0,1-.5-1.47c.23-1.3,1.72-1.55,2.52-1.69a3.19,3.19,0,0,0,.45-.1v-.1a3.09,3.09,0,0,0-.1-.34c-.31-1-1-3.42,2.47-5.54a3.29,3.29,0,0,1,1.32-.4h-.23a4.61,4.61,0,0,1-.47,0A7.28,7.28,0,0,1,10,39.38c-.82-1.19-1.58-1.25-1.62-1.26H8c-1.57,0-2.08.87-2.67,3-.19.66-.64,2.21-2.05,2.21a1.78,1.78,0,0,1-1.68-1.33l0-.1v-.09c-.05-.29-1.13-7,3.31-9.32a6.45,6.45,0,0,1,3-.75,8.05,8.05,0,0,1,1.11.08A7.62,7.62,0,0,1,9,29.55a3.07,3.07,0,0,0-.05-.66l-.36.73a4.52,4.52,0,0,1-4.32,2.51,9.72,9.72,0,0,1-2-.22C1.6,31.77,0,31.44,0,30c0-.34.11-1.45,1.76-1.86l1.16-.22c.29-.06.6-.11.75-.16.13-.22.37-.84.63-1.5.12-.33.27-.72.44-1.16,1.19-3,3.22-3.45,4.32-3.45a5.13,5.13,0,0,1,2.56.74A9.35,9.35,0,0,1,15.32,28a6.63,6.63,0,0,0,.33,1.4,1.33,1.33,0,0,0,.11-.24,4,4,0,0,1,.7-1.31,4.67,4.67,0,0,1,.35-3,4.35,4.35,0,0,1,.07-1.17c-2.6-3.14-5.74-9.57-2-15.54C19.41,1,25.64.27,26.75.21A12.55,12.55,0,0,1,29.17,0,16.68,16.68,0,0,1,42.75,7.14C48,14.2,42.45,22,38.24,25.67a3.54,3.54,0,0,1,0,.65,6.75,6.75,0,0,1,4.23-1.81,5.51,5.51,0,0,1,4.35,2.4l.09.11.07.13a1.8,1.8,0,0,0,.28.4l0-.05a5.65,5.65,0,0,1,4-1.8,5.47,5.47,0,0,1,4,1.94c.77.78,1.61,2,1.13,3.14a2,2,0,0,1-1.94,1.15,5.57,5.57,0,0,1-.65-.05,5,5,0,0,1-2.47-1.24.93.93,0,0,0-.14.22c-1,1.72-2.35,3.7-4.46,3.7h-.24a5.41,5.41,0,0,1-1.65-.37,6.16,6.16,0,0,1,1.06,2.31l.12.57a19.52,19.52,0,0,0,.51,2.12,5.85,5.85,0,0,1,2.51-.64c1.79,0,3.35,1,4.77,3.12a2.09,2.09,0,0,1,.28,2.19,1.66,1.66,0,0,1-1.49.87,4.59,4.59,0,0,1-2.34-1,1,1,0,0,0-.47-.12,2.08,2.08,0,0,0-1.36.79,3.75,3.75,0,0,1-2.69,1.08,4.85,4.85,0,0,1-2.42-.69C40.8,43.36,40,40.1,39.92,39.73a.63.63,0,0,0,0-.09c-1.51,1.66-3,3.15-6.16,3.15h-.2A7.2,7.2,0,0,1,28.36,40a7.65,7.65,0,0,1-3,6.53C23.33,48.26,21.69,49,20.06,49a7,7,0,0,1-3.21-.91s0,.09,0,.14c-.14,3-1.84,4.21-2.89,4.44a6.24,6.24,0,0,1-1.57.21m4-10.76a7,7,0,0,1,2.33.44,2,2,0,0,0,.6.11,1.16,1.16,0,0,0,.85-.34,2.17,2.17,0,0,0,.39-2.28,9.67,9.67,0,0,1-4.47,2.08h.3"/><path class="cls-2" d="M20.6,30.94s-2.16-.07-4,3.19-3.85,1-3.85,1S9.14,31.88,5.6,33.75,3.07,41.5,3.07,41.5s.31,1,.85-.86,1.31-4.2,4.46-4c0,0,1.48-.06,2.83,1.9a5.81,5.81,0,0,0,4,2.15s2.3.54,6.52-3.65-1.15-6.09-1.15-6.09"/><path class="cls-3" d="M18.79,27.49a7.47,7.47,0,0,0-1.59,2.12c-.25.81-1,1.55-1.65,1.33s-1.26.13-1.71-2.69a7.84,7.84,0,0,0-3-4.61s-3.1-2-4.67,2-1,3.3-4,3.95c0,0-1.67.4.46.85s3.78.2,4.65-1.5.95-2.31,2.17-1.88,1.07,2.68,1.07,2.68S10,33.48,12.7,34.27a10.07,10.07,0,0,0,5,.17L20.86,30Z"/><path class="cls-3" d="M35.38,29.89s.67.86,1.75-.3,4.94-6.25,8.5-1.75c0,0,1.25,2.44,2.81.64a3.75,3.75,0,0,1,5.75.19s2,2.06-.14,1.72a3.53,3.53,0,0,1-1.84-1s-1.29-1.08-2.31.73-2.06,3-3.28,2.93a2.56,2.56,0,0,1-2.5-1.67s-1.2-2.5-3.63,1.87c0,0-1.22,3.25-7.7.73L28.3,28l3.58-1Z"/><path class="cls-4" d="M18.58,23.37S11.66,16.14,16.16,9,26.94,1.7,26.94,1.7,35.38-.25,41.55,8,36.6,25.09,36.6,25.09a2.38,2.38,0,0,1-.66,2.61s.3,1.69-.56,2.19A4.25,4.25,0,0,0,34,31.57c-.22.81-.94,4.48-6.74,3a9,9,0,0,1-4.15.24c-1.87-.46-4.7-4.44-5.11-6.83s.46-2.61.46-2.61a2.25,2.25,0,0,1,.13-2"/><path class="cls-5" d="M30.53,31.7s1.76-.94,3.33,3.23c0,0,.48,2.4,3.48-.6s6.58-.11,7.11,2.46.82,4.61,2.37,3.89,3.5-1.54,5.76,1.81c0,0,1.08,1.63-1.5,0,0,0-1.77-1.24-3.74.93a2.62,2.62,0,0,1-3.26.09c-2-1.16-2.7-4.11-2.7-4.11s-.78-2.79-2.35-1-2.71,3-5.48,2.94-5.45-3.24-5.93-6.18-.48-3.41-.48-3.41Z"/><path class="cls-5" d="M27,34a4,4,0,0,0-.68,3.5c.65,1.8,1.54,4.95-1.85,7.83s-4.93,2.49-7.32,1.21c0,0-1.63-1.15-1.76,1.63s-1.74,3-1.74,3-2,.61-3-.5c0,0-.52-.29,1.22-.59s1.84-.92,1.67-1.92S12.2,45.7,15.2,43.88a3.74,3.74,0,0,1,3,.13,2.75,2.75,0,0,0,3.09-.66,3.77,3.77,0,0,0,0-4.84c-2-2.52-1.47-5.72-.43-6.72a5.64,5.64,0,0,1,4.69-1.55C27.44,30.55,27,34,27,34"/><path class="cls-6" d="M23.9,26.72A1.93,1.93,0,1,1,22,24.79a1.92,1.92,0,0,1,1.93,1.93"/><path class="cls-6" d="M34.42,26.9A1.93,1.93,0,1,1,32.49,25a1.92,1.92,0,0,1,1.93,1.92"/><path d="M33.86,26.9a1.37,1.37,0,1,1-1.37-1.37,1.37,1.37,0,0,1,1.37,1.37"/><path d="M23.34,26.72A1.37,1.37,0,1,1,22,25.35a1.37,1.37,0,0,1,1.37,1.37"/></g></g></svg>