<svg xmlns="http://www.w3.org/2000/svg" viewBox="0 0 23.32 51.92"><defs><style>.cls-1{fill:#444;}.cls-2{fill:#e3ebeb;}.cls-3{fill:#e7d646;}</style></defs><title>Olive_oil</title><g id="Layer_2" data-name="Layer 2"><g id="레이어_1" data-name="레이어 1"><path class="cls-1" d="M12.76,51.92c-.62,0-1.2,0-1.71,0l-1,0H9.21c-2.18,0-4.6-.14-5.61-1.8a3.14,3.14,0,0,1,.1-3.24c.29-.55-.39-2.09-1-3.58A25.73,25.73,0,0,1,0,32.05c.1-6.26,1.44-9.86,2.27-11.51a13,13,0,0,1-1.58-7C.87,9.25,5,7,7.11,6.15A9.08,9.08,0,0,0,7,5,2.93,2.93,0,0,1,5.09,3.06,2.64,2.64,0,0,1,6.18.4L6.65,0h10.7l.12,0c1.36.19,2.23.83,2.44,1.79a2.07,2.07,0,0,1-1.07,2.24,5.08,5.08,0,0,1-.85.42c-.5.21-1.2.51-1.2,4.55-.07,1.83.17,4.88.86,5.83A30,30,0,0,1,23.3,30.31c.19,4.23-1.06,8.41-2.07,11.78-.65,2.2-1.27,4.27-1.13,5.29a3.36,3.36,0,0,1-.78,2.73c-1.4,1.6-4.24,1.81-6.56,1.81ZM6.65,12.17A2.87,2.87,0,0,0,5.6,13.62a4.66,4.66,0,0,0-.19,2.17A8.48,8.48,0,0,0,6.48,13,8.69,8.69,0,0,0,6.65,12.17Z"/><path class="cls-2" d="M21.61,30.38a28.29,28.29,0,0,0-5.32-14.53C14.91,14,15.1,9,15.1,9c0-6.2,1.75-5.7,2.82-6.39s-.69-.94-.69-.94h-10C5.7,3,8,3.57,8,3.57s.82-.12.82,3.76c0,0-6.27,1.75-6.46,6.26a10.26,10.26,0,0,0,1.88,6.89S1.82,23.74,1.69,32.07,6.64,44.85,5.2,47.61s2.63,2.57,4.89,2.57,8.77.62,8.33-2.57S21.93,37.34,21.61,30.38Zm-13.46-17S7.53,16.82,5.51,18s-3.57-6.89,2-8C7.52,10,9,9.58,8.15,13.34Z"/><path class="cls-3" d="M4.58,20.92h13.9S21.24,27.63,21,31.13s-.44,5-2.95,13.41c0,0-.69,2.29-.42,2.88a26.91,26.91,0,0,1-5.62.69,28,28,0,0,1-5.76-.72s.62-1.82-2.57-7.92S4.58,20.92,4.58,20.92Z"/></g></g></svg>