<svg xmlns="http://www.w3.org/2000/svg" viewBox="0 0 47.85 43.11"><defs><style>.cls-1{fill:#444;}.cls-2{fill:#fff9c3;}.cls-3{fill:#fffee5;}.cls-4{fill:#dcfdc8;}.cls-5{fill:#fff;}</style></defs><title>Onion</title><g id="Layer_2" data-name="Layer 2"><g id="레이어_1" data-name="레이어 1"><path class="cls-1" d="M15.78,40.77a8.09,8.09,0,0,1-6.32-3l-.14-.13c-1.07-.85-2.39-1.91-2.88-2.36-8-7.26-7-16.09-5.18-20.16,0,0,0-.08,0-.12C2.15,12.13,8,5.35,17.49,5.35c.29,0,.59,0,.88,0l1,0A9.5,9.5,0,0,0,22,5.09a1,1,0,0,0,.62-.55,1,1,0,0,0,0-.84,4.3,4.3,0,0,0-.51-.81,1.64,1.64,0,0,1-.06-2A2.37,2.37,0,0,1,23.88,0a2.34,2.34,0,0,1,1.34.42,1,1,0,0,0,.5.17,2.33,2.33,0,0,1,.78.2,1.14,1.14,0,0,0,.4.08A1,1,0,0,0,27.28.8a2.58,2.58,0,0,1,1-.2,2.19,2.19,0,0,1,1.81,1,.85.85,0,0,0,.25.25,3.09,3.09,0,0,1,1.33,2.12A3.38,3.38,0,0,1,30,7a.69.69,0,0,0-.13.11,1.73,1.73,0,0,0-.47,1,2,2,0,0,0,.51,1.24,1.22,1.22,0,0,0,.27.24c1.67,1,7.17,4.7,7.9,10.15.78,5.78-2.53,14.19-2.67,14.54a1.64,1.64,0,0,1-.67.78L32,36.66a1.52,1.52,0,0,1-.81.22l-2.4-.14a1,1,0,0,0-1,.71,3.78,3.78,0,0,1-.5,1c-.89,1.3-2.49,2-4.76,2a16.93,16.93,0,0,1-3.05-.31h-.18a1,1,0,0,0-.35.06,9.32,9.32,0,0,1-3.21.59"/><path class="cls-2" d="M7.51,34.07c-9.44-8.62-4.72-18.52-4.72-18.52.31-1.72,5.89-9,15.52-8.59s5-5.09,5-5.09.68-.92,1.6.55c0,0,1.41-1,1.41,1.17,0,0,2-2.58,2.57-.74,0,0,2.58,1.11,0,2.95,0,0-2.63,2.08.07,5,0,0,6.74,3.75,7.48,9.2S33.88,33.7,33.88,33.7l-2.7,1.59-5-.3s2.1,5.39-7.17,3.43a6.83,6.83,0,0,1-8.53-1.9s-2.34-1.84-3-2.45"/><path class="cls-3" d="M27.85,7.48c0-.75,1.06-1.68,1.06-1.68,2.6-1.91,0-2.95,0-2.95-.55-1.88-2.57.74-2.57.74,0-2.23-1.41-1.16-1.41-1.16-.92-1.48-1.6-.56-1.6-.56s2,2.14.61,3.9c0,0,.46,1.3,1.56.92s2.35.79,2.35.79"/><path class="cls-1" d="M21.35,34.11c-3,0-6.54-.57-6.87-3.31-.13-.85-.35-5.14,7.45-9.3a44.39,44.39,0,0,1,16-4.66A9.23,9.23,0,0,1,39,16.79c3.2,0,5.49,1,6.45,2.86,1.81,3.44-2.68,7.26-3.6,8-.3.25-7,5.72-18.86,6.41h-.05c-.06,0-.69,0-1.56,0"/><path class="cls-1" d="M30,43.11c-1.12,0-2.3-.06-3.53-.17-9.15-.85-11.84-8.08-12-12.22a1.91,1.91,0,0,1,0-.34A1.6,1.6,0,0,1,16.05,29a1.62,1.62,0,0,1,1.48,1,1,1,0,0,0,.61.58,9.52,9.52,0,0,0,3.06.37c.47,0,1,0,1.56-.05a35.62,35.62,0,0,0,6.79-1l.17-.05A38.57,38.57,0,0,0,37,27l.15-.09a14,14,0,0,0,4.81-4l.31-.48a3.46,3.46,0,0,0,.32-.8,1,1,0,0,0-.05-.63,1.58,1.58,0,0,1,.61-1.95,1.59,1.59,0,0,1,2.14.4,1.83,1.83,0,0,1,.15.25c5.6,10,.17,17.35-3.92,20.1l-.12.09c-.83.76-4.09,3.22-11.43,3.22"/><path class="cls-2" d="M16.05,30.57s-.73-3.74,6.63-7.67A43.14,43.14,0,0,1,38,18.42s4.72-.49,6,2-3.19,6-3.19,6-6.5,5.39-18,6.07c0,0-6.56.55-6.81-1.9"/><path class="cls-4" d="M43.27,23.82a15.68,15.68,0,0,1-5.42,4.5,38.82,38.82,0,0,1-7.71,3c-1.87.74-7.28,1.14-7.28,1.14-7.08.43-6.81-1.9-6.81-1.9s0,9.81,10.55,10.79S40.46,38.6,40.46,38.6,50.64,32.1,44,20.39c0,0,.67.92-.35,2.81Z"/><path class="cls-5" d="M29.25,26.6c-.46,0-.82-.12-.92-.43-.21-.59.78-1.24,1.78-1.58s2.17-.45,2.38.14h0c.2.6-.78,1.24-1.78,1.59A4.7,4.7,0,0,1,29.25,26.6Zm2.32-1.79a4.16,4.16,0,0,0-1.3.25c-1,.36-1.48.83-1.47,1s.7.2,1.74-.17S32,25,32,24.89A.81.81,0,0,0,31.57,24.81Z"/><path class="cls-5" d="M22.37,31.9c-2.76,0-4.52-.69-4.95-1.95-.89-2.57,4.12-6.55,11.4-9.08A30.84,30.84,0,0,1,38.36,19c2.8,0,4.6.67,5,1.94h0c.44,1.27-.54,2.92-2.76,4.65A30.9,30.9,0,0,1,32,30a31.18,31.18,0,0,1-9.54,1.87ZM38.44,19.51h-.08A30.45,30.45,0,0,0,29,21.34c-6.78,2.36-11.86,6.22-11.09,8.45.36,1,2,1.61,4.48,1.61h.08a30.74,30.74,0,0,0,9.38-1.84,30.59,30.59,0,0,0,8.51-4.36c2-1.56,2.94-3.05,2.58-4.08h0C42.57,20.09,40.94,19.51,38.44,19.51Z"/><path class="cls-5" d="M24.1,30.59c-2.14,0-3.63-.52-4-1.57s.43-2.35,2.19-3.72a24.34,24.34,0,0,1,6.85-3.51,24.49,24.49,0,0,1,7.54-1.48h.07c2.21,0,3.61.56,4,1.57h0c.71,2.06-3.26,5.24-9,7.24A24.37,24.37,0,0,1,24.1,30.59Zm12.65-9.78h-.06a24.1,24.1,0,0,0-7.39,1.45,24.08,24.08,0,0,0-6.7,3.43c-1.56,1.22-2.3,2.37-2,3.17.53,1.54,5.05,1.82,10.93-.21s9.26-5.06,8.73-6.6h0C40,21.26,38.7,20.81,36.75,20.81Z"/><path class="cls-5" d="M25.37,29.61c-1.74,0-3-.43-3.25-1.28-.58-1.68,2.61-4.25,7.25-5.86a19.86,19.86,0,0,1,6.06-1.18c1.84,0,3,.45,3.27,1.29h0c.29.84-.34,1.92-1.77,3a19.54,19.54,0,0,1-5.49,2.81A19.3,19.3,0,0,1,25.37,29.61Zm10.11-7.82h0a19.37,19.37,0,0,0-5.89,1.15c-4.68,1.63-7.37,4-6.95,5.22s4,1.42,8.69-.2a19.28,19.28,0,0,0,5.34-2.74c1.23-1,1.82-1.86,1.6-2.48h0C38,22.14,37,21.79,35.48,21.79Z"/><path class="cls-5" d="M26.57,28.64c-1.25,0-2.19-.3-2.44-1-.52-1.49,2.44-3.42,5.48-4.47s6.56-1.37,7.07.12h0c.23.66-.25,1.49-1.34,2.34a15,15,0,0,1-4.14,2.13A15.27,15.27,0,0,1,26.57,28.64Zm7.64-5.87a14.1,14.1,0,0,0-4.43.86c-3.42,1.19-5.48,3-5.18,3.83s3,1,6.44-.19a14.29,14.29,0,0,0,4-2c.89-.69,1.33-1.36,1.18-1.79h0C36.06,23,35.33,22.77,34.21,22.77Z"/><path class="cls-5" d="M27.87,27.66c-1,0-1.56-.25-1.73-.73s.16-1.06.93-1.66a10.16,10.16,0,0,1,2.78-1.43,9.84,9.84,0,0,1,3.07-.59h0c1,0,1.55.25,1.72.72h0c.17.49-.15,1.06-.93,1.66A9.89,9.89,0,0,1,31,27.06a10.17,10.17,0,0,1-3.06.6ZM33,23.75h0a9.2,9.2,0,0,0-2.91.57,9.23,9.23,0,0,0-2.63,1.35c-.56.43-.85.85-.76,1.1s.43.39,1.25.39h0a9.74,9.74,0,0,0,2.91-.57,9.84,9.84,0,0,0,2.64-1.35c.55-.43.84-.86.76-1.1h0C34.13,24,33.77,23.75,33,23.75Z"/></g></g></svg>