<svg xmlns="http://www.w3.org/2000/svg" viewBox="0 0 47.61 42.93"><defs><style>.cls-1{fill:#444;}.cls-2{fill:#fff9c3;}.cls-3{fill:#dcfdc8;}.cls-4{fill:#fffee5;}.cls-5{fill:#fff;}</style></defs><title>Onion_1</title><g id="Layer_2" data-name="Layer 2"><g id="레이어_1" data-name="레이어 1"><path class="cls-1" d="M29.84,42.93c-1.12,0-2.31,0-3.52-.17A13.34,13.34,0,0,1,18.94,40a9.17,9.17,0,0,1-3.31.63,8,8,0,0,1-6.31-3.08c-.54-.42-2.34-1.86-3-2.42C-3.1,26.45.63,16.39,1.22,15c.7-2.51,6.49-9.62,16.13-9.62.29,0,.58,0,.88,0l.95,0c2.52,0,3.44-.53,3.57-.81S22.5,3.31,22,2.74l-.73-.9L22,.9A2.22,2.22,0,0,1,23.74,0a2.27,2.27,0,0,1,1.52.6h.2A2.24,2.24,0,0,1,26.73,1,2.77,2.77,0,0,1,28.09.6a2.07,2.07,0,0,1,1.84,1.1A3,3,0,0,1,31.4,3.86a3.35,3.35,0,0,1-1.76,3.06h0A1.77,1.77,0,0,0,29.12,8a2.21,2.21,0,0,0,.67,1.5c1,.62,5.3,3.34,7.18,7.42.46-.06.74-.08.78-.08a10.34,10.34,0,0,1,1.08-.05c3.16,0,5.42,1,6.37,2.81l0,.09c6.6,11.85-2.59,19-4,20-.74.72-3.87,3.27-11.45,3.27Z"/><path class="cls-2" d="M7.37,34c-9.44-8.62-4.73-18.52-4.73-18.52.31-1.72,5.89-9,15.52-8.59s5-5.09,5-5.09.67-.92,1.59.56c0,0,1.41-1,1.41,1.16,0,0,2-2.58,2.58-.74,0,0,2.57,1.11,0,3,0,0-2.64,2.08.06,5,0,0,6.75,3.74,7.48,9.19s-2.57,13.74-2.57,13.74L31,35.21l-5-.31s2.11,5.39-7.16,3.43a6.84,6.84,0,0,1-8.54-1.9S8,34.59,7.37,34"/><path class="cls-3" d="M15.91,30.58v-.1A.24.24,0,0,0,15.91,30.58Z"/><path class="cls-3" d="M43.94,20.42l0,0-.09-.17-9.14.17L18.82,27l-2.91,3.49,0,.23a.35.35,0,0,1,0-.13A11,11,0,0,0,26.45,41.27c10.55,1,13.86-2.76,13.86-2.76S50.41,32.06,43.94,20.42Z"/><path class="cls-3" d="M43.87,20.3a.75.75,0,0,0,.07.12Z"/><path class="cls-4" d="M27.7,7.39c0-.75,1.07-1.68,1.07-1.68,2.59-1.9,0-2.95,0-2.95-.55-1.88-2.58.74-2.58.74,0-2.23-1.41-1.16-1.41-1.16-.92-1.48-1.59-.56-1.59-.56s1.95,2.14.61,3.9c0,0,.46,1.3,1.55.92s2.35.79,2.35.79"/><path class="cls-2" d="M15.91,30.48s-.74-3.74,6.62-7.67a43.14,43.14,0,0,1,15.33-4.48s4.72-.49,6,2-3.19,6-3.19,6-6.5,5.39-18,6.07c0,0-6.56.55-6.8-1.9"/><path class="cls-1" d="M43.87,20.3a.75.75,0,0,0,.07.12Z"/><path class="cls-5" d="M29.1,26.51c-.46,0-.82-.12-.92-.43C28,25.49,29,24.85,30,24.5s2.18-.45,2.38.14h0c.21.6-.78,1.24-1.78,1.59A4.7,4.7,0,0,1,29.1,26.51Zm2.32-1.79a4.06,4.06,0,0,0-1.29.25c-1,.36-1.48.83-1.48,1s.7.2,1.75-.16,1.47-.83,1.47-1S31.68,24.72,31.42,24.72Z"/><path class="cls-5" d="M22.22,31.81c-2.76,0-4.51-.69-4.95-1.95-.89-2.56,4.12-6.55,11.4-9.08a30.89,30.89,0,0,1,9.54-1.86c2.8,0,4.6.67,5,1.94h0c.44,1.27-.54,2.92-2.75,4.65a31.18,31.18,0,0,1-8.65,4.43,30.88,30.88,0,0,1-9.54,1.87ZM38.3,19.42h-.08a30.4,30.4,0,0,0-9.38,1.83C22.05,23.61,17,27.47,17.75,29.7c.35,1,2,1.61,4.47,1.61h.09a30.44,30.44,0,0,0,9.37-1.84,30.31,30.31,0,0,0,8.51-4.36c2-1.56,3-3.05,2.59-4.08h0C42.42,20,40.79,19.42,38.3,19.42Z"/><path class="cls-5" d="M24,30.5c-2.14,0-3.63-.52-4-1.57s.42-2.34,2.19-3.72A24.41,24.41,0,0,1,29,21.7a24.6,24.6,0,0,1,7.55-1.48h.07c2.2,0,3.6.56,4,1.57h0c.71,2.06-3.26,5.24-9,7.24A24.32,24.32,0,0,1,24,30.5Zm12.66-9.78h-.07a24,24,0,0,0-7.38,1.45,23.8,23.8,0,0,0-6.7,3.43c-1.57,1.22-2.31,2.37-2,3.17.53,1.54,5.06,1.82,10.94-.21s9.26-5.06,8.72-6.6h0C39.82,21.17,38.55,20.72,36.61,20.72Z"/><path class="cls-5" d="M25.22,29.52c-1.74,0-2.95-.43-3.25-1.28-.58-1.68,2.61-4.25,7.26-5.86a19.86,19.86,0,0,1,6.05-1.18c1.84,0,3,.45,3.27,1.29h0c.29.84-.33,1.92-1.77,3a19.54,19.54,0,0,1-5.49,2.81A19.25,19.25,0,0,1,25.22,29.52ZM35.34,21.7h-.05a19.16,19.16,0,0,0-5.9,1.16c-4.67,1.62-7.37,4-6.95,5.21s4,1.42,8.69-.2a19.35,19.35,0,0,0,5.35-2.74c1.23-1,1.81-1.86,1.6-2.48h0C37.87,22.05,36.87,21.7,35.34,21.7Z"/><path class="cls-5" d="M26.42,28.55c-1.25,0-2.19-.3-2.44-1-.51-1.49,2.44-3.42,5.49-4.47s6.55-1.37,7.07.12h0c.23.66-.25,1.49-1.35,2.35a14.88,14.88,0,0,1-4.13,2.12A15,15,0,0,1,26.42,28.55Zm7.64-5.87a14.15,14.15,0,0,0-4.43.86c-3.42,1.19-5.47,3-5.17,3.84s3,1,6.43-.19a14.42,14.42,0,0,0,4-2.05c.89-.69,1.33-1.36,1.19-1.79h0C35.92,22.93,35.18,22.68,34.06,22.68Z"/><path class="cls-5" d="M27.72,27.57c-1,0-1.56-.25-1.72-.73s.15-1.06.92-1.66a10,10,0,0,1,2.78-1.42,9.65,9.65,0,0,1,3.07-.6h0c1,0,1.56.25,1.72.73h0c.17.48-.15,1.05-.92,1.65A9.89,9.89,0,0,1,30.82,27a9.88,9.88,0,0,1-3.07.6Zm5.08-3.91h0a9.14,9.14,0,0,0-2.9.57,9.29,9.29,0,0,0-2.64,1.35c-.55.43-.84.85-.76,1.1s.43.39,1.25.39h0a9.43,9.43,0,0,0,2.9-.57,9.16,9.16,0,0,0,2.64-1.35c.56-.43.85-.85.76-1.1h0C34,23.86,33.62,23.66,32.8,23.66Z"/></g></g></svg>