<svg xmlns="http://www.w3.org/2000/svg" viewBox="0 0 63.12 53.41"><defs><style>.cls-1{fill:#444;}.cls-2{fill:#6da139;}.cls-3{fill:#327413;}.cls-4{fill:#fcaa3d;}.cls-5{fill:#f6ead6;}.cls-6{fill:#f9d73a;}.cls-7{fill:#f48820;}.cls-8{fill:#fe7433;}</style></defs><title>Orange</title><g id="Layer_2" data-name="Layer 2"><g id="레이어_1" data-name="레이어 1"><path class="cls-1" d="M31.6,53.41c-.58,0-1.18,0-1.79-.06-10.33-.7-15.15-5.77-17.4-10.17C-.94,40.18,0,26.84,0,26.7H0C.39,20.44,8,15.21,16.84,15.21c5,0,9.18,1.25,12,3.54.7-.06,1.32-.08,1.92-.08a30.23,30.23,0,0,1,7.41.87c1.15-1.4,3.39-3.47,7.74-6.29,7.16-4.64,7.77-8.86,7.77-8.9L54.21,0l2.23,3.74c.38.63,3.45,6.57-3.33,21.13-.42.9-.86,1.75-1.3,2.53A15.65,15.65,0,0,0,56,28,13.33,13.33,0,0,0,59,27.64l4.09-1L60.57,30c-.68.88-6.47,8.29-11.68,9.06C46.77,48.33,40.67,53.41,31.6,53.41Z"/><path class="cls-2" d="M49.57,28.19a16.2,16.2,0,0,0,9.81.91S52,38.77,47.13,37.53l-5.31-4.06Z"/><path class="cls-3" d="M55.15,4.51s-.44,4.81-8.44,10S38.41,22,38.41,22l.9,7.81s3.82,5.75,8.82.27a4.6,4.6,0,0,0,1.44-1.87h0a28.85,28.85,0,0,0,2.19-4C58.39,10,55.15,4.51,55.15,4.51"/><path class="cls-4" d="M30.85,25.94c0,5.85-7.27,10.9-15.15,10.9S1.51,33,1.51,27.17,9,16.71,16.84,16.71s14,3.37,14,9.23"/><path class="cls-5" d="M15.69,35.38c-7.75,0-13.37-3.6-13.37-8.55s6.78-9.31,14.51-9.31C23.4,17.52,30,20,30,25.63c0,5.1-6.83,9.75-14.34,9.75"/><path class="cls-4" d="M30.83,25.63S32,43.27,16.17,42.2,1.51,26.83,1.51,26.83s-.35,9,14.19,9.35c0,0,14.06.36,15.13-10.55"/><path class="cls-6" d="M5.47,22s-.69,1.41,2,1.41,5,.38,5.84,1a1.19,1.19,0,0,0,1.55,0s1-.72-.18-1.92a7.7,7.7,0,0,1-1.87-2.48s-.68-1.62-4,0-3.36,2-3.36,2"/><path class="cls-6" d="M13.73,26s.33-.86-.84-1.31-3.08-1-7-.62S3,28.23,3,28.23a.93.93,0,0,0,1.28.53,57.33,57.33,0,0,1,7-2A15.26,15.26,0,0,0,13.73,26"/><path class="cls-6" d="M13.64,26.42s1.72-.29,1.73.48-4.92,6.6-4.92,6.6-.95,2.26-5.72-2.62c0,0-1-.93.36-1.7s5.26-1,8.55-2.76"/><path class="cls-6" d="M16.44,23.76s2.34-2.73,2.34-4.28-2.61-1.29-2.61-1.29c-4.62,0-3.42.95-3.42.95s2.77,3.31,3.12,4.62a.47.47,0,0,0,.57,0"/><path class="cls-6" d="M16.92,23.9s1.4-1.36,2.63-5.12c0,0,0-1.29,2.8,0,0,0,2.1,1,1.27,1.92a14.42,14.42,0,0,1-6.3,3.47s-.46.19-.4-.27"/><path class="cls-6" d="M17.74,24.71s4.85-1.82,6.8-4.39c0,0,.91-1.26,3.48,1.87s-1,2.94-1,2.94L17.83,25s-.33,0-.09-.31"/><path class="cls-6" d="M25.83,31.18a18.37,18.37,0,0,0-7-5.09s-.75-.43.64-.6,8.07,0,8.07,0,2.66-.46.64,3.57c0,0-1.65,3.08-2.3,2.12"/><path class="cls-6" d="M18.64,34a39.45,39.45,0,0,0-1-7.3s-.32-.85,1.39-.11a25.28,25.28,0,0,1,6,5c.34.65-2.86,2-2.86,2s-4,1.66-3.6.47"/><path class="cls-6" d="M11.17,33.44a46.41,46.41,0,0,0,4.7-6.61s.62-1.48,1.27,1.07a29.75,29.75,0,0,1,.6,6.28s.49,1.12-3.66.67-2.91-1.41-2.91-1.41"/><path class="cls-7" d="M48.16,31.63c0,7.27-9,13.55-18.83,13.55s-17.64-4.74-17.64-12,9.26-13,19-13,17.42,4.19,17.42,11.46"/><path class="cls-5" d="M29.32,43.37c-9.64,0-16.63-4.47-16.63-10.63s8.43-11.57,18-11.57c8.16,0,16.4,3.12,16.4,10.09,0,6.34-8.49,12.11-17.81,12.11"/><path class="cls-7" d="M48.13,31.26s1.48,21.92-18.22,20.59S11.69,32.74,11.69,32.74s-.45,11.18,17.63,11.63c0,0,17.48.44,18.81-13.11"/><path class="cls-8" d="M16.6,26.78s-.85,1.76,2.52,1.76,6.26.47,7.26,1.28a1.49,1.49,0,0,0,1.93,0s1.23-.9-.23-2.39a9.7,9.7,0,0,1-2.33-3.07s-.83-2-5,0-4.19,2.42-4.19,2.42"/><path class="cls-8" d="M26.87,31.66s.41-1.07-1-1.63-3.84-1.25-8.71-.77-3.59,5.22-3.59,5.22a1.15,1.15,0,0,0,1.59.66,71.34,71.34,0,0,1,8.74-2.48,18,18,0,0,0,3-1"/><path class="cls-8" d="M26.76,32.24s2.14-.37,2.16.59S22.79,41,22.79,41s-1.18,2.82-7.1-3.26c0,0-1.23-1.14.44-2.11s6.54-1.2,10.63-3.42"/><path class="cls-8" d="M30.24,28.92s2.91-3.39,2.91-5.31S29.91,22,29.91,22c-5.74,0-4.26,1.18-4.26,1.18s3.44,4.11,3.89,5.74a.56.56,0,0,0,.7,0"/><path class="cls-8" d="M30.84,29.1s1.74-1.7,3.27-6.36c0,0,0-1.61,3.48,0,0,0,2.61,1.19,1.58,2.39a17.9,17.9,0,0,1-7.83,4.3s-.57.24-.5-.33"/><path class="cls-8" d="M31.86,30.1s6-2.25,8.45-5.45c0,0,1.14-1.57,4.33,2.33s-1.19,3.65-1.19,3.65L32,30.5s-.41-.06-.11-.4"/><path class="cls-8" d="M41.92,38.15a22.93,22.93,0,0,0-8.77-6.33s-.93-.53.8-.75,10,0,10,0,3.32-.57.81,4.45c0,0-2.06,3.83-2.86,2.63"/><path class="cls-8" d="M33,41.61a48.37,48.37,0,0,0-1.19-9.06s-.4-1.06,1.73-.14,7.09,5.37,7.5,6.18S37.46,41,37.46,41s-4.93,2.07-4.49.58"/><path class="cls-8" d="M23.7,41a57.62,57.62,0,0,0,5.83-8.22s.78-1.84,1.58,1.33a37,37,0,0,1,.75,7.81s.61,1.39-4.55.83S23.7,41,23.7,41"/></g></g></svg>