<svg xmlns="http://www.w3.org/2000/svg" viewBox="0 0 53.34 44.8"><defs><style>.cls-1{fill:#444;}.cls-2{fill:#6c5740;}.cls-3{fill:#edeef3;}.cls-4{fill:#fae4be;}</style></defs><title>Oyster</title><g id="레이어_2" data-name="레이어 2"><g id="레이어_1-2" data-name="레이어 1"><path class="cls-1" d="M14.72,44.8a4,4,0,0,1-2.61-.74,3,3,0,0,0-1.84-.49,5,5,0,0,0-.94.08,6.27,6.27,0,0,1-1,.09,3.53,3.53,0,0,1-2.5-1l-.26-.21a.51.51,0,0,0-.14-.09,5.49,5.49,0,0,1-1.65.23,7.31,7.31,0,0,1-1.3-.12,2.82,2.82,0,0,1-2-1.43,4.15,4.15,0,0,1,.15-3.51.72.72,0,0,0,.08-.49c-.34-.65-1.35-3,.09-4.48A.66.66,0,0,0,1,32.17c-.61-1.8-.85-5.09,1.88-6.79a9.16,9.16,0,0,0,2.27-1.76l0-.16,0,.07c.17-.31,1.68-3.05,4.25-3.07a.79.79,0,0,0,.81-.48l0-.14.05-.08a4.18,4.18,0,0,1,3.25-2.26,11.56,11.56,0,0,1-1.05-2.36l0-.07V15c-.17-.85-.9-4.95.54-7.37A8.18,8.18,0,0,1,14.6,1.87,5.6,5.6,0,0,1,19.05,0h.3a5.07,5.07,0,0,1,4.59,3.33c.22.47.83.71,1.82.71a9.09,9.09,0,0,0,2.31-.35l.08,0,.09,0A5.27,5.27,0,0,1,29,3.58a4.47,4.47,0,0,1,3.59,1.67,3.9,3.9,0,0,0,2.28.42,12,12,0,0,0,1.42-.08,3.8,3.8,0,0,1,.59,0A4.81,4.81,0,0,1,41.1,7.92l.07.13,0,.14a1.27,1.27,0,0,0,1.23.59c2.84,0,4.57,2.87,4.76,3.19l0,0A10.07,10.07,0,0,0,50,14c3.19,1.8,2.82,5.46,2.14,7.28a.94.94,0,0,0,.3.48c1.35,1.31.89,3.4.08,4.81a.69.69,0,0,0,.09.51,4.22,4.22,0,0,1,.25,3.67,3,3,0,0,1-2.29,1.54,8.38,8.38,0,0,1-1.48.13h0a6.43,6.43,0,0,1-1.92-.27.94.94,0,0,0-.42.19l-.31.23a4,4,0,0,1-2.73,1,7.74,7.74,0,0,1-1.11-.09,8,8,0,0,0-1.18-.09,4.21,4.21,0,0,0-2.41.6,4.75,4.75,0,0,1-2.86.72,9.7,9.7,0,0,1-4.31-1c-.12,3.15-2.16,4.78-3.62,5.08-.16,0-.31.23-.37.34a4.66,4.66,0,0,1-4.63,3.17h-.37c-.22,0-.42,0-.62,0a4.12,4.12,0,0,0-3.18,1c-1,1.1-3.29,1.4-4.37,1.4M1,32.14v0Z"/><path class="cls-2" d="M19.22,1.5S21.36,1.27,22.57,4s6,1.17,6,1.17a3.18,3.18,0,0,1,2.92,1.06c1.13,1.42,5.08.9,5.08.9a3.34,3.34,0,0,1,3.28,1.61,2.68,2.68,0,0,0,2.62,1.59c2.07,0,3.48,2.44,3.48,2.44s.39.94,3.39,2.62,1.43,5.56,1.43,5.56a2.07,2.07,0,0,0,.7,2c1,1-.19,3-.19,3a2,2,0,0,0,.07,1.91c.55,1.12.83,2.77-.94,3.06a5.61,5.61,0,0,1-2.77-.11,2,2,0,0,0-1.69.42,3.1,3.1,0,0,1-3,.9,6.54,6.54,0,0,0-4.71.79c-1.11.84-5,.31-5.8-.54s-2.44-1.79-5.93-1.61-4.16-2.39-4.16-2.39A2.59,2.59,0,0,0,20.51,27c-1.24-.23-3.29-1.84-2.8-5.22,0,0,.22-2.83-1.32-3.47S14,14.7,14,14.7,13,9.87,14.6,8c0,0-1-6.66,4.62-6.53"/><path class="cls-3" d="M21.62,7.62c.16,0,4.82-1.75,7.85-.89s2.07,1.12,7.44,1.37c0,0,.87-.13,2.3,1.48A5.59,5.59,0,0,0,43,11.21a3.93,3.93,0,0,1,2.75,3s.6,1.28,3,1.86.9,4.47.9,4.47a3.64,3.64,0,0,0,.62,2.79A1.65,1.65,0,0,1,50,25.67s-.69.64,0,1.9-.89,2.14-.89,2.14-.45.31-1.88.1a3.65,3.65,0,0,0-2.56.66,3.13,3.13,0,0,1-3.33.66C39.47,30.29,40,29.84,38.66,30s-2.8,1.26-3.61,0-1.62-4.66-6-2.45-6-5.68-6-5.68-.12-2.55-3.26-4.1S16.31,12,16.31,12,15.5,8.82,17.82,8.1s2.33,0,3.8-.48"/><path class="cls-4" d="M25.78,8.75s-4-2.24-5.79,1.14.6,6.87.6,6.87a6.18,6.18,0,0,0,2.53,2.17c1.63.71,2.66,3.16,2.66,3.16s1,3.29,6,3.67,5.31,1.63,5.31,1.63,1.15,2.3,4.9.44.22-7.81.22-7.81a3.29,3.29,0,0,0-1-1.22c-.61-.35-.58-1.89-.58-1.89a3.5,3.5,0,0,0-1.79-3.64,19.15,19.15,0,0,0-6.34-2.36,32.78,32.78,0,0,1-6.71-2.16"/><path class="cls-2" d="M29.05,13.82s-1.81-.22-2.84,2.27-5,1.08-5,1.08a2.52,2.52,0,0,0-2.47,1c-.95,1.31-4.29.82-4.29.82a2.72,2.72,0,0,0-2.77,1.5A2.31,2.31,0,0,1,9.44,22c-1.74,0-2.93,2.27-2.93,2.27s-.34.86-2.87,2.43-1.2,5.15-1.2,5.15a2.06,2.06,0,0,1-.6,1.84c-.84.9.16,2.79.16,2.79A2,2,0,0,1,2,38.2c-.47,1-.7,2.58.79,2.85a4.26,4.26,0,0,0,2.34-.11,1.57,1.57,0,0,1,1.43.4,2.47,2.47,0,0,0,2.57.83,5.06,5.06,0,0,1,4,.74c.94.77,4.2.28,4.9-.51s2.06-1.66,5-1.49a3.16,3.16,0,0,0,3.51-2.22A2.28,2.28,0,0,1,28,37.43c1.05-.22,2.77-1.71,2.36-4.85,0,0-.18-2.63,1.12-3.22s2-3.3,2-3.3.83-4.48-.52-6.19c0,0,.86-6.18-3.9-6.05"/><path class="cls-3" d="M27,19.49c-.13,0-4.07-1.62-6.62-.83s-1.75,1.05-6.29,1.28c0,0-.74-.13-1.95,1.37A4.49,4.49,0,0,1,9,22.82,3.48,3.48,0,0,0,6.67,25.6a3.62,3.62,0,0,1-2.5,1.72c-2,.55-.76,4.15-.76,4.15a3.64,3.64,0,0,1-.52,2.59,1.62,1.62,0,0,0,.16,2.18,1.57,1.57,0,0,1,0,1.77c-.54,1.17.75,2,.75,2s.38.29,1.59.09a2.93,2.93,0,0,1,2.16.61,2.47,2.47,0,0,0,2.81.61c1.55-.77,1.13-1.19,2.23-1s2.36,1.17,3,0S17.05,36,20.79,38s5.06-5.27,5.06-5.27A4.94,4.94,0,0,1,28.61,29c2.65-1.44,2.9-5.37,2.9-5.37s.68-3-1.28-3.64-2-.05-3.21-.45"/><path class="cls-4" d="M23.51,20.54s3.38-2.08,4.89,1.06S27.89,28,27.89,28a5.44,5.44,0,0,1-2.14,2c-1.37.66-2.24,2.93-2.24,2.93s-.84,3-5.08,3.4S14,37.84,14,37.84s-1,2.13-4.14.4S9.62,31,9.62,31a2.89,2.89,0,0,1,.87-1.13c.51-.33.48-1.76.48-1.76a3.42,3.42,0,0,1,1.52-3.38,15.37,15.37,0,0,1,5.35-2.19,26,26,0,0,0,5.67-2"/></g></g></svg>