<svg xmlns="http://www.w3.org/2000/svg" viewBox="0 0 42.93 44.59"><defs><style>.cls-1{fill:#444;}.cls-2{fill:#956525;}.cls-3{fill:#fbf6d9;}.cls-4{fill:#e5debe;}</style></defs><title>Oyster_mushroom_1</title><g id="Layer_2" data-name="Layer 2"><g id="레이어_1" data-name="레이어 1"><path class="cls-1" d="M17.32,44.59h-.85l-.23,0a10.52,10.52,0,0,1-2.81-.69,4.38,4.38,0,0,1-.54-.23A9,9,0,0,1,10,41.4c-.16-.18-.31-.35-.45-.54C7.59,38.26,7,34.65,7.77,30.13A14.86,14.86,0,0,0,8,28a9.48,9.48,0,0,1-5.76-2.75A9.36,9.36,0,0,1,0,17.91C.78,7,6.57,3.17,10,1.89A43.63,43.63,0,0,1,23.06,0c3.87,0,9.15.53,12.35,3.06C44,9.84,43.69,14.9,41.94,18c-2.47,4.32-5,5.87-14.8,6l-.12.37a18.38,18.38,0,0,0-.67,3l-.05.33,0,.07A40.57,40.57,0,0,0,26,32.94c0,.43,0,.87,0,1.36a13,13,0,0,1-1.32,6c-.14.27-.29.52-.44.76a7.71,7.71,0,0,1-2.65,2.5l-.57.29A8.84,8.84,0,0,1,17.32,44.59Z"/><path class="cls-2" d="M9.51,26.58S.92,27,1.53,18s4.84-13.17,9-14.73,18.38-3.5,24,1,8.44,9,6.16,13-4.33,5.32-15.55,5.32S9.51,26.58,9.51,26.58Z"/><path class="cls-3" d="M30.11,21.36l.57,0L31.73,20l2.19.78.47-.16.15-1.82,2.23.17.25-.44-.48-2.36-4.3-3.26L25.9,12s-.42,4.2-.42,4.29,2.23,4.34,2.23,4.34Z"/><polygon class="cls-3" points="4.94 21.44 5.02 22.07 6.19 21.92 5.86 23.01 5.88 23.62 6.26 23.94 7.58 23.61 7.89 24.67 8.37 24.78 9.11 24.57 13.52 18.03 10.15 15.66 5.52 19.77 4.94 21.44"/><path class="cls-4" d="M37,18.54a4.08,4.08,0,0,0,0-3.12l-4.23-.71A35.81,35.81,0,0,1,37,18.54Z"/><path class="cls-4" d="M26.2,17l.57,4.23a25.64,25.64,0,0,0,3.34.09C29,19.66,27.24,17.37,26.2,17Z"/><path class="cls-4" d="M31.64,14.52l-5.91-1,.4,3c1.63.29,4.08,4.06,4.55,4.81a15.67,15.67,0,0,0,3.24-.54c-1.36-1.8-5.08-6.07-7-5.45a.25.25,0,0,1-.31-.16.25.25,0,0,1,.16-.32c2.66-.88,7.39,5.44,7.59,5.71a.13.13,0,0,1,0,.06A4.75,4.75,0,0,0,36.77,19s0,0-.06,0A34,34,0,0,0,31.64,14.52Z"/><path class="cls-4" d="M16,17.2,5.25,19.31a6.08,6.08,0,0,0-.31,2.13c.51-.63,2.15-2.14,6.55-2.93a.26.26,0,0,1,.29.2.25.25,0,0,1-.21.29c-5.22.94-6.37,2.94-6.38,3a.28.28,0,0,1-.17.11,3.05,3.05,0,0,0,.86,1.55,13.05,13.05,0,0,1,5.57-4.46.25.25,0,0,1,.32.15.26.26,0,0,1-.16.32,13,13,0,0,0-5.35,4.31h0a4.69,4.69,0,0,0,1.63.73s0,0,0,0c.06-.16,1.53-3.78,3.85-4.7a.25.25,0,0,1,.19.47c-2,.79-3.39,4-3.56,4.37a7.28,7.28,0,0,0,.85.09Z"/><path class="cls-4" d="M21.17,41.49,23,40.21l.36-.62.32-1.65a16.5,16.5,0,0,0,.84-5c.15-3.3,1.1-9,1.1-9l.61-2.37,6.19-8.19-.86-3.11L31,10l-4.17,1.12L26,9l-.61,0-1.6.61-.92,2.91L20.52,9.29,20,9.37l-3,2.68-1.63-1.38-.46.19L14.14,14l-3.14-1-.4.29-.61,2H8.24l-.34.36L7.58,18l2.59,9.88-.48,8.45,1,3.65.37.46,1-.18,1.44,2,.46.19.7-.85L16.34,43l.5,0,1.26-.85,1.54.39.74-.16.45-.23Z"/><path class="cls-3" d="M20,9.37a22.34,22.34,0,0,0-4.59,1.3v0c0,.16,4.16,16.57,1.44,32.39a7.35,7.35,0,0,0,3.54-.62.12.12,0,0,1,0-.08C20.16,39.27,18.72,12.51,20,9.37Z"/><path class="cls-3" d="M14.93,10.86A21.38,21.38,0,0,0,11,13.06l0,0c.05.1,5.13,10.8,3,29.32,0,0,0,0,0,.06a8.69,8.69,0,0,0,2.35.58h0C19,27.71,15.16,11.83,14.93,10.86Z"/><path class="cls-3" d="M22.85,40c-.05-1.13-1.16-27.2,2.51-31a28.36,28.36,0,0,0-3,.07c-.64,0-1.24.13-1.83.22a.22.22,0,0,1,0,.16c-1,1.46-.34,20.36.35,32.78a6.13,6.13,0,0,0,2.14-2A.21.21,0,0,1,22.85,40Z"/><path class="cls-3" d="M24.25,32.66C24.72,16.05,30.13,10.82,31,10A17.42,17.42,0,0,0,26,9a.25.25,0,0,1-.08.15c-3.49,2.61-2.69,26.93-2.56,30.4a11.57,11.57,0,0,0,1.15-5.3c0-.49,0-.94,0-1.37h0A.25.25,0,0,1,24.25,32.66Z"/><path class="cls-3" d="M7.9,15.75a17.35,17.35,0,0,0-2.65,3.56s5.56,1.88,4,11.07c-.76,4.54,0,7.6,1.47,9.58C13.81,23.83,8.18,16.12,7.9,15.75Z"/><path class="cls-3" d="M10.6,13.35a21.84,21.84,0,0,0-2.36,2l0,0c.06.08,6.2,8,2.9,24.87a.25.25,0,0,1-.08.14,7.67,7.67,0,0,0,2.44,1.85C15.55,24.6,11,14.16,10.6,13.35Z"/><path class="cls-3" d="M31.53,10.24a.39.39,0,0,1-.06.11s-4.07,3.17-5.88,13.56C28.54,14.57,37,15.42,37,15.42S36,12.11,31.53,10.24Z"/><path class="cls-3" d="M25.82,16.51a.24.24,0,0,0-.21.28.25.25,0,0,0,.28.21.88.88,0,0,1,.31,0l-.07-.52A.81.81,0,0,0,25.82,16.51Z"/></g></g></svg>