<svg xmlns="http://www.w3.org/2000/svg" viewBox="0 0 59 14.03"><defs><style>.cls-1{fill:#fff;}.cls-2{fill:#444;}.cls-3{fill:#948773;}.cls-4{fill:#a6d2ed;}</style></defs><title>Pacific_saury</title><g id="레이어_2" data-name="레이어 2"><g id="레이어_1-2" data-name="레이어 1"><path class="cls-1" d="M48.15,8.18c.58-.78-.69-1.13-.69-1.13C22.07.6,14.17,6.44,14.17,6.44c1.65,3-1.36,5.79-1.36,5.79h0a62.75,62.75,0,0,0,9,.31s16.93-2,21.09-3.47a12.59,12.59,0,0,1,5.1-.9Z"/><path class="cls-2" d="M38.51,14a2.65,2.65,0,0,1-2.13-1.1,3.85,3.85,0,0,0-.4-.43c-10.5,1.24-22.66,1.27-22.79,1.27H13A37.82,37.82,0,0,1,1.18,10.89a2,2,0,0,1-.11-3.62C4.25,5.56,15.23,0,23.05,0h.24A78.94,78.94,0,0,1,35.38,1.24a11.08,11.08,0,0,1,2.2-1,2.55,2.55,0,0,1,.86-.15,2.52,2.52,0,0,1,2,1,9.43,9.43,0,0,0,1.39,1.56l6.68,1.84c1.59-.82,5.51-2.71,7.59-2.71a3.52,3.52,0,0,1,.66.06l2.2.46L57.73,4.18a23.94,23.94,0,0,1-2.49,3.17c1.17,1.48,2.43,3.39,2.37,4.76l-.06,1.42-1.42,0c-.43,0-4-.11-7.8-3.65a33.63,33.63,0,0,1-5.89,1.62,22,22,0,0,1-2.46,2,2.5,2.5,0,0,1-1.47.47"/><path class="cls-3" d="M35.21,10.22a6.83,6.83,0,0,1,2.38,1.83,1.08,1.08,0,0,0,1.51.29c1.31-.94,3.38-2.6,3.66-3.89l-7-.25Z"/><path class="cls-3" d="M35.75,2.83a16.61,16.61,0,0,1,2.34-1.2A1,1,0,0,1,39.26,2a7.84,7.84,0,0,0,3.21,2.81c2,.69-6.72.63-6.72.63Z"/><path class="cls-1" d="M48.44,8.22c-8.71,4-35.25,4-35.25,4L11.71,8.39l4.22-4.12,15-1.19L45.77,5.83,48.94,7.2Z"/><path class="cls-4" d="M56.49,3.33C54.66,3,48.72,6.11,48.72,6.11l-8-2.21A82.67,82.67,0,0,0,23.27,1.5C15.79,1.39,4.94,6.89,1.78,8.59a.53.53,0,0,0,0,.94,37.33,37.33,0,0,0,11.39,2.74c.63-.68,2.56-3.07,1.17-5.59,0,0,7.9-5.85,33.29.61,0,0,1,.29.79.93a2.94,2.94,0,0,1,.41.1c3.76,3.76,7.26,3.73,7.26,3.73.06-1.45-3-4.93-3-4.93,1-.19,3.41-3.79,3.41-3.79"/><path class="cls-1" d="M9.55,7.53A1.09,1.09,0,1,1,8.46,6.44,1.09,1.09,0,0,1,9.55,7.53"/><path d="M9,7.53a.5.5,0,0,1-.5.51A.51.51,0,0,1,8,7.53.5.5,0,0,1,8.46,7a.5.5,0,0,1,.5.5"/><path class="cls-3" d="M19.34,7.39a10,10,0,0,0-4.72-.74,8.09,8.09,0,0,0,3.57,1.74s.66-.05,0-.43c0,0-.47-.35.18-.32s1.53,0,1-.25"/></g></g></svg>