<svg xmlns="http://www.w3.org/2000/svg" viewBox="0 0 44.41 48.9"><defs><style>.cls-1{fill:#444;}.cls-2{fill:#b51500;}.cls-3{fill:#c62600;}.cls-4{fill:#2b3f0c;}.cls-5{fill:#dd2400;}</style></defs><title>Paprika</title><g id="Layer_2" data-name="Layer 2"><g id="레이어_1" data-name="레이어 1"><path class="cls-1" d="M18.58,48.9c-6.41,0-10-3.58-11-10.94C1.94,33.5-2.2,20.2,1.27,12.19a5.68,5.68,0,0,1,4-3.64c1.84-3,4.58-6.36,7.73-6.36a12.79,12.79,0,0,1,3.1.36,4.73,4.73,0,0,1,.59-1.11A3.14,3.14,0,0,1,19.23,0,2.78,2.78,0,0,1,20,.11l.59.14a5.21,5.21,0,0,1,3.37,2,9.15,9.15,0,0,1,1.45-.12,8.33,8.33,0,0,1,1.42.12c2.33.41,4.55,1.88,6.64,4.36A5.07,5.07,0,0,1,36,6.83c7.16,2.61,10.08,9.23,7.46,16.86-1.34,3.87-8.33,23.19-15,23.19h0a5.74,5.74,0,0,1-2.24-.45c-1.52,1.53-3.74,2.32-6.86,2.45C19.08,48.9,18.83,48.9,18.58,48.9Z"/><path class="cls-2" d="M16.16,8.72s5-6,10.39-5,8.94,8.86,8.94,8.86L31.64,24l-8.52,2Z"/><path class="cls-3" d="M5.15,12S8.93,3.69,13,3.69s7.2,1.79,8.87,6.22S20.53,26,20.53,26,5.87,18.06,5.77,17.58,5.15,12,5.15,12Z"/><path class="cls-2" d="M16.89,16.38S6.18,4.65,2.65,12.79s1.82,23.46,8,25.14,8.65-13.41,8.65-13.41Z"/><path class="cls-4" d="M18.19,16.2s-1.32-.86-.85-1.79,1,.35,2.18-.66.31-7.84-1.4-8.42S17.8,1,19.56,1.55s3.78.27,4.29,5.26.19,6.94,1.36,6.9A2.78,2.78,0,0,1,27.51,16c-.12.67-.08,2.65-3.12,2.23A22.72,22.72,0,0,1,18.19,16.2Z"/><path class="cls-3" d="M24.27,21.17S29.25,6,35.49,8.24s8.94,8,6.55,15S33.31,45.42,28.42,45.38,23,38.06,23,38.06Z"/><path class="cls-5" d="M8.89,28.83S8.57,15.9,17.2,15.54s12.16,6.59,11,16.4S27.8,47,19.28,47.39,8.05,41.64,8.89,28.83Z"/></g></g></svg>