<svg xmlns="http://www.w3.org/2000/svg" viewBox="0 0 44.38 44.54"><defs><style>.cls-1{fill:#444;}.cls-2{fill:#719b1f;}.cls-3{fill:#94d31a;}.cls-4{fill:#8ec641;}.cls-5{fill:#638d1d;}</style></defs><title>Pea</title><g id="Layer_2" data-name="Layer 2"><g id="레이어_1" data-name="레이어 1"><path class="cls-1" d="M40.53,44.54c-17.78,0-26.87-10.3-27.25-10.73S5.87,25.17,2.85,17.05a39.16,39.16,0,0,1-1.34-4.29l-.11.07L.69,11.15C.62,11-.84,7.5.71,4.53A10.29,10.29,0,0,1,.25,2.27,2,2,0,0,1,.52.78,1.82,1.82,0,0,1,2.07,0h.11A1.91,1.91,0,0,1,3.81.69a2.18,2.18,0,0,1,.21,2,1,1,0,0,0,.05.22c1.31.31,3.14,1.5,5.35,4.91l1.52,2.34h-.11c4,4.42,8.47,10.23,9.66,12.61,1,2,6.16,4.83,10.72,7.34,2.66,1.47,5.42,3,7.65,4.46,7.36,4.88,5.33,8.79,5.07,9.22l-.41.7-.8,0c-.75,0-1.47,0-2.19,0Z"/><path class="cls-2" d="M39.13,37.82l-5-3.54-2.85-1.77L28.2,31.07l-3.1-2.14-1.9-1.16L21.63,27l-2.32-2.17-3-4.5-4.8-6.35L7,9.18,4.57,7.06l-.81.35L3.05,9.79l1.22,5,2.39,5.5L9.43,25l4,5.64s5.73,4.46,5.95,4.53,7.39,4.56,7.39,4.56l6.61,2.22,5.39.79,2.22.07.92-1Z"/><circle class="cls-3" cx="6.27" cy="11.48" r="2.51"/><circle class="cls-3" cx="9.01" cy="17.12" r="3.17"/><circle class="cls-3" cx="12.8" cy="22.78" r="3.15"/><circle class="cls-3" cx="16.83" cy="27.77" r="2.82"/><circle class="cls-3" cx="21.86" cy="31.8" r="3.32"/><circle class="cls-3" cx="28.2" cy="35.12" r="3.43"/><circle class="cls-3" cx="34.88" cy="38.55" r="2.96"/><circle class="cls-3" cx="39.21" cy="41.04" r="1.66"/><path class="cls-4" d="M38,35.79C31.66,31.56,21,27.08,19.15,23.42S6.58,6.68,3.61,5.54H2.67s-1.38,3,1.58,11,10.16,16.3,10.16,16.3S24,43.88,42.65,43C42.65,43,44.41,40,38,35.79Zm1.86,6.67A49.19,49.19,0,0,1,13.75,28a45.34,45.34,0,0,1-10-19.8V7.41s6.68,6.53,9.33,11.41S22,31,26,31.8a22,22,0,0,1,7.58,3.36c3.74,2.61,7.58,6.45,7.53,7S39.9,42.46,39.9,42.46Z"/><path class="cls-5" d="M1.75,2.07s-.22-.57.32-.57.72,0,.5.76a3.59,3.59,0,0,0,.48,2.05s1.89-.66,5.11,4.3c0,0-2.25,0-3.23-1.08a4.88,4.88,0,0,1,.26,3S3.14,9.52,3,7.72c0,0-.15,2.31-.94,2.84,0,0-1.46-3.41.28-5.84A10.8,10.8,0,0,1,1.75,2.07Z"/></g></g></svg>