<svg xmlns="http://www.w3.org/2000/svg" viewBox="0 0 45.05 47.81"><defs><style>.cls-1{fill:#444;}.cls-2{fill:#95c763;}.cls-3{fill:#6da139;}.cls-4{fill:#327413;}.cls-5{fill:#e39594;}.cls-6{fill:#cc7a7a;}</style></defs><title>Peach</title><g id="Layer_2" data-name="Layer 2"><g id="레이어_1" data-name="레이어 1"><path class="cls-1" d="M.2,44.1c0-.43-.12-4.38,7-9.79.09-.06.78-.52,1.79-1.07-1-.33-1.54-.6-1.59-.62l-.27-.13a9.24,9.24,0,0,0-2.94,1.38L0,36.61,2,32a7.9,7.9,0,0,1,1.57-2.35c-4-5.13-1-13,1.35-17.59A18.35,18.35,0,0,1,7.81,8c3.46-3.68,3.64-5.69,3.61-6.21a1.7,1.7,0,0,1,3-1.19,13.37,13.37,0,0,0,1.45,1.5,9.77,9.77,0,0,0,5.65,1.81c4.61.34,13.42,3.4,14,12.51a16.33,16.33,0,0,1-2.26,8.31c8.45.92,10.33,5.68,10.41,5.9l1.38,3.7-3.49-1.85a9.38,9.38,0,0,0-4-1h-.12a4.45,4.45,0,0,0-1.06.13c-.94.22-3,.69-5.1,1.15a7.81,7.81,0,0,1,.8,3.84l-.42,4.07-2.31-3.38C28.53,36.1,26.63,35,24,34.13a6.62,6.62,0,0,1-3,2.63l-4.81,2.18a27,27,0,0,1-5.36,1.53s-5,.9-8,4.47L.48,47.81Z"/><path class="cls-2" d="M20.17,32.34c1.66,2.34-1.4,1.63-1.4,1.63-2.66-.52-7.66,1.63-7.66,1.63.55-1.15,5.22-2.67,5.22-2.67l1.18-1Z"/><path class="cls-2" d="M21.75,32s6.66,1.29,8.81,4.44a7.07,7.07,0,0,0-2.73-5.69Z"/><path class="cls-3" d="M23.38,30.45a4.82,4.82,0,0,1-3,4.94l-4.82,2.19a25.69,25.69,0,0,1-5,1.41s-5.52.92-8.89,5c0,0-.26-3.41,6.41-8.48,0,0,4.7-3.19,7.92-2.86,0,0,5.57-.24,6.86-2.43Z"/><path class="cls-4" d="M8.57,31.08s-1.51-.89-5.21,1.54c0,0,1.27-3,3-2.59Z"/><path class="cls-5" d="M23.73,30.82C34.46,26.52,34,16.54,34,16.52h0C33.36,6.3,21.43,5.41,21.43,5.41a11.2,11.2,0,0,1-6.52-2.15,14.45,14.45,0,0,1-1.64-1.69.2.2,0,0,0-.35.14C13,2.82,12.51,5.2,8.91,9a16.14,16.14,0,0,0-2.67,3.74C3.85,17.43-.14,27.6,8,31.26c0,0,8.08,3.78,14.67,0Z"/><path class="cls-3" d="M22.89,30.74s0,2.12,3.41,1.49c2.78-.52,8-1.72,9.71-2.12a6.27,6.27,0,0,1,1.56-.17,10.79,10.79,0,0,1,4.69,1.22s-1.88-5.08-11.92-5.08c0,0-1,1.85-4.91,3Z"/><path class="cls-2" d="M22.56,30.91S26,27.72,24.64,20a12.7,12.7,0,0,1,2.5,6.83s.46,2.57-4,4.48c0,0-.48.2-.54-.42"/><path class="cls-6" d="M22.13,31.56c3.92-8.81.43-10.84.43-10.84,3.25,3.1-2,11.5-2,11.5Z"/></g></g></svg>