<svg xmlns="http://www.w3.org/2000/svg" viewBox="0 0 67.95 44.62"><defs><style>.cls-1{fill:#444;}.cls-2{fill:#fce4b4;}.cls-3{fill:#fde6b4;}.cls-4{fill:#6a3a29;}.cls-5{fill:#e4572c;}</style></defs><title>Peanut</title><g id="레이어_2" data-name="레이어 2"><g id="레이어_1-2" data-name="레이어 1"><path class="cls-1" d="M15.73,44.62c-9.1,0-13.06-8-13.87-9.9A5.94,5.94,0,0,1,0,30.41a3.58,3.58,0,0,1,1-2.68,3.64,3.64,0,0,1,2.56-1,1.58,1.58,0,0,1,.28,0h.37c1,0,1.11-.45,1.11-.45l0-.16,0-.15c1.25-3.87,4.56-6.16,7.11-7.4A19.77,19.77,0,0,1,5.69,12C5.49,11.62,4,8.41,5.16,6.1a3.86,3.86,0,0,1,3.09-2,40.72,40.72,0,0,0,7-1.68A26.05,26.05,0,0,1,26.29,0,23.6,23.6,0,0,1,39.67,4.1a18.43,18.43,0,0,0,8.42,3.05c5.17.26,13,5.18,13.29,5.39s7.31,4.8,6.29,15.73a3.4,3.4,0,0,1-.1,2.9,2,2,0,0,1-1.72.88h-.13a6.17,6.17,0,0,1-4,2.32,3.93,3.93,0,0,1-.79,2.15C59.2,38.84,55.3,39,54.14,39H54c-.15,0-15.42-.59-18.31-.59a5.13,5.13,0,0,0-2.38.38l0,0-.16.14c-.21.18-5.37,4.57-15.93,5.57-.5,0-1,.07-1.49.07"/><path class="cls-2" d="M66.14,28.47c1.13-10.39-5.56-14.66-5.56-14.66S52.85,8.89,48,8.65a20,20,0,0,1-9.18-3.3c-11.36-7.65-23-1.53-23-1.53A41.94,41.94,0,0,1,8.46,5.59C4.43,6.16,7,11.31,7,11.31s4.83,8.86,18.61,9.75,16.15,3.38,16.15,3.38,18.25,13.78,23,6.37c0,0-.08-.25,1.08-.25s.29-2.09.29-2.09"/><path class="cls-3" d="M60,33c-7.14-.15-18.27-8.56-18.27-8.56s-2.38-2.5-16.15-3.38a27.83,27.83,0,0,1-9.56-2.25s-7.42,1.85-9.3,7.65c0,0-.21,2-3.11,1.77A1.93,1.93,0,0,0,1.5,30.38a4.38,4.38,0,0,0,1.61,3.43s3.76,10.21,14,9.24,15.09-5.21,15.09-5.21.59-.91,3.54-.91,18.37.59,18.37.59,7.35.13,6-4.52"/><path class="cls-4" d="M52.43,30.85a53,53,0,0,1-10.92-.2c-5.26-.76-7.68.86-7.68.86-7.3,5-19.49,1.93-19.49,1.93a85.84,85.84,0,0,0-9.13-1.77c-2-.06-1.83-1-1.83-1s.16-1.07,1.88-1.18a3.37,3.37,0,0,0,2.52-2c2.77-6.45,10.08-7.51,11-7.62a.21.21,0,0,1,.12,0,29.22,29.22,0,0,0,6.74,1.2c13.77.89,16.15,3.38,16.15,3.38a65.79,65.79,0,0,0,10.49,6.33Z"/><path class="cls-5" d="M7.5,32a1.29,1.29,0,0,1,0-1.54A5.25,5.25,0,0,0,8.22,28s2-6.44,10.63-7.57a35.58,35.58,0,0,0,9,1.34s2.47,0,4.6,3.47c0,0,1.62-.08,1.9.56,0,0-1.71,7.34-8.73,8.4,0,0-6.94.57-11.33-.77,0,0-5.06-1.2-6.84-1.47"/><path class="cls-5" d="M38,30.47s-3.91-1.46-3.91-2.6.72-1.17.72-1.17,1.39-.2,1.48-.57,1.3-.68,1.3-.68a9.76,9.76,0,0,1,6,1.49c2.5,1.85,3.47,1.81,3.47,1.81A1.24,1.24,0,0,1,48.25,30c0,1.08-.6,1.08-.6,1.08a42.66,42.66,0,0,1-6.14-.39A19.08,19.08,0,0,0,38,30.47"/></g></g></svg>