<svg xmlns="http://www.w3.org/2000/svg" viewBox="0 0 48.26 54.4"><defs><style>.cls-1{fill:#444;}.cls-2{fill:#2e8c47;}.cls-3{fill:#95c763;}.cls-4{fill:#fcaa3d;}.cls-5{fill:#f6ead6;}.cls-6{fill:#edcc9f;}.cls-7{fill:#180e04;}.cls-8{fill:#6a4a24;}</style></defs><title>Pear</title><g id="Layer_2" data-name="Layer 2"><g id="레이어_1" data-name="레이어 1"><path class="cls-1" d="M19.26,54.4a16.44,16.44,0,0,1-4.1-.5,4.33,4.33,0,0,1-.88-.26A6.07,6.07,0,0,1,11,50.54,3.36,3.36,0,0,1,10,50a5.38,5.38,0,0,1-.95.09,4.43,4.43,0,0,1-2.34-.66C2.7,49.05,1,44.55.61,41.77c-3.26-12.36,7.61-20.36,8.08-20.7h0S10.86,19.23,13.2,13A7.58,7.58,0,0,1,15.71,9.3a8.51,8.51,0,0,1,6-2.4c.75-2.75,1.85-4.7,3.26-5.8A5,5,0,0,1,29,.09a2.25,2.25,0,0,1-.4,4.46,2.43,2.43,0,0,1-.38,0l-.16,0a.52.52,0,0,0-.35.15,5.65,5.65,0,0,0-1.52,2.84l1.23.39c2.27.52,6.23,3.29,5.76,10.36C33,20.3,32.72,26.06,34.29,29l0,.06,0,.07a20.26,20.26,0,0,1,1.21,4.65,19.15,19.15,0,0,1,4.88,3.18l.06.06,0,.06c.71.77,6.93,7.71,7.63,12.43l-1.26.19,1.26-.19a5.35,5.35,0,0,1,0,1.53l-.11.82-.75.34A26.75,26.75,0,0,1,37.3,54.3h0a15.32,15.32,0,0,1-9.14-2.71,22.74,22.74,0,0,1-2.65,1.65l-.06,0-.06,0A16.92,16.92,0,0,1,19.26,54.4Z"/><path class="cls-2" d="M46.73,50.8s-12,5.48-19.22-1.72c0,0-7.91-8.52-5.2-12.64,0,0,8-6.45,17.14,1.61,0,0,7.84,8.59,7.28,12.75"/><path class="cls-3" d="M46.7,49.69S31.55,46,26.54,38.35"/><path class="cls-4" d="M16.63,10.49s2.86-3.83,10.42-1.16c0,0,5.18,1,4.66,8.81,0,0-.89,7.58,1.26,11.53,0,0,6.18,14.55-8.17,22.25a15.81,15.81,0,0,1-9.35.51s-2.07-.21-3.39-3.26a1.64,1.64,0,0,1-1.59-.92A3.08,3.08,0,0,1,7.22,48Z"/><path class="cls-5" d="M22.53,11.92s-5.34-5.41-7.93,1.56-5,8.81-5,8.81S-1,29.92,2.08,41.48c0,0,1.41,10.51,9.34,4.74,0,0,.37,8.29,7.33,5.85,0,0,14.67-3.56,9.56-24.08,0,0-.89-4.22.22-11.62,0,0,1.26-4.67-5-4.3,0,0-.89,2.22-1-.15"/><path class="cls-6" d="M24.75,12.07c-6.14,10.59-4.67,16.46-4.67,16.46,3.48,9.57-.37,12.72-.37,12.72-6.22,6.08-8.15,4-8.15,4-2.51-1-3.33-7.85-3.33-7.85-.67-6.89,5.7-9.48,5.7-9.48,7-5,8.09-16.45,8.09-16.45l.51.45s0,2.41,1,.15Z"/><path class="cls-7" d="M14.79,34.11s-3.37,1-2.11,2.85,2.11-2.85,2.11-2.85"/><path class="cls-7" d="M16.65,34.54s2.11,2.8,0,3.55,0-3.55,0-3.55"/><path class="cls-8" d="M23,13.23H23a.75.75,0,0,1-.7-.79c0-.32.55-7.76,3.62-10.16a3.5,3.5,0,0,1,2.88-.72.76.76,0,0,1,.61.87A.77.77,0,0,1,28.5,3a2,2,0,0,0-1.69.42c-2.11,1.65-2.91,7.11-3,9.07a.75.75,0,0,1-.75.7"/></g></g></svg>