<svg xmlns="http://www.w3.org/2000/svg" viewBox="0 0 28.67 45.01"><defs><style>.cls-1{fill:#444;}.cls-2{fill:#dfebeb;}.cls-3{fill:gray;}.cls-4{fill:#666;}.cls-5{fill:#ccc;}.cls-6{fill:#c8c0be;}.cls-7{fill:#fbffff;}.cls-8{fill:#c8c8c8;}</style></defs><title>Pepper</title><g id="Layer_2" data-name="Layer 2"><g id="레이어_1" data-name="레이어 1"><path class="cls-1" d="M14.23,45a26.51,26.51,0,0,1-7.9-1.09C1.16,42.17.54,38.59.51,38.44c-1.55-16,.73-24.06,2.63-27.85a3.83,3.83,0,0,1-.38-.44l-.28-.39V4.6A2.65,2.65,0,0,1,3,2.65C4.33.87,7.79,0,13.59,0S23,.83,24.31,2.55a2.48,2.48,0,0,1,.54,1.77V9.43a2.47,2.47,0,0,1-.38,1c5.67,7.92,4,27.43,3.91,28.3l0,.35-.19.31C25.1,44.28,18.12,45,14.23,45Z"/><path class="cls-2" d="M6.37,8.57S-.37,13.76,2,38.2c0,0,.44,2.82,4.81,4.3s16.3,2.15,20.07-3.93c0,0,2.52-27.92-7.48-30Z"/><path class="cls-3" d="M4,20S2.44,32.8,4.29,36.94,15,40.35,15,40.35s9.45-.44,9.78-4.63.12-14.19-.67-15.7l-12.33-1.3Z"/><path class="cls-4" d="M4,20s1.78-4.22,9.45-4.15S23.85,18.13,24.14,20s-2.74,5.15-10.22,4.59S4,22,4,20Z"/><path class="cls-5" d="M4,4.46V9.28s2.37,3.41,10.72,3,8.66-3,8.66-3v-5l-3.06-.35L5.38,4Z"/><path class="cls-6" d="M4,4.46s-.93-3,9.61-3,9.76,2.72,9.76,2.72S23.37,6.89,14,7,4,4.46,4,4.46Z"/><path class="cls-7" d="M4.94,4.55s-.66-2,8.72-2,8.67,2.08,8.67,2.08.7,1.87-8.56,1.87S4.94,4.55,4.94,4.55Z"/><ellipse class="cls-8" cx="8.55" cy="4.22" rx="1.11" ry="0.35"/><ellipse class="cls-8" cx="13.42" cy="3.52" rx="1.13" ry="0.35"/><ellipse class="cls-8" cx="18.24" cy="3.87" rx="1.02" ry="0.35"/><ellipse class="cls-8" cx="15.77" cy="4.89" rx="1.07" ry="0.32"/><ellipse class="cls-8" cx="13.87" cy="5.87" rx="0.95" ry="0.33"/><ellipse class="cls-8" cx="11.51" cy="4.55" rx="1" ry="0.33"/><ellipse class="cls-8" cx="9.4" cy="5.43" rx="1.11" ry="0.33"/><ellipse class="cls-8" cx="18.5" cy="5.54" rx="1.09" ry="0.33"/></g></g></svg>