<svg xmlns="http://www.w3.org/2000/svg" viewBox="0 0 47.15 52"><defs><style>.cls-1{fill:#444;}.cls-2{fill:#fcdeca;}.cls-3{fill:#e87272;}</style></defs><title>Pig_spine</title><g id="Layer_2" data-name="Layer 2"><g id="레이어_1" data-name="레이어 1"><path class="cls-1" d="M26.75,52a2,2,0,0,1-1.54-.66,2.64,2.64,0,0,1-.56-2.13.41.41,0,0,1,0-.11l-.3,0h0a3.33,3.33,0,0,1-1.59-.51,2.68,2.68,0,0,0-1.22-.41l-.34,0a2.91,2.91,0,0,1-.64.07h0a2.57,2.57,0,0,1-2.42-2c0-.11-.09-.26-.13-.36a2.57,2.57,0,0,0-.64.1,4,4,0,0,1-1.07.15h0c-2.07,0-3.17-1.65-4.06-3s-1.45-2-2.3-2l-.32,0-.32,0L9,41.13a2,2,0,0,1-1.3-2.41c-.32-.16-.76-.36-1.12-.52-1.78-.79-4-1.78-4.71-3.75v0h-.1a1.69,1.69,0,0,1-1.34-.62C-.16,33.1,0,32.19.2,31a13.89,13.89,0,0,1,2.14-4.75A9.79,9.79,0,0,0,3.89,23,8.44,8.44,0,0,1,5,20a15.14,15.14,0,0,0,1.4-3.43l.06-.2.11-.18c1.6-2.48,3.39-5.66,3.5-6.44.18-1.52,1.38-2.35,2.44-3.07a7.45,7.45,0,0,0,1.92-1.7,7.23,7.23,0,0,1,3.07-2.4c.75-.37,1.18-.6,1.38-1a2.37,2.37,0,0,1,2-1.55,2.52,2.52,0,0,1,1.58.69,3.91,3.91,0,0,0,1.41.8,6.68,6.68,0,0,1,2.39,1.32c.8.63,1.56,1.23,4.2,1.61a10.54,10.54,0,0,1,4.67,1.51,6.28,6.28,0,0,0,2.75,1,11.41,11.41,0,0,1,3.7,1.19,3,3,0,0,0,1.72.45,9.33,9.33,0,0,0,1.19-.08l.45,0a2.07,2.07,0,0,1,2,1c.77,1.39-.24,3-2.25,6.18s-4.5,7.15-5.85,11.67a4.06,4.06,0,0,0,.41.13,2.38,2.38,0,0,1,1.5,1.18c.53,1,.17,2.1-.2,3.26a10.22,10.22,0,0,0-.68,3.84c.07.58-.08,1.67-1.67,2.51l-.11,0c-.8.43-1.21.64-1.94,3a12.32,12.32,0,0,1-3.32,4.65,17.45,17.45,0,0,0-3.63,4.8l-.18.38-.34.24A3.63,3.63,0,0,1,26.75,52Z"/><path class="cls-2" d="M38.77,28.89c-1.89-.57-1.64-1.2-1.64-1.2,2.65-10,11.43-18.19,7.53-17.75a5.05,5.05,0,0,1-.52.05c-2.2-.11-2.33-.33-2.33-.33l-.19.09a12.48,12.48,0,0,0-4-1.38,9.39,9.39,0,0,1-2.53-.73l0-.14a8.76,8.76,0,0,0-1.74-.83,6.78,6.78,0,0,0-1.16-.39h0a15.36,15.36,0,0,0-2.54-.52l-.12,0c-3.88-.7-3.9-2-5.76-2.74l-.07-.19a13.85,13.85,0,0,1-2-.82c-.73-.57-.95-.91-1.53.21-.88,1.7-3.15,1.51-4.54,3.54s-3.92,2.52-4.11,4.1A12.25,12.25,0,0,1,10.16,13c-.37.68-1.46,2.27-1.46,2.27l-.07.35c-.47.77-.81,1.29-.81,1.29-1.32,4.36-1.89,3.42-2.46,6.32a7.65,7.65,0,0,1-.81,2.17l-.8,1.12A24.66,24.66,0,0,0,2.47,29l-.05.1c-.13.27-.21.46-.21.46v0a8.38,8.38,0,0,0-.54,1.67c-.65,3.27.72.2,1.61,2.66s6.31,3.23,6,4.43.12,1.32.12,1.32c4.11-.63,4.11,5.81,7.58,4.86s1.83,2.66,3.92,2.22,3.09,1.38,3.85.69,1.58-.13,1.39,1.89,1.64.76,1.64.76c2-4.29,5.94-6.25,6.89-9.28s1.7-3.35,2.78-3.92.88-1.07.88-1.07C38.08,32,40.67,29.46,38.77,28.89Z"/><path class="cls-3" d="M29.64,5.81s0,.85-2.11,1.17.61,2.52-4,3-2,2.65-4.76,2.14,3.29-3.53,2.78-5.74,1.85-3.49,1.85-3.49.17-.16.74,0,1.74,1.88,4.3,2.41C28.48,5.33,29.74,5.52,29.64,5.81Z"/><path class="cls-3" d="M41.86,9.84a6.92,6.92,0,0,1-3.21,4.27c-2.53,1.27-2.34,4.74-4.87,9.73s-7.2,7-5.68,2.78S26,24,27.66,22.45s2.84-7.39,4.42-8.84,2.9-6,2.9-6,.13-.25.79,0a14.86,14.86,0,0,0,2.78.69C39.21,8.33,42,9.34,41.86,9.84Z"/><path class="cls-3" d="M29.64,37.92c-1.86-1.57-1.54-4.8-4.09-6.31S23.11,26.3,19.38,25s-1.77-5.43-5.11-6a9.49,9.49,0,0,1-5.48-3.63s-.1-.24-.24,0-.92,1.45-.92,1.45a16.19,16.19,0,0,1-2.06,4.76,13.6,13.6,0,0,0-.5,2.16,12.83,12.83,0,0,1-1.31,2.7s-.07.17.13.11c0,0,4.19-1.49,12.33,4.76s8.91,11.12,9.92,9.54,2.65-.12,3.5-1.14A1.31,1.31,0,0,0,29.64,37.92Z"/><path class="cls-3" d="M44.66,9.94s-9.17,15.16-10.5,20.4c-1.18,4.68-4.7,13-7.58,16-.29.25-.62.51-1,.81a.08.08,0,0,0,0,.14c.23.1.59.48.46,1.94a4.14,4.14,0,0,0,0,.84c.35,1.25,1.86.13,1.86.13,1.73-2.65,2.65-4,3.14-4.62L31.6,45h0v0h0c.91-1,.93-5.81,2.62-7.82s2.91-9.48,2.91-9.48C39.78,17.65,48.56,9.5,44.66,9.94Z"/></g></g></svg>