<svg xmlns="http://www.w3.org/2000/svg" viewBox="0 0 49.57 42.05"><defs><style>.cls-1{fill:#444;}.cls-2{fill:#f1e6ab;}</style></defs><title>Pine nuts</title><g id="레이어_2" data-name="레이어 2"><g id="레이어_1-2" data-name="레이어 1"><path class="cls-1" d="M29,42.05h-.44l-.11,0a5.47,5.47,0,0,1-1.86-.93,18,18,0,0,1-4.27.53,6.84,6.84,0,0,1-1,.07A5,5,0,0,1,16,37.08a6.84,6.84,0,0,1-.05-1,5.2,5.2,0,0,1-2.26.55,5,5,0,0,1-3.65-1.7A5.27,5.27,0,0,1,8.43,31a4.34,4.34,0,0,1,.22-1.18c-.26,0-.52,0-.79,0A11.15,11.15,0,0,1,.68,27.21L0,26.65l.16-.87c.09-.46,1-4.39,7.71-7.33a5,5,0,0,1-.16-2.62A6.32,6.32,0,0,1,10,12.31,11.8,11.8,0,0,1,9.13,1.08l0-.1L9.24.89A2.16,2.16,0,0,1,11,0a4.93,4.93,0,0,1,2.83,1.31,23.54,23.54,0,0,1,5.54,6,20.53,20.53,0,0,1,6-.74h.48a13.08,13.08,0,0,1,1.9-.15,4.94,4.94,0,0,1,3.7,1.22,3,3,0,0,1,.81,2.3c-.19,3.7-5.1,5.2-5.66,5.36l-.09,0h-.09a14.26,14.26,0,0,1-2.11.17l-.76,0a3.92,3.92,0,0,1,.72,1.23,2.66,2.66,0,0,1,.11.47l.59,0h0a24.49,24.49,0,0,1,4.72.36,11.75,11.75,0,0,1,5.88-8.13l.1,0,.1,0a2.06,2.06,0,0,1,.65-.11c1.9,0,2.58,2.37,2.76,3.19a23.44,23.44,0,0,1,.84,8.12,21.86,21.86,0,0,1,5.65,3.32c.81.42,3.34,1.88,3.78,3.93a3,3,0,0,1-.68,2.61,4.83,4.83,0,0,1-4,1.61h0a12,12,0,0,1-3.8-.72l-.08,0-.09-.05a12.54,12.54,0,0,1-2.37-1.61,4.07,4.07,0,0,1-.18,1.43,3.38,3.38,0,0,1-.18.44l.44.37c5.79,4.29,5,5.87,4.65,6.55a3.38,3.38,0,0,1-3.19,1.74,4.87,4.87,0,0,1-.53,0,46.87,46.87,0,0,1-6.61-1.27l-.22-.06c-.21.46-.38.8-.47,1A3.43,3.43,0,0,1,29,42.05"/><path class="cls-2" d="M25.4,25.43S24.29,19.37,32,20.58c0,0,8.3,10,3.54,11.14S25.4,25.43,25.4,25.43"/><path class="cls-2" d="M26.48,24.8s3.27,2.78,1.5,5.65-6.19,1.75-6.19,1.75a9.75,9.75,0,0,1-7.17-7.29s3.32-3.07,11.86-.11"/><path class="cls-2" d="M28.83,40.54s-5.73-1.37-1.45-10a3.68,3.68,0,0,1,4.84-1.13c3,1.62-1.36,9.77-1.36,9.77a2,2,0,0,1-2,1.37"/><path class="cls-2" d="M29.54,31.39s-1.69,4.73,3.73,6,6.42,1.24,6.42,1.24,1.65.25,2.23-.89S37.65,33,37.65,33s-5.37-5-8.11-1.65"/><path class="cls-2" d="M37.14,22.38s-1.36,4.42,4.47,7.54c0,0,4.3,1.66,6-.45s-2.76-4.31-2.76-4.31S38.45,20,37.14,22.38"/><path class="cls-2" d="M20.76,32.66a3.52,3.52,0,0,0-3.24,4.24c.47,4,4.7,3.2,4.7,3.2s4.79,0,5.28-1.29a24.86,24.86,0,0,0,.81-2.71s1.24-1.59-7.55-3.44"/><path class="cls-2" d="M36.28,10.79A10.42,10.42,0,0,0,31,20.8s.93,3.27,5.25,2.63,1.49-10.62,1.49-10.62-.48-2.34-1.49-2"/><path class="cls-2" d="M10.56,20S6,15.82,13,12.14c0,0,12.65,3,9.52,6.78S10.56,20,10.56,20"/><path class="cls-2" d="M11.05,18.84s4.28.27,4.59,3.62-3.89,5.12-3.89,5.12A9.79,9.79,0,0,1,1.63,26.06s.81-4.46,9.42-7.22"/><path class="cls-2" d="M22.39,30S17,32.36,15.21,22.89a3.67,3.67,0,0,1,3.2-3.81c3.35-.51,4.77,8.62,4.77,8.62A2,2,0,0,1,22.39,30"/><path class="cls-2" d="M17.45,22.27s1.49,4.8,6.6,2.56S29.92,22,29.92,22s1.47-.79,1.25-2-6.24-1.2-6.24-1.2-7.29-.76-7.48,3.55"/><path class="cls-2" d="M18.12,10.51s1.56,4.35,8.1,3.34c0,0,4.43-1.26,4.57-4S26,8.07,26,8.07s-8.28-.28-7.87,2.44"/><path class="cls-2" d="M11.19,28.56a3.52,3.52,0,0,0,0,5.34c2.79,2.93,5.69-.27,5.69-.27s3.82-2.88,3.44-4.2a24.93,24.93,0,0,0-1-2.65s.05-2-8.1,1.78"/><path class="cls-2" d="M10.47,1.76a10.39,10.39,0,0,0,1.82,11.15S15,15,18.06,11.86s-5.19-9.38-5.19-9.38S11.08.9,10.47,1.76"/></g></g></svg>