<svg xmlns="http://www.w3.org/2000/svg" viewBox="0 0 45.46 42.89"><defs><style>.cls-1{fill:#444;}.cls-2{fill:#dcca98;}.cls-3{fill:#eac75f;}.cls-4{fill:#7d9300;}</style></defs><title>Pistachio</title><g id="레이어_2" data-name="레이어 2"><g id="레이어_1-2" data-name="레이어 1"><path class="cls-1" d="M30.53,42.89a8.51,8.51,0,0,1-5.42-1.83,3.43,3.43,0,0,1-1-.87,3.75,3.75,0,0,1-1.1.16,4.5,4.5,0,0,1-3.36-1.72C17.29,37.22,15,34.3,16,28.27a29.51,29.51,0,0,1-3.39.2A30,30,0,0,1,7.24,28l-.24,0-.21-.11c-.18-.1-4.35-2.38-4.68-7.09a3.45,3.45,0,0,1,0-1.32A4.25,4.25,0,0,1,.18,15.07a7.61,7.61,0,0,1,1-5.77c3.56-5.71,14-8.1,15-8.33a22,22,0,0,1,6.22-1,13.73,13.73,0,0,1,6.19,1.31,8.39,8.39,0,0,1,1.13-.1,2.2,2.2,0,0,1,2.05,1A1.76,1.76,0,0,1,32,3.74a6.57,6.57,0,0,1-1.19,2.07,13.61,13.61,0,0,1-4.2,2.72l-.16.2a5.67,5.67,0,0,1,.71.53,11.38,11.38,0,0,1,1.81-.88c.65-1,1.42-1.79,2.43-1.79a1.76,1.76,0,0,1,1.61,1,6.51,6.51,0,0,1,.69,2.24,5.88,5.88,0,0,1-.18,2.39,2.66,2.66,0,0,1,1.26,2.48v.08h.07a4,4,0,0,1,1.56.31l.59-1,.2-.18A7,7,0,0,1,41,12.21a2.55,2.55,0,0,1,2,.84,2.45,2.45,0,0,1,.61,2.43c.91,1.32,2.55,4.24,1.69,7.07-.08,1.76-1,11.91-11.31,19.68l-.19.14-.22.08a9.64,9.64,0,0,1-3,.44"/><path class="cls-2" d="M30,12.6s3.48.44,3.23,2.07c0,0,.11.72-1.19,1.11,0,0-.57,4.56-3.53,5.84,0,0-8,7.22-21,4.89,0,0-3.7-2-3.9-6,0,0-.39-1.34.71-1.74"/><path class="cls-3" d="M4.31,18.76s22.52.7,26.65-4.6c0,0,.14-.83-1.82-.28,0,0-16.49,5-24.83,4.88"/><path class="cls-4" d="M5.89,13.23S3,16.94,6,19c0,0,11.3-.42,16.15-1.29l.84-.78,2.24-.2s4.23-3.83,1.17-6.09c0,0-2-2.22-6.1-1.62,0,0-13.43,6.58-14.4,4.23"/><path class="cls-2" d="M30.58,3.18s.42-.81-2.18-.3c0,0-4.07-2.78-11.76-.45C16.64,2.43-.57,6,1.71,15c0,0-.66,2.75,1.94,3.42s8.25-2.87,8.25-2.87S24.26,9.83,25.56,7.35c0,0,3.48-1.59,4.06-2.5a4.78,4.78,0,0,0,1-1.67"/><path class="cls-2" d="M38.14,15.07s2.68-2.26,3.71-1c0,0,.6.4,0,1.63,0,0,3,3.51,1.88,6.55,0,0-.11,10.74-10.72,18.74,0,0-4,1.37-7.06-1.22,0,0-1.25-.63-.79-1.7"/><path class="cls-3" d="M25.16,38.11S41,22.07,39.92,15.44c0,0-.52-.67-1.45,1.15,0,0-7.51,15.52-13.31,21.52"/><path class="cls-4" d="M22.19,33.18S23,37.79,26.46,37c0,0,7.38-8.57,10-12.72V23.16l1.37-1.78s.08-5.71-3.67-5c0,0-3-.08-5.33,3.37,0,0-4.31,14.31-6.69,13.43"/><path class="cls-2" d="M31.61,8.25s-.31-.86-1.7,1.4c0,0-4.81,1.09-8.33,8.3,0,0-9.06,15.08-.92,19.52,0,0,1.58,2.36,3.83.91s3.51-8,3.51-8,4.18-13,3.25-15.62c0,0,1.2-3.63.93-4.67a4.73,4.73,0,0,0-.57-1.84"/></g></g></svg>