<svg xmlns="http://www.w3.org/2000/svg" viewBox="0 0 57.23 48.94"><defs><style>.cls-1{fill:#444;}.cls-2{fill:#dd482e;}.cls-3{fill:#5d4b3f;}.cls-4{fill:#aa2615;}.cls-5{fill:#f45540;}.cls-6{fill:#fbdb69;}.cls-7{fill:#b85e2a;}</style></defs><title>Plum</title><g id="Layer_2" data-name="Layer 2"><g id="레이어_1" data-name="레이어 1"><path class="cls-1" d="M41,48.94a18.58,18.58,0,0,1-9.48-2.64,16.35,16.35,0,0,1-5.92-5.5,30.63,30.63,0,0,1-9.06,3.07l-.82.16a12,12,0,0,1-2.12.3h-.23c-1.25-.08-1.92-.8-2.84-1.79a45.72,45.72,0,0,0-4.74-4.43C-2.2,31.47.31,22.16.6,21.18,3.17,9.76,9.56,7.36,14.48,7.36a16.6,16.6,0,0,1,4.24.57C19.44,1,20.9.46,21.64.16A2,2,0,0,1,22.43,0a1.78,1.78,0,0,1,1.43.71c.79,1,.4,2.57-.55,6-.23.8-.47,1.63-.65,2.37,3.24.73,9.7,2.9,12.28,8.93a8.58,8.58,0,0,1,4.49-1.23,14.39,14.39,0,0,1,7.8,2.76c9.89,6.55,12.41,13.93,7.7,22.58-1.84,3.37-7.54,6.87-13.89,6.87Z"/><path class="cls-2" d="M20.66,10.2S6.17,3.1,2.05,21.56c0,0-2.89,9.09,4.74,15.39s4.49,6.39,9.51,5.45,16.79-4,18.14-17.29S20.66,10.2,20.66,10.2Z"/><path class="cls-3" d="M20.82,10.76C21,7.83,24,.82,22.2,1.55S20,11,20,11,20.73,12.13,20.82,10.76Z"/><path class="cls-4" d="M12.38,42.26C7.78,30.73,7.25,22.08,10.8,16.55a12.79,12.79,0,0,1,9.48-5.67.36.36,0,0,1,.4.36.38.38,0,0,1-.36.39A12.21,12.21,0,0,0,11.43,17C8,22.28,8.58,30.7,13.08,42l.42.85Z"/><path class="cls-5" d="M53.61,41.35C51.46,45.3,41.9,50.62,32.32,45S25.64,31.81,27.5,30.22A11.1,11.1,0,0,0,30,27.42s.84-.8,2.33-4.19,5.93-7.89,14.09-2.49S58.43,32.5,53.61,41.35Z"/><path class="cls-6" d="M28.11,30.74s-4.38,6.86,3,11.8,15.13,4,17.59,1.47,4-3,4.52-2.89a10.92,10.92,0,0,1,1.13-5c1.27-2.47-.64-9.46-5-12.85,0,0-9.39-8.27-15-1.56,0,0-2.12,2-1.13,3.89a2.18,2.18,0,0,1-2.33,3.11C29.6,28.33,28.11,30.74,28.11,30.74Z"/><path class="cls-7" d="M35.28,28.58s-1.34-.25-.46,1.17,1.7,2.75,3.08,5.33,6.78,5.79,8.82,2.61,1.38-6.39-2.61-8.61c0,0-8.84-4.14-8.65-1.06C35.46,28,36,28.79,35.28,28.58Z"/></g></g></svg>