<svg xmlns="http://www.w3.org/2000/svg" viewBox="0 0 56.69 21.73"><defs><style>.cls-1{fill:#444;}.cls-2{fill:#82766a;}.cls-3{fill:#fff;}.cls-4{fill:#a7998c;}.cls-5{fill:#141518;}</style></defs><title>Pollock</title><g id="레이어_2" data-name="레이어 2"><g id="레이어_1-2" data-name="레이어 1"><path class="cls-1" d="M16,21.65c-1.31-.06-2.35-1.07-3.1-3a44.16,44.16,0,0,1-4.34-1.18l-1-.34v0a51.35,51.35,0,0,1-6.3-2.66A2,2,0,0,1,0,13a2.18,2.18,0,0,1,.84-2.1l.11-.1.13-.07s.43-.26.74-.41a57.05,57.05,0,0,1,15.43-4.8h.1c1.74-2.35,4.16-5,6.48-5.38L24.58,0l.54.47c.17.15,1.7,1.59,1.47,4.9v.1a56.32,56.32,0,0,1,11.34,2l.34.09a17.66,17.66,0,0,0,3-1.83L42,5.22l.8.37a11.91,11.91,0,0,1,4,3.18,3.8,3.8,0,0,0,1.79-.86c.24-.18.52-.38.83-.57a18,18,0,0,1,4.38-2.45,2.07,2.07,0,0,1,.92-.23,1.63,1.63,0,0,1,1.43.82,2.24,2.24,0,0,1-.24,2.24,9.51,9.51,0,0,0-.91,4,11.1,11.1,0,0,0,1.21,3.69,2.49,2.49,0,0,1,.22,2.44,1.72,1.72,0,0,1-1.5.85,3,3,0,0,1-1.42-.44c-.24-.12-.52-.28-.85-.47-1.71-1-5.26-3-6.91-3h-.12a14.69,14.69,0,0,0-2.86.39l-.11,0c-1.47.3-3,.71-3.76.92l-.15.48-.81.21a3.89,3.89,0,0,0-1.64.86c-.3.39-.93,1.19-7,3.19a2.62,2.62,0,0,1-.83.13,2.8,2.8,0,0,1-1.59-.5,15.48,15.48,0,0,0-3-1.39c-1.65.17-3.21.26-4.61.27h-.14c-.49,0-1,0-1.52-.05,0,.47,0,.81,0,.84l0,1.59Z"/><path class="cls-2" d="M13.8,16.3s.74,3.78,2.3,3.86c0,0,0-3.19-.56-3.52Z"/><path class="cls-2" d="M17.84,7.45s3.55-5.37,6.29-5.85c0,0,1.15,1,1,3.67s.44,3.59.44,3.59l-6.7-.59Z"/><path class="cls-2" d="M36.8,9.42S38,9.93,42.13,7c0,0,3.67,1.72,4.22,4.21Z"/><path class="cls-2" d="M27.72,19.23a37.24,37.24,0,0,0-6.13-2.56L37,13.82s.78.93.6,1.52a5.34,5.34,0,0,0-2.45,1.39c-.59.75-4.68,2.15-6.32,2.69a1.25,1.25,0,0,1-1.1-.19"/><path class="cls-3" d="M42.49,13.69c-1.46-1.64-12.44-2.52-22.85-2.9S9.05,16,9.05,16a33.33,33.33,0,0,0,10.17,1.82c8.26-.06,18.72-3,18.72-3s2.23-.66,4.46-1.12Z"/><path class="cls-3" d="M42.49,13.69c-1.46-1.64-12.44-2.52-22.85-2.9S9.05,16,9.05,16a33.33,33.33,0,0,0,10.17,1.82c8.26-.06,18.72-3,18.72-3s2.23-.66,4.46-1.12Z"/><path class="cls-4" d="M54.89,16.07s-1.43-2.83-1.37-4.41A11.18,11.18,0,0,1,54.63,7c.7-1.19-.22-.69-.22-.69A16.06,16.06,0,0,0,50.27,8.6c-1.69.89-2.22,3.33-12.75.31A56.65,56.65,0,0,0,17.52,7a55.91,55.91,0,0,0-15,4.67c-.27.13-.64.35-.64.35-.86.77,0,1.06,0,1.06a49.86,49.86,0,0,0,7.17,3c0-.08.26-5.63,10.59-5.24S41,12.05,42.49,13.69h0a15.86,15.86,0,0,1,3.34-.42c2.33.08,6.77,2.78,8.41,3.66s.65-.86.65-.86"/><path class="cls-2" d="M16.35,14.86c.3,1.33,5.45-.48,5.34-.93s.85-1,.85-1c-2-1.34-7.37,0-7.37,0a6.24,6.24,0,0,1,1.18,2"/><path class="cls-3" d="M8.58,11.73a.95.95,0,1,1-.94-.94.94.94,0,0,1,.94.94"/><path class="cls-5" d="M8.07,11.73a.43.43,0,1,1-.43-.43.43.43,0,0,1,.43.43"/></g></g></svg>