<svg xmlns="http://www.w3.org/2000/svg" viewBox="0 0 54.09 45.11"><defs><style>.cls-1{fill:#444;}.cls-2{fill:#c23b4a;}.cls-3{fill:#a03545;}.cls-4{fill:#f5d7cd;}.cls-5{fill:#8c3445;}</style></defs><title>Pork ribs</title><g id="Layer_2" data-name="Layer 2"><g id="Layer_1-2" data-name="Layer 1"><path class="cls-1" d="M26.31,45.11c-1.19,0-2.12-.06-2.72-.12h-.14a2.26,2.26,0,0,1-.64-.1,21.71,21.71,0,0,1-8.16-2.48,9.57,9.57,0,0,1-1.26.09c-2.29,0-3.82-1.2-4.09-3.23a4,4,0,0,1,2.09-4.13c.08-.25.16-.49.25-.72a7.77,7.77,0,0,1-4.4-3.58c-2.95-.79-3.48-2.54-3.51-3.56s.3-2.62,2.66-3.66a12,12,0,0,1-2.62-2.38A4.17,4.17,0,0,1,.1,18a3.32,3.32,0,0,1,.42-2.65,4.49,4.49,0,0,1,2.62-1.74,17.16,17.16,0,0,1,3.35-3.8L7,9.43l.59.05s.63,0,1.66,0c4.62,0,16.06-.88,22.44-9l.41-.51L32.77,0h.1a4.41,4.41,0,0,1,2.6,1A5.55,5.55,0,0,1,37.8.4,4.21,4.21,0,0,1,41.65,3a4.15,4.15,0,0,1,.2,3.74,5.27,5.27,0,0,1-2.58,2.39c.12.73.21,1.51.29,2.33a8.54,8.54,0,0,1,.82.51,6.58,6.58,0,0,1,3.43-1.16,4.22,4.22,0,0,1,3.76,2.31,4.5,4.5,0,0,1,.11,4.7,6.7,6.7,0,0,1-2.6,2.46c.11.55.2,1.11.28,1.69a7.14,7.14,0,0,1,1.54.54,6.26,6.26,0,0,1,3.12-1,4,4,0,0,1,3.4,1.85,3.36,3.36,0,0,1,.6,2.72,4.94,4.94,0,0,1-2.55,3.05,10.55,10.55,0,0,1-.14,4.61c-.15.73-.83,2.47-3.87,3.9h0c-7.34,6.45-16.37,7.42-21.12,7.42Z"/><path class="cls-2" d="M38.13,12.49c-.76-11.37-5.3-11-5.3-11C24.3,12.3,7.44,11,7.44,11s5.68.37,4.73,9.85c0,0,18.7.19,25.58-8Z"/><path class="cls-2" d="M43.94,22.85c-.88-9.1-5.81-10.36-5.81-10.36s-5.18,8.09-26,8.34c0,0,6.76.12,6.64,10.23,0,0,15,1.66,25.13-7.72Z"/><path class="cls-2" d="M49.88,28.79C40.15,39.52,24.11,39.9,24.11,39.9a10.87,10.87,0,0,0-5.3-8.84s14.77,1.74,25.13-7.72c0,0,4-.33,5.94,5Z"/><path class="cls-3" d="M24.11,39.9s.83,3.83-.95,3.54c0,0,13.46,1.89,23.44-7l.22-.11c2.94-1.38,3.06-2.92,3.06-2.92.63-1.65,0-4.61,0-4.61S42.05,38.7,24.11,39.9Z"/><path class="cls-4" d="M37.57,8.17S42,7.09,40.31,3.68s-5-.86-5-.86A11.33,11.33,0,0,1,37.57,8.17Z"/><path class="cls-4" d="M40.33,13.89s3.87-3.53,6,0-2.86,5.78-3,5.39S42.32,15.6,40.33,13.89Z"/><path class="cls-4" d="M47,24.29s3.34-2.79,5.24,0c0,0,1.76,2.1-2.34,4A8.37,8.37,0,0,0,47,24.29Z"/><path class="cls-5" d="M12.23,21.08h-.06a.26.26,0,0,1-.25-.25.25.25,0,0,1,.25-.25h0c.51,0,19.63-.08,25.75-8.24a.25.25,0,0,1,.4.3C32.12,20.91,13.67,21.08,12.23,21.08Z"/><path class="cls-5" d="M20.2,31.33c-.87,0-1.38,0-1.41,0a.25.25,0,0,1-.23-.26.24.24,0,0,1,.26-.24c.18,0,17.68.83,24.93-7.63a.25.25,0,0,1,.36,0,.25.25,0,0,1,0,.35C37.94,30.72,24.56,31.33,20.2,31.33Z"/><path class="cls-4" d="M8.07,14.76S.74,14,1.56,17.67s7.08,1.64,7.08,1.64S11,17.1,8.07,14.76Z"/><path class="cls-4" d="M13.37,24.15s-8.27-.42-8.14,3.09,9.09,2.37,9.09,2.37S17.48,26,13.37,24.15Z"/><path class="cls-4" d="M18.49,35.23s-8.27-.32-7.71,3.85,8.34.32,8.34.32S22,36.68,18.49,35.23Z"/><path class="cls-4" d="M37.57,8.17S42,7.09,40.31,3.68s-5-.86-5-.86A11.33,11.33,0,0,1,37.57,8.17Z"/><path class="cls-4" d="M40.33,13.89s3.87-3.53,6,0-2.86,5.78-3,5.39S42.32,15.6,40.33,13.89Z"/><path class="cls-4" d="M47,24.29s3.34-2.79,5.24,0c0,0,1.76,2.1-2.34,4A8.37,8.37,0,0,0,47,24.29Z"/><path class="cls-3" d="M24,43.52c3.14.24,14.09.46,22.56-7.09l.22-.11c2.94-1.38,3.06-2.92,3.06-2.92.63-1.65,0-4.61,0-4.61S42.05,38.7,24.11,39.9c0,0,.56,3.68-.95,3.54"/><path class="cls-5" d="M44.11,23.15a.25.25,0,0,0-.36,0C36.5,31.64,19,30.82,18.82,30.81h0c0-1.14-.05-6-3.09-8.5a4.86,4.86,0,0,0-2.39-1.25c4.36-.12,19.49-1.09,25-8.42a.25.25,0,0,0-.4-.3c-6.09,8.11-25,8.24-25.73,8.24a17.72,17.72,0,0,0,.06-2.06v0a9.17,9.17,0,0,0-.85-4.38v.06a5,5,0,0,0-4-3.24s-5,4-3.73,7.26A10,10,0,0,0,8.32,23S5.1,32,13.88,33.46c0,0-6.25,7.83,9.28,10a2,2,0,0,0,.44,0c.44,0,1-.76.51-3.58,0,0,0-.16,0-.43h0a9.66,9.66,0,0,0-1.9-5.33v0a9.34,9.34,0,0,0-2.94-2.85h1c4.36,0,17.74-.61,23.93-7.83A.25.25,0,0,0,44.11,23.15Z"/><path class="cls-4" d="M8.07,14.76S.74,14,1.56,17.67s7.08,1.64,7.08,1.64S11,17.1,8.07,14.76Z"/><path class="cls-4" d="M13.37,24.15s-8.27-.42-8.14,3.09,9.09,2.37,9.09,2.37S17.48,26,13.37,24.15Z"/><path class="cls-4" d="M18.49,35.23s-8.27-.32-7.71,3.85,8.34.32,8.34.32S22,36.68,18.49,35.23Z"/></g></g></svg>