<svg xmlns="http://www.w3.org/2000/svg" viewBox="0 0 49.34 46.6"><defs><style>.cls-1{fill:#444;}.cls-2{fill:#e87272;}.cls-3{fill:#d8d8d8;}.cls-4{fill:#fb8988;}.cls-5{fill:#fafffc;}</style></defs><title>Pork_neck</title><g id="Layer_2" data-name="Layer 2"><g id="레이어_1" data-name="레이어 1"><path class="cls-1" d="M9.59,46.6a13.64,13.64,0,0,1-2.5-.21c-3-.77-3.71-1.33-5.6-3.65S.05,36.62.17,36a10.08,10.08,0,0,1,1.58-4.79,10.62,10.62,0,0,1-.07-4.07A10,10,0,0,1,3.3,22.28a11,11,0,0,1,0-3.55A10.18,10.18,0,0,1,5.1,13.62,27.19,27.19,0,0,1,18,3,36.67,36.67,0,0,1,32.26,0a32.55,32.55,0,0,1,8.39,1.08c2.79.45,8,2.87,8.51,9,0,0,0,.12,0,.27.54,4.47-.49,7.1-1.63,8.6.48,4.26-.49,6.82-1.57,8.3a3.66,3.66,0,0,1,0,.38c1,8-2.93,10.12-4.3,10.62-1.76,1.45-4.24,1.65-6.46,1.65h0c-1,0-2,0-3-.09s-2.13-.09-3.2-.09a18.65,18.65,0,0,0-8.45,2.53,1.24,1.24,0,0,1-.33.15,12.64,12.64,0,0,0-2.12,1.28A13,13,0,0,1,9.59,46.6Z"/><path class="cls-2" d="M8.27,23.31l2.28,4.33s5.73,1.17,9.85-2.45l.9-3.61Z"/><path class="cls-2" d="M19.41,21.12,23,23.66a20.15,20.15,0,0,1,9.23-2.74c4.79,0,9.57.88,11.89-1.32A5.5,5.5,0,0,0,46,14.9l-17,.33Z"/><path class="cls-3" d="M44.13,17.33V19.6s4.66-.94,3.54-9.41L46,11.63Z"/><path class="cls-3" d="M4.81,19s-.7,3.46,1,5.55S7.94,27,10.55,27.64l0-2.45L7.23,20.3,5.72,19Z"/><path class="cls-3" d="M20.19,22.86l.21,2.33A14.15,14.15,0,0,1,23,23.66l.06-2.54-2.88.17Z"/><path class="cls-4" d="M20.19,22.86a11.25,11.25,0,0,1-9.6,2.33L7.07,18.45l1.16-4.31L12,12.46,13.44,16s3.27,4.64,3.34,4.69Z"/><path class="cls-4" d="M23.07,21.12l-4.35-.47-3.91-3.74L13.08,12.6,14.55,8l9-4,8.22-1.42L39,3.39l5.14,2.49,1.61,2.51-.64,7.36-1,1.58s-2.3,2.16-8.55,1.15S23.07,21.12,23.07,21.12Z"/><path class="cls-5" d="M7.44,23.77s-5.12-3-1.08-9.34A25.7,25.7,0,0,1,18.55,4.32,34.16,34.16,0,0,1,40.34,2.55s6.82,1,7.33,7.64c0,0,.69,4.93-3.54,7.14,0,0-.5-.09-.25-2.08s1.23-2.43,1.14-3.76S44.57,8,43.18,7.32s-1-2.84-5.17-2.94-6.54-2.33-15.23,1.2-9.06,4.65-8.49,8.06,4.67,7.23,8.78,7.48l-2.88,1.74s-5.84-.07-7.1-4.2-1.67-4.58-2.43-4.3-2,.92-2.24,3.6,2.17,5,2.17,6.26v1A6.3,6.3,0,0,1,7.44,23.77Z"/><path class="cls-2" d="M6.62,31.72,8.9,36.06s5.73,1.17,9.85-2.45l.9-3.61Z"/><path class="cls-2" d="M17.76,29.54l3.6,2.54a20.1,20.1,0,0,1,9.23-2.75c4.79,0,9.57.89,11.89-1.31a5.5,5.5,0,0,0,1.86-4.7l-17,.33Z"/><path class="cls-3" d="M42.48,25.75V28s4.66-.95,3.54-9.41l-1.68,1.44Z"/><path class="cls-3" d="M3.16,27.39s-.7,3.46,1,5.54S6.29,35.4,8.9,36.06l0-2.45L5.58,28.72,4.07,27.39Z"/><path class="cls-3" d="M18.54,31.27l.21,2.34a13.59,13.59,0,0,1,2.61-1.53l.06-2.54-2.88.17Z"/><path class="cls-4" d="M18.54,31.27a11.23,11.23,0,0,1-9.6,2.34L5.42,26.87l1.16-4.31,3.74-1.68,1.47,3.55s3.27,4.64,3.34,4.69Z"/><path class="cls-4" d="M21.42,29.54l-4.35-.47-3.91-3.74L11.43,21l1.47-4.63,9-4L30.12,11l7.22.81,5.14,2.48,1.61,2.51-.64,7.37-1,1.58s-2.3,2.16-8.55,1.14S21.42,29.54,21.42,29.54Z"/><path class="cls-5" d="M5.79,32.19s-5.12-3-1.08-9.35A25.73,25.73,0,0,1,16.9,12.74,34.16,34.16,0,0,1,38.69,11s6.82,1,7.33,7.64c0,0,.69,4.93-3.54,7.14,0,0-.5-.1-.25-2.09s1.23-2.43,1.14-3.75-.45-3.48-1.84-4.17-1-2.84-5.17-2.94S29.82,10.46,21.13,14s-9.06,4.64-8.49,8.05,4.67,7.24,8.78,7.49l-2.88,1.73s-5.84-.06-7.1-4.2S9.77,22.5,9,22.78s-2,.92-2.24,3.6,2.17,5,2.17,6.25v1A6.41,6.41,0,0,1,5.79,32.19Z"/><path class="cls-2" d="M5.12,40.59l2.27,4.33s5.73,1.17,9.85-2.45l.9-3.61Z"/><path class="cls-2" d="M16.25,38.4l3.6,2.54a20.1,20.1,0,0,1,9.23-2.75c4.79,0,9.57.89,11.89-1.31a5.5,5.5,0,0,0,1.86-4.7l-17,.33Z"/><path class="cls-3" d="M41,34.61v2.27s4.66-.94,3.54-9.41l-1.68,1.44Z"/><path class="cls-3" d="M1.65,36.25s-.7,3.46,1,5.54,2.13,2.47,4.74,3.13l.05-2.45L4.07,37.58,2.56,36.25Z"/><path class="cls-3" d="M17,40.14l.2,2.33a14.15,14.15,0,0,1,2.61-1.53l.06-2.54L17,38.57Z"/><path class="cls-4" d="M17,40.14a11.25,11.25,0,0,1-9.6,2.33L3.91,35.73l1.16-4.31,3.74-1.68,1.47,3.55s3.27,4.64,3.34,4.69Z"/><path class="cls-4" d="M19.91,38.4l-4.35-.47-3.91-3.74L9.92,29.88l1.47-4.63,9-4,8.22-1.42,7.22.81L41,23.15l1.61,2.52L41.94,33l-1,1.58s-2.29,2.16-8.55,1.14S19.91,38.4,19.91,38.4Z"/><path class="cls-5" d="M4.28,41.05S-.84,38,3.2,31.7A25.77,25.77,0,0,1,15.39,21.6a34.16,34.16,0,0,1,21.79-1.77s6.82,1,7.33,7.64c0,0,.69,4.93-3.54,7.14,0,0-.5-.09-.25-2.08s1.23-2.44,1.14-3.76S41.42,25.29,40,24.6s-1-2.84-5.18-2.94-6.54-2.33-15.22,1.2-9.07,4.64-8.5,8.06,4.67,7.23,8.78,7.48L17,40.14s-5.85-.07-7.11-4.2-1.67-4.58-2.43-4.3-2,.92-2.24,3.6,2.18,5,2.18,6.25v1A6.32,6.32,0,0,1,4.28,41.05Z"/></g></g></svg>