<svg xmlns="http://www.w3.org/2000/svg" viewBox="0 0 54.72 31.02"><defs><style>.cls-1{fill:#444;}.cls-2{fill:#c23b4a;}.cls-3{fill:#f5d7cd;}.cls-4{fill:#a03545;}</style></defs><title>Pork belly</title><g id="Layer_2" data-name="Layer 2"><g id="Layer_1-2" data-name="Layer 1"><path class="cls-1" d="M54.14,16.72a4.82,4.82,0,0,1,.57,2.3,4.09,4.09,0,0,1-.11,1.12,5.51,5.51,0,0,1-1,2.09c-.11.17-.27.41-.45.65l-.07.08a16.48,16.48,0,0,1-1.3,1.5l-.15.15,0,0a4.65,4.65,0,0,1-.63.43,2.32,2.32,0,0,1-.38.21l0,.12c-.07.17-.19.44-.33.72A17.09,17.09,0,0,1,49.17,28l-.08.12-.05,0a4.8,4.8,0,0,1-.51.5,2.7,2.7,0,0,1-.48.37,4.7,4.7,0,0,1-.52.34,9.11,9.11,0,0,1-.94.48,2.52,2.52,0,0,1-.34.15l-.68.25a4.26,4.26,0,0,1-.47.15c-.23.07-.48.13-.73.19l-.43.09c-.28.06-.58.12-.91.16l-.39.05-.56.06-.51,0-1,0h-.46a22.83,22.83,0,0,1-2.45-.13l-.12,0-.11,0-.75-.2-.44-.11a12,12,0,0,0-2.16-.39,8.79,8.79,0,0,1-1.24.08,14,14,0,0,1-1.79-.12L30.46,30,30.18,30c-.32-.06-.65-.13-1-.22a16.22,16.22,0,0,1-2.47-.84,85.08,85.08,0,0,0-9.31-1.5l-.21.09-.41,0c-1.53-.2-3.12-.49-4.74-.86A29.91,29.91,0,0,1,8.2,25.52,3.22,3.22,0,0,1,6,24.22a18.44,18.44,0,0,0-1.76-.83l-2.34-.77L0,15.92l0-.09a3.5,3.5,0,0,1,.71-2.5A4.86,4.86,0,0,1,4.16,11.6c.81-.1,1.59-.23,2.4-.38l.65-.13-.94-.51L5.69,3.65V3.56C5.75,2.19,7,.15,10.08.15h.46c.77,0,1.51.07,2.26.07H13l.75,0c.92,0,1.5-.07,1.63-.09A18.4,18.4,0,0,1,17.31,0h1.88l1,0h.13a2.4,2.4,0,0,1,.46.05,9.86,9.86,0,0,1,4.15,1.15c1.92,1.19,9.61,4.43,12.48,5.61,1.47.47,10.91,3.62,15.15,7.79A10,10,0,0,1,54.14,16.72Z"/><path class="cls-2" d="M7.69,9.65l-.49-6s.08-2.15,3.25-2a33.25,33.25,0,0,0,5.16,0s6.08-.59,8.54.93S36.91,8.28,36.91,8.28s16.33,5.21,16.26,10.58c0,0,.58,1.53-2.47,4.61,0,0-2.79,2.52-10.27.37a17.85,17.85,0,0,0-3.68-1.45A13,13,0,0,1,30.26,20s-8.83-3.57-9.75-3.36c0,0-8.75-2.95-9.27-4.64A16.27,16.27,0,0,0,7.69,9.65"/><path class="cls-3" d="M17.85,7.46s-4.78.21-4.51,1.4-.81,4.32-.81,4.32A1.82,1.82,0,0,1,11.24,12s1.2-2,.66-3.56,1.48-1.89,1.48-1.89l1.22-.37a3.65,3.65,0,0,0-.16,1.18s.05.38,2.12-.6Z"/><path class="cls-4" d="M52.84,17.46c-2.34,4.79-9,4.83-10.84,3.33a5.2,5.2,0,0,0-3.9-1.14s-3.3.87-6.33-2.41-10.37-4-10.37-4-10-3.48-10.66-4.64S7.42,6.29,7.42,6.29l.27,3.36,1.54.83a15.9,15.9,0,0,1,2,1.49,2.35,2.35,0,0,0,1.3,1.21,45.56,45.56,0,0,0,8,3.43s0-.69,9.75,3.36a13.72,13.72,0,0,0,6.49,2.41,13.67,13.67,0,0,1,3.68,1.46s5.87,1.89,9.5.1l.77-.47A15.73,15.73,0,0,0,52,22v0a9,9,0,0,0,.72-1.06h0A3.62,3.62,0,0,0,52.84,17.46Z"/><path class="cls-3" d="M52,22a5,5,0,0,1-.64-2c.21-2-7.42-6.1-7.42-6.1a20.26,20.26,0,0,0-9.81-3.85S24.89,7.44,22.89,4.31s-2.64-2.74-2.64-2.74a32,32,0,0,0-4.64,0c-.61.11-2.91.12-2.91.12s5.64.31,7.72,2.41a28.47,28.47,0,0,0,6.39,4.13s1.58,1.14,8,2.67c0,0,4.56,1,4.38,2s-10.9-2.08-10.9-2.08-3.1-.25-3.68-.74-3.34-.86-3.34-.86S18.94,6,16.07,6.54c0,0-3.73-1.7-4.53-1.39s-2.7-.06-4.12,1.14l.27,3.36,1.54.83S7.8,7.62,8.48,6.55c0,0,3.56-.79,4.9,0,0,0,2,0,2.58.59a5.64,5.64,0,0,1,4.8,2.77,7.42,7.42,0,0,1,3.46,1.17,12.22,12.22,0,0,1,3.22.4s3,.59,3.69,1.66c0,0,2.49-.21,3.18.4,0,0,4.06-.06,5.65,2,0,0-.07,1.72-1.22,1.77,0,0-1.49.08.17,1.76,0,0,1.33.83.88-.58,0,0-.21-1.8,2.06-1.51,0,0,5.4.77,7.83,3.32a1.58,1.58,0,0,1-.24,1.36,4.86,4.86,0,0,0-.72,1.08s1-.75,1.15,0a4.23,4.23,0,0,1,.06,1.28.44.44,0,0,0,.13-.06C50.92,23.56,52,22,52,22Z"/><path class="cls-2" d="M3.1,21.45,1.51,15.61s-.31-2.12,2.84-2.52a32.94,32.94,0,0,0,5.06-1s5.87-1.7,8.57-.65,13.59,3.3,13.59,3.3,17,2.13,17.93,7.41c0,0,.84,1.4-1.58,5,0,0-2.29,3-10,2.25A18.34,18.34,0,0,0,34,28.64a12.94,12.94,0,0,1-6.82-1.18S17.85,25.57,17,26c0,0-9.15-1.3-10-2.86A16.34,16.34,0,0,0,3.1,21.45"/><path class="cls-4" d="M49.55,22.21h0a3.45,3.45,0,0,0-.64-1.36C47.5,26,41,27.24,38.87,26.11a5.18,5.18,0,0,0-4-.4s-3.09,1.46-6.67-1.21-10.94-2.08-10.94-2.08S6.78,20.83,5.9,19.81,2.21,18.2,2.21,18.2l.89,3.25L4.76,22A15.15,15.15,0,0,1,7,23.09a2.31,2.31,0,0,0,1.5.95h0a19.64,19.64,0,0,0,3.85,1.07h0A46.3,46.3,0,0,0,17,26s0,0,.1-.06c-.09,0-.1.06-.1.06s2.23,0,10.2,1.51a14.52,14.52,0,0,0,4.25,1.18h0a7.55,7.55,0,0,0,2.57,0,13.45,13.45,0,0,1,3.89.76s6.12.78,9.36-1.65l.67-.6a16.79,16.79,0,0,0,1-1.71l0,0a8.62,8.62,0,0,0,.41-.93l0,0a4.3,4.3,0,0,0,.33-1.29v0A2.55,2.55,0,0,0,49.55,22.21Z"/><path class="cls-3" d="M12.68,17.44S8,18.52,8.51,19.64s0,4.4,0,4.4A1.82,1.82,0,0,1,7,23.09s.82-2.18,0-3.63,1.11-2.13,1.11-2.13l1.13-.59a3.85,3.85,0,0,0,.06,1.19s.11.37,2-1Z"/><path class="cls-3" d="M47.92,23.63C47.77,21.68,39.51,19,39.51,19a20.26,20.26,0,0,0-10.35-2s-9.56-.88-12.09-3.59S14,11.21,14,11.21a30.58,30.58,0,0,0-4.55.89c-.58.22-2.84.65-2.84.65s5.6-.73,8,.95a28.67,28.67,0,0,0,7,2.89s1.76.83,8.3,1.17c0,0,4.67.11,4.67,1.13s-11.09-.05-11.09-.05-3.1.33-3.76-.05-3.44-.23-3.44-.23-2.83-2.74-5.56-1.7c0,0-4-1-4.7-.54s-2.67.44-3.85,1.88l.89,3.25L4.76,22s-1.92-2.55-1.45-3.73c0,0,3.35-1.43,4.81-.93,0,0,2-.35,2.64.11A5.65,5.65,0,0,1,16,19.28a7.47,7.47,0,0,1,3.62.51,12.08,12.08,0,0,1,3.24-.19s3.08,0,3.93,1c0,0,2.41-.67,3.2-.19,0,0,4-.81,5.91.88,0,0,.25,1.71-.87,2,0,0-1.45.36.48,1.7,0,0,1.47.57.76-.73,0,0-.53-1.73,1.75-1.86,0,0,5.45-.24,8.31,1.83a1.59,1.59,0,0,1,0,1.38,4.38,4.38,0,0,0-.52,1.19s.86-.93,1.13-.22a4.17,4.17,0,0,1,.3,1.24s.78-.33,1.66-2.3A4.89,4.89,0,0,1,47.92,23.63Z"/></g></g></svg>