<svg xmlns="http://www.w3.org/2000/svg" viewBox="0 0 55.5 43.93"><defs><style>.cls-1{fill:#444;}.cls-2{fill:#d77c1b;}.cls-3{fill:#bd400a;}</style></defs><title>Pork_feet</title><g id="Layer_2" data-name="Layer 2"><g id="레이어_1" data-name="레이어 1"><path class="cls-1" d="M7.6,43.93a12.17,12.17,0,0,1-5.09-1.16A1.48,1.48,0,0,1,2,42.41a6.45,6.45,0,0,1-.73-.11A1.49,1.49,0,0,1,.1,41.12,6.54,6.54,0,0,1,1.18,36.2a29.21,29.21,0,0,1,7.05-9c.89-1.37,6.28-9.51,11.05-12.13,2.15-2.56,6.69-7.85,8.66-9.25C28.8,4.57,32.36,0,38.08,0a11.29,11.29,0,0,1,3.67.63c7.57,2.56,10.5,11.58,11,13.52.89,1.09,3.56,4.71,2.42,8.14-.77,2.31-3,3.86-6.71,4.6A5.53,5.53,0,0,0,46.39,28c-1.78,1.47-7.19,2.46-13.46,2.46h0c-2.19,0-4.5-.11-6.87-.34a16.51,16.51,0,0,1-3.31,3.13c-.47,1.43-1.74,4.39-4.31,5.29a9.14,9.14,0,0,1-7.17,4.69A9.53,9.53,0,0,1,7.6,43.93Z"/><path class="cls-2" d="M1.57,40.83A5.11,5.11,0,0,1,2.42,37l4.46-3.55-.13,3.83S6.36,41.73,1.57,40.83Z"/><path class="cls-2" d="M3.13,41.4a13.57,13.57,0,0,0,3.62-4.28l5.38-1.38.34,3.74-1.61,2.3S7.63,43.48,3.13,41.4Z"/><path class="cls-3" d="M51.44,14.87S48.91,4.64,41.27,2.05,29,6.91,29,6.91c-1.58.76-8.78,9.35-8.78,9.35C15.38,18.72,9.38,28.19,9.38,28.19A27.14,27.14,0,0,0,2.46,37c3.27-1.07,4.18.06,4.31.26,0,0,0,0,0,0C6.46,38.6,4,40.72,3.93,40.74a0,0,0,0,0,0,.07l0,0H4c.11-.09,2.56-2.16,2.84-3.52,0,0,0,0,0,0,3.18-.4,4.06,4.48,4.06,4.48a7.76,7.76,0,0,0,6.51-4.48c3-.51,4.1-5.12,4.1-5.12.89,0,3.92-3.6,3.92-3.6,11.49,1.2,18.57-.5,20-1.7a6.94,6.94,0,0,1,2.78-1.46C59,23.27,51.44,14.87,51.44,14.87Z"/></g></g></svg>