<svg xmlns="http://www.w3.org/2000/svg" viewBox="0 0 55.8 45.15"><defs><style>.cls-1{fill:#444;}.cls-2{fill:#d8d8d8;}.cls-3{fill:#fafffc;}.cls-4{fill:#e87272;}</style></defs><title>Pork_loin</title><g id="Layer_2" data-name="Layer 2"><g id="레이어_1" data-name="레이어 1"><path class="cls-1" d="M21.1,45.15c-3.45,0-7.43-1.4-12.95-3.27l-.84-.29C.76,39.37.16,31.75.12,31a16,16,0,0,1,.37-5.8c.73-3.15,3.12-5.46,6.93-6.73a18.14,18.14,0,0,1,.47-3.4c.7-3,2.91-5.24,6.42-6.55l.15-.71C16.15.56,25.72,0,28.62,0h.55c.3,0,8.56.1,14.65,2.54a69.69,69.69,0,0,0,9,3.05c1.06.12,2.82,1,3,3.66A27.25,27.25,0,0,1,55.23,16a14.26,14.26,0,0,1-.79,4.15c-.22.8-.42,1.56-.53,2.13-.5,2.64-2.7,3.35-5,4.11-.25.08-.5.15-.79.22l-.21.79c-.22.81-.43,1.57-.54,2.14-.5,2.64-2.7,3.35-5,4.11a7.93,7.93,0,0,1-1.05.28,20.26,20.26,0,0,1-.79,3.61c-.22.8-.43,1.56-.54,2.13-.49,2.63-2.7,3.35-5,4.11s-9.75,1.36-13.37,1.36Z"/><path class="cls-2" d="M53.71,15.93c.22,1.12-.94,4.29-1.28,6.08s-1.88,2.27-4.1,3-9.85,1.31-13.23,1.26-7.49-1.5-13.33-3.48-6.18-9.26-6.18-9.26l15.79-2.38,14.78,2.22Z"/><path class="cls-3" d="M17.73,18s-3.47-2.61-1.81-9.78S29.11,1.51,29.11,1.51,37.37,1.58,43.26,4a70.72,70.72,0,0,0,9.27,3.14s1.59,0,1.74,2.27,0,13.37-7.1,13.91-11,1.64-18.11,0S20.41,20.85,17.73,18Z"/><path class="cls-4" d="M16.84,9.45A9.06,9.06,0,0,1,24.18,3c6.13-1.11,9.76,1.88,9.76,1.88s2.32,1.69,1.54,3.67-.41,2.19,1.58,4.23,4.41,6.4,2,7.94-4.05,2.42-10.86,1.6S18,17,17.37,15.15,16.2,11.06,16.84,9.45Z"/><path class="cls-4" d="M36.35,6.07S37,3.8,38.72,3.75s7.1,1.94,8.74,3.72a3.11,3.11,0,0,1-.77,4.83c-1.42.93-2.08,2-3.38,2.13s-2.76,1.49-4.21-.92S38.48,12,36.93,9.34A4.48,4.48,0,0,1,36.35,6.07Z"/><path class="cls-4" d="M40.34,21.29s-1,1.44,0,1.59,8.29-.29,10.21-3,2.79-5.54,1.41-5.5-.9,1.41-2.46,1.45-2.21,0-3-1.05-3.29.36-3.29.36a2.4,2.4,0,0,0-1.38,1.74A45.85,45.85,0,0,1,40.34,21.29Z"/><path class="cls-2" d="M47.15,23.19c.21,1.12-.95,4.29-1.28,6.08s-1.89,2.27-4.11,3-9.85,1.31-13.23,1.26S21,32,15.2,30,9,20.78,9,20.78L24.81,18.4l14.78,2.23Z"/><path class="cls-3" d="M11.17,25.21s-3.48-2.6-1.82-9.78S22.54,8.77,22.54,8.77s8.26.07,14.15,2.44A70.72,70.72,0,0,0,46,14.35s1.6.05,1.74,2.27,0,13.37-7.1,13.91-11,1.64-18.11,0S13.85,28.11,11.17,25.21Z"/><path class="cls-4" d="M10.27,16.71a9.06,9.06,0,0,1,7.34-6.42c6.14-1.11,9.76,1.88,9.76,1.88s2.32,1.69,1.54,3.67S28.5,18,30.49,20.07s4.41,6.4,2.05,7.94-4.06,2.42-10.87,1.6-10.22-5.4-10.87-7.2S9.63,18.32,10.27,16.71Z"/><path class="cls-4" d="M29.78,13.33s.68-2.27,2.37-2.32,7.1,1.94,8.74,3.72a3.11,3.11,0,0,1-.77,4.83c-1.42.93-2.08,2-3.38,2.13s-2.75,1.49-4.2-.92-.63-1.48-2.18-4.17A4.48,4.48,0,0,1,29.78,13.33Z"/><path class="cls-4" d="M33.77,28.55s-1,1.44,0,1.59,8.29-.29,10.21-3,2.79-5.54,1.42-5.5-.91,1.41-2.47,1.45-2.21,0-3-1-3.3.36-3.3.36a2.4,2.4,0,0,0-1.38,1.74A45.85,45.85,0,0,1,33.77,28.55Z"/><path class="cls-2" d="M39.74,33.32c.22,1.11-.94,4.29-1.28,6.08s-1.88,2.27-4.1,3S24.5,43.7,21.12,43.65s-7.48-1.5-13.33-3.48-6.17-9.26-6.17-9.26L17.4,28.53l14.78,2.22Z"/><path class="cls-3" d="M3.76,35.34S.28,32.73,2,25.56,15.13,18.9,15.13,18.9s8.26.07,14.15,2.44a71.06,71.06,0,0,0,9.28,3.14s1.59,0,1.74,2.27,0,13.37-7.1,13.9-11,1.65-18.11,0S6.44,38.24,3.76,35.34Z"/><path class="cls-4" d="M2.87,26.84a9,9,0,0,1,7.34-6.42C16.34,19.31,20,22.3,20,22.3S22.28,24,21.51,26s-.42,2.19,1.58,4.23,4.41,6.4,2,7.94-4.06,2.42-10.87,1.6S4.05,34.34,3.4,32.54,2.23,28.45,2.87,26.84Z"/><path class="cls-4" d="M22.38,23.46s.67-2.27,2.36-2.32,7.1,1.93,8.75,3.72a3.11,3.11,0,0,1-.78,4.83c-1.42.93-2.07,2-3.38,2.13s-2.75,1.49-4.2-.92S24.5,29.41,23,26.73A4.48,4.48,0,0,1,22.38,23.46Z"/><path class="cls-4" d="M26.36,38.67s-1,1.45,0,1.6,8.3-.29,10.22-3,2.79-5.54,1.41-5.5-.91,1.41-2.46,1.44-2.21,0-3-1.05-3.3.37-3.3.37a2.38,2.38,0,0,0-1.37,1.74A44.62,44.62,0,0,1,26.36,38.67Z"/></g></g></svg>