<svg xmlns="http://www.w3.org/2000/svg" viewBox="0 0 50.21 36.05"><defs><style>.cls-1{fill:#444;}.cls-2{fill:#a03545;}.cls-3{fill:#c23b4a;}.cls-4{fill:#8c3445;}</style></defs><title>Pork tenderloin</title><g id="Layer_2" data-name="Layer 2"><g id="Layer_1-2" data-name="Layer 1"><path class="cls-1" d="M29.59,36.05A25.07,25.07,0,0,1,24,35.14a4,4,0,0,1-1.58.27A26,26,0,0,1,17,34.49a4.44,4.44,0,0,1-.71.06,3,3,0,0,1-2.16-.79,5.24,5.24,0,0,1-3.63-1.5A6,6,0,0,1,8.9,28.17h0a1.82,1.82,0,0,1,0-.33l0-.47L9.24,27l.29-.39a2.53,2.53,0,0,1-.13-.22,2.61,2.61,0,0,1-.13-1.73l-.55-.36H8.54a2.44,2.44,0,0,1-1.63-.75l-.22-.23h0c-.6-.05-2.77-.36-3.49-2a2.62,2.62,0,0,0-1.07-.74L0,19.75l1.64-1.6A7.43,7.43,0,0,0,3.1,15.08l0-.19.09-.17c.19-.38,5-9.36,22.1-14.57l.5-.15,4.27,1.68c.64-.3,1.26-.59,1.89-.85l.69-.31.66.39a24.49,24.49,0,0,1,3.74,2.85l.67.62-.24.88s-1.09,4.07-1.61,7.08a4.73,4.73,0,0,1-1.17,2.39,6,6,0,0,1,1.08.16,2.84,2.84,0,0,1,1.39-.38,2.33,2.33,0,0,1,1.22.34l.11-.07.32,0a12.64,12.64,0,0,1,1.43-.08,16.12,16.12,0,0,1,7.87,2.11l.18.11.15.15A6.49,6.49,0,0,1,50.2,21.8v3.76c0,.13.09,4.38-5.67,5.8-3.34.82-5.11,1.12-5.9,1.23a4.15,4.15,0,0,1-2,.84,8.6,8.6,0,0,1-2.71,1,9,9,0,0,1-1.87,1.06A4.47,4.47,0,0,1,29.59,36.05Z"/><path class="cls-2" d="M29.56,3.08S32,6.22,27.79,8.27s-17.89,14-17.89,14l-3-.37.82-7.13L18,5.48l8.46-2.83Z"/><path class="cls-3" d="M29.56,3.08C14.3,5.76,8.47,17.14,8.47,17.14c-2.54.91-3.9-1.73-3.9-1.73S9.12,6.67,25.78,1.59Z"/><path class="cls-3" d="M10.72,17.63A72,72,0,0,1,32.59,2.2a24,24,0,0,1,3.49,2.67S19.83,13.65,13.76,19.52C13.76,19.52,12,20.46,10.72,17.63Z"/><path class="cls-4" d="M8.75,19.77h0a5,5,0,0,0-.27-2.62,2.71,2.71,0,0,1-1.07.21v0a3.79,3.79,0,0,1-2.57-1.52,3.07,3.07,0,0,1-.26-.4,9.14,9.14,0,0,1-1.89,3.82,4,4,0,0,1,1.89,1.53c.41.93,2.3,1.09,2.3,1.09l2.05.25Z"/><path class="cls-4" d="M7.41,21.24c.12-.9,1.22-1.52,1.22-1.52,2.41-1.37,2.09-2.09,2.09-2.09.69,1.34,1.4,1.83,1.95,2a2.23,2.23,0,0,0,1.09-.1c-2.87,3.2-1.93,4.18-1.93,4.18-.66.78-3-1.19-3-1.19S7.29,22.06,7.41,21.24Z"/><path class="cls-2" d="M13.76,19.52a8,8,0,0,0-2,3,3.45,3.45,0,0,0-.11.45h0a.89.89,0,0,0,0,.29c0,.34.16.42.16.42s2.5,1.15,4.1-.82a4.6,4.6,0,0,1,3.82-1.83c.2,0,1.19.85,4.92-3.42a6.2,6.2,0,0,1,4-1.44s5.25-1,5.79-4.1,1.64-7.22,1.64-7.22S20.2,13.36,13.76,19.52Z"/><path class="cls-3" d="M11,24.89s.56-.2,1-2.4c0,0,2.66-3.36,4.26-1.1,0,0,.3.1.74-.78,0,0,.45-.49.82.24,0,0,1.77-1.1,2.83-.86,0,0-.16-.9,2.63-1.11,0,0,.94-1.55,2.26-.78,0,0,1.39-1.06,2.37-.65,0,0,.74-.7,2.84-.37,0,0,.37-.86,1.88-.45a4.11,4.11,0,0,1,3.45-.11s1-.91,1.68-.3a1.47,1.47,0,0,0,1.31,0,14,14,0,0,1,8.33,1.84S52.34,23.15,43,28c0,0-4.8,2.47-8.08,1.77,0,0-3.86,2.25-7.43,1.15a10.63,10.63,0,0,1-3.28-.66s-2.5-1.23-6.93-.41c0,0-3.49.33-5.62-.94,0,0-1.36.08-1.27-1,0,0,1.24-1.45.69-1.93S11,24.89,11,24.89Z"/><path class="cls-2" d="M48.7,22.8v-.05l0-1.79a7.6,7.6,0,0,1-1,3.39A15.8,15.8,0,0,1,43,28c-5.09,2.55-8.08,1.77-8.08,1.77a11.48,11.48,0,0,1-6.76,1.31c-.22,0-.44-.1-.67-.16a12.41,12.41,0,0,1-3.28-.66,11.71,11.71,0,0,0-6.93-.41A12.7,12.7,0,0,1,12,29.09l-.28-.15h-.07c-.27,0-1.27-.13-1.2-1A2.92,2.92,0,0,0,10.48,29h0c.23,1.27,1.1,3.41,4.39,3.23,0,0,.29,1.11,2.17.7,0,0,6.24,1.72,6.65.53,0,0,6.19,1.85,7.63.66,0,0,1.81-.78,2-1.23,0,0,.7.24,3-1a2.49,2.49,0,0,0,1.77-.8,45.81,45.81,0,0,0,6.16-1.25c4.65-1.14,4.53-4.34,4.53-4.34Z"/></g></g></svg>