<svg xmlns="http://www.w3.org/2000/svg" viewBox="0 0 47.95 45.46"><defs><style>.cls-1{fill:#444;}.cls-2{fill:#c7954b;}.cls-3{fill:#f7e291;}</style></defs><title>Potato</title><g id="Layer_2" data-name="Layer 2"><g id="레이어_1" data-name="레이어 1"><path class="cls-1" d="M36.32,45.46a6.49,6.49,0,0,1-2.08-.3A26.75,26.75,0,0,1,24,39.25a15.76,15.76,0,0,1-2.72-3.68q-1.26.45-2.67.84a16.72,16.72,0,0,1-4.33.59A15.09,15.09,0,0,1,3.67,32.6C-.88,28.73,0,15.61.15,14.12V14l0-.08C1.74,5.91,11.29.54,11.7.31l.17-.09.19,0A7.36,7.36,0,0,1,13.45,0h.69c6.52.1,10.77,6.76,11,7a23.58,23.58,0,0,1,3.39,7.45l0,.11c3.86.22,8.22,2.71,13,7.39s6.92,9.22,6.39,13.41A11,11,0,0,1,42.94,43a10.83,10.83,0,0,1-6.62,2.49Z"/><path class="cls-2" d="M18.26,35A13.72,13.72,0,0,1,4.7,31.51C.54,28.12,1.65,14.24,1.65,14.24,3.09,6.79,12.43,1.62,12.43,1.62S18.37.07,23.81,7.85s4.56,19.62,4.56,19.62S28.87,32.07,18.26,35Z"/><path class="cls-3" d="M12.43,1.62S4.09,7.4,10.2,21.07s13,12.08,13,12.08,5-2.25,5.15-5.68c0,0,.78-12.23-4.56-19.62C23.81,7.85,19.15.35,12.43,1.62Z"/><path class="cls-3" d="M42.09,41.74s10.84-6.34-1.66-18.67S22.7,18.5,22.7,18.5s-3,11.18,9.23,20.29C31.93,38.79,38.15,43.24,42.09,41.74Z"/><path class="cls-2" d="M22.7,18.5a5.74,5.74,0,0,1,3.55-2.22s-6.21.62-6.38,5.79,1.22,12.17,5.22,16.11a25.61,25.61,0,0,0,9.61,5.56s3.23,1.22,7.39-2c0,0-3.22,1.69-10.16-3a28.65,28.65,0,0,1-4.48-4.12,25.53,25.53,0,0,1-3-4.55,22,22,0,0,1-1.7-5,16.87,16.87,0,0,1-.08-6.28Z"/></g></g></svg>