<svg xmlns="http://www.w3.org/2000/svg" viewBox="0 0 51.24 47.68"><defs><style>.cls-1{fill:#444;}.cls-2{fill:#eaae06;}.cls-3{fill:#e29205;}.cls-4{fill:#f49c00;}.cls-5{fill:#98ab02;}.cls-6{fill:#ffc205;}.cls-7{fill:#ffe103;}</style></defs><title>Pumpkin</title><g id="Layer_2" data-name="Layer 2"><g id="레이어_1" data-name="레이어 1"><path class="cls-1" d="M26.18,47.68a8.68,8.68,0,0,1-1.13-.07,9.68,9.68,0,0,1-5.13-2.39,4.48,4.48,0,0,1-1.71.77,4.47,4.47,0,0,1-.75.06,12.6,12.6,0,0,1-7.88-3.77c-4.14-1.74-11-7.33-9.31-17,2.07-11.59,12-12.78,12.12-12.79h.19c.27,0,.52,0,.77,0a8.57,8.57,0,0,1,5.29-1.69c.34,0,.69,0,1.06.05.57.06,1.13.14,1.67.25A4.5,4.5,0,0,0,20.15,8a5.72,5.72,0,0,1-1.51-3.44,4.1,4.1,0,0,1,1-3.21A4.58,4.58,0,0,1,22.81,0c1.39.08,2.69.3,3.32,1.34a2.74,2.74,0,0,1-.08,2.57,12.9,12.9,0,0,1,3.22,6.8,13.51,13.51,0,0,1,3.1,1.35c.27,0,.55,0,.83,0a8.15,8.15,0,0,1,4.68,1.46c5.49.43,11.58,4.15,12.9,10.64,1.74,8.59-1.44,15-9,18a10.72,10.72,0,0,1-8.37,3.74h0a14.56,14.56,0,0,1-2-.15A7.92,7.92,0,0,1,26.18,47.68Z"/><path class="cls-2" d="M21,13.53a10.44,10.44,0,0,1,6.92-1.61,13.37,13.37,0,0,1,6.26,3.32L26.52,28.12l-6.58-9.38Z"/><path class="cls-3" d="M25.64,15.52a16.13,16.13,0,0,1,7.56-2,7.16,7.16,0,0,1,6.44,4.35c0,.48-9.95,12.44-9.95,12.44s-7.2-5.49-6.87-6.24S25.64,15.52,25.64,15.52Z"/><path class="cls-4" d="M12.71,15.43s1.83-3.51,6.85-3,7,3,7,3L29.22,32,16.62,33.9Z"/><path class="cls-5" d="M22.81,1.5a2.63,2.63,0,0,0-2.68,2.94c.19,2.93,3.18,2.77,2.68,7.91s-1.64,5.11-1.64,5.11,5.26,4.41,9.33,1.33a7.48,7.48,0,0,0-2.23-2.32c-1.42-.9,1.66-6.06-3.55-11.8,0,0-.52-.33,0-1.37S25.17,1.64,22.81,1.5Z"/><path class="cls-6" d="M28.27,20s1.46-4.15,7-4.91,12.68,2.84,14,9.38.09,14-10.05,17S28.27,20,28.27,20Z"/><path class="cls-2" d="M24.29,23.13s3-6.47,9.86-5.81S45,25.85,44.57,31.06,40.78,48.58,27,43,24.29,23.13,24.29,23.13Z"/><path class="cls-2" d="M12.55,14S3.64,15,1.75,25.56s7.86,16,10.8,15.92,11.37-19.9,11.37-19.9S24.29,14.29,12.55,14Z"/><path class="cls-6" d="M18.42,16.09S8.76,15.81,6.86,28.22,15.09,45,18,44.51s9.56-10.33,8.57-16.39S26.66,16.85,18.42,16.09Z"/><path class="cls-7" d="M25.91,17.89s-6.16-.47-9,7.77,1,19.51,8.33,20.46,10.33-9.15,10-15.61S30.93,17.89,25.91,17.89Z"/></g></g></svg>