<svg xmlns="http://www.w3.org/2000/svg" viewBox="0 0 22.27 51.98"><defs><style>.cls-1{fill:#444;}.cls-2{fill:#fff;}.cls-3{fill:#a0ca10;}.cls-4{fill:#8cb224;}.cls-5{fill:#7f9920;}</style></defs><title>Radish</title><g id="Layer_2" data-name="Layer 2"><g id="레이어_1" data-name="레이어 1"><path class="cls-1" d="M21.85,21.05c-.06-.16-1.13-3-5.32-4.49L19,6.38l-.07-.32a3.7,3.7,0,0,0-2.62-3l.19-1.63L15.74,1A5.25,5.25,0,0,0,12.81,0a4.61,4.61,0,0,0-2,.48A6.08,6.08,0,0,0,8.52,0,4.78,4.78,0,0,0,4.89,1.68l-.47.53.12.73A3.16,3.16,0,0,0,2.87,5.22l0,.24L5.19,16.62C1.25,18.14.56,21,.54,21.09c-1.74,6.45,1.17,18.7,2.57,22.27s4.17,8.13,7.1,8.56A4.88,4.88,0,0,0,11,52h0c4.17,0,7.36-4.57,9.5-13.58C23.34,26.43,21.93,21.34,21.85,21.05Z"/><path class="cls-2" d="M20.43,21.55s1.39,4.78-1.39,16.5-6.61,12.69-8.61,12.39S6,46.59,4.5,42.81.43,27.26,2,21.48c0,0,1-4.29,8.94-4.29S20.43,21.55,20.43,21.55Z"/><path class="cls-3" d="M9.81,17.22,8.92,4.44a2.08,2.08,0,0,1,2.93,0L11.42,17.2S10.4,17.18,9.81,17.22Z"/><path class="cls-4" d="M10.87,3.86V2.2a3.21,3.21,0,0,1,4,0L13.14,17.31a16,16,0,0,0-1.72-.11l.43-12.76A2,2,0,0,0,10.87,3.86Z"/><path class="cls-5" d="M10.87,2.2S8,.4,6,2.68L8.37,17.36s1.08-.12,1.44-.14L8.92,4.44a2.25,2.25,0,0,1,1.95-.58Z"/><path class="cls-4" d="M6.2,3.81S4.49,4.36,4.36,5.4L6.93,17.64a13.16,13.16,0,0,1,1.44-.28Z"/><path class="cls-5" d="M14.65,4.43a2.42,2.42,0,0,1,2.82,1.91L14.74,17.59a15.85,15.85,0,0,0-1.6-.28Z"/></g></g></svg>