<svg xmlns="http://www.w3.org/2000/svg" viewBox="0 0 48.66 30.97"><defs><style>.cls-1{fill:#444;}.cls-2{fill:#a25f25;}.cls-3{fill:#bf7c47;}.cls-4{fill:#9a5f33;}.cls-5{fill:#7b3b1f;}.cls-6{fill:#c57c47;}.cls-7{fill:#c17946;}.cls-8{fill:#f72309;}.cls-9{fill:#773e1b;}</style></defs><title>Red_pepper_paste_1</title><g id="Layer_2" data-name="Layer 2"><g id="레이어_1" data-name="레이어 1"><path class="cls-1" d="M25.19,31h-.8c-9.48-.27-14.66-2.79-18.47-9a16.57,16.57,0,0,1-2-5.24A6.49,6.49,0,0,1,1.59,16,3.85,3.85,0,0,1,.17,11.6c.35-2,2.29-3.18,3.5-3.72C4.27,5.8,6.87,2.87,16,1a45.72,45.72,0,0,1,9.38-1c8.44,0,16.48,2.42,18.71,5.63a4.9,4.9,0,0,1,.45.76c3.29.75,3.9,2.67,4,3.69A4.29,4.29,0,0,1,48.23,13a5.47,5.47,0,0,1-2.75,2.55c-.12,1.44-.3,2.39-.31,2.44-2,7.69-10.16,13-20,13Z"/><path class="cls-2" d="M1.63,12s-.58,1.9.76,2.73,4.36.83,4.36.83l1-2.16L2.39,11.64Z"/><path class="cls-3" d="M5,9s-3.49,1.11-3.41,3.33,3.86,2,3.86,2l2-3.39Z"/><path class="cls-4" d="M5,9S4,16,7.19,21.21s7.5,8,17.24,8.25,17.5-4.81,19.27-11.78A26.71,26.71,0,0,0,43.56,8L28.25,9.26l-19.42.86Z"/><path class="cls-5" d="M47.05,10.32s1.09,3-3.47,4.33A4.19,4.19,0,0,1,38,11.79l5.47.53Z"/><path class="cls-6" d="M41.86,7.6s5.17-.09,5.19,2.72-4.91,4.3-7.11,3.22-.61-4.14-.61-4.14Z"/><path class="cls-7" d="M5.05,9.26S3.83,5,16.33,2.43s24.28.78,26.56,4.05c0,0,2.89,3.73-2.22,7.17s-12.28,4.28-16.31,4.22S5.22,17.93,5.05,9.26Z"/><path class="cls-8" d="M6.29,10.54S4.55,3,24.83,2.48s22.62,9.54,10,12.45c0,0-10.33,2.61-18.78.72C16.05,15.65,6.75,14.06,6.29,10.54Z"/><path class="cls-9" d="M6.29,10.54S8.51,3.8,24.83,3.48c0,0,17.16-.33,17.57,6.68H43s1.12-7.82-16.17-8S6,8,6,8A2.28,2.28,0,0,0,6.29,10.54Z"/></g></g></svg>