<svg xmlns="http://www.w3.org/2000/svg" viewBox="0 0 58.22 32.47"><defs><style>.cls-1{fill:#444;}.cls-2{fill:#a38a76;}.cls-3{fill:#fff;}.cls-4{fill:#c5b790;}.cls-5{fill:#cabd9a;}</style></defs><title>Rockfish</title><g id="레이어_2" data-name="레이어 2"><g id="레이어_1-2" data-name="레이어 1"><path class="cls-1" d="M57.91,15a2.86,2.86,0,0,0-2.5-1c-2.79,0-7.34,2-8.49,3.59l-.07,0a9.92,9.92,0,0,1-3.72-1.1c-1.71-2.58-1.92-6.73-1.92-6.78l-.07-1.37-1.37-.06A8.46,8.46,0,0,1,33.1,4.68l-.52-.84L31.6,4a8,8,0,0,1-1.17.09A5.2,5.2,0,0,1,25.61,1.2L25.13,0,23.87.3a2.66,2.66,0,0,0-1.2.7,6.48,6.48,0,0,1-3.31.83,7.63,7.63,0,0,1-1.7-.18l-.7-.2-.59.44c-.52.38-1.86,1.37-1.64,7.48A23.06,23.06,0,0,0,10.61,12c-.34.25-.75.56-.94.67a9.62,9.62,0,0,0-4.94,2.16,1.9,1.9,0,0,1-1.21.37A2.59,2.59,0,0,1,3,15.09H3L2.74,15H2.51A2,2,0,0,0,.75,16.09a3.14,3.14,0,0,0,.53,3,4.27,4.27,0,0,0,.77.95A3.27,3.27,0,0,0,0,23a1.8,1.8,0,0,0,1.83,1.77,2.4,2.4,0,0,0,1.35-.45c.58,0,2,1,2.95,2a19,19,0,0,0,2.38,1.89,31.84,31.84,0,0,0,15.78,4.28,27.93,27.93,0,0,0,11.4-2.4,8.44,8.44,0,0,0,4.74,2l1.21,0,.24-1.19c.36-1.76,1.2-3.72,1.7-3.94a1.62,1.62,0,0,0,1-2.32,1.75,1.75,0,0,1,.73-.19.87.87,0,0,1,.65.29c1.55,1.55,6.11,4.42,8.53,4.42h0a2.69,2.69,0,0,0,.87-.13c2.85-1,2.57-7.43,1.95-9.48a3,3,0,0,1,.42-1.64,2.88,2.88,0,0,0,.2-2.83"/><path class="cls-2" d="M34,26.65s3.82,3.93,6.41,3.89c0,0,.89-4.48,2.7-5.08,0,0-3.74-.11-3-1.81Z"/><path class="cls-3" d="M42.4,24.07C26.22,37.74,9.32,26.92,9.32,26.92L8.09,23.65S15,18.21,15.2,18.36s14.72-.79,14.72-.79l11.23,3.86Z"/><path class="cls-2" d="M34.31,20.65l9.92-1.26C40,17.5,39.71,9.72,39.71,9.72a10,10,0,0,1-7.89-4.26c-5.74.86-7.59-3.7-7.59-3.7a8.55,8.55,0,0,1-7,1.33L16.67,6.2v4.41l2.11,3.52,5.44,4.23s6.64-.31,10.09,2.29"/><path d="M17.71,11.54c-1.63-3.08-.45-8.45-.45-8.45-1.55,1.15-.92,8-.92,8Z"/><path d="M22.69,11.09C22,4.61,24.23,1.76,24.23,1.76c-2,.48-3.08,8.93-3.08,8.93Z"/><path d="M29.11,13.32c-.9-4.12,2.71-7.86,2.71-7.86-2.63.34-4.41,6.89-4.41,6.89Z"/><path d="M35.37,16.24c.52-3.29,4.34-6.52,4.34-6.52-2.34,0-5.89,5.37-5.89,5.37Z"/><path class="cls-4" d="M55.48,15.46c-2.88,0-7,2.19-7.37,3s-1.48.56-1.48.56c-8.37-1.22-3.7-4.78-16.81-8.74S11.56,13.91,10,14.09a8.15,8.15,0,0,0-4.3,1.85,3.8,3.8,0,0,1-3.11.6c-1.19,0,0,1.78,0,1.78A3.57,3.57,0,0,0,5.41,20,3,3,0,0,1,8,22.13c-1.26-1-2.89-1-4.74-.85S.85,24.06,2.45,23s4.7,2.18,4.7,2.18a16.53,16.53,0,0,0,2.17,1.72c5.89-4.07,17.87-9.68,33.08-2.85.57-.3.9-.5.9-.5s2.07-1.59,3.7,0,6.45,4.41,7.85,3.93,1.67-5.41,1-7.63,2.52-4.41-.37-4.45"/><path class="cls-5" d="M18.82,23.57S24.3,22,27.6,23.22a5.56,5.56,0,0,0-2.78,5s-6.08-1.82-6-3.52c0,0,1-.26,0-1.08"/><path class="cls-3" d="M10.67,16.91A1.93,1.93,0,1,1,8.74,15a1.92,1.92,0,0,1,1.93,1.93"/><path d="M9.85,16.91A1.11,1.11,0,1,1,8.74,15.8a1.11,1.11,0,0,1,1.11,1.11"/></g></g></svg>