<svg xmlns="http://www.w3.org/2000/svg" viewBox="0 0 58.47 22.7"><defs><style>.cls-1{fill:#444;}.cls-2{fill:#e9b7b6;}.cls-3{fill:#eeb8b6;}.cls-4{fill:#7d92a0;}.cls-5{fill:#bfcfce;}.cls-6{fill:#fff;}</style></defs><title>Salmon</title><g id="레이어_2" data-name="레이어 2"><g id="레이어_1-2" data-name="레이어 1"><path class="cls-1" d="M36.84,18.44c-.93.24-2.12.52-3.45.81a1.92,1.92,0,0,1,.2,1.48A1.88,1.88,0,0,1,32,22a10.36,10.36,0,0,1-1.12.07,5.39,5.39,0,0,1-4.29-1.79c-1.07.1-2.06.16-3,.16a19.35,19.35,0,0,1-2.39-.14L18.8,20a66.16,66.16,0,0,1-8.56-1.41L7.7,18l.09-.09a27.3,27.3,0,0,1-4.48-2,5,5,0,0,1-2.5-2.64A2.4,2.4,0,0,1,0,11.43,3.35,3.35,0,0,1,1.8,8.79c2-1.29,6.76-2.59,7.84-2.88A31.64,31.64,0,0,1,22.16,3a14.38,14.38,0,0,1,8.21-3L32.2,0l-.32,1.8a10.5,10.5,0,0,0-.12,2.05,43.46,43.46,0,0,1,5.41,1.5S38.94,5.9,41,6.57a18.39,18.39,0,0,1,3.71-.5,6.17,6.17,0,0,1,.9.06,1.79,1.79,0,0,1,1.71,1.54,1.6,1.6,0,0,1-.18,1l.51.2a4.29,4.29,0,0,0,1.51-1.37c.14-.19,3.07-4.08,6.94-4.44a2.87,2.87,0,0,1,.48,0,1.7,1.7,0,0,1,1.67,1.07,2.07,2.07,0,0,1-.86,2.26c-.62.63-2,4.63-1.49,6.74.14.6.24,1.13.33,1.62A6.82,6.82,0,0,0,57.46,18c1.1.95,1.1,1.8.91,2.35a1.76,1.76,0,0,1-1.78,1.14,5.09,5.09,0,0,1-1.1-.15,10.2,10.2,0,0,1-6-4.29,4,4,0,0,0-2.38-1.39,5,5,0,0,0-.66-.05l-.22,0a1.92,1.92,0,0,1-1.63,1.19c-.59.18-2.46,2.11-3.88,4L39.37,22.7Z"/><path class="cls-2" d="M37,15.74,39.51,20s3.22-4.37,4.85-4.63-1.45-1.93-1.45-1.93Z"/><path class="cls-2" d="M26.88,17.58s.45,3.56,5,3c0,0,1.54-.15-2.27-2.78s-2.7-.18-2.7-.18"/><path class="cls-3" d="M10.61,17.17,10,13.74,28.74,8.9,42,10.38l5.19,2.33.34,1.49a5.85,5.85,0,0,0-1.31-.07,73.59,73.59,0,0,0-7.44,2.25s-11.06,3.27-17.31,2.47a88.46,88.46,0,0,1-10.82-1.68"/><path class="cls-4" d="M30.74,6.1c-.86-1.63-.34-4.56-.34-4.56a12.77,12.77,0,0,0-7.92,3.19l.4,1.85Z"/><path class="cls-4" d="M39,8.62s4.41-1.3,6.37-1-3.18,2-3.18,2Z"/><path class="cls-4" d="M15.44,17c8.47-.94,6.48-2.26,6.48-2.26a16,16,0,0,0-6.59.22s.81,1.33-.41,1.85c0,0-.69.32.52.19"/><path class="cls-5" d="M56.38,19C55,17.29,55,16,54.46,13.38s.92-7.28,2-8.2-.11-.67-.11-.67C53,4.77,50.4,8.33,50.4,8.33s-1.8,2.55-3.33,1.88S36.68,6.76,36.68,6.76c-15.55-5.38-26.5.56-26.5.56S4.57,8.76,2.63,10s-.78,2.11-.78,2.11c.47.06.39.34.39.34C2.1,13.6,4,14.57,4,14.57a27.2,27.2,0,0,0,6.57,2.6c1.86-1.62,7.26-4.93,20.68-5.18,10.47-.2,14.41,1.07,15.89,2.15a5.36,5.36,0,0,1,3.64,2.24,8.81,8.81,0,0,0,5,3.5c2.19.5.56-.84.56-.84"/><path class="cls-6" d="M11.23,11.05A1.19,1.19,0,1,1,10,9.86a1.18,1.18,0,0,1,1.19,1.19"/><path d="M10.64,11.05a.6.6,0,1,1-.6-.6.6.6,0,0,1,.6.6"/></g></g></svg>