<svg xmlns="http://www.w3.org/2000/svg" viewBox="0 0 47.28 48.09"><defs><style>.cls-1{fill:#444;}.cls-2{fill:#dfebeb;}.cls-3{fill:#f4f4f4;}.cls-4{fill:#d4dddd;}.cls-5{fill:#909196;}.cls-6{fill:#ced0cf;}.cls-7{fill:#fff;}</style></defs><title>Salt_1</title><g id="Layer_2" data-name="Layer 2"><g id="레이어_1" data-name="레이어 1"><path class="cls-1" d="M16.37,48.09c-2.75,0-6.55-2.12-9.93-5.53-8-8.1-6.55-12-5.9-13a3.64,3.64,0,0,1,.91-1L6.81,23,27.44.74l.32-.16A6.2,6.2,0,0,1,30.58,0c2.26,0,5.84.92,10.1,5.29,4.68,4.79,6.89,8.19,6.57,10.11l-.1.6L25.25,40.25l-5.73,6.42a3.81,3.81,0,0,1-3.15,1.42Z"/><path class="cls-2" d="M8.3,24.46l20.42-22S32.88.27,39.19,6.74s6,8.32,6,8.32L23.71,38.86l-5.52,1.08L8.3,27.31Z"/><polygon class="cls-3" points="16.71 18.07 10.14 25.23 21.94 36.24 37.08 20.42 24.98 19.02 16.71 18.07"/><path class="cls-4" d="M37.08,20.42l5-5.26S40.89,12.36,36.19,8s-7.94-2.46-7.94-2.46L16.71,18.07Z"/><path class="cls-5" d="M2.29,30.62l6-6.16s3.32-1.08,9.48,4.85,5.93,9.55,5.93,9.55l-5.81,6.5L6.53,37Z"/><path class="cls-6" d="M2.29,30.62S.45,33.55,7.92,41.09s16,7,5-5.85C12.92,35.24,4.53,27.15,2.29,30.62Z"/><path class="cls-7" d="M37.08,20.42s-2.59-.89-8.36-2.35a29.19,29.19,0,0,0-12,0S18.55,20.49,28,20.66,37.08,20.42,37.08,20.42Z"/><ellipse cx="8.03" cy="34.34" rx="0.5" ry="0.83" transform="translate(-18.97 11.66) rotate(-36.81)"/><ellipse cx="5.44" cy="34.16" rx="0.5" ry="0.83" transform="translate(-19.38 10.07) rotate(-36.81)"/><ellipse cx="5.85" cy="36.6" rx="0.5" ry="0.83" transform="translate(-20.77 10.81) rotate(-36.81)"/><ellipse cx="8.21" cy="36.8" rx="0.5" ry="0.83" transform="translate(-20.41 12.26) rotate(-36.81)"/><ellipse cx="10.86" cy="37.06" rx="0.5" ry="0.83" transform="translate(-20.04 13.9) rotate(-36.81)"/><ellipse cx="8.51" cy="39.27" rx="0.5" ry="0.83" transform="matrix(0.8, -0.6, 0.6, 0.8, -21.83, 12.93)"/><ellipse cx="10.99" cy="39.68" rx="0.5" ry="0.83" transform="translate(-21.59 14.5) rotate(-36.81)"/><ellipse cx="13.56" cy="39.83" rx="0.5" ry="0.83" transform="translate(-21.16 16.07) rotate(-36.81)"/><ellipse cx="11.19" cy="42.01" rx="0.5" ry="0.83" transform="translate(-22.94 15.08) rotate(-36.81)"/><ellipse cx="13.62" cy="42.37" rx="0.5" ry="0.83" transform="translate(-22.67 16.61) rotate(-36.81)"/></g></g></svg>