<svg xmlns="http://www.w3.org/2000/svg" viewBox="0 0 39.15 27.14"><defs><style>.cls-1{fill:#444;}.cls-2{fill:#b46556;}</style></defs><title>Sausage</title><g id="Layer_2" data-name="Layer 2"><g id="Layer_1-2" data-name="Layer 1"><path class="cls-1" d="M39.15,1.93,30.82,0l-.15,4.49c-3,1.12-3.86,4.81-3.86,6.82v.16a5.63,5.63,0,0,1-1.58,3.44,6.68,6.68,0,0,1-5.45,1.94c-5.87-.26-6.94-3.71-7.21-7a6.21,6.21,0,0,0-4-5.37L8.75.35,0,1.5,3.06,5.7c-2.11,2.81-.7,8.09-.49,8.81C6.36,26.26,17.18,27.14,20.3,27.14c.53,0,.84,0,.86,0C33.7,26.2,36.83,14.32,36.84,14.28c1.4-4.55.26-7.15-.84-8.49Z"/><path class="cls-2" d="M33.94,6l2.53-3.1-4.21-1-.13,3.81c-3.08.32-3.67,3.79-3.79,5.11.8,0,2.88-.07,3.94-1a.25.25,0,0,1,.35,0,.26.26,0,0,1,0,.36c-1.16,1-3.25,1.13-4.17,1.13h-.12v0A6.5,6.5,0,0,1,27.07,15c.44.27,2.54,1.51,4.1,1.21a.25.25,0,0,1,.29.19.25.25,0,0,1-.2.3,3.08,3.08,0,0,1-.61.05,8.4,8.4,0,0,1-3.88-1.35A7.27,7.27,0,0,1,24,17.59c.32.59,1.48,2.55,2.9,3a.25.25,0,0,1-.08.49l-.08,0c-1.66-.56-2.92-2.75-3.21-3.31a9.39,9.39,0,0,1-3.69.57c0,.8.08,2.87,1,3.93a.25.25,0,0,1,0,.35.27.27,0,0,1-.17.06.27.27,0,0,1-.18-.08c-1.06-1.21-1.14-3.44-1.13-4.29a11,11,0,0,1-3.7-.83c-.23.37-1.54,2.53-1.22,4.12a.26.26,0,0,1-.2.29h-.05A.25.25,0,0,1,14,21.7c-.34-1.7.91-3.87,1.25-4.43a6.8,6.8,0,0,1-2.51-2.17s0,.07-.07.09-2.63,1.33-3.19,3a.27.27,0,0,1-.24.17H9.11A.26.26,0,0,1,9,18c.64-1.86,3.33-3.22,3.45-3.28h0a9.76,9.76,0,0,1-1.23-3.69c-.71,0-2.93,0-4,1a.27.27,0,0,1-.17.06A.23.23,0,0,1,6.83,12a.24.24,0,0,1,0-.35c1.21-1.06,3.46-1.14,4.3-1.13,0-.21-.05-.41-.07-.62a4.87,4.87,0,0,0-4-4.38l.12-3.49L2.7,2.65,5.06,5.9C2.14,7.54,4,14.05,4,14.05,8.12,26.81,21.05,25.61,21.05,25.61,32.66,24.77,35.4,13.83,35.4,13.83,37.31,7.67,33.94,6,33.94,6Z"/></g></g></svg>