<svg xmlns="http://www.w3.org/2000/svg" xmlns:xlink="http://www.w3.org/1999/xlink" viewBox="0 0 53.05 54.94"><defs><style>.cls-1{fill:none;}.cls-2{fill:#444;}.cls-3{fill:#f9ead3;}.cls-4{fill:#f8cb88;}.cls-5{clip-path:url(#clip-path);}.cls-6{clip-path:url(#clip-path-2);}</style><clipPath id="clip-path"><path class="cls-1" d="M36.88,10.5,29.06,28.58,25.21,12.13S12.77,3,6.69,9,5.51,24,5.51,24l.15,6.89,9.4,11.19,5.71,8.14,11.33-1,7.56-9s5.26-10.44,8.18-16.62S50.47,11.46,45.29,8A5.73,5.73,0,0,0,42.1,6.9c-3.29,0-5.22,3.6-5.22,3.6"/></clipPath><clipPath id="clip-path-2"><path class="cls-1" d="M26.58,1.5c-.24,0-10.2.05-10.2,8.89,0,0-.43,6.26,5.05,24.56,0,0,4.45,12,1.48,12.88,0,0-1.7,1.94-10.81-13.29,0,0-5.33-8.19-6.59-10.56A5.91,5.91,0,0,0,2.1,32.2c2.44,6.23,13.7,12.15,13.7,12.15s-6.12,4.76-5.73,8.51c0,0,.09.7,1.17.56A84.67,84.67,0,0,1,25.88,51.5a87.12,87.12,0,0,1,12.94.94c7.81,1.09,4.81-2.25,4.81-2.25s-2.67-4-6.72-5.38c0,0,6.63-5.12,11.56-9.94,0,0,7.33-7.15-.63-11.29,0,0-14.69,28-21.68,24.36,0,0,8.94-14.22,10.72-37.44,0,0,.86-7.79-10.29-9Z"/></clipPath></defs><title>Scallop</title><g id="레이어_2" data-name="레이어 2"><g id="레이어_1-2" data-name="레이어 1"><path class="cls-2" d="M11,54.94A2.28,2.28,0,0,1,8.58,53c-.33-3.18,2.64-6.55,4.64-8.43C9.78,42.56,2.7,37.85.7,32.75a7.75,7.75,0,0,1-.08-6.26,7.57,7.57,0,0,1,2.93-3.2c-1.22-3-3.27-10.18,2.1-15.42A8.81,8.81,0,0,1,12,5.44,15.38,15.38,0,0,1,15.8,6C18.52.07,26.23,0,26.58,0h.17c4.4.48,7.63,2,9.63,4.46a9.14,9.14,0,0,1,1.45,2.58A6.66,6.66,0,0,1,42.1,5.4a7.18,7.18,0,0,1,4,1.34c5.16,3.46,6.45,9.33,3.63,16.23A6.84,6.84,0,0,1,53,27.7c.62,4.21-3.3,8.08-3.46,8.25-3.36,3.28-7.44,6.65-9.79,8.54a17.86,17.86,0,0,1,5.09,4.79,3.09,3.09,0,0,1,.67,3.14c-.78,1.74-3.19,1.74-4,1.74a21.9,21.9,0,0,1-2.88-.23A92.58,92.58,0,0,0,26.5,53h-.58a83.81,83.81,0,0,0-13.44,1.7l-1.05.21-.46,0"/><path class="cls-3" d="M5.51,24S.62,14.87,6.69,9s18.52,3.18,18.52,3.18l3.85,16.44L36.88,10.5S40.1,4.5,45.29,8s5.48,9.41,2.55,15.59S39.66,40.2,39.66,40.2l-7.56,9-11.33,1-5.71-8.14L5.66,30.87Z"/><path class="cls-4" d="M5.51,24A5.91,5.91,0,0,0,2.1,32.2c2.44,6.23,13.7,12.15,13.7,12.15s-6.12,4.76-5.73,8.51c0,0,.09.7,1.17.56A84.45,84.45,0,0,1,25.88,51.5a86.46,86.46,0,0,1,12.94,1c7.81,1.08,4.81-2.25,4.81-2.25s-2.67-4-6.72-5.39c0,0,6.63-5.12,11.56-9.94,0,0,7.33-7.15-.63-11.3,0,0-14.68,28-21.68,24.38,0,0,8.94-14.23,10.72-37.45,0,0,.86-7.79-10.29-9,0,0-10.21-.05-10.21,8.89,0,0-.43,6.26,5.05,24.56,0,0,4.45,12,1.48,12.88,0,0-1.7,1.94-10.81-13.29,0,0-5.33-8.19-6.59-10.56"/><g class="cls-5"><path class="cls-4" d="M21.88,45.24a.49.49,0,0,1-.4-.2C11,31.21,7.33,8.38,7.29,8.15a.5.5,0,1,1,1-.15c0,.23,3.64,22.81,14,36.44a.49.49,0,0,1-.39.8"/><path class="cls-4" d="M30.1,44.91a.54.54,0,0,1-.32-.11.51.51,0,0,1-.07-.71C44.36,26.17,44.78,8.15,44.78,8a.48.48,0,0,1,.51-.49.5.5,0,0,1,.49.51c0,.18-.41,18.53-15.3,36.73a.46.46,0,0,1-.38.19"/></g><g class="cls-6"><path class="cls-3" d="M25.43,45.24l-.15,0a.51.51,0,0,1-.33-.63c5.24-16.63,1.19-42.75,1.14-43A.51.51,0,0,1,26.51,1a.49.49,0,0,1,.57.41c0,.27,4.13,26.61-1.17,43.47a.51.51,0,0,1-.48.35"/><path class="cls-3" d="M15.84,43.15a.48.48,0,0,1-.26-.07A30.71,30.71,0,0,1,2.39,25.89a.5.5,0,1,1,1-.23A29.64,29.64,0,0,0,16.1,42.22a.5.5,0,0,1,.16.69.49.49,0,0,1-.42.24"/><path class="cls-3" d="M36.13,44a.5.5,0,0,1-.43-.24.51.51,0,0,1,.18-.69c9.58-5.69,14.2-17.32,14.25-17.44a.5.5,0,0,1,.93.36C51,26.07,46.27,38,36.39,43.89a.48.48,0,0,1-.26.07"/></g></g></g></svg>