<svg xmlns="http://www.w3.org/2000/svg" viewBox="0 0 27.21 51.65"><defs><style>.cls-1{fill:#444;}.cls-2{fill:#4c4a1a;}.cls-3{fill:#91914d;}.cls-4{fill:#848145;}.cls-5{fill:#74721c;}</style></defs><title>Sea mustard</title><g id="레이어_2" data-name="레이어 2"><g id="레이어_1-2" data-name="레이어 1"><path class="cls-1" d="M5,51.65,6.1,49.47c4.65-9.22.37-13.37.18-13.55l-.09-.08-.09-.12c-1.51-2-3.84-5.61-2.43-7.64-1.07-.82-2.14-2.5-1.24-5.14a5.19,5.19,0,0,0,.34-1.6,3.41,3.41,0,0,1-1.24-4.1,1.58,1.58,0,0,0,.11-1.11c-.9-1.12-1.89-3.25-.48-5a.94.94,0,0,0,.21-.94A5.48,5.48,0,0,1,.74,7.75C.64,6.25.47,4.58.47,4.58L0,0,3.07,3.42A19.53,19.53,0,0,1,4.48,5.1c.94.66,2,1.8,1.9,4.53,0,0,0,.48.18.53a2.46,2.46,0,0,1,.38.14A.82.82,0,0,0,7,9.7,5.94,5.94,0,0,1,6.7,7.23C6.74,6,6.81,4,6.81,4L7,.15,9.45,3.07a7.53,7.53,0,0,1,1.39,2.09c.64.6,1.67,1.85,1.23,4.59,0,0-.06.48.11.55a2.33,2.33,0,0,1,1.25,1.16,3,3,0,0,1,.73-.69.91.91,0,0,0,.47-.81,5.29,5.29,0,0,1,.09-2.59c.31-1.3.63-3.06.63-3.08l.54-3,2.05,2.3A5.19,5.19,0,0,1,19.12,6c.69.9,1.32,2.29.48,4.78,0,0-.13.47,0,.56a2.34,2.34,0,0,1,1,1.15l.36-.18c.61-.27.62-.72.62-.72a6.16,6.16,0,0,1,.55-2.44c.57-1.46,1.25-3,1.25-3l1.76-4.07,1.08,4.3c.28,1.15.4,1.75.45,2.07.56,1,1,2.52-.37,4.95,0,0-.22.43-.08.56A2.34,2.34,0,0,1,27,15.66c0,1.6-1.52,3.23-2,3.69l0,0a1.67,1.67,0,0,0,.4.87l.11.17.07.19c.23.62.46,2.38-2.33,5.17h0s0,0,0,.07a.22.22,0,0,0,.06.11l.07.09.05.11c.23.46,1.17,2.87-3.08,5.84A2.4,2.4,0,0,0,20,34.08c.47,2.54-2.22,11.43-6.57,16.25-.19.26-.37.52-.57.77l-.45.55Zm7.91-35.81a.76.76,0,0,0,.21.31,1.27,1.27,0,0,0,.09-.46,2.33,2.33,0,0,1-.11-.28c-.07.16-.13.3-.18.39Z"/><path class="cls-2" d="M9.11,31.83c-1.55-2-.85-3.51-.85-3.51,2-3.75.55-4.78.55-4.78a1.67,1.67,0,0,1-.89-1.93C9,18.35,8,17.5,8,17.5c-2.15-1.11-1.47-2.44-1.47-2.44s1-3.08-.38-3.45-1.3-2-1.3-2C5,6.57,3.46,6.4,3.33,6.09A19,19,0,0,0,2,4.43s.17,1.69.28,3.22a3.79,3.79,0,0,0,.44,1.83,2.38,2.38,0,0,1-.36,2.61c-1.08,1.34.6,3.23.6,3.23a2.85,2.85,0,0,1,0,2.5,2.05,2.05,0,0,0,.93,2.44s.94.39,0,3.17S4.9,27.09,4.9,27.09s1,.39,0,1.84,2.39,5.89,2.39,5.89,5.43,4.84.15,15.33H9.69c2.8-5.75.82-16.51-.58-18.32"/><path class="cls-3" d="M9.51,36a.22.22,0,0,1-.2-.11c-.19-.28-4.66-6.92-3.54-11.75,1.07-4.59-.5-6.89-.52-6.91s-1.43-1.47-1.32-4.93A9.59,9.59,0,0,0,2.86,7.12a.26.26,0,0,1,.07-.35.26.26,0,0,1,.35.08,9.93,9.93,0,0,1,1.15,5.42c-.1,3.22,1.19,4.58,1.21,4.59s1.74,2.51.62,7.35C5.18,28.82,9.68,35.5,9.72,35.56a.25.25,0,0,1-.06.35.28.28,0,0,1-.15,0"/><path class="cls-3" d="M12.07,32.12c-1.3-2.17-.42-3.6-.42-3.6,2.44-3.46,1.13-4.67,1.13-4.67a1.66,1.66,0,0,1-.64-2c1.42-3.11.61-4.07.61-4.07-2-1.36-1.17-2.6-1.17-2.6s1.4-2.93.05-3.47a2,2,0,0,1-1-2.18c.48-3-1.12-3.31-1.12-3.64S8.31,4.05,8.31,4.05,8.23,6,8.2,7.28a4.29,4.29,0,0,0,.21,1.87,2.39,2.39,0,0,1-.67,2.55c-1.24,1.19.2,3.27.2,3.27a2.86,2.86,0,0,1-.31,2.48A2.07,2.07,0,0,0,8.26,20s.89.5-.39,3.14.6,3.77.6,3.77.95.51-.22,1.82S9.9,34.86,9.9,34.86s4.82,5.49-1.76,15.29h2.4c3.33-5.43,2.68-16.09,1.53-18"/><path class="cls-2" d="M12,36.26a.27.27,0,0,1-.23-.14C11.62,35.82,8,28.68,9.7,24c1.63-4.45.34-6.9.33-6.92s-1.25-1.64-.71-5.06a9.68,9.68,0,0,0-.44-5.23.25.25,0,1,1,.45-.21,9.9,9.9,0,0,1,.48,5.52c-.5,3.18.63,4.69.64,4.7s1.42,2.71-.28,7.37c-1.63,4.45,2,11.62,2.05,11.7a.25.25,0,0,1-.11.33.2.2,0,0,1-.11,0"/><path class="cls-4" d="M19,18.81c-1.75-1.67-.73-2.76-.73-2.76s1.86-2.66.62-3.41a2,2,0,0,1-.67-2.32c.95-2.85-.49-3.45-.51-3.78a3.68,3.68,0,0,0-.84-2s-.32,1.8-.65,3.17a3.52,3.52,0,0,0-.09,1.88A2.4,2.4,0,0,1,15,12c-1.42,1-.34,3.26-.34,3.26A2.8,2.8,0,0,1,14,17.66a2.07,2.07,0,0,0,.2,2.61s.8.64-.89,3,0,3.82,0,3.82.85.65-.52,1.75.63,6.33.63,6.33S17.25,41.49,9,50.15h2.72c4-4.93,5-15.22,4.23-17.29-.92-2.35.18-3.61.18-3.61,3-3,1.88-4.43,1.88-4.43a1.67,1.67,0,0,1-.31-2.1C19.61,19.89,19,18.81,19,18.81"/><path class="cls-5" d="M15.24,36.94a.25.25,0,0,1-.24-.18c-.11-.32-2.51-7.95-.07-12.27,2.32-4.1,1.46-6.75,1.45-6.77s-1-1.82.13-5.11a9.56,9.56,0,0,0,.42-5.22.25.25,0,0,1,.17-.31.24.24,0,0,1,.31.17A9.82,9.82,0,0,1,17,12.77c-1,3.06-.15,4.73-.14,4.75s1,2.9-1.48,7.22c-2.33,4.12.09,11.8.11,11.87a.25.25,0,0,1-.16.32h-.07"/><path class="cls-5" d="M24,18.27S26.29,16,25.21,15A2,2,0,0,1,25,12.63c1.47-2.61.23-3.47.21-3.8s-.45-2.11-.45-2.11-.67,1.55-1.23,3a4.9,4.9,0,0,0-.45,1.83,2.36,2.36,0,0,1-1.52,2.15c-1.57.69-.95,3.14-.95,3.14a2.81,2.81,0,0,1-1.15,2.22,2.07,2.07,0,0,0-.29,2.6s.66.78-1.45,2.81S17,28.21,17,28.21s.71.8-.84,1.62-.58,6.33-.58,6.33,2.68,7-7.32,14h3.28c4.61-4.28,7.41-13.68,7-15.8-.46-2.49.86-3.52.86-3.52,3.49-2.4,2.68-4,2.68-4a1.66,1.66,0,0,1,.1-2.12c2.42-2.42,2-3.6,2-3.6-1.39-2-.19-2.85-.19-2.85"/><path class="cls-4" d="M17.11,38.22a.24.24,0,0,1-.24-.22c-.05-.33-1-8.29,2.25-12.06,3.06-3.59,2.72-6.35,2.71-6.38s-.6-2,1.09-5a9.48,9.48,0,0,0,1.4-5.05.25.25,0,0,1,.23-.27.26.26,0,0,1,.27.22,9.9,9.9,0,0,1-1.46,5.35c-1.58,2.81-1.05,4.61-1,4.63s.4,3-2.82,6.81c-3.07,3.61-2.15,11.6-2.14,11.68a.25.25,0,0,1-.22.28h0"/></g></g></svg>