<svg xmlns="http://www.w3.org/2000/svg" viewBox="0 0 38.17 47.4"><defs><style>.cls-1{fill:#444;}.cls-2{fill:#f9af72;}.cls-3{fill:#f66141;}.cls-4{fill:#d32829;}</style></defs><title>Sea_squirt</title><g id="레이어_2" data-name="레이어 2"><g id="레이어_1-2" data-name="레이어 1"><path class="cls-1" d="M17.88,47.4c-2.15,0-4.73-.27-6.09-2.26A2.41,2.41,0,0,0,11,45a.49.49,0,0,0-.3.07,2.13,2.13,0,0,1-1.19.36c-1.77,0-3.27-2.22-4.21-4.08a5.27,5.27,0,0,0-1.58-1.89A2.64,2.64,0,0,1,2,37.28,2.69,2.69,0,0,1,3.06,35a1.23,1.23,0,0,0,0-.19c-.08-.28-.32-1.14-.54-2.25,0-.25-.15-.88-.15-.88,0-.18-.11-.78-.11-.78,0-.21-.05-.43-.07-.65v-.15c0-.25,0-.51-.05-.77v-.17c0-.25,0-.44,0-.63l0-.27c0-.2,0-.39,0-.57l0-.25a7.76,7.76,0,0,1,.17-.76l-.16-.13a4.08,4.08,0,0,1-2-2.92,2.57,2.57,0,0,1,.59-2,2.63,2.63,0,0,1,2-.87,1.74,1.74,0,0,0,.46-.23C2.35,19.87.17,18.08,0,16.53a2.19,2.19,0,0,1,.51-1.68,2.1,2.1,0,0,1,1.56-.67h.23a12.62,12.62,0,0,0,1.77.11c1.7,0,2.37-.34,2.47-.46a2.38,2.38,0,0,0-.35-1.68A4,4,0,0,1,4.27,8.64,8.1,8.1,0,0,1,6.05,4.07a5.21,5.21,0,0,1,4.21-2,7,7,0,0,1,2.2.37l.11,0c1.22.51,3.19,1.95,3,4.15h0a3.67,3.67,0,0,1,2.81-2h.37l.33.17a5.85,5.85,0,0,1,2.09,2,7,7,0,0,0,1-1.11,3.93,3.93,0,0,0,0-1.21A2.87,2.87,0,0,1,23,2.13,7.89,7.89,0,0,1,28.51,0a6.27,6.27,0,0,1,1.94.29C33.07,1.15,34,1.8,34.11,3.9a3.9,3.9,0,0,1-.73,5,3.26,3.26,0,0,0-1.12,3.26,3.63,3.63,0,0,0,1.52.23,6.3,6.3,0,0,0,.64,0,4.58,4.58,0,0,1,.67-.05,2.18,2.18,0,0,1,2.16,1.2c.62,1.37-.58,2.73-1,3.24a15.82,15.82,0,0,1-1.71,1.69,3,3,0,0,1,.76,1,3.32,3.32,0,0,1-.13,2.71l0,.22c.06.27.13.56.19.89l.06.34c.08.42.15.89.21,1.39,0,.3.07.58.09.88a16.44,16.44,0,0,1,.07,1.83c1.14.82,2.61,2.22,2.32,3.86l-.05.32-.18.26a5.44,5.44,0,0,1-1.66,1.57c0,2.25-.76,7-5.81,11.22l-.08.07c-.42.3-1.61.81-4.87.81-.63,0-1.32,0-2.05,0a11,11,0,0,1-5.55,1.56"/><path class="cls-2" d="M2.1,15.68S7.88,16.49,8,14,7,10.86,7,10.86a2.41,2.41,0,0,1-1.2-2.25A6.87,6.87,0,0,1,7.25,5S8.73,2.79,12,3.86c0,0,2.29,1,2.07,2.71s2.33,1.7,2.33,1.7,1-2.18,2-2.18a3.83,3.83,0,0,1,1.89,2.44s1.11.63,3.23-2.15c0,0,.37-.44.18-2.14S27.51.9,30,1.72s2.63,1.11,2.63,2.63c0,0,1.48,2.07-.19,3.44a4.75,4.75,0,0,0-1.59,4.93c.41,1.55,3.78,1.18,3.78,1.18s2.59-.49.48,1.91-2.37,1.57-2.45,3.35c0,0,2.3.52.89,2.89a21.21,21.21,0,0,1,.74,6.52s2.6,1.55,2.37,2.81c0,0-.92,1.37-2,1.34,0,0,1,6-5.22,11.14,0,0-1.08.78-6.45.45a9.25,9.25,0,0,1-5.14,1.59c-3,0-4.41-.7-5-1.92,0,0-1.74-1-3-.19s-3.23-3.15-3.23-3.15-1.11-2.07-2.33-2.59a1.07,1.07,0,0,1-.22-2c.66-.44.41-1.63.41-1.63S3.06,29.72,3.84,27c0,0,.52-.77-.71-1.7S1.8,23.9,1.73,23.38A1,1,0,0,1,2.84,22.2,3.17,3.17,0,0,0,5,20.9a1.46,1.46,0,0,0-.78-1.63c-1-.55-2.63-2.15-2.7-2.89a.56.56,0,0,1,.59-.7"/><path class="cls-3" d="M32.65,19.16c.08-1.78.34-1,2.45-3.35s-.48-1.91-.48-1.91-3.37.37-3.78-1.18a4.75,4.75,0,0,1,1.59-4.93c1.67-1.37.19-3.44.19-3.44,0-1.52-.15-1.82-2.63-2.63s-6.48.81-6.3,2.51-.18,2.15-.18,2.15c-2.12,2.78-3.23,2.15-3.23,2.15a3.83,3.83,0,0,0-1.89-2.44c-1,0-2,2.18-2,2.18s-2.55,0-2.33-1.7S12,3.86,12,3.86C8.73,2.79,7.25,5,7.25,5A6.86,6.86,0,0,0,5.76,8.6,2.41,2.41,0,0,0,7,10.86S8.17,11.46,8,14s-5.92,1.7-5.92,1.7a.56.56,0,0,0-.59.7c.07.74,1.74,2.34,2.7,2.89A1.46,1.46,0,0,1,5,20.9a3.17,3.17,0,0,1-2.15,1.3,1,1,0,0,0-1.11,1.18c.07.52.18,1,1.4,1.93s.71,1.7.71,1.7a13.39,13.39,0,0,0,.27,5.85c.65,0,1.28-.07,1.88-.07,9,1,17-8,27-7a12.81,12.81,0,0,1,1.26.28,23.08,23.08,0,0,0-.71-4c1.41-2.37-.89-2.89-.89-2.89"/><path class="cls-4" d="M9.4,14.35s.86-3.78,2.09-3.78,3.33,2.17,3.33,2.17-3.64,2.72-5.42,1.61"/><path class="cls-4" d="M21.07,14.23s2.89-2.77,4-2.61,1.17,5.67,1.17,5.67-4.64-1.06-5.14-3.06"/><path class="cls-4" d="M13.9,17.29s1.53-3.36,2.61-3.44,3.17,2.86,2.87,4.47-5.48-1-5.48-1"/><path class="cls-4" d="M12.38,16.87s-4.37-1.36-5.14,0,1.89,5,1.89,5,3.22-1.94,3.25-5"/><path class="cls-4" d="M13.35,23.26s.47-3.8,1.47-3.58,3.11,2.75,3.11,2.75-2.75,1.75-4.58.83"/><path class="cls-4" d="M16.79,27.62s-2.16-3.94-4.19-3.52-2,4.91-2,4.91c2.81.67,6.22-1.39,6.22-1.39"/><path class="cls-4" d="M7.21,31.6s2.14-2.28,1.36-4.7c0,0-3.47-.19-4.11,1S7.21,31.6,7.21,31.6"/><path class="cls-4" d="M20.46,23.18s2.22-3.33,3.33-3.22,2.42,5.33,2.42,5.33-4.67.06-5.75-2.11"/><path class="cls-4" d="M27.26,14.45s2.64-.66,3,.31-1.49,2.53-1.49,2.53-1.62-.48-1.49-2.84"/><path class="cls-4" d="M20.46,29.15c-1.14-.23-3.81,2.45-3.81,2.45,1.5,1.77,5.92,1.83,5.92,1.83s-1-4.06-2.11-4.28"/><path class="cls-4" d="M26.79,28a6.82,6.82,0,0,0,1.78,4.67s2.47-2.44,2.31-3.89S26.79,28,26.79,28"/><path class="cls-4" d="M10.13,32.93c-.87.47-.67,2.86-.67,2.86,2.5,1.22,3.19-1,3.19-1S11,32.46,10.13,32.93"/><path class="cls-4" d="M28.83,35.37c.1-.08,2.55.42,2.69,1.34s-2.69,1.89-2.69,1.89-1.1-2.25,0-3.23"/></g></g></svg>