<svg xmlns="http://www.w3.org/2000/svg" viewBox="0 0 65.96 55.51"><defs><style>.cls-1{fill:#444;}.cls-2{fill:#323330;}.cls-3{fill:#474943;}.cls-4{fill:#fefefe;}</style></defs><title>Seaweed</title><g id="레이어_2" data-name="레이어 2"><g id="레이어_1-2" data-name="레이어 1"><path class="cls-1" d="M27.81,55.32a2.66,2.66,0,0,1-1-.65A95.08,95.08,0,0,1,5.23,31.73L0,24.91l3-2.34L1.74,20.44l2.15-2c.26-.27,3.36-3.14,16.85-5.88A31.13,31.13,0,0,1,26.64,10C28,8.62,33.26,3.26,37.43.58L38.32,0,63.09,19.24l.08.07C65.75,22,66,30.08,66,31.68V32l-.09.25c-1.06,2.95-8.9,6.66-12.21,8.12L53,40.6l-.63-.31a8.32,8.32,0,0,0-2.25-.6c-.64,0-2.94,1.38-5,3-2.31,7.08-14.8,12.1-16.25,12.66l-.52.2Z"/><path class="cls-2" d="M62.09,20.36s-12.11.23-13.5,0S28.31,31.05,28.31,31.05L25.5,43.1h0L4.91,19.54,3.63,20.73,4.91,23,2.09,25.17l4.37,5.7A94.43,94.43,0,0,0,27.8,53.53a1.6,1.6,0,0,1-.16-.19l.66.56-.5-.37a1.48,1.48,0,0,0,.51.38h0s13.78-5.33,15.48-12.15c0,0,4.84-3.77,6.53-3.55a9.21,9.21,0,0,1,2.73.74s10.45-4.59,11.41-7.26C64.46,31.69,64.39,22.73,62.09,20.36Z"/><path class="cls-3" d="M25.5,43.1c5.18-.6,16.74-10.73,16.74-10.73,1.55.39,6.59-3.13,6.59-3.13,2.45-.07,13.26-8.88,13.26-8.88L38.24,1.84c-4.59,3-10.82,9.48-10.82,9.48A28.32,28.32,0,0,0,21.28,14C7.65,16.73,4.91,19.54,4.91,19.54Z"/><path d="M25.66,45.9h0C22.2,45.45,5.52,23.94,4.81,23l.2-.15c.17.22,17.21,22.21,20.62,22.77.77-.34,15-6.51,17.09-11.33l.23.1c-2.17,5-16.64,11.21-17.26,11.47Z"/><path d="M26.11,49.35h0C25.2,49.34,5.87,29.28,2,25.26l.18-.18c9.11,9.48,22.93,23.63,23.91,24,.71-.22,12.7-3.94,17.54-11l.21.14c-5,7.27-17.58,11-17.71,11.07Z"/><path class="cls-4" d="M43.79,41.76c.87-2-1.55-9.39-1.55-9.39-5-7-21-18.38-21-18.38a23,23,0,0,1,6.14-2.67s19.31,13.1,21.41,17.92a16.45,16.45,0,0,1,1.49,9s-1.19-.47-6.3,3.38Z"/><path d="M49.55,31.05l-.06-.24a32.43,32.43,0,0,0,13.8-7.95l.18.17a32.62,32.62,0,0,1-13.92,8"/><path d="M50.39,34.78l0-.25c.09,0,9.48-1.37,13.83-6.32l.18.17c-4.41,5-13.88,6.39-14,6.4"/></g></g></svg>