<svg xmlns="http://www.w3.org/2000/svg" viewBox="0 0 47.93 46.02"><defs><style>.cls-1{fill:#444;}.cls-2{fill:#468733;}.cls-3{fill:#a3b283;}.cls-4{fill:#5eaf37;}.cls-5{fill:#c5db9b;}</style></defs><title>Sesame</title><g id="Layer_2" data-name="Layer 2"><g id="레이어_1" data-name="레이어 1"><path class="cls-1" d="M17.12,46a2,2,0,0,1-.48-.05,2.17,2.17,0,0,1-.38-.11l-.38-.15-.26-.33c-.53-.7-2.89-4.07-2.06-7.52l0-.11c.05-.18.09-.36.13-.53.15-.76,0-.88-.09-1-.75-.78-3.58-1.83-7.82-3.35-2.25-.8-2.73-1.71-2.87-2.18C.71,29.2.47,28.26.63,27.48a2.47,2.47,0,0,1-.5-1.91,2.11,2.11,0,0,1,.17-.5,2.34,2.34,0,0,1-.14-2,2,2,0,0,1,.19-.33,2.62,2.62,0,0,1,.08-2.13,1.86,1.86,0,0,1,.39-.48,2.5,2.5,0,0,1,.44-1.3,2,2,0,0,1,.49-.48,2.93,2.93,0,0,1,.67-1.59,2.18,2.18,0,0,1,.49-.37,2.67,2.67,0,0,1,.58-1,2.15,2.15,0,0,1,.6-.45,2.82,2.82,0,0,1,.61-1.12,2.25,2.25,0,0,1,.92-.61,2.37,2.37,0,0,1,1.53-1.5,2.43,2.43,0,0,1,1.71-1.5,2.33,2.33,0,0,1,2-1.4,2.38,2.38,0,0,1,1.53-.93,2.08,2.08,0,0,1,1.79-1.08h.1A2.12,2.12,0,0,1,15.7,6.3a2.31,2.31,0,0,1,.37,0,2.13,2.13,0,0,1,1.64-.75,2.22,2.22,0,0,1,.37,0A2.23,2.23,0,0,1,19.59,5a1.82,1.82,0,0,1,.38,0A2.56,2.56,0,0,1,21.8,4.2a2.22,2.22,0,0,1,.88.19,2.5,2.5,0,0,1,1.25-.34h0a2.39,2.39,0,0,1,1.82-1H26a3.35,3.35,0,0,0,.4-1.24l0-.14,0-.13A2,2,0,0,1,28.28,0c.87,0,1.53.57,2,1.71a11.3,11.3,0,0,1,.61,2.59,2.19,2.19,0,0,1,.59.46A2.67,2.67,0,0,1,32.08,6a2.14,2.14,0,0,1,.57.43,2.42,2.42,0,0,1,.29.42,1.64,1.64,0,0,1,.53.38,2.25,2.25,0,0,1,1.4.56,2.33,2.33,0,0,1,.53-.06,2.55,2.55,0,0,1,.78.13,2.67,2.67,0,0,1,1.4-.44,2,2,0,0,1,.81.17,3.2,3.2,0,0,0,.78-1l0-.13.08-.11a2.2,2.2,0,0,1,1.73-1c.41,0,1.76.17,1.86,2.32a11.83,11.83,0,0,1-.23,2.65,1.76,1.76,0,0,1,.24.3,2.56,2.56,0,0,1,.39,1.7,1.58,1.58,0,0,1,.26.31,2.17,2.17,0,0,1,.3.75,2,2,0,0,1,.23.27,1.94,1.94,0,0,1,.33.87,1.86,1.86,0,0,1,.43.41,2.44,2.44,0,0,1,.47,1.59,2.42,2.42,0,0,1,.7.75,2.53,2.53,0,0,1,.3,1.61,2.42,2.42,0,0,1,.27.36A2.5,2.5,0,0,1,46.84,21a2,2,0,0,1,.47.82,2.15,2.15,0,0,1,0,1.16,2.85,2.85,0,0,1,.17.35,2.51,2.51,0,0,1,0,1.71,2.66,2.66,0,0,1,.35.8,2.87,2.87,0,0,1-.35,2.06,2.51,2.51,0,0,1,.31.87,2.6,2.6,0,0,1-.25,1.49,1.75,1.75,0,0,1,.12.32,2.29,2.29,0,0,1-.48,2.06,1.85,1.85,0,0,1,.08.71,2.5,2.5,0,0,1-1,1.78,1.43,1.43,0,0,1,0,.36,1.94,1.94,0,0,1-.61,1.28,1.87,1.87,0,0,1,0,.34,1.92,1.92,0,0,1-1.35,1.46v0a2,2,0,0,1-1.7,1.26,2.68,2.68,0,0,1-2.09.85,1.87,1.87,0,0,1-1.65.79l-.44,0a1.75,1.75,0,0,1-1.35.56c-.53,0-1.38-.15-3.85-1.27-.93-.37-1.81-.7-2.65-1l-1-.34-1-.32-.84-.26L27,38.65c-.62-.17-1.21-.31-1.8-.44l-.51-.11c-.74-.16-1.34-.27-1.9-.34l-.64-.09c-.39,0-.7-.07-1-.08h-.36a2.86,2.86,0,0,0-.34,0,2.29,2.29,0,0,0-.34.07l-.18.07-.15.07-.15.11-.06.05A6.28,6.28,0,0,0,19,39a2.67,2.67,0,0,0-.14.38c-.06.16-.1.32-.14.47s-.07.32-.09.48a2.64,2.64,0,0,0,0,.38c0,.19,0,.32,0,.45s0,.31,0,.45.06.32.1.46a4.14,4.14,0,0,0,.37.91l.34.63-.28.67a2.61,2.61,0,0,1-.13.26,2,2,0,0,1-.61,1l-.1.09-.24.16A1.91,1.91,0,0,1,17.12,46Z"/><path class="cls-2" d="M17.78,43.72s-.35.88-1,.32c0,0-1.41-3.91.28-6.58s1.39-3.16-6.2-9.08c0,0-2.17-1.67-1.23-2,0,0-3-3.4-.94-2.82,0,0-1.61-2.31.28-2.19,0,0-1.11-2.41.57-1.83,0,0-.63-2.9.84-2,0,0,0-2,1.25-1.4,0,0,.7-2.49,1.42-1.12,0,0,.59-2.14,1.7-1.17,0,0,.48-2.09,1.84-1.17,0,0,.79-2,1.79-.73,0,0,.81-2.19,2-1,0,0,1.18-2.1,2-.61,0,0,1.31-1.76,1.95-.33,0,0,1.06-2.07,1.74-.51,0,0,1.12-1.62,1.88.36,0,0,1.09-2.1,2.06-.32,0,0,1.25-1.58,1.92.1,0,0,1.86-2,2.37.11,0,0,1.31-1.06,2,.06,0,0,1.59-1.73,1.94-.19a5.16,5.16,0,0,0,2.36-2.41s.78-1.11.86.52A11.23,11.23,0,0,1,40.93,11s1.48,0,.6,2.09c0,0,1.32-.18.69,1.28,0,0,1.19-.6.5,1.34,0,0,1.6-.88.93,1.7,0,0,2,0,.82,2.14,0,0,1.67-.12.55,2.06,0,0,1.7.35.36,1.66,0,0,1.53.33.28,2.08,0,0,1.81.65-.11,2.66,0,0,1.83.83,0,2.47,0,0,1.88.23-.2,1.95,0,0,1.69,1-1.11,2.21,0,0,1.81.82-.59,1.56,0,0,2,.91-1.09,1.16,0,0,1.64,1.33-1.52,1,0,0,1.9,1.06-1.94.83,0,0,1.54,1.61-2.34.28,0,0,2.76,2.46-2.87-.09,0,0-7.28-3-12.65-3.31,0,0-2-.18-2.88,1,0,0-2.36,3.26-.53,6.61"/><path class="cls-3" d="M31.53,19.69c-3.41,7-11.69,14.7-11.69,14.7C34.26,25.91,36.1,29,36.1,29c-3.31-2-16.89,6.41-16.89,6.41,7.18-.07,14.63,4,14.63,4-8.06-3.23-12.65-3.31-12.65-3.31a3.1,3.1,0,0,0-2.88,1c-2.41,3.77-.53,6.6-.53,6.6-.35.88-1,.33-1,.33s-1.43-3.9.28-6.58,1.28-3.35-6.2-9.08c0,0,7.18,3.79,7.54,6.89,0,0,4.8-15.17,1.9-17.38,0,0,3.69.59-.94,15.86,0,0,12.54-11.94,12.29-17,0,0,1.31,0-.14,3"/><path class="cls-4" d="M17.64,43.85s-.05.95-.83.61c0,0-2.55-3.27-1.78-6.33s.34-3.44-8.72-6.69c0,0-2.58-.92-1.8-1.56,0,0-3.89-2.3-1.78-2.39,0,0-2.25-1.69-.42-2.16,0,0-1.8-1.95,0-1.92,0,0-1.5-2.56.17-2.2,0,0-.61-1.86.75-1.72,0,0-.11-2.58,1-1.5,0,0-.11-2.22,1.25-1.64,0,0-.19-2.14,1.39-1.69,0,0,.11-2.2,1.47-1.25,0,0,.08-2.33,1.56-1.56,0,0,.47-2.36,1.69-1.19,0,0,.7-2.08,1.75-.92,0,0,.36-2.3,1.5-1,0,0,.56-1.88,1.89-.25,0,0,.39-2.33,1.86-.94,0,0,.7-1.89,1.86-.5,0,0,1.14-2.47,2.28-.64,0,0,.92-1.42,1.89-.55,0,0,1-2.14,1.78-.78a5.3,5.3,0,0,0,1.5-3s.39-1.31,1,.22a11.42,11.42,0,0,1,.61,3.34s1.39-.5,1.22,1.8c0,0,1.2-.58,1.06,1,0,0,.94-.94.89,1.11,0,0,1.25-1.33,1.41,1.34,0,0,1.89-.62,1.45,1.77,0,0,1.55-.64,1.16,1.78,0,0,1.73-.19.87,1.47,0,0,1.55-.16.91,1.89,0,0,1.92.06.72,2.56,0,0,2,.22.73,2.36,0,0,1.86-.36.41,1.92,0,0,1.92.41-.36,2.44,0,0,2,.22-.08,1.67,0,0,2.17.25-.67,1.44,0,0,2,.75-1.14,1.42,0,0,2.14.41-1.58,1.39,0,0,2,1.05-2.14,1,0,0,3.39,1.47-2.75.8,0,0-7.86-.61-13,.81,0,0-2,.44-2.42,1.86,0,0-1.22,3.83,1.55,6.44"/><path class="cls-5" d="M23.22,16.74c-1,7.74-6.52,17.61-6.52,17.61C27.76,21.8,30.48,24.19,30.48,24.19,26.7,23.3,16.42,35.55,16.42,35.55c6.81-2.31,15.14-.81,15.14-.81-8.67-.55-13,.81-13,.81a3.12,3.12,0,0,0-2.42,1.86c-1.11,4.33,1.55,6.44,1.55,6.44-.05.95-.83.61-.83.61S14.24,41.2,15,38.13s.17-3.58-8.72-6.69c0,0,8,1.36,9.31,4.19,0,0-.17-15.92-3.61-17.11,0,0,3.69-.58,4,15.36,0,0,8.2-15.25,6.36-20,0,0,1.24-.4.8,2.89"/></g></g></svg>