<svg xmlns="http://www.w3.org/2000/svg" viewBox="0 0 30.89 52.91"><defs><style>.cls-1{fill:#444;}.cls-2{fill:#dfebeb;}.cls-3{fill:#874315;}.cls-4{fill:#cf9f7c;}.cls-5{fill:#e0d8d6;}.cls-6{fill:#f5f3f4;}.cls-7{fill:#bf7c45;}.cls-8{fill:#d7b189;}.cls-9{fill:#b7530f;}</style></defs><title>Sesame_oil</title><g id="Layer_2" data-name="Layer 2"><g id="레이어_1" data-name="레이어 1"><path class="cls-1" d="M13.79,52.91C8.9,52.91,5.26,51.75,3,49.46a7.34,7.34,0,0,1-2.26-5c0-.74-.95-20.11-.67-23.77A5.7,5.7,0,0,1,3,15.91a4.92,4.92,0,0,0,.49-.35,6.52,6.52,0,0,0-.31-2.41,4.27,4.27,0,0,1-.47-5.54A4.67,4.67,0,0,1,4.08,6c-.06-.4-.12-.72-.15-.9a2.39,2.39,0,0,1,.19-1.92C4.75,2.06,6.53.48,14.64.06Q15.85,0,16.89,0c4.4,0,7.25.75,8.49,2.24A2.67,2.67,0,0,1,26,4.3L26,5.49A3.71,3.71,0,0,1,28.3,8c1.12,2.78,0,4.28-.89,5-.28.9-.46,2.21.05,2.44,3,1.33,3.39,5.66,3.42,6.15v.12c0,.18-.12,18,0,21.22.15,4.3-2.5,9.52-15.94,10Z"/><path class="cls-2" d="M26.16,12s-1.55,3.78.69,4.78,2.54,4.89,2.54,4.89-.12,18,0,21.28-1.77,8-14.5,8.44S2.22,44.5,2.22,44.5s-1-20-.67-23.66,2.94-3.45,3.33-4.78-.42-3.76-.42-3.76l2.76.16,8.9,1,9.82-1.95Z"/><path class="cls-3" d="M1.94,21.56s3.3,4.61,14.18,3.72,12.1-3.94,12.1-3.94.72-.39.66.5,0,21.39,0,21.39.33,3.77-4.95,6.11c0,0-7.22,2.56-13.78,1.11,0,0-6.11-.56-7.28-5.78Z"/><path class="cls-4" d="M6,9.34l.84,6.22S9,18.28,16.12,17.39s8.15-2,8.15-2l.06-6.47L12.55,9.5Z"/><path class="cls-5" d="M4,8.38S.61,13.06,9.83,13.89,24.38,13,26.16,12s1-3,.68-3.62H4Z"/><path class="cls-6" d="M6.61,6.39S2.83,7.67,4.05,10s19,4.5,22.67-1c0,0,2.5-3.72-14-3.61Z"/><path class="cls-7" d="M5.38,4.73S5.94,8,6,9.34s6.12,2.83,9.34,2.39,8-.73,9-2.81l.19-4.76H14.61Z"/><path class="cls-8" d="M5.38,4.73s-1.5-2.62,9.34-3.17,11,3,8.44,3.83S6.27,8.45,5.38,4.73Z"/><circle class="cls-9" cx="25.64" cy="26.52" r="1.84"/><path class="cls-9" d="M20.55,48.46c8.06-2.61,6.93-15.17,6.93-15.17a1.87,1.87,0,0,0-3.68,0s-.25,10.8-3.92,12a1.89,1.89,0,0,0-.83,2.15C19.49,48.79,20.55,48.46,20.55,48.46Z"/></g></g></svg>