<svg xmlns="http://www.w3.org/2000/svg" viewBox="0 0 43.02 47.17"><defs><style>.cls-1{fill:#444;}.cls-2{fill:#f2e9e5;}.cls-3{fill:#cbc3c0;}.cls-4{fill:#e9e1d4;}.cls-5{fill:#d6c3bd;}.cls-6{fill:#dac2ae;}</style></defs><title>Shellfish</title><g id="레이어_2" data-name="레이어 2"><g id="레이어_1-2" data-name="레이어 1"><path class="cls-1" d="M43,13.29a13.94,13.94,0,0,0-2-5.72l.15-.06L39.93,6.14l-.06-.09-.21-.23C36.24,2,30.49,0,22.58,0h-.16C11.94,0,7.09,3.9,4.85,7.2l-1,1.6.09,0a8,8,0,0,0-.63,1.85l0,.14V11c.19,4.22,5.48,8,6.61,8.79a10.3,10.3,0,0,0,4.44,3.06,9.77,9.77,0,0,1-2.18.65l-.16,0a3.45,3.45,0,0,0-.66-.06c-.72,0-1.92.19-5.83,1.62C2.71,26,1,27.54.29,29.52s-.17,4.45,1.48,7l.06.1.3.44.07.1.22.31.31.4.3.37.38.44.24.25.06,0c6.67,5.44,13.49,8.2,20.25,8.2,6.94,0,11.83-3,13.62-4.72a6.12,6.12,0,0,0,.69-.8l.18-.27a5,5,0,0,0,.37-.63,2.92,2.92,0,0,0,.14-.31,5.13,5.13,0,0,0,.26-.73,1.87,1.87,0,0,0,.07-.22,7.27,7.27,0,0,0,.16-1V38.4h0c.18-2.64-1.18-5.76-3.82-8.79-2.18-2.5-3.68-2.87-4.88-3.17a3.57,3.57,0,0,1-1.81-.86l-.29-.28c9.19-2.8,14.91-7.56,14.32-12"/><path class="cls-2" d="M5.88,7.86C7.82,5,12.33,1.19,22.58,1.23c8.85,0,13.6,2.53,16.17,5.41l.33.38L35.94,8.35l-29.82.2-.53-.24Z"/><path class="cls-3" d="M38.93,6.84a12.53,12.53,0,0,1,2.83,6.61c.48,3.69-5,8.32-14.52,11,0,0-1.23.15.88,2.05s3.34.21,6.58,3.93,5,8.26,2,11.17S20.82,51.33,4.48,38c0,0-8.2-8.35,1.42-11.86s2.15.66,11.86-3.42c0,0,1.49-.54-.36-.61a8.91,8.91,0,0,1-6.72-3.29s-6-4-6.2-7.93A8.5,8.5,0,0,1,5.62,8.26l0-.06S18-3.69,38.89,6.8Z"/><path class="cls-4" d="M10.65,25.83c3.83-.67,1.64-1,4.12-.79a6.91,6.91,0,0,1,4.78-1.79c2.9.1,4.78,3.44,4.78,3.44s2.21,1.1,2.09,3.13c0,0,2.63.79,2.9,3.27,0,0,2.45,1.57,0,4.08,0,0-.45.34.12,1.46a1.72,1.72,0,0,1-1.75,2.6c-1.85-.06-.43,1.42-7.87.69s-9.74-4-9.86-4.66-.85-.33-.85-.33-2.63-1.62-2.42-4.24c0,0,.24-2.17-.15-2.2s-1.18-.85.3-2.06,1.36-2.18,3.81-2.6"/><path class="cls-5" d="M2.84,35.92A15.09,15.09,0,0,0,4.48,38c16.34,13.31,29.27,6.46,32.24,3.56a4.93,4.93,0,0,0,1.51-3.18v-.07s-2.2,6.74-14,6.32S2.8,35.86,2.8,35.86Z"/><path class="cls-6" d="M30.41,35.09c-2.37,2.87-2.91-.75-4.86.45s-6.62,1.86-11.89-.09-.68-3.15-2.86-5a4.73,4.73,0,0,1-1.86-4l0,0a4.84,4.84,0,0,1,1.67-.55c3.83-.66,1.64-1,4.12-.79a6.88,6.88,0,0,1,4.78-1.78c2.9.09,4.78,3.43,4.78,3.43s2.21,1.1,2.09,3.13c0,0,2.63.79,2.9,3.27A2.49,2.49,0,0,1,30.41,35s0,0,0,.07"/></g></g></svg>