<svg xmlns="http://www.w3.org/2000/svg" viewBox="0 0 54.46 46.28"><defs><style>.cls-1{fill:#444;}.cls-2{fill:#956525;}.cls-3{fill:#fbf6d9;}.cls-4{fill:#e5debe;}</style></defs><title>Shiitake_mushroom</title><g id="Layer_2" data-name="Layer 2"><g id="레이어_1" data-name="레이어 1"><path class="cls-1" d="M18.16,46.28A3.45,3.45,0,0,1,15,44.22a6.41,6.41,0,0,1,.44-6.14c.59-.77.58-2.43.56-4.34,0-1,0-2.07.05-3.21a7,7,0,0,0-.57-3.25,31.48,31.48,0,0,1-5.86.91c-.24,0-.47,0-.7,0-4,0-6.09-1.73-7.16-3.18-2.2-3-2.39-7.73-.54-13.74C4.05,2.25,9.45.82,10.36.64A18.34,18.34,0,0,1,15.1,0,18.35,18.35,0,0,1,27.38,4.86a8.62,8.62,0,0,1,5.8-2.51c.64-.05,1.31-.07,2-.07,5.43,0,12.37,1.57,15.57,6,3.68,5.08,5.6,13.06,1.13,18.57a11,11,0,0,1-8.8,4h0a13.16,13.16,0,0,1-3.43-.44c-.57-.11-1.17-.25-1.83-.42l-.69-.2c-3.23,5.9-2.48,8.61-2.47,8.64a5.87,5.87,0,0,1,.18,4.75,3.16,3.16,0,0,1-1.68,1.55,8.12,8.12,0,0,1-3.37.79c-1.57,0-4.22-.59-5.32-4.34-1.08,4.14-3.19,4.76-5.88,5.07A2.88,2.88,0,0,1,18.16,46.28Zm5.85-22a42.88,42.88,0,0,1,1.08,7.22,48.31,48.31,0,0,1,3.35-7.9c-.32-.44-.62-.89-.89-1.34A29,29,0,0,1,24,24.27Z"/><path class="cls-2" d="M27,8.56s.75-4.31,6.3-4.72,13.11,1,16.22,5.3,5.34,11.63,1.19,16.74S40,29,40,29L32.25,16.25,24.85,18Z"/><path class="cls-3" d="M29.29,10.62S31.07,7,36.18,9.36,48.4,17.44,46.85,23.58s-3.79,6.23-8.67,5S27.66,22.47,27.29,16.7,29.29,10.62,29.29,10.62Z"/><path class="cls-4" d="M33.22,38.92s-1.78-4.79,6.37-15.65c0,0,2.94-4.06-.68-5.91s-5.4.31-7.17,3.38-7.26,12.55-6.08,19.07,6.89,3.55,6.89,3.55S34.7,42.77,33.22,38.92Z"/><path class="cls-3" d="M20.7,20.74c1.41-.11,3.48,9.07,2.89,16.25S21,44.47,18.4,44.77s-3-4.07-1.73-5.78.7-4.81.92-8.37a8.52,8.52,0,0,0-1.85-5.85Z"/><path class="cls-2" d="M10.7,2.1s-5.26.74-8,9.63-.89,15.34,6.89,15S32.25,20.77,31.14,14,21.22-.79,10.7,2.1Z"/><path class="cls-3" d="M11.07,10.18S5.14,13.07,4.33,16.1c0,0,1.26-5.92,6.29-8.15,0,0-.37-4.07-1-4.07a5.17,5.17,0,0,1,5.26,2.89s6.15-2.59,9.56.52c0,0-7.11.29-9.11,2.29,0,0,2.07,6.08.37,9.71C15.74,19.29,13.44,10.4,11.07,10.18Z"/></g></g></svg>