<svg xmlns="http://www.w3.org/2000/svg" viewBox="0 0 55.02 43.97"><defs><style>.cls-1{fill:#444;}.cls-2{fill:#f9d3ba;}.cls-3{fill:#ef582f;}.cls-4{fill:#f17635;}.cls-5{fill:#dd5e26;}</style></defs><title>Shrimp</title><g id="레이어_2" data-name="레이어 2"><g id="레이어_1-2" data-name="레이어 1"><path class="cls-1" d="M55,19l-.71-3.39a7.44,7.44,0,0,0-2.48-4.26c-.46-1.25-1.86-4.27-4.66-4.85A15.53,15.53,0,0,1,43,5C37.71,2,30.4,1.09,28.92.94a.05.05,0,0,1,0,0A1.71,1.71,0,0,0,27.52,0h-.2C13.52.89,7.5,7.17,7.25,7.44l-.13.14-.06.07c-.53.17-1.2,1.13-1.24,1.21A15.11,15.11,0,0,0,.53,19.26v.59l.31.35c-.08.57-.15,1.15-.2,1.72a2,2,0,0,0-.46.78l0,.14,0,.15c-.74,7.94,2.48,11.79,3,12.39S4.48,37,4.48,37l1.08,1.29a10.37,10.37,0,0,0,2.68,2.15h0a17,17,0,0,0,5.91,2.39,5.12,5.12,0,0,0,1.37.22A3.59,3.59,0,0,0,16,43l.8.27a13.67,13.67,0,0,0,4.38.69A16.26,16.26,0,0,0,27,42.88l1.45-.62a22.08,22.08,0,0,0,10.6-7,2.37,2.37,0,0,0,.63-1.52,3.58,3.58,0,0,0-.06-3.25A3.47,3.47,0,0,0,37.82,29c-.57-4.39-3.15-4.74-4-4.74a1.88,1.88,0,0,0-.38,0h0l-.36,0a1.15,1.15,0,0,1-.36-.05l0-.08a4.14,4.14,0,0,0-3.15-2.34A7.27,7.27,0,0,0,28,21.66a6.43,6.43,0,0,0-5.78,3.61,1.46,1.46,0,0,1-.84.46c-.24,0-.49-.34-.55-.44a6.62,6.62,0,0,0-3.61-2.54,6.51,6.51,0,0,0-.19-.94,5.51,5.51,0,0,0,1.19-2.63c9.16-2.31,11.84-6.32,12-6.49l.09-.14,0-.08a8,8,0,0,0,2.42.39l.4,0c3.52,2.2,9.42,2.38,11.21,2.38.54,0,1,0,1.48,0H46a13.37,13.37,0,0,1,5.37,1.69l2.9,1.74h0Z"/><path class="cls-2" d="M38.14,33.56s-10.86,12.94-26,6.5S3.42,15.72,3.42,15.72,8.2,1.89,29.09,2.72c0,0,7.77.67,13.11,3.73a16.51,16.51,0,0,0,4.39,1.61c2.44.5,3.52,4.11,3.52,4.11a5.38,5.38,0,0,1,2.17,3.47s-3.81-2.33-6.81-2.17-8.86-.22-11.66-2.27A5.84,5.84,0,0,1,30,10.47s-6.78,6.09-13.44,7.12c0,0-1,3.49-2,3.55a7.14,7.14,0,0,1,.7,2.67s3.19.53,4.22,2.25c0,0,1.42,2.55,3.92.11a5,5,0,0,1,5.89-2.86,2.63,2.63,0,0,1,2.05,1.55s.31,1.17,2.31.89c0,0,2.33-.41,2.69,3.95,0,0,0,.55.47.58s2.61.72,1.28,3.28"/><path class="cls-3" d="M29.52,10.54a6.15,6.15,0,0,0,4,.75c2.94,2.16,9.08,2.57,12.23,2.39S52.84,16,52.84,16a5.63,5.63,0,0,0-2.27-3.64S49.43,8.53,46.87,8a17.21,17.21,0,0,1-4.6-1.69c-5.59-3.2-13.74-3.9-13.74-3.9s1.78,1.13,1.24,4a11.13,11.13,0,0,0-.25,4.09"/><path class="cls-4" d="M27.86,40.87A20.45,20.45,0,0,0,38,34.24s1-1.11-1-1a12.49,12.49,0,0,0-3.67.7s-4.9,2.37-6.12-4.19c0,0,1-1.4-1.92-1.07,0,0-1.74-.33-2.18.44,0,0-1.19-.25-.52.82,0,0,1.7,2,1.41,6.33,0,0-.28,1.45,1.67,1,0,0,1.33-.78,2.25,3.63"/><path class="cls-4" d="M16.86,37s.56-6.81,1.67-6.48.82-.93.82-.93-.23-1.11.33-1a5.93,5.93,0,0,1,1.74,1.18c1.81,2,1.52,6.19,1.52,6.19,0,3.26,2.67,2,2.67,2s-.49,2.74.85,3.59a14.31,14.31,0,0,1-9.19.36s1-.91-.41-4.84"/><path class="cls-4" d="M14.49,41.35a14.31,14.31,0,0,1-8.33-4.81s3-2.37,3.07-4.7a1.79,1.79,0,0,1,1.1-1.93c1.39-.74,1.27-1.15,1.27-1.15a.64.64,0,0,1,.67-.37A4.32,4.32,0,0,0,15.79,26s1-1.7,1.89,1.26c0,0,.37,1.78-.82,5.63s-.29,5.7-.29,5.7,1.28,3.8-2.08,2.74"/><path class="cls-4" d="M4.27,34.39S.86,31,1.6,23.13c0,0,.2-.7,1.29,0,0,0,2-2,3.53-1.41,0,0,6.15-1.39,8.74-.58,0,0,1.52,3-.37,3.25,0,0,.89.93.07,1.63,0,0-1.64,1.77-2.83,1.62,0,0-.68,0-.72.5,0,0-.17.78-2.29,1.78a1.5,1.5,0,0,0-.46,1.64c.33,1-2.93,4.47-2.93,4.47s-.86-1-1.36-1.64"/><path class="cls-4" d="M15.49,20.89c.85.35,1.37-2.61,1.37-2.61s-3.63-7.15-6.26-6.81A3.76,3.76,0,0,1,6.86,10,13.69,13.69,0,0,0,2,19.28a6.41,6.41,0,0,0,5.46,1.61c3.67-.42,5.78-.91,8,0"/><path class="cls-5" d="M8.35,8.46s5.7-6.11,19.07-7c0,0,.67,0-.48,1.71a.53.53,0,0,0,.21.77c.53.3.9,1.78.9,1.78s1.55,4.22.85,6.11c0,0-2.44,3.78-11.48,6,0,0-2.48-6.34-6.52-7.12,0,0-3.44.12-3.55-1.59a1.54,1.54,0,0,0,1-.67"/></g></g></svg>