<svg xmlns="http://www.w3.org/2000/svg" viewBox="0 0 52.87 32.09"><defs><style>.cls-1{fill:#444;}.cls-2{fill:#8c3445;}.cls-3{fill:#a03545;}.cls-4{fill:#ddbfb6;}.cls-5{fill:#c23b4a;}.cls-6{fill:#f5d7cd;}</style></defs><title>Sirloin_3</title><g id="Layer_2" data-name="Layer 2"><g id="Layer_1-2" data-name="Layer 1"><path class="cls-1" d="M38.6,26.28a8.17,8.17,0,0,0,1.18-.7,8.59,8.59,0,0,0,1.23.09,7.38,7.38,0,0,0,4.14-1.16l.06-.05.06-.05a6.11,6.11,0,0,1,4-1.29c.4,0,.66,0,.69,0l.11,0h.1a2.24,2.24,0,0,0,1.63-.72c.87-.94,1.22-2.87,1-5.73a2.62,2.62,0,0,0,0-.29,12.54,12.54,0,0,0-1.26-4.56,9.06,9.06,0,0,0-4-4.49,5.08,5.08,0,0,0-4.71-3.63h-.69l0,0L42,3.67a36.74,36.74,0,0,0-9-2.58L32.56,1C31.38.82,30.21.65,29.09.53A50.73,50.73,0,0,0,23.22.05h-.46c-1.24,0-2.15,0-2.57,0h-.38c-5,.35-7.44,1.15-8.62,2H11a4.75,4.75,0,0,0-1.63.3l-.13,0a5.45,5.45,0,0,0-.55.24l-.19.08a8.64,8.64,0,0,0-.77.45A16.18,16.18,0,0,1,5.13,4.39l-.41.17L4,4.82l-.09,0a4.25,4.25,0,0,0-.67.43l0,0L3,5.57q-.21.2-.42.42l-.06.06A6.66,6.66,0,0,0,.9,9h0a15,15,0,0,0-.61,3.56c-.07.54-1,8.24,1,12.59A3.21,3.21,0,0,0,2.82,27.6a3.78,3.78,0,0,0,1.26,1.58c.52,1,1.69,2.8,3.6,2.8h.26a5.21,5.21,0,0,0,1,.09h.24a5.72,5.72,0,0,0,.62,0c.44,0,1,0,1.59-.09a44.69,44.69,0,0,0,5-.74h.05l.22.07a3,3,0,0,0,.83.1H18a4.1,4.1,0,0,0,1.08-.28l.15,0a3.33,3.33,0,0,0,.56.05l.34,0h0c1.12,0,2.58-.11,2.95-.14h.05c.42,0,1.71,0,5.31-2.06,0,0,.32-.17.69-.4.06,0,.11,0,.11,0l.45,0a5.09,5.09,0,0,0,1.62-.46l.21-.09a7.8,7.8,0,0,0,1.52-.9,9.25,9.25,0,0,1,1.29-.68,3,3,0,0,1,.72-.19A5.06,5.06,0,0,0,38.6,26.28Z"/><path class="cls-2" d="M11.2,24.73l-.53.15.53-.8-.52-2.28L6.59,19.34,4,15.16s-.41-3.66-.47-3.79a11.26,11.26,0,0,0-1.29-.87l-.46,2.25s-1.08,8.14,1,12.08c0,0-.28.92,1.25,1.75C4,26.58,4.5,28,5.2,28c0,0,1.11,2.8,2.8,2.42H8a4.5,4.5,0,0,0,1.22.11c.13,0,.91,0,.91,0L12.09,28l.48-2.28Z"/><path class="cls-3" d="M51.31,16.56a.85.85,0,0,1-.05.36l.05-.36-2-.83-5.48-1-9.41-.45H25.8l-16,7v5.49C9.22,29.7,8,30.45,8,30.45a4.27,4.27,0,0,0,1.25.11c1.86.22,7.42-.89,7.42-.89.75.66,2.3-.14,2.3-.14.31.31,4.12,0,4.12,0,1.61.08,5.63-2.45,5.63-2.45a5.11,5.11,0,0,0,3-.94c3.56-2.33,4.17-1.22,4.17-1.22,1.33,1,3.49-.93,3.49-.93a6.42,6.42,0,0,0,4.89-.7c2.36-2.11,5.88-1.62,5.88-1.62C51.74,21.67,51.31,16.56,51.31,16.56Z"/><path class="cls-4" d="M20.56,27.8s-.76-2.42-2.71-2-2.38-.26-2.38-.26c-.41,0-2.43.26-2.43.26A1.43,1.43,0,0,1,11.87,28s-2,.14-.57,2.55a43.92,43.92,0,0,0,4.77-.7h0l.6-.13a1.27,1.27,0,0,0,1.11.24,2.85,2.85,0,0,0,.94-.26c.27-.09.25-.12.25-.12s.5.13.5.13a2.15,2.15,0,0,0,.57,0C21.29,29.45,20.56,27.8,20.56,27.8Z"/><path class="cls-5" d="M9.84,26.78s-5.12-2.45-4.39-4.17c0,0,.55-.86-.67-1.14,0,0-3-.33-3-8.52,0,0,0-5.23,2.86-6.75a22,22,0,0,0,4-1.89s1.77-1.23,3.08-.78c0,0,.75-1.5,8.25-2,0,0,13.39-.17,21.44,3.53,0,0,1.06.75,1.48.22a3.63,3.63,0,0,1,3.44,3.28s2.08.22,3.92,4a10.84,10.84,0,0,1,1.11,4s.64,1.86-6.42,2.22c0,0-5.8,2.44-11.19,1.72,0,0-8.89,5.72-14,4.86C19.7,25.36,11,25.45,9.84,26.78Z"/><path class="cls-6" d="M4.64,6.2a3.32,3.32,0,0,1,0,1.61c-.25.5-.5.5-.58,0a1,1,0,0,0-.53-.7A5.13,5.13,0,0,0,2.36,9.36s.74.91,1.19-.41c0,0,.62-.59.84,1.25A1.42,1.42,0,0,0,5.06,12s1.41-1.67.61.53c0,0-.31,1.55-1.17,1.11,0,0-.14,1.14.61.83,0,0,.56-1,1.2.23a3.7,3.7,0,0,1,.55,2S7,18,7.47,16.25c0,0,.48-1.14-1-2.69,0,0-.85.22,1-1.75s1-2.39,1-2.39S7.84,9,9,8.14c0,0,1-.89-.59-.11,0,0-2.16.86-.47,1.69,0,0,.87.08-.92,1.95,0,0-1.13,1.47-.38-.45,0,0,.91-1.77-1.28-.36,0,0-.89.56.19-2a2.52,2.52,0,0,1,1-2.63C8,5.42,7.74,6.89,9.25,5c0,0,1.81-1.86.42,1.47,0,0,.36,1.38,1.53-2a1.79,1.79,0,0,1,.47-1s-1.22-.45-3.08.78A16.11,16.11,0,0,1,4.64,6.2Z"/><path class="cls-6" d="M17.93,12.92s-2.93,3.47-2-.17c0,0,.56-1.17-1.33,0s-2.17.83-2.17.83-1.61.52.83.83-.58,4-.58,4-1.67,1.79-.11,3.23c0,0-.22,2.93.51,4.18,0,0,1.82-.22,2.43-.26a5.74,5.74,0,0,1-1.77-4.21,3.43,3.43,0,0,1,1.94-3.5s4,.14,3.7-1a2.29,2.29,0,0,1,.36-3.11s1.77,1,1.41-.5c0,0-.11-.28-1.27-.14,0,0-.42-.53.58-.53,0,0-.31-.64.69-.78a3.91,3.91,0,0,1,2.2-3.39s1.47-1.14.61-2.47c0,0,4,.93,4.69-2.44,0,0,2.81.21,4.17-.88a76.19,76.19,0,0,0-10-1s-.46,1.06,3.8.81c0,0,2-.19-1,2.31,0,0-.89,1-4.25-.36A5,5,0,0,0,15.7,6.83S14.53,8.61,17.5,6s6.64,0,4.92,2a27.28,27.28,0,0,0-4.58,5.06"/><path class="cls-4" d="M35,22.7c-.26-.51,1-1.71,1.36-2l.08-.07h0l-2.75-.1,0,0c.15.07.59.48-.39,2.7a4,4,0,0,0-.27,1.16h0s-.09.81.11.89c0,0,.34-.17.69-.31,1.58-.58,2,0,2,0a.82.82,0,0,0,.2.12h0a1.46,1.46,0,0,0,.95.16h.06C37.52,23.68,35.31,23.28,35,22.7Z"/><path class="cls-4" d="M30,22.56c-.79.3-2.12,1-2.12,1h0c.12.1.91.88-.16,4.08,0,0,.52-.29,1-.58a4.6,4.6,0,0,0,2.56-.65,5.75,5.75,0,0,0,1-.63S29.84,25.51,30,22.56Z"/><path class="cls-6" d="M36.45,20.6c-.81-.21-.89-1.27-.89-1.27A7,7,0,0,1,32,18.86c-5.58.17-5.66-1.14-5.66-1.14-.05.61-3.62,1.31-3.62,1.31s2.81-.14,3,1.19,2.19,3.35,2.19,3.35,1.13-.49,2.12-1c0,0-.86-1.39-.17-2.11s3.84.05,3.84.05a12,12,0,0,0,2.37.11h.35l0,0Z"/></g></g></svg>