<svg xmlns="http://www.w3.org/2000/svg" viewBox="0 0 49.46 44.93"><defs><style>.cls-1{fill:#444;}.cls-2{fill:#e70012;}.cls-3{fill:#6b3904;}.cls-4{fill:#82000a;}.cls-5{fill:#dfebeb;}.cls-6{fill:#6b3906;}.cls-7{fill:#c0c0c2;}</style></defs><title>Soy_sauce</title><g id="Layer_2" data-name="Layer 2"><g id="레이어_1" data-name="레이어 1"><path class="cls-1" d="M2.69,29.92l.2-.07c.7-.17,2.08-.86,2-3.54,0-2,0-3.32,0-3.34L5,19.31,2.39,21.87C1.94,22.3-.27,24.59,0,27c.32,2.63,1.76,2.91,2.36,2.91Z"/><path class="cls-1" d="M6,28.62,3.62,31.77a9,9,0,0,0-1.51,5.78c.21,2.42,1.44,2.78,2.15,2.78h0a2.1,2.1,0,0,0,1.56-.75,3.75,3.75,0,0,0,.9-2.71c-.13-1.21-.4-4.34-.4-4.34Z"/><path class="cls-1" d="M48.56,26.61c-2.05-4.13-8.19-9.41-11.87-12.56-.94-.81-1.75-1.51-2.16-1.9a42.81,42.81,0,0,1-3.93-4.6,15.21,15.21,0,0,1-1.72-2.73C28.05,2.82,25.56,0,22.6,0a4.38,4.38,0,0,0-1.68.33l-.69.28a16.69,16.69,0,0,0-8.89,7.13c-2.76,4.27-4.69,5.2-4.69,5.2L6.44,13l-.18.14a1.82,1.82,0,0,0-.64,1.56A2.38,2.38,0,0,0,6.9,16.51l-.42.92a14.33,14.33,0,0,0-1.19,5.28c0,2.09,1.19,3,2.32,3h0A2.15,2.15,0,0,0,9.19,25a3,3,0,0,0,.74-2.31C9.82,21,9.35,18,9.33,17.83l-.09-.58,1,0,.07-.56a18.7,18.7,0,0,0,2.22-1.56c.18-.15.39-.32.52-.41a4,4,0,0,1,.58.31,6.75,6.75,0,0,1,1.47,2.23,99,99,0,0,1,5,12.71c.11.35.22.75.35,1.18a34.2,34.2,0,0,0,5.27,11.5,5.89,5.89,0,0,0,4.95,2.31h0c4.61,0,10.1-3.82,10.3-4C44.57,38.6,52,33.67,48.56,26.61Z"/><path class="cls-2" d="M29.39,8.44a16.73,16.73,0,0,1-1.9-3c-.78-1.89-3.5-4.7-6-3.67s-5.72,2-8.89,6.83-5.39,5.78-5.39,5.78-.47.39.61,1,1.11.39,1.11.39c3.67-1.94,3.23-3.39,5.5-2a7.87,7.87,0,0,1,2,2.81,15.57,15.57,0,0,0,6.71-3C26.63,11,29.39,8.44,29.39,8.44Z"/><path class="cls-3" d="M7.85,18.05a12.9,12.9,0,0,0-1.06,4.64c0,2.25,1.75,1.81,1.64.11S7.85,18.05,7.85,18.05Z"/><path class="cls-3" d="M3.43,22.94S1.29,25,1.52,26.83s1,1.59,1,1.59,1,0,1-2.09S3.43,22.94,3.43,22.94Z"/><path class="cls-3" d="M4.82,32.67A7.44,7.44,0,0,0,3.6,37.42c.25,2.77,1.75.83,1.63-.39S4.82,32.67,4.82,32.67Z"/><polygon class="cls-4" points="7.62 14.66 8.13 14.28 8.99 15.14 8.65 15.33 7.62 14.66"/><polygon class="cls-5" points="22.21 30.01 18.53 19.54 17.04 16.68 18.25 13.46 19.04 11.54 25.34 8.79 29.39 9.02 32.26 12.83 36.41 16.53 28.75 26.91 22.21 30.01"/><path class="cls-6" d="M21,24.74s8.92-2.67,13.85-9l.75-.18,2,1.75,2.89,2.64,2.11,2,1.89,2.2,1.73,2.19,1,1.92L47.57,30,47,32.42l-2.22,3.3-2.92,2.14-3.33,2.31-3.92,1.91-3.39.86-2.72-.51-2.3-2.63-2.39-4.63-1.5-5-1.3-4L20.52,25Z"/><path class="cls-7" d="M47.21,27.28c-2.44-5-11.72-12.11-13.72-14.06a43.71,43.71,0,0,1-4.1-4.78L25.32,8.3l-6.78,3.12-2.09,5.11a98.47,98.47,0,0,1,5.09,13c.78,2.5,1.84,7.44,5.39,12.22s13.23-2,13.23-2C45.88,35.94,49.66,32.22,47.21,27.28ZM39.6,38.89c-.07,0-5.1,3.54-8.92,3.54a3.39,3.39,0,0,1-2.94-1.31,31.47,31.47,0,0,1-4.88-10.69c-.13-.45-.25-.87-.36-1.23a105.17,105.17,0,0,0-4.95-12.72l1.77-4.32,6.2-2.85,3.36.12a44.54,44.54,0,0,0,3.91,4.51c.46.45,1.26,1.13,2.27,2,3.3,2.83,9.44,8.11,11.25,11.78S46.24,34.51,39.6,38.89Z"/></g></g></svg>