<svg xmlns="http://www.w3.org/2000/svg" viewBox="0 0 30.21 49.6"><defs><style>.cls-1{fill:#444;}.cls-2{fill:#f7f2e2;}.cls-3{fill:#e4c898;}.cls-4{fill:#dab26d;}.cls-5{fill:#e9c87b;}.cls-6{fill:#faebce;}</style></defs><title>Soybean_paste_1</title><g id="Layer_2" data-name="Layer 2"><g id="레이어_1" data-name="레이어 1"><path class="cls-1" d="M16.73,49.6a28.61,28.61,0,0,1-5.2-.89,5.59,5.59,0,0,1-1.8.28,6.17,6.17,0,0,1-1.34-.14,2.77,2.77,0,0,1-1.85-1.57c-3.16-1.06-3.75-1.65-4-1.91C2.05,44.89.77,43.61,0,12.94l0-.75.59-.46c.22-.18,5.17-4,9.48-4.5l0-.12a3.17,3.17,0,0,1,1.12-3A6.2,6.2,0,0,1,12.29.57L12.75,0h6.1L19,1.34a6.72,6.72,0,0,1-.62,3.51,4.53,4.53,0,0,1,.73,2.81,6.84,6.84,0,0,1,2.32.9c4.91.49,5.77,1.56,6,2a3.29,3.29,0,0,1,.7.55c1.45,1.48,2.12,4.67,2,9.76-.14,9.28,0,21.69,0,21.81v.14l0,.13a3.59,3.59,0,0,1-2.46,2.82,4.71,4.71,0,0,0-.64.61s0,0,0,0c-.49,1.93-2.33,3-5,3h0c-.43,0-.71,0-.71,0l-.78-.09c-1.8.08-3.37.25-3.38.25Z"/><path class="cls-2" d="M16.74,1.5v.83l-4,3.39S12.29,3,13.47,1.5Z"/><path class="cls-3" d="M15.58,15.79l.68-2.89,7.55-2,2.45.82s2.59-.3,2.44,9.11,0,21.85,0,21.85a2.12,2.12,0,0,1-1.41,1.63c-1.19.3-2.68,3.48-5.16,3.48s-5.14.3-5.14.3l-4.52-9.78,1.2-21.78Z"/><path class="cls-4" d="M1.52,12.9S2.26,43,3.59,44.31s11.48,4,13.41,3.78-1.21-18.45-1.42-32.3l-1.9-3.58-7-.49Z"/><path class="cls-5" d="M1.52,12.9s5.26-4.14,9.26-4.22c0,0,8.15-.44,10.07,1.33,0,0,5.85.52,5.41,1.71s-10.68,4.07-10.68,4.07S2,14.16,1.52,12.9Z"/><path class="cls-2" d="M16.64,5.22s-7,2.86-2.69,5.66S23.38,12,22.87,26.57s1.9,18.75-1.39,21.35c0,0,3.56.38,4.14-1.88s.7-30.94-3.22-33.17S13.76,9.53,16.64,5.22Z"/><path class="cls-6" d="M17.5,1.5c.24,2.15-1.14,4.43-3,5.94-2.5,2-4.28-1.38-1.73-2.55A7.78,7.78,0,0,0,15.84,1.5Z"/><path class="cls-6" d="M16.38,4.84s3.08,2.28-.45,5.73-7.51.82-7.23,10.19.69,23,.69,23l2,3.42a4.13,4.13,0,0,1-2.67.22C7,47.05,6.52,40.21,6.52,37.18V17.39s-.06-4.26,2.63-5.21A11.5,11.5,0,0,0,16.38,4.84Z"/></g></g></svg>