<svg xmlns="http://www.w3.org/2000/svg" viewBox="0 0 53.04 25.81"><defs><style>.cls-1{fill:#444;}.cls-2{fill:#849c21;}.cls-3{fill:#578e17;}.cls-4{fill:#687a19;}.cls-5{fill:#609f1d;}.cls-6{fill:#b9c442;}.cls-7{fill:#f9d682;}</style></defs><title>Squash</title><g id="Layer_2" data-name="Layer 2"><g id="레이어_1" data-name="레이어 1"><path class="cls-1" d="M38.59,25.81A4,4,0,0,1,35,23.75a30.58,30.58,0,0,1-5.13-7c-2.77-.26-5.57-.51-7.59-.51-10.56,0-16.83-1.78-19.13-5.44a3.36,3.36,0,0,1-2-.8A2.37,2.37,0,0,1,.55,7.62,2.84,2.84,0,0,1,0,6a2.25,2.25,0,0,1,.69-1.7A2.88,2.88,0,0,1,1,3.08,1.79,1.79,0,0,1,2.58,2a1.7,1.7,0,0,1,.91.27h.33l.92,0C5.72,1.42,7.31,1,9.56,1a29.66,29.66,0,0,1,4.27.36,37.07,37.07,0,0,0,5.56.37,116,116,0,0,0,13.17-1A78.62,78.62,0,0,1,40.72,0c.39,0,.76,0,1.1,0,4.84.34,9,2.91,10.3,6.33A3.4,3.4,0,0,1,53,9a3.59,3.59,0,0,1-.75,2.59,1.72,1.72,0,0,1-.71.45,10.42,10.42,0,0,1-4.52,3.59c.36.83,1.74,5-3.81,8.52A9,9,0,0,1,38.59,25.81Z"/><path class="cls-2" d="M6.4,3.62s-3.36.43-3.67,0S1.9,4.33,2.4,5c0,0-.92.19-.9.92a1.14,1.14,0,0,0,.9,1.19s-.83,1.23-.26,1.8,4,.5,4,.5Z"/><path class="cls-3" d="M5.21,4.94S4,1.41,13.61,2.86,36.35,1.15,41.72,1.53s9.66,3.79,9.34,7.58-5.24,5.75-9,6.57-14.28-.95-19.84-.95-16-.44-18.19-5.37a1.67,1.67,0,0,1,.6-2.16S4,5.36,5.21,4.94Z"/><path class="cls-4" d="M50.72,7.41a1.65,1.65,0,0,0-.95,1.7,1.37,1.37,0,0,0,1.1,1.52s.7.28.67-1.61S50.72,7.41,50.72,7.41Z"/><path class="cls-5" d="M36.23,22.88s-7.87-7.81-5.45-11.79,4.89-4.22,6.87-2.87,7.09,6.87,7.09,6.87L43.35,19.9Z"/><path class="cls-6" d="M36.23,22.88s-1.24-4.16,3.36-7,6,.17,6,.28,1.84,3.54-3.2,6.77S36.23,22.88,36.23,22.88Z"/><path class="cls-7" d="M38.59,23.81A1.91,1.91,0,0,1,36.7,22.7c0-.12-1.05-3.81,3.15-6.45a6.36,6.36,0,0,1,3.22-1.16,2.26,2.26,0,0,1,2.11,1.23c.27.55,1.32,3.36-3,6.14A7.06,7.06,0,0,1,38.59,23.81Z"/></g></g></svg>