<svg xmlns="http://www.w3.org/2000/svg" viewBox="0 0 29.77 50.31"><defs><style>.cls-1{fill:#444;}.cls-2{fill:#dc564a;}.cls-3{fill:#230505;}.cls-4{fill:#ffb8a2;}</style></defs><title>Squid</title><g id="레이어_2" data-name="레이어 2"><g id="레이어_1-2" data-name="레이어 1"><path class="cls-1" d="M19,50.31a1.7,1.7,0,0,1-1.53-1,3.83,3.83,0,0,1-.05-2.81,2.55,2.55,0,0,1-.88-1.2l0-.1-.14.11a2.39,2.39,0,0,1-.55,2,1.9,1.9,0,0,1-1.43.68,2,2,0,0,1-1.78-1.23,6,6,0,0,1-.31-.78l-.75.61-.95-1.07a4.15,4.15,0,0,1-1-3,4.72,4.72,0,0,1-3.33-1.8,2.25,2.25,0,0,1-.42-2.3,1.66,1.66,0,0,1,1.52-.9,2.05,2.05,0,0,1,.57.08l.07,0,.07,0a3.82,3.82,0,0,0,1.35.3h.12A3.31,3.31,0,0,1,7,36.88a2.55,2.55,0,0,0-1.62-.83L0,35.82l4.68-2.58a6.48,6.48,0,0,1,2.84-.77,3.36,3.36,0,0,1,2.39.91.78.78,0,0,0,.43.24.58.58,0,0,0,.14,0c.69-.66,1.25-1.18,1.7-1.57a3.66,3.66,0,0,1,.3-3.26c-1.17-1.78-1.17-5.18-.58-7.1a17,17,0,0,0,.53-3.74,4.78,4.78,0,0,1-1.49-1.86,15.81,15.81,0,0,0-3.15-3.63L7,11.78l.29-1c.21-.67,1.42-4.18,4.27-5a6.7,6.7,0,0,0,3.06-2.49A2.72,2.72,0,0,0,15,2.35,2.25,2.25,0,0,1,16.62.09,1.76,1.76,0,0,1,17.17,0a1.62,1.62,0,0,1,1.57,1.19C19.21,2.33,20.2,4,21,4.27a16.64,16.64,0,0,1,6.29,5c.8,1.37.14,2.95-1.71,4.22a7.44,7.44,0,0,1-2.26,3,2.87,2.87,0,0,0-.87.91,17.32,17.32,0,0,0,.23,3.83c.28,1.21,1,5-.3,6.75a1.4,1.4,0,0,0-.32.67,3.54,3.54,0,0,1,.65,2.5,3.24,3.24,0,0,1-.22.8,5.88,5.88,0,0,1,2,1.2l.07.09a3.62,3.62,0,0,0,2,1.09,3.22,3.22,0,0,1,3.25,3.43,2,2,0,0,1-.44,1.59l-.45.48-.7,0a1.85,1.85,0,0,1-1.57-1l-.07-.12a2.35,2.35,0,0,0-.18-.31,4.91,4.91,0,0,1-1.27.16,6,6,0,0,1-1-.09c-.23,2.72.29,3.09.49,3.23l.18.13a1.76,1.76,0,0,1,.75,1.89A1.83,1.83,0,0,1,24,45.07a2.27,2.27,0,0,1-.63.08,2.71,2.71,0,0,1-1-.17,1.92,1.92,0,0,1-.41.82,8.09,8.09,0,0,1-1.2,3.34A2.23,2.23,0,0,1,19,50.31"/><path class="cls-2" d="M14.74,45.22s-.11-1,.24-.85,1.95-1.26,1.67-4.32-.5-3.89.45-4.44.87,3.46.31,4.54.33,5,.85,5.16.28-2.29.28-2.29-.17-1.28.48-1.63a15.82,15.82,0,0,0,.52,3.09,2,2,0,0,1-.16,1.17s-1.09,2.1-.6,3,2-2.57,1.66-3.49c-.08-.19-.1-.39-.16-.58,0,0,.59.67.69-.07s-.58-.5-.58-1.58A3,3,0,0,1,21,41.16s1.2,2.87,2.68,2.45c0,0,.7-.11.15-.54s-1.65-.81-1.2-5.18a1.94,1.94,0,0,0-.82-1.76s2.57,1.52,4.46.77c0,0,.86-.37,1.63,1.19,0,0,.47.75.4-.19s-.14-1.91-1.89-2.06a5.12,5.12,0,0,1-3-1.6,4.39,4.39,0,0,0-2.76-1.12s-.65,0-.15-.93a1.9,1.9,0,0,0,.22-2.81h0s-.56-.89.46-2.26,0-5.56,0-5.56a19.47,19.47,0,0,1-.24-4.35s0-.79,1.44-1.88a6.11,6.11,0,0,0,1.95-2.78l0,0c.22-.14,2.24-1.38,1.62-2.45a15.39,15.39,0,0,0-5.52-4.39c-1.84-.68-3.12-4-3.12-4s0-.21-.27-.1c0,0-.56.08-.56.82A4.42,4.42,0,0,1,16,4.05,8.44,8.44,0,0,1,12,7.2c-2.15.63-3.15,3.65-3.26,4,0,0,0,0,0,.06a17.43,17.43,0,0,1,3.5,4.09c.77,1.52,1.38,1.48,1.6,1.41a.05.05,0,0,1,.08.06,22.83,22.83,0,0,1-.62,5.25c-.62,2-.37,5.24.64,6.13v1a2.16,2.16,0,0,0,0,2.85s.37.19,0,.43-2.56,2.29-2.56,2.29a1.9,1.9,0,0,1-2.52-.33c-1.21-1.15-3.47.1-3.47.1a4,4,0,0,1,2.73,1.38c.95,1.18,3.87.24,4.46,0a.06.06,0,0,1,.08.07c-.11.72-.92,4.77-5.19,3.06,0,0-.77-.22,0,.81a3.11,3.11,0,0,0,3.91.79c.06,0,.13,0,.1.07-.26.65-.86,2.55.23,3.77,0,0,.47-.38.32-1.42a.63.63,0,0,1,.2-.58,6.49,6.49,0,0,0,2.16-3.15s1,1.32-.46,3.3a3.41,3.41,0,0,0,0,3.45s.32.67.74.2a1.09,1.09,0,0,0,.07-1.13"/><path class="cls-2" d="M14.74,45.22s-.11-1,.24-.85,1.95-1.26,1.67-4.32-.5-3.89.45-4.44.87,3.46.31,4.54.33,5,.85,5.16.28-2.29.28-2.29-.17-1.28.48-1.63a15.82,15.82,0,0,0,.52,3.09,2,2,0,0,1-.16,1.17s-1.09,2.1-.6,3,2-2.57,1.66-3.49c-.08-.19-.1-.39-.16-.58,0,0,.59.67.69-.07s-.58-.5-.58-1.58A3,3,0,0,1,21,41.16s1.2,2.87,2.68,2.45c0,0,.7-.11.15-.54s-1.65-.81-1.2-5.18a1.94,1.94,0,0,0-.82-1.76s2.57,1.52,4.46.77c0,0,.86-.37,1.63,1.19,0,0,.47.75.4-.19s-.14-1.91-1.89-2.06a5.12,5.12,0,0,1-3-1.6,4.39,4.39,0,0,0-2.76-1.12s-.65,0-.15-.93a1.9,1.9,0,0,0,.22-2.81h0s-.56-.89.46-2.26,0-5.56,0-5.56a19.47,19.47,0,0,1-.24-4.35s0-.79,1.44-1.88a6.11,6.11,0,0,0,1.95-2.78l0,0c.22-.14,2.24-1.38,1.62-2.45a15.39,15.39,0,0,0-5.52-4.39c-1.84-.68-3.12-4-3.12-4s0-.21-.27-.1c0,0-.56.08-.56.82A4.42,4.42,0,0,1,16,4.05,8.44,8.44,0,0,1,12,7.2c-2.15.63-3.15,3.65-3.26,4,0,0,0,0,0,.06a17.43,17.43,0,0,1,3.5,4.09c.77,1.52,1.38,1.48,1.6,1.41a.05.05,0,0,1,.08.06,22.83,22.83,0,0,1-.62,5.25c-.62,2-.37,5.24.64,6.13v1a2.16,2.16,0,0,0,0,2.85s.37.19,0,.43-2.56,2.29-2.56,2.29a1.9,1.9,0,0,1-2.52-.33c-1.21-1.15-3.47.1-3.47.1a4,4,0,0,1,2.73,1.38c.95,1.18,3.87.24,4.46,0a.06.06,0,0,1,.08.07c-.11.72-.92,4.77-5.19,3.06,0,0-.77-.22,0,.81a3.11,3.11,0,0,0,3.91.79c.06,0,.13,0,.1.07-.26.65-.86,2.55.23,3.77,0,0,.47-.38.32-1.42a.63.63,0,0,1,.2-.58,6.49,6.49,0,0,0,2.16-3.15s1,1.32-.46,3.3a3.41,3.41,0,0,0,0,3.45s.32.67.74.2a1.09,1.09,0,0,0,.07-1.13"/><path class="cls-3" d="M20.82,31.8a1.8,1.8,0,0,1,0-2.21,1.83,1.83,0,0,1,0,2.21"/><path class="cls-3" d="M13.76,31.8a1.87,1.87,0,0,0,0-2.16,2,2,0,0,0,0,2.16"/><path class="cls-4" d="M16.2,3.51s.54.6-.31,2.78S14,16.76,14,16.76s-.73.53-1.69-1.37a17.46,17.46,0,0,0-3.54-4.11S9.72,7.87,12,7.2A8.44,8.44,0,0,0,16,4.05a4.84,4.84,0,0,0,.23-.47Z"/><path class="cls-4" d="M20.92,17.2A19.33,19.33,0,0,0,19.3,7a7.72,7.72,0,0,1-.86-3.19l.08.13a4.57,4.57,0,0,0,1.91,1.74A15.39,15.39,0,0,1,26,10.07c.65,1.13-1.64,2.46-1.64,2.46a6.18,6.18,0,0,1-1.95,2.79A3.94,3.94,0,0,0,21,16.85Z"/></g></g></svg>