<svg xmlns="http://www.w3.org/2000/svg" viewBox="0 0 51.68 49.47"><defs><style>.cls-1{fill:#444;}.cls-2{fill:#327413;}.cls-3{fill:#d70f18;}.cls-4{fill:#95c763;}.cls-5{fill:#6da139;}</style></defs><title>Strawberry</title><g id="Layer_2" data-name="Layer 2"><g id="레이어_1" data-name="레이어 1"><path class="cls-1" d="M10.05,49.47c-3.48,0-6.24-1.07-8-3.1S-.4,41,.25,36.92l0-.16.07-.15c.22-.57,5.55-14,9.52-19.73a11.76,11.76,0,0,1,9.91-5.53A4.76,4.76,0,0,0,16.85,10H11.09L16,7.18A13.49,13.49,0,0,1,22,5.64a8,8,0,0,1,6,2.48,24.6,24.6,0,0,1,2.77-4.45L33.49,0l-.12,4.62s0,2.82,3.24,6.45a9.2,9.2,0,0,1,1.47,2.24,5.61,5.61,0,0,0,1.51-3.21l0-.12a2.5,2.5,0,0,1,2.45-2.19c1.19,0,2.5.79,4.14,2.47l.21.22.11.28c.54,1.39-.61,3.35-3.41,5.84.62.19,1.24.41,1.87.67l.09,0,.09.06a2.52,2.52,0,0,0,1,.19,4.33,4.33,0,0,0,2.3-.76l3.2-2.05-.94,3.68a9.75,9.75,0,0,1-9.61,7.09h-.59a17.48,17.48,0,0,1-.34,11.76c-1.64,4.22-4.8,7.22-8.44,8-9,2-18.31,3.84-18.4,3.86A17.31,17.31,0,0,1,10.05,49.47Z"/><path class="cls-2" d="M33.85,18.29S40.79,15,41.09,10.2c0,0,.39-2.65,4,1.1,0,0,.85,2.19-9.32,8.89a16.28,16.28,0,0,0-1.95-1.9"/><path class="cls-3" d="M11.14,17.68S16.25,8,30.62,16.05s9.92,25.78.81,27.78-18.37,3.85-18.37,3.85-13.48,3-11.33-10.52c0,0,5.48-13.85,9.41-19.48"/><path class="cls-4" d="M23.21,13.15S20.4,8.42,16.77,8.49c0,0,10.58-5.9,12.77,7a26,26,0,0,0-6.33-2.32"/><path class="cls-5" d="M34.27,18.66S38,16,44.4,18.66c0,0,2.05,1.21,4.89-.6,0,0-2,7.67-11.12,5.61a16.43,16.43,0,0,0-3.9-5"/><path class="cls-5" d="M29.54,15.47s-4-2.63,2.33-10.88c0,0-.08,3.27,3.61,7.47A6.59,6.59,0,0,1,36,20.41a21,21,0,0,0-6.46-4.94"/><path class="cls-1" d="M22.43,17c-.55.55-.79,1.21-.52,1.47s.92,0,1.47-.52.78-1.2.52-1.47-.92,0-1.47.52"/><path class="cls-1" d="M19.34,22.93c-.55.55-.78,1.21-.52,1.47s.92,0,1.47-.52.78-1.21.52-1.47-.92,0-1.47.52"/><path class="cls-1" d="M26.72,22.73c-.55.55-.78,1.21-.52,1.47s.92,0,1.47-.52.79-1.21.52-1.47-.92,0-1.47.52"/><path class="cls-1" d="M19.62,30.25c-.55.55-.78,1.2-.52,1.47s.93,0,1.48-.52.78-1.21.51-1.47-.92,0-1.47.52"/><path class="cls-1" d="M15.46,18.1c-.55.55-.78,1.2-.51,1.47s.92,0,1.47-.52.78-1.21.52-1.47-.93,0-1.48.52"/><path class="cls-1" d="M12.64,25c-.55.55-.78,1.2-.52,1.47s.93,0,1.48-.52.78-1.21.51-1.47-.92,0-1.47.52"/><path class="cls-1" d="M13.34,31.35c-.55.55-.78,1.21-.52,1.47s.93,0,1.48-.52.78-1.21.51-1.47-.92,0-1.47.52"/><path class="cls-1" d="M13.34,37.15c-.55.55-.78,1.21-.52,1.47s.93,0,1.48-.52.78-1.21.51-1.47-.92,0-1.47.52"/><path class="cls-1" d="M21.57,36.05c-.55.55-.78,1.2-.52,1.47s.93,0,1.48-.52.78-1.21.51-1.47-.92,0-1.47.52"/><path class="cls-1" d="M28.09,29.52c-.55.55-.78,1.21-.51,1.48s.92,0,1.47-.52.78-1.21.52-1.48-.93,0-1.48.52"/><path class="cls-1" d="M7.36,31.17c-.55.55-.78,1.2-.52,1.47s.92,0,1.47-.52.78-1.21.52-1.47-.92,0-1.47.52"/><path class="cls-1" d="M7.36,36.94c-.55.55-.78,1.21-.52,1.48s.92,0,1.47-.52.78-1.21.52-1.48-.92,0-1.47.52"/><path class="cls-1" d="M32.31,24.47c-.55.55-.78,1.21-.52,1.47s.92,0,1.47-.52.78-1.2.52-1.47-.92,0-1.47.52"/></g></g></svg>