<svg xmlns="http://www.w3.org/2000/svg" viewBox="0 0 49.43 43.1"><defs><style>.cls-1{fill:#444;}.cls-2{fill:#fff;}.cls-3{fill:#af8666;}.cls-4{fill:#ccaa8c;}</style></defs><title>Sugar_1</title><g id="Layer_2" data-name="Layer 2"><g id="레이어_1" data-name="레이어 1"><path class="cls-1" d="M19,43.1C13,43.1,8.39,42.91,5,42,2.64,41.32,1.1,40.28.4,38.86a3.61,3.61,0,0,1-.23-2.73c1.31-4.76,2.65-7,3.67-8.12-1.93-6.2.38-9.55,1.9-11-.6-1.5-1.34-4-.42-5.88.7-1.41,2.3-2.2,4.53-2.25C11.45,6.7,16.32.73,22.22,0a3,3,0,0,1,.58,0C24.06,0,27.38.49,31,5a10.49,10.49,0,0,0,4.19,3.45c.36.18.72.35,1.09.58a10.07,10.07,0,0,1,1.76-.16c2.85,0,3.67,1.47,3.91,2.35l.16.58a10.21,10.21,0,0,1,.55,4.91c3.73,2.32,3.41,7.51,3.18,9.24a57.52,57.52,0,0,1,3,6.82,6.77,6.77,0,0,1-.11,5.52c-1.49,3-5.09,4.21-5.24,4.26l-.2.06-17.6.45H19Z"/><path class="cls-2" d="M10.61,10.41S16,2.25,22.43,1.52c0,0,3.37-.61,7.45,4.45s5.55,2.83,7.94,6.78L26.21,15l-14.39-.83Z"/><path class="cls-3" d="M7.6,17.47s-5.06,2.78-2,11.05c0,0-1.94.56-4,8.06,0,0-1.06,2.61,3.78,3.94S18,41.58,25.71,41.58l17.39-.45s6.56-2.05,4.39-7.83a55.55,55.55,0,0,0-3.17-7s1.39-7.12-3.55-8.78l-18-2.11Z"/><path class="cls-4" d="M7.6,17.47S5.69,13.8,6.67,11.8s5.21-1.5,6.76-.78,5.73,2.45,9.84,1.84,12.5-2.17,12.5-2.17,4.22-1.11,4.77.94,1.84,5.5-.83,6.28-9.17,3.17-21.33,2.28C18.38,20.19,9.82,19.52,7.6,17.47Z"/></g></g></svg>