<svg xmlns="http://www.w3.org/2000/svg" viewBox="0 0 42.75 44.3"><defs><style>.cls-1{fill:#444;}.cls-2{fill:#e9d9bf;}.cls-3{fill:#dbc097;}.cls-4{fill:#ddc8ac;}.cls-5{fill:#f2f2f2;}.cls-6{fill:#eaeaea;}.cls-7{fill:#fdfeff;}</style></defs><title>Sugar_cubes_1</title><g id="Layer_2" data-name="Layer 2"><g id="레이어_1" data-name="레이어 1"><polygon class="cls-1" points="21.77 34 22.64 32.46 22.39 32.53 21.53 32.15 21.98 36.01 14.64 41.74 0.79 41.34 0 28.58 3.84 25.78 2.07 24.23 0.1 11.8 11.4 8.94 16.83 14.06 21.95 12.81 21.07 6.64 28.79 0 39.27 0.55 41.51 11.8 35.29 17.52 34.23 17.58 34.77 17.89 33.27 23.22 36.86 22.15 42.75 31.98 38.81 39.47 27.2 44.3 21.77 34"/><polygon class="cls-2" points="24.86 6.28 22.67 7.24 24.01 16.6 34.67 16.05 35.16 14.35 33.95 6.95 32.58 6.2 24.86 6.28"/><polygon class="cls-3" points="38.02 1.99 38.02 1.99 36.56 1.91 34.31 3.87 31.93 6.24 32.82 6.83 34.67 16.05 39.87 11.27 38.02 1.99"/><polygon class="cls-4" points="29.32 1.53 22.67 7.24 32.82 6.83 38.02 1.99 29.32 1.53"/><polygon class="cls-2" points="25.22 32.38 23.48 34.03 27.89 42.39 37.74 38.29 37.62 36.52 34 29.96 32.46 29.71 25.22 32.38"/><polygon class="cls-3" points="36.17 23.92 36.17 23.92 34.77 24.34 33.3 26.94 31.86 29.97 32.89 30.23 37.74 38.29 41.03 32.03 36.17 23.92"/><polygon class="cls-2" points="12.16 12.68 10.97 10.6 1.8 12.92 3.47 23.46 5.21 23.76 12.44 21.79 13.05 20.34 12.16 12.68"/><polygon class="cls-3" points="15.14 23 15.55 21.82 12.94 19.71 12.44 20.65 3.47 23.46 8.78 28.13 17.81 25.32 15.14 23"/><polygon class="cls-4" points="17.35 16.61 10.97 10.6 12.44 20.65 17.81 25.32 17.35 16.61"/><polygon class="cls-5" points="25.35 20.79 25.83 19.71 18.63 15.87 15.02 16.04 11.59 26.07 22.51 30.94 24.25 30.45 26.99 20.33 25.35 20.79"/><polygon class="cls-6" points="29.85 17.96 27.3 18.61 24.21 19.07 25.35 20.79 22.51 30.94 30.14 28.81 33.01 18.61 29.85 17.96"/><polygon class="cls-7" points="24.55 13.72 15.02 16.04 25.35 20.79 33.01 18.61 24.55 13.72"/><polygon class="cls-4" points="27.81 26.41 23.48 34.03 32.89 30.23 36.17 23.92 27.81 26.41"/><polygon class="cls-5" points="12.91 29.76 12.94 28.58 4.83 27.77 1.55 29.3 2.2 39.88 14.15 40.23 15.57 39.11 14.25 28.71 12.91 29.76"/><polygon class="cls-6" points="16 25.43 13.88 27 11.21 28.6 12.91 29.76 14.15 40.23 20.39 35.35 19.17 24.82 16 25.43"/><polygon class="cls-7" points="9.48 23.53 1.55 29.3 12.91 29.76 19.17 24.82 9.48 23.53"/></g></g></svg>