<svg xmlns="http://www.w3.org/2000/svg" viewBox="0 0 67.02 29.23"><defs><style>.cls-1{fill:#444;}.cls-2{fill:#534c4a;}.cls-3{fill:#f2ebe2;}</style></defs><title>Sunflower seeds</title><g id="레이어_2" data-name="레이어 2"><g id="레이어_1-2" data-name="레이어 1"><path class="cls-1" d="M3.48,23.58a6.93,6.93,0,0,0,4.73,1.63c4,0,8.17-2.38,8.27-2.44l1.08-.54,1.51-.71c7.27,6.35,18.27,7.71,26.37,7.71h0a58.58,58.58,0,0,0,6.62-.34c1.24-.15,5-.6,5.55-3.19l0-.11a2.36,2.36,0,0,0,0-.28,2.94,2.94,0,0,0,0-.42l0-.12a1.92,1.92,0,0,0,0-.29c0-.07,0-.12-.06-.24a3.44,3.44,0,0,0-.46-.92l0-.08a4.45,4.45,0,0,0-.46-.55,8.52,8.52,0,0,0-.91-2.46,59.55,59.55,0,0,0,7-2.54c1.13-.51,4.59-2.06,4.34-4.7v-.13c0-.09,0-.19,0-.26a1.7,1.7,0,0,0-.13-.4l0-.12c0-.09-.09-.18-.13-.25l-.13-.21a3.24,3.24,0,0,0-.69-.73,5.5,5.5,0,0,0-.69-.46C62.84,6.26,57.22,4.81,53,4.1h0l-.21,0-.75-.12-.22,0C47.92,3.32,43.45,3,39.2,2.81a2.74,2.74,0,0,0-.09-.39C38.34,0,34.82,0,33.67,0h-.12c-2,0-19.64.27-28.9,9.76A18.75,18.75,0,0,0,.19,16.83L0,17.37Z"/><path class="cls-2" d="M3,20.37s1.55,6.09,12.69,1C27.07,16.28,36.85,11,37,4.71c0,0,3.13-3-3.38-3.21,0,0-26.39-.22-31.95,15.8A13.11,13.11,0,0,0,3,20.37"/><path class="cls-3" d="M4,21.9S8.69,25.38,29.3,12c0,0,4.32-2.81.34,1.92,0,0-3.32,2.25-13.83,7.48,0,0-8.39,4.82-11.86.48"/><path class="cls-3" d="M2.5,19.49s.93-7,15.82-12.28S35.08,2.63,35.08,2.63,37,2.81,37.51,4c0,0,1.64-2.49-3.91-2.5,0,0-26.41-.16-32,15.82Z"/><path class="cls-2" d="M14.72,6.67c-6.78,3-9.32,6.26-9.47,6.45a.42.42,0,0,0,.08.59.43.43,0,0,0,.6-.09C6,13.56,11.18,6.91,26.49,4a.42.42,0,1,0-.15-.82A53.19,53.19,0,0,0,14.72,6.67"/><path class="cls-2" d="M23.24,10.84S21.89,3.38,35.45,4.11,61.12,5.25,64,11.56c0,0,4.45,1.66-2,4.76,0,0-26.26,12-38.85-1.76a15,15,0,0,1,0-3.72"/><path class="cls-3" d="M23.4,8.92s3.2-5.64,29.65-1.29c0,0,5.54.91-.52-2.11,0,0-4.3-.79-17.08-1.41C35.45,4.11,25,3,23.4,8.92"/><path class="cls-3" d="M23.14,12s4,6.68,21.17,5.39S63,14.51,63,14.51s1.88-1.06,1.82-2.47c0,0,2.74,1.8-2.8,4.28,0,0-26.26,12-38.85-1.76Z"/><path class="cls-2" d="M41,19.51c-8.06,0-12-2.19-12.27-2.32a.46.46,0,0,1-.17-.63.45.45,0,0,1,.63-.18c.08.05,8.17,4.46,24.71.58a.45.45,0,0,1,.56.34.47.47,0,0,1-.35.56A57.41,57.41,0,0,1,41,19.51"/><path class="cls-2" d="M16.46,10.61s.93-7.51,13.66-2.79,24.17,8.73,25.06,15.62c0,0,3.75,2.9-3.3,4,0,0-28.64,3.65-36.56-13.24a14.64,14.64,0,0,1,1.14-3.55"/><path class="cls-3" d="M17.18,8.83s4.74-4.43,28.69,7.59c0,0,5,2.52.14-2.16,0,0-3.87-2-15.89-6.44,0,0-9.68-4.2-12.94,1"/><path class="cls-3" d="M16,11.66s1.84,7.58,18.61,11.45S53.36,26,53.36,26s2.11-.45,2.47-1.81c0,0,2.08,2.53-3.95,3.25,0,0-28.62,3.6-36.56-13.24Z"/><path class="cls-2" d="M30.81,24.17c-7.7-2.4-10.84-5.67-11-5.86a.46.46,0,0,1,0-.66.45.45,0,0,1,.65,0c.07.07,6.48,6.69,23.43,7.9a.46.46,0,0,1,.43.5.47.47,0,0,1-.5.43,57.39,57.39,0,0,1-13-2.33"/></g></g></svg>