<svg xmlns="http://www.w3.org/2000/svg" viewBox="0 0 50.12 37.79"><defs><style>.cls-1{fill:#444;}.cls-2{fill:#37562a;}.cls-3{fill:#f2ba1b;}.cls-4{fill:#d9991e;}.cls-5{fill:#fad040;}.cls-6{fill:#e6c021;}</style></defs><title>Sweet_pumpkin</title><g id="Layer_2" data-name="Layer 2"><g id="레이어_1" data-name="레이어 1"><path class="cls-1" d="M19.33,37.79c-2.12,0-4.44-.5-10-2.16A12.12,12.12,0,0,1,1.79,29C-1.07,23-.12,14.76,2,9.65c3.2-7.81,13-8,14.12-8h.1a2.34,2.34,0,0,0,.92-.37A10,10,0,0,1,22.53,0c.68,0,1.42,0,2.22.11,4.91.44,7,1.31,11.87,3.42,1.65.71,3.71,1.59,6.34,2.65a11,11,0,0,1,6.91,8.76C51.12,22,47.49,30.38,43.4,34.07a13.68,13.68,0,0,1-9.81,3.66h0c-1.37,0-2.71-.13-4-.25s-2.45-.23-3.62-.23c-.41,0-.82,0-1.22,0-1,.08-1.88.18-2.6.27A23.68,23.68,0,0,1,19.33,37.79Z"/><path class="cls-2" d="M16.25,3.12S6.4,2.83,3.36,10.22s-3.31,21,6.45,24,9,2.09,14.8,1.61S36.43,38.36,42.4,33s10.32-21.22,0-25.39-11.51-5.4-17.79-6S18.14,3,16.25,3.12Z"/><path class="cls-3" d="M24.21,8s-4.84,0-6.54-.94S8.48,5.3,4.88,9.18s-4.64,19,2.94,22.74,10.23,3.22,17.33,2.65S38,37.89,42.68,31s8-19.33-2.75-23.21S32.35,8.52,24.21,8Z"/><path class="cls-4" d="M18.33,11.74s3.22-.76,3.41,2,.76,8.43,1.33,9.19,2.75,7-3.22,7.1-9.38-4.45-9.19-10.51S18.33,11.74,18.33,11.74Z"/><path class="cls-4" d="M28.09,13.92s-.57-2.18,2.18-2.28,7.77.76,8.81,5.12-.19,10-3.79,12.13-6.92.94-8.2-1.71,1.38-8.15,1.19-10.7Z"/><path class="cls-5" d="M19.94,15.91s-1-1.9-.85-2.75,1.33,0,1.33,0S20.7,15.72,19.94,15.91Z"/><path class="cls-5" d="M18.54,16.94s-2.05-.69-2.48-1.44,1-.9,1-.9S19,16.29,18.54,16.94Z"/><path class="cls-5" d="M16.15,17.87s-2.16-.08-2.79-.68.68-1.14.68-1.14S16.38,17.12,16.15,17.87Z"/><path class="cls-5" d="M21,19.56s-2.09.55-2.87.16.32-1.29.32-1.29S21,18.78,21,19.56Z"/><path class="cls-5" d="M16,20.09S14,21,13.18,20.8s.07-1.33.07-1.33S15.82,19.32,16,20.09Z"/><path class="cls-5" d="M19.8,21.05s-1.48,1.57-2.35,1.66S17,21.44,17,21.44,19.39,20.39,19.8,21.05Z"/><path class="cls-5" d="M16.42,22.89s-1.35,1.68-2.21,1.83-.51-1.22-.51-1.22S16,22.26,16.42,22.89Z"/><path class="cls-5" d="M21.44,22.47s-.84,2-1.63,2.37-.82-1-.82-1S20.82,22,21.44,22.47Z"/><path class="cls-5" d="M18.21,25.69s-1.05,1.89-1.87,2.19-.71-1.12-.71-1.12S17.64,25.15,18.21,25.69Z"/><path class="cls-5" d="M20.75,25.73s-.16,2.16-.78,2.77-1.11-.72-1.11-.72S20,25.48,20.75,25.73Z"/><path class="cls-5" d="M30.65,25.21s1,1.9.85,2.75-1.33,0-1.33,0S29.89,25.4,30.65,25.21Z"/><path class="cls-5" d="M32,24.18s2.05.69,2.49,1.44-1,.9-1,.9S31.62,24.83,32,24.18Z"/><path class="cls-5" d="M34.43,23.25s2.17.08,2.8.68-.68,1.14-.68,1.14S34.21,24,34.43,23.25Z"/><path class="cls-5" d="M29.57,21.56s2.1-.55,2.88-.16-.33,1.28-.33,1.28S29.57,22.34,29.57,21.56Z"/><path class="cls-5" d="M34.62,21s1.94-.94,2.78-.71-.06,1.33-.06,1.33S34.77,21.8,34.62,21Z"/><path class="cls-5" d="M30.79,20.06s1.48-1.57,2.35-1.65.41,1.27.41,1.27S31.2,20.73,30.79,20.06Z"/><path class="cls-5" d="M34.17,18.23s1.35-1.68,2.21-1.83.51,1.22.51,1.22S34.63,18.86,34.17,18.23Z"/><path class="cls-5" d="M29.15,18.65s.84-2,1.63-2.37.82,1,.82,1S29.77,19.13,29.15,18.65Z"/><path class="cls-5" d="M32.38,15.43s1-1.9,1.87-2.19.71,1.12.71,1.12S33,16,32.38,15.43Z"/><path class="cls-5" d="M29.84,15.38s.15-2.15.78-2.76,1.11.72,1.11.72S30.58,15.64,29.84,15.38Z"/><path class="cls-6" d="M23.54,7.24s-2.7.19-2.79-1,1.37-1,1.4-2.09.45-1,1.39-1.18,1.09-.76,2.23,0,.7,2.46,1.32,2.56S28.48,7,26.74,7,25.1,7.33,23.54,7.24Z"/></g></g></svg>