<svg xmlns="http://www.w3.org/2000/svg" viewBox="0 0 47.01 49.87"><defs><style>.cls-1{fill:#444;}.cls-2{fill:#8c3445;}.cls-3{fill:#c23b4a;}.cls-4{fill:#f5d7cd;}.cls-5{fill:#ddbfb6;}.cls-6{fill:#c6aba5;}</style></defs><title>T-bone steak_2</title><g id="Layer_2" data-name="Layer 2"><g id="Layer_1-2" data-name="Layer 1"><path class="cls-1" d="M45,25.35a15,15,0,0,1-7.33,7.07l-1.39.64a74.13,74.13,0,0,0-17.46,12l-.35.32-.46.06a4.61,4.61,0,0,0-2.7,1.64,8.23,8.23,0,0,1-6.49,2.75,13.84,13.84,0,0,1-4.86-1C2.31,48.52-.45,46.5.06,41.29c.33-2.47.73-3.57,1.53-4A4.37,4.37,0,0,1,2.17,37a2.71,2.71,0,0,1,1-1.36l.1-.08A5.17,5.17,0,0,1,5,33.28,5.23,5.23,0,0,1,6.6,30.5l.3-.21C8,29.41,9.72,28,10,27.67s.49-.56.7-.81a5.53,5.53,0,0,0,.44-.65,1,1,0,0,0-.13-.42l-.56-.46.2-.54c0-1-1.17-3.77-2-5.37s-.39-5-.16-6.42c.39-2,1-4.48,2.12-5.67A5.81,5.81,0,0,1,12.1,4a9.67,9.67,0,0,1,2.13-1.73,3.81,3.81,0,0,1,.34-.37,6.2,6.2,0,0,1,1-.89l.1-.08h0a5.54,5.54,0,0,1,3-1,2.55,2.55,0,0,1,2.49,1.44l.12.08h0l.39.16,1.74.47.67.13.31.06.26.17A14.51,14.51,0,0,0,28,4.23h.86l.52.59a2,2,0,0,1,.3,1.69.55.55,0,0,0,0,.32l.09,0,.14.07a3.46,3.46,0,0,0,1.17.21,2.27,2.27,0,0,0,1.39-.43l.7-.49.78.34c.07,0,1.86.81,4.06,1.92l.11.06c7.21,3.66,8.55,5.58,8.62,7a11.11,11.11,0,0,1-.14,5.4A15.38,15.38,0,0,1,45,25.35Z"/><path class="cls-2" d="M44.18,23.25s-1,4.82-7.17,7.83l-1.42.65-.33-4.58Z"/><path class="cls-2" d="M37.75,27.38c-10.08,2.29-15.07,7.73-15.07,7.73-4.82,6.31-8.81,5.64-8.81,5.64-.1,1-2,.53-2,.53-.67,2-6.29.42-6.29.42a4.2,4.2,0,0,1-3.06-1.56,1.79,1.79,0,0,0,0-.56c0,.93-.13,1.86-.26,2.79a9.49,9.49,0,0,1,.27,1.2.52.52,0,0,1,.34.43c.1.86.13,1.72.16,2.58a3.21,3.21,0,0,0,.94.45c6.79,2.6,10-1.28,10-1.28,1-1.54,3.8-2.29,3.8-2.29,3.06-3.22,13.57-10.65,19.24-13a13.23,13.23,0,0,0,7.27-7.16C42.18,26.4,37.75,27.38,37.75,27.38Z"/><path class="cls-3" d="M8.67,36.74c-1.35,2.69-2.75.59-2.75.59-.7-1,.88-2.06.88-2.06,1.66-1.34.67-3.55.67-3.55-.72.51-1.16,2.51-1.16,2.51a3.67,3.67,0,0,0-1.77,2.29,1.6,1.6,0,0,0-1,1.54c-1.89.73-1.2,1.18-1.2,1.18.29.12.51,1,.51,1,.45,1.67,3.19,2,3.19,2,5.89,1.52,6.11-.41,6.11-.41,2,.41,2-.51,2-.51,4.22.4,8.56-5.49,8.56-5.49s4.77-5.14,14.66-7.51,7.92-12.59,7.92-12.59-7.38-8.12-17.39-4.86C27.86,10.91,12.5,29.08,8.67,36.74Z"/><path class="cls-3" d="M36.44,10.14a21.34,21.34,0,0,0-8.37-.49,31.68,31.68,0,0,1-2.58,2.95,26.8,26.8,0,0,1-3.36,3.9c-4.35,6-4.45,6.58-5.76,6.45s8.35-10.71,8.35-10.71A8,8,0,0,1,27.15,9.3c-.34-.3,0-1.57,0-1.57s.44,1.16,1.35,1.07a17.82,17.82,0,0,1,2.1-.21,3.72,3.72,0,0,0,2.76-.68s3.43,1.6,4.09,1.95C37.45,9.86,37.5,10.46,36.44,10.14Z"/><path class="cls-4" d="M23.09,16.7s.35.6,0,1-1.5,1.37,1.39,2.42c0,0,1.37.5-.52-1.89,0,0-.67-.92,1,0S30,23,31.26,26.41a3.89,3.89,0,0,0,3.35,2.7l-1.43.49A3.31,3.31,0,0,1,30.83,28c-1-1.52-.74-3.81-3.07-5.72,0,0-1.79-1.37-1.76-2.33,0,0,0-.67-.41,0s.54,1.8.54,1.8.61.61-.32.33-3.64-3.13-4.26-1.43c0,0-.57.76.78,1.56,0,0,.41.54,1.19-.08s.53.21.53.21a1.51,1.51,0,0,1-1.48.64c-.94-.18,0,1.28,0,1.28s.7,1.17-.21,1.82c0,0-.7.37-.11-.67,0,0,.5-.61-1-1.63,0,0-1.44-.74-.78-1.89s-.79-.88-.79-.88Z"/><path class="cls-4" d="M37.33,28.36s-5.75-1.17-16.55,7.38c0,0-7.23,7.37-9.59,4.56,0,0-2.52,1.42-4.52.17,0,0-1.14,1.11-2.62-.64,0,0-.94-.86.56-.7,0,0,1.74,1-.56-2.28a1.22,1.22,0,0,0-.55,1.21s-1.88.6-1.2,1.18a1.61,1.61,0,0,1,.51,1s.1,1.49,3.19,2c0,0,5.5,1.58,6.11-.41,0,0,1.94.4,2-.51,0,0,4,.59,8.56-5.49C22.67,35.87,27.55,30.61,37.33,28.36Z"/><path class="cls-4" d="M45.25,15.77s-6.73-7.46-16.12-5.22a.76.76,0,0,1,.81,1c-.16,1,.58.93.58.93a.34.34,0,0,0,0-.54c-.3-.31.68-.52,1.31.45s2.71.09,2.71.09,1.05,1.22,1.92.57a1.26,1.26,0,0,1,1.59,0s.82.71.76-.14.56.14.56.14.8,1.24,1.68.56c0,0,.08,1.13,1,1.22,0,0,2.17.59-3,.76,0,0-2.48.19-.15.95,0,0,1.3.66,2.1-.13A1.62,1.62,0,0,1,42.78,16s1.2-.19,1,.59a4.37,4.37,0,0,0-1.82,1.74S40.8,20.8,31.36,16c0,0,.09-.9-.23-.94s.11-.65.11-.65.44-.34-.29-.34c0,0-.27-.17-.38.74,0,0-.17.44.16.54s.12.52.12.52-1.57.13-1.35-.66c0,0,.17-.49-1-.38s-.87.63-.87.63.07.47.75-.16.71.81.71.81.09.78,1.55.88a8.91,8.91,0,0,1,3.46,1.61s3.34,2.39,6.55,1.1,3,.85,3,.85-.13,1.54,1.32.58a4.76,4.76,0,0,0,.14-.53h0A9.16,9.16,0,0,0,45.25,15.77Z"/><path class="cls-5" d="M37.33,28.36a31.69,31.69,0,0,0-10.67,4.26,20.49,20.49,0,0,0-5.84,5.27c-3.92,3.94-6.74,3.37-6.74,3.37-.14,1-2,.52-2,.52-.63,2-6.27.4-7,.19a5,5,0,0,1-1.87-1A2.59,2.59,0,0,1,3,40.76a4.28,4.28,0,0,0-.7-2.1c-.41.06-.77,2.78-.77,2.78-.52,5.42,2.84,6,2.84,6,6.8,2.61,9.72-1.25,9.72-1.25A6.09,6.09,0,0,1,17.8,44,72.25,72.25,0,0,1,37,31.08C37.75,29,37.33,28.36,37.33,28.36Z"/><path class="cls-6" d="M33.36,7.91a4.35,4.35,0,0,1-4.06.36,1.75,1.75,0,0,1-1.12-2.08c.12-.58-.11-.46-.11-.46-1.14.08-4.24-2-4.24-2-.08.78.31,1,.31,1l.15.17a6.72,6.72,0,0,1,.81,1.2,6.86,6.86,0,0,1,.57,3.38c-.56.42-6.5,8-6.5,8-.64.83-6.56,9.3-6.56,9.3-1.36,2.45-5.14,5-5.14,5a4.12,4.12,0,0,1,.28,1.17,2.9,2.9,0,0,1-1.26,2.54s-1.11.8-.71,1.65a.66.66,0,0,0,.14.25,3,3,0,0,0,.57.56h0s1,1.07,2.19-1,2.33-4.07,2.43-4.24c5.47-8.2,16.75-21.7,16.75-21.7,9.69-3.28,17.39,4.86,17.39,4.86C45.42,13.16,33.36,7.91,33.36,7.91Z"/><path class="cls-3" d="M24.14,4.69a1.2,1.2,0,0,1-.31-1s-3.61-.47-4-1.63-3.22-.62-4.55,1.33a7.45,7.45,0,0,0-2.39,2,5.51,5.51,0,0,0-.84,2.66S10.94,8,9.94,13.24c0,0-.69,4.2,0,5.48,0,0,2.23,4.19,2.2,6.09a2.42,2.42,0,0,1,.48,1.8,8.59,8.59,0,0,1-.76,1.19h0c-.23.28-.49.58-.77.88-.43.48-3.33,2.84-3.33,2.84s1.65,1.72,3.85-1,1.65-4.67,1.65-4.67h0c1.42-2,4.8-6.88,5.91-8.38,1.41-1.92,6.5-8,6.5-8A6.3,6.3,0,0,0,24.14,4.69Z"/><path class="cls-4" d="M25.54,7.13a5.13,5.13,0,0,0-1.28-2.36l-.43-.83v-.2s-1.39-.25-2-.42l-.08,0-.11,0a9.82,9.82,0,0,1-1.05-.42c-.84.93-.22,1.27-.22,1.27.31.07.44.61.44.61.06.33.63.33.63.33-.11.76-1,.91-1,.91.44.68-.13.91-.13.91s-.5.46-.61-.49S19.26,6,19.26,6s-.37.82-.63,0-1.21-1-.65-.17-.65,1.71-.68.21S15.61,3,15.61,3a2.1,2.1,0,0,0-.33.42.28.28,0,0,0-.15.08c.59,0,1.37,1.15,1.7,2.34s-.58,1-.58,1a.45.45,0,0,0-.16-.61c-.37-.27-.57.37-.57.37a2.16,2.16,0,0,1-.37-1.77c-.5-.82-.71-.15-.71-.15-.76.37-.2,1.57-.2,1.57-.93.33-1-1.22-1-1.22a4.26,4.26,0,0,0-1.15,3.07s.86-1.22,3.84-.14a9.12,9.12,0,0,0,4.24,0s.57.11.54-.61,1-.39,1-.39a2.06,2.06,0,0,0,1.72.15A.65.65,0,0,0,24,6.91a4.88,4.88,0,0,0,1.53.65A1.57,1.57,0,0,0,25.54,7.13Z"/></g></g></svg>