<svg xmlns="http://www.w3.org/2000/svg" viewBox="0 0 46.97 45.29"><defs><style>.cls-1{fill:#444;}.cls-2{fill:#3d2d0e;}.cls-3{fill:#000401;}.cls-4{fill:#d90101;}.cls-5{fill:#f84d60;}.cls-6{fill:#b40101;}.cls-7{fill:#140103;}</style></defs><title>Teriyaki</title><g id="Layer_2" data-name="Layer 2"><g id="레이어_1" data-name="레이어 1"><path class="cls-1" d="M19.47,45.29c-3.17,0-5.21-.56-6.24-1.72a2.86,2.86,0,0,1-.35-.5C4.17,39.57.51,27.54.35,27l-.28-1,0,0a12.57,12.57,0,0,1,.7-6A13,13,0,0,1,2.43,9.25C6,3.63,14.58,0,24.3,0A38.42,38.42,0,0,1,41.1,3.82c3.5,1.71,5.44,3.76,5.8,6.1H47v.41a5.48,5.48,0,0,1,0,.81v0a18.7,18.7,0,0,1-.9,5,7.33,7.33,0,0,1,.42,2.34c.21,2-.36,4.42-1.83,7.94C42.52,31.55,36.29,43.52,24.38,45a40.41,40.41,0,0,1-4.91.34Z"/><path class="cls-2" d="M1.79,26.59S5.48,39,14.07,41.91c0,0-.34,2.81,10.13,1.56S40.66,32.09,43.26,25.89s2.87-10.25-2.89-11S9.18,21.24,9.18,21.24Z"/><path class="cls-3" d="M2.94,18.78s-5.83,11.49,6,11.83,27.7-3.36,31.48-5.92,6-5,3.66-9.37S2.94,18.78,2.94,18.78Z"/><path class="cls-4" d="M2.94,21.52s1.13,8.09,7.58,7.5,21.4-.44,28.14-5,6.79-12.81,6.79-12.81L31.7,8.5,14.07,12.28Z"/><path class="cls-5" d="M5.7,25.76s-7.26-7.41-2-15.7S26.37-1.72,40.44,5.17,35.63,21.45,25.78,23.31,9.55,26.28,5.7,25.76Z"/><path class="cls-6" d="M6.22,23S-2.89,13.5,9.85,6.28,37.48,4.87,41.92,7.69s1.71,7.55-6.74,11.18S10.15,24,6.22,23Z"/><path class="cls-7" d="M7.34,23.77A1.62,1.62,0,0,1,6,22c.27-2.33,2.07-7.9,12.8-9.07,13.66-1.49,20.41.7,21.75,2.58s-17.06,8.2-30.9,8.28A10.32,10.32,0,0,1,7.34,23.77Z"/></g></g></svg>