<svg xmlns="http://www.w3.org/2000/svg" viewBox="0 0 55.99 44.11"><defs><style>.cls-1{fill:#444;}.cls-2{fill:#c23b4a;}.cls-3{fill:#f5d7cd;}.cls-4{fill:#8c3445;}</style></defs><title>Tomahawk_3</title><g id="Layer_2" data-name="Layer 2"><g id="Layer_1-2" data-name="Layer 1"><path class="cls-1" d="M.84,42.54a2.5,2.5,0,0,0,1.46.64A16.25,16.25,0,0,0,5,44l.34.06.38,0,.43,0a3.08,3.08,0,0,0,1.23-.22l1.86-.23.89-.12A75,75,0,0,0,22.47,41l.86-.28A19.23,19.23,0,0,0,28,38.73a4.86,4.86,0,0,0,1.52,1.75c.51.87,1.8,2.68,3.66,2.68h.2l.23.11.2.08a1.41,1.41,0,0,0,.27.09,1.66,1.66,0,0,0,.33.06,2.68,2.68,0,0,0,.42,0l.1,0h.17a3,3,0,0,0,2.13-1L38.33,42l1.19-.61,1.29-.68A22,22,0,0,0,44,38.83c.29-.19.57-.39.83-.58a13.41,13.41,0,0,0,1.31-1.09C55,29.18,56,16.33,56,15.79a3.14,3.14,0,0,0-.73-2.47,3.9,3.9,0,0,0-.81-.78l-.19-.16a19.91,19.91,0,0,0-3.13-2.18,2.55,2.55,0,0,0-.56-.67,2.27,2.27,0,0,0-.31-.25C49.82,8.05,48.47,6,44.34,4A2.23,2.23,0,0,0,44,3.53a2.1,2.1,0,0,0-1.19-.68,4.75,4.75,0,0,0-1.46-1A7.78,7.78,0,0,0,36.5,0L36,0,35.5.32a7.38,7.38,0,0,1-2.69,1.21L31.6,1.7l0,.55a9.74,9.74,0,0,0-4.26,2L25.92,5.35l1.34,1.18a1.86,1.86,0,0,1,.27.29l0,.27a7,7,0,0,0,1.35,4.43,2.5,2.5,0,0,1,.09.25l-.06,0-.08,0c-.66.34-2.19,1.27-2.18,2.72a2.15,2.15,0,0,0,1.2,1.86,13.83,13.83,0,0,1,1.69,1.75,5.64,5.64,0,0,1,.77,1.47l.1.27.16.21a3.93,3.93,0,0,1,.39.72,8.79,8.79,0,0,1,.6,2.75,12.4,12.4,0,0,1-.54,1.5,10,10,0,0,1-3.13,4.06l-.87.63.15.47a2.53,2.53,0,0,0-.77,1.34c-.47.28-.93.56-1.39.82a38.21,38.21,0,0,1-10.36,3.52l-.1,0a29.9,29.9,0,0,1-3.89.26c-.64,0-1.29,0-1.92-.06-1.51-.23-3.49-.54-4.38-.73a2.53,2.53,0,0,0-1-.22,2.36,2.36,0,0,0-1.49.54l-.06,0-.2.19,0,0a2.87,2.87,0,0,0-.72,1.17,3.22,3.22,0,0,0-.17.49A7.25,7.25,0,0,0,0,40.1v.07c0,.11,0,.22,0,.33S.16,42.1.84,42.54Z"/><path class="cls-2" d="M28.94,31a1.32,1.32,0,0,0-1.11,1.48s-11,7.92-24,4.4c0,0-1.19-.77-1.78,1.38,0,0-1.52,3.4.55,3.48,0,0,3.34,1.4,4.34.74,0,0,16.7-1.67,22-6.19a3.47,3.47,0,0,0,1.7,3.19s1.48,2.74,3,2.11a1.76,1.76,0,0,0,2.59-.19s7.26-3.33,9.26-5.74a33.67,33.67,0,0,0,8.93-20.29s.74-1.08-4.52-4.08c0,0,0-.59-1-.92,0,0,.15-2.49-5.89-5.26,0,0,.11-.85-.89-.74,0,0-1.07-1.19-1.59-1.15,0,0-.89-1.37-4.19-1.63A9,9,0,0,1,33,3s0,.52-.33.59a8,8,0,0,0-4.44,1.78s1.14,1,.77,1.78a5.43,5.43,0,0,0,1.08,3.48s1.18,1.85-.6,2.52c0,0-2.4,1.22-.81,2,0,0,2.78,2.17,3.11,4,0,0,1.07,1.34,1.26,4.6,0,0-1,4.37-4.3,6.63Z"/><path class="cls-3" d="M39.71,6.33A6,6,0,0,1,37,6.44a6.29,6.29,0,0,1-2.61.69c-1.81.17-2.56,1.45-2.78,1.39,0,0-.59-.33.3-.94a6.47,6.47,0,0,1,1.92-.87A6.23,6.23,0,0,0,36.21,6c.58-.52,2.44-.27,2.44-.27a2,2,0,0,0,1.56-.2S41,5.6,39.71,6.33Z"/><path class="cls-4" d="M34.85,19.8s-.14-1.09-.84-1.39a4.86,4.86,0,0,0-5-3,14.67,14.67,0,0,1,2.47,3.08,6.5,6.5,0,0,1,.27.66S33,22,32.86,23.67a10.56,10.56,0,0,1-2.18,4.5c-.13.15-.93,1-1.48,1.64l-.53.52.28.79h.39c.65.3,1.75,1,.85,1.81,0,0,2,.45,4.63-5.6C34.82,27.33,36.23,24.41,34.85,19.8Z"/><path class="cls-3" d="M30.56,32.35c0,.72-2.39,1.53-1,3,0,0,.58.48-.59.85a5.75,5.75,0,0,1-1,.74l0,0a16,16,0,0,1-5,2.26l-.16.06-.57.18-.21.07h0A79.51,79.51,0,0,1,6.94,42.43s-.6.73-4.34-.74c0,0-1.25.15-1.08-1.56h0a6.58,6.58,0,0,1,.55-2h0c0-.09.08-.27.16-.48h0a1.29,1.29,0,0,1,.4-.64h0l0,0,.05,0a.9.9,0,0,1,1.13-.13c1.15.27,4.56.78,4.73.8a29.6,29.6,0,0,0,6.17-.21h.08a39,39,0,0,0,10.84-3.67c.72-.4,1.45-.83,2.18-1.31a1.23,1.23,0,0,1,.35-1.11h0a1.21,1.21,0,0,1,.76-.37s1.35.39,1.57,1.14a.57.57,0,0,1,0,.17A.21.21,0,0,1,30.56,32.35Z"/><path class="cls-3" d="M54.33,14.66h0a2.57,2.57,0,0,0-.79-.92h0a19.25,19.25,0,0,0-3.63-2.5,1.23,1.23,0,0,0-1-.92s.41,3.06-.62,2.78-1.11.89-1.11.89c.08,1.61-.28,1.64-.28,1.64a2.49,2.49,0,0,1-.67,2c.42.78-.41,1.42-.41,1.42-.89,1.66-1.73,1.11-1.73,1.11-.22.86-1.19.64-1.19.64-4.31-.39-5.08-2.92-5.08-2.92s-.81-3.64-2.62-3.39-.75,1.7-.75,1.7c.78,2.36-.47,2.22-.47,2.22.5.05.84,1.39.84,1.39C35,15.91,37.67,19,37.67,19c.89.4,1,1.66,1,1.66,1-.75,2.33.74,2.33.74,2.69,3,.94,3.13.94,3.13-1,.18-1.58,2.58-1.58,2.58s-.72,2.8-1.54,1.93S38,29,38,29c.13,2.72-1.19,3.47-1.19,3.47-2.47,1.7-.7,1.17-.7,1.17,3.2-1,4.47-4.72,4.47-4.72.81-4.7,1.62-3.45,1.62-3.45.52,1.23,1.89-2.86,1.89-2.86.88.42.52-.77.52-.77a1.17,1.17,0,0,1,.81,1.38s.69.25.25,1.84.42.75.42.75c1.55-1,.25-3.39.77-3.73s.33-1.2.33-1.2c.44-4.89.87-3.33.87-3.33.33,1.65.53.85.53.85a1.21,1.21,0,0,0-.2-1.24c2-5.61,2-3.75,2-3.75a45.65,45.65,0,0,1,0,5.33s.24,2.5-.44,3.34-.47,1-.47,1a2.34,2.34,0,0,1-.13,1.49,28.31,28.31,0,0,1-2.33,4.05c-1.22,1.67-.93-.2-.93-.2a5.29,5.29,0,0,0-.06-1.21c-.11-.67-.72-.23-.5,0s.23.36,0,1.22-.94,0-1,.36.31.31.31.31c1.3.27-.58,2.61-.58,2.61a7.59,7.59,0,0,1-4.63,3.66s-1.63.37-1.81.82A12.74,12.74,0,0,1,35.38,38s.19-1.12-.7-.71a.68.68,0,0,0-.33,1.11c-2.19,1.63-3.71,1.08-3.71,1.08l.07.12c1.41,2.72,3,2.21,3,2.21,1.78,1.16,2.67-.32,2.67-.32,10-4,12.67-9.92,12.67-9.92h0a35.88,35.88,0,0,0,5.4-15h0c.07-.54.09-.85.09-.85A1.51,1.51,0,0,0,54.33,14.66Z"/></g></g></svg>