<svg xmlns="http://www.w3.org/2000/svg" viewBox="0 0 46.93 36.51"><defs><style>.cls-1{fill:#444;}.cls-2{fill:#c23b4a;}.cls-3{fill:#f5d7cd;}</style></defs><title>Top blade</title><g id="Layer_2" data-name="Layer 2"><g id="Layer_1-2" data-name="Layer 1"><path class="cls-1" d="M40.1,35.21c3.36-1.52,3.3-3.33,3.19-3.82a5.45,5.45,0,0,0-1.46-3.14,23.56,23.56,0,0,0-2.47-2.31,7.79,7.79,0,0,1,.78-.19s1.62-.39,4.26-2.8c1.73-1.79,1.35-3.13,1.17-3.52a5.55,5.55,0,0,0-2.15-2.71l-.34-.22,1.57-1.2v-.05c3-2.65,2.28-4.43,2-4.88a5.47,5.47,0,0,0-2.41-2.49A26.19,26.19,0,0,0,39.69,6l-.76-.24c-.69-.2-1.24-.34-1.56-.42A14.12,14.12,0,0,0,32.2,3a7.72,7.72,0,0,1-3.53-1.76L28.37,1,28,.88C26.08.43,23.18,0,23.06,0L23,0h-.45a25.71,25.71,0,0,0-7.9,1.23,28.5,28.5,0,0,0-2.88,1.13c-.56.24-1,.46-1.44.66l-.44.21a28.51,28.51,0,0,0-4,2.39,8.87,8.87,0,0,0-1.64,1.6l-.44.55c-.65.8-1.28,1.65-1.65,2.15L2,10.11c-.55.74-.53,1.75.1,3.67l-.84.93-.12.13a2.73,2.73,0,0,0-.5,2.24c-.47.7-.87,2.35-.4,7l0,.33.16.28c1.25,2.14,4.27,3.81,5.2,4.29,1.53,1.42,6.16,3.31,8.93,4.35,5.35,2,8.53,2.39,10.26,2.39a7.33,7.33,0,0,0,1.05-.06,21.42,21.42,0,0,0,6.93.87h.59l.08,0a22.3,22.3,0,0,1,2.83-.23h.27A9.93,9.93,0,0,0,40.1,35.21Z"/><path class="cls-2" d="M4.91,16.85s-2.33-5-1.73-5.84S5.77,7.45,6.71,6.85a32.24,32.24,0,0,1,8.2-4.14,24.23,24.23,0,0,1,8-1.21s2.92.4,4.76.84a9.14,9.14,0,0,0,4.3,2.17,13,13,0,0,1,4.81,2.2,30.47,30.47,0,0,1,6.86,2.51,4,4,0,0,1,1.75,1.85s.93,1.55-3.82,4.66a18.41,18.41,0,0,0-3.16,1.33s-5,1.85-7.12,1.47c0,0-2.23,1.72-11.09,1.53,0,0-8.12-.24-9.44-1.16C10.71,18.9,6.74,18.42,4.91,16.85Z"/><path class="cls-3" d="M11.78,6.62c.48.15.36.54.36.54-.26,1.29.18,1.33.18,1.33.73.31.47-.3.47-.3-.33-1.29,0-1.36,0-1.36.7-.6.53.11.53.11a1.54,1.54,0,0,0,.41,1.28c1.55.9.17-2.12.17-2.12-.61-1.69,1.21-3.45,1.21-3.45a39.86,39.86,0,0,0-4.56,1.92s1.48,1.92-.09.93c0,0-.76-.25-.25.6a2,2,0,0,1,.93,1.1s.65.63.14-.84c0,0-.15-.23.87-.53S11.78,6.62,11.78,6.62Z"/><path class="cls-3" d="M35.48,12c1-3.62,1.27-2.29,1.27-2.29,1,2,2.55-2.28,2.55-2.28l-.8-.25s-.79,2.5-1.24,1.28S37.87,7,37.87,7L37,6.79c-.72.28-.23,1.54-.23,1.54A7.26,7.26,0,0,0,34.89,10c-1.23,1.39-.78.15-.78.15s.55-.87-.33-.28a1.38,1.38,0,0,0-.41,1.66c-1.78-.37-3.09-.6-3.09-.6A31.24,31.24,0,0,0,25.4,9.4a.75.75,0,0,1-.08-.75,3,3,0,0,0,.28-1.2c.26-1.69-.28-.59-.28-.59-.6,1.36-.65.76-.65.76s-.43-1-.47-.36c-.08,1.4-.33,1.74-.41,1.81a24.15,24.15,0,0,0-3.51-.34,3.11,3.11,0,0,0-.16-1.41s-1-2.57-.26-1.74S21,5.69,21,5.69s.27-.42-.83-.7c-.52-.14-.44-.28-.44-.28-.19-1-.38-.26-.38-.26a4.15,4.15,0,0,0-.1,2.48,1.46,1.46,0,0,1-.88,1.84,12.41,12.41,0,0,0-2.51.4c-8.68,2.9-10.42-1-10.42-1l-.46.56s1.43,2.92,6.86,1.94c1.09-.2,2.11-.39,3.11-.54,0,.3.19,3.63-1.32,4.27s.3,2.22.3,2.22.81.88.12-.8c0,0-.44-.86,1.2-1.66A2.26,2.26,0,0,0,16.38,12c0-1.6,2.11-.75,2.11-.75s1.25.5.77-1.47a26.25,26.25,0,0,1,3.68.27c-.32.41-2.34,3.05-2.44,5.47,0,0-.48.6-.42,1a1.21,1.21,0,0,1-.22,1s.21,1.5-.54.81c0,0-.33-.13.15-1.67a8.31,8.31,0,0,1,0-2.65s.55-.74-.27-.8c0,0-.35-.1-.17.81a10.24,10.24,0,0,0,.12,2.59s-.88,2.16.23,2.35c0,0,.84.51-.1,1.08l.89,0s.5-.39.24-1.73a2.85,2.85,0,0,0,.21-1.56,1,1,0,0,1,.85-1.15c.95-.14,1.23-2.62,1.23-2.62s.31-2.35,1.46-2.77c.58.11,1.2.23,1.83.38a2.82,2.82,0,0,1-.91,1.4s-1.81,2.12-1.78,4.16c0,0-.07,2.41.51,3.09,0,0,.37.44.17-.45s-.95-4.2,1.51-6.08c0,0,.68-.64,1.1.71s.48.08.48.08a1.55,1.55,0,0,0-.84-1.66s-.4-.1.53-1.08c1,.24,2.1.53,3.29.89,0,0,11.14,2.3,12.52,3.35l.6-.46C42.47,13.73,38.75,12.74,35.48,12ZM19.79,8s.2-.27.18.73h-.45A.73.73,0,0,1,19.79,8ZM17.4,10.4c-.64.2-1.4-.46-1.6.28L15.54,10c.73-.1,1.47-.18,2.22-.22C17.81,9.89,18,10.23,17.4,10.4Zm4.8,3.11s-.32,1.82-1.08,1.59c0,0-.54.25.65-2.34a8.82,8.82,0,0,1,1.5-2.68l.38.06C23.35,10.29,22.67,10.9,22.2,13.51Zm12.6-2.38c.42.16,0,.67,0,.72l-.69-.15C34.11,11.64,34.38,11,34.8,11.13Z"/><path class="cls-2" d="M3.38,21.83s-1.83-5.24-1.16-6,2.92-3.29,3.92-3.79A32,32,0,0,1,14.7,8.73a24,24,0,0,1,8-.43S25.6,9,27.39,9.6a9.18,9.18,0,0,0,4.07,2.57A12.68,12.68,0,0,1,36,14.83,30.47,30.47,0,0,1,42.62,18a4,4,0,0,1,1.56,2s.77,1.63-4.26,4.26a17.93,17.93,0,0,0-3.27,1s-5.16,1.36-7.23.78c0,0-2.39,1.49-11.19.44,0,0-8-1-9.28-2.07C9,24.43,5.05,23.58,3.38,21.83Z"/><path class="cls-3" d="M11.2,12.32c.47.19.31.57.31.57-.38,1.26.05,1.34.05,1.34.7.38.5-.25.5-.25-.2-1.32.11-1.36.11-1.36.76-.52.52.16.52.16A1.58,1.58,0,0,0,13,14.1c1.46,1,.37-2.09.37-2.09-.44-1.75,1.54-3.32,1.54-3.32a40,40,0,0,0-4.72,1.47s1.29,2.06-.18.92c0,0-.73-.33-.31.56a2.08,2.08,0,0,1,.82,1.19s.58.69.22-.83c0,0-.13-.23.92-.43S11.2,12.32,11.2,12.32Z"/><path class="cls-3" d="M34.27,20c1.38-3.51,1.49-2.15,1.49-2.15.82,2.12,2.76-2,2.76-2l-.77-.33s-1,2.41-1.36,1.16.74-1.4.74-1.4l-.82-.3c-.75.21-.39,1.52-.39,1.52A7.16,7.16,0,0,0,33.87,18c-1.35,1.26-.79.07-.79.07s.63-.81-.29-.3a1.35,1.35,0,0,0-.57,1.6c-1.74-.53-3-.89-3-.89a31.69,31.69,0,0,0-4.71-2,.77.77,0,0,1,0-.75,3.19,3.19,0,0,0,.39-1.17c.42-1.65-.22-.61-.22-.61-.73,1.3-.72.69-.72.69s-.33-1.09-.44-.4c-.21,1.39-.49,1.7-.58,1.76a23.69,23.69,0,0,0-3.45-.68,3.06,3.06,0,0,0,0-1.42s-.76-2.66-.08-1.76,1.07.22,1.07.22.31-.39-.76-.78c-.5-.18-.41-.32-.41-.32-.1-1-.35-.3-.35-.3a4.11,4.11,0,0,0-.34,2.46,1.47,1.47,0,0,1-1,1.75,11.83,11.83,0,0,0-2.54.16c-8.92,2-10.27-2-10.27-2l-.51.51s1.14,3.05,6.63,2.6c1.11-.09,2.14-.18,3.15-.24,0,.3-.16,3.64-1.73,4.12s.09,2.25.09,2.25.72.95.2-.79c0,0-.35-.9,1.35-1.53a2.28,2.28,0,0,0,1.39-2c.11-1.6,2.17-.54,2.17-.54s1.19.62.9-1.4A26.8,26.8,0,0,1,22,16.8c-.37.37-2.63,2.8-3,5.2,0,0-.54.55-.53,1a1.15,1.15,0,0,1-.31.95s.07,1.51-.61.75c0,0-.32-.15.31-1.65a8.46,8.46,0,0,1,.24-2.64s.62-.68-.2-.81c0,0-.34-.14-.24.78a10.43,10.43,0,0,0-.14,2.6s-1.08,2.06,0,2.35c0,0,.78.6-.2,1.07l.88.12s.53-.34.41-1.7A2.93,2.93,0,0,0,19,23.26a1,1,0,0,1,1-1.06c1-.05,1.48-2.49,1.48-2.49s.54-2.3,1.72-2.61c.57.16,1.17.35,1.79.55a2.91,2.91,0,0,1-1,1.31s-2,1.93-2.18,4c0,0-.31,2.4.21,3.13,0,0,.32.47.21-.43s-.54-4.28,2.09-5.9c0,0,.74-.58,1,.81s.48.12.48.12a1.54,1.54,0,0,0-.68-1.72s-.39-.15.63-1c1,.34,2,.73,3.19,1.2,0,0,10.87,3.37,12.14,4.55l.64-.4C41.06,22.36,37.45,21,34.27,20ZM19.05,14.46s.22-.25.1.74l-.44,0A.68.68,0,0,1,19.05,14.46Zm-2.61,2.17c-.66.13-1.35-.6-1.63.12l-.19-.69c.74,0,1.48,0,2.23,0C16.89,16.16,17,16.51,16.44,16.63Zm4.47,3.55s-.49,1.78-1.22,1.48c0,0-.57.19.87-2.26a9,9,0,0,1,1.74-2.52l.38.09C22.36,17.09,21.63,17.63,20.91,20.18ZM33.69,19c.4.2-.06.66-.11.71l-.67-.21C32.94,19.47,33.28,18.84,33.69,19Z"/><path class="cls-2" d="M1.71,23.91s-.57-5.52.26-6.08S5.57,15.31,6.66,15a32.18,32.18,0,0,1,9.11-1.23,23.84,23.84,0,0,1,7.9,1.44s2.63,1.33,4.23,2.34A9.09,9.09,0,0,0,31.26,21a12.87,12.87,0,0,1,3.82,3.65,30.72,30.72,0,0,1,5.68,4.61,3.93,3.93,0,0,1,1.05,2.32s.37,1.76-5.13,3.16a17.89,17.89,0,0,0-3.42.23s-5.33.11-7.22-.93c0,0-2.66.9-11-2.17,0,0-7.59-2.87-8.54-4.18C6.52,27.73,2.92,26,1.71,23.91Z"/><path class="cls-3" d="M11.53,16.48a.44.44,0,0,1,.16.63c-.66,1.13-.26,1.31-.26,1.31.59.54.54-.13.54-.13C12.08,17,12.4,17,12.4,17c.86-.34.46.27.46.27a1.58,1.58,0,0,0,0,1.35c1.18,1.36.85-1.95.85-1.95,0-1.8,2.27-2.87,2.27-2.87a39.44,39.44,0,0,0-4.94.34s.78,2.3-.38.85c0,0-.64-.49-.43.48a2.06,2.06,0,0,1,.51,1.34s.41.81.41-.75c0,0-.07-.26,1-.21S11.53,16.48,11.53,16.48Z"/><path class="cls-3" d="M32.18,29.29c2.16-3.08,2-1.74,2-1.74.3,2.26,3.15-1.34,3.15-1.34l-.67-.49S35,27.82,35,26.53s1-1.19,1-1.19l-.74-.48c-.77,0-.72,1.38-.72,1.38a7.28,7.28,0,0,0-2.34,1c-1.62.91-.79-.12-.79-.12s.8-.64-.22-.36a1.38,1.38,0,0,0-.93,1.43c-1.56-.93-2.72-1.58-2.72-1.58a31.75,31.75,0,0,0-4.11-3.06.77.77,0,0,1,.17-.73,3.11,3.11,0,0,0,.66-1c.79-1.51-.08-.66-.08-.66-1,1.1-.86.51-.86.51s-.07-1.14-.33-.49c-.53,1.3-.88,1.54-1,1.58a23.51,23.51,0,0,0-3.21-1.47,3,3,0,0,0,.3-1.38s-.13-2.77.33-1.74,1,.47,1,.47.39-.31-.55-.94c-.45-.29-.33-.41-.33-.41.13-1-.27-.37-.27-.37a4.14,4.14,0,0,0-.91,2.31A1.45,1.45,0,0,1,17,20.64a12.51,12.51,0,0,0-2.5-.44C5.36,20.11,5,15.85,5,15.85l-.61.37s.4,3.23,5.84,4.07c1.1.17,2.12.32,3.12.51-.08.28-1,3.49-2.64,3.6s-.43,2.2-.43,2.2.48,1.09.37-.72c0,0-.13-1,1.67-1.18a2.28,2.28,0,0,0,1.83-1.65c.47-1.53,2.23,0,2.23,0s1,.88,1.21-1.14A27.27,27.27,0,0,1,21,23.34c-.44.28-3.2,2.12-4.08,4.37,0,0-.65.42-.74.83a1.15,1.15,0,0,1-.53.85s-.28,1.49-.76.59c0,0-.28-.22.68-1.53a8.25,8.25,0,0,1,.84-2.51s.77-.52,0-.84c0,0-.3-.21-.42.71a10.43,10.43,0,0,0-.73,2.49s-1.54,1.76-.55,2.3c0,0,.63.75-.44,1l.83.32s.6-.21.79-1.56a2.9,2.9,0,0,0,.7-1.41,1,1,0,0,1,1.19-.81c.94.17,2-2.08,2-2.08s1.06-2.12,2.28-2.14c.52.29,1.06.61,1.61.95a2.76,2.76,0,0,1-1.32,1s-2.4,1.4-3,3.34c0,0-.85,2.26-.52,3.09,0,0,.2.53.31-.36s.47-4.29,3.4-5.26c0,0,.85-.39.81,1s.44.24.44.24a1.53,1.53,0,0,0-.27-1.84s-.34-.23.86-.86c.88.56,1.82,1.2,2.82,1.91,0,0,9.78,5.81,10.75,7.26l.71-.24C38.23,33.19,35,31.05,32.18,29.29ZM18.66,20.38s.27-.19-.07.75L18.17,21A.69.69,0,0,1,18.66,20.38Zm-3.05,1.51c-.67,0-1.17-.9-1.6-.26l0-.71c.72.14,1.44.31,2.17.51C16.17,21.54,16.19,21.91,15.61,21.89Zm3.53,4.5s-.9,1.61-1.54,1.15c0,0-.59.06,1.38-2a9,9,0,0,1,2.28-2.05l.34.19C21.27,23.71,20.43,24.07,19.14,26.39Zm12.69,1.85c.34.29-.21.63-.27.67l-.6-.36C31,28.49,31.48,28,31.83,28.24Z"/></g></g></svg>