<svg xmlns="http://www.w3.org/2000/svg" xmlns:xlink="http://www.w3.org/1999/xlink" viewBox="0 0 29.69 48.92"><defs><style>.cls-1{fill:#444;}.cls-2{fill:#a0ca10;}.cls-3{fill:#8cb224;}.cls-4{fill:#7f9920;}.cls-5{fill:url(#linear-gradient);}</style><linearGradient id="linear-gradient" x1="14.84" y1="32.14" x2="14.84" y2="58.82" gradientUnits="userSpaceOnUse"><stop offset="0" stop-color="#fff"/><stop offset="0.1" stop-color="#fefafa"/><stop offset="0.22" stop-color="#faecec"/><stop offset="0.35" stop-color="#f4d5d4"/><stop offset="0.48" stop-color="#ebb4b4"/><stop offset="0.59" stop-color="#e39594"/></linearGradient></defs><title>Turnip</title><g id="Layer_2" data-name="Layer 2"><g id="레이어_1" data-name="레이어 1"><path class="cls-1" d="M11.85,48.92c-.4,0-1.74-.17-2-2.4v-.24c.15-3.5-4.09-6.36-4.13-6.39l-.09-.06C0,35.57,0,30.53,0,30.31c-.2-8.77,5.41-12.38,9.59-13.85l-2.31-11,0-.24A3.16,3.16,0,0,1,9,2.94l-.12-.73.47-.53A4.78,4.78,0,0,1,13,0a6.08,6.08,0,0,1,2.25.46,4.58,4.58,0,0,1,2-.48,5.28,5.28,0,0,1,2.93,1l.77.51-.19,1.62a3.7,3.7,0,0,1,2.62,3l.07.32L21,16.33A13.26,13.26,0,0,1,29.4,26.42a13.49,13.49,0,0,1-8.31,15.4c-5.83,3.12-7.88,6.34-7.9,6.37l-.32.52-.77.2Z"/><path class="cls-2" d="M14.26,17.22,13.37,4.44a2.08,2.08,0,0,1,2.93,0L15.87,17.2S14.85,17.18,14.26,17.22Z"/><path class="cls-3" d="M15.32,3.86V2.2a3.21,3.21,0,0,1,4,0L17.58,17.31a15.63,15.63,0,0,0-1.71-.11L16.3,4.44A2,2,0,0,0,15.32,3.86Z"/><path class="cls-4" d="M15.32,2.2s-2.83-1.8-4.86.48l2.36,14.68s1.08-.12,1.44-.14L13.37,4.44a2.25,2.25,0,0,1,2-.58Z"/><path class="cls-3" d="M10.64,3.81S8.93,4.36,8.81,5.4l2.57,12.24a12.64,12.64,0,0,1,1.44-.28Z"/><path class="cls-4" d="M19.1,4.43a2.42,2.42,0,0,1,2.82,1.91L19.19,17.59a15.64,15.64,0,0,0-1.61-.28Z"/><path class="cls-5" d="M15.21,16.86s-14,.29-13.71,13.48c0,0-.07,4.44,5,8.29,0,0,5,3.26,4.82,7.71,0,0,.15,1.18.59,1.07,0,0,2.15-3.55,8.56-7,0,0,9.41-3.48,7.44-13.82C27.91,26.63,26.54,16.86,15.21,16.86Z"/></g></g></svg>