<svg xmlns="http://www.w3.org/2000/svg" viewBox="0 0 54.38 52.61"><defs><style>.cls-1{fill:#444;}.cls-2{fill:#c59368;}.cls-3{fill:#9f7953;}.cls-4{fill:#f2cfa6;}.cls-5{fill:#ab714d;}.cls-6{fill:#ac7551;}.cls-7{fill:#f6c784;}</style></defs><title>Walnut</title><g id="레이어_2" data-name="레이어 2"><g id="레이어_1-2" data-name="레이어 1"><path class="cls-1" d="M32.12,52.61a15.27,15.27,0,0,1-5.06-.78,17.52,17.52,0,0,0-5.42-1.16,3,3,0,0,0-1,.11L18.36,52l.11-2.55c.13-2.05-1.79-4.52-2.55-5.29l-.05-.06,0-.06a20.63,20.63,0,0,1-1.6-2.38c-.55-.15-1-.3-1.43-.45C8.7,39.74,3,36.85,1,29.26-2.37,16.38,3.68,10,4.79,9,7.05,5.73,10.65,3.41,15.5,2.08A13.62,13.62,0,0,1,16.36.87,1.78,1.78,0,0,1,17.85,0a1.66,1.66,0,0,1,1.42.84A4.31,4.31,0,0,0,21.64,2.1c2.1.17,6.83,2.68,7.92,3.27,6.3,2.68,7.74,5.87,8.06,7.34a11.11,11.11,0,0,1,2.69,1.7,7.36,7.36,0,0,1,3.08-.73h.29a5.55,5.55,0,0,1,.7.08c1.79.25,10.94,2.29,9.92,16.51-1.09,15.4-11.41,20.08-11.84,20.28a31.27,31.27,0,0,1-10.34,2.06Z"/><path class="cls-2" d="M37.93,18.55a24.16,24.16,0,0,1-1.63-5.1s.05-3.67-7.36-6.8c0,0-5.47-3-7.41-3.13a5.84,5.84,0,0,1-3.42-1.84s-.24-.58-.58,0c0,0-1.15,1.47-1,1.57S9.6,4.41,5.87,9.93c0,0-6.94,5.83-3.47,19,1.75,6.65,6.64,9.45,10.89,11a36.07,36.07,0,0,0,5.19,1.26,1.85,1.85,0,0,0,1.23,0L21.83,41s1.68.25,2.38-.6c.37-.68,2.1-.26,2.1-.26s9.2.05,10.83-13.25c0,0,2-5.46.79-8.35"/><path class="cls-3" d="M19.71,41.18a30.52,30.52,0,0,0-.6-3.68,13.74,13.74,0,0,0-2.52-4.34,13.88,13.88,0,0,1-2.49-4.91,1.64,1.64,0,0,0-.28-.54c-.76-1-3.37-4.55-2.36-6.9.95-2.2.37-6.77.11-8.48a.79.79,0,0,1,.48-.85c5.13-1.84,6.06-9.8,6.06-9.8-.26-.58-.58,0-.58,0s-1.41,7-6.65,9a.62.62,0,0,0-.41.7c.36,1.75,1.36,7.32-.12,9.73a1.1,1.1,0,0,0-.19.68c.07,1.19.45,4.87,2.5,6.15a1.35,1.35,0,0,1,.56.78,11.65,11.65,0,0,0,3,5.47s2.73,3.85,2.24,7c0,0,.39.39.63.35a1.53,1.53,0,0,0,.6-.35"/><path class="cls-4" d="M40.06,16.14S33,7.61,19.67,19c0,0-12.61,11.49-2.73,24.25,0,0,3.15,3.22,2.94,6.37,0,0,4.35-2.59,8.27-.84s13.6-2.45,13.6-2.45S52.4,39.35,51.91,28.35,45,15.45,45,15.45s-1.75-1.16-4.91.69"/><path class="cls-5" d="M19.88,49.58s1.54-1.19,7.64.91,14.37-1.24,14.37-1.24,10-4.36,11-19.08S43.64,15.1,43.64,15.1a2.89,2.89,0,0,1,1.33.35s6.45,1.93,6.94,12.9c0,0,1.22,9.67-10.16,17.94,0,0-9.47,4.13-13.6,2.45,0,0-3.5-1.75-8.27.84"/><path class="cls-6" d="M36.42,20.43s-7.22-9-15.7,3.22S19.88,40,19.88,40s1,4.14,3.72,3c0,0,0,2.17.45,2.24s1.28-1.3,1.28-1.3,11.37,5.92,21.22-8.76c0,0,7.65-11.86-5.07-15.8,0,0-3.81-.68-5.06,1.05"/><path class="cls-7" d="M33.71,22.74s1.89-3.68-4-4c0,0-2.26-.48-4.1,3,0,0-1.73-.15-2.15.32,0,0-2.16,1.84-3.11,6.78,0,0-1.36-.16-1.73,1.94s-.37,2.9,1.26,4.16c0,0,.72.52,0,2.52,0,0-1,1.47,1.53,2.52,0,0,3.41,3.05,4.57-.63s3.63-6.32,4.83-6.21c0,0,1.27,2.64-4.09,8,0,0,.84,1.76,1.68,1.44s1.78.89,1.78.89.11,1,3.16,0A10,10,0,0,0,38,40.4s.9-3.15,1.47-3.15.48,1.31.48,1.31.05,3.37,3.2-.52a24.5,24.5,0,0,0,4.26-9.2s.32-1.26-1.42-.26-1.89-.74-1.89-.74-.26-1.79.84-2.21,1.52-1.47,1-2.05-2.52-3.57-5.52-2-3.05,2.26-3.05,2.26a.78.78,0,0,1-1.1,0c-.63-.53-.45-.74-1.34-.66s-1.08-.1-1.18-.37"/></g></g></svg>