<svg xmlns="http://www.w3.org/2000/svg" viewBox="0 0 54.33 48.59"><defs><style>.cls-1{fill:#444;}.cls-2{fill:#345002;}.cls-3{fill:#73a61b;}.cls-4{fill:#d5eeac;}.cls-5{fill:#d73b3c;}</style></defs><title>Watermelon</title><g id="Layer_2" data-name="Layer 2"><g id="레이어_1" data-name="레이어 1"><path class="cls-1" d="M36.49,48.59a14.82,14.82,0,0,1-9-2.71A19.8,19.8,0,0,1,19,48h-.57a18.06,18.06,0,0,1-14.81-7.2C-.2,35.67-1,28.8,1.27,21.46,5.09,9.2,13.62,7.05,17.34,6.72A3.36,3.36,0,0,1,20.2,4.81h1.29a7.29,7.29,0,0,0,.76,0l-1.2-1.13L21,3.53a2.16,2.16,0,0,1,0-2.46A2.25,2.25,0,0,1,22.9,0C24,0,25,.69,26.42,2.23,27,2.85,27.54,3.39,28,3.87,29.28,5.11,30.18,6,30,7.21A2.08,2.08,0,0,1,29,8.74a2.4,2.4,0,0,1-1.21.32,3.07,3.07,0,0,1-.85-.13A18.7,18.7,0,0,1,37.73,24.11a27.25,27.25,0,0,1,0,5.85H54.33v1.5c0,.16-.25,16.21-16.67,17.09-.39,0-.78,0-1.16,0ZM25.16,8.16l.78.32A7.23,7.23,0,0,1,25.3,8Z"/><path class="cls-2" d="M19.49,9.48c.19-1.85.75-1.8,3-1.94a2.48,2.48,0,0,0,2.56-1.8s2,2.37,3.12,1.71-.76-1.85-2.89-4.22S22.52,1.48,22.23,1.9a.68.68,0,0,0,0,.76L23.9,4.27c.71,2.42-1.9,2-3.66,2s-2.13,2.75-2.13,2.75v.8Z"/><path class="cls-3" d="M18.91,8.17S7.25,7.31,2.71,21.9s4.43,24.9,16.2,24.58,18.66-10,17.33-22.21S23.45,8.55,18.91,8.17Z"/><path class="cls-2" d="M27.24,10.83a5.8,5.8,0,0,0-2-1,48.85,48.85,0,0,0-2.83,15.83c-.21,9.38,4.24,12.17-.78,20.53a3.72,3.72,0,0,0,1.67-.34C27.07,42.28,26.59,33,25.64,28S27.24,10.83,27.24,10.83Z"/><path class="cls-2" d="M33.56,16.57a6.79,6.79,0,0,0-2-2.48l0,0,.13.21c.21.62.49,3-.81,12.24-1.7,12.15-4,8.92-3.61,17.83,0,0,2.88-1.63,3.47-2.53,0,0-1.85-3.81,1.59-11.58S33.56,16.57,33.56,16.57Z"/><path class="cls-2" d="M20.05,8.31a3.14,3.14,0,0,0-1.89-.14s-1.8,8.9-.85,14.87-2.21,9-.78,23.36a6,6,0,0,0,2.38.08c-.77-1.85,0-4.93,0-4.93.89-6.4-.6-14.53.54-20.88S20.89,8.46,20.05,8.31Z"/><path class="cls-2" d="M14.65,20.29a34.75,34.75,0,0,1,.88-11.76,7.58,7.58,0,0,0-2.22.69S10.77,15.65,12.48,21s-2.13,12-.59,16a16.07,16.07,0,0,1,.43,8.48,4.29,4.29,0,0,0,2.09.6s1.1-1.61-.14-6.81S15.32,26.64,14.65,20.29Z"/><path class="cls-2" d="M7.93,20.1C7,16.6,9.38,11.49,9.38,11.49a6.35,6.35,0,0,0-1.75,1.6,16.56,16.56,0,0,0-2,10.24c.95,5.4-2.27,9.17-1.13,12.83s.64,4.24.64,4.24.1.5,1,1.15a12.58,12.58,0,0,0,.65-6.43C6.3,31.27,8.88,23.61,7.93,20.1Z"/><path class="cls-3" d="M22.44,31.46H52.82s0,14.78-15.25,15.6S22.44,31.46,22.44,31.46Z"/><path class="cls-4" d="M23.33,31.46H51.81s.76,13.2-13.2,14.9S23.33,31.46,23.33,31.46Z"/><path class="cls-5" d="M24.09,31.46H51.18S50.8,43.77,38.55,45.35,24.09,31.46,24.09,31.46Z"/><path d="M32.3,34.74s-1.14,1.9-.64,2.21S32.3,34.74,32.3,34.74Z"/><path d="M34.89,37.83s-1,2-.42,2.26S34.89,37.83,34.89,37.83Z"/><path d="M37.76,39.25s-.67,2.1-.11,2.29S37.76,39.25,37.76,39.25Z"/><path d="M40.3,37.82s-.15,2.21.44,2.26S40.3,37.82,40.3,37.82Z"/><path d="M42.9,35.12s.4,2.17,1,2.07S42.9,35.12,42.9,35.12Z"/></g></g></svg>