<svg xmlns="http://www.w3.org/2000/svg" viewBox="0 0 57.34 50.83"><defs><style>.cls-1{fill:#444;}.cls-2{fill:#e3af7d;}.cls-3{fill:#f4f484;}</style></defs><title>Webfoot_octopus</title><g id="레이어_2" data-name="레이어 2"><g id="레이어_1-2" data-name="레이어 1"><path class="cls-1" d="M51.38,26.87a8.8,8.8,0,0,1,.41-.82l.19,0a3.12,3.12,0,0,0,.93.17,1.57,1.57,0,0,0,1.54-1.1c.37-1.19-.74-1.95-1.15-2.22a3.9,3.9,0,0,0-2.24-.77c-.91,0-2.56.39-3.45,3A4.73,4.73,0,0,0,47.68,29a3.76,3.76,0,0,0,.69.91h-.29a9.8,9.8,0,0,0-2.89.44A6.8,6.8,0,0,0,46,28.93c1.9-4.3,1.23-7.51-.21-8.66a4.9,4.9,0,0,0-1-.6,7,7,0,0,1-.65-.36,2.75,2.75,0,0,1,.44-.58c.49-.54,1-1,1.52-1.5,1.83-1.71,3.91-3.66,2.48-7.09A3.39,3.39,0,0,0,45.43,7.9a4.18,4.18,0,0,0-3.73,2.52,3.49,3.49,0,0,0,.78,3.89l.07.07c-.29.25-.57.52-.85.8,0-.27,0-.55,0-.85C41.58,11,39,10,37.38,9.65c.27-.24.62-.54,1.07-.9.89-.56,2.7-1.92,2.48-3.66-.09-.73-.56-1.7-2.27-2.23a14.46,14.46,0,0,0-2.73-.51,1.27,1.27,0,0,0-.14-1.9,1.42,1.42,0,0,0-2,0,3.73,3.73,0,0,0-1.69,2.77,2.81,2.81,0,0,0,1.34,2.34,4.92,4.92,0,0,0,1.31.63A5.53,5.53,0,0,0,32.23,9.9,7.94,7.94,0,0,0,28.07,8c0-.06.09-.11.13-.16.25-.31.3-.36.55-.43l2.09-.57L29.58,5a1.7,1.7,0,0,0-1.42-.69,5.59,5.59,0,0,0-2.65,1C25.08,3.71,24,2,22.09,2a3.48,3.48,0,0,0-1.68.47l-.53.29c-1.92,1-4.31,2.34-3.06,5.68a5.81,5.81,0,0,0,1.72,2.3l.08.07a7.52,7.52,0,0,1-.85.64c-2.1,1.43-3.6,2.74-4.29,4.3A3.32,3.32,0,0,0,12,12.65h.1A1.87,1.87,0,0,0,14,11.55c.52-1.2-.48-2.26-.81-2.61A3,3,0,0,0,11,8a5.11,5.11,0,0,0-4.21,2.55A3.22,3.22,0,0,0,6.93,14a6.55,6.55,0,0,0,1.73,1.67c-.21.15-.48.33-.83.54-2.6,1.6-4,3.24-4.19,5a5.34,5.34,0,0,0,1.88,4.4,5.45,5.45,0,0,0,3.7,1.49,2.84,2.84,0,0,1,2.64,1.44,5.94,5.94,0,0,0-1.7-.25,3.84,3.84,0,0,0-.74.06c-1.42.14-3.95,1.34-3.95,5v.12a4.21,4.21,0,0,1-1,.08H3.75c-.88,0-3.58,0-3.75,2.67a2.23,2.23,0,0,0,.51,1.63l.53.51h.65a2.14,2.14,0,0,0,1.72-1.11,4.38,4.38,0,0,1,.57.15,7.23,7.23,0,0,0,1.88.33A3.21,3.21,0,0,0,9,35.37a16.21,16.21,0,0,1,.89-2.13c.17.29.36.66.57,1.07a14.32,14.32,0,0,0,4.07,5.33,6.18,6.18,0,0,0-.77,0,25.1,25.1,0,0,0-5.24.89l-.1,0a1.59,1.59,0,0,0,.18-.94,1.86,1.86,0,0,0-2-1.6c-.73,0-2.55.34-3.75,3.54A2.67,2.67,0,0,0,3,44.12a3.09,3.09,0,0,0,2.74,1.15,18,18,0,0,0,4.73-.91A2.89,2.89,0,0,0,10,47.24c.62,1.44,2.43,2.11,5.69,2.11a19.73,19.73,0,0,0,2-.09A13.63,13.63,0,0,0,27.8,42.35a13.39,13.39,0,0,0,2.8,3.18h0a3.36,3.36,0,0,0,1.85,2.89,9.62,9.62,0,0,0,5.07,1.49,8.66,8.66,0,0,0,2.53-.37,7.12,7.12,0,0,1,2-.34,3,3,0,0,1,1.57.34h0l.09.08.09.06a7.69,7.69,0,0,0,3.71,1.15c1.11,0,3.74-.43,4.44-4.35a4.73,4.73,0,0,0-.95-4c-1.6-1.92-4.59-2.32-6.82-2.32a11.88,11.88,0,0,0-1.29.06s-.39,0-1,.09a12.19,12.19,0,0,0,1.77-1.1c5-3.65,7.42-3.94,8.05-3.94h.15l0,0,.35,0s.19,0,.5,0a4.93,4.93,0,0,0,3.47-1.26,3.82,3.82,0,0,0,1-2.84C57.27,28,53.78,27,51.38,26.87M12.65,21.41h-2A8.38,8.38,0,0,1,9,21.29a1.61,1.61,0,0,1,0-.39c0-.18,0-.22.85-.59a5.3,5.3,0,0,0,3.2-2.94,7.51,7.51,0,0,0,.64,3.4,8.07,8.07,0,0,0,.37.8,7.63,7.63,0,0,0-1.44-.16m5,20.48-.21.35a2.46,2.46,0,0,0-.06-.53,2.09,2.09,0,0,0-.47-.9,9.41,9.41,0,0,0,1.26.23c-.21.3-.37.59-.52.85M22.9,9a3.59,3.59,0,0,0-1.13-1.48,4.77,4.77,0,0,1-.88-.86,7.48,7.48,0,0,1,.78-.22,4.2,4.2,0,0,0,1.65,2.33L22.9,9M46.37,45.39c.65,0,.7.11.78.27a2.53,2.53,0,0,1,.1.28,2.34,2.34,0,0,1-.46,0,5,5,0,0,1-.95-.1,7.82,7.82,0,0,1-1.15-.3,9.51,9.51,0,0,1,1.68-.19M36,15.56l-.24-.62.28.17.07,0,.17.1a2.83,2.83,0,0,1-.28.32m1.24,11a12.59,12.59,0,0,0,.47-3,3.84,3.84,0,0,1,1.21-3,2.76,2.76,0,0,0,.44,1.09,8.48,8.48,0,0,0,2.29,2.15l.3.22a15.27,15.27,0,0,1-4.71,2.54"/><path class="cls-2" d="M35.28,17.88c4.72-2.72,1.42-4.11,1.42-4.11-7.17-4.33.75-7.2,1.5-8.2s-2.2,0-4-1.25.34-2.63.34-2.63c-1.39,2.8.55,1.66,3.63,2.61s-.63,3.22-.63,3.22C30.67,13.05,40,8.8,40.2,14.38s-3.73,3.69-4,9.08-2.73,4.36-1.11,4.86,6.66-1.83,8.16-3.52-1.25-1.92-2.66-4,4.52-6.59,4.52-6.59,2.61-2.05.42-3.08-2,2.14-2,2.14c-2.34-2.42,2.3-5.75,3.64-2.56s-1.36,4.42-3.73,7,.53,3,1.39,3.73,1.36,3.3-.22,6.88S37.25,33,37.25,33c1.67,1,1,2.25,6.36-.44s7.48.16,10-.61-.8-1.78-2-2.12-3.67-1-2.56-4.19,3.36-1.5,3.36-1.5,1.39.94,0,.53a1.48,1.48,0,0,0-1.86.53c-2.14,3.69.3,3.16.3,3.16s4.92,0,5,2.92-3.37,2.55-3.37,2.55S50,32.74,42.84,38s-10.2-3.44-8.67.7,9,3,9,3,8.31-.78,7.36,4.55-5.86,2.2-5.86,2.2-1.55-1.36-5-.31a7.82,7.82,0,0,1-6.3-.91s3.83,1.16,6.75-.12,2.61-.27,5.5.28S49.25,46.6,48.5,45s-2.5-1.61-10,.64-10.78-6.84-10.78-6.84a12.4,12.4,0,0,1-10.06,9s-9.19.89-5.33-3.25.06-2.39.06-2.39-9.53,3.75-8.09-.08S7.89,39.74,6.78,40s-1.86,1.95-1.86,1.95c-1,2.11,7.11-1.5,9.8-.7s.45,2.09-.94,3.64,0,1,0,1c5.42-1,4.53-3.14,6.44-4.86s-.16-1.44-.16-1.44c-6,.61-7.7-5.23-9.06-7.31s-2.33-.44-3.44,2.61-4.31-.28-5.22,1.25-.84.17-.84.17c.17-2.67,5.47.33,5.47-3s2.64-3.47,2.64-3.47A4.89,4.89,0,0,1,14.2,32c2.08,2.64,4.69,3.39,6,2s.12-1,.12-1C16,33.69,14,29.52,14,29.52c-2.3-5.81-5.14-2.64-7.41-4.95s-2.14-4.52,2-7.08,1-2.17-.44-4.33,2.55-4.64,3.92-3.2-.23,1.17-.23,1.17.7-.44-.44-.72S7.59,12.13,10,13.21,12,15.71,12,15.71c-.58,4-4.27,2.56-4.44,5.09s1.83,2,5.08,2.11,3.59,2.14,3.59,2.14a4.12,4.12,0,0,0,3.5,3.69c3.44.83,2-.36,2-.36s-5.25-4.83-6.59-8.17-.22-5,3.5-7.5.48-2.47-.39-4.77.62-2.87,2.92-4.14,3,2.25,3,2.25.26,1.66,2.11.58,2.11-.72,2.11-.72c-1.33.36-1.19,1.28-2.47,1.86s-2.58-.61-2.83-1.95-.81-.93-.81-.93a6.91,6.91,0,0,0-2.33.59c-1.22.56-.82,1.89.92,3.26s.32,3.83-1.11,4.67-2.92,2.89-2.26,5A4.75,4.75,0,0,0,20,21.33a7.27,7.27,0,0,1-.68-4.81c2.05-7.33,7.55-7.11,7.55-7.11s4.2-.67,7.25,5.5Z"/><path class="cls-3" d="M26.14,26.09A1.11,1.11,0,1,1,25,25a1.11,1.11,0,0,1,1.11,1.11"/><path class="cls-3" d="M33.66,26a1.11,1.11,0,1,1-1.11-1.11A1.11,1.11,0,0,1,33.66,26"/><path d="M25.54,26.09a.51.51,0,1,1-.51-.51.51.51,0,0,1,.51.51"/><path d="M33.06,26a.51.51,0,1,1-.51-.51.51.51,0,0,1,.51.51"/></g></g></svg>