<svg xmlns="http://www.w3.org/2000/svg" viewBox="0 0 29.62 51.12"><defs><style>.cls-1{fill:#444;}.cls-2{fill:#d3ab4a;}.cls-3{fill:#e3be5d;}.cls-4{fill:#c49c47;}.cls-5{fill:#d3ac46;}.cls-6{fill:#e1c15e;}.cls-7{fill:#c29a45;}.cls-8{fill:#d5ab45;}.cls-9{fill:#c49a44;}.cls-10{fill:#c49a45;}.cls-11{fill:#d7a844;}.cls-12{fill:#e2c05f;}.cls-13{fill:#c39944;}.cls-14{fill:#9e7c38;}.cls-15{fill:#d4bb7c;}.cls-16{fill:#d3af66;}.cls-17{fill:#b39b55;}.cls-18{fill:#a68947;}</style></defs><title>Wheat</title><g id="Layer_2" data-name="Layer 2"><g id="레이어_1" data-name="레이어 1"><path class="cls-1" d="M22.75,48.54A15.24,15.24,0,0,1,22.29,47l-2-.89v-.93c0-1.31,0-2.56-.08-3.77-7.51-7.82-12.72-10.25-15.59-11-1.08,2.64-.77,8-.27,11.15l.79,4.86L1.85,42.8C-1,39.67.22,30.36.5,28.52l.1-.71.63-.35a7.7,7.7,0,0,1,3.37-.9,6.08,6.08,0,0,1,.61,0c1.53.19,7.24,2.61,13.26,7.17A81.67,81.67,0,0,0,14,24.46c-1.58-.15-3-1.94-3.65-2.83a8.36,8.36,0,0,1-2.87-3.51,5.82,5.82,0,0,1-1.22-2.61L6,14.34A4.17,4.17,0,0,1,5.31,12v-.19A8.06,8.06,0,0,1,4.17,9.25l-.23-1a8.92,8.92,0,0,1-.73-2.19l0-.2a5.16,5.16,0,0,1-.62-2,5.46,5.46,0,0,1-.24-1.77V.65h1.1L3.54,0,5.26.8A4.72,4.72,0,0,1,7.33,3,5.12,5.12,0,0,1,8.9,5.41a8.58,8.58,0,0,1,1.81,3.13A7.15,7.15,0,0,1,12,10.71l.3.25a6.54,6.54,0,0,1,1.33,1.82l.79.64a6.39,6.39,0,0,1,2.1,4.09A4.62,4.62,0,0,1,17,21.7a2.94,2.94,0,0,1,.05.51c.46.87,1.14,2.19,1.95,3.83-1.48-10.21-3.66-13.75-3.69-13.79l-2.68-4.2,4.52,2.07c.53.25,1.75,1.2,3.13,4.85a4.4,4.4,0,0,1,.17-1.14l.15-.55a6.17,6.17,0,0,1,.29-1.46v-.05a3.7,3.7,0,0,1,.29-1.32,4.19,4.19,0,0,1,.44-1.13L22.39,8l.65.42.41-.5,1.11,1.54a3.4,3.4,0,0,1,.57,2,3.79,3.79,0,0,1,.12,1.86,5.85,5.85,0,0,1,0,2.22A4.84,4.84,0,0,1,25.34,17l0,.11a4.23,4.23,0,0,1,.21,1.45l.19.47a4.55,4.55,0,0,1-.06,3.14,3.43,3.43,0,0,1-1.08,2.58,1.94,1.94,0,0,1-.25.45c.09,2.74.34,9.16.72,14.45,1.07,1.13,2.07,2.3,3,3.49l1.53,2-2.85.43.46,1.72H26l.13.46-2.49,3.36Z"/><path class="cls-2" d="M22.93,11.89s-.79-.5,0-1.84c0,0,1.08.61.45,2.68Z"/><path class="cls-3" d="M22.78,12s-.23-.65.59-1.67a2.15,2.15,0,0,1,.11,2l-.69.06Z"/><path class="cls-4" d="M22.49,13a3.33,3.33,0,0,1,.08-2,2.58,2.58,0,0,1,.63,1.65l-.25.87Z"/><path class="cls-5" d="M23.6,13.86c.56-1.55,0-2.17,0-2.17-.4.07-.93,1.66-.93,1.66l.22.69Z"/><path class="cls-6" d="M22.24,14.9a4,4,0,0,1,0-2.63,3,3,0,0,1,1,2.34l-1.07,1.28Z"/><path class="cls-7" d="M22.48,15.75a4.38,4.38,0,0,1,1.24-2.46,4.31,4.31,0,0,1-.13,2.95l-.52.44Z"/><path class="cls-8" d="M22.08,17.48a7.36,7.36,0,0,1-.23-3.25,4.15,4.15,0,0,1,1.59,2.45L22.69,18Z"/><path class="cls-6" d="M22.31,17.68a3.42,3.42,0,0,1,1.44-2.2,3.92,3.92,0,0,1-.35,3.1l-1,.37Z"/><path class="cls-9" d="M21.75,19.33s-.74-2.26-.21-3.06a3.67,3.67,0,0,1,1.68,2.95l-.65,1Z"/><path class="cls-8" d="M22,20.89s.76-2.83,2-3.25A4.27,4.27,0,0,1,23.45,21Z"/><path class="cls-6" d="M21.46,20.71a2.78,2.78,0,0,1-.38-2.48s2,1.27,2.05,3.07L22,22.19Z"/><path class="cls-10" d="M22.47,22s.76-2.14,1.94-2.36A3.2,3.2,0,0,1,24,22.44l-1.25,1.71Z"/><path class="cls-11" d="M21.91,22.87A4.12,4.12,0,0,1,21,19.7s2.35,1,2.15,3.12l-.63,1.12Z"/><path class="cls-12" d="M23.13,24c1.39-.32,1.09-2.34,1.09-2.34a4.86,4.86,0,0,0-1.66,1.6Z"/><path class="cls-13" d="M21.47,22.29s.16,1.72.77,2.06.83.17.83.17.55-.38,0-1.16A3.28,3.28,0,0,0,21.47,22.29Z"/><path class="cls-14" d="M24.12,48.05c-2.21-6.19-1.72-24.11-1.72-24.11h.47s.59,19.71,1.69,23.53Z"/><path class="cls-15" d="M23.62,46c-2-32.24-7.08-34.54-7.08-34.54s5,7.47,5.23,33.71Z"/><path class="cls-16" d="M1.94,28.74l2-.46v.46c-2.55,3.42-1,13.07-1,13.07-2.53-2.77-1-13.07-1-13.07"/><path class="cls-17" d="M26.94,44.08C18.44,33.13,6.56,28.23,5,28.05a5.85,5.85,0,0,0-3.1.69s7.92-1.85,23,15.65Z"/><path class="cls-18" d="M25.32,45.83c-3.05-11.18-10.16-24-10.16-24l-.88.42s4.39,6,10.21,23.63Z"/><path class="cls-2" d="M5.27,4.74s-1.53-.09-1.5-2.61c0,0,2,0,2.77,3.46Z"/><path class="cls-3" d="M5.13,5s-.85-.74-.48-2.84A3.51,3.51,0,0,1,6.42,5l-.93.62Z"/><path class="cls-4" d="M5.5,6.61a5.4,5.4,0,0,1-1.5-3A4.14,4.14,0,0,1,6.19,5.5l.35,1.43Z"/><path class="cls-5" d="M7.79,7C7.35,4.35,6.08,3.91,6.08,3.91c-.51.41,0,3.09,0,3.09l.85.81Z"/><path class="cls-6" d="M6.68,9.57a6.57,6.57,0,0,1-2-3.79A4.92,4.92,0,0,1,8,8.3L7.46,11Z"/><path class="cls-7" d="M7.69,10.58A7.12,7.12,0,0,1,7.51,6.1a7,7,0,0,1,2.15,4.3l-.39,1Z"/><path class="cls-8" d="M8.5,13.36S6.08,11,5.59,8.92A6.78,6.78,0,0,1,9.8,11.14v2.52Z"/><path class="cls-6" d="M9,13.47a5.48,5.48,0,0,1,.3-4.27s1.71,1.25,2,4.69l-1.16,1.34Z"/><path class="cls-9" d="M9.5,16.27s-2.84-2.64-2.73-4.21a6,6,0,0,1,4.74,2.87l-.16,1.89Z"/><path class="cls-8" d="M11.14,18.25s-1.17-4.62.21-6.19a7,7,0,0,1,1.89,5.2Z"/><path class="cls-6" d="M10.19,18.45a4.53,4.53,0,0,1-2.52-3.22S11.46,15.48,13,18l-.92,2.17Z"/><path class="cls-10" d="M12.64,19.45c0-.07-.63-3.65.88-4.89a5.23,5.23,0,0,1,1.61,4.36l-.41,3.42Z"/><path class="cls-11" d="M12.55,21.16a6.67,6.67,0,0,1-3.82-3.78s4.18-.4,5.55,2.72v2.1Z"/><path class="cls-12" d="M15.16,21.78c1.73-1.55-.3-4.2-.3-4.2a7.91,7.91,0,0,0-1.09,3.61Z"/><path class="cls-13" d="M11.46,20.7S13.05,23,14.19,23s1.31-.41,1.31-.41.49-1-.88-1.67A5.18,5.18,0,0,0,11.46,20.7Z"/></g></g></svg>