<svg xmlns="http://www.w3.org/2000/svg" viewBox="0 0 47.78 48.47"><defs><style>.cls-1{fill:#444;}.cls-2{fill:#eae5b9;}.cls-3{fill:#f7f6e7;}</style></defs><title>Whipping cream</title><g id="Layer_2" data-name="Layer 2"><g id="레이어_1" data-name="레이어 1"><path class="cls-1" d="M24.81,48.47C15.49,48.47,6.75,46.28,3,43c-2.71-1.8-4.92-5.43-.36-12.62l.1-.15.13-.12c4.78-4.6,17.42-17.69,18.48-22.95l.06-.28.21,0-.21,0c.75-3.1,3.74-5.34,8.91-6.66l1-.24.6.78c.76,1,18.56,24.14,15.58,37.19-1.5,6.57-10,10.5-22.63,10.5Z"/><path class="cls-2" d="M3.9,31.22S2.76,43.31,20.39,37.64s3.73-25.35,3.73-25.35S18.23,4.87,30.68,1.7c0,0-11.78,4.67,0,14.67s4.78,24.77-8.89,26.77C21.79,43.14-6.77,48,3.9,31.22Z"/><path class="cls-3" d="M3.9,31.22S25.56,37.46,22.79,9.11a6.14,6.14,0,0,0,1.33,3.18,35.28,35.28,0,0,1,4.07,8.17s2.6,6.43-.09,11.46c0,0-1.75,3.91-7.71,5.72C20.39,37.64,4,43.81,3.9,31.22Z"/><path class="cls-3" d="M30.68,1.7S48.83,25.13,46,37.64,11.41,48.52,3.9,41.83c0,0,4.08,3.36,17.89,1.31A19.13,19.13,0,0,0,32.54,37.8a15.17,15.17,0,0,0,3.92-7.5,13.71,13.71,0,0,0-2.16-9.89,20.16,20.16,0,0,0-3.62-4S18.85,7.49,30.68,1.7Z"/><path class="cls-2" d="M3.9,31.22s18-17.31,19-24a4.57,4.57,0,0,0-.08,1.89s.18,2,.21,3.16a44.21,44.21,0,0,1-.3,6.44s-.6,4.89-3,8.06c0,0-2.92,4.85-10.45,5A18.37,18.37,0,0,1,3.9,31.22Z"/></g></g></svg>