<svg xmlns="http://www.w3.org/2000/svg" viewBox="0 0 46.22 44.39"><defs><style>.cls-1{fill:#444;}.cls-2{fill:#fff;}.cls-3{fill:#d2eaf7;}</style></defs><title>White_rice</title><g id="Layer_2" data-name="Layer 2"><g id="레이어_1" data-name="레이어 1"><path class="cls-1" d="M41.87,19a2.85,2.85,0,0,0-.52-.06,4.64,4.64,0,0,0-.1-3.09C37.88,7.08,30.39,3,26.39,3a4.34,4.34,0,0,0-2.3.58,5.1,5.1,0,0,0-1.86,2,3.27,3.27,0,0,0-.42-.69C19.56,2,11.25,0,7.6,0A8.07,8.07,0,0,0,6.38.08c-1.59.28-4.67,1.69-4.91,5A5.72,5.72,0,0,0,3.35,9.23a12.61,12.61,0,0,0,1.49,1.35,4.93,4.93,0,0,0-2,1.93C-.8,19.06-.41,25.81,1.05,29.6c.79,2.06,2,3.45,3.29,3.92a11.9,11.9,0,0,0,2.55,5.23,1.27,1.27,0,0,0,0,.2c.06,3.34,3.06,4.91,4.69,5.29a10,10,0,0,0,1.86.15h0c4,0,11.39-1.62,13.66-4.07,1.2-.49,2.36-1,3.45-1.54a3,3,0,0,0,.46.64,2.49,2.49,0,0,0,1.79.74h.3a5.52,5.52,0,0,0,1.79-.59A2.36,2.36,0,0,1,36,39.21a2.86,2.86,0,0,1,1.06.25,2.52,2.52,0,0,0,.9.17h0a3.68,3.68,0,0,0,2.56-1.29c2.79-2.81,5.75-10.49,5.73-13.83C46.15,22.89,45.16,19.66,41.87,19Z"/><path class="cls-2" d="M23.34,9.8s-1.07-3.34,1.54-5,11.41,2.27,15,11.53L39.66,18l-3.84.57-2.56.8L29.38,17,24.44,11.6Z"/><path class="cls-3" d="M23.34,9.8s5.73,8.36,10.3,8.69a3.23,3.23,0,0,0,2-1.14c.88-1,3.13,1,4.22-1,0,0,.85,2.23-.6,2.58s-2.53-.76-4.57,1S24.64,13.42,23.34,9.8Z"/><path class="cls-2" d="M9.66,30.15s-1.88,3-4.79,2S-.67,21.89,4.19,13.24l1.34-.87L8.42,15l2.25,1.46.66,4.5-1,7.23Z"/><path class="cls-3" d="M9.66,30.15s2.78-9.75.11-13.48a3.18,3.18,0,0,0-2.14-.81c-1.36,0-1.21-3-3.44-2.62,0,0,1.17-2.08,2.36-1.19s1,2.43,3.72,2.85S11.62,26.83,9.66,30.15Z"/><path class="cls-2" d="M44.72,24.57s-.15-3.5-3.15-4.11-9.93,6.06-10.09,16l.73,1.43,3.8-.79L38.69,37l2.83-3.56,2.79-6.74Z"/><path class="cls-3" d="M44.72,24.57S42.21,34.4,38,36.28a3.23,3.23,0,0,1-2.26-.38c-1.18-.68-2.59,2-4.3.53,0,0,0,2.39,1.45,2.22s2.12-1.58,4.65-.59S44.74,28.42,44.72,24.57Z"/><path class="cls-2" d="M27.09,31s3.5.22,4.43-2.7-5-10.51-14.86-11.69l-1.49.58.39,3.86-.15,2.67,3.25,3.19,6.41,3.47Z"/><path class="cls-3" d="M27.09,31s-9.51-3.5-10.95-7.85A3.21,3.21,0,0,1,16.75,21c.8-1.11-1.75-2.78-.09-4.33,0,0-2.36-.28-2.35,1.21s1.35,2.27.11,4.69S23.26,30.65,27.09,31Z"/><path class="cls-2" d="M6.64,1.56S3.19,2.16,3,5.22s7.31,9.06,17.16,7.91l1.32-.91L20.17,8.56,19.7,5.92,15.8,3.58l-7-1.89Z"/><path class="cls-3" d="M6.64,1.56S16.7,2.76,19.12,6.65A3.22,3.22,0,0,1,19,8.94c-.52,1.26,2.35,2.3,1.09,4.19,0,0,2.37-.28,2-1.73S20.3,9.51,21,6.87,10.45,1,6.64,1.56Z"/><path class="cls-2" d="M11.85,42.77S8.43,42,8.38,38.92s7.77-8.66,17.55-7l1.27,1-1.47,3.59-.61,2.61-4,2.14L14,42.74Z"/><path class="cls-3" d="M11.85,42.77S22,42.1,24.58,38.33a3.17,3.17,0,0,0,0-2.29c-.45-1.28,2.47-2.17,1.31-4.12,0,0,2.35.4,1.92,1.83s-1.94,1.79-1.43,4.46S15.63,43.49,11.85,42.77Z"/></g></g></svg>