<svg xmlns="http://www.w3.org/2000/svg" viewBox="0 0 29.1 53.53"><defs><style>.cls-1{fill:#444;}.cls-2{fill:#f8ecde;}.cls-3{fill:#16bf76;}.cls-4{fill:#e8dacf;}</style></defs><title>Yogurt_1</title><g id="Layer_2" data-name="Layer 2"><g id="레이어_1" data-name="레이어 1"><path class="cls-1" d="M0,32.08a2,2,0,0,0,0,.25V49.62a2,2,0,0,0,.48,1.29c.82,1,3.18,2.35,14,2.62h.08c10.85-.27,13.21-1.63,14-2.62a2,2,0,0,0,.48-1.29V32.3a2.75,2.75,0,0,0-.55-1.94c-.05-.07-.09-.14-.14-.2l0,0L28.25,30l-.15-.12c-1.55-1.1-1.45-3.42-1.45-3.49a5.93,5.93,0,0,1,1.69-4l.51-.45v-.69c0-1.64,0-4.93,0-5.61a2.59,2.59,0,0,0-1.46-2.35l-3-8.09c.12-2-.08-4.92-2.27-5.12C21.84,0,21.28,0,19.38,0,17,0,14.07.05,14.08.05h-7A2.19,2.19,0,0,0,5,2.22L4.73,5.17l-3,8.1A2.57,2.57,0,0,0,.25,15.62c0,.68,0,4,0,5.61v.64l.57.56a6,6,0,0,1,1.63,4A4.38,4.38,0,0,1,1,29.88L.82,30l0,0-.1.13a2.08,2.08,0,0,0-.15.2A2.8,2.8,0,0,0,0,32.08Z"/><path class="cls-2" d="M14.55,52c-13.38-.33-13-2.37-13-2.37V32.33a1.66,1.66,0,0,1,.36-1.23c2.28-1.61,2.08-4.75,2.08-4.75a7.43,7.43,0,0,0-2.19-5.11s0-4.77,0-5.66,1.14-1.17,1.14-1.17l3.34-9H22.87l3.34,9s1.17.28,1.14,1.17,0,5.66,0,5.66a7.47,7.47,0,0,0-2.2,5.11S25,29.49,27.24,31.1a1.66,1.66,0,0,1,.36,1.23V49.66s.33,2-13,2.37"/><path class="cls-3" d="M14.08,5.44H6.21L6.5,2.3a.7.7,0,0,1,.66-.75h6.92s6.67-.11,7.88,0,.89,3.89.89,3.89Z"/><path class="cls-4" d="M26.57,14.54c-.84.07-7,.58-12,.58s-11.18-.51-12-.58l.36-.13,0-.08c1.61.13,7.07.54,11.63.54s10-.41,11.63-.54l0,.08Z"/><path class="cls-4" d="M1.93,21.42c1.85.24,9.1,1.14,12.62,1.14s10.77-.9,12.62-1.14a.94.94,0,0,1,.18-.18v-.09c-1.4.18-9.14,1.16-12.8,1.16s-11.41-1-12.8-1.16v.09Z"/><path class="cls-4" d="M27.36,31.26a54.14,54.14,0,0,1-12.81,1.19c-7.8,0-12-1-12.81-1.19l.11-.15.08-.06A55,55,0,0,0,14.55,32.2a55,55,0,0,0,12.62-1.15l.07.06Z"/></g></g></svg>