<svg xmlns="http://www.w3.org/2000/svg" width="257" height="138.151" viewBox="0 0 257 138.151">
  <g id="그룹_559" data-name="그룹 559" transform="translate(1426.268 -486.51)">
    <path id="패스_1015" data-name="패스 1015" d="M-1259.459,667.629V583.588h-15.072v81.459Z" transform="translate(-67.162 -42.969)" fill="#cbd39c"/>
    <path id="패스_1016" data-name="패스 1016" d="M-1247.49,668.163l6.265-4.949v-78.42h-6.265Z" transform="translate(-79.131 -43.503)" fill="#acb272"/>
    <path id="패스_1017" data-name="패스 1017" d="M-1365.7,623.412V551.648h-12.617v69.689Z" transform="translate(-21.222 -28.832)" fill="#cbd39c"/>
    <path id="패스_1018" data-name="패스 1018" d="M-1355.685,623.946l5.038-4.121V552.854h-5.038Z" transform="translate(-31.241 -29.365)" fill="#acb272"/>
    <path id="패스_1019" data-name="패스 1019" d="M-1355.685,654.789l5.038-4.121v-4.092l-5.038,4.121Z" transform="translate(-31.241 -70.849)" fill="#0d280a"/>
    <path id="패스_1020" data-name="패스 1020" d="M-1378.321,650.246v4.092l12.617,2.075v-4.092Z" transform="translate(-21.222 -72.473)" fill="#183e15"/>
    <path id="패스_1021" data-name="패스 1021" d="M-1015.094,630.927V546.886h-12.617v81.966Z" transform="translate(-176.409 -26.724)" fill="#cbd39c"/>
    <path id="패스_1022" data-name="패스 1022" d="M-1005.075,631.461l5.038-4.121V548.092h-5.038Z" transform="translate(-186.428 -27.258)" fill="#acb272"/>
    <path id="패스_1023" data-name="패스 1023" d="M-1144.889,609.051v-51.3h-11.8v49.227Z" transform="translate(-119.321 -31.532)" fill="#cbd39c"/>
    <path id="패스_1024" data-name="패스 1024" d="M-1135.52,609.585l4.219-3.3v-46.51l-4.219-.819Z" transform="translate(-128.691 -32.066)" fill="#acb272"/>
    <path id="패스_1025" data-name="패스 1025" d="M-1274.531,700.366v4.092l15.072,2.582v-4.092Z" transform="translate(-67.162 -94.657)" fill="#183e15"/>
    <path id="패스_1026" data-name="패스 1026" d="M-1247.49,705.161l6.265-4.949V696.12l-6.265,4.949Z" transform="translate(-79.131 -92.777)" fill="#0d280a"/>
    <path id="패스_1027" data-name="패스 1027" d="M-1027.711,666.042v4.092l12.617,2.075v-4.092Z" transform="translate(-176.409 -79.464)" fill="#183e15"/>
    <path id="패스_1028" data-name="패스 1028" d="M-1005.075,670.585l5.038-4.121v-4.092l-5.038,4.121Z" transform="translate(-186.428 -77.84)" fill="#0d280a"/>
    <path id="패스_1029" data-name="패스 1029" d="M-1156.688,626.244v4.092l11.8,2.075v-4.092Z" transform="translate(-119.321 -61.849)" fill="#183e15"/>
    <path id="패스_1030" data-name="패스 1030" d="M-1135.52,631.437l4.219-3.3v-4.092l-4.219,3.3Z" transform="translate(-128.691 -60.875)" fill="#0d280a"/>
    <path id="패스_1031" data-name="패스 1031" d="M-1171.849,534.152h-254.418v5.32c0,14.666,57.531,26.555,128.5,26.555s128.5-11.889,128.5-26.555v-5.32Z" transform="translate(0 -21.088)" fill="#183e15"/>
    <ellipse id="타원_112" data-name="타원 112" cx="128.5" cy="26.555" rx="128.5" ry="26.555" transform="translate(-1426.268 486.509)" fill="#edf5d1"/>
  </g>
</svg>
