<svg xmlns="http://www.w3.org/2000/svg" xmlns:xlink="http://www.w3.org/1999/xlink" width="702.644" height="498.011" viewBox="0 0 702.644 498.011">
  <defs>
    <filter id="합치기_7" x="459.644" y="0" width="243" height="146.109" filterUnits="userSpaceOnUse">
      <feOffset dy="3" input="SourceAlpha"/>
      <feGaussianBlur stdDeviation="3" result="blur"/>
      <feFlood flood-opacity="0.161"/>
      <feComposite operator="in" in2="blur"/>
      <feComposite in="SourceGraphic"/>
    </filter>
  </defs>
  <g id="그룹_1826" data-name="그룹 1826" transform="translate(-703.32 -224.285)">
    <g id="그룹_1825" data-name="그룹 1825" transform="translate(694.026 358)">
      <g id="그룹_1822" data-name="그룹 1822" transform="translate(112.07 0)">
        <g id="그룹_781" data-name="그룹 781" transform="translate(42.217 0)">
          <path id="패스_890" data-name="패스 890" d="M1312.92,144.085h0a43,43,0,0,0-45.642-28.06,43.568,43.568,0,0,0-4.68-11.7h0c-16.587-28.731-58.057-28.731-74.644,0h0a43.584,43.584,0,0,0-4.68,11.7,43,43,0,0,0-45.642,28.06h0c-11.346,31.175,15.31,62.943,47.981,57.182h0a42.826,42.826,0,0,0,34.477-32.6,44.69,44.69,0,0,0,5.187.305h0a44.671,44.671,0,0,0,5.186-.305,42.829,42.829,0,0,0,34.478,32.6h0C1297.61,207.028,1324.267,175.26,1312.92,144.085Z" transform="translate(-981.308 -82.775)" fill="#15700e"/>
          <path id="패스_891" data-name="패스 891" d="M1442.865,351.371a138.7,138.7,0,0,0-7.257-28.6,284.1,284.1,0,0,0-16.053-35.39,258.783,258.783,0,0,0-89.448-95.7,294.1,294.1,0,0,0-70.43-32.177v-.01a126.588,126.588,0,0,0-17.212-4.759,199.93,199.93,0,0,0-83.411,0,126.617,126.617,0,0,0-17.213,4.759v.01a294.082,294.082,0,0,0-70.43,32.177,258.792,258.792,0,0,0-89.448,95.7,284.23,284.23,0,0,0-16.052,35.39,138.6,138.6,0,0,0-7.257,28.6c-1.316,8.949-1.862,36.151-1.862,45.217v34.465h487.934V396.587C1444.726,387.522,1444.181,360.32,1442.865,351.371Z" transform="translate(-956.792 -92.07)" fill="#b2db31"/>
          <circle id="타원_95" data-name="타원 95" cx="41.589" cy="41.589" r="41.589" transform="translate(252.591 87.379)" fill="#fff"/>
          <circle id="타원_96" data-name="타원 96" cx="17.329" cy="17.329" r="17.329" transform="translate(276.851 98.735)" fill="#1d1d1b"/>
          <circle id="타원_97" data-name="타원 97" cx="41.589" cy="41.589" r="41.589" transform="translate(152.165 87.379)" fill="#fff"/>
          <circle id="타원_98" data-name="타원 98" cx="17.329" cy="17.329" r="17.329" transform="translate(176.425 98.735)" fill="#1d1d1b"/>
          <ellipse id="타원_99" data-name="타원 99" cx="22.861" cy="13.972" rx="22.861" ry="13.972" transform="translate(221.106 142.614)" fill="#15700e"/>
          <g id="그룹_494" data-name="그룹 494" transform="translate(185.8 190.934)">
            <path id="패스_892" data-name="패스 892" d="M1188.875,304.172c-7.694,0-12.534,3.556-16.639,8.028l10.094,18.421c3.677,6.71,12.388,6.464,15.681-.442l8.2-17.2C1201.952,308.148,1197.008,304.172,1188.875,304.172Z" transform="translate(-1172.236 -304.172)" fill="#f8f6f7"/>
            <path id="패스_893" data-name="패스 893" d="M1285.058,304.172c-8.129,0-13.071,3.97-17.327,8.8l8.2,17.209c3.292,6.906,12,7.153,15.68.442l10.091-18.413C1297.6,307.731,1292.756,304.172,1285.058,304.172Z" transform="translate(-1185.375 -304.172)" fill="#f8f6f7"/>
          </g>
          <g id="그룹_495" data-name="그룹 495" transform="translate(113.792 185.329)">
            <path id="패스_894" data-name="패스 894" d="M1301.957,334.755c-13.071,0-19.76-8.335-25.136-15.033-5.393-6.72-9.07-10.839-16.392-10.839s-11,4.119-16.388,10.839c-5.375,6.7-12.063,15.033-25.133,15.033s-19.759-8.335-25.133-15.033c-5.392-6.72-9.07-10.839-16.389-10.839s-11,4.119-16.388,10.839c-5.375,6.7-12.063,15.033-25.133,15.033s-19.757-8.335-25.132-15.033c-5.392-6.72-9.068-10.839-16.387-10.839a5.606,5.606,0,0,1,0-11.211c13.069,0,19.758,8.336,25.132,15.033,5.392,6.72,9.068,10.839,16.387,10.839s11-4.119,16.389-10.839c5.374-6.7,12.063-15.033,25.133-15.033s19.758,8.336,25.133,15.033c5.393,6.72,9.069,10.839,16.389,10.839s11-4.119,16.388-10.839c5.375-6.7,12.064-15.033,25.133-15.033s19.76,8.336,25.136,15.033c5.394,6.72,9.071,10.839,16.392,10.839s11-4.119,16.392-10.839c5.375-6.7,12.064-15.033,25.136-15.033a5.606,5.606,0,0,1,0,11.211c-7.322,0-11,4.119-16.393,10.839C1321.716,326.42,1315.027,334.755,1301.957,334.755Z" transform="translate(-1088.739 -297.672)" fill="#444"/>
          </g>
        </g>
        <g id="그룹_780" data-name="그룹 780" transform="translate(0 285.948)">
          <g id="그룹_498" data-name="그룹 498">
            <g id="그룹_496" data-name="그룹 496">
              <path id="패스_895" data-name="패스 895" d="M1043.5,470.454a38.622,38.622,0,0,0-2.025-7.982,79.212,79.212,0,0,0-4.48-9.877,72.229,72.229,0,0,0-24.964-26.71,82.112,82.112,0,0,0-19.657-8.98v0a35.328,35.328,0,0,0-4.8-1.328,55.773,55.773,0,0,0-23.28,0,35.342,35.342,0,0,0-4.8,1.328v0a82.121,82.121,0,0,0-19.656,8.98,72.231,72.231,0,0,0-24.964,26.71,79.193,79.193,0,0,0-4.48,9.877,38.617,38.617,0,0,0-2.025,7.982c-.367,2.5-.52,10.09-.52,12.62h0a9.619,9.619,0,0,0,9.619,9.619H1034.4a9.619,9.619,0,0,0,9.619-9.619h0C1044.018,480.544,1043.865,472.952,1043.5,470.454Z" transform="translate(-907.839 -414.345)" fill="#15700e"/>
            </g>
            <g id="그룹_497" data-name="그룹 497" transform="translate(436.189)">
              <path id="패스_896" data-name="패스 896" d="M1549.281,470.454a38.685,38.685,0,0,0-2.026-7.982,79.265,79.265,0,0,0-4.48-9.877,72.216,72.216,0,0,0-24.964-26.71,82.118,82.118,0,0,0-19.657-8.98v0a35.333,35.333,0,0,0-4.8-1.328,55.775,55.775,0,0,0-23.28,0,35.373,35.373,0,0,0-4.8,1.328v0a82.123,82.123,0,0,0-19.657,8.98,72.232,72.232,0,0,0-24.964,26.71,79.266,79.266,0,0,0-4.48,9.877,38.7,38.7,0,0,0-2.025,7.982c-.367,2.5-.52,10.09-.52,12.62h0a9.619,9.619,0,0,0,9.619,9.619h116.94a9.619,9.619,0,0,0,9.619-9.619h0C1549.8,480.544,1549.648,472.952,1549.281,470.454Z" transform="translate(-1413.621 -414.345)" fill="#15700e"/>
            </g>
          </g>
        </g>
      </g>
      <g id="그룹_1818" data-name="그룹 1818" transform="matrix(0.259, -0.966, 0.966, 0.259, 0, 305.538)">
        <path id="패스_2051" data-name="패스 2051" d="M63,0,1.612,70.821C-1.286,74.165-.17,79.88,4.1,83.584s10.092,4,12.99.659L78.484,13.42Z" transform="translate(0 78.216)" fill="#444"/>
        <circle id="타원_410" data-name="타원 410" cx="58.092" cy="58.092" r="58.092" transform="translate(35.911 0)" fill="#444"/>
        <circle id="타원_411" data-name="타원 411" cx="39.274" cy="39.274" r="39.274" transform="translate(54.729 18.818)" fill="#ddd"/>
        <ellipse id="타원_412" data-name="타원 412" cx="9.157" cy="5.903" rx="9.157" ry="5.903" transform="matrix(0.067, -0.998, 0.998, 0.067, 114.468, 64.29)" fill="#fff"/>
        <circle id="타원_413" data-name="타원 413" cx="4.501" cy="4.501" r="4.501" transform="translate(115.134 68.391)" fill="#fff"/>
      </g>
    </g>
  </g>
  <g id="그룹_2093" data-name="그룹 2093" transform="translate(-700.356 -115)">
    <g transform="matrix(1, 0, 0, 1, 700.36, 115)" filter="url(#합치기_7)">
      <path id="합치기_7-2" data-name="합치기 7" d="M98.7,110.959H20a20,20,0,0,1-20-20V20A20,20,0,0,1,20,0H204a20,20,0,0,1,20,20v70.96a20,20,0,0,1-20,20H121.115L89.783,126.431Z" transform="translate(469.14 6.5)" fill="#183e15" stroke="#ddd" stroke-width="1"/>
    </g>
    <text id="_404" data-name="404" transform="translate(1225 198.169)" fill="#fff" font-size="60" font-family="SegoeUI-Bold, Segoe UI" font-weight="700"><tspan x="0" y="0">404</tspan></text>
  </g>
</svg>
