<svg id="그룹_224" data-name="그룹 224" xmlns="http://www.w3.org/2000/svg" width="119.333" height="119.252" viewBox="0 0 119.333 119.252">
    <path id="패스_75" data-name="패스 75" d="M1189.129,461.879a17.122,17.122,0,0,1-5.752.418,32.356,32.356,0,0,1-7.075-.914c-21.55,3.853-36.917-15.5-42.761-24.436a10.774,10.774,0,0,1-15.579-7.811,19.256,19.256,0,0,1-11.47-34.851,13.606,13.606,0,0,1,4.628-18.37c.307-.189.618-.365.938-.528a17.877,17.877,0,0,1,29.367-18.12q.433-.315.893-.6a13.555,13.555,0,0,1,3.022-1.385,17.725,17.725,0,0,1,12.567-11.621,17.919,17.919,0,0,1,19.945,8.584c.342-.115.688-.217,1.042-.305a13.617,13.617,0,0,1,16.4,9.49,19.261,19.261,0,0,1,16.985,32.516A10.761,10.761,0,0,1,1206.9,410.6c2.26,11.146,5.736,38.814-12.619,48.925A14.811,14.811,0,0,1,1189.129,461.879Z" transform="translate(-1098.524 -343.123)" fill="#444"/>
    <g id="그룹_223" data-name="그룹 223" transform="translate(4.72 4.707)">
        <g id="그룹_221" data-name="그룹 221" transform="translate(0 9.318)">
            <path id="패스_76" data-name="패스 76" d="M1104.417,414.554a14.5,14.5,0,0,1,9.416-21.849,8.865,8.865,0,0,1,4.22-17.009,13.153,13.153,0,1,1,22.16-13.672,8.865,8.865,0,0,1,17.1,3.858,14.528,14.528,0,1,1,19.013,21.385,6.047,6.047,0,1,1,2.5,11.151l.48,1.223s24.83,37.97,1.157,52.405c-27.462,11.147-46.319-24.54-46.319-24.54l-.876-.979a6.045,6.045,0,1,1-8.845-7.234A14.533,14.533,0,0,1,1104.417,414.554Z" transform="translate(-1102.249 -354.193)" fill="#1f756a"/>
            <path id="패스_77" data-name="패스 77" d="M1169.18,443.947s-50.5-43.8-30.237-54.453c14.137-7.431,24.882,17.109,37.3,50.094A11.007,11.007,0,0,1,1169.18,443.947Z" transform="translate(-1093.733 -345.124)" fill="#d4e6c4"/>
        </g>
        <g id="그룹_222" data-name="그룹 222" transform="translate(21.677)">
            <path id="패스_78" data-name="패스 78" d="M1119.8,397.839a14.5,14.5,0,0,1,15.564-17.995,8.865,8.865,0,0,1,9.15-14.948,13.147,13.147,0,1,1,24.946-8.114,13.289,13.289,0,0,1,.3,1.755,8.866,8.866,0,0,1,15.138,8.832,14.527,14.527,0,1,1,11.684,26.12,6.048,6.048,0,1,1-.978,11.385l.091,1.311s12.231,43.687-14.691,50.316c-29.543,2.354-36.769-37.357-36.769-37.357l-.541-1.2a6.045,6.045,0,1,1-6.254-9.565A14.534,14.534,0,0,1,1119.8,397.839Z" transform="translate(-1119.359 -346.838)" fill="#c6e59c"/>
            <path id="패스_79" data-name="패스 79" d="M1169.923,446.371s-34.949-56.983-12.422-61.032c15.719-2.827,18.569,23.812,20.469,59A11,11,0,0,1,1169.923,446.371Z" transform="translate(-1111.196 -336.614)" fill="#f6f7d0"/>
        </g>
    </g>
</svg>
