<svg xmlns="http://www.w3.org/2000/svg" width="305.27" height="164.099" viewBox="0 0 305.27 164.099">
  <g id="그룹_982" data-name="그룹 982" transform="translate(-120.979 -613.534)">
    <g id="그룹_976" data-name="그룹 976" transform="translate(120.979 613.534)">
      <path id="패스_1317" data-name="패스 1317" d="M221.274,766.073V666.247h-17.9v96.759Z" transform="translate(-102.911 -601.974)" fill="#cbd39c"/>
      <path id="패스_1318" data-name="패스 1318" d="M218.054,765.929l7.442-5.878V666.9h-7.442Z" transform="translate(-99.691 -601.831)" fill="#acb272"/>
      <path id="패스_1319" data-name="패스 1319" d="M162,734.147V648.9H147.014v82.778Z" transform="translate(-115.27 -605.777)" fill="#cbd39c"/>
      <path id="패스_1320" data-name="패스 1320" d="M159.3,734l5.984-4.895v-79.55H159.3Z" transform="translate(-112.574 -605.634)" fill="#acb272"/>
      <path id="패스_1321" data-name="패스 1321" d="M159.3,710.2l5.984-4.895v-4.861l-5.984,4.895Z" transform="translate(-112.574 -594.474)" fill="#0d280a"/>
      <path id="패스_1322" data-name="패스 1322" d="M147.014,702.442V707.3L162,709.768v-4.861Z" transform="translate(-115.27 -594.037)" fill="#183e15"/>
      <path id="패스_1323" data-name="패스 1323" d="M352.379,746.144V646.318H337.393v97.361Z" transform="translate(-73.521 -606.345)" fill="#cbd39c"/>
      <path id="패스_1324" data-name="패스 1324" d="M349.684,746l5.984-4.895V646.973h-5.984Z" transform="translate(-70.825 -606.201)" fill="#acb272"/>
      <path id="패스_1325" data-name="패스 1325" d="M281.374,713.154V652.216H267.359V710.69Z" transform="translate(-88.879 -605.051)" fill="#cbd39c"/>
      <path id="패스_1326" data-name="패스 1326" d="M278.853,713.011l5.012-3.922V653.844l-5.012-.972Z" transform="translate(-86.358 -604.907)" fill="#acb272"/>
      <path id="패스_1327" data-name="패스 1327" d="M203.371,729.657v4.861l17.9,3.067v-4.861Z" transform="translate(-102.911 -588.069)" fill="#183e15"/>
      <path id="패스_1328" data-name="패스 1328" d="M218.054,738.09l7.442-5.878v-4.861l-7.442,5.878Z" transform="translate(-99.691 -588.575)" fill="#0d280a"/>
      <path id="패스_1329" data-name="패스 1329" d="M337.393,711.019v4.861l14.987,2.465v-4.861Z" transform="translate(-73.521 -592.156)" fill="#183e15"/>
      <path id="패스_1330" data-name="패스 1330" d="M349.684,718.782l5.984-4.895v-4.861l-5.984,4.895Z" transform="translate(-70.825 -592.593)" fill="#0d280a"/>
      <path id="패스_1331" data-name="패스 1331" d="M267.359,689.409v4.861l14.014,2.465v-4.861Z" transform="translate(-88.879 -596.895)" fill="#183e15"/>
      <path id="패스_1332" data-name="패스 1332" d="M278.853,697l5.012-3.922v-4.861l-5.012,3.922Z" transform="translate(-86.358 -597.157)" fill="#0d280a"/>
      <path id="패스_1333" data-name="패스 1333" d="M423.182,639.4h-302.2v6.32c0,17.42,68.337,31.542,152.635,31.542s152.635-14.122,152.635-31.542V639.4Z" transform="translate(-120.979 -607.861)" fill="#183e15"/>
      <ellipse id="타원_287" data-name="타원 287" cx="152.635" cy="31.542" rx="152.635" ry="31.542" fill="#edf5d1"/>
      <path id="패스_1334" data-name="패스 1334" d="M229.918,625.065" transform="translate(-97.089 -611.005)" fill="#0d280a" stroke="#fff" stroke-miterlimit="10" stroke-width="1"/>
    </g>
    <g id="그룹_981" data-name="그룹 981" transform="translate(170.937 624.998)">
      <g id="그룹_978" data-name="그룹 978" transform="translate(0 2.907)">
        <path id="패스_1335" data-name="패스 1335" d="M161.952,640.6l64.363,13.993,69.813-14.933-63.364-14.214Z" transform="translate(-161.952 -625.293)" fill="#fff"/>
        <path id="패스_1336" data-name="패스 1336" d="M161.952,640.628l5.7,1.355,70.037-15.345-5.864-1.317Z" transform="translate(-161.952 -625.32)" fill="#b2b2b2"/>
        <g id="그룹_977" data-name="그룹 977" transform="translate(23.32 4.993)">
          <path id="패스_1337" data-name="패스 1337" d="M181.078,641.691l1.919.417,55.062-12.27-1.886-.423Z" transform="translate(-181.078 -629.415)" fill="#b2b2b2"/>
          <path id="패스_1338" data-name="패스 1338" d="M188.1,643.288l1.919.417,55.062-12.27-1.886-.423Z" transform="translate(-179.538 -629.065)" fill="#b2b2b2"/>
          <path id="패스_1339" data-name="패스 1339" d="M195.126,644.886l1.919.417,55.062-12.27-1.886-.423Z" transform="translate(-177.997 -628.714)" fill="#b2b2b2"/>
          <path id="패스_1340" data-name="패스 1340" d="M202.151,646.484l1.919.417,55.062-12.27-1.886-.423Z" transform="translate(-176.457 -628.364)" fill="#b2b2b2"/>
          <path id="패스_1341" data-name="패스 1341" d="M209.175,648.082l1.919.417,55.062-12.27-1.886-.423Z" transform="translate(-174.916 -628.013)" fill="#b2b2b2"/>
        </g>
      </g>
      <g id="그룹_980" data-name="그룹 980" transform="translate(43.941)">
        <path id="패스_1342" data-name="패스 1342" d="M197.99,641.362,275.418,658.2,359.4,640.231l-76.226-17.1Z" transform="translate(-197.99 -622.893)" fill="#ddd"/>
        <path id="패스_1343" data-name="패스 1343" d="M197.99,641.405l6.855,1.63,84.415-18.5-6.966-1.6Z" transform="translate(-197.99 -622.936)" fill="#444"/>
        <g id="그룹_979" data-name="그룹 979" transform="translate(28.054 6.06)">
          <path id="패스_1344" data-name="패스 1344" d="M221,642.674l2.309.5,66.239-14.76-2.269-.509Z" transform="translate(-220.998 -627.906)" fill="#fff"/>
          <path id="패스_1345" data-name="패스 1345" d="M229.449,644.6l2.309.5L298,630.338l-2.269-.509Z" transform="translate(-219.145 -627.485)" fill="#fff"/>
          <path id="패스_1346" data-name="패스 1346" d="M237.9,646.518l2.309.5,66.239-14.76-2.269-.509Z" transform="translate(-217.292 -627.063)" fill="#fff"/>
          <path id="패스_1347" data-name="패스 1347" d="M246.349,648.44l2.309.5,66.239-14.76-2.269-.509Z" transform="translate(-215.439 -626.642)" fill="#fff"/>
          <path id="패스_1348" data-name="패스 1348" d="M254.8,650.362l2.309.5,66.239-14.76-2.269-.509Z" transform="translate(-213.586 -626.221)" fill="#fff"/>
        </g>
      </g>
    </g>
  </g>
</svg>
