<svg xmlns="http://www.w3.org/2000/svg" width="267.8" height="510.854" viewBox="0 0 267.8 510.854">
    <g id="그룹_509" data-name="그룹 509" transform="translate(-826.1 -324.573)">
        <path id="사각형_540" data-name="사각형 540" d="M0,0H16.771a0,0,0,0,1,0,0V15.015a3.778,3.778,0,0,1-3.778,3.778H3.778A3.778,3.778,0,0,1,0,15.015V0A0,0,0,0,1,0,0Z" transform="translate(832.087 816.634)" fill="#222"/>
        <path id="사각형_541" data-name="사각형 541" d="M3.778,0h9.215a3.778,3.778,0,0,1,3.778,3.778V18.793a0,0,0,0,1,0,0H0a0,0,0,0,1,0,0V3.778A3.778,3.778,0,0,1,3.778,0Z" transform="translate(1087.913 835.427) rotate(-180)" fill="#222"/>
        <path id="사각형_542" data-name="사각형 542" d="M21.63,0H246.17A21.63,21.63,0,0,1,267.8,21.63V177.123a0,0,0,0,1,0,0H0a0,0,0,0,1,0,0V21.63A21.63,21.63,0,0,1,21.63,0Z" transform="translate(826.1 325.103)" fill="#f7c401"/>
        <path id="사각형_543" data-name="사각형 543" d="M0,0H267.8a0,0,0,0,1,0,0V298.255a13.037,13.037,0,0,1-13.037,13.037H13.037A13.037,13.037,0,0,1,0,298.255V0A0,0,0,0,1,0,0Z" transform="translate(826.1 507)" fill="#f7c401"/>
        <rect id="사각형_544" data-name="사각형 544" width="267.799" height="6.53" transform="translate(826.1 495.697)" fill="#444"/>
        <rect id="사각형_545" data-name="사각형 545" width="267.799" height="6.53" transform="translate(826.1 507)" fill="#444"/>
        <path id="패스_897" data-name="패스 897" d="M940.682,551.413l-82.033-1.989a8.751,8.751,0,0,0,0,17.5l82.033-1.989a6.761,6.761,0,0,0,0-13.523Z" fill="#fff"/>
        <path id="패스_898" data-name="패스 898" d="M940.682,446.942l-82.033-1.989a8.751,8.751,0,0,0,0,17.5l82.033-1.989a6.762,6.762,0,0,0,0-13.523Z" fill="#fff"/>
        <g id="그룹_505" data-name="그룹 505" opacity="0.6">
            <path id="패스_899" data-name="패스 899" d="M940.682,460.664l-82.033,1.989a8.734,8.734,0,0,1-8.581-7.16,8.72,8.72,0,0,0,8.581,10.341l82.033-1.988a6.743,6.743,0,0,0,6.553-8.353A6.749,6.749,0,0,1,940.682,460.664Z" fill="#a0a0a0"/>
        </g>
        <g id="그룹_506" data-name="그룹 506" opacity="0.6">
            <path id="패스_900" data-name="패스 900" d="M940.682,565.135l-82.033,1.989a8.734,8.734,0,0,1-8.581-7.16,8.72,8.72,0,0,0,8.581,10.341l82.033-1.988a6.743,6.743,0,0,0,6.553-8.353A6.749,6.749,0,0,1,940.682,565.135Z" fill="#a0a0a0"/>
        </g>
        <rect id="사각형_546" data-name="사각형 546" width="267.799" height="4.773" transform="translate(826.1 502.227)" fill="#bbb"/>
        <rect id="사각형_547" data-name="사각형 547" width="53.52" height="4.773" transform="translate(1040.38 502.227)" fill="#888"/>
        <rect id="사각형_548" data-name="사각형 548" width="27.918" height="1.591" rx="0.729" transform="translate(1061.119 503.818)" fill="#ddd"/>
        <g id="그룹_507" data-name="그룹 507" opacity="0.6" style="mix-blend-mode: overlay;isolation: isolate">
            <path id="패스_901" data-name="패스 901" d="M832.253,806.094V343.929a19.337,19.337,0,0,1,19.317-19.356h-6.152A19.337,19.337,0,0,0,826.1,343.929V806.094a11.655,11.655,0,0,0,11.644,11.667H843.9A11.655,11.655,0,0,1,832.253,806.094Z" fill="#fff"/>
        </g>
        <g id="그룹_508" data-name="그룹 508" opacity="0.4" style="mix-blend-mode: multiply;isolation: isolate">
            <path id="패스_902" data-name="패스 902" d="M1074.582,325.1h-18.358a19.337,19.337,0,0,1,19.317,19.357V806.624a11.655,11.655,0,0,1-11.643,11.667h18.358a11.655,11.655,0,0,0,11.644-11.667V344.46A19.338,19.338,0,0,0,1074.582,325.1Z" fill="#f7c401"/>
        </g>
    </g>
</svg>
