<svg xmlns="http://www.w3.org/2000/svg" width="891.264" height="560.269" viewBox="0 0 891.264 560.269">
    <style>
        .fridge--close {
            transition: .2s;
        }
        .fridge--open {
            opacity: 0;
            transition: .2s;
        }
        .fridge:hover > .fridge--open {
            opacity: 1;
        }
        .fridge:hover > .fridge--close {
            opacity: 0;
        }
    </style>
    <g class="fridge" width="891.264" height="560.269">
        <g class="fridge--close" transform="translate(0, 20)">
            <g id="그룹_509" data-name="그룹 509" transform="translate(-826.1 -324.573)">
                <path id="사각형_540" data-name="사각형 540" d="M0,0H16.771a0,0,0,0,1,0,0V15.015a3.778,3.778,0,0,1-3.778,3.778H3.778A3.778,3.778,0,0,1,0,15.015V0A0,0,0,0,1,0,0Z" transform="translate(832.087 816.634)" fill="#222"/>
                <path id="사각형_541" data-name="사각형 541" d="M3.778,0h9.215a3.778,3.778,0,0,1,3.778,3.778V18.793a0,0,0,0,1,0,0H0a0,0,0,0,1,0,0V3.778A3.778,3.778,0,0,1,3.778,0Z" transform="translate(1087.913 835.427) rotate(-180)" fill="#222"/>
                <path id="사각형_542" data-name="사각형 542" d="M21.63,0H246.17A21.63,21.63,0,0,1,267.8,21.63V177.123a0,0,0,0,1,0,0H0a0,0,0,0,1,0,0V21.63A21.63,21.63,0,0,1,21.63,0Z" transform="translate(826.1 325.103)" fill="#f7c401"/>
                <path id="사각형_543" data-name="사각형 543" d="M0,0H267.8a0,0,0,0,1,0,0V298.255a13.037,13.037,0,0,1-13.037,13.037H13.037A13.037,13.037,0,0,1,0,298.255V0A0,0,0,0,1,0,0Z" transform="translate(826.1 507)" fill="#f7c401"/>
                <rect id="사각형_544" data-name="사각형 544" width="267.799" height="6.53" transform="translate(826.1 495.697)" fill="#444"/>
                <rect id="사각형_545" data-name="사각형 545" width="267.799" height="6.53" transform="translate(826.1 507)" fill="#444"/>
                <path id="패스_897" data-name="패스 897" d="M940.682,551.413l-82.033-1.989a8.751,8.751,0,0,0,0,17.5l82.033-1.989a6.761,6.761,0,0,0,0-13.523Z" fill="#fff"/>
                <path id="패스_898" data-name="패스 898" d="M940.682,446.942l-82.033-1.989a8.751,8.751,0,0,0,0,17.5l82.033-1.989a6.762,6.762,0,0,0,0-13.523Z" fill="#fff"/>
                <g id="그룹_505" data-name="그룹 505" opacity="0.6">
                    <path id="패스_899" data-name="패스 899" d="M940.682,460.664l-82.033,1.989a8.734,8.734,0,0,1-8.581-7.16,8.72,8.72,0,0,0,8.581,10.341l82.033-1.988a6.743,6.743,0,0,0,6.553-8.353A6.749,6.749,0,0,1,940.682,460.664Z" fill="#a0a0a0"/>
                </g>
                <g id="그룹_506" data-name="그룹 506" opacity="0.6">
                    <path id="패스_900" data-name="패스 900" d="M940.682,565.135l-82.033,1.989a8.734,8.734,0,0,1-8.581-7.16,8.72,8.72,0,0,0,8.581,10.341l82.033-1.988a6.743,6.743,0,0,0,6.553-8.353A6.749,6.749,0,0,1,940.682,565.135Z" fill="#a0a0a0"/>
                </g>
                    <rect id="사각형_546" data-name="사각형 546" width="267.799" height="4.773" transform="translate(826.1 502.227)" fill="#bbb"/>
                    <rect id="사각형_547" data-name="사각형 547" width="53.52" height="4.773" transform="translate(1040.38 502.227)" fill="#888"/>
                    <rect id="사각형_548" data-name="사각형 548" width="27.918" height="1.591" rx="0.729" transform="translate(1061.119 503.818)" fill="#ddd"/>
                <g id="그룹_507" data-name="그룹 507" opacity="0.6" style="mix-blend-mode: overlay;isolation: isolate">
                    <path id="패스_901" data-name="패스 901" d="M832.253,806.094V343.929a19.337,19.337,0,0,1,19.317-19.356h-6.152A19.337,19.337,0,0,0,826.1,343.929V806.094a11.655,11.655,0,0,0,11.644,11.667H843.9A11.655,11.655,0,0,1,832.253,806.094Z" fill="#fff"/>
                </g>
                <g id="그룹_508" data-name="그룹 508" opacity="0.4" style="mix-blend-mode: multiply;isolation: isolate">
                    <path id="패스_902" data-name="패스 902" d="M1074.582,325.1h-18.358a19.337,19.337,0,0,1,19.317,19.357V806.624a11.655,11.655,0,0,1-11.643,11.667h18.358a11.655,11.655,0,0,0,11.644-11.667V344.46A19.338,19.338,0,0,0,1074.582,325.1Z" fill="#f7c401"/>
                </g>
            </g>
            <g id="그룹_996" data-name="그룹 996" transform="matrix(0.999, 0.035, -0.035, 0.999, 262.968, 191.773)">
                <g id="그룹_986" data-name="그룹 986" transform="translate(43.144 275.989)">
                <path id="패스_1349" data-name="패스 1349" d="M628.468,498.1l18.092,7.664c25.82-1.02,46.624,7.416,48.185,20.413,1.737,14.461-21,29.083-50.791,32.66s-55.343-5.245-57.08-19.706C586.874,539.135,580.257,508.442,628.468,498.1Z" transform="translate(-586.567 -498.104)" fill="#15700e"/>
                <g id="그룹_985" data-name="그룹 985" transform="translate(30.476)">
                    <path id="패스_1350" data-name="패스 1350" d="M610.413,501.253a97.581,97.581,0,0,1,11.424-3.149l18.092,7.664c25.82-1.02,46.624,7.416,48.185,20.413.984,8.191-5.892,16.433-17.448,22.692C618.724,539.455,610.423,501.3,610.413,501.253Z" transform="translate(-610.413 -498.104)" fill="#1b5915"/>
                </g>
                </g>
                <g id="그룹_988" data-name="그룹 988" transform="translate(211.946 275.989)">
                <path id="패스_1351" data-name="패스 1351" d="M785.015,498.1l-18.092,7.664c-25.82-1.02-46.624,7.416-48.185,20.413-1.737,14.461,21,29.083,50.791,32.66s55.343-5.245,57.08-19.706C826.609,539.135,833.225,508.442,785.015,498.1Z" transform="translate(-718.645 -498.104)" fill="#15700e"/>
                <g id="그룹_987" data-name="그룹 987">
                    <path id="패스_1352" data-name="패스 1352" d="M796.439,501.253a97.511,97.511,0,0,0-11.424-3.149l-18.092,7.664c-25.82-1.02-46.624,7.416-48.185,20.413-.984,8.191,5.892,16.433,17.449,22.692C788.128,539.455,796.43,501.3,796.439,501.253Z" transform="translate(-718.645 -498.104)" fill="#1b5915"/>
                </g>
                </g>
                <path id="패스_1353" data-name="패스 1353" d="M757.416,317.845h0a25.03,25.03,0,0,0-26.568-16.333,25.372,25.372,0,0,0-2.724-6.811h0a25.086,25.086,0,0,0-43.45,0h0a25.331,25.331,0,0,0-2.725,6.811,25.029,25.029,0,0,0-26.568,16.333h0a25.086,25.086,0,0,0,27.929,33.284h0a24.927,24.927,0,0,0,20.069-18.978,25.988,25.988,0,0,0,3.019.178h0a25.989,25.989,0,0,0,3.019-.178,24.927,24.927,0,0,0,20.069,18.978h0A25.085,25.085,0,0,0,757.416,317.845Z" transform="translate(-524.719 -282.157)" fill="#15700e"/>
                <ellipse id="타원_288" data-name="타원 288" cx="136.1" cy="141.6" rx="136.1" ry="141.6" transform="translate(45.581 37.671)" fill="#b2db31"/>
                <g id="그룹_991" data-name="그룹 991" transform="translate(105.908 67.136)">
                <circle id="타원_289" data-name="타원 289" cx="24.208" cy="24.208" r="24.208" transform="translate(80.793)" fill="#fff"/>
                <circle id="타원_290" data-name="타원 290" cx="10.087" cy="10.087" r="10.087" transform="translate(87.246 9.166)" fill="#1d1d1b"/>
                <circle id="타원_291" data-name="타원 291" cx="24.208" cy="24.208" r="24.208" transform="translate(22.336)" fill="#fff"/>
                <circle id="타원_292" data-name="타원 292" cx="10.087" cy="10.087" r="10.087" transform="translate(28.789 9.166)" fill="#1d1d1b"/>
                <ellipse id="타원_293" data-name="타원 293" cx="13.307" cy="8.133" rx="13.307" ry="8.133" transform="translate(62.466 32.151)" fill="#15700e"/>
                <g id="그룹_989" data-name="그룹 989" transform="translate(41.915 60.277)">
                    <path id="패스_1354" data-name="패스 1354" d="M678.157,381.851c-4.478,0-7.3,2.07-9.685,4.674l5.876,10.723a4.991,4.991,0,0,0,9.127-.258l4.772-10.012C685.769,384.165,682.891,381.851,678.157,381.851Z" transform="translate(-668.472 -381.851)" fill="#f8f6f7"/>
                    <path id="패스_1355" data-name="패스 1355" d="M716.066,381.851c-4.731,0-7.608,2.312-10.085,5.121l4.775,10.017a4.992,4.992,0,0,0,9.128.258l5.873-10.719C723.366,383.924,720.548,381.851,716.066,381.851Z" transform="translate(-658.043 -381.851)" fill="#f8f6f7"/>
                </g>
                <g id="그룹_990" data-name="그룹 990" transform="translate(0 57.014)">
                    <path id="패스_1356" data-name="패스 1356" d="M759.787,400.884c-7.608,0-11.5-4.853-14.631-8.751s-5.28-6.31-9.542-6.31-6.4,2.4-9.539,6.31-7.022,8.751-14.63,8.751-11.5-4.853-14.63-8.751-5.278-6.31-9.539-6.31-6.4,2.4-9.539,6.31-7.022,8.751-14.63,8.751-11.5-4.853-14.628-8.751-5.278-6.31-9.539-6.31a3.263,3.263,0,0,1,0-6.526c7.607,0,11.5,4.853,14.628,8.751s5.28,6.31,9.539,6.31,6.4-2.4,9.539-6.31,7.021-8.751,14.63-8.751,11.5,4.853,14.63,8.751,5.278,6.31,9.539,6.31,6.4-2.4,9.539-6.31,7.023-8.751,14.63-8.751,11.5,4.853,14.631,8.751,5.28,6.31,9.542,6.31,6.4-2.4,9.541-6.31,7.023-8.751,14.631-8.751a3.263,3.263,0,1,1,0,6.526c-4.261,0-6.4,2.4-9.542,6.31S767.395,400.884,759.787,400.884Z" transform="translate(-635.676 -379.298)" fill="#444"/>
                </g>
                </g>
                <path id="패스_1357" data-name="패스 1357" d="M659.722,452.232h94.77a15.232,15.232,0,0,1,15.2,16.46c-1.713,20.741-12.337,53.714-62.584,53.714s-60.873-32.972-62.584-53.714A15.231,15.231,0,0,1,659.722,452.232Z" transform="translate(-527.323 -234.869)" fill="#15700e"/>
                <g id="그룹_993" data-name="그룹 993" transform="translate(259.739 162.131)">
                <path id="패스_1358" data-name="패스 1358" d="M807.585,419.427H761.236v75.589h51.4l-.049-75.589Z" transform="translate(-754.596 -406.121)" fill="#b2db31"/>
                <path id="패스_1359" data-name="패스 1359" d="M761.236,425.045v55.848h11.017V409.016c-5.025,0-7.84,3.9-9.363,7.482A21.813,21.813,0,0,0,761.236,425.045Z" transform="translate(-754.596 -409.016)" fill="#9dbc1b"/>
                <path id="패스_1360" data-name="패스 1360" d="M788.381,501.869A32.343,32.343,0,0,1,756.041,470a8.867,8.867,0,0,1,8.271-9.111,8.646,8.646,0,0,1,7.829,4.265,1.063,1.063,0,0,0,1.915-.266,15.059,15.059,0,0,1,28.65,0,1.063,1.063,0,0,0,1.914.266,8.643,8.643,0,0,1,7.829-4.265A8.868,8.868,0,0,1,820.722,470,32.345,32.345,0,0,1,788.381,501.869Z" transform="translate(-756.04 -396.378)" fill="#15700e"/>
                <g id="그룹_992" data-name="그룹 992" transform="translate(0 64.502)">
                    <path id="패스_1361" data-name="패스 1361" d="M773.7,464.011a1.038,1.038,0,0,1-1.555-.253,8.646,8.646,0,0,0-7.829-4.265,8.867,8.867,0,0,0-8.271,9.111,32.355,32.355,0,0,0,25.795,31.206C771.885,485.469,773.7,464.012,773.7,464.011Z" transform="translate(-756.04 -459.485)" fill="#1b5915"/>
                </g>
                </g>
                <g id="그룹_995" data-name="그룹 995" transform="translate(0 62.665)">
                <path id="패스_1362" data-name="패스 1362" d="M579.614,410.885l25.7,5.16,4.332-17.9-26.822-5.283Z" transform="translate(-545.356 -314.043)" fill="#b2db31"/>
                <path id="패스_1363" data-name="패스 1363" d="M628.524,408.221l-37.549,17.188-3.38,1.548a1.334,1.334,0,0,1-1.769-.658l-31.118-67.974,4.594-2.1,37.549-17.188,4.595-2.1,31.628,69.209Z" transform="translate(-552.281 -329.594)" fill="#b2db31"/>
                <path id="패스_1364" data-name="패스 1364" d="M583.5,417.555l-23.246-50.782,10.016-4.586,22.353,48.829,2.027,4.428,5.539,12.1c-4.569,2.091-8.753-.288-11.628-2.908A21.772,21.772,0,0,1,583.5,417.555Z" transform="translate(-550.74 -322.571)" fill="#9dbc1b"/>
                <path id="패스_1365" data-name="패스 1365" d="M571.7,334.132a32.343,32.343,0,0,0-16.139,42.44,8.866,8.866,0,0,0,11.312,4.841,8.642,8.642,0,0,0,5.345-7.137,1.062,1.062,0,0,1,1.851-.555,15.059,15.059,0,0,0,26.05-11.925,1.063,1.063,0,0,1,1.631-1.039,8.637,8.637,0,0,0,8.893.619,8.865,8.865,0,0,0,3.729-11.726A32.344,32.344,0,0,0,571.7,334.132Z" transform="translate(-552.809 -331.19)" fill="#15700e"/>
                <g id="그룹_994" data-name="그룹 994" transform="translate(0 6.272)">
                    <path id="패스_1366" data-name="패스 1366" d="M573.524,372.034a1.037,1.037,0,0,0-1.309.878,8.642,8.642,0,0,1-5.345,7.137,8.866,8.866,0,0,1-11.312-4.841A32.353,32.353,0,0,1,566.023,336.1C562.944,353.278,573.524,372.034,573.524,372.034Z" transform="translate(-552.809 -336.097)" fill="#1b5915"/>
                </g>
                </g>
            </g>
        </g>
        <g id="그룹_1210" data-name="그룹 1210" transform="translate(-669 -254.143)"  class="fridge--open">
            <defs>
                <clipPath id="clip-path">
                <path id="패스_1388" data-name="패스 1388" d="M992.551,373.019c-32.462.763-65.86,15.133-65.879,30.5s33.342,30.171,65.8,31.017c32.462-.783,65.861-15.528,65.88-30.892S1025.01,373.843,992.551,373.019Z" transform="translate(-926.672 -373.019)" fill="none"/>
                </clipPath>
                <filter id="합치기_7" x="612.264" y="102.117" width="279" height="122.988" filterUnits="userSpaceOnUse">
                <feOffset dy="3" input="SourceAlpha"/>
                <feGaussianBlur stdDeviation="3" result="blur"/>
                <feFlood flood-opacity="0.161"/>
                <feComposite operator="in" in2="blur"/>
                <feComposite in="SourceGraphic"/>
                </filter>
            </defs>
            <g id="그룹_1013" data-name="그룹 1013" transform="translate(225.333 189.174)">
            <g id="그룹_1002" data-name="그룹 1002" transform="translate(1041.522 562.691)">
                <path id="패스_1367" data-name="패스 1367" d="M1068.5,498.1l-18.39,7.791c-26.246-1.037-47.392,7.539-48.978,20.749-1.765,14.7,21.349,29.562,51.627,33.2s56.255-5.331,58.02-20.031C1110.777,539.811,1117.5,508.612,1068.5,498.1Z" transform="translate(-1001.035 -498.104)" fill="#15700e"/>
                <g id="그룹_1001" data-name="그룹 1001">
                <path id="패스_1368" data-name="패스 1368" d="M1080.111,501.3a99.113,99.113,0,0,0-11.613-3.2l-18.39,7.791c-26.246-1.037-47.392,7.539-48.978,20.749-1,8.326,5.989,16.7,17.736,23.065C1071.662,540.136,1080.1,501.348,1080.111,501.3Z" transform="translate(-1001.035 -498.104)" fill="#1b5915"/>
                </g>
            </g>
            <g id="그룹_1004" data-name="그룹 1004" transform="translate(869.941 562.691)">
                <path id="패스_1369" data-name="패스 1369" d="M911.548,498.1l18.39,7.791c26.246-1.037,47.392,7.539,48.978,20.749,1.766,14.7-21.349,29.562-51.627,33.2s-56.254-5.331-58.02-20.031C869.269,539.811,862.543,508.612,911.548,498.1Z" transform="translate(-868.957 -498.104)" fill="#15700e"/>
                <g id="그룹_1003" data-name="그룹 1003" transform="translate(30.978)">
                <path id="패스_1370" data-name="패스 1370" d="M892.8,501.3a99.178,99.178,0,0,1,11.613-3.2l18.39,7.791c26.246-1.037,47.392,7.539,48.978,20.749,1,8.326-5.989,16.7-17.735,23.065C901.251,540.136,892.813,501.348,892.8,501.3Z" transform="translate(-892.803 -498.104)" fill="#1b5915"/>
                </g>
            </g>
            <path id="패스_1371" data-name="패스 1371" d="M937.8,318.433h0a25.439,25.439,0,0,1,27-16.6,25.753,25.753,0,0,1,2.77-6.923h0a25.5,25.5,0,0,1,44.165,0h0a25.792,25.792,0,0,1,2.768,6.923,25.442,25.442,0,0,1,27.005,16.6h0a25.5,25.5,0,0,1-28.389,33.832h0a25.338,25.338,0,0,1-20.4-19.29,26.4,26.4,0,0,1-3.068.181h0a26.418,26.418,0,0,1-3.068-.181,25.338,25.338,0,0,1-20.4,19.29h0A25.5,25.5,0,0,1,937.8,318.433Z" transform="translate(21.103)" fill="#15700e"/>
            <ellipse id="타원_294" data-name="타원 294" cx="138.341" cy="143.932" rx="138.341" ry="143.932" transform="translate(872.417 320.448)" fill="#b2db31"/>
            <circle id="타원_295" data-name="타원 295" cx="24.607" cy="24.607" r="24.607" transform="translate(956.442 340.006)" fill="#fff"/>
            <circle id="타원_296" data-name="타원 296" cx="10.253" cy="10.253" r="10.253" transform="translate(964.591 347.323)" fill="#1d1d1b"/>
            <circle id="타원_297" data-name="타원 297" cx="24.607" cy="24.607" r="24.607" transform="translate(1015.861 340.006)" fill="#fff"/>
            <circle id="타원_298" data-name="타원 298" cx="10.253" cy="10.253" r="10.253" transform="translate(1024.01 347.323)" fill="#1d1d1b"/>
            <ellipse id="타원_299" data-name="타원 299" cx="13.526" cy="8.267" rx="13.526" ry="8.267" transform="translate(997.232 372.686)" fill="#15700e"/>
            <path id="패스_1372" data-name="패스 1372" d="M1041.661,452.232h-96.33a15.483,15.483,0,0,0-15.45,16.731c1.741,21.083,12.54,54.6,63.615,54.6s61.876-33.515,63.616-54.6A15.484,15.484,0,0,0,1041.661,452.232Z" transform="translate(19.19 50.868)" fill="#15700e"/>
            <g id="그룹_1006" data-name="그룹 1006" transform="translate(865.667 446.958)">
                <path id="패스_1373" data-name="패스 1373" d="M876,419.427h47.112v76.834H870.863l.05-76.834Z" transform="translate(-864.113 -405.902)" fill="#b2db31"/>
                <path id="패스_1374" data-name="패스 1374" d="M913.66,425.309v56.768h-11.2V409.016c5.108,0,7.969,3.967,9.517,7.6A22.174,22.174,0,0,1,913.66,425.309Z" transform="translate(-854.662 -409.016)" fill="#9dbc1b"/>
                <path id="패스_1375" data-name="패스 1375" d="M898.542,502.649a32.876,32.876,0,0,0,32.872-32.4,9.012,9.012,0,0,0-8.408-9.261,8.789,8.789,0,0,0-7.958,4.335,1.079,1.079,0,0,1-1.945-.27,15.308,15.308,0,0,0-29.123,0,1.08,1.08,0,0,1-1.946.27,8.786,8.786,0,0,0-7.958-4.335,9.013,9.013,0,0,0-8.408,9.261A32.877,32.877,0,0,0,898.542,502.649Z" transform="translate(-865.667 -395.421)" fill="#15700e"/>
                <g id="그룹_1005" data-name="그룹 1005" transform="translate(39.527 65.564)">
                <path id="패스_1376" data-name="패스 1376" d="M904.367,464.085a1.055,1.055,0,0,0,1.581-.257,8.789,8.789,0,0,1,7.958-4.335,9.012,9.012,0,0,1,8.408,9.261,32.888,32.888,0,0,1-26.219,31.72C906.209,485.9,904.367,464.086,904.367,464.085Z" transform="translate(-896.094 -459.485)" fill="#1b5915"/>
                </g>
            </g>
            <g id="그룹_1008" data-name="그룹 1008" transform="translate(1113.307 345.855)">
                <path id="패스_1377" data-name="패스 1377" d="M1099.733,411.182l-26.126,5.244-4.4-18.2,27.264-5.37Z" transform="translate(-1052.432 -312.745)" fill="#b2db31"/>
                <path id="패스_1378" data-name="패스 1378" d="M1060.918,409.395l38.167,17.471,3.436,1.573a1.356,1.356,0,0,0,1.8-.669l31.63-69.093-4.67-2.138-38.167-17.471-4.67-2.138-32.149,70.348Z" transform="translate(-1056.293 -329.473)" fill="#b2db31"/>
                <path id="패스_1379" data-name="패스 1379" d="M1097.785,418.467l23.629-51.618-10.182-4.661-22.721,49.633-2.06,4.5-5.63,12.3c4.646,2.125,8.9-.292,11.819-2.955A22.153,22.153,0,0,0,1097.785,418.467Z" transform="translate(-1048.957 -321.918)" fill="#9dbc1b"/>
                <path id="패스_1380" data-name="패스 1380" d="M1114.925,334.181a32.878,32.878,0,0,1,16.406,43.139,9.014,9.014,0,0,1-11.5,4.921,8.782,8.782,0,0,1-5.431-7.254,1.08,1.08,0,0,0-1.882-.564,15.307,15.307,0,0,1-26.479-12.122,1.08,1.08,0,0,0-1.656-1.056,8.782,8.782,0,0,1-9.04.629,9.011,9.011,0,0,1-3.791-11.919A32.877,32.877,0,0,1,1114.925,334.181Z" transform="translate(-1052.001 -331.19)" fill="#15700e"/>
                <g id="그룹_1007" data-name="그룹 1007" transform="translate(61.069 6.375)">
                <path id="패스_1381" data-name="패스 1381" d="M1103.3,372.626a1.055,1.055,0,0,1,1.33.892,8.782,8.782,0,0,0,5.431,7.254,9.012,9.012,0,0,0,11.5-4.921,32.886,32.886,0,0,0-10.637-39.755C1114.054,353.561,1103.3,372.626,1103.3,372.626Z" transform="translate(-1103.302 -336.097)" fill="#1b5915"/>
                </g>
            </g>
            <g id="그룹_1011" data-name="그룹 1011" transform="translate(940.071 395.981)">
                <path id="패스_1382" data-name="패스 1382" d="M993.809,369.778l-.136,0-.136,0c-33.3.783-70.572,15.792-70.6,34.705-.025,19.113,37.2,34.366,70.5,35.233l.14,0,.14,0c33.3-.8,70.568-15.985,70.591-35.1C1064.34,385.7,1027.111,370.623,993.809,369.778Z" transform="translate(-922.941 -369.775)" fill="#444"/>
                <g id="그룹_1010" data-name="그룹 1010" transform="translate(4.847 4.214)">
                <g id="그룹_1009" data-name="그룹 1009" clip-path="url(#clip-path)">
                    <path id="패스_1383" data-name="패스 1383" d="M986.8,403.391c-18.849.8-34.709,9.724-41.071,22.06l41.043.039,41.044.039C1021.488,413.181,1005.649,404.221,986.8,403.391Z" transform="translate(-920.972 -363.935)" fill="#e55e48"/>
                    <path id="패스_1384" data-name="패스 1384" d="M959.093,389.384c-.739,3.445-5.142,4.583-7.927,2.047l-12.475-11.362a2.1,2.1,0,0,1,.785-3.665l9.982-2.579,9.982-2.579a2.4,2.4,0,0,1,2.961,2.7Z" transform="translate(-923.308 -373.571)" fill="#f8f6f7"/>
                    <path id="패스_1385" data-name="패스 1385" d="M1001.282,389.428c.73,3.447,5.13,4.592,7.921,2.062l12.505-11.338a2.1,2.1,0,0,0-.777-3.665l-9.974-2.6-9.976-2.6a2.4,2.4,0,0,0-2.968,2.69Z" transform="translate(-905.348 -373.559)" fill="#f8f6f7"/>
                    <path id="패스_1386" data-name="패스 1386" d="M959.093,389.384c-.739,3.445-5.142,4.583-7.927,2.047l-12.475-11.362a2.1,2.1,0,0,1,.785-3.665l9.982-2.579,9.982-2.579a2.4,2.4,0,0,1,2.961,2.7Z" transform="translate(-923.308 -373.571)" fill="#f8f6f7"/>
                    <path id="패스_1387" data-name="패스 1387" d="M1001.282,389.428c.73,3.447,5.13,4.592,7.921,2.062l12.505-11.338a2.1,2.1,0,0,0-.777-3.665l-9.974-2.6-9.976-2.6a2.4,2.4,0,0,0-2.968,2.69Z" transform="translate(-905.348 -373.559)" fill="#f8f6f7"/>
                </g>
                </g>
            </g>
            </g>
            <g id="그룹_1016" data-name="그룹 1016" transform="translate(-10 10)">
            <g id="그룹_1014" data-name="그룹 1014" transform="translate(1054 -5083)">
                <path id="사각형_549" data-name="사각형 549" d="M0,0H16.771a0,0,0,0,1,0,0V15.015a3.778,3.778,0,0,1-3.778,3.778H3.778A3.778,3.778,0,0,1,0,15.015V0A0,0,0,0,1,0,0Z" transform="translate(-369.013 5839.648)" fill="#222"/>
                <path id="패스_903" data-name="패스 903" d="M994.661,318.69H765.5a19.337,19.337,0,0,0-19.317,19.357V800.211a11.655,11.655,0,0,0,11.643,11.667h244.513a11.655,11.655,0,0,0,11.643-11.667V338.047A19.337,19.337,0,0,0,994.661,318.69Z" transform="translate(-1121.179 5029.427)" fill="#f7c401"/>
                <path id="패스_904" data-name="패스 904" d="M989.091,799.281H764.768a8.145,8.145,0,0,1-8.137-8.153V514.64h232.46Z" transform="translate(-1121.179 5029.427)" fill="#fff"/>
                <path id="패스_905" data-name="패스 905" d="M764.154,780.219c0,5.916,5.154,10.712,11.511,10.712H989.091V677.908H764.154Z" transform="translate(-1121.179 5029.427)" fill="#a0a0a0"/>
                <path id="사각형_550" data-name="사각형 550" d="M3.778,0h9.215a3.778,3.778,0,0,1,3.778,3.778V18.793a0,0,0,0,1,0,0H0a0,0,0,0,1,0,0V3.778A3.778,3.778,0,0,1,3.778,0Z" transform="translate(-113.188 5858.44) rotate(-180)" fill="#222"/>
                <rect id="사각형_551" data-name="사각형 551" width="232.46" height="25.256" transform="translate(-364.548 5518.811)" fill="#f1f1f1"/>
                <path id="패스_906" data-name="패스 906" d="M979.777,346.666h-215.1a8.051,8.051,0,0,0-8.044,8.059V359.9h232.46v-5.03C989.091,350.416,984.219,346.666,979.777,346.666Z" transform="translate(-1121.179 5029.427)" fill="#f1f1f1"/>
                <path id="패스_907" data-name="패스 907" d="M756.631,489.384h232.46V359.9H756.631Zm12.7-110.551a8.789,8.789,0,0,1,8.78-8.8h195.6a8.789,8.789,0,0,1,8.78,8.8V483.091H778.113a8.978,8.978,0,0,1-8.78-9.016Z" transform="translate(-1121.179 5029.427)" fill="#fff"/>
                <path id="패스_908" data-name="패스 908" d="M778.113,483.086h7.537a8.784,8.784,0,0,1-8.775-8.792V383.653a9.139,9.139,0,0,1,9.13-9.148H975.542a6.954,6.954,0,0,1,6.946,6.961v-2.633a8.789,8.789,0,0,0-8.78-8.8h-195.6a8.789,8.789,0,0,0-8.78,8.8v95.456A8.789,8.789,0,0,0,778.113,483.086Z" transform="translate(-1121.179 5029.427)" fill="#ddd"/>
                <path id="패스_909" data-name="패스 909" d="M975.542,374.719H786.005a9.139,9.139,0,0,0-9.13,9.148v90.427a8.784,8.784,0,0,0,8.775,8.792h8.029V396.461a6.225,6.225,0,0,1,6.218-6.231H963.152a6.225,6.225,0,0,1,6.219,6.231v86.625h13.117V381.679A6.953,6.953,0,0,0,975.542,374.719Z" transform="translate(-1121.179 5029.427)" fill="#a0a0a0"/>
                <path id="패스_910" data-name="패스 910" d="M963.152,390.235H799.9a6.225,6.225,0,0,0-6.218,6.231v86.625H969.371V396.466A6.225,6.225,0,0,0,963.152,390.235Z" transform="translate(-1121.179 5029.427)" fill="#bbb"/>
                <rect id="사각형_552" data-name="사각형 552" width="34.335" height="11.911" rx="5" transform="translate(-162.309 5524.246)" fill="#bbb"/>
                <ellipse id="타원_100" data-name="타원 100" cx="2.712" cy="2.718" rx="2.712" ry="2.718" transform="translate(-157.215 5527.484)" fill="#676767"/>
                <ellipse id="타원_101" data-name="타원 101" cx="2.712" cy="2.718" rx="2.712" ry="2.718" transform="translate(-139.816 5527.484)" fill="#676767"/>
                <path id="패스_911" data-name="패스 911" d="M979,525.644h-.478c5.676,0,10.566,4.414,10.566,9.843A10.071,10.071,0,0,0,979,525.644Z" transform="translate(-1121.179 5029.427)" fill="none"/>
                <path id="패스_912" data-name="패스 912" d="M775.467,521.666A11.324,11.324,0,0,0,764.154,533v144.9h11.937a.2.2,0,0,1-.208-.2V535.475a10.061,10.061,0,0,1,10.277-9.831H979a10.071,10.071,0,0,1,10.088,9.843V521.666Z" transform="translate(-1121.179 5029.427)" fill="#ddd"/>
                <path id="패스_913" data-name="패스 913" d="M978.525,525.644H786.16c-5.676,0-10.693,4.314-10.693,9.744V677.907h19V549.8c0-4.828,4.393-8.741,9.811-8.741H961.139c5.419,0,9.812,3.913,9.812,8.741V677.73a.189.189,0,0,1-.2.177h18.339V535.487C989.091,530.058,984.2,525.644,978.525,525.644Z" transform="translate(-1121.179 5029.427)" fill="#a0a0a0"/>
                <path id="패스_914" data-name="패스 914" d="M961.139,541.056H804.276c-5.418,0-9.811,3.913-9.811,8.741V759.63c0,4.828,4.393,8.741,9.811,8.741H961.139c5.419,0,9.812-3.913,9.812-8.741V549.8C970.951,544.969,966.558,541.056,961.139,541.056Z" transform="translate(-1121.179 5029.427)" fill="#bbb"/>
                <path id="패스_915" data-name="패스 915" d="M764.154,677.908v4.574H989.091v-4.574H764.154Z" transform="translate(-1121.179 5029.427)" fill="#f1f1f1"/>
                <path id="패스_916" data-name="패스 916" d="M764.154,682.482v4.108H989.091v-4.108H764.154Z" transform="translate(-1121.179 5029.427)" fill="#444"/>
                <rect id="사각형_553" data-name="사각형 553" width="213.616" height="4.574" transform="translate(-345.712 5634.12)" fill="#f1f1f1"/>
                <rect id="사각형_554" data-name="사각형 554" width="6.786" height="3.381" rx="1.549" transform="translate(-349.105 5631.535)" fill="#676767"/>
                <rect id="사각형_555" data-name="사각형 555" width="6.786" height="3.381" rx="1.549" transform="translate(-349.105 5637.898)" fill="#676767"/>
                <rect id="사각형_556" data-name="사각형 556" width="6.786" height="3.381" rx="1.549" transform="translate(-349.105 5705.644)" fill="#676767"/>
                <rect id="사각형_557" data-name="사각형 557" width="6.786" height="3.381" rx="1.549" transform="translate(-135.481 5631.535)" fill="#676767"/>
                <rect id="사각형_558" data-name="사각형 558" width="6.786" height="3.381" rx="1.549" transform="translate(-135.481 5637.898)" fill="#676767"/>
                <rect id="사각형_559" data-name="사각형 559" width="6.786" height="3.381" rx="1.549" transform="translate(-135.481 5705.644)" fill="#676767"/>
                <path id="패스_917" data-name="패스 917" d="M1033.957,495.89v8.053l-44.866.311v-7.778Z" transform="translate(-1121.179 5029.427)" fill="#888"/>
                <g id="그룹_510" data-name="그룹 510" transform="translate(-1121.179 5029.427)">
                <path id="패스_918" data-name="패스 918" d="M1014.631,498.449h-25.54v3.386h25.54a1.693,1.693,0,0,0,0-3.386Z" fill="#ddd"/>
                </g>
                <g id="그룹_513" data-name="그룹 513" transform="translate(-1121.179 5029.427)" opacity="0.8">
                <path id="패스_924" data-name="패스 924" d="M1000.511,458.365l-.034-22.322L980.6,437.049l.115,26.262,22.808,0V463.3a3.211,3.211,0,0,1-1.237-.276C1000.733,462.264,1000.513,460.128,1000.511,458.365Z" fill="#888" opacity="0.9"/>
                </g>
                <g id="그룹_514" data-name="그룹 514" transform="translate(-1121.179 5029.427)" opacity="0.8">
                <path id="패스_925" data-name="패스 925" d="M980.7,742.341v46.787a4.027,4.027,0,0,0,3.561,4l10.18,1.145q-.141-25.48-.283-50.932Z" fill="#888" opacity="0.6"/>
                </g>
                <path id="패스_926" data-name="패스 926" d="M988.678,811.419V342.3a27.412,27.412,0,0,1,11.7-22.626,19.224,19.224,0,0,0-6.126-1.01H981.775a40.75,40.75,0,0,0-7.387,23.636V811.857h14.29Z" transform="translate(-1121.179 5029.427)" fill="#f7c401" opacity="0.4" style="mix-blend-mode: multiply;isolation: isolate"/>
                <g id="그룹_1015" data-name="그룹 1015">
                <path id="패스_919" data-name="패스 919" d="M771.795,767.027V703.165h-2.89V772.4c0,5.839,5.776,10.572,12.9,10.572H989.091l0-2.669H788.051C775.467,780.306,771.715,776.095,771.795,767.027Z" transform="translate(-1121.179 5029.427)" fill="#fff"/>
                <path id="패스_920" data-name="패스 920" d="M771.795,703.165v65.806c-.08,7.741,3.672,11.335,16.256,11.336H989.087l-.145-77.142Z" transform="translate(-1121.179 5029.427)" fill="#fff" opacity="0.6"/>
                <path id="패스_921" data-name="패스 921" d="M989.012,703.165H764.154V686.559H988.942Z" transform="translate(-1121.179 5029.427)" fill="#fff" opacity="0.8"/>
                <g id="그룹_511" data-name="그룹 511" transform="translate(-1121.179 5029.427)">
                    <path id="패스_922" data-name="패스 922" d="M913.95,744.312H843.56a7.019,7.019,0,0,0-7.012,7.027v28.968h3.175V754.653a6.623,6.623,0,0,1,6.616-6.629h64.833a6.622,6.622,0,0,1,6.615,6.629v25.654h3.176V751.339A7.02,7.02,0,0,0,913.95,744.312Z" fill="#fff"/>
                    <path id="패스_923" data-name="패스 923" d="M911.172,748.024H846.339a6.623,6.623,0,0,0-6.616,6.629v25.654h78.064V754.653A6.622,6.622,0,0,0,911.172,748.024Z" fill="#fff" opacity="0.4"/>
                </g>
                </g>
            </g>
            <g id="그룹_522" data-name="그룹 522" transform="translate(-67.179 -53.573)">
                <g id="그룹_516" data-name="그룹 516">
                <ellipse id="타원_102" data-name="타원 102" cx="5.292" cy="9.148" rx="5.292" ry="9.148" transform="translate(1193.261 546.458)" fill="#ddd"/>
                <path id="패스_927" data-name="패스 927" d="M1189.986,502.858V835.2a6.6,6.6,0,0,1-4.393,6.579l3.194.432a8.153,8.153,0,0,0,9.237-8.09V502.774Z" fill="#a0a0a0"/>
                <path id="패스_928" data-name="패스 928" d="M1189.986,835.2V502.858l-200.895,2.1V812.869c.006,1.321,1.484,2.525,2.791,2.7l193.711,26.206A6.6,6.6,0,0,0,1189.986,835.2Z" fill="#f7c401"/>
                <g id="그룹_515" data-name="그룹 515">
                    <path id="패스_929" data-name="패스 929" d="M1178.9,506.053l-2.311.043v331.73a8.066,8.066,0,0,0,7.938-8.069V511.671A5.612,5.612,0,0,0,1178.9,506.053Z" fill="#bbb"/>
                </g>
                <path id="패스_930" data-name="패스 930" d="M989.091,506.354l187.5-.257V837.838l-187.5-26.4Z" fill="#f1f1f1"/>
                <ellipse id="타원_103" data-name="타원 103" cx="1.694" cy="1.424" rx="1.694" ry="1.424" transform="translate(1168.757 525.082) rotate(-79.999)" fill="#888"/>
                <path id="패스_931" data-name="패스 931" d="M1167.063,798.09s-.2-255.543,0-262.3a7.043,7.043,0,0,0-.659-3.44l-12.68,8.709s-3.187,1.292-2.987,11.633,0,90.683,0,90.683V805.05s.482,6.863-4.142,6.353l11.317,1.271C1168.325,813.841,1167.063,798.09,1167.063,798.09Z" fill="#a0a0a0" opacity="0.9"/>
                <path id="패스_932" data-name="패스 932" d="M1161.968,529.656h-.06l.056,0Z" fill="none"/>
                <path id="패스_933" data-name="패스 933" d="M1161.462,529.644h-.075l-.118.005-.051,0-.019,0-.025,0h.734C1161.735,529.646,1161.578,529.642,1161.462,529.644Z" fill="none"/>
                <path id="패스_934" data-name="패스 934" d="M1015.549,529.656c-14.69.317-21.217,5.965-24.109,11.191q-.255.462-.473.917a18.524,18.524,0,0,0-1.25,3.438c-.134.527-.237,1.025-.315,1.484a14.5,14.5,0,0,0-.234,3.054V793.7l5.275.592c-.338-60.916-.676-121.662-1.014-182.579-.04-7.086-.088-14.575.382-21.467.147-2.141.205-4.284,2.051-5.37,1.144-.672,3.473-.68,4.8-.646l.06,0,130.069,3.427a50.452,50.452,0,0,1,7.034.522c1.841.309,4.688.7,5.719,2.374,2.5,4.065,2.33,9.692,2.331,14.276q.021,97.758.042,195.515c0,3.277-.22,7.035-2.8,9.051a6.826,6.826,0,0,1-5.029,1.08l8.582.963c4.624.51,4.142-6.353,4.142-6.353V643.407s.2-80.342,0-90.683,2.987-11.633,2.987-11.633l12.68-8.709a4.757,4.757,0,0,0-.6-.942c-.032-.038-.066-.074-.1-.111a4.647,4.647,0,0,0-.375-.369c-.036-.031-.071-.063-.107-.093a4.865,4.865,0,0,0-1.022-.641l-.122-.054c-.139-.061-.279-.116-.417-.165-.039-.013-.078-.028-.117-.04a6.387,6.387,0,0,0-.981-.235l-.112-.017c-.116-.016-.227-.029-.332-.039l-.1-.01c-.047,0-.084,0-.128-.007L1149.675,539s-1.985.795-2.183,6.761,0,31.819,0,31.819.992,5.767-5.756,5.767-144.881-3.182-144.881-3.182-3.434-.133-3.453-4.177l-.12-25.852s.033-19.887,24.117-20.483Z" fill="#fff"/>
                <path id="패스_935" data-name="패스 935" d="M993.282,550.139l.12,25.852c.019,4.044,3.453,4.177,3.453,4.177s138.133,3.182,144.881,3.182,5.756-5.767,5.756-5.767-.2-25.853,0-31.819,2.183-6.761,2.183-6.761l12.289-9.344-.056,0H1017.4C993.315,530.252,993.282,550.139,993.282,550.139Z" fill="#bbb"/>
                <path id="패스_936" data-name="패스 936" d="M1143.119,809.4c2.579-2.016,2.8-5.774,2.8-9.051q-.021-97.757-.042-195.515c0-4.584.173-10.211-2.331-14.276-1.031-1.674-3.878-2.065-5.719-2.374a50.452,50.452,0,0,0-7.034-.522l-130.069-3.427-.06,0c-1.328-.034-3.657-.026-4.8.646-1.846,1.086-1.9,3.229-2.051,5.37-.47,6.892-.422,14.381-.382,21.467.338,60.917.676,121.677,1.014,182.593,44.266,5.013,90.937,10.232,140.622,15.822.347.039.692.082,1.034.126l1.991.223A6.826,6.826,0,0,0,1143.119,809.4Z" fill="#bbb"/>
                <path id="패스_937" data-name="패스 937" d="M997.9,800.4l167.515,18.83a1.316,1.316,0,0,1,1.154,1.307v2.258a1.006,1.006,0,0,1-1.138,1L997.755,803.172a.956.956,0,0,1-.829-.948v-.966A.867.867,0,0,1,997.9,800.4Z" fill="#444"/>
                <path id="패스_938" data-name="패스 938" d="M1199.314,507.953h-9.344v-5.085l9.344-.095Z" fill="#bbb"/>
                <path id="패스_939" data-name="패스 939" d="M989.091,504.253v2.1l200.878-.3v-3.184Z" fill="#444"/>
                </g>
                <g id="그룹_519" data-name="그룹 519">
                <path id="패스_940" data-name="패스 940" d="M1147.415,577.548s-.046-5.947-.072-12.794l-.015-10.341-24.457-.165v28.821c7.447.153,17.638.246,18.788.246C1148.407,583.315,1147.415,577.548,1147.415,577.548Z" fill="#ddd" opacity="0.8"/>
                <rect id="사각형_560" data-name="사각형 560" width="2.78" height="28.7" transform="translate(1120.091 554.179)" fill="#fff"/>
                <path id="패스_941" data-name="패스 941" d="M993.205,553.087H980.7l.066,2.585-.132,24.063,16.01.386c.081.009.132.012.132.012l7.888.181h.043c23.181.532,87.478,2.042,118.162,2.678V554.241Z" fill="#fff" opacity="0.6"/>
                <path id="패스_942" data-name="패스 942" d="M1126.576,583.071l1.513.031v-.033l-1.513-.032Z" fill="#f1f1f1" opacity="0.8"/>
                <g id="그룹_517" data-name="그룹 517">
                    <path id="패스_943" data-name="패스 943" d="M997.322,553.122l-.082-.035H980.7l.066,2.585h18.5l123.606,1.424v-2.855Z" fill="#fff"/>
                    <path id="패스_944" data-name="패스 944" d="M1004.518,565.009l-23.816-.255v3.869l142.169,3.139v-4Z" fill="#fff"/>
                </g>
                <g id="그룹_518" data-name="그룹 518">
                    <path id="패스_945" data-name="패스 945" d="M1147.446,557.328l0-2.915-24.571-.166v2.865Z" fill="#f1f1f1" opacity="0.8"/>
                    <path id="패스_946" data-name="패스 946" d="M1122.871,571.795l24.575.384V568.2l-24.575-.4Z" fill="#f1f1f1" opacity="0.8"/>
                </g>
                <path id="패스_947" data-name="패스 947" d="M1147.415,577.548s-.046-5.947-.072-12.794l-.015-10.341-1.417-.012h-1.142v28.348a4.979,4.979,0,0,0,1.144-.71A5.193,5.193,0,0,0,1147.415,577.548Z" fill="#a0a0a0" opacity="0.6"/>
                </g>
                <g id="그룹_521" data-name="그룹 521">
                <path id="패스_948" data-name="패스 948" d="M989.232,793.736l-.141-.016Z" fill="none"/>
                <path id="패스_949" data-name="패스 949" d="M990.466,793.875l-.874-.1Z" fill="none"/>
                <path id="패스_950" data-name="패스 950" d="M989.592,793.776l-.36-.04Z" fill="none"/>
                <path id="패스_951" data-name="패스 951" d="M1141.57,803.658V752.235l-15.524.712v56.138l6.167.719h0l5.743.657C1142.113,810.639,1141.57,803.658,1141.57,803.658Z" fill="#ddd" opacity="0.8"/>
                <path id="패스_952" data-name="패스 952" d="M980.7,742.341l142.1,10.606V808.72L984.263,793.132a4.028,4.028,0,0,1-3.561-4Z" fill="#fff" opacity="0.6"/>
                <path id="패스_953" data-name="패스 953" d="M1122.805,756.726v0Z" fill="none"/>
                <path id="패스_954" data-name="패스 954" d="M1122.805,752.947" fill="none"/>
                <path id="패스_955" data-name="패스 955" d="M1122.8,752.947V808.72l3.242.417V752.947Z" fill="#fff"/>
                <path id="패스_956" data-name="패스 956" d="M980.7,742.6l13.423-1.9.023,3.412L980.7,746.343V742.6" fill="#f1f1f1" opacity="0.8"/>
                <path id="패스_957" data-name="패스 957" d="M980.7,742.341l142.1,10.607v4.673L980.7,746.086Z" fill="#fff"/>
                <path id="패스_958" data-name="패스 958" d="M980.7,769.306l142.1,12.4v4.673L980.7,773.052Z" fill="#fff"/>
                <g id="그룹_520" data-name="그룹 520">
                    <path id="패스_959" data-name="패스 959" d="M1145.907,752.035l-19.861.912v4.673l19.862-1.208Z" fill="#f1f1f1" opacity="0.8"/>
                    <path id="패스_960" data-name="패스 960" d="M1145.881,779.926l-19.834,1.777v4.673l19.834-2.1Z" fill="#f1f1f1" opacity="0.8"/>
                </g>
                <path id="패스_961" data-name="패스 961" d="M1145.909,756.991l0-4.956-4.337.2v51.423s.548,6.895-3.535,6.8a7.173,7.173,0,0,0,5.084-1.068c2.6-2.016,2.8-5.809,2.8-9.086Z" fill="#a0a0a0" opacity="0.6"/>
                </g>
            </g>
            <g id="그룹_528" data-name="그룹 528" transform="translate(-67.179 -53.573)">
                <g id="그룹_525" data-name="그룹 525">
                <ellipse id="타원_104" data-name="타원 104" cx="5.292" cy="9.148" rx="5.292" ry="9.148" transform="translate(1193.261 434.298)" fill="#ddd"/>
                <path id="패스_962" data-name="패스 962" d="M1198.024,493.626l-208.933,2.883V342.326a27.255,27.255,0,0,1,24.046-27.3l150.1-17.106a31.392,31.392,0,0,1,34.785,31.386Z" fill="#f7c401"/>
                <path id="패스_963" data-name="패스 963" d="M1179.368,493.882l-190.277,2.627V352a4.952,4.952,0,0,1,4.338-5.027l185.939-18.653Z" fill="#f1f1f1"/>
                <g id="그룹_523" data-name="그룹 523">
                    <path id="패스_964" data-name="패스 964" d="M1179.368,328.345V493.882l.266,0a6.176,6.176,0,0,0,5.953-6.186V335.005A6.674,6.674,0,0,0,1179.368,328.345Z" fill="#bbb"/>
                </g>
                <path id="패스_965" data-name="패스 965" d="M1138.6,370.071l-121.718,8.87s-5.817.072-5.949,5.64.4,10.076-5.028,14.981-5.475,7.091-5.467,12.76l.071,46.043c0,1.763.222,3.9,1.777,4.654a4.511,4.511,0,0,0,2.083.287l104.944-2.163,23.611-.74s4.235.278,4.235-4.628V400.756s-.4-6.5,4.5-9.148,4.1-7.69,4.234-12.33S1145.607,369.561,1138.6,370.071Z" fill="#bbb"/>
                <path id="패스_966" data-name="패스 966" d="M1157.238,391.058q-.024-6.21-.057-12.419-.015-3.105-.034-6.209c-.008-1.4.208-3.083-.314-4.424-.861-2.214-3.719-3.908-5.851-4.582a19.887,19.887,0,0,0-6.025-.8c1.07.052,8.971.863,8.478,13.472-.529,13.523-4.9,14.451-4.9,14.451s-6.086,3.182-6.086,9.678V460.3s.93,6.021-4.1,7.84c4.814-.1,9.8-.232,14.147-2.3a8.1,8.1,0,0,0,4.157-3.779,10.534,10.534,0,0,0,.587-4.193q.031-8.569.046-17.138Q1157.332,415.9,1157.238,391.058Z" fill="#a0a0a0" opacity="0.9"/>
                <path id="패스_967" data-name="패스 967" d="M1144.957,362.624l-.206,0-26.7,1.865-103.5,7.581a14.05,14.05,0,0,0-2.27.3,4.742,4.742,0,0,0-1.747.783,5.811,5.811,0,0,0-1.923,3.4c-1.307,5.534,1.073,11.82-1.656,16.806-2.5,4.563-8.521,6.439-10.676,11.173-.992,2.181-1.006,4.663-1,7.059l.084,53.591c0,2.052.264,4.538,2.115,5.417a5.475,5.475,0,0,0,2.477.334l138.4-2.791c5.03-1.819,4.1-7.84,4.1-7.84V400.225c0-6.5,6.086-9.678,6.086-9.678s4.367-.928,4.9-14.451C1153.928,363.487,1146.027,362.676,1144.957,362.624Zm.936,16.654c-.132,4.64.662,9.678-4.234,12.33s-4.5,9.148-4.5,9.148v55.019c0,4.906-4.235,4.628-4.235,4.628l-23.611.74-104.944,2.163a4.511,4.511,0,0,1-2.083-.287c-1.555-.755-1.775-2.891-1.777-4.654l-.071-46.043c-.008-5.669.042-7.854,5.467-12.76s4.9-9.413,5.028-14.981,5.949-5.64,5.949-5.64l121.718-8.87C1145.607,369.561,1146.025,374.638,1145.893,379.278Z" fill="#fff"/>
                <ellipse id="타원_105" data-name="타원 105" cx="1.694" cy="1.424" rx="1.694" ry="1.424" transform="translate(1168.397 348.087) rotate(-79.999)" fill="#888"/>
                <ellipse id="타원_106" data-name="타원 106" cx="1.694" cy="1.424" rx="1.694" ry="1.424" transform="translate(1167.504 476.753) rotate(-79.999)" fill="#888"/>
                <ellipse id="타원_107" data-name="타원 107" cx="1.388" cy="1.167" rx="1.388" ry="1.167" transform="translate(1000.977 361.061) rotate(-79.999)" fill="#888"/>
                <ellipse id="타원_108" data-name="타원 108" cx="1.388" cy="1.167" rx="1.388" ry="1.167" transform="translate(999.955 479.563) rotate(-79.999)" fill="#888"/>
                <path id="패스_968" data-name="패스 968" d="M1189.688,493.741V324.192c0-19.091-7.459-22.265-7.459-22.266a31.556,31.556,0,0,1,15.8,27.379V493.626l-4.763.014Z" fill="#a0a0a0"/>
                <path id="패스_969" data-name="패스 969" d="M1199.314,493.64l-9.626.1v-5.186h9.626Z" fill="#bbb"/>
                <path id="패스_970" data-name="패스 970" d="M1189.688,493.741v-4.357l-200.6,4.665v2.461Z" fill="#444"/>
                <g id="그룹_524" data-name="그룹 524">
                    <path id="패스_971" data-name="패스 971" d="M1179.368,328.321,993.429,346.974a4.851,4.851,0,0,0-4.014,3.187l189.953-19.056Z" fill="#fff"/>
                </g>
                </g>
                <g id="그룹_527" data-name="그룹 527">
                <path id="패스_972" data-name="패스 972" d="M1123,429.923l14.158,1.259v24.593c0,4.906-4.064,4.628-4.064,4.628l-10.094.33Z" fill="#ddd" opacity="0.8"/>
                <rect id="사각형_561" data-name="사각형 561" width="1.455" height="30.81" transform="translate(1121.548 429.923)" fill="#fff"/>
                <path id="패스_973" data-name="패스 973" d="M1000.472,435.889l-19.87,1.16.1,2.486v23.776s23,.008,23.642-.005l24.565-.51.417,0v-.005l79.221-1.644,13-.41v-30.81Z" fill="#fff" opacity="0.6"/>
                <path id="패스_974" data-name="패스 974" d="M1121.548,446.1l-111.769,3.915h-.005l-9.334.327v.075l-19.838.853.1,2.386,19.738-.563v.033l32.632-.964h.022l88.454-2.614Z" fill="#fff"/>
                <path id="패스_975" data-name="패스 975" d="M1121.548,429.923l-121.075,5.966v.055L980.6,437.049l.1,2.486,45.509-1.934,95.337-3.966Z" fill="#fff"/>
                <path id="패스_976" data-name="패스 976" d="M1123,429.923v3.712l14.157,1.193v-3.646Z" fill="#f1f1f1" opacity="0.8"/>
                <path id="패스_977" data-name="패스 977" d="M1123,446.1l14.157,1.061V450.6L1123,449.544Z" fill="#f1f1f1" opacity="0.8"/>
                <g id="그룹_526" data-name="그룹 526" opacity="0.6">
                    <path id="패스_978" data-name="패스 978" d="M1134.117,430.911V460.3c1.2-.271,3.044-1.221,3.044-4.524V431.182Z" fill="#a0a0a0" opacity="0.8"/>
                </g>
                </g>
            </g>
            </g>
            <g id="그룹_439" data-name="그룹 439" transform="translate(-807.736 -3290.74)">
            <g transform="matrix(1, 0, 0, 1, 1476.74, 3544.88)" filter="url(#합치기_7)">
                <path id="합치기_7-2" data-name="합치기 7" d="M56.716,48H42.5a42.5,42.5,0,1,1,0-85h175a42.5,42.5,0,0,1,0,85H83.2l-37.02,18.31Z" transform="translate(621.76 145.62)" fill="#183e15" stroke="#ddd" stroke-width="1"/>
            </g>
            <text id="떠다니는_재료들을_클릭해_냉장고_안에_넣어줘_" data-name="떠다니는 재료들을 클릭해
            냉장고 안에 넣어줘!" transform="translate(2229 3690)" fill="#fff" font-size="18" font-family="NotoSansCJKkr-Bold, Noto Sans CJK KR" font-weight="700"><tspan x="-95.166" y="0">떠다니는 재료들을 클릭해</tspan><tspan x="-73.656" y="26">냉장고 안에 넣어줘!</tspan></text>
            </g>
            <g id="그룹_1145" data-name="그룹 1145" transform="matrix(0.921, -0.391, 0.391, 0.921, 338.616, 904.836)">
            <path id="패스_1434" data-name="패스 1434" d="M1129.292,99.98q-.309-1.5-.626-3c-.059-.281-.121-.561-.181-.842a6.433,6.433,0,0,0-6.557.053c-2.086,1.233-3.459,3.5-4.552,5.62a5.135,5.135,0,0,1,.157,2.024c-.133.883-.465,2.047.325,2.464a1.7,1.7,0,0,0,1.226-.019l5.91-1.6,2.956-.8c.516-.14,1.5-.189,1.835-.658a.6.6,0,0,0,.107-.265,5.066,5.066,0,0,0-.28-1.407Q1129.453,100.762,1129.292,99.98Z" transform="translate(-2.596 -7.491)" fill="#f9957f"/>
            <g id="그룹_1115" data-name="그룹 1115" transform="translate(1097.068 28.312)">
                <path id="패스_1435" data-name="패스 1435" d="M1125.3,84.007c-1.461-6.678-3-13.339-4.53-20a221.715,221.715,0,0,0-6.7-24.7,23.77,23.77,0,0,0-3.263-6.628,9.344,9.344,0,0,0-6.138-3.8,6.2,6.2,0,0,0-4.3,1.063c-2.759,2.005-3.011,5.992-2.651,9.383.809,7.634,3.375,14.956,5.921,22.2l11.2,31.844c.169.482.338.976.464,1.474,1.095-2.12,2.466-4.387,4.552-5.62a6.433,6.433,0,0,1,6.557-.053Q1125.867,86.584,1125.3,84.007Zm-17.846-42.443a12.273,12.273,0,0,1-1.372-1.916l-1.445-2.319s2.724.932,3.43,4.8A5.209,5.209,0,0,1,1107.459,41.564Z" transform="translate(-1097.593 -28.837)" fill="#888"/>
            </g>
            <g id="그룹_1116" data-name="그룹 1116" transform="translate(1100.242 29.481)">
                <path id="패스_1436" data-name="패스 1436" d="M1119.983,61.894l-1.754-6.576c-1.28-4.8-2.559-9.594-3.895-14.375a24.122,24.122,0,0,0-2.508-6.517c-1.617-2.573-4.57-4.813-7.764-4.174a3.52,3.52,0,0,0-2.855,2.388,3.37,3.37,0,0,0,.068,1.606,10.551,10.551,0,0,0,.459,1.316c.989,2.454,2.014,4.893,3.038,7.331q.642,1.529,1.287,3.056c1.538,3.634,3.111,7.255,4.841,10.8q1.242,2.547,2.6,5.035a9.087,9.087,0,0,0,3.152,3.709c1,.586,2.567,1.068,3.369-.086C1120.691,64.446,1120.256,62.918,1119.983,61.894ZM1107.831,41.7a12.281,12.281,0,0,1-1.372-1.916l-1.445-2.319s2.724.932,3.43,4.8A5.218,5.218,0,0,1,1107.831,41.7Z" transform="translate(-1101.138 -30.142)" fill="#ddd"/>
            </g>
            <g id="그룹_1117" data-name="그룹 1117" transform="translate(1102.176 30.828)">
                <path id="패스_1437" data-name="패스 1437" d="M1112.928,40.107a13.182,13.182,0,0,0-1.147-2.692,20.355,20.355,0,0,0-2.716-4.326,4.362,4.362,0,0,0-1.742-1.29,3.394,3.394,0,0,0-3.456.978q-.058.06-.113.124a1.772,1.772,0,0,0-.432.814,2.505,2.505,0,0,0,.548,1.707l1.371,2.2s2.719.931,3.427,4.784a3.643,3.643,0,0,0,1.358.7,2.585,2.585,0,0,0,1.9-.24,2.083,2.083,0,0,0,1.095-1.353A3.175,3.175,0,0,0,1112.928,40.107Z" transform="translate(-1103.299 -31.647)" fill="#888"/>
            </g>
            <ellipse id="타원_316" data-name="타원 316" cx="6.196" cy="2.582" rx="6.196" ry="2.582" transform="translate(1114.763 96.553) rotate(-14.963)" fill="#d8796f"/>
            <g id="그룹_1118" data-name="그룹 1118" transform="translate(1125.096 180.028)">
                <path id="패스_1438" data-name="패스 1438" d="M1159.244,220.227c16.757,0,30.34-9.8,30.34-21.9H1128.9C1128.9,210.424,1142.487,220.227,1159.244,220.227Z" transform="translate(-1128.904 -198.33)" fill="#bbb"/>
            </g>
            <path id="패스_1439" data-name="패스 1439" d="M1158.44,183.945c-1.139,0-2.257.013-3.363.031-.022,0-.039,0-.067,0a7.334,7.334,0,0,1-2.152-.389c-2.071-1.148-7.165-5.129-9.193-17.184-2.572-15.3-6.6-44.719-14.905-60.284a7.964,7.964,0,0,0-7.52,0s17.677,47.224,16.226,68.726a45,45,0,0,1-2.2,10.109,2.012,2.012,0,0,1-1.179.857l-.011,0c-3.753.768-5.978,1.719-5.978,2.751,0,2.55,13.583,4.617,30.34,4.617s30.34-2.067,30.34-4.617S1175.2,183.945,1158.44,183.945Z" transform="translate(-3.004 -8.534)" fill="#ddd"/>
            <path id="패스_1440" data-name="패스 1440" d="M1159.716,200.644c-15.464,0-23.509-1.658-25.607-2.165a.921.921,0,0,1,0-1.792c2.1-.508,10.139-2.165,25.607-2.165s23.509,1.658,25.607,2.165a.921.921,0,0,1,0,1.792C1183.226,198.986,1175.182,200.644,1159.716,200.644Z" transform="translate(-4.28 -17.902)" fill="#888"/>
            </g>
        </g>
    </g>
</svg>