<svg xmlns="http://www.w3.org/2000/svg" width="420.565" height="500.421" viewBox="0 0 420.565 500.421">
  <g id="그룹_1375" data-name="그룹 1375" transform="translate(-679 -244.143)">
    <g id="그룹_1014" data-name="그룹 1014" transform="translate(679 263.398)">
      <path id="사각형_549" data-name="사각형 549" d="M0,0H15.411a0,0,0,0,1,0,0V13.492a3.778,3.778,0,0,1-3.778,3.778H3.778A3.778,3.778,0,0,1,0,13.492V0A0,0,0,0,1,0,0Z" transform="translate(5.502 451.703)" fill="#222"/>
      <path id="패스_903" data-name="패스 903" d="M974.517,318.69H763.93a17.769,17.769,0,0,0-17.751,17.788v424.7a10.71,10.71,0,0,0,10.7,10.721H981.569a10.71,10.71,0,0,0,10.7-10.721v-424.7A17.769,17.769,0,0,0,974.517,318.69Z" transform="translate(-746.179 -318.671)" fill="#f7c401"/>
      <path id="패스_904" data-name="패스 904" d="M970.246,776.206H764.108a7.485,7.485,0,0,1-7.477-7.492V514.64H970.246Z" transform="translate(-747.026 -334.556)" fill="#fff"/>
      <path id="패스_905" data-name="패스 905" d="M764.154,771.925c0,5.436,4.736,9.844,10.578,9.844H970.856V677.908h-206.7Z" transform="translate(-747.636 -347.792)" fill="#a0a0a0"/>
      <path id="사각형_550" data-name="사각형 550" d="M3.778,0h7.855a3.778,3.778,0,0,1,3.778,3.778V17.269a0,0,0,0,1,0,0H0a0,0,0,0,1,0,0V3.778A3.778,3.778,0,0,1,3.778,0Z" transform="translate(240.587 468.972) rotate(-180)" fill="#222"/>
      <rect id="사각형_551" data-name="사각형 551" width="213.615" height="23.209" transform="translate(9.605 156.875)" fill="#f1f1f1"/>
      <path id="패스_906" data-name="패스 906" d="M961.687,346.666H764.023a7.4,7.4,0,0,0-7.392,7.406v4.753H970.246V354.2C970.246,350.112,965.769,346.666,961.687,346.666Z" transform="translate(-747.026 -320.939)" fill="#f1f1f1"/>
      <path id="패스_907" data-name="패스 907" d="M756.631,478.887H970.246V359.9H756.631ZM768.3,377.3a8.077,8.077,0,0,1,8.068-8.085H956.11a8.077,8.077,0,0,1,8.068,8.085V473.1H776.372a8.25,8.25,0,0,1-8.068-8.285Z" transform="translate(-747.026 -322.011)" fill="#fff"/>
      <path id="패스_908" data-name="패스 908" d="M777.4,473.921h6.926a8.071,8.071,0,0,1-8.064-8.079V382.549a8.4,8.4,0,0,1,8.39-8.406H958.825a6.39,6.39,0,0,1,6.383,6.4v-2.42a8.077,8.077,0,0,0-8.068-8.085H777.4a8.076,8.076,0,0,0-8.068,8.085v87.718A8.076,8.076,0,0,0,777.4,473.921Z" transform="translate(-748.056 -322.833)" fill="#ddd"/>
      <path id="패스_909" data-name="패스 909" d="M959.436,374.719H785.265a8.4,8.4,0,0,0-8.39,8.406v83.1a8.071,8.071,0,0,0,8.064,8.079h7.378V394.7a5.72,5.72,0,0,1,5.714-5.726h150.02a5.72,5.72,0,0,1,5.715,5.726v79.6h12.054V381.115A6.389,6.389,0,0,0,959.436,374.719Z" transform="translate(-748.667 -323.213)" fill="#a0a0a0"/>
      <path id="패스_910" data-name="패스 910" d="M949.413,390.235H799.393a5.72,5.72,0,0,0-5.714,5.726v79.6H955.128v-79.6A5.72,5.72,0,0,0,949.413,390.235Z" transform="translate(-750.03 -324.471)" fill="#bbb"/>
      <rect id="사각형_552" data-name="사각형 552" width="31.551" height="10.945" rx="5" transform="translate(195.449 161.87)" fill="#bbb"/>
      <ellipse id="타원_100" data-name="타원 100" cx="2.493" cy="2.498" rx="2.493" ry="2.498" transform="translate(200.13 164.845)" fill="#676767"/>
      <ellipse id="타원_101" data-name="타원 101" cx="2.493" cy="2.498" rx="2.493" ry="2.498" transform="translate(216.118 164.845)" fill="#676767"/>
      <path id="패스_911" data-name="패스 911" d="M978.964,525.644h-.439c5.216,0,9.709,4.056,9.709,9.045A9.255,9.255,0,0,0,978.964,525.644Z" transform="translate(-765.015 -335.448)" fill="none"/>
      <path id="패스_912" data-name="패스 912" d="M774.55,521.666a10.406,10.406,0,0,0-10.4,10.417V665.241h10.969a.187.187,0,0,1-.191-.183v-130.7a9.245,9.245,0,0,1,9.444-9.034h177.21a9.255,9.255,0,0,1,9.27,9.045v-12.7Z" transform="translate(-747.636 -335.126)" fill="#ddd"/>
      <path id="패스_913" data-name="패스 913" d="M962.063,525.644H785.293c-5.216,0-9.826,3.964-9.826,8.954V665.563h17.458V547.839c0-4.437,4.037-8.032,9.016-8.032H946.087c4.98,0,9.017,3.6,9.017,8.032V665.4a.173.173,0,0,1-.183.163h16.852V534.689C971.773,529.7,967.279,525.644,962.063,525.644Z" transform="translate(-748.553 -335.448)" fill="#a0a0a0"/>
      <path id="패스_914" data-name="패스 914" d="M947.627,541.056H803.481c-4.979,0-9.016,3.6-9.016,8.032V741.911c0,4.437,4.037,8.032,9.016,8.032H947.627c4.98,0,9.017-3.6,9.017-8.032V549.088C956.644,544.652,952.607,541.056,947.627,541.056Z" transform="translate(-750.093 -336.698)" fill="#bbb"/>
      <path id="패스_915" data-name="패스 915" d="M764.154,677.908v4.2h206.7v-4.2h-206.7Z" transform="translate(-747.636 -347.792)" fill="#f1f1f1"/>
      <path id="패스_916" data-name="패스 916" d="M764.154,682.482v3.775h206.7v-3.775h-206.7Z" transform="translate(-747.636 -348.163)" fill="#444"/>
      <rect id="사각형_553" data-name="사각형 553" width="196.298" height="4.203" transform="translate(26.913 262.837)" fill="#f1f1f1"/>
      <rect id="사각형_554" data-name="사각형 554" width="6.236" height="3.107" rx="1.549" transform="translate(23.795 260.461)" fill="#676767"/>
      <rect id="사각형_555" data-name="사각형 555" width="6.236" height="3.107" rx="1.549" transform="translate(23.795 266.309)" fill="#676767"/>
      <rect id="사각형_556" data-name="사각형 556" width="6.236" height="3.107" rx="1.549" transform="translate(23.795 328.562)" fill="#676767"/>
      <rect id="사각형_557" data-name="사각형 557" width="6.236" height="3.107" rx="1.549" transform="translate(220.102 260.461)" fill="#676767"/>
      <rect id="사각형_558" data-name="사각형 558" width="6.236" height="3.107" rx="1.549" transform="translate(220.102 266.309)" fill="#676767"/>
      <rect id="사각형_559" data-name="사각형 559" width="6.236" height="3.107" rx="1.549" transform="translate(220.102 328.562)" fill="#676767"/>
      <path id="패스_917" data-name="패스 917" d="M1030.32,495.89v7.4l-41.229.285v-7.147Z" transform="translate(-765.871 -333.036)" fill="#888"/>
      <g id="그룹_510" data-name="그룹 510" transform="translate(223.22 165.206)">
        <path id="패스_918" data-name="패스 918" d="M1012.56,498.449H989.091v3.112h23.469a1.556,1.556,0,0,0,0-3.112Z" transform="translate(-989.091 -498.449)" fill="#ddd"/>
      </g>
      <g id="그룹_513" data-name="그룹 513" transform="translate(215.419 107.859)" opacity="0.8">
        <path id="패스_924" data-name="패스 924" d="M998.9,456.555l-.031-20.512-18.264.924.106,24.133,20.959,0v-.017a2.951,2.951,0,0,1-1.137-.254C999.1,460.138,998.9,458.175,998.9,456.555Z" transform="translate(-980.602 -436.043)" fill="#888" opacity="0.9"/>
      </g>
      <g id="그룹_514" data-name="그룹 514" transform="translate(215.511 389.326)" opacity="0.8">
        <path id="패스_925" data-name="패스 925" d="M980.7,742.341v42.994a3.7,3.7,0,0,0,3.272,3.679l9.355,1.052q-.129-23.415-.26-46.8Z" transform="translate(-980.702 -742.341)" fill="#888" opacity="0.6"/>
      </g>
      <path id="패스_926" data-name="패스 926" d="M987.519,771.473V340.389A25.19,25.19,0,0,1,998.266,319.6a17.665,17.665,0,0,0-5.629-.928H981.176a37.446,37.446,0,0,0-6.788,21.72V771.875h13.131Z" transform="translate(-764.68 -318.669)" fill="#f7c401" opacity="0.4" style="mix-blend-mode: multiply;isolation: isolate"/>
      <g id="그룹_1015" data-name="그룹 1015" transform="translate(16.518 338.066)">
        <path id="패스_919" data-name="패스 919" d="M771.561,761.85V703.165h-2.656v63.626c0,5.366,5.308,9.715,11.854,9.715H971.241l0-2.453H786.5C774.935,774.052,771.487,770.183,771.561,761.85Z" transform="translate(-764.539 -687.905)" fill="#fff"/>
        <path id="패스_921" data-name="패스 921" d="M970.783,701.818H764.154V686.559H970.719Z" transform="translate(-764.154 -686.559)" fill="#fff" opacity="0.8"/>
      </g>
    </g>
    <g id="그룹_522" data-name="그룹 522" transform="translate(894.45 432.578)">
      <g id="그룹_516" data-name="그룹 516" transform="translate(7.77)">
        <ellipse id="타원_102" data-name="타원 102" cx="4.863" cy="8.406" rx="4.863" ry="8.406" transform="translate(187.618 40.143)" fill="#ddd"/>
        <path id="패스_927" data-name="패스 927" d="M1189.63,502.851v305.4a6.065,6.065,0,0,1-4.037,6.046l2.935.4a7.492,7.492,0,0,0,8.488-7.434V502.774Z" transform="translate(-1005.021 -502.774)" fill="#a0a0a0"/>
        <path id="패스_928" data-name="패스 928" d="M1173.7,808.256v-305.4L989.091,504.79V787.737a2.973,2.973,0,0,0,2.565,2.483L1169.663,814.3A6.065,6.065,0,0,0,1173.7,808.256Z" transform="translate(-989.091 -502.781)" fill="#f7c401"/>
        <g id="그룹_515" data-name="그룹 515" transform="translate(172.299 3.013)">
          <path id="패스_929" data-name="패스 929" d="M1178.714,506.053l-2.124.04V810.93a7.412,7.412,0,0,0,7.294-7.415v-292.3A5.157,5.157,0,0,0,1178.714,506.053Z" transform="translate(-1176.59 -506.053)" fill="#bbb"/>
        </g>
        <path id="패스_930" data-name="패스 930" d="M989.091,506.333l172.3-.236V810.945l-172.3-24.258Z" transform="translate(-989.091 -503.043)" fill="#f1f1f1"/>
        <ellipse id="타원_103" data-name="타원 103" cx="1.557" cy="1.309" rx="1.557" ry="1.309" transform="translate(165.101 20.5) rotate(-79.999)" fill="#888"/>
        <path id="패스_931" data-name="패스 931" d="M1165.4,776.547s-.183-234.827,0-241.039a6.471,6.471,0,0,0-.606-3.161l-11.652,8s-2.929,1.187-2.745,10.69,0,83.331,0,83.331V782.943s.443,6.307-3.806,5.838l10.4,1.168C1166.563,791.021,1165.4,776.547,1165.4,776.547Z" transform="translate(-1001.86 -505.171)" fill="#a0a0a0" opacity="0.9"/>
        <path id="패스_932" data-name="패스 932" d="M1161.963,529.656h-.055l.051,0Z" transform="translate(-1003.101 -504.953)" fill="none"/>
        <path id="패스_933" data-name="패스 933" d="M1161.439,529.644h-.069l-.108,0-.047,0-.017,0-.023,0h.675C1161.69,529.646,1161.545,529.642,1161.439,529.644Z" transform="translate(-1003.041 -504.952)" fill="none"/>
        <path id="패스_934" data-name="패스 934" d="M1013.41,529.656c-13.5.291-19.5,5.481-22.155,10.284q-.234.425-.435.843a17.019,17.019,0,0,0-1.149,3.159c-.123.484-.218.942-.289,1.364a13.321,13.321,0,0,0-.215,2.806V772.293l4.847.544c-.311-55.978-.621-111.8-.932-167.778-.037-6.512-.081-13.393.351-19.727.135-1.967.188-3.937,1.885-4.935,1.051-.617,3.191-.625,4.412-.594l.055,0,119.525,3.149a46.364,46.364,0,0,1,6.464.48c1.692.284,4.308.643,5.255,2.182,2.3,3.735,2.141,8.906,2.142,13.119q.019,89.833.039,179.665c0,3.011-.2,6.465-2.572,8.317a6.273,6.273,0,0,1-4.621.992l7.886.885c4.249.469,3.806-5.838,3.806-5.838V634.185s.183-73.829,0-83.331,2.745-10.69,2.745-10.69l11.652-8a4.368,4.368,0,0,0-.556-.866c-.029-.035-.061-.068-.092-.1a4.281,4.281,0,0,0-.345-.339c-.033-.028-.065-.058-.1-.085a4.471,4.471,0,0,0-.939-.589l-.112-.05c-.128-.056-.257-.107-.383-.152-.036-.012-.072-.026-.108-.037a5.866,5.866,0,0,0-.9-.216l-.1-.016q-.16-.022-.3-.036l-.091-.009c-.043,0-.077,0-.118-.006l-11.293,8.586s-1.824.731-2.006,6.213,0,29.239,0,29.239.912,5.3-5.289,5.3-133.136-2.924-133.136-2.924-3.156-.122-3.173-3.838l-.11-23.756s.03-18.275,22.162-18.822Z" transform="translate(-989.096 -504.953)" fill="#fff"/>
        <path id="패스_935" data-name="패스 935" d="M993.282,548.479l.11,23.756c.018,3.716,3.173,3.838,3.173,3.838S1123.5,579,1129.7,579s5.289-5.3,5.289-5.3-.183-23.757,0-29.239,2.006-6.213,2.006-6.213l11.293-8.586-.051,0H1015.444C993.312,530.2,993.282,548.479,993.282,548.479Z" transform="translate(-989.431 -504.953)" fill="#bbb"/>
        <path id="패스_936" data-name="패스 936" d="M1130.982,791.14c2.37-1.853,2.573-5.306,2.572-8.317q-.019-89.832-.039-179.665c0-4.212.159-9.383-2.142-13.119-.947-1.538-3.564-1.9-5.255-2.182a46.354,46.354,0,0,0-6.464-.48l-119.524-3.149-.055,0c-1.22-.031-3.361-.024-4.412.594-1.7,1-1.75,2.967-1.885,4.935-.432,6.333-.388,13.215-.351,19.727.311,55.979.621,111.813.932,167.791,40.677,4.607,83.565,9.4,129.222,14.539.319.036.636.075.95.116l1.83.2A6.272,6.272,0,0,0,1130.982,791.14Z" transform="translate(-989.441 -509.376)" fill="#bbb"/>
        <path id="패스_937" data-name="패스 937" d="M997.819,800.4l153.935,17.3a1.209,1.209,0,0,1,1.06,1.2v2.075a.924.924,0,0,1-1.046.917L997.688,802.946a.879.879,0,0,1-.762-.871v-.888A.8.8,0,0,1,997.819,800.4Z" transform="translate(-989.726 -526.901)" fill="#444"/>
        <path id="패스_938" data-name="패스 938" d="M1198.556,507.533h-8.587v-4.672l8.587-.087Z" transform="translate(-1005.376 -502.774)" fill="#bbb"/>
        <path id="패스_939" data-name="패스 939" d="M989.091,504.141v1.93l184.594-.276v-2.926Z" transform="translate(-989.091 -502.782)" fill="#444"/>
      </g>
      <g id="그룹_519" data-name="그룹 519" transform="translate(0 46.234)">
        <path id="패스_940" data-name="패스 940" d="M1145.425,575.659s-.042-5.465-.066-11.757l-.014-9.5-22.474-.152v26.484c6.843.141,16.208.226,17.265.226C1146.337,580.959,1145.425,575.659,1145.425,575.659Z" transform="translate(-992.167 -553.181)" fill="#ddd" opacity="0.8"/>
        <rect id="사각형_560" data-name="사각형 560" width="2.555" height="26.373" transform="translate(128.15 1.003)" fill="#fff"/>
        <path id="패스_941" data-name="패스 941" d="M992.186,553.087H980.7l.061,2.375-.121,22.112,14.712.355c.074.008.121.011.121.011l7.249.166h.039c21.3.489,80.386,1.876,108.583,2.461V554.147Z" transform="translate(-980.636 -553.087)" fill="#fff" opacity="0.6"/>
        <path id="패스_942" data-name="패스 942" d="M1126.576,583.068l1.39.029v-.03l-1.39-.029Z" transform="translate(-992.467 -555.515)" fill="#f1f1f1" opacity="0.8"/>
        <g id="그룹_517" data-name="그룹 517" transform="translate(0.06 0)">
          <path id="패스_943" data-name="패스 943" d="M995.975,553.12l-.075-.033H980.7l.061,2.376h17l113.586,1.308v-2.623Z" transform="translate(-980.702 -553.087)" fill="#fff"/>
          <path id="패스_944" data-name="패스 944" d="M1002.587,564.988l-21.886-.235v3.555l130.644,2.885V567.52Z" transform="translate(-980.702 -554.033)" fill="#fff"/>
        </g>
        <g id="그룹_518" data-name="그룹 518" transform="translate(130.704 1.066)">
          <path id="패스_945" data-name="패스 945" d="M1145.454,557.078l0-2.679-22.579-.152v2.633Z" transform="translate(-1122.871 -554.248)" fill="#f1f1f1" opacity="0.8"/>
          <path id="패스_946" data-name="패스 946" d="M1122.871,571.471l22.583.352v-3.655l-22.583-.37Z" transform="translate(-1122.871 -555.346)" fill="#f1f1f1" opacity="0.8"/>
        </g>
        <path id="패스_947" data-name="패스 947" d="M1147.2,575.672s-.042-5.465-.066-11.757l-.014-9.5-1.3-.011h-1.049v26.05a4.574,4.574,0,0,0,1.051-.652A4.772,4.772,0,0,0,1147.2,575.672Z" transform="translate(-993.942 -553.194)" fill="#a0a0a0" opacity="0.6"/>
      </g>
      <g id="그룹_521" data-name="그룹 521" transform="translate(0.06 218.631)">
        <path id="패스_948" data-name="패스 948" d="M989.221,793.735l-.13-.015Z" transform="translate(-981.382 -744.992)" fill="none"/>
        <path id="패스_949" data-name="패스 949" d="M990.4,793.867l-.8-.091Z" transform="translate(-981.422 -744.996)" fill="none"/>
        <path id="패스_950" data-name="패스 950" d="M989.563,793.773l-.331-.037Z" transform="translate(-981.393 -744.993)" fill="none"/>
        <path id="패스_951" data-name="패스 951" d="M1140.312,799.489V752.235l-14.266.654v51.587l5.667.661h0l5.277.6C1140.81,805.9,1140.312,799.489,1140.312,799.489Z" transform="translate(-992.484 -741.629)" fill="#ddd" opacity="0.8"/>
        <path id="패스_952" data-name="패스 952" d="M980.7,742.341l130.583,9.746v51.252L983.974,789.014a3.7,3.7,0,0,1-3.272-3.679Z" transform="translate(-980.702 -740.827)" fill="#fff" opacity="0.6"/>
        <path id="패스_953" data-name="패스 953" d="M1122.805,756.42v0Z" transform="translate(-992.222 -741.686)" fill="none"/>
        <path id="패스_954" data-name="패스 954" d="M1122.805,752.947" transform="translate(-992.222 -741.686)" fill="none"/>
        <path id="패스_955" data-name="패스 955" d="M1122.8,752.947V804.2l2.979.383V752.947Z" transform="translate(-992.222 -741.687)" fill="#fff"/>
        <path id="패스_956" data-name="패스 956" d="M980.7,742.443l12.335-1.75.021,3.136L980.7,745.885v-3.442" transform="translate(-980.702 -740.693)" fill="#f1f1f1" opacity="0.8"/>
        <path id="패스_957" data-name="패스 957" d="M980.7,742.341l130.583,9.747v4.294L980.7,745.783Z" transform="translate(-980.702 -740.827)" fill="#fff"/>
        <path id="패스_958" data-name="패스 958" d="M980.7,769.306,1111.285,780.7v4.294L980.7,772.748Z" transform="translate(-980.702 -743.013)" fill="#fff"/>
        <g id="그룹_520" data-name="그룹 520" transform="translate(133.562 10.423)">
          <path id="패스_959" data-name="패스 959" d="M1144.3,752.035l-18.251.838v4.294l18.252-1.11Z" transform="translate(-1126.046 -752.035)" fill="#f1f1f1" opacity="0.8"/>
          <path id="패스_960" data-name="패스 960" d="M1144.273,779.926l-18.227,1.633v4.294l18.227-1.931Z" transform="translate(-1126.046 -754.296)" fill="#f1f1f1" opacity="0.8"/>
        </g>
        <path id="패스_961" data-name="패스 961" d="M1145.271,756.589l0-4.554-3.985.184v47.254s.5,6.336-3.248,6.253a6.591,6.591,0,0,0,4.672-.982c2.388-1.852,2.573-5.338,2.572-8.349Z" transform="translate(-993.456 -741.612)" fill="#a0a0a0" opacity="0.6"/>
      </g>
    </g>
    <g id="그룹_528" data-name="그룹 528" transform="translate(894.419 244.143)">
      <g id="그룹_525" data-name="그룹 525" transform="translate(7.801)">
        <ellipse id="타원_104" data-name="타원 104" cx="4.863" cy="8.406" rx="4.863" ry="8.406" transform="translate(187.618 125.509)" fill="#ddd"/>
        <path id="패스_962" data-name="패스 962" d="M1181.086,477.744l-192,2.649V338.71a25.046,25.046,0,0,1,22.1-25.088L1149.121,297.9a28.847,28.847,0,0,1,31.965,28.842Z" transform="translate(-989.091 -297.716)" fill="#f7c401"/>
        <path id="패스_963" data-name="패스 963" d="M1163.943,480.46l-174.852,2.414V350.081a4.55,4.55,0,0,1,3.986-4.62l170.865-17.141Z" transform="translate(-989.091 -300.197)" fill="#f1f1f1"/>
        <g id="그룹_523" data-name="그룹 523" transform="translate(174.852 28.146)">
          <path id="패스_964" data-name="패스 964" d="M1179.368,328.345V480.462l.244,0a5.675,5.675,0,0,0,5.47-5.685V334.465A6.133,6.133,0,0,0,1179.368,328.345Z" transform="translate(-1179.368 -328.345)" fill="#bbb"/>
        </g>
        <path id="패스_965" data-name="패스 965" d="M1127.4,370.068l-111.851,8.151s-5.345.066-5.467,5.183.365,9.259-4.62,13.767-5.031,6.516-5.024,11.726l.065,42.31c0,1.62.2,3.583,1.633,4.277a4.146,4.146,0,0,0,1.914.264l96.436-1.988,21.7-.68s3.892.255,3.892-4.253V398.266s-.365-5.97,4.133-8.406,3.769-7.067,3.891-11.33S1133.839,369.6,1127.4,370.068Z" transform="translate(-990.011 -303.579)" fill="#bbb"/>
        <path id="패스_966" data-name="패스 966" d="M1155.707,388.753q-.022-5.707-.052-11.412-.014-2.853-.031-5.706a11.742,11.742,0,0,0-.289-4.065c-.791-2.035-3.418-3.591-5.377-4.211a18.276,18.276,0,0,0-5.537-.735c.983.048,8.244.793,7.791,12.38-.486,12.427-4.5,13.28-4.5,13.28s-5.593,2.924-5.593,8.893v55.207s.855,5.533-3.768,7.2c4.424-.089,9-.213,13-2.111a7.447,7.447,0,0,0,3.82-3.473,9.681,9.681,0,0,0,.539-3.853q.029-7.875.042-15.749Q1155.793,411.578,1155.707,388.753Z" transform="translate(-1001.191 -302.978)" fill="#a0a0a0" opacity="0.9"/>
        <path id="패스_967" data-name="패스 967" d="M1132.823,362.624l-.189,0L1108.1,364.34l-95.106,6.966a12.907,12.907,0,0,0-2.086.275,4.357,4.357,0,0,0-1.605.719,5.34,5.34,0,0,0-1.767,3.123c-1.2,5.085.986,10.862-1.522,15.444-2.295,4.193-7.83,5.917-9.81,10.267a15.511,15.511,0,0,0-.922,6.487q.039,24.624.077,49.247c0,1.886.243,4.17,1.944,4.978a5.031,5.031,0,0,0,2.276.307l127.176-2.565c4.622-1.672,3.768-7.2,3.768-7.2V397.177c0-5.969,5.593-8.893,5.593-8.893s4.013-.853,4.5-13.28C1141.067,363.417,1133.806,362.672,1132.823,362.624Zm.86,15.3c-.121,4.264.609,8.893-3.891,11.33s-4.133,8.406-4.133,8.406v50.559c0,4.508-3.892,4.253-3.892,4.253l-21.7.68-96.437,1.988a4.146,4.146,0,0,1-1.914-.264c-1.429-.694-1.631-2.657-1.633-4.277l-.065-42.31c-.007-5.209.039-7.217,5.024-11.726s4.5-8.65,4.62-13.767,5.467-5.183,5.467-5.183l111.851-8.151C1133.421,369,1133.8,373.664,1133.683,377.928Z" transform="translate(-989.593 -302.978)" fill="#fff"/>
        <ellipse id="타원_105" data-name="타원 105" cx="1.557" cy="1.309" rx="1.557" ry="1.309" transform="translate(164.77 46.288) rotate(-79.999)" fill="#888"/>
        <ellipse id="타원_106" data-name="타원 106" cx="1.557" cy="1.309" rx="1.557" ry="1.309" transform="translate(163.949 164.523) rotate(-79.999)" fill="#888"/>
        <ellipse id="타원_107" data-name="타원 107" cx="1.276" cy="1.072" rx="1.276" ry="1.072" transform="translate(10.923 58.21) rotate(-79.999)" fill="#888"/>
        <ellipse id="타원_108" data-name="타원 108" cx="1.276" cy="1.072" rx="1.276" ry="1.072" transform="translate(9.983 167.105) rotate(-79.999)" fill="#888"/>
        <path id="패스_968" data-name="패스 968" d="M1189.083,478.191v-155.8c0-17.543-6.854-20.46-6.854-20.461a29,29,0,0,1,14.515,25.159v151l-4.377.013Z" transform="translate(-1004.748 -298.057)" fill="#a0a0a0"/>
        <path id="패스_969" data-name="패스 969" d="M1198.534,493.227l-8.845.093v-4.765h8.845Z" transform="translate(-1005.353 -313.187)" fill="#bbb"/>
        <path id="패스_970" data-name="패스 970" d="M1173.426,493.387v-4L989.091,493.67v2.261Z" transform="translate(-989.091 -313.254)" fill="#444"/>
        <g id="그룹_524" data-name="그룹 524" transform="translate(0.298 28.124)">
          <path id="패스_971" data-name="패스 971" d="M1163.969,328.321,993.1,345.462a4.457,4.457,0,0,0-3.689,2.929l174.554-17.511Z" transform="translate(-989.415 -328.321)" fill="#fff"/>
        </g>
      </g>
      <g id="그룹_527" data-name="그룹 527" transform="translate(0 121.489)">
        <path id="패스_972" data-name="패스 972" d="M1123,429.923l13.01,1.157v22.6c0,4.508-3.735,4.253-3.735,4.253l-9.276.3Z" transform="translate(-992.146 -429.923)" fill="#ddd" opacity="0.8"/>
        <rect id="사각형_561" data-name="사각형 561" width="1.337" height="28.312" transform="translate(129.52)" fill="#fff"/>
        <path id="패스_973" data-name="패스 973" d="M998.861,435.405,980.6,436.471l.092,2.284V460.6s21.135.007,21.725,0l22.574-.469.383,0v0l72.8-1.511,11.947-.377V429.923Z" transform="translate(-980.602 -429.923)" fill="#fff" opacity="0.6"/>
        <path id="패스_974" data-name="패스 974" d="M1110.121,446.1l-102.708,3.6h0l-8.577.3v.069l-18.229.784.091,2.193,18.138-.518v.03l29.987-.886h.02l81.283-2.4Z" transform="translate(-980.602 -431.234)" fill="#fff"/>
        <path id="패스_975" data-name="패스 975" d="M1110.121,429.923l-111.26,5.483v.05L980.6,436.471l.091,2.284,41.819-1.777,87.608-3.644Z" transform="translate(-980.602 -429.923)" fill="#fff"/>
        <path id="패스_976" data-name="패스 976" d="M1123,429.923v3.411l13.01,1.1v-3.35Z" transform="translate(-992.146 -429.923)" fill="#f1f1f1" opacity="0.8"/>
        <path id="패스_977" data-name="패스 977" d="M1123,446.1l13.01.975v3.168l-13.01-.975Z" transform="translate(-992.146 -431.234)" fill="#f1f1f1" opacity="0.8"/>
        <g id="그룹_526" data-name="그룹 526" transform="translate(141.07 0.908)" opacity="0.6">
          <path id="패스_978" data-name="패스 978" d="M1134.117,430.911v27.006c1.107-.249,2.8-1.122,2.8-4.157v-22.6Z" transform="translate(-1134.117 -430.911)" fill="#a0a0a0" opacity="0.8"/>
        </g>
      </g>
    </g>
  </g>
</svg>
