<svg id="그룹_217" data-name="그룹 217" xmlns="http://www.w3.org/2000/svg" width="75.787" height="138.995" viewBox="0 0 75.787 138.995">
    <path id="패스_67" data-name="패스 67" d="M775.3,676.015a11.264,11.264,0,0,1-10.757-14.585l20.115-65.285,1.893-51.072,22.065.82-.446,12.019,12.946-20.89,18.715,11.751L806.19,602.788l-20.111,65.276A11.365,11.365,0,0,1,775.3,676.015Z" transform="translate(-764.039 -537.02)" fill="#444"/>
        <g id="그룹_216" data-name="그룹 216" transform="translate(3.076 6.514)">
            <rect id="사각형_219" data-name="사각형 219" width="13.11" height="66.586" rx="5.174" transform="translate(19.605 61.913) rotate(17.124)" fill="#fff"/>
            <path id="패스_68" data-name="패스 68" d="M797.454,598.07l1.868-50.37-12.643-.469-1.742,46.982h0l-4.4,14.291,12.529,3.86,3.692-11.984.7-2.263.014-.044Z" transform="translate(-762.711 -540.807)" fill="#c6e59c"/>
        <g id="그룹_215" data-name="그룹 215" transform="translate(34.744)">
            <path id="패스_69" data-name="패스 69" d="M793.9,599.427l0,.015,31.477-50.549-10.722-6.732-19.825,31.992-.937,25.27Z" transform="translate(-793.889 -542.161)" fill="#97bc5c"/>
        </g>
    </g>
</svg>
