<svg xmlns="http://www.w3.org/2000/svg" width="272.366" height="331.996" viewBox="0 0 272.366 331.996">
  <g id="그룹_975" data-name="그룹 975" transform="translate(-1213.703 -3018.88)">
    <g id="그룹_974" data-name="그룹 974" transform="translate(1213.703 3018.88)">
      <path id="패스_1276" data-name="패스 1276" d="M497.018,317.867h0a25.044,25.044,0,0,0-26.584-16.343,25.389,25.389,0,0,0-2.725-6.815h0a25.1,25.1,0,0,0-43.476,0h0a25.389,25.389,0,0,0-2.726,6.815,25.043,25.043,0,0,0-26.583,16.343h0a25.1,25.1,0,0,0,27.945,33.3h0a24.943,24.943,0,0,0,20.08-18.989,26.016,26.016,0,0,0,3.021.178h0a25.982,25.982,0,0,0,3.021-.178,24.944,24.944,0,0,0,20.081,18.989h0A25.1,25.1,0,0,0,497.018,317.867Z" transform="translate(-309.787 -282.157)" fill="#15700e"/>
      <g id="그룹_955" data-name="그룹 955" transform="translate(0.001 37.694)">
        <ellipse id="타원_281" data-name="타원 281" cx="136.183" cy="141.686" rx="136.183" ry="141.686" fill="#b2db31"/>
      </g>
      <path id="패스_1277" data-name="패스 1277" d="M400.754,441.232h94.827a15.242,15.242,0,0,1,15.21,16.47c-1.714,20.754-12.344,53.746-62.624,53.746s-60.909-32.992-62.623-53.746A15.241,15.241,0,0,1,400.754,441.232Z" transform="translate(-311.985 -237.804)" fill="#15700e"/>
      <g id="그룹_958" data-name="그룹 958" transform="translate(60.364 67.177)">
        <circle id="타원_282" data-name="타원 282" cx="24.223" cy="24.223" r="24.223" transform="translate(80.842)" fill="#fff"/>
        <circle id="타원_283" data-name="타원 283" cx="10.093" cy="10.093" r="10.093" transform="translate(88.493 16.929)" fill="#1d1d1b"/>
        <circle id="타원_284" data-name="타원 284" cx="24.223" cy="24.223" r="24.223" transform="translate(22.35)" fill="#fff"/>
        <circle id="타원_285" data-name="타원 285" cx="10.093" cy="10.093" r="10.093" transform="translate(41.071 17.599)" fill="#1d1d1b"/>
        <ellipse id="타원_286" data-name="타원 286" cx="13.315" cy="8.138" rx="13.315" ry="8.138" transform="translate(62.504 32.171)" fill="#15700e"/>
        <g id="그룹_956" data-name="그룹 956" transform="translate(41.94 60.314)">
          <path id="패스_1278" data-name="패스 1278" d="M417.7,381.851c-4.481,0-7.3,2.072-9.691,4.677l5.88,10.729a5,5,0,0,0,9.133-.258L427.8,386.98C425.319,384.167,422.44,381.851,417.7,381.851Z" transform="translate(-408.011 -381.851)" fill="#f8f6f7"/>
          <path id="패스_1279" data-name="패스 1279" d="M455.611,381.851c-4.734,0-7.613,2.313-10.091,5.124L450.3,397a5,5,0,0,0,9.133.258l5.876-10.726C462.916,383.925,460.1,381.851,455.611,381.851Z" transform="translate(-397.553 -381.851)" fill="#f8f6f7"/>
        </g>
        <g id="그룹_957" data-name="그룹 957" transform="translate(0 57.049)">
          <path id="패스_1280" data-name="패스 1280" d="M499.4,400.9c-7.613,0-11.509-4.856-14.64-8.756s-5.283-6.314-9.548-6.314-6.4,2.4-9.545,6.314-7.026,8.756-14.639,8.756-11.508-4.856-14.637-8.756-5.283-6.314-9.546-6.314-6.4,2.4-9.545,6.314-7.026,8.756-14.639,8.756-11.507-4.856-14.637-8.756-5.282-6.314-9.545-6.314a3.265,3.265,0,1,1,0-6.53c7.612,0,11.508,4.856,14.639,8.756s5.281,6.314,9.544,6.314,6.4-2.4,9.545-6.314,7.026-8.756,14.639-8.756,11.508,4.856,14.639,8.756,5.283,6.314,9.545,6.314,6.406-2.4,9.546-6.314,7.026-8.756,14.637-8.756,11.509,4.856,14.64,8.756,5.283,6.314,9.548,6.314,6.406-2.4,9.546-6.314,7.027-8.756,14.64-8.756a3.265,3.265,0,0,1,0,6.53c-4.264,0-6.406,2.4-9.546,6.314S507.014,400.9,499.4,400.9Z" transform="translate(-375.215 -379.298)" fill="#444"/>
        </g>
      </g>
      <g id="그룹_959" data-name="그룹 959" transform="translate(39.683 149.031)">
        <path id="패스_1281" data-name="패스 1281" d="M468.152,506.675,359.043,495.737l6.492-97.042,114.46,11.474Z" transform="translate(-359.043 -398.695)" fill="#fff"/>
        <path id="패스_1282" data-name="패스 1282" d="M477.943,416.115l-114.158-11.03.427-6.39,114.46,11.474Z" transform="translate(-357.72 -398.695)" fill="#ddd"/>
        <path id="패스_1283" data-name="패스 1283" d="M463.378,427.7l-92.344-9.111.054-2.262,92.607,9.283Z" transform="translate(-355.699 -393.779)" fill="#ddd"/>
        <path id="패스_1284" data-name="패스 1284" d="M462.406,444.084l-92.344-9.111.054-2.262,92.607,9.283Z" transform="translate(-355.97 -389.211)" fill="#ddd"/>
        <path id="패스_1285" data-name="패스 1285" d="M461.433,452.668l-92.344-9.111.054-2.262,92.607,9.283Z" transform="translate(-356.241 -386.818)" fill="#ddd"/>
        <path id="패스_1286" data-name="패스 1286" d="M460.461,461.251l-92.344-9.111.054-2.262,92.607,9.283Z" transform="translate(-356.512 -384.424)" fill="#ddd"/>
        <path id="패스_1287" data-name="패스 1287" d="M459.489,469.835l-92.344-9.111.054-2.262,92.607,9.283Z" transform="translate(-356.783 -382.031)" fill="#ddd"/>
      </g>
      <g id="그룹_960" data-name="그룹 960" transform="translate(91.256 193.605)">
        <path id="패스_1288" data-name="패스 1288" d="M399.482,436.253l1.57,81.352L475.8,515.76l-.483-81.4Z" transform="translate(-399.34 -433.324)" fill="#ddd"/>
        <path id="패스_1289" data-name="패스 1289" d="M399.513,436.479l-.142,7.549,75.875-2.94-.041-7.538Z" transform="translate(-399.371 -433.55)" fill="#b2b2b2"/>
        <path id="패스_1290" data-name="패스 1290" d="M405.825,452.254l.047,2.426,60.15-2.927-.014-2.423Z" transform="translate(-397.572 -429.151)" fill="#fff"/>
        <path id="패스_1291" data-name="패스 1291" d="M405.825,460.921l.047,2.426,60.15-2.927L466.008,458Z" transform="translate(-397.572 -426.734)" fill="#fff"/>
        <path id="패스_1292" data-name="패스 1292" d="M405.825,469.587l.047,2.426,60.15-2.927-.014-2.423Z" transform="translate(-397.572 -424.318)" fill="#fff"/>
        <path id="패스_1293" data-name="패스 1293" d="M405.825,478.254l.047,2.426,60.15-2.927-.014-2.423Z" transform="translate(-397.572 -421.901)" fill="#fff"/>
        <path id="패스_1294" data-name="패스 1294" d="M405.825,486.921l.047,2.426,60.15-2.927L466.008,484Z" transform="translate(-397.572 -419.485)" fill="#fff"/>
      </g>
      <g id="그룹_961" data-name="그룹 961" transform="translate(134.11 155.177)">
        <path id="패스_1295" data-name="패스 1295" d="M535.951,474.871,451.7,495.684l-18.819-70.349L521.263,403.5Z" transform="translate(-432.882 -403.501)" fill="#f1f1f1"/>
        <path id="패스_1296" data-name="패스 1296" d="M457.974,489.726l-6.273,1.55-18.819-70.349,6.523-1.611Z" transform="translate(-432.882 -399.092)" fill="#444"/>
        <path id="패스_1297" data-name="패스 1297" d="M463.007,477.284l-1.766.467-13.684-51.479,1.837-.485Z" transform="translate(-428.79 -397.288)" fill="#b2b2b2"/>
        <path id="패스_1298" data-name="패스 1298" d="M470.074,475.581l-1.766.467-13.684-51.479,1.837-.485Z" transform="translate(-426.82 -397.763)" fill="#b2b2b2"/>
        <path id="패스_1299" data-name="패스 1299" d="M477.14,473.877l-1.766.467L461.69,422.865l1.837-.485Z" transform="translate(-424.85 -398.238)" fill="#b2b2b2"/>
        <path id="패스_1300" data-name="패스 1300" d="M484.206,472.173l-1.766.467-13.684-51.479,1.837-.485Z" transform="translate(-422.879 -398.713)" fill="#b2b2b2"/>
        <path id="패스_1301" data-name="패스 1301" d="M491.273,470.47l-1.766.467-13.684-51.479,1.837-.485Z" transform="translate(-420.909 -399.188)" fill="#b2b2b2"/>
        <path id="패스_1302" data-name="패스 1302" d="M498.339,468.766l-1.766.467-13.684-51.479,1.837-.485Z" transform="translate(-418.939 -399.663)" fill="#b2b2b2"/>
      </g>
      <g id="그룹_963" data-name="그룹 963" transform="translate(10.809 237.601)">
        <path id="패스_1303" data-name="패스 1303" d="M410.538,559.193a13.426,13.426,0,0,0,2.935-3.358c21.691-27.963-14.419-67.743-14.419-67.743-34.418-35.348-56.9-13.407-56.9-13.407-11.329,9.168-5.2,35.518,13.681,58.854S399.209,568.361,410.538,559.193Z" transform="translate(-336.464 -467.954)" fill="#15700e"/>
        <g id="그룹_962" data-name="그룹 962" transform="translate(0.008)">
          <path id="패스_1304" data-name="패스 1304" d="M420.28,531.994c-1.766-22.464-21.227-43.9-21.227-43.9-34.418-35.348-56.9-13.407-56.9-13.407-6.2,5.016-7.16,15.177-3.68,27.17C379.992,556.271,417.832,533.55,420.28,531.994Z" transform="translate(-336.47 -467.954)" fill="#15700e"/>
          <path id="패스_1305" data-name="패스 1305" d="M410.1,551.8a13.426,13.426,0,0,0,2.935-3.358,33.414,33.414,0,0,0,6.808-23.841c-2.448,1.556-40.288,24.277-81.811-30.139,2.882,9.93,8.807,21.113,17.361,31.684C374.279,549.483,398.772,560.969,410.1,551.8Z" transform="translate(-336.034 -460.563)" fill="#1b5915"/>
        </g>
      </g>
      <g id="그룹_965" data-name="그룹 965" transform="translate(177.612 237.601)">
        <path id="패스_1306" data-name="패스 1306" d="M476.771,559.193a13.4,13.4,0,0,1-2.935-3.358c-21.693-27.963,14.417-67.743,14.417-67.743,34.418-35.348,56.9-13.407,56.9-13.407,11.329,9.168,5.2,35.518-13.681,58.854S488.1,568.361,476.771,559.193Z" transform="translate(-466.899 -467.954)" fill="#15700e"/>
        <g id="그룹_964" data-name="그룹 964">
          <path id="패스_1307" data-name="패스 1307" d="M467,531.994c1.767-22.464,21.227-43.9,21.227-43.9,34.418-35.348,56.9-13.407,56.9-13.407,6.2,5.016,7.161,15.177,3.681,27.17C507.287,556.271,469.448,533.55,467,531.994Z" transform="translate(-466.871 -467.954)" fill="#15700e"/>
          <path id="패스_1308" data-name="패스 1308" d="M476.771,551.8a13.4,13.4,0,0,1-2.935-3.358,33.415,33.415,0,0,1-6.81-23.841c2.449,1.556,40.288,24.277,81.811-30.139-2.881,9.93-8.807,21.113-17.361,31.684C512.593,549.483,488.1,560.969,476.771,551.8Z" transform="translate(-466.899 -460.563)" fill="#1b5915"/>
        </g>
      </g>
      <g id="그룹_969" data-name="그룹 969" transform="translate(0 155.159)">
        <g id="그룹_966" data-name="그룹 966" transform="translate(0 2.487)">
          <path id="패스_1309" data-name="패스 1309" d="M419.179,444.16l-15-34.1-2.036-4.627L350.72,428.094h0a25.6,25.6,0,0,1-2.839,1.252c-4.542,1.72-13.573,3.955-19.869-2.18a147.433,147.433,0,0,0,3.258,30.864q.978,4.577,2.229,9.044l.95.981,14.007,3.211.019,0,6.051,1.387,64.882-27.974Z" transform="translate(-328.012 -405.432)" fill="#b2db31"/>
        </g>
        <path id="패스_1310" data-name="패스 1310" d="M401.959,439.717,363.245,456.75c-18.191,8-31.868-4.778-32.114-5.008q1.485,6.238,3.486,12.25a22.123,22.123,0,0,0,4.353,3.347c8.41,4.927,18.561,3.207,25.8.783a53.965,53.965,0,0,0,9.408-4.14L406.4,449.807Z" transform="translate(-327.142 -393.386)" fill="#9dbc1b"/>
        <g id="그룹_968" data-name="그룹 968" transform="translate(51.883)">
          <path id="패스_1311" data-name="패스 1311" d="M416.385,422.825a32.365,32.365,0,0,1-16.159,42.463,8.872,8.872,0,0,1-11.677-3.906,8.648,8.648,0,0,1,.751-8.889,1.063,1.063,0,0,0-1.015-1.646,15.068,15.068,0,0,1-11.544-26.24,1.063,1.063,0,0,0-.527-1.861,8.65,8.65,0,0,1-7.062-5.453,8.871,8.871,0,0,1,5.012-11.246A32.363,32.363,0,0,1,416.385,422.825Z" transform="translate(-368.583 -403.487)" fill="#15700e"/>
          <g id="그룹_967" data-name="그룹 967" transform="translate(19.075 25.602)">
            <path id="패스_1312" data-name="패스 1312" d="M384.747,445.385a1.038,1.038,0,0,1,.394,1.527,8.646,8.646,0,0,0-.751,8.889,8.872,8.872,0,0,0,11.677,3.906,32.374,32.374,0,0,0,18.187-36.2C405.13,438.4,384.747,445.385,384.747,445.385Z" transform="translate(-383.499 -423.507)" fill="#1b5915"/>
          </g>
        </g>
      </g>
      <g id="그룹_973" data-name="그룹 973" transform="translate(169.933 155.159)">
        <g id="그룹_970" data-name="그룹 970" transform="translate(11.035 2.487)">
          <path id="패스_1313" data-name="패스 1313" d="M469.754,444.16l15-34.1,2.036-4.627,51.42,22.662h0a25.511,25.511,0,0,0,2.838,1.252c4.542,1.72,13.575,3.955,19.869-2.18a147.431,147.431,0,0,1-3.258,30.864q-.978,4.577-2.228,9.044l-.951.981-14.006,3.211-.019,0-6.053,1.387-64.882-27.974Z" transform="translate(-469.524 -405.432)" fill="#b2db31"/>
        </g>
        <path id="패스_1314" data-name="패스 1314" d="M483.458,439.717l38.714,17.033c18.191,8,31.87-4.778,32.114-5.008q-1.483,6.238-3.486,12.25a22.115,22.115,0,0,1-4.352,3.347c-8.411,4.927-18.562,3.207-25.8.783a53.954,53.954,0,0,1-9.41-4.14l-32.217-14.174Z" transform="translate(-455.841 -393.386)" fill="#9dbc1b"/>
        <g id="그룹_972" data-name="그룹 972">
          <path id="패스_1315" data-name="패스 1315" d="M463.643,422.825A32.364,32.364,0,0,0,479.8,465.289a8.872,8.872,0,0,0,11.677-3.906,8.646,8.646,0,0,0-.751-8.889,1.063,1.063,0,0,1,1.015-1.646,15.068,15.068,0,0,0,11.544-26.24,1.063,1.063,0,0,1,.528-1.861,8.648,8.648,0,0,0,7.06-5.453,8.87,8.87,0,0,0-5.012-11.246A32.362,32.362,0,0,0,463.643,422.825Z" transform="translate(-460.895 -403.487)" fill="#15700e"/>
          <g id="그룹_971" data-name="그룹 971" transform="translate(0.001 25.602)">
            <path id="패스_1316" data-name="패스 1316" d="M491.122,445.385a1.038,1.038,0,0,0-.4,1.527,8.646,8.646,0,0,1,.751,8.889,8.872,8.872,0,0,1-11.677,3.906,32.374,32.374,0,0,1-18.187-36.2C470.739,438.4,491.121,445.385,491.122,445.385Z" transform="translate(-460.896 -423.507)" fill="#1b5915"/>
          </g>
        </g>
      </g>
    </g>
  </g>
</svg>
