<svg xmlns="http://www.w3.org/2000/svg" width="427.902" height="299.157" viewBox="0 0 427.902 299.157">
  <g id="그룹_473" data-name="그룹 473" transform="translate(-1027.351 -91.9)">
    <path id="패스_695" data-name="패스 695" d="M1359.9,120h0a19.706,19.706,0,0,0-20.918-12.86,19.979,19.979,0,0,0-2.144-5.363h0a19.752,19.752,0,0,0-34.211,0h0a20,20,0,0,0-2.145,5.363A19.7,19.7,0,0,0,1279.567,120h0a19.751,19.751,0,0,0,21.99,26.206h0a19.628,19.628,0,0,0,15.8-14.942,20.564,20.564,0,0,0,2.377.14h0a20.565,20.565,0,0,0,2.377-.14,19.628,19.628,0,0,0,15.8,14.942h0A19.751,19.751,0,0,0,1359.9,120Z" transform="translate(-67.112 0)" fill="#15700e"/>
    <path id="패스_696" data-name="패스 696" d="M1195.794,242.555h0a33.9,33.9,0,0,0-8.588-4.25l-11.2-36.531-50.219,82.32h0l-33.939,49.435a34.3,34.3,0,0,0,8.838,47.556h0a34.3,34.3,0,0,0,47.557-8.838l56.39-82.135A34.3,34.3,0,0,0,1195.794,242.555Z" transform="translate(-15.649 -29.379)" fill="#b2db31"/>
    <g id="그룹_448" data-name="그룹 448" transform="translate(1122.746 184.324)">
      <path id="패스_697" data-name="패스 697" d="M1163.982,257.26c-.278,1.472-.525,2.971-.716,4.518a74.382,74.382,0,0,0-.568,9.129q0,5.907-.08,11.518-.053,3.468-.152,6.8h0s2.61,32.973-4.9,61.038a34.3,34.3,0,0,0,19.513-30.354c0-1.054.007-2.111.012-3.161.054-14.1.118-27.8.193-39.32.114-17.5.252-29.947.418-31.071.019-.133.043-.266.063-.4a62.611,62.611,0,0,1,3.226-12.567,129.158,129.158,0,0,1,6.909-15.332Z" transform="translate(-1157.563 -218.056)" fill="#9dbc1b"/>
      <path id="패스_698" data-name="패스 698" d="M1164.033,319.872h0c.065-1.53.118-3.094.164-4.675" transform="translate(-1159.293 -244.03)" fill="#9dbc1b"/>
      <path id="패스_699" data-name="패스 699" d="M1164,320.165h0c.054-1.27.1-2.566.138-3.872-.015.371-.08,1.859-.22,4.168Z" transform="translate(-1159.263 -244.323)" fill="#9dbc1b"/>
      <path id="패스_700" data-name="패스 700" d="M1164.225,316.16h0l0,.1Z" transform="translate(-1159.343 -244.287)" fill="#9dbc1b"/>
    </g>
    <g id="그룹_454" data-name="그룹 454" transform="translate(1064.161 307.926)">
      <g id="그룹_453" data-name="그룹 453">
        <g id="그룹_450" data-name="그룹 450">
          <g id="그룹_449" data-name="그룹 449">
            <path id="패스_701" data-name="패스 701" d="M1079.364,393.616a16.039,16.039,0,0,0-1.179,3.7,34.783,34.783,0,0,0-.571,5.185,36.4,36.4,0,0,0,4.237,17.932,48.341,48.341,0,0,0,6.491,9.457h0a21.7,21.7,0,0,0,1.813,1.977,35.149,35.149,0,0,0,10.471,7.086,21.591,21.591,0,0,0,2.508.948h0a48.331,48.331,0,0,0,11.192,2.509,36.408,36.408,0,0,0,18.221-2.733,34.965,34.965,0,0,0,4.6-2.457,16.067,16.067,0,0,0,3-2.472,58.026,58.026,0,0,0,3.537-4.724h0c1.391-2.055.581-5.032-1.808-6.649l-26.3-17.8-26.3-17.8c-2.39-1.617-5.454-1.262-6.845.793h0A58.141,58.141,0,0,0,1079.364,393.616Z" transform="translate(-1077.595 -386.769)" fill="#15700e"/>
          </g>
        </g>
        <g id="그룹_452" data-name="그룹 452" transform="translate(15.343 1.835)">
          <g id="그룹_451" data-name="그룹 451">
            <path id="패스_702" data-name="패스 702" d="M1141,421.275a10.476,10.476,0,0,0,.77-2.42,22.733,22.733,0,0,0,.373-3.387,23.782,23.782,0,0,0-2.768-11.715,31.572,31.572,0,0,0-4.24-6.178h0a14.1,14.1,0,0,0-1.184-1.291,22.968,22.968,0,0,0-6.841-4.629,14.167,14.167,0,0,0-1.639-.62h0a31.6,31.6,0,0,0-7.312-1.64,23.782,23.782,0,0,0-11.9,1.786,22.73,22.73,0,0,0-3.005,1.605,10.471,10.471,0,0,0-1.96,1.615,37.875,37.875,0,0,0-2.311,3.086h0a3.2,3.2,0,0,0,1.182,4.344l17.181,11.627,17.181,11.627a3.2,3.2,0,0,0,4.471-.519h0A37.714,37.714,0,0,0,1141,421.275Z" transform="translate(-1098.539 -389.274)" fill="#15700e"/>
          </g>
        </g>
      </g>
    </g>
    <path id="패스_703" data-name="패스 703" d="M1445.667,343.688l-43.96-71.723h0l-8.1-13.221c-.514-.839-1.067-1.64-1.64-2.419l-42.31-67.916v.005a117.353,117.353,0,0,0-37.062-37.379,130.574,130.574,0,0,0-21.806-11.015c-3.314-1.31-6.685-2.511-10.118-3.57v0a57.323,57.323,0,0,0-7.8-2.158,90.631,90.631,0,0,0-37.808,0,57.322,57.322,0,0,0-7.8,2.158v0c-3.433,1.059-6.8,2.26-10.118,3.57a130.543,130.543,0,0,0-21.807,11.015,117.315,117.315,0,0,0-40.545,43.38,128.932,128.932,0,0,0-7.276,16.041,62.808,62.808,0,0,0-3.289,12.966c-.274,1.864-.475,34.864-.611,70.391,0,1.05-.008,2.107-.012,3.161a34.322,34.322,0,0,1-29.41,33.355h-47.63a34.3,34.3,0,0,0-34.2,34.2h0a34.3,34.3,0,0,0,34.2,34.2h99.629a33.913,33.913,0,0,0,17.495-4.851c2.048,1.675,4.156,3.3,6.339,4.851h96.174a75.927,75.927,0,0,0,66.692-39.341l.248-.458a128.828,128.828,0,0,0,7.276-16.041q.9-2.4,1.575-4.831l25.356,41.369a34.3,34.3,0,0,0,47.036,11.287h0A34.3,34.3,0,0,0,1445.667,343.688Z" transform="translate(-1.338 -10.801)" fill="#b2db31"/>
    <path id="패스_704" data-name="패스 704" d="M1359.028,150.312a18.852,18.852,0,0,0-17.472,25.931c.369.134.723.281,1.06.441,2.438,1.158,4.014,2.964,4.014,5a4.027,4.027,0,0,1-.278,1.435,18.851,18.851,0,1,0,12.676-32.805Zm3.909,4.619a7.855,7.855,0,1,1-7.854,7.854A7.854,7.854,0,0,1,1362.936,154.931Z" transform="translate(-83.644 -15.618)" fill="#fff"/>
    <circle id="타원_83" data-name="타원 83" cx="7.855" cy="7.855" r="7.855" transform="matrix(0.973, -0.23, 0.23, 0.973, 1269.843, 141.327)" fill="#1d1d1b"/>
    <path id="패스_705" data-name="패스 705" d="M1296.893,150.312a18.851,18.851,0,1,0,12.676,32.805,4.016,4.016,0,0,1-.278-1.435c0-2.034,1.575-3.84,4.014-5q.506-.241,1.06-.441a18.852,18.852,0,0,0-17.472-25.931Zm3.909,4.619a7.855,7.855,0,1,1-7.855,7.854A7.854,7.854,0,0,1,1300.8,154.931Z" transform="translate(-67.031 -15.618)" fill="#fff"/>
    <circle id="타원_84" data-name="타원 84" cx="7.855" cy="7.855" r="7.855" transform="translate(1222.663 147.167) rotate(-45)" fill="#1d1d1b"/>
    <path id="패스_706" data-name="패스 706" d="M1343.119,186.148c-.337-.16-.692-.307-1.06-.441.037.091.07.183.109.273Z" transform="translate(-84.148 -25.082)" fill="#31802b"/>
    <path id="패스_707" data-name="패스 707" d="M1337.407,185.822l-.952-.168c-.038-.09-.072-.182-.109-.273a16.08,16.08,0,0,0-10.577,0c-.037.091-.071.183-.109.273l-.951.168c-2.439,1.158-4.014,2.964-4.014,5a4.014,4.014,0,0,0,.278,1.435c1.065,2.805,5.171,4.9,10.084,4.9s9.02-2.092,10.085-4.9a4.03,4.03,0,0,0,.278-1.435C1341.421,188.786,1339.845,186.98,1337.407,185.822Z" transform="translate(-78.435 -24.756)" fill="#31802b"/>
    <path id="패스_708" data-name="패스 708" d="M1327.126,185.98c.038-.09.072-.182.109-.273q-.554.2-1.06.441Z" transform="translate(-79.9 -25.082)" fill="#31802b"/>
    <path id="패스_709" data-name="패스 709" d="M1306.868,217.851c-2.755,0-4.372,1.291-6.241,3.471l3.276,5.977a3.887,3.887,0,0,0,7.107-.2l2.517-5.281C1311.473,219.337,1309.826,217.851,1306.868,217.851Z" transform="translate(-73.069 -33.677)" fill="#f8f6f7"/>
    <path id="패스_710" data-name="패스 710" d="M1358.1,217.851c-2.956,0-4.6,1.485-6.655,3.962l2.519,5.285a3.887,3.887,0,0,0,7.108.2l3.273-5.973C1362.473,219.143,1360.855,217.851,1358.1,217.851Z" transform="translate(-86.657 -33.677)" fill="#f8f6f7"/>
    <path id="패스_711" data-name="패스 711" d="M1369.77,210.915c-5.925,0-8.957,3.778-11.394,6.814s-4.111,4.913-7.43,4.913-4.985-1.867-7.429-4.913-5.469-6.814-11.394-6.814-8.956,3.778-11.392,6.814-4.111,4.913-7.428,4.913-4.985-1.867-7.429-4.913-5.468-6.814-11.392-6.814-8.956,3.778-11.392,6.814-4.11,4.913-7.428,4.913-4.984-1.867-7.428-4.913-5.468-6.814-11.392-6.814a2.541,2.541,0,0,0,0,5.081c3.318,0,4.984,1.867,7.428,4.913s5.468,6.814,11.392,6.814,8.956-3.778,11.392-6.814c.414-.516.805-1,1.187-1.442,1.869-2.18,3.486-3.471,6.241-3.471,2.958,0,4.6,1.486,6.659,3.966.25.3.5.616.77.947,2.437,3.036,5.468,6.814,11.393,6.814s8.956-3.778,11.392-6.814c.266-.332.522-.648.774-.951,2.052-2.477,3.7-3.962,6.654-3.962,2.758,0,4.375,1.292,6.245,3.475.381.445.771.923,1.185,1.438,2.437,3.036,5.469,6.814,11.393,6.814s8.957-3.778,11.394-6.814,4.111-4.913,7.43-4.913a2.541,2.541,0,1,0,0-5.081Z" transform="translate(-60.682 -31.823)" fill="#444"/>
    <g id="그룹_460" data-name="그룹 460" transform="translate(1027.351 317.097)">
      <g id="그룹_459" data-name="그룹 459">
        <g id="그룹_456" data-name="그룹 456">
          <g id="그룹_455" data-name="그룹 455">
            <path id="패스_712" data-name="패스 712" d="M1053.313,399.609a16.036,16.036,0,0,0-3.721,1.125,34.656,34.656,0,0,0-4.6,2.464,36.393,36.393,0,0,0-12.385,13.642,48.3,48.3,0,0,0-4.123,10.7h0a21.681,21.681,0,0,0-.6,2.613,35.112,35.112,0,0,0,.085,12.643,21.682,21.682,0,0,0,.637,2.605h0a48.353,48.353,0,0,0,4.266,10.647,36.4,36.4,0,0,0,12.567,13.474,34.787,34.787,0,0,0,4.63,2.4A16.064,16.064,0,0,0,1053.8,473a58.179,58.179,0,0,0,5.9.242h0c2.481-.017,4.477-2.369,4.458-5.254l-.213-31.755-.212-31.755c-.019-2.886-2.047-5.211-4.528-5.194h0A58.108,58.108,0,0,0,1053.313,399.609Z" transform="translate(-1027.351 -399.287)" fill="#15700e"/>
          </g>
        </g>
        <g id="그룹_458" data-name="그룹 458" transform="translate(28.344 13.692)">
          <g id="그룹_457" data-name="그룹 457">
            <path id="패스_713" data-name="패스 713" d="M1073.125,466.081a10.448,10.448,0,0,0,2.432-.735,22.661,22.661,0,0,0,3-1.61,23.777,23.777,0,0,0,8.091-8.912,31.561,31.561,0,0,0,2.693-6.993h0a14.03,14.03,0,0,0,.394-1.707,22.938,22.938,0,0,0-.055-8.259,14.109,14.109,0,0,0-.417-1.7h0a31.6,31.6,0,0,0-2.788-6.955,23.783,23.783,0,0,0-8.209-8.8,22.821,22.821,0,0,0-3.025-1.569,10.49,10.49,0,0,0-2.44-.7,37.938,37.938,0,0,0-3.852-.159h0a3.2,3.2,0,0,0-2.912,3.433l.139,20.745.139,20.745a3.2,3.2,0,0,0,2.958,3.393h0A37.905,37.905,0,0,0,1073.125,466.081Z" transform="translate(-1066.04 -417.975)" fill="#15700e"/>
          </g>
        </g>
      </g>
    </g>
    <g id="그룹_466" data-name="그룹 466" transform="translate(1387.577 336.448)">
      <g id="그룹_465" data-name="그룹 465" transform="translate(0)">
        <g id="그룹_462" data-name="그룹 462" transform="translate(0 0.016)">
          <g id="그룹_461" data-name="그룹 461">
            <path id="패스_714" data-name="패스 714" d="M1523,471.6a16.044,16.044,0,0,0,2.9,2.585,34.789,34.789,0,0,0,4.5,2.632,36.4,36.4,0,0,0,18.1,3.43,48.324,48.324,0,0,0,11.281-2.078h0a21.692,21.692,0,0,0,2.543-.851,35.139,35.139,0,0,0,10.735-6.679,21.7,21.7,0,0,0,1.887-1.9h0a48.312,48.312,0,0,0,6.849-9.2,36.4,36.4,0,0,0,4.922-17.756,34.784,34.784,0,0,0-.371-5.2,16.027,16.027,0,0,0-1.036-3.747,58.115,58.115,0,0,0-2.874-5.154h0c-1.311-2.107-4.36-2.579-6.81-1.055l-26.963,16.776-26.963,16.775c-2.45,1.525-3.373,4.468-2.062,6.575h0A58.019,58.019,0,0,0,1523,471.6Z" transform="translate(-1519.049 -425.722)" fill="#15700e"/>
          </g>
        </g>
        <g id="그룹_464" data-name="그룹 464" transform="translate(9.786)">
          <g id="그룹_463" data-name="그룹 463">
            <path id="패스_715" data-name="패스 715" d="M1574.036,431.395a10.52,10.52,0,0,0-1.9-1.689,22.7,22.7,0,0,0-2.941-1.719,23.779,23.779,0,0,0-11.826-2.242A31.573,31.573,0,0,0,1550,427.1h0a14.16,14.16,0,0,0-1.661.556,22.949,22.949,0,0,0-7.013,4.363,14.154,14.154,0,0,0-1.233,1.244h0a31.578,31.578,0,0,0-4.474,6.011,23.782,23.782,0,0,0-3.215,11.6,22.726,22.726,0,0,0,.243,3.4,10.5,10.5,0,0,0,.676,2.448,37.957,37.957,0,0,0,1.878,3.367h0a3.2,3.2,0,0,0,4.448.689l17.614-10.959,17.614-10.959a3.2,3.2,0,0,0,1.347-4.3h0A38.253,38.253,0,0,0,1574.036,431.395Z" transform="translate(-1532.406 -425.7)" fill="#15700e"/>
          </g>
        </g>
      </g>
    </g>
    <rect id="사각형_533" data-name="사각형 533" width="156.492" height="125.637" rx="62.819" transform="translate(1166.826 233.947)" fill="#15700e"/>
    <path id="패스_716" data-name="패스 716" d="M1342.414,150.312a18.852,18.852,0,0,0-17.472,25.931,16.08,16.08,0,0,0-10.577,0,18.852,18.852,0,1,0-4.8,6.874c1.065,2.805,5.171,4.9,10.084,4.9s9.02-2.092,10.085-4.9a18.851,18.851,0,1,0,12.676-32.805Z" transform="translate(-67.031 -15.618)" fill="none"/>
    <path id="패스_717" data-name="패스 717" d="M1296.893,188.015a18.781,18.781,0,0,0,12.676-4.9c1.065,2.805,5.171,4.9,10.084,4.9s9.02-2.092,10.085-4.9a18.847,18.847,0,1,0-4.8-6.874,16.08,16.08,0,0,0-10.577,0,18.847,18.847,0,1,0-17.472,11.772Z" transform="translate(-67.031 -15.618)" fill="none"/>
    <path id="패스_718" data-name="패스 718" d="M1428.855,392.071h0l.011,0Z" transform="translate(-107.355 -80.26)" fill="#95ba22"/>
    <path id="패스_719" data-name="패스 719" d="M1404.449,400.134c-14,0,6.71,29.2,6.71,29.2l22.477,20.885-12.605-58.141C1421.023,392.095,1418.431,400.134,1404.449,400.134Z" transform="translate(-99.53 -80.261)" fill="#a5d34c"/>
    <path id="패스_720" data-name="패스 720" d="M1351.547,428.741s-20.711-29.2-6.71-29.2c13.982,0,16.574-8.039,16.581-8.061a68.6,68.6,0,0,0-14.858-1.613H1228.6c-35.79,0-51.956,22.076-51.956,49.058h0c0,11.343,6.563,21.586,16.965,28.68h131.165a76.306,76.306,0,0,0,49.248-17.984Z" transform="translate(-39.919 -79.673)" fill="#9dbc1b"/>
    <path id="패스_721" data-name="패스 721" d="M1361.149,403.076H1237.757a34.3,34.3,0,0,0-34.2,34.2h0a34.324,34.324,0,0,0,20.884,31.487s6.645,2.373,11.359,2.373h96.174a76.014,76.014,0,0,0,63.381-33.87A34.3,34.3,0,0,0,1361.149,403.076Z" transform="translate(-47.113 -83.203)" fill="#b2db31"/>
    <g id="그룹_472" data-name="그룹 472" transform="translate(1150.111 317.097)">
      <g id="그룹_471" data-name="그룹 471">
        <g id="그룹_468" data-name="그룹 468">
          <g id="그룹_467" data-name="그룹 467">
            <path id="패스_722" data-name="패스 722" d="M1220.877,399.609a16.034,16.034,0,0,0-3.722,1.125,34.694,34.694,0,0,0-4.6,2.464,36.4,36.4,0,0,0-12.385,13.642,48.339,48.339,0,0,0-4.123,10.7h0a21.693,21.693,0,0,0-.6,2.613,35.16,35.16,0,0,0,.085,12.643,21.621,21.621,0,0,0,.638,2.605h0a48.335,48.335,0,0,0,4.266,10.647A36.4,36.4,0,0,0,1213,469.526a34.792,34.792,0,0,0,4.63,2.4,16.058,16.058,0,0,0,3.736,1.076,58.2,58.2,0,0,0,5.9.242h0c2.481-.017,4.477-2.369,4.458-5.254l-.213-31.755-.212-31.755c-.02-2.886-2.047-5.211-4.528-5.194h0A58.109,58.109,0,0,0,1220.877,399.609Z" transform="translate(-1194.915 -399.287)" fill="#15700e"/>
          </g>
        </g>
        <g id="그룹_470" data-name="그룹 470" transform="translate(28.344 13.692)">
          <g id="그룹_469" data-name="그룹 469">
            <path id="패스_723" data-name="패스 723" d="M1240.689,466.081a10.439,10.439,0,0,0,2.431-.735,22.616,22.616,0,0,0,3-1.61,23.782,23.782,0,0,0,8.09-8.912,31.574,31.574,0,0,0,2.694-6.993h0a14.012,14.012,0,0,0,.394-1.707,22.96,22.96,0,0,0-.056-8.259,14.138,14.138,0,0,0-.417-1.7h0a31.58,31.58,0,0,0-2.787-6.955,23.782,23.782,0,0,0-8.21-8.8,22.777,22.777,0,0,0-3.024-1.569,10.5,10.5,0,0,0-2.441-.7,37.925,37.925,0,0,0-3.851-.159h0a3.2,3.2,0,0,0-2.912,3.433l.138,20.745.139,20.745a3.2,3.2,0,0,0,2.958,3.393h0A37.917,37.917,0,0,0,1240.689,466.081Z" transform="translate(-1233.604 -417.975)" fill="#15700e"/>
          </g>
        </g>
      </g>
    </g>
  </g>
</svg>
