<svg xmlns="http://www.w3.org/2000/svg" xmlns:xlink="http://www.w3.org/1999/xlink" viewBox="0 0 1317.34 838.45"><defs><style>.cls-1{fill:none;}.cls-2{fill:#15700e;}.cls-3{fill:#b2db31;}.cls-4{fill:#fff;}.cls-5{fill:#1d1d1b;}.cls-6{fill:#444;}.cls-7{clip-path:url(#clip-path);}.cls-8{fill:#e55e48;}.cls-9{fill:#f8f6f7;}.cls-10{fill:#f98c41;}.cls-11{fill:#f2cd33;}</style><clipPath id="clip-path"><path class="cls-1" d="M658.82,432.28C528.94,435.8,395.31,502,395.24,572.69s133.4,138.9,263.27,142.79C788.39,711.87,922,644,922.1,573.26S788.69,436.08,658.82,432.28Z"/></clipPath></defs><title>monster_fire</title><g id="Layer_2" data-name="Layer 2"><g id="Layer_1-2" data-name="Layer 1"><path class="cls-2" d="M860.39,141.11h0c-16.86-46.3-62-69.58-105-64.58a100.55,100.55,0,0,0-10.77-26.94h0c-38.18-66.12-133.62-66.12-171.8,0h0A100.22,100.22,0,0,0,562,76.53c-43.08-5-88.2,18.28-105,64.58h0C430.83,212.86,492.18,286,567.38,272.72h0c42-7.41,70.74-38.69,79.35-75a103.93,103.93,0,0,0,11.94.7h0a104.06,104.06,0,0,0,11.94-.7c8.61,36.35,37.33,67.63,79.35,75h0C825.15,286,886.5,212.86,860.39,141.11Z"/><path class="cls-3" d="M1215.89,596.79A319.27,319.27,0,0,0,1199.18,531a654.3,654.3,0,0,0-36.94-81.45A595.52,595.52,0,0,0,956.37,229.25C906.92,198,852.07,173,794.27,155.19v0s-14.4-5.54-39.61-10.95a460.3,460.3,0,0,0-192,0c-25.21,5.41-39.61,10.95-39.61,10.95v0C465.27,173,410.42,198,361,229.25A595.52,595.52,0,0,0,155.1,449.51,654.37,654.37,0,0,0,118.15,531a319.24,319.24,0,0,0-16.7,65.83c-3,20.6-4.28,83.21-4.28,104.07v79.33h1123V700.86C1220.17,680,1218.92,617.39,1215.89,596.79Z"/><circle class="cls-4" cx="774.24" cy="296.83" r="95.72"/><circle class="cls-4" cx="543.1" cy="296.83" r="95.72"/><ellipse class="cls-2" cx="658.67" cy="360.39" rx="52.62" ry="32.16"/><path class="cls-2" d="M312.23,787.26a89.71,89.71,0,0,0-4.66-18.37,183,183,0,0,0-10.32-22.73,166.17,166.17,0,0,0-57.45-61.48A189.12,189.12,0,0,0,194.56,664h0A81.2,81.2,0,0,0,183.5,661a128.22,128.22,0,0,0-53.58,0,81.28,81.28,0,0,0-11,3.06h0a189.19,189.19,0,0,0-45.25,20.67,166.17,166.17,0,0,0-57.45,61.48A181.49,181.49,0,0,0,5.86,768.89,88.43,88.43,0,0,0,1.2,787.26C.35,793,0,810.48,0,816.31H0a22.14,22.14,0,0,0,22.14,22.14H291.28a22.14,22.14,0,0,0,22.14-22.14h0C313.42,810.48,313.07,793,312.23,787.26Z"/><path class="cls-2" d="M1316.14,787.26a89.06,89.06,0,0,0-4.66-18.37,181.49,181.49,0,0,0-10.31-22.73,166.28,166.28,0,0,0-57.46-61.48A189.12,189.12,0,0,0,1198.47,664h0a81.2,81.2,0,0,0-11.06-3.06,128.17,128.17,0,0,0-53.57,0,81.2,81.2,0,0,0-11.06,3.06h0a189.12,189.12,0,0,0-45.24,20.67,166.28,166.28,0,0,0-57.46,61.48,181.49,181.49,0,0,0-10.31,22.73,89.06,89.06,0,0,0-4.66,18.37c-.85,5.75-1.2,23.22-1.2,29h0a22.15,22.15,0,0,0,22.14,22.14H1295.2a22.15,22.15,0,0,0,22.14-22.14h0C1317.34,810.48,1317,793,1316.14,787.26Z"/><path class="cls-5" d="M729.87,324.73a47.09,47.09,0,0,0,66.39,15.92,47.06,47.06,0,0,0,8.06-72.42,22.88,22.88,0,0,0-30.08-2L736.1,295A23,23,0,0,0,729.87,324.73Z"/><path class="cls-5" d="M587.05,324.73a48.56,48.56,0,0,1-4.59,6.57,47.1,47.1,0,1,1-69.86-63.07,22.88,22.88,0,0,1,30.08-2L580.82,295A23,23,0,0,1,587.05,324.73Z"/><path class="cls-6" d="M659.39,412.9l-.55,0-.54,0C525,416.5,375.94,485.59,375.84,572.67c-.09,88,148.85,158.2,282.09,162.2h1.12c133.25-3.7,282.35-73.59,282.44-161.59C941.59,486.21,792.63,416.79,659.39,412.9Z"/><g class="cls-7"><path class="cls-8" d="M658.62,613.93c-75.41,3.66-138.87,44.76-164.33,101.55l164.22.18,164.22.18C797.4,659,734,617.75,658.62,613.93Z"/><path class="cls-9" d="M538.41,505.08c-2.95,15.86-20.57,21.1-31.71,9.43L456.78,462.2c-5.26-5.52-3.52-14.89,3.14-16.87l39.94-11.87,39.94-11.87c6.66-2,13.24,4.91,11.85,12.41Z"/><path class="cls-9" d="M779.07,505.34c2.92,15.87,20.53,21.15,31.69,9.5l50-52.2c5.28-5.51,3.56-14.88-3.1-16.87l-39.91-12-39.91-12c-6.66-2-13.26,4.88-11.88,12.38Z"/><path class="cls-9" d="M538.41,505.08c-2.95,15.86-20.57,21.1-31.71,9.43L456.78,462.2c-5.26-5.52-3.52-14.89,3.14-16.87l39.94-11.87,39.94-11.87c6.66-2,13.24,4.91,11.85,12.41Z"/><path class="cls-9" d="M779.07,505.34c2.92,15.87,20.53,21.15,31.69,9.5l50-52.2c5.28-5.51,3.56-14.88-3.1-16.87l-39.91-12-39.91-12c-6.66-2-13.26,4.88-11.88,12.38Z"/></g><path class="cls-8" d="M1245.14,396.94a51.37,51.37,0,0,0-9.65-10.44c5.73-25.27,4.81-53.67-2.82-83.37-6.19-24.12-27-39.88-50.47-38.32a47.24,47.24,0,0,0-35.13,19.57c2.27-3.14-10.06-14.4-12.27-16.38-27.53-24.65-70.54-7.46-78.49,27a68.45,68.45,0,0,1-2.36,8.07,47.36,47.36,0,0,0-35.64-13c-23.34,1.54-37.46,20.85-48.16,39.5-12.27,21.39-22.67,43.67-45.34,56.14-10.82,5.95-20.25,3.52-24.15-7.88-4.28-12.51-16.41-21.77-29.91-18.26s-23.39,16.26-28.32,28.8c-22.15,56.36-30.06,124.32-3,180.44,13.88,28.8,42.51,40.32,72.43,45.42,69.71,11.88,142,6.09,210-12.7,36.8-10.18,86.51-25.75,106.13-61.66,7.6-13.89,7.71-29.85,1.7-44.37l-.36-.87c-3.09-7.21,6.86-16.31,10.4-22.65a178.33,178.33,0,0,0,11.73-25.8A54,54,0,0,0,1245.14,396.94Z"/><path class="cls-10" d="M1183.73,457.18c4.34-11.75-1-26.53-12.7-32a7.34,7.34,0,0,1-3.89-8.95c6.47-20.18,6.52-43.91-.15-69.64-3-11.68-13.19-19.3-24.72-18.54a24.06,24.06,0,0,0-17.87,10.65c-4.56,6.64-4.29,15-9.35,21.39a7.32,7.32,0,0,1-12.44-1.57,142,142,0,0,1-6.74-19.72c-3.14-11.47-13.25-18.95-24.58-18.2-10.41.69-19.06,8.29-21.55,18.92-1.77,7.59-9.12,32.15-20.21,31-11.65-1.26-11.3-21.87-29.28-20.68a23.39,23.39,0,0,0-17.44,9.85,154.31,154.31,0,0,0-12.37,20.67c-4.12,8.2-6.68,16.19-12.18,23.67a120.9,120.9,0,0,1-36.86,32.77c-14.77,8.33-30.87,8.44-40.59-7.18-7.53-12.1-18.47-12.3-26.13-.3-13.16,20.62-14.49,46.31-12.29,70,2.25,24.21,7.27,49.71,23.23,68.9,10.65,12.8,25.48,21.72,41.28,27,27.82,9.25,57.68,8.07,86.45,5.05,58.31-6.12,123.72-15.16,166.49-59.52,9.05-9.38,9.17-24.91.65-34.67a7.31,7.31,0,0,1,0-9.74C1170.12,485.88,1178,472.72,1183.73,457.18Z"/><path class="cls-11" d="M1117.93,482.19c-6.59,2.68-13.67,2.81-19.3,2.21A4.82,4.82,0,0,1,1096,476c22.91-20.27,21.73-50.35,17.39-70.61A4.82,4.82,0,0,0,1104,405c-4,13.84-12.94,24.36-28.24,27.67-12.4,2.68-20-17.73-24.34-36.56a4.83,4.83,0,0,0-9.34-.29c-5.51,18.25-15.13,28.47-23.87,34.2a18.93,18.93,0,0,1-26.83-6.61l-3.9-7a5,5,0,0,0-8.12-.78c-8.69,10.46-15,22.59-22.74,33.68-8.85,12.57-18.9,25.12-33.29,31.5-7.36,3.27-15.46,5.92-23.56,4.13-6-1.31-11-4.86-15.81-8.51-3.44-2.63-9.86-9.81-14.58-8.66-5.4,1.31-6.26,7.8-7.07,12.33a125.46,125.46,0,0,0-1.69,25.61c.76,22.65,13.17,41.16,31,55.45C936.86,597.59,996,582.16,1048,575.6c19.15-2.42,40.47-10.22,55.06-23.18a5,5,0,0,0-3.61-8.65,54.18,54.18,0,0,1-24.63-4.25,4.82,4.82,0,0,1,1-9.22c27.17-4.61,41.52-26.46,48.35-41.65A4.82,4.82,0,0,0,1117.93,482.19Z"/></g></g></svg>