<svg xmlns="http://www.w3.org/2000/svg" width="213.001" height="219.097" viewBox="0 0 213.001 219.097">
  <g id="그룹_1406" data-name="그룹 1406" transform="translate(-3212.248 -482.765)">
    <circle id="타원_327" data-name="타원 327" cx="20.211" cy="20.211" r="20.211" transform="translate(3384.827 599.82)" fill="#b2db31"/>
    <circle id="타원_328" data-name="타원 328" cx="20.211" cy="20.211" r="20.211" transform="translate(3212.248 599.82)" fill="#b2db31"/>
    <path id="패스_1612" data-name="패스 1612" d="M3365.747,506.331h0a16.526,16.526,0,0,0-17.543-10.786,16.784,16.784,0,0,0-1.8-4.5h0a16.565,16.565,0,0,0-28.692,0h0a16.793,16.793,0,0,0-1.8,4.5,16.526,16.526,0,0,0-17.543,10.786h0a16.565,16.565,0,0,0,18.443,21.979h0a16.462,16.462,0,0,0,13.251-12.532,17.185,17.185,0,0,0,1.993.117h0a17.18,17.18,0,0,0,1.994-.117A16.462,16.462,0,0,0,3347.3,528.31h0A16.565,16.565,0,0,0,3365.747,506.331Z" transform="translate(-13.28 0)" fill="#15700e"/>
    <g id="그룹_1393" data-name="그룹 1393" transform="translate(3228.906 507.641)">
      <ellipse id="타원_329" data-name="타원 329" cx="89.873" cy="93.504" rx="89.873" ry="93.504" fill="#b2db31"/>
    </g>
    <path id="패스_1613" data-name="패스 1613" d="M3299.539,641.839h62.581a10.06,10.06,0,0,1,10.037,10.87c-1.131,13.7-8.147,35.469-41.328,35.469s-40.2-21.773-41.327-35.469A10.059,10.059,0,0,1,3299.539,641.839Z" transform="translate(-12.05 -24.824)" fill="#15700e"/>
    <g id="그룹_1396" data-name="그룹 1396" transform="translate(3268.743 527.098)">
      <circle id="타원_330" data-name="타원 330" cx="15.986" cy="15.986" r="15.986" transform="translate(53.351)" fill="#fff"/>
      <circle id="타원_331" data-name="타원 331" cx="6.661" cy="6.661" r="6.661" transform="translate(58.401 11.172)" fill="#1d1d1b"/>
      <circle id="타원_332" data-name="타원 332" cx="15.986" cy="15.986" r="15.986" transform="translate(14.75)" fill="#fff"/>
      <circle id="타원_333" data-name="타원 333" cx="6.661" cy="6.661" r="6.661" transform="translate(27.105 11.614)" fill="#1d1d1b"/>
      <ellipse id="타원_334" data-name="타원 334" cx="8.787" cy="5.37" rx="8.787" ry="5.37" transform="translate(41.249 21.231)" fill="#15700e"/>
      <g id="그룹_1394" data-name="그룹 1394" transform="translate(27.678 39.804)">
        <path id="패스_1614" data-name="패스 1614" d="M3318.38,582.459a8.21,8.21,0,0,0-6.4,3.086l3.88,7.08a3.3,3.3,0,0,0,6.028-.17l3.151-6.612C3323.407,583.987,3321.507,582.459,3318.38,582.459Z" transform="translate(-3311.985 -582.459)" fill="#f8f6f7"/>
        <path id="패스_1615" data-name="패스 1615" d="M3356.154,582.459c-3.125,0-5.025,1.527-6.66,3.382l3.153,6.615a3.3,3.3,0,0,0,6.028.17l3.879-7.077A8.212,8.212,0,0,0,3356.154,582.459Z" transform="translate(-3317.839 -582.459)" fill="#f8f6f7"/>
      </g>
      <g id="그룹_1395" data-name="그룹 1395" transform="translate(0 37.649)">
        <path id="패스_1616" data-name="패스 1616" d="M3361.145,594.16c-5.024,0-7.6-3.2-9.661-5.779s-3.486-4.167-6.3-4.167-4.227,1.583-6.3,4.167-4.637,5.779-9.661,5.779-7.594-3.2-9.661-5.779-3.486-4.167-6.3-4.167-4.227,1.583-6.3,4.167-4.636,5.779-9.66,5.779-7.595-3.2-9.661-5.779-3.486-4.167-6.3-4.167a2.155,2.155,0,1,1,0-4.309c5.024,0,7.594,3.2,9.661,5.779s3.486,4.167,6.3,4.167,4.226-1.583,6.3-4.167,4.637-5.779,9.66-5.779,7.595,3.2,9.661,5.779,3.486,4.167,6.3,4.167,4.226-1.583,6.3-4.167,4.637-5.779,9.661-5.779,7.595,3.2,9.662,5.779,3.486,4.167,6.3,4.167,4.227-1.583,6.3-4.167,4.638-5.779,9.661-5.779a2.155,2.155,0,1,1,0,4.309c-2.814,0-4.228,1.583-6.3,4.167S3366.168,594.16,3361.145,594.16Z" transform="translate(-3279.189 -579.906)" fill="#444"/>
      </g>
    </g>
    <g id="그룹_1397" data-name="그룹 1397" transform="translate(3222.066 572.207)">
      <path id="패스_1617" data-name="패스 1617" d="M3415.719,599.465l.138-.423-.552.129.138-.423-.552.129.138-.423-.552.129.138-.423-.552.129.138-.423-.552.129.138-.423-.552.129.137-.423-.552.129.138-.423-.552.129.138-.423-.552.129.138-.423-.552.129.137-.423-.552.129.138-.423-.552.129.138-.423-.551.129.137-.423-.552.129.138-.423-.552.129.138-.423-.552.129.138-.423-.552.129.138-.423-.552.129.138-.423-.552.129.138-.423-.552.129.138-.423-.552.129.138-.423-.552.129.138-.423-.552.129.138-.423-.552.129.138-.423-.552.129.138-.423-.552.129.138-.423-.552.129.137-.423-.552.129.138-.423-.552.129.138-.423-.552.129.138-.423-.552.129.137-.423-.552.129.138-.423-.552.129.138-.423-.552.129.138-.423-.552.129.138-.423-68.931,16.12h-24.722l-68.932-16.12.138.423-.552-.129.138.423-.552-.129.138.423-.552-.129.138.423-.552-.129.138.423-.552-.129.138.423-.552-.129.138.423-.552-.129.138.423-.552-.129.138.423-.552-.129.138.423-.552-.129.138.423-.552-.129.138.423-.552-.129.138.423-.552-.129.138.423-.552-.129.138.423-.552-.129.138.423-.552-.129.138.423-.552-.129.138.423-.552-.129.138.423-.552-.129.138.423-.552-.129.138.423-.552-.129.138.423-.552-.129.138.423-.552-.129.138.423-.552-.129.138.423-.552-.129.138.423-.552-.129.138.423-.552-.129.138.423-.552-.129.138.423-.552-.129.138.423-.552-.129.138.423-.552-.129.138.423-.552-.129.138.423-.552-.129.138.423-.552-.129.138.423-.552-.129.138.423-.552-.129,25.287,77.608,59.692,13.959h22.431l59.692-13.959,25.288-77.608Z" transform="translate(-3223.881 -588.745)" fill="#f8f8f8"/>
      <rect id="사각형_1005" data-name="사각형 1005" width="22.431" height="71.694" transform="translate(84.98 30.463)" fill="#f2a906"/>
      <path id="패스_1618" data-name="패스 1618" d="M3410.845,678.9l-59.692,13.96V621.167l84.979-19.873Z" transform="translate(-3243.742 -590.704)" fill="#ffdc54"/>
      <path id="패스_1619" data-name="패스 1619" d="M3249.169,678.9l59.692,13.96V621.167l-84.979-19.873Z" transform="translate(-3223.881 -590.704)" fill="#ffdc54"/>
    </g>
    <g id="그룹_1399" data-name="그룹 1399" transform="translate(3236.039 639.568)">
      <path id="패스_1620" data-name="패스 1620" d="M3289.323,728.774a8.849,8.849,0,0,0,1.937-2.216c14.315-18.454-9.515-44.706-9.515-44.706-22.713-23.328-37.553-8.848-37.553-8.848-7.476,6.05-3.434,23.44,9.029,38.84S3281.846,734.824,3289.323,728.774Z" transform="translate(-3240.438 -668.562)" fill="#15700e"/>
      <g id="그룹_1398" data-name="그룹 1398" transform="translate(0.005)">
        <path id="패스_1621" data-name="패스 1621" d="M3295.753,710.824c-1.166-14.825-14.008-28.973-14.008-28.973-22.713-23.328-37.553-8.848-37.553-8.848-4.09,3.31-4.726,10.016-2.429,17.93C3269.167,726.846,3294.138,711.851,3295.753,710.824Z" transform="translate(-3240.444 -668.562)" fill="#15700e"/>
        <path id="패스_1622" data-name="패스 1622" d="M3289.568,732.911a8.833,8.833,0,0,0,1.937-2.217A22.048,22.048,0,0,0,3296,714.961c-1.615,1.027-26.587,16.021-53.99-19.891a61.837,61.837,0,0,0,11.457,20.91C3265.928,731.381,3282.091,738.961,3289.568,732.911Z" transform="translate(-3240.688 -672.698)" fill="#1b5915"/>
      </g>
    </g>
    <g id="그룹_1401" data-name="그룹 1401" transform="translate(3346.119 639.568)">
      <path id="패스_1623" data-name="패스 1623" d="M3377.388,728.774a8.839,8.839,0,0,1-1.937-2.216c-14.316-18.454,9.515-44.706,9.515-44.706C3407.68,658.523,3422.52,673,3422.52,673c7.476,6.05,3.434,23.44-9.029,38.84S3384.865,734.824,3377.388,728.774Z" transform="translate(-3370.873 -668.562)" fill="#15700e"/>
      <g id="그룹_1400" data-name="그룹 1400" transform="translate(0)">
        <path id="패스_1624" data-name="패스 1624" d="M3370.974,710.824c1.165-14.825,14.008-28.973,14.008-28.973,22.713-23.328,37.553-8.848,37.553-8.848,4.09,3.31,4.725,10.016,2.428,17.93C3397.561,726.846,3372.589,711.851,3370.974,710.824Z" transform="translate(-3370.889 -668.562)" fill="#15700e"/>
        <path id="패스_1625" data-name="패스 1625" d="M3377.388,732.911a8.829,8.829,0,0,1-1.937-2.217,22.044,22.044,0,0,1-4.493-15.733c1.615,1.027,26.587,16.021,53.99-19.891a61.821,61.821,0,0,1-11.457,20.91C3401.028,731.381,3384.865,738.961,3377.388,732.911Z" transform="translate(-3370.874 -672.698)" fill="#1b5915"/>
      </g>
    </g>
    <g id="그룹_1403" data-name="그룹 1403" transform="translate(3383.333 598.413)">
      <path id="패스_1626" data-name="패스 1626" d="M3437.23,656.647h0Z" transform="translate(-3418.442 -625.548)" fill="#9dbc1b"/>
      <path id="패스_1627" data-name="패스 1627" d="M3416.355,653.347c-.184-.516-.344-1.04-.488-1.568C3416.012,652.307,3416.172,652.831,3416.355,653.347Z" transform="translate(-3415.108 -624.788)" fill="#15700e"/>
      <path id="패스_1628" data-name="패스 1628" d="M3417.063,655.162c-.224-.5-.432-1.008-.617-1.524C3416.631,654.154,3416.839,654.661,3417.063,655.162Z" transform="translate(-3415.199 -625.078)" fill="#15700e"/>
      <path id="패스_1629" data-name="패스 1629" d="M3415.3,649.136c-.09-.522-.165-1.049-.217-1.578C3415.138,648.087,3415.212,648.613,3415.3,649.136Z" transform="translate(-3414.986 -624.129)" fill="#15700e"/>
      <path id="패스_1630" data-name="패스 1630" d="M3415.738,651.254c-.133-.508-.247-1.022-.343-1.539C3415.49,650.232,3415.6,650.746,3415.738,651.254Z" transform="translate(-3415.034 -624.466)" fill="#15700e"/>
      <path id="패스_1631" data-name="패스 1631" d="M3415.3,640.713c.089-.538.2-1.076.326-1.61C3415.495,639.637,3415.389,640.174,3415.3,640.713Z" transform="translate(-3415.019 -622.81)" fill="#15700e"/>
      <path id="패스_1632" data-name="패스 1632" d="M3417.981,657.064c-.252-.46-.49-.927-.708-1.4C3417.49,656.137,3417.729,656.6,3417.981,657.064Z" transform="translate(-3415.328 -625.394)" fill="#15700e"/>
      <path id="패스_1633" data-name="패스 1633" d="M3423.211,663.784c-.4-.357-.788-.725-1.157-1.107Q3422.609,663.25,3423.211,663.784Z" transform="translate(-3416.074 -626.489)" fill="#15700e"/>
      <path id="패스_1634" data-name="패스 1634" d="M3424.955,665.238c-.438-.324-.858-.664-1.264-1.015C3424.1,664.575,3424.517,664.914,3424.955,665.238Z" transform="translate(-3416.329 -626.73)" fill="#15700e"/>
      <path id="패스_1635" data-name="패스 1635" d="M3419.093,658.945c-.292-.436-.565-.883-.822-1.337C3418.528,658.062,3418.8,658.508,3419.093,658.945Z" transform="translate(-3415.483 -625.697)" fill="#15700e"/>
      <path id="패스_1636" data-name="패스 1636" d="M3433.956,667a5.653,5.653,0,0,1-.882.367A5.653,5.653,0,0,0,3433.956,667Z" transform="translate(-3417.793 -627.162)" fill="#15700e"/>
      <path id="패스_1637" data-name="패스 1637" d="M3421.664,662.245c-.382-.4-.749-.816-1.094-1.245C3420.915,661.429,3421.282,661.841,3421.664,662.245Z" transform="translate(-3415.842 -626.227)" fill="#15700e"/>
      <path id="패스_1638" data-name="패스 1638" d="M3420.383,660.747c-.347-.43-.67-.874-.98-1.328C3419.713,659.873,3420.036,660.318,3420.383,660.747Z" transform="translate(-3415.66 -625.98)" fill="#15700e"/>
      <path id="패스_1639" data-name="패스 1639" d="M3415.038,642.885c.04-.535.1-1.07.184-1.6C3415.141,641.815,3415.078,642.35,3415.038,642.885Z" transform="translate(-3414.979 -623.15)" fill="#15700e"/>
      <path id="패스_1640" data-name="패스 1640" d="M3415.015,643.412a21.275,21.275,0,0,0,.04,3.336A21.275,21.275,0,0,1,3415.015,643.412Z" transform="translate(-3414.968 -623.482)" fill="#15700e"/>
      <path id="패스_1641" data-name="패스 1641" d="M3425.429,665.6c.464.335.94.659,1.438.961a6.086,6.086,0,0,0,3.246.884,6.086,6.086,0,0,1-3.246-.884C3426.369,666.257,3425.893,665.933,3425.429,665.6Z" transform="translate(-3416.6 -626.944)" fill="#15700e"/>
      <g id="그룹_1402" data-name="그룹 1402" transform="translate(0.642)">
        <path id="패스_1642" data-name="패스 1642" d="M3416.176,637.136c-.167.5-.318,1.01-.447,1.52C3415.857,638.146,3416.008,637.64,3416.176,637.136Z" transform="translate(-3415.729 -622.503)" fill="#15700e"/>
        <path id="패스_1643" data-name="패스 1643" d="M3447.084,622.588a21.329,21.329,0,0,0-30.77,11.711,29.881,29.881,0,0,0,6.858,9.071,49.459,49.459,0,0,0,9.131,6.641l.04-.067,1.622.954a.719.719,0,0,1,.416-.03,9.944,9.944,0,0,0,9.586-16.311.7.7,0,0,1,.489-1.179,5.709,5.709,0,0,0,5.048-3.031,5.421,5.421,0,0,0,.407-1A5.923,5.923,0,0,0,3447.084,622.588Z" transform="translate(-3415.821 -619.797)" fill="#15700e"/>
        <path id="패스_1644" data-name="패스 1644" d="M3416.258,637.109c.014-.044.033-.088.048-.132l-.006-.013C3416.283,637.013,3416.273,637.062,3416.258,637.109Z" transform="translate(-3415.812 -622.476)" fill="#15700e"/>
      </g>
      <path id="패스_1645" data-name="패스 1645" d="M3437.56,662.073c-.012.081-.031.161-.046.241C3437.529,662.234,3437.548,662.154,3437.56,662.073Z" transform="translate(-3418.486 -626.394)" fill="#15700e"/>
      <path id="패스_1646" data-name="패스 1646" d="M3436.92,656.854a.507.507,0,0,1,.042-.04A.507.507,0,0,0,3436.92,656.854Z" transform="translate(-3418.394 -625.574)" fill="#15700e"/>
      <path id="패스_1647" data-name="패스 1647" d="M3436.693,657.47c0-.022,0-.043,0-.064C3436.691,657.427,3436.691,657.448,3436.693,657.47Z" transform="translate(-3418.358 -625.666)" fill="#15700e"/>
      <path id="패스_1648" data-name="패스 1648" d="M3436.746,657.111h0Z" transform="translate(-3418.367 -625.62)" fill="#15700e"/>
      <path id="패스_1649" data-name="패스 1649" d="M3435.261,655.584c1.031.583,1.662.886,1.662.886h0l-1.622-.954Z" transform="translate(-3418.135 -625.371)" fill="#15700e"/>
      <path id="패스_1650" data-name="패스 1650" d="M3419.378,659.384c-.044-.064-.09-.127-.133-.192C3419.288,659.257,3419.334,659.32,3419.378,659.384Z" transform="translate(-3415.635 -625.945)" fill="#1b5915"/>
      <path id="패스_1651" data-name="패스 1651" d="M3418.246,657.564c-.045-.079-.089-.159-.134-.24C3418.157,657.4,3418.2,657.484,3418.246,657.564Z" transform="translate(-3415.459 -625.653)" fill="#1b5915"/>
      <path id="패스_1652" data-name="패스 1652" d="M3425.391,665.571c-.067-.049-.137-.1-.2-.145C3425.255,665.475,3425.324,665.522,3425.391,665.571Z" transform="translate(-3416.563 -626.917)" fill="#1b5915"/>
      <path id="패스_1653" data-name="패스 1653" d="M3420.568,661l0-.006Z" transform="translate(-3415.841 -626.226)" fill="#1b5915"/>
      <path id="패스_1654" data-name="패스 1654" d="M3423.649,664.186c-.075-.066-.15-.131-.224-.2C3423.5,664.056,3423.574,664.121,3423.649,664.186Z" transform="translate(-3416.288 -626.693)" fill="#1b5915"/>
      <path id="패스_1655" data-name="패스 1655" d="M3432.95,667.431a5.725,5.725,0,0,1-.669.181A5.725,5.725,0,0,0,3432.95,667.431Z" transform="translate(-3417.67 -627.23)" fill="#1b5915"/>
      <path id="패스_1656" data-name="패스 1656" d="M3432.078,667.646a5.977,5.977,0,0,1-1.1.116A5.977,5.977,0,0,0,3432.078,667.646Z" transform="translate(-3417.467 -627.264)" fill="#1b5915"/>
      <path id="패스_1657" data-name="패스 1657" d="M3434.119,666.806a5.474,5.474,0,0,0,1.378-1.03h0A5.474,5.474,0,0,1,3434.119,666.806Z" transform="translate(-3417.957 -626.972)" fill="#1b5915"/>
      <path id="패스_1658" data-name="패스 1658" d="M3422.024,662.645c-.054-.056-.106-.114-.159-.17C3421.919,662.532,3421.97,662.59,3422.024,662.645Z" transform="translate(-3416.044 -626.457)" fill="#1b5915"/>
      <path id="패스_1659" data-name="패스 1659" d="M3415.083,647.528c0-.054-.008-.109-.012-.163C3415.076,647.419,3415.079,647.474,3415.083,647.528Z" transform="translate(-3414.984 -624.099)" fill="#1b5915"/>
      <path id="패스_1660" data-name="패스 1660" d="M3415.024,643.376c0-.064.008-.129.012-.194C3415.031,643.247,3415.028,643.311,3415.024,643.376Z" transform="translate(-3414.976 -623.446)" fill="#1b5915"/>
      <path id="패스_1661" data-name="패스 1661" d="M3415.387,649.671c-.015-.081-.03-.162-.044-.243C3415.357,649.509,3415.371,649.59,3415.387,649.671Z" transform="translate(-3415.026 -624.421)" fill="#1b5915"/>
      <path id="패스_1662" data-name="패스 1662" d="M3415.256,641.24c.012-.077.024-.153.037-.229C3415.28,641.087,3415.267,641.163,3415.256,641.24Z" transform="translate(-3415.012 -623.107)" fill="#1b5915"/>
      <path id="패스_1663" data-name="패스 1663" d="M3417.258,655.627c-.028-.061-.053-.122-.081-.183C3417.2,655.5,3417.23,655.566,3417.258,655.627Z" transform="translate(-3415.313 -625.36)" fill="#1b5915"/>
      <path id="패스_1664" data-name="패스 1664" d="M3415.686,639.077c.011-.047.024-.094.036-.14C3415.71,638.983,3415.7,639.03,3415.686,639.077Z" transform="translate(-3415.08 -622.784)" fill="#1b5915"/>
      <path id="패스_1665" data-name="패스 1665" d="M3416.446,653.638h0Z" transform="translate(-3415.199 -625.078)" fill="#1b5915"/>
      <path id="패스_1666" data-name="패스 1666" d="M3415.857,651.741c-.019-.068-.039-.135-.056-.2C3415.818,651.607,3415.839,651.674,3415.857,651.741Z" transform="translate(-3415.098 -624.75)" fill="#1b5915"/>
      <path id="패스_1667" data-name="패스 1667" d="M3437.23,656.647Z" transform="translate(-3418.442 -625.548)" fill="#1b5915"/>
      <path id="패스_1668" data-name="패스 1668" d="M3437.548,661.666a5.7,5.7,0,0,0-.105-2.2A5.7,5.7,0,0,1,3437.548,661.666Z" transform="translate(-3418.475 -625.987)" fill="#1b5915"/>
      <path id="패스_1669" data-name="패스 1669" d="M3435.752,665.243h0a5.473,5.473,0,0,0,.68-.85,5.71,5.71,0,0,0,.807-2.034,5.71,5.71,0,0,1-.807,2.034A5.473,5.473,0,0,1,3435.752,665.243Z" transform="translate(-3418.211 -626.439)" fill="#1b5915"/>
      <path id="패스_1670" data-name="패스 1670" d="M3436.969,656.788a.729.729,0,0,1,.22-.141h0A.72.72,0,0,0,3436.969,656.788Z" transform="translate(-3418.401 -625.548)" fill="#1b5915"/>
      <path id="패스_1671" data-name="패스 1671" d="M3436.691,657.36a.669.669,0,0,1,.047-.248A.669.669,0,0,0,3436.691,657.36Z" transform="translate(-3418.358 -625.62)" fill="#1b5915"/>
      <path id="패스_1672" data-name="패스 1672" d="M3436.746,657.072a.729.729,0,0,1,.146-.211A.718.718,0,0,0,3436.746,657.072Z" transform="translate(-3418.367 -625.581)" fill="#1b5915"/>
      <path id="패스_1673" data-name="패스 1673" d="M3436.694,657.482a.662.662,0,0,0,.077.266A.662.662,0,0,1,3436.694,657.482Z" transform="translate(-3418.358 -625.678)" fill="#1b5915"/>
      <path id="패스_1674" data-name="패스 1674" d="M3433.936,655.955a6.61,6.61,0,0,0-.555-1.409.659.659,0,0,1-.077-.266c0-.022,0-.043,0-.064a.664.664,0,0,1,.046-.248h0a.714.714,0,0,1,.147-.211.537.537,0,0,1,.042-.04.717.717,0,0,1,.22-.141s-.631-.3-1.662-.886a49.469,49.469,0,0,1-9.132-6.641,29.867,29.867,0,0,1-6.864-9.083c-.188.551-.348,1.106-.489,1.664-.012.046-.025.093-.036.14-.131.534-.237,1.072-.326,1.61-.013.076-.025.152-.037.229-.081.533-.144,1.068-.184,1.6,0,.065-.008.13-.012.194a21.275,21.275,0,0,0,.04,3.336c0,.054.008.109.012.163.052.529.127,1.056.217,1.578.014.081.029.162.044.243.1.516.209,1.03.343,1.539.018.067.038.135.056.2.145.528.3,1.052.488,1.568h0c.185.516.393,1.023.617,1.524.028.061.053.122.081.183.218.476.456.943.708,1.4.045.08.089.16.134.24.257.454.53.9.822,1.337.043.065.089.128.133.192.31.453.634.9.98,1.328l0,.006c.346.429.713.841,1.094,1.245.053.057.1.115.158.171.369.382.756.75,1.157,1.107.074.067.149.132.224.2.406.351.826.691,1.264,1.015.066.049.135.1.2.145.464.335.94.659,1.438.961a6.086,6.086,0,0,0,3.246.884,5.967,5.967,0,0,0,1.1-.116,5.724,5.724,0,0,0,.669-.181,5.66,5.66,0,0,0,.882-.367,5.546,5.546,0,0,0,2.059-1.879A5.71,5.71,0,0,0,3434,658.4c.015-.08.034-.16.045-.241A5.7,5.7,0,0,0,3433.936,655.955Z" transform="translate(-3414.968 -622.476)" fill="#1b5915"/>
    </g>
    <g id="그룹_1405" data-name="그룹 1405" transform="translate(3219.26 598.413)">
      <path id="패스_1675" data-name="패스 1675" d="M3239.725,656.647h0Z" transform="translate(-3223.548 -625.548)" fill="#9dbc1b"/>
      <path id="패스_1676" data-name="패스 1676" d="M3260.509,653.347c.184-.516.343-1.04.488-1.568C3260.852,652.307,3260.693,652.831,3260.509,653.347Z" transform="translate(-3226.791 -624.788)" fill="#15700e"/>
      <path id="패스_1677" data-name="패스 1677" d="M3259.778,655.162c.224-.5.432-1.008.616-1.524C3260.21,654.154,3260,654.661,3259.778,655.162Z" transform="translate(-3226.677 -625.078)" fill="#15700e"/>
      <path id="패스_1678" data-name="패스 1678" d="M3261.612,649.136c.09-.522.165-1.049.216-1.578C3261.776,648.087,3261.7,648.613,3261.612,649.136Z" transform="translate(-3226.963 -624.129)" fill="#15700e"/>
      <path id="패스_1679" data-name="패스 1679" d="M3261.154,651.254c.133-.508.246-1.022.343-1.539C3261.4,650.232,3261.287,650.746,3261.154,651.254Z" transform="translate(-3226.892 -624.466)" fill="#15700e"/>
      <path id="패스_1680" data-name="패스 1680" d="M3261.595,640.713c-.089-.538-.195-1.076-.326-1.61C3261.4,639.637,3261.506,640.174,3261.595,640.713Z" transform="translate(-3226.91 -622.81)" fill="#15700e"/>
      <path id="패스_1681" data-name="패스 1681" d="M3258.842,657.064c.253-.46.491-.927.709-1.4C3259.333,656.137,3259.1,656.6,3258.842,657.064Z" transform="translate(-3226.531 -625.394)" fill="#15700e"/>
      <path id="패스_1682" data-name="패스 1682" d="M3253.53,663.784q.6-.535,1.157-1.107Q3254.132,663.25,3253.53,663.784Z" transform="translate(-3225.702 -626.489)" fill="#15700e"/>
      <path id="패스_1683" data-name="패스 1683" d="M3251.766,665.238c.438-.324.858-.664,1.264-1.015Q3252.421,664.751,3251.766,665.238Z" transform="translate(-3225.427 -626.73)" fill="#15700e"/>
      <path id="패스_1684" data-name="패스 1684" d="M3257.71,658.945c.292-.436.564-.883.822-1.337C3258.274,658.062,3258,658.508,3257.71,658.945Z" transform="translate(-3226.354 -625.697)" fill="#15700e"/>
      <path id="패스_1685" data-name="패스 1685" d="M3242.836,667a5.673,5.673,0,0,0,.882.367A5.673,5.673,0,0,1,3242.836,667Z" transform="translate(-3224.033 -627.162)" fill="#15700e"/>
      <path id="패스_1686" data-name="패스 1686" d="M3255.089,662.245c.381-.4.749-.816,1.094-1.245C3255.837,661.429,3255.469,661.841,3255.089,662.245Z" transform="translate(-3225.945 -626.227)" fill="#15700e"/>
      <path id="패스_1687" data-name="패스 1687" d="M3256.391,660.747c.347-.43.67-.874.979-1.328C3257.061,659.873,3256.738,660.318,3256.391,660.747Z" transform="translate(-3226.149 -625.98)" fill="#15700e"/>
      <path id="패스_1688" data-name="패스 1688" d="M3261.883,642.885q-.061-.8-.185-1.6Q3261.82,642.082,3261.883,642.885Z" transform="translate(-3226.977 -623.15)" fill="#15700e"/>
      <path id="패스_1689" data-name="패스 1689" d="M3261.924,643.412a21.246,21.246,0,0,1-.04,3.336A21.246,21.246,0,0,0,3261.924,643.412Z" transform="translate(-3227.006 -623.482)" fill="#15700e"/>
      <path id="패스_1690" data-name="패스 1690" d="M3250.66,665.6c-.464.335-.94.659-1.438.961a6.089,6.089,0,0,1-3.246.884,6.087,6.087,0,0,0,3.246-.884C3249.72,666.257,3250.2,665.933,3250.66,665.6Z" transform="translate(-3224.523 -626.944)" fill="#15700e"/>
      <g id="그룹_1404" data-name="그룹 1404">
        <path id="패스_1691" data-name="패스 1691" d="M3260.7,637.136c.167.5.317,1.01.446,1.52C3261.014,638.146,3260.864,637.64,3260.7,637.136Z" transform="translate(-3226.821 -622.503)" fill="#15700e"/>
        <path id="패스_1692" data-name="패스 1692" d="M3223.615,622.588a21.327,21.327,0,0,1,30.769,11.711,29.888,29.888,0,0,1-6.858,9.071,49.459,49.459,0,0,1-9.131,6.641l-.04-.067-1.622.954a.72.72,0,0,0-.416-.03,9.944,9.944,0,0,1-9.585-16.311.7.7,0,0,0-.489-1.179,5.708,5.708,0,0,1-5.048-3.031,5.421,5.421,0,0,1-.407-1A5.923,5.923,0,0,1,3223.615,622.588Z" transform="translate(-3220.557 -619.797)" fill="#15700e"/>
        <path id="패스_1693" data-name="패스 1693" d="M3260.688,637.109c-.014-.044-.033-.088-.048-.132l.006-.013C3260.662,637.013,3260.673,637.062,3260.688,637.109Z" transform="translate(-3226.812 -622.476)" fill="#15700e"/>
      </g>
      <path id="패스_1694" data-name="패스 1694" d="M3239.387,662.073c.012.081.031.161.046.241C3239.417,662.234,3239.4,662.154,3239.387,662.073Z" transform="translate(-3223.495 -626.394)" fill="#15700e"/>
      <path id="패스_1695" data-name="패스 1695" d="M3240.027,656.854c-.013-.014-.027-.027-.041-.04C3240,656.827,3240.014,656.839,3240.027,656.854Z" transform="translate(-3223.589 -625.574)" fill="#15700e"/>
      <path id="패스_1696" data-name="패스 1696" d="M3240.261,657.47c0-.022,0-.043,0-.064C3240.263,657.427,3240.263,657.448,3240.261,657.47Z" transform="translate(-3223.632 -625.666)" fill="#15700e"/>
      <path id="패스_1697" data-name="패스 1697" d="M3240.209,657.111h0Z" transform="translate(-3223.624 -625.62)" fill="#15700e"/>
      <path id="패스_1698" data-name="패스 1698" d="M3241.387,655.584c-1.031.583-1.662.886-1.662.886h0l1.622-.954Z" transform="translate(-3223.548 -625.371)" fill="#15700e"/>
      <path id="패스_1699" data-name="패스 1699" d="M3257.552,659.384c.045-.064.09-.127.133-.192C3257.642,659.257,3257.6,659.32,3257.552,659.384Z" transform="translate(-3226.33 -625.945)" fill="#1b5915"/>
      <path id="패스_1700" data-name="패스 1700" d="M3258.684,657.564c.045-.079.089-.159.133-.24C3258.773,657.4,3258.729,657.484,3258.684,657.564Z" transform="translate(-3226.507 -625.653)" fill="#1b5915"/>
      <path id="패스_1701" data-name="패스 1701" d="M3251.526,665.571c.068-.049.136-.1.2-.145C3251.662,665.475,3251.593,665.522,3251.526,665.571Z" transform="translate(-3225.389 -626.917)" fill="#1b5915"/>
      <path id="패스_1702" data-name="패스 1702" d="M3256.385,661l.005-.006Z" transform="translate(-3226.148 -626.226)" fill="#1b5915"/>
      <path id="패스_1703" data-name="패스 1703" d="M3253.264,664.186c.075-.066.15-.131.224-.2C3253.414,664.056,3253.339,664.121,3253.264,664.186Z" transform="translate(-3225.661 -626.693)" fill="#1b5915"/>
      <path id="패스_1704" data-name="패스 1704" d="M3243.881,667.431a5.725,5.725,0,0,0,.669.181A5.725,5.725,0,0,1,3243.881,667.431Z" transform="translate(-3224.197 -627.23)" fill="#1b5915"/>
      <path id="패스_1705" data-name="패스 1705" d="M3244.674,667.646a5.974,5.974,0,0,0,1.1.116A5.974,5.974,0,0,1,3244.674,667.646Z" transform="translate(-3224.32 -627.264)" fill="#1b5915"/>
      <path id="패스_1706" data-name="패스 1706" d="M3242.581,666.806a5.474,5.474,0,0,1-1.378-1.03h0A5.474,5.474,0,0,0,3242.581,666.806Z" transform="translate(-3223.779 -626.972)" fill="#1b5915"/>
      <path id="패스_1707" data-name="패스 1707" d="M3254.9,662.645c.054-.056.106-.114.159-.17C3255.006,662.532,3254.955,662.59,3254.9,662.645Z" transform="translate(-3225.916 -626.457)" fill="#1b5915"/>
      <path id="패스_1708" data-name="패스 1708" d="M3261.868,647.528c.006-.054.008-.109.014-.163C3261.876,647.419,3261.874,647.474,3261.868,647.528Z" transform="translate(-3227.003 -624.099)" fill="#1b5915"/>
      <path id="패스_1709" data-name="패스 1709" d="M3261.929,643.376c0-.064-.007-.129-.012-.194C3261.921,643.247,3261.925,643.311,3261.929,643.376Z" transform="translate(-3227.011 -623.446)" fill="#1b5915"/>
      <path id="패스_1710" data-name="패스 1710" d="M3261.56,649.671c.015-.081.03-.162.044-.243C3261.589,649.509,3261.575,649.59,3261.56,649.671Z" transform="translate(-3226.955 -624.421)" fill="#1b5915"/>
      <path id="패스_1711" data-name="패스 1711" d="M3261.691,641.24c-.011-.077-.024-.153-.036-.229C3261.667,641.087,3261.68,641.163,3261.691,641.24Z" transform="translate(-3226.97 -623.107)" fill="#1b5915"/>
      <path id="패스_1712" data-name="패스 1712" d="M3259.682,655.627c.028-.061.053-.122.081-.183C3259.735,655.5,3259.71,655.566,3259.682,655.627Z" transform="translate(-3226.662 -625.36)" fill="#1b5915"/>
      <path id="패스_1713" data-name="패스 1713" d="M3261.262,639.077c-.011-.047-.024-.094-.036-.14C3261.238,638.983,3261.251,639.03,3261.262,639.077Z" transform="translate(-3226.903 -622.784)" fill="#1b5915"/>
      <path id="패스_1714" data-name="패스 1714" d="M3260.508,653.638h0Z" transform="translate(-3226.791 -625.078)" fill="#1b5915"/>
      <path id="패스_1715" data-name="패스 1715" d="M3261.087,651.741c.019-.068.039-.135.057-.2C3261.126,651.607,3261.105,651.674,3261.087,651.741Z" transform="translate(-3226.881 -624.75)" fill="#1b5915"/>
      <path id="패스_1716" data-name="패스 1716" d="M3239.725,656.647Z" transform="translate(-3223.548 -625.548)" fill="#1b5915"/>
      <path id="패스_1717" data-name="패스 1717" d="M3239.376,661.666a5.7,5.7,0,0,1,.105-2.2A5.7,5.7,0,0,0,3239.376,661.666Z" transform="translate(-3223.484 -625.987)" fill="#1b5915"/>
      <path id="패스_1718" data-name="패스 1718" d="M3240.928,665.243h0a5.488,5.488,0,0,1-.68-.85,5.705,5.705,0,0,1-.807-2.034,5.705,5.705,0,0,0,.807,2.034A5.488,5.488,0,0,0,3240.928,665.243Z" transform="translate(-3223.504 -626.439)" fill="#1b5915"/>
      <path id="패스_1719" data-name="패스 1719" d="M3239.945,656.788a.733.733,0,0,0-.22-.141h0A.733.733,0,0,1,3239.945,656.788Z" transform="translate(-3223.548 -625.548)" fill="#1b5915"/>
      <path id="패스_1720" data-name="패스 1720" d="M3240.255,657.36a.664.664,0,0,0-.046-.248A.664.664,0,0,1,3240.255,657.36Z" transform="translate(-3223.624 -625.62)" fill="#1b5915"/>
      <path id="패스_1721" data-name="패스 1721" d="M3240.182,657.072a.726.726,0,0,0-.147-.211A.715.715,0,0,1,3240.182,657.072Z" transform="translate(-3223.596 -625.581)" fill="#1b5915"/>
      <path id="패스_1722" data-name="패스 1722" d="M3240.247,657.482a.662.662,0,0,1-.077.266A.662.662,0,0,0,3240.247,657.482Z" transform="translate(-3223.617 -625.678)" fill="#1b5915"/>
      <path id="패스_1723" data-name="패스 1723" d="M3239.481,655.955a5.573,5.573,0,0,1,.2-.617,5.644,5.644,0,0,1,.358-.792.667.667,0,0,0,.077-.266c0-.022,0-.043,0-.064a.659.659,0,0,0-.046-.248h0a.72.72,0,0,0-.147-.211c-.013-.014-.027-.027-.041-.04a.735.735,0,0,0-.22-.141s.63-.3,1.661-.886a49.452,49.452,0,0,0,9.131-6.641,29.864,29.864,0,0,0,6.864-9.083c.188.551.348,1.106.489,1.664.012.046.025.093.036.14.131.534.237,1.072.325,1.61.013.076.025.152.036.229.082.533.144,1.068.185,1.6,0,.065.008.13.012.194a21.275,21.275,0,0,1-.039,3.336c-.006.054-.008.109-.014.163-.052.529-.126,1.056-.216,1.578-.015.081-.029.162-.044.243-.1.516-.209,1.03-.343,1.539-.017.067-.038.135-.057.2-.144.528-.3,1.052-.488,1.568h0c-.184.516-.393,1.023-.616,1.524-.028.061-.053.122-.081.183-.218.476-.455.943-.708,1.4-.044.08-.088.16-.133.24-.258.454-.53.9-.822,1.337-.043.065-.089.128-.133.192-.31.453-.633.9-.98,1.328l-.005.006c-.345.429-.713.841-1.094,1.245-.053.057-.1.115-.159.171q-.555.573-1.157,1.107c-.074.067-.149.132-.224.2-.406.351-.826.691-1.264,1.015-.066.049-.135.1-.2.145-.464.335-.94.659-1.438.961a6.085,6.085,0,0,1-3.245.884,5.97,5.97,0,0,1-1.1-.116,5.734,5.734,0,0,1-.669-.181,5.65,5.65,0,0,1-.882-.367,5.536,5.536,0,0,1-2.058-1.879,5.705,5.705,0,0,1-.807-2.034c-.015-.08-.034-.16-.046-.241A5.7,5.7,0,0,1,3239.481,655.955Z" transform="translate(-3223.484 -622.476)" fill="#1b5915"/>
    </g>
  </g>
</svg>
