<svg xmlns="http://www.w3.org/2000/svg" xmlns:xlink="http://www.w3.org/1999/xlink" width="249.229" height="170.237" viewBox="0 0 249.229 170.237">
  <defs>
    <filter id="합치기_8" x="0" y="0" width="249.229" height="90.659" filterUnits="userSpaceOnUse">
      <feOffset dy="3" input="SourceAlpha"/>
      <feGaussianBlur stdDeviation="3" result="blur"/>
      <feFlood flood-opacity="0.161"/>
      <feComposite operator="in" in2="blur"/>
      <feComposite in="SourceGraphic"/>
    </filter>
    <clipPath id="clip-path">
      <ellipse id="타원_274" data-name="타원 274" cx="6.131" cy="9.121" rx="6.131" ry="9.121" fill="none"/>
    </clipPath>
  </defs>
  <g id="그룹_1017" data-name="그룹 1017" transform="translate(-1372.771 -1965.763)">
    <g transform="matrix(1, 0, 0, 1, 1372.77, 1965.76)" filter="url(#합치기_8)">
      <path id="합치기_8-2" data-name="합치기 8" d="M108.9,61.2H30.6A30.6,30.6,0,1,1,30.6,0H200.631a30.6,30.6,0,1,1,0,61.2H122.29l-6.821,11.463Z" transform="translate(9 6)" fill="#183e15"/>
    </g>
    <text id="직접_올린_레시피를_밀키트_제품으로_만날_수_있는_기회까지_" data-name="직접 올린 레시피를 밀키트 제품으로 
만날 수 있는 기회까지!" transform="translate(1501.771 1998.598)" fill="#fff" font-size="13" font-family="NotoSansCJKkr-Bold, Noto Sans CJK KR" font-weight="700"><tspan x="-97.078" y="0">직접 올린 레시피를 밀키트 제품으로 </tspan><tspan x="-60.651" y="19">만날 수 있는 기회까지!</tspan></text>
    <g id="그룹_870" data-name="그룹 870" transform="translate(50.3 -290.521)">
      <g id="그룹_869" data-name="그룹 869" transform="translate(1384.55 2346.917)">
        <path id="패스_1230" data-name="패스 1230" d="M419.479-190.739h0a9.4,9.4,0,0,0-9.973-6.132,9.546,9.546,0,0,0-1.023-2.557h0a9.417,9.417,0,0,0-16.311,0h0a9.525,9.525,0,0,0-1.022,2.557,9.4,9.4,0,0,0-9.974,6.132h0a9.417,9.417,0,0,0,10.485,12.495h0a9.359,9.359,0,0,0,7.534-7.124,9.746,9.746,0,0,0,1.133.067h0a9.757,9.757,0,0,0,1.133-.067,9.358,9.358,0,0,0,7.533,7.124h0A9.417,9.417,0,0,0,419.479-190.739Z" transform="translate(-337.792 204.136)" fill="#15700e"/>
        <path id="패스_1231" data-name="패스 1231" d="M416.823-133.671a30.3,30.3,0,0,0-1.586-6.25,62.06,62.06,0,0,0-3.508-7.733,56.547,56.547,0,0,0-19.546-20.913,64.279,64.279,0,0,0-15.39-7.031v0a27.65,27.65,0,0,0-3.761-1.04,44.654,44.654,0,0,0-9.113-.961,44.66,44.66,0,0,0-9.113.961,27.626,27.626,0,0,0-3.761,1.04v0a64.282,64.282,0,0,0-15.39,7.031,56.551,56.551,0,0,0-19.546,20.913,62.126,62.126,0,0,0-3.508,7.733,30.3,30.3,0,0,0-1.586,6.25c-.287,1.956-.407,7.9-.407,9.881v7.531h106.62v-7.531C417.229-125.772,417.111-131.716,416.823-133.671Z" transform="translate(-301.384 190.332)" fill="#b2db31"/>
        <circle id="타원_269" data-name="타원 269" cx="9.088" cy="9.088" r="9.088" transform="translate(64.42 19.094)" fill="#fff"/>
        <circle id="타원_270" data-name="타원 270" cx="3.787" cy="3.787" r="3.787" transform="translate(67.802 21.575)" fill="#1d1d1b"/>
        <circle id="타원_271" data-name="타원 271" cx="9.088" cy="9.088" r="9.088" transform="translate(42.475 19.094)" fill="#fff"/>
        <circle id="타원_272" data-name="타원 272" cx="3.787" cy="3.787" r="3.787" transform="translate(49.696 21.575)" fill="#1d1d1b"/>
        <ellipse id="타원_273" data-name="타원 273" cx="4.995" cy="3.053" rx="4.995" ry="3.053" transform="translate(57.54 31.163)" fill="#15700e"/>
        <g id="그룹_866" data-name="그룹 866" transform="translate(0 62.484)">
          <g id="그룹_865" data-name="그룹 865" transform="translate(0 0)">
            <g id="그룹_863" data-name="그룹 863">
              <path id="패스_1232" data-name="패스 1232" d="M321.025-61.64a8.461,8.461,0,0,0-.442-1.744,17.336,17.336,0,0,0-.979-2.159,15.785,15.785,0,0,0-5.455-5.836,17.955,17.955,0,0,0-4.295-1.962h0a7.771,7.771,0,0,0-1.05-.29,12.448,12.448,0,0,0-2.543-.268,12.454,12.454,0,0,0-2.544.268,7.747,7.747,0,0,0-1.049.29h0a17.95,17.95,0,0,0-4.3,1.962,15.788,15.788,0,0,0-5.455,5.836,17.329,17.329,0,0,0-.979,2.159,8.433,8.433,0,0,0-.443,1.744c-.08.545-.114,2.2-.114,2.757h0a2.1,2.1,0,0,0,2.1,2.1h25.553a2.1,2.1,0,0,0,2.1-2.1h0C321.138-59.436,321.105-61.095,321.025-61.64Z" transform="translate(-291.381 73.901)" fill="#15700e"/>
            </g>
            <g id="그룹_864" data-name="그룹 864" transform="translate(95.314)">
              <path id="패스_1233" data-name="패스 1233" d="M519.687-61.64a8.457,8.457,0,0,0-.442-1.744,17.327,17.327,0,0,0-.979-2.159,15.785,15.785,0,0,0-5.455-5.836,17.953,17.953,0,0,0-4.295-1.962h0a7.775,7.775,0,0,0-1.05-.29,12.452,12.452,0,0,0-2.543-.268,12.453,12.453,0,0,0-2.544.268,7.772,7.772,0,0,0-1.05.29h0a17.954,17.954,0,0,0-4.295,1.962,15.789,15.789,0,0,0-5.455,5.836,17.324,17.324,0,0,0-.979,2.159,8.424,8.424,0,0,0-.443,1.744c-.08.545-.114,2.2-.114,2.757h0a2.1,2.1,0,0,0,2.1,2.1H517.7a2.1,2.1,0,0,0,2.1-2.1h0C519.8-59.436,519.767-61.095,519.687-61.64Z" transform="translate(-490.043 73.901)" fill="#15700e"/>
            </g>
          </g>
        </g>
        <path id="패스_1234" data-name="패스 1234" d="M413.6-101.546c-4.2,0-7.491-4.6-7.491-10.482s3.29-10.481,7.491-10.481,7.491,4.6,7.491,10.481S417.8-101.546,413.6-101.546Z" transform="translate(-351.066 161.672)" fill="#444"/>
        <g id="그룹_868" data-name="그룹 868" transform="translate(56.404 40.523)">
          <g id="그룹_867" data-name="그룹 867" transform="translate(0 0)" clip-path="url(#clip-path)">
            <path id="패스_1235" data-name="패스 1235" d="M411.645-92.845a10.608,10.608,0,0,0-9.313,6.787l9.305.01,9.305.011A10.609,10.609,0,0,0,411.645-92.845Z" transform="translate(-405.504 105.717)" fill="#e55e48"/>
          </g>
        </g>
      </g>
    </g>
  </g>
</svg>
