<svg xmlns="http://www.w3.org/2000/svg" xmlns:xlink="http://www.w3.org/1999/xlink" width="554.5" height="327.809" viewBox="0 0 554.5 327.809">
  <defs>
    <filter id="합치기_7" x="275.5" y="0" width="279" height="98.988" filterUnits="userSpaceOnUse">
      <feOffset dy="3" input="SourceAlpha"/>
      <feGaussianBlur stdDeviation="3" result="blur"/>
      <feFlood flood-opacity="0.161"/>
      <feComposite operator="in" in2="blur"/>
      <feComposite in="SourceGraphic"/>
    </filter>
  </defs>
  <g id="그룹_1077" data-name="그룹 1077" transform="translate(620.305 -2307.191)">
    <path id="패스_1393" data-name="패스 1393" d="M1377.685,307.153h0a19.583,19.583,0,0,0-20.787-12.78,19.873,19.873,0,0,0-2.132-5.329h0a19.628,19.628,0,0,0-34,0h0a19.838,19.838,0,0,0-2.131,5.329,19.584,19.584,0,0,0-20.788,12.78h0A19.628,19.628,0,0,0,1319.7,333.2h0a19.5,19.5,0,0,0,15.7-14.849,20.345,20.345,0,0,0,2.363.139h0a20.342,20.342,0,0,0,2.362-.139,19.5,19.5,0,0,0,15.7,14.849h0A19.628,19.628,0,0,0,1377.685,307.153Z" transform="translate(-1752.425 2097.771)" fill="#15700e"/>
    <path id="패스_1394" data-name="패스 1394" d="M1448.034,397.327a63.161,63.161,0,0,0-3.305-13.027,129.48,129.48,0,0,0-7.311-16.118,117.859,117.859,0,0,0-40.739-43.588,133.971,133.971,0,0,0-32.077-14.655v-.005a57.811,57.811,0,0,0-7.84-2.167,91.065,91.065,0,0,0-37.989,0,57.764,57.764,0,0,0-7.839,2.167v.005a133.979,133.979,0,0,0-32.078,14.655,117.869,117.869,0,0,0-40.739,43.588,129.479,129.479,0,0,0-7.311,16.118,63.161,63.161,0,0,0-3.305,13.027c-.6,4.076-.848,16.466-.848,20.594v15.7h222.229v-15.7C1448.882,413.793,1448.634,401.4,1448.034,397.327Z" transform="translate(-1752.425 2097.771)" fill="#b2db31"/>
    <g id="그룹_1065" data-name="그룹 1065" transform="translate(-1752.425 2097.771)">
      <circle id="타원_305" data-name="타원 305" cx="18.942" cy="18.942" r="18.942" transform="translate(1341.695 319.026)" fill="#fff"/>
      <circle id="타원_306" data-name="타원 306" cx="7.892" cy="7.892" r="7.892" transform="translate(1357.745 325.198)" fill="#1d1d1b"/>
      <circle id="타원_307" data-name="타원 307" cx="18.942" cy="18.942" r="18.942" transform="translate(1295.956 319.026)" fill="#fff"/>
      <circle id="타원_308" data-name="타원 308" cx="7.892" cy="7.892" r="7.892" transform="translate(1312.006 325.198)" fill="#1d1d1b"/>
      <ellipse id="타원_309" data-name="타원 309" cx="10.412" cy="6.363" rx="10.412" ry="6.363" transform="translate(1327.356 344.182)" fill="#15700e"/>
      <g id="그룹_1063" data-name="그룹 1063">
        <path id="패스_1395" data-name="패스 1395" d="M1318.853,366.19a9.722,9.722,0,0,0-7.577,3.657l4.6,8.389a3.906,3.906,0,0,0,7.142-.2l3.734-7.834C1324.81,368,1322.558,366.19,1318.853,366.19Z" fill="#f8f6f7"/>
        <path id="패스_1396" data-name="패스 1396" d="M1356.676,366.19c-3.7,0-5.954,1.808-7.892,4.007l3.736,7.838a3.906,3.906,0,0,0,7.142.2l4.6-8.386A9.73,9.73,0,0,0,1356.676,366.19Z" fill="#f8f6f7"/>
      </g>
      <g id="그룹_1064" data-name="그룹 1064">
        <path id="패스_1397" data-name="패스 1397" d="M1375.589,380.527c-5.953,0-9-3.8-11.448-6.847s-4.131-4.937-7.465-4.937-5.008,1.876-7.464,4.937-5.495,6.847-11.447,6.847-9-3.8-11.447-6.847-4.131-4.937-7.465-4.937-5.008,1.876-7.464,4.937-5.494,6.847-11.446,6.847-9-3.8-11.447-6.847-4.13-4.937-7.464-4.937a2.553,2.553,0,0,1,0-5.106c5.953,0,9,3.8,11.447,6.847s4.13,4.936,7.464,4.936,5.008-1.875,7.464-4.936,5.494-6.847,11.446-6.847,9,3.8,11.447,6.847,4.131,4.936,7.465,4.936,5.008-1.875,7.464-4.936,5.494-6.847,11.447-6.847,9,3.8,11.448,6.847,4.131,4.936,7.465,4.936,5.009-1.875,7.466-4.936,5.495-6.847,11.448-6.847a2.553,2.553,0,0,1,0,5.106c-3.335,0-5.01,1.876-7.466,4.937S1381.542,380.527,1375.589,380.527Z" fill="#444"/>
      </g>
    </g>
    <g id="그룹_1070" data-name="그룹 1070" transform="translate(-1752.425 2097.771)">
      <path id="패스_1399" data-name="패스 1399" d="M1460.061,406.21l-21.1,2.39,3.149-20.539,20.985,4.146Z" fill="#b2db31"/>
      <path id="패스_1400" data-name="패스 1400" d="M1435.083,380.55l22.072,23.6,1.987,2.125a1.045,1.045,0,0,0,1.476.05l42.722-39.956-2.7-2.887-22.071-23.6-2.7-2.887-43.458,40.7Z" fill="#b2db31"/>
      <path id="패스_1401" data-name="패스 1401" d="M1461.7,405.312l31.915-29.849-5.888-6.3-30.688,28.7-2.784,2.6-7.6,7.111c2.686,2.872,6.421,2.394,9.28,1.351A17.054,17.054,0,0,0,1461.7,405.312Z" fill="#9dbc1b"/>
      <path id="패스_1402" data-name="패스 1402" d="M1499.087,342.811a25.307,25.307,0,0,1-.928,35.515,6.938,6.938,0,0,1-9.627.142,6.761,6.761,0,0,1-1.747-6.753.832.832,0,0,0-1.176-.952,11.783,11.783,0,0,1-15.312-16.372.832.832,0,0,0-.871-1.237,6.759,6.759,0,0,1-6.621-2.195,6.937,6.937,0,0,1,.785-9.6A25.306,25.306,0,0,1,1499.087,342.811Z" fill="#15700e"/>
      <g id="그룹_1069" data-name="그룹 1069">
        <path id="패스_1403" data-name="패스 1403" d="M1486.1,370.69a.813.813,0,0,1,.687,1.025,6.761,6.761,0,0,0,1.747,6.753,6.938,6.938,0,0,0,9.627-.142,25.315,25.315,0,0,0,4.047-31.419C1499.329,360.258,1486.1,370.69,1486.1,370.69Z" fill="#1b5915"/>
      </g>
    </g>
  </g>
  <g id="그룹_1076" data-name="그룹 1076" transform="translate(657.368 -168.827)">
    <path id="사각형_779" data-name="사각형 779" d="M0,0H16.771a0,0,0,0,1,0,0V15.015a3.778,3.778,0,0,1-3.778,3.778H3.778A3.778,3.778,0,0,1,0,15.015V0A0,0,0,0,1,0,0Z" transform="translate(-638.575 394.823) rotate(90)" fill="#222"/>
    <path id="사각형_780" data-name="사각형 780" d="M3.778,0h9.215a3.778,3.778,0,0,1,3.778,3.778V18.793a0,0,0,0,1,0,0H0a0,0,0,0,1,0,0V3.778A3.778,3.778,0,0,1,3.778,0Z" transform="translate(-657.368 490.648) rotate(-90)" fill="#222"/>
    <path id="사각형_781" data-name="사각형 781" d="M21.63,0H86.17A21.63,21.63,0,0,1,107.8,21.63V177.123a0,0,0,0,1,0,0H0a0,0,0,0,1,0,0V21.63A21.63,21.63,0,0,1,21.63,0Z" transform="translate(-147.045 388.836) rotate(90)" fill="#f7c401"/>
    <path id="사각형_782" data-name="사각형 782" d="M0,0H107.8a0,0,0,0,1,0,0V298.255a13.037,13.037,0,0,1-13.037,13.037H13.037A13.037,13.037,0,0,1,0,298.255V0A0,0,0,0,1,0,0Z" transform="translate(-328.941 388.836) rotate(90)" fill="#f7c401"/>
    <rect id="사각형_783" data-name="사각형 783" width="107.799" height="6.53" transform="translate(-317.638 388.836) rotate(90)" fill="#444"/>
    <rect id="사각형_784" data-name="사각형 784" width="107.799" height="6.53" transform="translate(-328.941 388.836) rotate(90)" fill="#444"/>
    <rect id="사각형_785" data-name="사각형 785" width="107.799" height="4.773" transform="translate(-324.168 388.836) rotate(90)" fill="#bbb"/>
    <rect id="사각형_786" data-name="사각형 786" width="25.524" height="4.773" transform="translate(-324.168 471.111) rotate(90)" fill="#888"/>
    <path id="패스_1404" data-name="패스 1404" d="M-288.894,380.985a8.744,8.744,0,0,0-8.7,7.851h17.411A8.744,8.744,0,0,0-288.894,380.985Z" fill="#fff"/>
    <path id="패스_1405" data-name="패스 1405" d="M-374.227,380.985a8.744,8.744,0,0,0-8.705,7.851h17.411A8.746,8.746,0,0,0-374.227,380.985Z" fill="#fff"/>
    <g id="그룹_1074" data-name="그룹 1074">
      <path id="패스_1406" data-name="패스 1406" d="M-381.963,385.644a8.66,8.66,0,0,0-.969,3.192h17.411a8.652,8.652,0,0,0-.98-3.209A22.842,22.842,0,0,1-381.963,385.644Z" fill="#ddd"/>
    </g>
    <g id="그룹_1075" data-name="그룹 1075">
      <path id="패스_1407" data-name="패스 1407" d="M-296.629,385.644a8.641,8.641,0,0,0-.97,3.192h17.411a8.653,8.653,0,0,0-.98-3.209A22.838,22.838,0,0,1-296.629,385.644Z" fill="#ddd"/>
    </g>
    <path id="패스_1408" data-name="패스 1408" d="M-166.4,478.277H-628.566a11.656,11.656,0,0,1-11.667-11.643v18.358a11.656,11.656,0,0,0,11.667,11.643h459.892a21.629,21.629,0,0,0,21.629-21.629v-6.047C-147.045,479.628-155.711,478.277-166.4,478.277Z" fill="#f7c401" opacity="0.4" style="mix-blend-mode: multiply;isolation: isolate"/>
    <path id="패스_1409" data-name="패스 1409" d="M-168.674,388.836H-628.035A11.655,11.655,0,0,0-639.7,400.479v6.153a11.655,11.655,0,0,1,11.667-11.644h462.164a19.339,19.339,0,0,1,18.789,14.75A21.613,21.613,0,0,0-168.674,388.836Z" fill="#fff" opacity="0.4" style="mix-blend-mode: screen;isolation: isolate"/>
  </g>
  <g id="그룹_1068" data-name="그룹 1068" transform="translate(-1136.102 -221.95)">
    <g id="그룹_1067" data-name="그룹 1067">
      <g id="그룹_1066" data-name="그룹 1066">
        <path id="패스_1398" data-name="패스 1398" d="M1269.211,435.019a17.635,17.635,0,0,0-.922-3.636,36.118,36.118,0,0,0-2.041-4.5,32.89,32.89,0,0,0-11.37-12.164,37.39,37.39,0,0,0-8.952-4.091h0a16.2,16.2,0,0,0-2.188-.6,25.418,25.418,0,0,0-10.6,0,16.2,16.2,0,0,0-2.188.6h0a37.388,37.388,0,0,0-8.952,4.091,32.9,32.9,0,0,0-11.37,12.164,36.13,36.13,0,0,0-2.04,4.5,17.575,17.575,0,0,0-.923,3.636c-.167,1.137-.237,4.6-.237,5.747h0a4.381,4.381,0,0,0,4.381,4.381h53.261a4.381,4.381,0,0,0,4.381-4.381h0C1269.448,439.614,1269.379,436.156,1269.211,435.019Z" fill="#15700e"/>
      </g>
    </g>
  </g>
  <g id="그룹_1100" data-name="그룹 1100" transform="translate(-1813.5 -3671)">
    <g transform="matrix(1, 0, 0, 1, 1813.5, 3671)" filter="url(#합치기_7)">
      <path id="합치기_7-2" data-name="합치기 7" d="M56.716,48H30.5a30.5,30.5,0,1,1,0-61h199a30.5,30.5,0,1,1,0,61H83.2l-37.02,18.31Z" transform="translate(285 19.5)" fill="#183e15" stroke="#ddd" stroke-width="1"/>
    </g>
    <text id="자신만의_레시피를_올려봐_" data-name="자신만의 레시피를 올려봐!" transform="translate(2229 3712.655)" fill="#fff" font-size="18" font-family="NotoSansCJKkr-Bold, Noto Sans CJK KR" font-weight="700"><tspan x="-98.496" y="0">자신만의 레시피를 올려봐!</tspan></text>
  </g>
</svg>
