<svg xmlns="http://www.w3.org/2000/svg" width="320.499" height="343.986" viewBox="0 0 320.499 343.986">
  <g id="그룹_996" data-name="그룹 996" transform="matrix(0.999, 0.035, -0.035, 0.999, 3.961, -4.506)">
    <g id="그룹_986" data-name="그룹 986" transform="translate(43.144 275.989)">
      <path id="패스_1349" data-name="패스 1349" d="M628.468,498.1l18.092,7.664c25.82-1.02,46.624,7.416,48.185,20.413,1.737,14.461-21,29.083-50.791,32.66s-55.343-5.245-57.08-19.706C586.874,539.135,580.257,508.442,628.468,498.1Z" transform="translate(-586.567 -498.104)" fill="#15700e"/>
      <g id="그룹_985" data-name="그룹 985" transform="translate(30.476)">
        <path id="패스_1350" data-name="패스 1350" d="M610.413,501.253a97.581,97.581,0,0,1,11.424-3.149l18.092,7.664c25.82-1.02,46.624,7.416,48.185,20.413.984,8.191-5.892,16.433-17.448,22.692C618.724,539.455,610.423,501.3,610.413,501.253Z" transform="translate(-610.413 -498.104)" fill="#1b5915"/>
      </g>
    </g>
    <g id="그룹_988" data-name="그룹 988" transform="translate(211.946 275.989)">
      <path id="패스_1351" data-name="패스 1351" d="M785.015,498.1l-18.092,7.664c-25.82-1.02-46.624,7.416-48.185,20.413-1.737,14.461,21,29.083,50.791,32.66s55.343-5.245,57.08-19.706C826.609,539.135,833.225,508.442,785.015,498.1Z" transform="translate(-718.645 -498.104)" fill="#15700e"/>
      <g id="그룹_987" data-name="그룹 987">
        <path id="패스_1352" data-name="패스 1352" d="M796.439,501.253a97.511,97.511,0,0,0-11.424-3.149l-18.092,7.664c-25.82-1.02-46.624,7.416-48.185,20.413-.984,8.191,5.892,16.433,17.449,22.692C788.128,539.455,796.43,501.3,796.439,501.253Z" transform="translate(-718.645 -498.104)" fill="#1b5915"/>
      </g>
    </g>
    <path id="패스_1353" data-name="패스 1353" d="M757.416,317.845h0a25.03,25.03,0,0,0-26.568-16.333,25.372,25.372,0,0,0-2.724-6.811h0a25.086,25.086,0,0,0-43.45,0h0a25.331,25.331,0,0,0-2.725,6.811,25.029,25.029,0,0,0-26.568,16.333h0a25.086,25.086,0,0,0,27.929,33.284h0a24.927,24.927,0,0,0,20.069-18.978,25.988,25.988,0,0,0,3.019.178h0a25.989,25.989,0,0,0,3.019-.178,24.927,24.927,0,0,0,20.069,18.978h0A25.085,25.085,0,0,0,757.416,317.845Z" transform="translate(-524.719 -282.157)" fill="#15700e"/>
    <ellipse id="타원_288" data-name="타원 288" cx="136.1" cy="141.6" rx="136.1" ry="141.6" transform="translate(45.581 37.671)" fill="#b2db31"/>
    <g id="그룹_991" data-name="그룹 991" transform="translate(105.908 67.136)">
      <circle id="타원_289" data-name="타원 289" cx="24.208" cy="24.208" r="24.208" transform="translate(80.793)" fill="#fff"/>
      <circle id="타원_290" data-name="타원 290" cx="10.087" cy="10.087" r="10.087" transform="translate(87.246 9.166)" fill="#1d1d1b"/>
      <circle id="타원_291" data-name="타원 291" cx="24.208" cy="24.208" r="24.208" transform="translate(22.336)" fill="#fff"/>
      <circle id="타원_292" data-name="타원 292" cx="10.087" cy="10.087" r="10.087" transform="translate(28.789 9.166)" fill="#1d1d1b"/>
      <ellipse id="타원_293" data-name="타원 293" cx="13.307" cy="8.133" rx="13.307" ry="8.133" transform="translate(62.466 32.151)" fill="#15700e"/>
      <g id="그룹_989" data-name="그룹 989" transform="translate(41.915 60.277)">
        <path id="패스_1354" data-name="패스 1354" d="M678.157,381.851c-4.478,0-7.3,2.07-9.685,4.674l5.876,10.723a4.991,4.991,0,0,0,9.127-.258l4.772-10.012C685.769,384.165,682.891,381.851,678.157,381.851Z" transform="translate(-668.472 -381.851)" fill="#f8f6f7"/>
        <path id="패스_1355" data-name="패스 1355" d="M716.066,381.851c-4.731,0-7.608,2.312-10.085,5.121l4.775,10.017a4.992,4.992,0,0,0,9.128.258l5.873-10.719C723.366,383.924,720.548,381.851,716.066,381.851Z" transform="translate(-658.043 -381.851)" fill="#f8f6f7"/>
      </g>
      <g id="그룹_990" data-name="그룹 990" transform="translate(0 57.014)">
        <path id="패스_1356" data-name="패스 1356" d="M759.787,400.884c-7.608,0-11.5-4.853-14.631-8.751s-5.28-6.31-9.542-6.31-6.4,2.4-9.539,6.31-7.022,8.751-14.63,8.751-11.5-4.853-14.63-8.751-5.278-6.31-9.539-6.31-6.4,2.4-9.539,6.31-7.022,8.751-14.63,8.751-11.5-4.853-14.628-8.751-5.278-6.31-9.539-6.31a3.263,3.263,0,0,1,0-6.526c7.607,0,11.5,4.853,14.628,8.751s5.28,6.31,9.539,6.31,6.4-2.4,9.539-6.31,7.021-8.751,14.63-8.751,11.5,4.853,14.63,8.751,5.278,6.31,9.539,6.31,6.4-2.4,9.539-6.31,7.023-8.751,14.63-8.751,11.5,4.853,14.631,8.751,5.28,6.31,9.542,6.31,6.4-2.4,9.541-6.31,7.023-8.751,14.631-8.751a3.263,3.263,0,1,1,0,6.526c-4.261,0-6.4,2.4-9.542,6.31S767.395,400.884,759.787,400.884Z" transform="translate(-635.676 -379.298)" fill="#444"/>
      </g>
    </g>
    <path id="패스_1357" data-name="패스 1357" d="M659.722,452.232h94.77a15.232,15.232,0,0,1,15.2,16.46c-1.713,20.741-12.337,53.714-62.584,53.714s-60.873-32.972-62.584-53.714A15.231,15.231,0,0,1,659.722,452.232Z" transform="translate(-527.323 -234.869)" fill="#15700e"/>
    <g id="그룹_993" data-name="그룹 993" transform="translate(259.739 162.131)">
      <path id="패스_1358" data-name="패스 1358" d="M807.585,419.427H761.236v75.589h51.4l-.049-75.589Z" transform="translate(-754.596 -406.121)" fill="#b2db31"/>
      <path id="패스_1359" data-name="패스 1359" d="M761.236,425.045v55.848h11.017V409.016c-5.025,0-7.84,3.9-9.363,7.482A21.813,21.813,0,0,0,761.236,425.045Z" transform="translate(-754.596 -409.016)" fill="#9dbc1b"/>
      <path id="패스_1360" data-name="패스 1360" d="M788.381,501.869A32.343,32.343,0,0,1,756.041,470a8.867,8.867,0,0,1,8.271-9.111,8.646,8.646,0,0,1,7.829,4.265,1.063,1.063,0,0,0,1.915-.266,15.059,15.059,0,0,1,28.65,0,1.063,1.063,0,0,0,1.914.266,8.643,8.643,0,0,1,7.829-4.265A8.868,8.868,0,0,1,820.722,470,32.345,32.345,0,0,1,788.381,501.869Z" transform="translate(-756.04 -396.378)" fill="#15700e"/>
      <g id="그룹_992" data-name="그룹 992" transform="translate(0 64.502)">
        <path id="패스_1361" data-name="패스 1361" d="M773.7,464.011a1.038,1.038,0,0,1-1.555-.253,8.646,8.646,0,0,0-7.829-4.265,8.867,8.867,0,0,0-8.271,9.111,32.355,32.355,0,0,0,25.795,31.206C771.885,485.469,773.7,464.012,773.7,464.011Z" transform="translate(-756.04 -459.485)" fill="#1b5915"/>
      </g>
    </g>
    <g id="그룹_995" data-name="그룹 995" transform="translate(0 62.665)">
      <path id="패스_1362" data-name="패스 1362" d="M579.614,410.885l25.7,5.16,4.332-17.9-26.822-5.283Z" transform="translate(-545.356 -314.043)" fill="#b2db31"/>
      <path id="패스_1363" data-name="패스 1363" d="M628.524,408.221l-37.549,17.188-3.38,1.548a1.334,1.334,0,0,1-1.769-.658l-31.118-67.974,4.594-2.1,37.549-17.188,4.595-2.1,31.628,69.209Z" transform="translate(-552.281 -329.594)" fill="#b2db31"/>
      <path id="패스_1364" data-name="패스 1364" d="M583.5,417.555l-23.246-50.782,10.016-4.586,22.353,48.829,2.027,4.428,5.539,12.1c-4.569,2.091-8.753-.288-11.628-2.908A21.772,21.772,0,0,1,583.5,417.555Z" transform="translate(-550.74 -322.571)" fill="#9dbc1b"/>
      <path id="패스_1365" data-name="패스 1365" d="M571.7,334.132a32.343,32.343,0,0,0-16.139,42.44,8.866,8.866,0,0,0,11.312,4.841,8.642,8.642,0,0,0,5.345-7.137,1.062,1.062,0,0,1,1.851-.555,15.059,15.059,0,0,0,26.05-11.925,1.063,1.063,0,0,1,1.631-1.039,8.637,8.637,0,0,0,8.893.619,8.865,8.865,0,0,0,3.729-11.726A32.344,32.344,0,0,0,571.7,334.132Z" transform="translate(-552.809 -331.19)" fill="#15700e"/>
      <g id="그룹_994" data-name="그룹 994" transform="translate(0 6.272)">
        <path id="패스_1366" data-name="패스 1366" d="M573.524,372.034a1.037,1.037,0,0,0-1.309.878,8.642,8.642,0,0,1-5.345,7.137,8.866,8.866,0,0,1-11.312-4.841A32.353,32.353,0,0,1,566.023,336.1C562.944,353.278,573.524,372.034,573.524,372.034Z" transform="translate(-552.809 -336.097)" fill="#1b5915"/>
      </g>
    </g>
  </g>
</svg>
