<svg xmlns="http://www.w3.org/2000/svg" xmlns:xlink="http://www.w3.org/1999/xlink" width="484.5" height="240.016" viewBox="0 0 484.5 240.016">
  <defs>
    <filter id="합치기_7" x="0" y="0" width="243.786" height="81.09" filterUnits="userSpaceOnUse">
      <feOffset dy="3" input="SourceAlpha"/>
      <feGaussianBlur stdDeviation="3" result="blur"/>
      <feFlood flood-opacity="0.161"/>
      <feComposite operator="in" in2="blur"/>
      <feComposite in="SourceGraphic"/>
    </filter>
  </defs>
  <g id="그룹_2521" data-name="그룹 2521" transform="translate(89.343 56.855)">
    <g id="그룹_1077" data-name="그룹 1077" transform="translate(126.896 0)">
      <path id="패스_1393" data-name="패스 1393" d="M1297.446,297.846h0a13.056,13.056,0,0,1,13.859-8.521,13.26,13.26,0,0,1,1.421-3.553h0a13.086,13.086,0,0,1,22.666,0h0a13.226,13.226,0,0,1,1.421,3.553,13.057,13.057,0,0,1,13.859,8.521h0a13.086,13.086,0,0,1-14.57,17.363h0a13,13,0,0,1-10.469-9.9,13.561,13.561,0,0,1-1.575.093h0a13.56,13.56,0,0,1-1.575-.093,13,13,0,0,1-10.469,9.9h0A13.086,13.086,0,0,1,1297.446,297.846Z" transform="translate(-1211.958 -279.229)" fill="#15700e"/>
      <path id="패스_1394" data-name="패스 1394" d="M1227.218,366.809a42.1,42.1,0,0,1,2.2-8.685,86.331,86.331,0,0,1,4.874-10.746,78.576,78.576,0,0,1,27.161-29.06,89.321,89.321,0,0,1,21.386-9.771v0a38.528,38.528,0,0,1,5.227-1.445,60.714,60.714,0,0,1,25.327,0,38.5,38.5,0,0,1,5.226,1.445v0a89.323,89.323,0,0,1,21.387,9.771,78.584,78.584,0,0,1,27.161,29.06,86.329,86.329,0,0,1,4.874,10.746,42.1,42.1,0,0,1,2.2,8.685c.4,2.717.565,10.978.565,13.73V391H1226.653V380.539C1226.653,377.787,1226.818,369.527,1227.218,366.809Z" transform="translate(-1188.631 -288.073)" fill="#b2db31"/>
      <g id="그룹_1065" data-name="그룹 1065" transform="translate(72.574 26.533)">
        <ellipse id="타원_305" data-name="타원 305" cx="12.628" cy="12.628" rx="12.628" ry="12.628" transform="translate(11.652 0)" fill="#fff"/>
        <ellipse id="타원_306" data-name="타원 306" cx="5.262" cy="5.262" rx="5.262" ry="5.262" transform="translate(15.685 4.115)" fill="#1d1d1b"/>
        <ellipse id="타원_307" data-name="타원 307" cx="12.628" cy="12.628" rx="12.628" ry="12.628" transform="translate(42.146 0)" fill="#fff"/>
        <ellipse id="타원_308" data-name="타원 308" cx="5.262" cy="5.262" rx="5.262" ry="5.262" transform="translate(46.18 4.115)" fill="#1d1d1b"/>
        <ellipse id="타원_309" data-name="타원 309" cx="6.942" cy="4.243" rx="6.942" ry="4.243" transform="translate(32.586 16.772)" fill="#15700e"/>
        <g id="그룹_1063" data-name="그룹 1063" transform="translate(21.867 31.444)">
          <path id="패스_1395" data-name="패스 1395" d="M1316.54,366.19a6.482,6.482,0,0,1,5.052,2.438l-3.065,5.593a2.6,2.6,0,0,1-4.761-.134l-2.49-5.223A6.644,6.644,0,0,1,1316.54,366.19Z" transform="translate(-1286.269 -366.19)" fill="#f8f6f7"/>
          <path id="패스_1396" data-name="패스 1396" d="M1353.839,366.19a6.64,6.64,0,0,1,5.262,2.672l-2.491,5.226a2.6,2.6,0,0,1-4.761.134l-3.064-5.591A6.488,6.488,0,0,1,1353.839,366.19Z" transform="translate(-1348.784 -366.19)" fill="#f8f6f7"/>
        </g>
        <g id="그룹_1064" data-name="그룹 1064" transform="translate(0 29.742)">
          <path id="패스_1397" data-name="패스 1397" d="M1292.791,374.9c3.969,0,6-2.532,7.633-4.565s2.754-3.292,4.977-3.292,3.339,1.251,4.976,3.292,3.663,4.565,7.632,4.565,6-2.532,7.632-4.565,2.754-3.292,4.977-3.292,3.339,1.251,4.976,3.292,3.663,4.565,7.631,4.565,6-2.532,7.632-4.565,2.753-3.292,4.976-3.292a1.7,1.7,0,1,0,0-3.4c-3.969,0-6,2.531-7.632,4.565s-2.753,3.291-4.976,3.291-3.339-1.25-4.976-3.291-3.663-4.565-7.631-4.565-6,2.531-7.632,4.565-2.754,3.291-4.977,3.291-3.339-1.25-4.976-3.291-3.663-4.565-7.632-4.565-6,2.531-7.632,4.565-2.754,3.291-4.977,3.291-3.339-1.25-4.978-3.291-3.664-4.565-7.632-4.565a1.7,1.7,0,0,0,0,3.4c2.224,0,3.34,1.251,4.978,3.292S1288.822,374.9,1292.791,374.9Z" transform="translate(-1278.479 -363.637)" fill="#444"/>
        </g>
      </g>
      <g id="그룹_1070" data-name="그룹 1070" transform="translate(0 37.042)">
        <path id="패스_1399" data-name="패스 1399" d="M1440.98,400.161l14.069,1.593-2.1-13.694-13.99,2.764Z" transform="translate(-1410.411 -352.545)" fill="#b2db31"/>
        <path id="패스_1400" data-name="패스 1400" d="M1477.917,366.033,1463.2,381.766l-1.325,1.417a.7.7,0,0,1-.984.033l-28.483-26.639,1.8-1.925,14.715-15.734,1.8-1.925,28.974,27.133Z" transform="translate(-1430.695 -335.525)" fill="#b2db31"/>
        <path id="패스_1401" data-name="패스 1401" d="M1467.929,393.265l-21.278-19.9,3.925-4.2,20.46,19.136,1.856,1.735,5.07,4.741c-1.791,1.915-4.281,1.6-6.187.9A11.371,11.371,0,0,1,1467.929,393.265Z" transform="translate(-1438.453 -346.248)" fill="#9dbc1b"/>
        <path id="패스_1402" data-name="패스 1402" d="M1465.78,340.138a16.872,16.872,0,0,0,.619,23.678,4.626,4.626,0,0,0,6.418.095,4.508,4.508,0,0,0,1.165-4.5.555.555,0,0,1,.784-.635,7.856,7.856,0,0,0,10.209-10.915.555.555,0,0,1,.581-.825,4.506,4.506,0,0,0,4.414-1.463,4.624,4.624,0,0,0-.523-6.4A16.872,16.872,0,0,0,1465.78,340.138Z" transform="translate(-1461.23 -334.79)" fill="#15700e"/>
        <g id="그룹_1069" data-name="그룹 1069" transform="translate(0 8.079)">
          <path id="패스_1403" data-name="패스 1403" d="M1499.307,362.763a.542.542,0,0,0-.458.683,4.507,4.507,0,0,1-1.165,4.5,4.626,4.626,0,0,1-6.418-.095,16.878,16.878,0,0,1-2.7-20.947C1490.486,355.808,1499.307,362.763,1499.307,362.763Z" transform="translate(-1486.098 -346.907)" fill="#1b5915"/>
        </g>
      </g>
    </g>
    <g id="그룹_1076" data-name="그룹 1076" transform="translate(0 93.609)">
      <path id="사각형_779" data-name="사각형 779" d="M3.778,0h5.43a3.778,3.778,0,0,1,3.778,3.778V14.552a0,0,0,0,1,0,0H0a0,0,0,0,1,0,0V3.778A3.778,3.778,0,0,1,3.778,0Z" transform="translate(395.157 10.715) rotate(90)" fill="#222"/>
      <path id="사각형_780" data-name="사각형 780" d="M0,0H12.986a0,0,0,0,1,0,0V10.774a3.778,3.778,0,0,1-3.778,3.778H3.778A3.778,3.778,0,0,1,0,10.774V0A0,0,0,0,1,0,0Z" transform="translate(380.605 84.915) rotate(-90)" fill="#222"/>
      <path id="사각형_781" data-name="사각형 781" d="M0,0H83.472a0,0,0,0,1,0,0V115.522a21.63,21.63,0,0,1-21.63,21.63H21.63A21.63,21.63,0,0,1,0,115.522V0A0,0,0,0,1,0,0Z" transform="translate(137.151 6.079) rotate(90)" fill="#f7c401"/>
      <path id="사각형_782" data-name="사각형 782" d="M13.037,0h57.4A13.037,13.037,0,0,1,83.472,13.037v228a0,0,0,0,1,0,0H0a0,0,0,0,1,0,0v-228A13.037,13.037,0,0,1,13.037,0Z" transform="translate(381.888 6.079) rotate(90)" fill="#f7c401"/>
      <rect id="사각형_783" data-name="사각형 783" width="83.472" height="5.056" transform="translate(137.151 6.079) rotate(90)" fill="#444"/>
      <rect id="사각형_784" data-name="사각형 784" width="83.472" height="5.056" transform="translate(145.903 6.079) rotate(90)" fill="#444"/>
      <rect id="사각형_785" data-name="사각형 785" width="83.472" height="3.696" transform="translate(140.847 6.079) rotate(90)" fill="#bbb"/>
      <rect id="사각형_786" data-name="사각형 786" width="19.764" height="3.696" transform="translate(140.847 69.787) rotate(90)" fill="#888"/>
      <path id="패스_1404" data-name="패스 1404" d="M-290.858,380.985a6.771,6.771,0,0,1,6.74,6.079H-297.6A6.771,6.771,0,0,1-290.858,380.985Z" transform="translate(400.695 -380.985)" fill="#fff"/>
      <path id="패스_1405" data-name="패스 1405" d="M-376.191,380.985a6.771,6.771,0,0,1,6.741,6.079h-13.482A6.772,6.772,0,0,1-376.191,380.985Z" transform="translate(552.104 -380.985)" fill="#fff"/>
      <g id="그룹_1074" data-name="그룹 1074" transform="translate(169.172 3.594)">
        <path id="패스_1406" data-name="패스 1406" d="M-370.2,385.64a6.706,6.706,0,0,1,.75,2.472h-13.482a6.7,6.7,0,0,1,.759-2.485A17.687,17.687,0,0,0-370.2,385.64Z" transform="translate(382.932 -385.627)" fill="#ddd"/>
      </g>
      <g id="그룹_1075" data-name="그룹 1075" transform="translate(103.096 3.594)">
        <path id="패스_1407" data-name="패스 1407" d="M-284.868,385.64a6.691,6.691,0,0,1,.751,2.472H-297.6a6.7,6.7,0,0,1,.759-2.485A17.684,17.684,0,0,0-284.868,385.64Z" transform="translate(297.599 -385.627)" fill="#ddd"/>
      </g>
      <path id="패스_1408" data-name="패스 1408" d="M-625.245,475.649h357.867a9.025,9.025,0,0,0,9.034-9.015v14.215a9.025,9.025,0,0,1-9.034,9.016H-623.485a16.748,16.748,0,0,1-16.748-16.748v-4.682C-640.233,476.7-633.523,475.649-625.245,475.649Z" transform="translate(640.233 -400.314)" fill="#f7c401" opacity="0.4" style="mix-blend-mode: multiply;isolation: isolate"/>
      <path id="패스_1409" data-name="패스 1409" d="M-622.983,388.836h355.7a9.025,9.025,0,0,1,9.034,9.015v4.764a9.025,9.025,0,0,0-9.034-9.016H-625.153A14.975,14.975,0,0,0-639.7,405.021,16.735,16.735,0,0,1-622.983,388.836Z" transform="translate(639.731 -382.757)" fill="#fff" opacity="0.4" style="mix-blend-mode: screen;isolation: isolate"/>
    </g>
    <g id="그룹_1068" data-name="그룹 1068" transform="translate(291.903 79.015)">
      <g id="그룹_1067" data-name="그룹 1067" transform="translate(0)">
        <g id="그룹_1066" data-name="그룹 1066">
          <path id="패스_1398" data-name="패스 1398" d="M1207.579,426.037a11.436,11.436,0,0,1,.6-2.358,23.438,23.438,0,0,1,1.324-2.918,21.331,21.331,0,0,1,7.374-7.889,24.251,24.251,0,0,1,5.806-2.653h0a10.5,10.5,0,0,1,1.419-.392,16.486,16.486,0,0,1,6.876,0,10.5,10.5,0,0,1,1.419.392h0a24.244,24.244,0,0,1,5.806,2.653,21.335,21.335,0,0,1,7.374,7.889,23.4,23.4,0,0,1,1.323,2.918,11.4,11.4,0,0,1,.6,2.358c.108.737.154,2.98.154,3.727h0a2.841,2.841,0,0,1-2.841,2.841h-34.542a2.841,2.841,0,0,1-2.841-2.841h0C1207.425,429.017,1207.47,426.775,1207.579,426.037Z" transform="translate(-1207.425 -409.464)" fill="#15700e"/>
        </g>
      </g>
    </g>
  </g>
  <g id="그룹_2522" data-name="그룹 2522" transform="translate(9.5 6.5)">
    <g transform="matrix(1, 0, 0, 1, -9.5, -6.5)" filter="url(#합치기_7)">
      <path id="합치기_7-2" data-name="합치기 7" d="M20,61.412a20,20,0,0,1-20-20V34.178a20,20,0,0,1,20-20H57.2L49.035,0,77.7,14.178H204.785a20,20,0,0,1,20,20v7.233a20,20,0,0,1-20,20Z" transform="translate(234.29 67.91) rotate(180)" fill="#183e15" stroke="#ddd" stroke-width="1"/>
    </g>
    <text id="다양한_재료로_음식을_만들어봐_" data-name="다양한 재료로 음식을 만들어봐!" transform="translate(109.192 28.284)" fill="#fff" font-size="13" font-family="NotoSansCJKkr-Bold, Noto Sans CJK KR" font-weight="700"><tspan x="-84.572" y="0">다양한 재료로 음식을 만들어봐!</tspan></text>
  </g>
</svg>
