<svg xmlns="http://www.w3.org/2000/svg" width="295.764" height="359.606" viewBox="0 0 295.764 359.606">
  <g id="그룹_584" data-name="그룹 584" transform="translate(-1168.319 -475.142)">
    <path id="패스_1032" data-name="패스 1032" d="M1352.545,502.632h0c-1.359-7.858-7.47-12.633-13.973-12.8a17.233,17.233,0,0,0-.934-4.592h0c-4.03-11.539-18.166-13.688-25.444-3.869h0a17.263,17.263,0,0,0-2.257,4.107c-6.257-1.778-13.511.965-17.144,8.064h0c-5.63,11,1.661,24.188,13.123,23.741h0c6.405-.251,11.427-4.654,13.6-10.332a14.038,14.038,0,0,0,1.75.382h0a14.213,14.213,0,0,0,1.785.156c.383,6.065,3.869,11.763,9.91,13.906h0C1343.768,525.233,1354.65,514.807,1352.545,502.632Z" fill="#15700e"/>
    <path id="패스_1033" data-name="패스 1033" d="M1453.75,670.33l-32.283-58.836-5.951-10.845c-.378-.688-.783-1.346-1.2-1.985,0,0-31.072-55.713-31.072-55.709a90.264,90.264,0,0,0-43.231-39.7c-2.434-1.074-4.91-2.06-7.43-2.932a38.923,38.923,0,0,0-5.73-1.77,59.755,59.755,0,0,0-27.765,0,37.977,37.977,0,0,0-5.73,1.774c-2.52.868-5,1.854-7.43,2.928a92.414,92.414,0,0,0-16.014,9.036,88.626,88.626,0,0,0-13.529,11.813s-17.8,24.479-28.26,64.47v0l-4.332,7.1-26.709,43.781-21.231,30.925a21.459,21.459,0,0,0,5.529,29.75h0a21.461,21.461,0,0,0,29.75-5.529l1.977-2.879,1.511-2.2,2.854-4.156c2.547,31.914,14.634,37.667,14.634,37.667v78.843a28.151,28.151,0,0,0,27.786,28.058l.135,0,.138,0a28.158,28.158,0,0,0,25.83-17.132s1.946-5.451,1.946-9.318v-1.608c0-11.222.106-22.443.024-33.665-.078-10.647-1.481-21.72-.51-32.321.278-3.035.754-6.176,3.307-8.061,5.3-3.918,11.626-4.653,18.028-4.85,6.233-.191,15.619,1.224,19.44,6.86,3.621,5.341,1.549,15.283,1.529,21.4,0,16.753-.061,33.506-.061,50.26a28.15,28.15,0,0,0,27.785,28.058c.045,0,.09,0,.135,0s.092,0,.138,0a28.157,28.157,0,0,0,25.83-17.131s1.947-5.452,1.947-9.319V750.654l.089-27.327c17.372-26.181,6.578-65.175,6.578-65.175l18.72,41.5c7.219,13.158,22.763,17.324,34.541,9.26S1460.969,683.487,1453.75,670.33Z" fill="#b2db31"/>
    <g id="그룹_564" data-name="그룹 564">
      <g id="그룹_562" data-name="그룹 562">
        <path id="패스_1034" data-name="패스 1034" d="M1230.466,813.45a13.178,13.178,0,0,0,.923,3.053,28.539,28.539,0,0,0,2.021,3.771,29.862,29.862,0,0,0,11.191,10.16,39.612,39.612,0,0,0,8.781,3.382h0a17.7,17.7,0,0,0,2.143.495,28.788,28.788,0,0,0,10.372-.07,17.764,17.764,0,0,0,2.137-.523h0a39.628,39.628,0,0,0,8.734-3.5,29.84,29.84,0,0,0,11.053-10.309,28.492,28.492,0,0,0,1.971-3.8,13.161,13.161,0,0,0,.882-3.065,47.84,47.84,0,0,0,.2-4.837h0c-.014-2.036-1.943-3.673-4.31-3.657l-26.05.174-26.05.175c-2.367.016-4.274,1.679-4.261,3.714h0A47.817,47.817,0,0,0,1230.466,813.45Z" fill="#15700e"/>
      </g>
      <g id="그룹_563" data-name="그룹 563">
        <path id="패스_1035" data-name="패스 1035" d="M1280.9,805.684a8.606,8.606,0,0,0-.6-1.995,18.6,18.6,0,0,0-1.321-2.463,19.5,19.5,0,0,0-7.311-6.637,25.85,25.85,0,0,0-5.736-2.21h0a11.563,11.563,0,0,0-1.4-.323,18.843,18.843,0,0,0-6.775.046,11.7,11.7,0,0,0-1.4.341h0a25.927,25.927,0,0,0-5.706,2.286,19.507,19.507,0,0,0-7.221,6.735,18.557,18.557,0,0,0-1.287,2.481,8.589,8.589,0,0,0-.577,2,31.464,31.464,0,0,0-.13,3.16h0a2.627,2.627,0,0,0,2.816,2.389l17.018-.114,17.017-.114a2.626,2.626,0,0,0,2.784-2.427h0A30.77,30.77,0,0,0,1280.9,805.684Z" fill="#15700e"/>
      </g>
    </g>
    <g id="그룹_565" data-name="그룹 565">
      <path id="패스_1036" data-name="패스 1036" d="M1329.53,531.188c-.006-.127-.017-.253-.026-.379s-.016-.256-.027-.383c-.016-.175-.038-.348-.06-.521-.009-.075-.016-.15-.026-.225-.029-.2-.062-.406-.1-.608-.007-.041-.013-.082-.02-.122-.041-.223-.088-.444-.138-.663l-.011-.053c-.053-.232-.112-.461-.175-.689l0-.014q-.2-.7-.448-1.371h0a15.541,15.541,0,0,0-3.67-5.652q-.242-.236-.493-.46c-.056-.05-.115-.1-.173-.148-.116-.1-.233-.2-.352-.3-.072-.058-.145-.113-.218-.17-.109-.084-.217-.169-.328-.25-.078-.058-.159-.113-.239-.169-.107-.076-.215-.152-.325-.224-.083-.056-.169-.109-.253-.162-.109-.069-.218-.138-.329-.2-.088-.052-.176-.1-.265-.152-.111-.062-.222-.124-.334-.184-.091-.048-.183-.095-.275-.141-.113-.056-.226-.112-.34-.165-.094-.044-.189-.087-.284-.129q-.172-.076-.348-.147c-.1-.039-.192-.078-.289-.115-.119-.045-.238-.088-.358-.13-.1-.034-.2-.068-.294-.1-.121-.039-.244-.076-.367-.112-.1-.029-.2-.058-.3-.085-.125-.034-.251-.064-.378-.094-.1-.024-.2-.048-.3-.07-.131-.028-.264-.051-.4-.076-.1-.017-.194-.036-.291-.052-.141-.022-.282-.04-.424-.058-.092-.012-.183-.025-.275-.035-.159-.017-.319-.028-.479-.039-.076-.006-.152-.014-.229-.018q-.357-.02-.719-.02h0c-.254,0-.506.008-.757.022-.08.005-.159.014-.239.02-.171.012-.341.024-.509.043-.091.01-.18.025-.271.037-.156.021-.313.041-.468.067-.091.016-.18.035-.27.052-.153.029-.306.058-.457.092-.089.02-.176.044-.263.066-.152.037-.3.075-.453.118-.084.023-.166.05-.25.076-.152.046-.3.094-.454.145-.077.027-.154.057-.231.085-.154.056-.307.113-.459.175-.071.029-.141.06-.211.09-.156.066-.312.135-.465.207l-.189.092q-.237.116-.471.241l-.167.092c-.161.089-.319.181-.476.277-.049.029-.1.059-.145.089-.162.1-.323.207-.481.315-.041.027-.081.055-.121.083q-.246.172-.485.354l-.1.076c-.166.128-.329.261-.489.4l-.074.062q-.25.216-.492.442l-.051.048c-.168.16-.333.323-.494.491l-.026.027q-.255.266-.5.545h0q-.215.248-.418.506l-.027.033c-.129.164-.254.331-.377.5l-.045.062q-.174.243-.34.494l-.06.091q-.156.24-.3.488l-.071.12q-.139.237-.271.48l-.079.149c-.082.155-.162.313-.239.471-.029.06-.057.119-.085.179-.071.152-.141.306-.208.462-.03.069-.059.138-.088.207-.062.15-.122.3-.18.452-.03.079-.058.158-.087.238-.053.145-.1.291-.153.439-.03.089-.057.179-.085.269-.044.141-.087.282-.127.424-.028.1-.054.2-.08.3-.035.136-.071.271-.1.407-.026.112-.049.225-.073.337-.027.13-.055.259-.079.389s-.042.25-.062.375-.041.243-.058.365c-.02.139-.034.28-.05.42-.012.112-.027.222-.038.334-.015.164-.024.329-.035.494-.005.091-.014.181-.018.272q-.018.387-.018.778h0q0,.391.018.778c.006.127.017.252.026.378s.015.257.027.384c.016.175.038.347.06.52.009.075.016.151.026.226.028.2.062.407.1.609.007.04.013.08.02.12.041.223.088.444.137.664l.012.052c.053.233.112.462.175.69l0,.014q.194.7.448,1.37v0h0a15.55,15.55,0,0,0,3.67,5.652q.242.235.493.459c.056.051.115.1.173.148.116.1.233.2.352.3.071.058.145.113.218.169.108.085.217.17.327.251.079.058.16.113.24.169.107.075.215.151.324.224.084.055.169.108.254.162.109.069.218.137.329.2.087.052.176.1.265.152.11.063.221.125.334.184.091.048.183.1.275.141.113.057.226.112.34.166.094.044.189.086.284.128.115.051.231.1.348.148.1.039.192.077.289.114.119.046.238.089.358.131.1.034.195.068.294.1.121.039.244.076.367.112.1.029.2.058.3.085.125.033.251.064.378.094.1.023.2.048.3.069.131.028.264.052.4.076.1.018.194.037.291.053.141.022.282.039.424.058.092.011.183.025.275.035.159.017.318.028.478.039.077.005.153.013.23.018.238.012.478.019.718.019h0c.255,0,.507-.007.758-.021.08-.005.159-.014.239-.02.17-.013.34-.025.509-.044.091-.01.18-.025.271-.037.156-.02.313-.041.468-.067.09-.015.18-.034.27-.052.153-.029.306-.058.457-.092.089-.02.176-.043.263-.065.152-.038.3-.075.453-.118.084-.024.166-.051.249-.076.153-.047.3-.094.455-.146l.231-.084q.231-.084.459-.175c.071-.029.141-.06.211-.09.156-.067.311-.135.465-.208.063-.029.126-.06.188-.091q.239-.117.472-.241l.167-.093q.24-.134.476-.276l.145-.09c.162-.1.323-.206.481-.314l.121-.083q.246-.173.485-.355l.1-.075q.249-.194.489-.4l.074-.063c.167-.143.331-.291.492-.442l.051-.047q.252-.24.494-.492l.026-.026c.17-.178.335-.359.5-.545h0c.142-.165.282-.333.418-.505l.026-.033c.13-.164.255-.331.378-.5l.045-.062q.174-.243.339-.494c.02-.031.041-.061.061-.091.1-.161.2-.323.3-.488.023-.04.047-.08.071-.12q.14-.237.27-.48c.027-.05.054-.1.08-.149q.123-.234.239-.472c.028-.059.057-.118.085-.178.071-.153.141-.307.208-.462q.045-.1.087-.207c.063-.15.123-.3.181-.453.03-.078.058-.157.087-.236.052-.146.1-.292.153-.44.03-.089.057-.179.085-.269.043-.141.087-.282.127-.425.028-.1.053-.2.08-.3.035-.135.07-.27.1-.407.026-.111.049-.224.072-.336.028-.13.056-.259.08-.39s.042-.249.062-.374.041-.243.058-.366c.02-.139.034-.279.05-.419.012-.112.027-.223.037-.335.016-.163.025-.329.035-.494.006-.091.015-.18.019-.271q.018-.387.018-.778h0C1329.548,531.705,1329.542,531.445,1329.53,531.188Z" fill="#fff"/>
      <ellipse id="타원_113" data-name="타원 113" cx="5.989" cy="6.443" rx="5.989" ry="6.443" transform="translate(1312.167 520.29)" fill="#1d1d1b"/>
      <path id="패스_1037" data-name="패스 1037" d="M1294.824,531.188c0-.091-.013-.181-.019-.272-.01-.165-.019-.33-.034-.494-.011-.112-.026-.222-.038-.334-.016-.14-.03-.281-.05-.42-.017-.122-.038-.244-.058-.365s-.039-.251-.062-.375-.052-.259-.079-.389c-.024-.112-.047-.225-.073-.337-.031-.136-.067-.271-.1-.407-.026-.1-.052-.2-.08-.3-.04-.142-.083-.283-.127-.424-.028-.09-.055-.18-.085-.269-.049-.148-.1-.294-.153-.439-.029-.08-.057-.159-.087-.238-.058-.152-.118-.3-.18-.452-.029-.069-.058-.138-.088-.207-.067-.156-.137-.31-.208-.462-.028-.06-.056-.119-.085-.179-.077-.158-.157-.316-.239-.471-.026-.05-.053-.1-.08-.149q-.13-.243-.27-.48l-.071-.12q-.148-.247-.3-.488l-.06-.091q-.166-.25-.34-.494l-.045-.063c-.123-.169-.248-.335-.377-.5l-.028-.034q-.2-.258-.417-.505h0q-.242-.279-.5-.545l-.026-.027c-.161-.168-.326-.331-.494-.491l-.051-.048q-.242-.227-.492-.442l-.074-.062c-.16-.136-.323-.269-.489-.4l-.1-.076q-.238-.181-.485-.354c-.04-.028-.08-.056-.121-.083-.158-.108-.319-.213-.481-.315l-.145-.089c-.157-.1-.315-.188-.476-.277l-.167-.092q-.234-.126-.471-.241l-.189-.092c-.153-.072-.309-.141-.465-.207-.07-.03-.14-.061-.212-.09-.151-.061-.3-.119-.457-.175-.077-.028-.155-.058-.233-.085-.15-.051-.3-.1-.453-.145-.083-.026-.166-.052-.25-.076-.149-.043-.3-.081-.452-.118-.088-.022-.175-.046-.264-.066-.151-.034-.3-.063-.457-.092-.09-.017-.179-.036-.27-.052-.155-.026-.311-.046-.468-.067-.09-.012-.18-.027-.271-.037-.168-.019-.338-.031-.508-.043-.08-.006-.16-.015-.24-.02-.251-.014-.5-.022-.758-.022-.24,0-.48.008-.718.02-.077,0-.153.012-.23.018-.16.011-.32.022-.478.039-.092.01-.184.024-.276.035-.141.018-.282.036-.423.058-.1.016-.194.035-.291.052-.132.025-.265.049-.4.077-.1.021-.2.045-.3.069-.127.03-.254.06-.38.094-.1.027-.2.056-.3.085-.123.036-.247.073-.369.112-.1.032-.195.066-.292.1-.121.042-.24.085-.359.13-.1.037-.193.075-.289.114-.117.048-.233.1-.348.148-.095.042-.19.085-.284.129-.114.053-.227.109-.34.165-.092.046-.184.093-.275.141-.112.06-.223.122-.334.184-.089.05-.178.1-.265.153-.111.065-.22.134-.329.2-.084.053-.169.106-.253.161-.111.074-.219.15-.328.227-.079.055-.158.109-.236.166-.112.082-.221.168-.331.254-.071.055-.144.109-.215.166-.12.1-.237.2-.354.3-.057.049-.115.1-.171.146q-.258.23-.506.471h0a15.559,15.559,0,0,0-3.656,5.64h0q-.252.671-.448,1.371l0,.013c-.063.228-.122.458-.175.69l-.011.052c-.05.22-.1.441-.138.664-.007.04-.013.081-.02.121-.035.2-.069.405-.1.609-.01.075-.017.15-.026.225-.022.173-.044.346-.06.521-.012.127-.018.255-.027.383s-.02.252-.026.379c-.012.257-.018.517-.018.778h0q0,.391.018.778c0,.091.013.18.019.271.01.165.019.331.034.494.011.112.026.223.038.335.016.14.03.28.05.419.017.123.038.244.058.366s.039.25.062.374.052.26.079.39c.024.112.047.225.073.336.031.137.067.272.1.407.026.1.052.2.08.3.04.143.083.284.127.425.028.09.055.18.085.269.049.148.1.294.153.44.029.079.057.158.087.236.058.153.118.3.18.453.029.069.058.138.088.207.067.155.137.309.208.462.028.06.056.119.085.178q.116.238.239.472c.026.05.053.1.08.149q.131.243.27.48l.071.12c.1.165.2.327.3.488l.06.091q.167.25.34.494l.045.062c.123.169.248.336.377.5l.028.035c.136.171.275.34.417.5h0c.161.186.326.367.5.545l.026.026q.242.252.494.492l.051.047c.161.151.325.3.492.442l.074.063q.24.2.489.4l.1.075q.239.183.485.355l.121.083c.158.108.319.213.481.314.048.031.1.06.145.09.157.095.315.187.476.276l.167.093q.234.125.471.241c.063.031.126.062.189.091.153.073.309.141.465.208.07.03.14.061.212.09.151.061.3.118.457.175.077.028.154.057.233.084.15.052.3.1.453.146.083.025.166.052.25.076.149.043.3.08.452.118.088.022.175.045.264.065.151.034.3.063.457.092.09.017.179.037.27.052.155.026.311.046.468.067.09.012.18.027.271.037.168.019.338.031.508.044.08.006.16.015.24.02q.376.021.757.021c.241,0,.481-.007.719-.019.077-.005.153-.013.23-.018.16-.011.32-.022.478-.039.092-.01.184-.024.276-.036.141-.018.282-.035.423-.057.1-.016.194-.035.291-.053.132-.024.265-.048.4-.076.1-.021.2-.045.3-.069.127-.03.254-.061.38-.094.1-.027.2-.056.3-.085.123-.036.247-.073.369-.113.1-.031.195-.065.292-.1.121-.042.24-.085.359-.131q.145-.055.288-.114c.117-.048.234-.1.35-.148.1-.042.189-.084.283-.128.114-.054.227-.109.34-.166.092-.046.184-.093.275-.141.112-.059.223-.121.334-.184.089-.05.178-.1.265-.152.111-.066.22-.134.329-.2.084-.054.169-.107.253-.162.111-.073.219-.149.328-.226.079-.055.158-.11.236-.167.112-.082.221-.167.331-.253.071-.056.144-.11.215-.167.12-.1.237-.2.354-.3.057-.05.115-.1.171-.147.172-.153.341-.309.506-.471h0a15.571,15.571,0,0,0,3.656-5.64h0q.252-.67.448-1.371l0-.013c.063-.228.122-.458.175-.691l.011-.051c.05-.22.1-.441.138-.665.007-.04.013-.08.02-.12.035-.2.069-.405.1-.61.01-.074.017-.149.026-.224.022-.173.044-.346.06-.521.012-.127.018-.256.027-.384s.02-.251.026-.378q.018-.387.018-.778h0Q1294.842,531.575,1294.824,531.188Z" fill="#fff"/>
      <ellipse id="타원_114" data-name="타원 114" cx="5.989" cy="6.443" rx="5.989" ry="6.443" transform="translate(1277.461 520.29)" fill="#1d1d1b"/>
      <path id="패스_1038" data-name="패스 1038" d="M1305.153,544.154c.053-.087.1-.174.149-.263.035-.068.064-.138.095-.207a3.562,3.562,0,0,0,.326-1.448h0a3.558,3.558,0,0,0-.326-1.448c-.031-.07-.06-.139-.095-.207-.046-.089-.1-.177-.149-.264s-.1-.161-.159-.241-.1-.145-.154-.215a4.921,4.921,0,0,0-.366-.419c-.037-.038-.079-.074-.117-.112q-.176-.171-.371-.331l-.127-.1c-.165-.129-.338-.253-.521-.372l-.013-.008a9.859,9.859,0,0,0-4.339-1.414c-.059-.006-.118-.01-.177-.015-.324-.027-.652-.045-.987-.045s-.662.018-.986.045c-.059.005-.119.009-.177.015a9.86,9.86,0,0,0-4.339,1.414l-.013.009c-.183.118-.356.242-.521.372-.043.033-.085.067-.127.1q-.2.16-.371.331c-.038.038-.08.074-.117.112a4.9,4.9,0,0,0-.366.419c-.056.07-.1.143-.154.215s-.11.16-.159.242-.1.174-.149.263c-.035.068-.064.138-.095.207a3.556,3.556,0,0,0-.326,1.448h0a3.557,3.557,0,0,0,.326,1.448c.031.069.06.139.095.207.046.089.1.177.149.263s.1.162.158.241.1.146.155.216a4.9,4.9,0,0,0,.366.419c.037.038.079.074.117.112.117.113.241.224.371.331.042.034.084.069.127.1.165.13.338.254.521.372l.013.009a9.86,9.86,0,0,0,4.339,1.414l.177.015c.324.027.652.045.986.045s.663-.018.987-.045l.177-.015a9.859,9.859,0,0,0,4.339-1.414l.013-.009c.183-.118.356-.243.521-.372.043-.033.085-.067.127-.1.13-.107.254-.218.371-.331.038-.038.08-.074.117-.112a4.921,4.921,0,0,0,.366-.419c.056-.07.1-.143.154-.216S1305.1,544.236,1305.153,544.154Z" fill="#15700e"/>
      <path id="패스_1039" data-name="패스 1039" d="M1283.471,557.091c-2.1,0-3.334,1.059-4.759,2.848l2.5,4.9a2.884,2.884,0,0,0,5.419-.165l1.919-4.332C1286.981,558.311,1285.726,557.091,1283.471,557.091Z" fill="#f8f6f7"/>
      <path id="패스_1040" data-name="패스 1040" d="M1312.17,557.091c-2.254,0-3.509,1.218-5.074,3.251l1.921,4.335a2.884,2.884,0,0,0,5.419.165l2.495-4.9C1315.505,558.151,1314.272,557.091,1312.17,557.091Z" fill="#f8f6f7"/>
      <path id="패스_1041" data-name="패스 1041" d="M1340.872,552.923c-4.517,0-6.829,3.1-8.686,5.59s-3.135,4.03-5.665,4.03-3.8-1.532-5.665-4.03-4.169-5.59-8.686-5.59-6.829,3.1-8.686,5.59-3.134,4.03-5.664,4.03-3.8-1.532-5.664-4.03-4.169-5.59-8.685-5.59-6.829,3.1-8.686,5.59-3.134,4.03-5.663,4.03-3.8-1.532-5.664-4.03-4.169-5.59-8.685-5.59a2.09,2.09,0,0,0,0,4.168c2.529,0,3.8,1.532,5.663,4.031s4.169,5.59,8.686,5.59,6.828-3.1,8.685-5.59c.316-.424.614-.817.905-1.183,1.425-1.789,2.658-2.848,4.759-2.848,2.255,0,3.51,1.22,5.076,3.254.191.248.385.506.588.777,1.857,2.49,4.169,5.59,8.685,5.59s6.828-3.1,8.686-5.59c.2-.273.4-.531.59-.78,1.565-2.033,2.82-3.251,5.074-3.251,2.1,0,3.335,1.06,4.761,2.851.29.365.588.757.9,1.18,1.858,2.49,4.17,5.59,8.687,5.59s6.829-3.1,8.686-5.59,3.135-4.031,5.665-4.031a2.09,2.09,0,0,0,0-4.168Z" fill="#444"/>
    </g>
    <g id="그룹_571" data-name="그룹 571">
      <g id="그룹_570" data-name="그룹 570">
        <g id="그룹_567" data-name="그룹 567">
          <g id="그룹_566" data-name="그룹 566">
            <path id="패스_1042" data-name="패스 1042" d="M1411.806,709.7a13.183,13.183,0,0,0,2.383,2.121,28.553,28.553,0,0,0,3.694,2.159,29.869,29.869,0,0,0,14.85,2.814,39.661,39.661,0,0,0,9.254-1.7h0a17.691,17.691,0,0,0,2.087-.7,28.832,28.832,0,0,0,8.806-5.479,17.6,17.6,0,0,0,1.548-1.562h0a39.689,39.689,0,0,0,5.618-7.549,29.863,29.863,0,0,0,4.037-14.565,28.589,28.589,0,0,0-.305-4.268,13.119,13.119,0,0,0-.85-3.074,47.5,47.5,0,0,0-2.357-4.228h0c-1.076-1.728-3.577-2.116-5.586-.865l-22.119,13.761-22.119,13.762c-2.01,1.251-2.767,3.665-1.692,5.394h0A47.951,47.951,0,0,0,1411.806,709.7Z" fill="#15700e"/>
          </g>
        </g>
        <g id="그룹_569" data-name="그룹 569">
          <g id="그룹_568" data-name="그룹 568">
            <path id="패스_1043" data-name="패스 1043" d="M1450.744,676.721a8.591,8.591,0,0,0-1.556-1.386,18.7,18.7,0,0,0-2.413-1.41,19.51,19.51,0,0,0-9.7-1.838,25.874,25.874,0,0,0-6.046,1.113h0a11.464,11.464,0,0,0-1.363.456,18.874,18.874,0,0,0-5.753,3.579,11.787,11.787,0,0,0-1.011,1.021h0a25.9,25.9,0,0,0-3.67,4.931,19.512,19.512,0,0,0-2.637,9.515,18.708,18.708,0,0,0,.2,2.788,8.577,8.577,0,0,0,.555,2.008,30.95,30.95,0,0,0,1.54,2.762h0a2.626,2.626,0,0,0,3.649.566l14.45-8.99,14.449-8.991a2.626,2.626,0,0,0,1.106-3.523h0A30.893,30.893,0,0,0,1450.744,676.721Z" fill="#15700e"/>
          </g>
        </g>
      </g>
    </g>
    <path id="패스_1044" data-name="패스 1044" d="M1352.558,653.041h0l.009,0Z" fill="#95ba22"/>
    <g id="그룹_577" data-name="그룹 577">
      <g id="그룹_576" data-name="그룹 576">
        <g id="그룹_573" data-name="그룹 573">
          <g id="그룹_572" data-name="그룹 572">
            <path id="패스_1045" data-name="패스 1045" d="M1327.683,813.45a13.171,13.171,0,0,0,.923,3.053,28.567,28.567,0,0,0,2.021,3.771,29.863,29.863,0,0,0,11.191,10.16,39.61,39.61,0,0,0,8.781,3.382h0a17.7,17.7,0,0,0,2.143.495,28.788,28.788,0,0,0,10.372-.07,17.757,17.757,0,0,0,2.137-.523h0a39.607,39.607,0,0,0,8.734-3.5,29.85,29.85,0,0,0,11.054-10.309,28.471,28.471,0,0,0,1.97-3.8,13.173,13.173,0,0,0,.882-3.065,47.556,47.556,0,0,0,.2-4.837h0c-.013-2.036-1.943-3.673-4.31-3.657l-26.05.174-26.05.175c-2.367.016-4.274,1.679-4.261,3.714h0A47.818,47.818,0,0,0,1327.683,813.45Z" fill="#15700e"/>
          </g>
        </g>
        <g id="그룹_575" data-name="그룹 575">
          <g id="그룹_574" data-name="그룹 574">
            <path id="패스_1046" data-name="패스 1046" d="M1378.114,805.684a8.656,8.656,0,0,0-.6-1.995,18.613,18.613,0,0,0-1.321-2.463,19.5,19.5,0,0,0-7.31-6.637,25.887,25.887,0,0,0-5.736-2.21h0a11.617,11.617,0,0,0-1.4-.323,18.843,18.843,0,0,0-6.775.046,11.688,11.688,0,0,0-1.4.341h0a25.93,25.93,0,0,0-5.706,2.286,19.507,19.507,0,0,0-7.221,6.735,18.557,18.557,0,0,0-1.287,2.481,8.58,8.58,0,0,0-.576,2,30.826,30.826,0,0,0-.13,3.16h0a2.625,2.625,0,0,0,2.815,2.389l17.018-.114,17.018-.114a2.626,2.626,0,0,0,2.783-2.427h0A31.083,31.083,0,0,0,1378.114,805.684Z" fill="#15700e"/>
          </g>
        </g>
      </g>
    </g>
    <path id="패스_1047" data-name="패스 1047" d="M1313.264,607.908h-14.887c-28.342,0-51.532,22.2-51.532,49.333h0c0,27.134,23.19,49.334,51.532,49.334h14.887c28.342,0,51.532-22.2,51.532-49.334h0C1364.8,630.108,1341.606,607.908,1313.264,607.908Z" fill="#15700e"/>
    <path id="패스_1048" data-name="패스 1048" d="M1214.617,689.518l2.854-4.156h0Z" fill="#b2db31"/>
    <path id="패스_1049" data-name="패스 1049" d="M1228.122,588.571l-4.332,7.1,4.332-7.1Z" fill="#9dbc1b"/>
    <path id="패스_1050" data-name="패스 1050" d="M1213.106,691.72l1.511-2.2-1.511,2.2Z" fill="#9dbc1b"/>
    <path id="패스_1051" data-name="패스 1051" d="M1221.066,628.837c.144-.883.323-1.725.482-2.555a228.414,228.414,0,0,1,6.574-37.711l-4.332,7.1-4.923,8.07c-5.521,21.3-13.2,59.806-5.761,87.978l1.511-2.2,2.854-4.156C1216.386,671.782,1217.028,653.467,1221.066,628.837Z" fill="#9dbc1b"/>
    <path id="패스_1052" data-name="패스 1052" d="M1228.5,587.956h0l-.375.614h0Z" fill="#9dbc1b"/>
    <g id="그룹_583" data-name="그룹 583">
      <g id="그룹_582" data-name="그룹 582">
        <g id="그룹_579" data-name="그룹 579">
          <g id="그룹_578" data-name="그룹 578">
            <path id="패스_1053" data-name="패스 1053" d="M1169.425,677.023a10.054,10.054,0,0,0-.737,2.317,21.72,21.72,0,0,0-.357,3.244,22.776,22.776,0,0,0,2.65,11.217,30.207,30.207,0,0,0,4.06,5.916h0a13.536,13.536,0,0,0,1.134,1.236,21.957,21.957,0,0,0,6.55,4.433,13.617,13.617,0,0,0,1.57.593h0a30.257,30.257,0,0,0,7,1.569,22.763,22.763,0,0,0,11.4-1.71,21.829,21.829,0,0,0,2.879-1.537,10.063,10.063,0,0,0,1.877-1.546,36.7,36.7,0,0,0,2.213-2.955h0a3.066,3.066,0,0,0-1.132-4.16l-16.452-11.133-16.452-11.134a3.065,3.065,0,0,0-4.282.5h0A36.124,36.124,0,0,0,1169.425,677.023Z" fill="#15700e"/>
          </g>
        </g>
        <g id="그룹_581" data-name="그룹 581">
          <g id="그룹_580" data-name="그룹 580">
            <path id="패스_1054" data-name="패스 1054" d="M1204.482,693.907a6.593,6.593,0,0,0,.482-1.514,14.293,14.293,0,0,0,.233-2.119,14.884,14.884,0,0,0-1.731-7.328,19.778,19.778,0,0,0-2.653-3.865h0a8.8,8.8,0,0,0-.741-.808,14.356,14.356,0,0,0-4.279-2.9,8.908,8.908,0,0,0-1.025-.387h0a19.748,19.748,0,0,0-4.574-1.025,14.871,14.871,0,0,0-7.446,1.117,14.18,14.18,0,0,0-1.881,1,6.594,6.594,0,0,0-1.226,1.01,23.719,23.719,0,0,0-1.446,1.93h0a2,2,0,0,0,.739,2.718l10.748,7.273,10.748,7.273a2,2,0,0,0,2.8-.324h0A23.836,23.836,0,0,0,1204.482,693.907Z" fill="#15700e"/>
          </g>
        </g>
      </g>
    </g>
  </g>
</svg>
